<?xml version="1.0" encoding="utf-8"?>
<!-- Generator: Adobe Illustrator 23.0.2, SVG Export Plug-In . SVG Version: 6.00 Build 0)  -->
<svg version="1.1" id="Layer_1" xmlns="http://www.w3.org/2000/svg" xmlns:xlink="http://www.w3.org/1999/xlink" x="0px" y="0px"
	 viewBox="0 0 700 700" style="enable-background:new 0 0 700 700;" xml:space="preserve">
<style type="text/css">
	.st0{fill:#D0EAE5;}
	.st1{fill-rule:evenodd;clip-rule:evenodd;fill:#F5F5F5;}
	.st2{fill-rule:evenodd;clip-rule:evenodd;fill:#086957;}
	.st3{fill-rule:evenodd;clip-rule:evenodd;fill:#FFFFFF;}
	.st4{fill-rule:evenodd;clip-rule:evenodd;fill:#55B6A4;}
	.st5{fill-rule:evenodd;clip-rule:evenodd;fill:#D0EAE5;}
	.st6{clip-path:url(#SVGID_2_);}
	.st7{clip-path:url(#SVGID_4_);}
	.st8{clip-path:url(#SVGID_6_);}
	.st9{clip-path:url(#SVGID_8_);}
	.st10{fill:#FFFFFF;}
</style>
<g id="freepik--Floor--inject-3">
	<path class="st0" d="M562.5,171.4c-134.3-63.2-332.7-34.8-443,63.4s-91,229.3,43.4,292.5s332.7,34.8,443-63.4
		S696.9,234.6,562.5,171.4z"/>
</g>
<path class="st1" d="M179.1,367.7H91.3c-5.2,0-9.4-4.2-9.4-9.4V327c0-5.2,4.2-9.4,9.4-9.4h87.8c5.2,0,9.4,4.2,9.4,9.4v31.2
	C188.6,363.5,184.4,367.7,179.1,367.7z"/>
<path class="st2" d="M172.9,328.3c0.9,0,1.6,0.7,1.6,1.6c0,0.9-0.7,1.6-1.5,1.6h-72.7c-0.9,0-1.6-0.7-1.6-1.6c0-0.9,0.7-1.5,1.5-1.6
	H172.9z"/>
<path class="st2" d="M157.3,336.3c0.9,0,1.6,0.7,1.6,1.6c0,0.8-0.7,1.5-1.5,1.6l-0.1,0h-57c-0.9,0-1.6-0.7-1.6-1.6
	c0-0.9,0.7-1.6,1.5-1.6l0.1,0H157.3z"/>
<path class="st2" d="M172.9,345.3c0.9,0,1.6,0.7,1.6,1.6c0,0.9-0.7,1.6-1.5,1.6l-0.1,0h-72.6c-0.9,0-1.6-0.7-1.6-1.6
	c0-0.8,0.7-1.5,1.5-1.6l0.1,0H172.9z"/>
<path class="st2" d="M157.3,353.3c0.9,0,1.6,0.7,1.6,1.6c0,0.9-0.7,1.6-1.5,1.6h-57.1c-0.9,0-1.6-0.7-1.6-1.6c0-0.9,0.7-1.5,1.5-1.6
	H157.3z"/>
<path class="st2" d="M85.1,335.5c6.3,0,11.5-5.1,11.5-11.5c0-6.3-5.1-11.5-11.5-11.5c-6.3,0-11.5,5.1-11.5,11.5
	C73.6,330.4,78.8,335.5,85.1,335.5z"/>
<path class="st3" d="M610.6,488.7h-446c-6.5,0-11.7-4.9-11.7-10.9V255.4h469.3v222.3C622.3,483.8,617,488.7,610.6,488.7z"/>
<path class="st2" d="M622.3,253.8H152.9c-0.9,0-1.6,0.7-1.6,1.6v222.4c0,6.9,6,12.5,13.3,12.5h446c7.3,0,13.2-5.6,13.2-12.5V255.4
	C623.9,254.5,623.2,253.8,622.3,253.8z M154.5,257h466.1v220.7c0,5.1-4.5,9.3-10,9.3H164.4c-5.5-0.1-9.9-4.2-9.9-9.3V257z"/>
<path class="st4" d="M151.6,259.3l-0.5-55.2c0-6.9,5.3-12.4,11.7-12.4l449.5-0.6c6.5,0,11.7,5.6,11.7,12.4v55.7H151.6z"/>
<path class="st3" d="M393.8,199.6c3.9,0,7.1,3,7.2,6.7l0,0.2v21c0,0.9-0.7,1.6-1.6,1.6c-0.8,0-1.5-0.7-1.6-1.5l0-0.1v-21
	c0-2-1.7-3.6-3.9-3.7l-0.1,0h-41.3c-0.9,0-1.6-0.7-1.6-1.6c0-0.9,0.7-1.5,1.5-1.6H393.8z"/>
<path class="st3" d="M352.7,199.6c4.6,0,9,2.4,11.9,6.2l0,0.1l0,0l14.3,22.6h245.1v3.2h-246c-0.5,0-1-0.2-1.3-0.7l-0.1-0.1
	L362,207.7l-0.1-0.1c-2.2-2.9-5.6-4.7-9-4.8h-96.3c-3.5,0-6.9,1.8-9.2,4.8l-0.1,0.1l-14.7,23.3c-0.3,0.4-0.7,0.7-1.2,0.7l-0.1,0
	l-80,0.4l0-3.2l79.1-0.4l14.3-22.7l0.1-0.1c2.8-3.8,7.1-6.2,11.7-6.2H352.7z"/>
<path class="st3" d="M170.7,218.1c3.9,0,7.1-3.2,7.1-7.1c0-3.9-3.2-7.2-7.1-7.2s-7.2,3.2-7.2,7.2
	C163.5,214.9,166.7,218.1,170.7,218.1z"/>
<path class="st3" d="M194.2,218.1c3.9,0,7.1-3.2,7.1-7.1c0-3.9-3.2-7.2-7.1-7.2c-3.9,0-7.1,3.2-7.1,7.2
	C187,214.9,190.2,218.1,194.2,218.1z"/>
<path class="st3" d="M217.8,218.1c3.9,0,7.1-3.2,7.1-7.1c0-3.9-3.2-7.2-7.1-7.2c-3.9,0-7.2,3.2-7.2,7.2
	C210.6,214.9,213.8,218.1,217.8,218.1z"/>
<path class="st3" d="M343.8,213.5c0.6-0.6,1.5-0.7,2.2-0.2l0.1,0.1l6.5,5.7c0.7,0.6,0.7,1.6,0.2,2.3c-0.6,0.6-1.5,0.7-2.2,0.2
	l-0.1-0.1l-6.5-5.7C343.3,215.1,343.2,214.1,343.8,213.5z"/>
<path class="st3" d="M350.5,213.3c0.7-0.6,1.7-0.5,2.3,0.2c0.5,0.7,0.5,1.6-0.1,2.2l-0.1,0.1l-6.6,5.6c-0.7,0.6-1.7,0.5-2.3-0.2
	c-0.5-0.7-0.5-1.6,0.1-2.2l0.1-0.1L350.5,213.3z"/>
<path class="st3" d="M383.4,209.7c0.9,0,1.5,0.7,1.6,1.5v0.1l-0.1,7.8c0,0.9-0.7,1.6-1.6,1.6c-0.9,0-1.5-0.7-1.6-1.5l0-0.1l0.1-7.8
	C381.8,210.4,382.5,209.7,383.4,209.7z"/>
<path class="st3" d="M387.3,213.6c0.9,0,1.6,0.7,1.6,1.6c0,0.8-0.7,1.5-1.5,1.6h-7.9c-0.9,0-1.6-0.7-1.6-1.6c0-0.9,0.7-1.6,1.5-1.6
	H387.3z"/>
<path class="st5" d="M485.1,363.5H277c-5.1,0-9.3-4.2-9.3-9.3v-26.6c0-5.1,4.2-9.3,9.3-9.3h208.1c5.1,0,9.3,4.2,9.3,9.3v26.6
	C494.3,359.3,490.2,363.5,485.1,363.5z"/>
<path class="st5" d="M337.5,394.6h-46.3c-1.8,0-3.3-1.4-3.3-3.3v-3c0-1.8,1.4-3.3,3.3-3.3h46.3c1.8,0,3.3,1.4,3.3,3.3v3
	C340.7,393.1,339.3,394.6,337.5,394.6z"/>
<path class="st5" d="M483.3,394.6h-27.1c-1.8,0-3.3-1.4-3.3-3.3v-3c0-1.8,1.4-3.3,3.3-3.3h27.1c1.8,0,3.3,1.4,3.3,3.3v3
	C486.5,393.1,485.1,394.6,483.3,394.6z"/>
<path class="st5" d="M440.9,394.6H352c-1.8,0-3.3-1.4-3.3-3.3v-3c0-1.8,1.4-3.3,3.3-3.3h88.9c1.8,0,3.3,1.4,3.3,3.3v3
	C444.1,393.1,442.7,394.6,440.9,394.6z"/>
<path class="st3" d="M605,238.5c0.9,0,1.6,0.7,1.6,1.6c0,0.8-0.7,1.5-1.5,1.6h-9.1c-0.9,0-1.6-0.7-1.6-1.6c0-0.9,0.7-1.6,1.5-1.6
	H605z"/>
<path class="st3" d="M605,243.4c0.9,0,1.6,0.7,1.6,1.6c0,0.9-0.7,1.6-1.5,1.6l-0.1,0h-9c-0.9,0-1.6-0.7-1.6-1.6
	c0-0.8,0.7-1.5,1.5-1.6l0.1,0H605z"/>
<path class="st3" d="M605,248.4c0.9,0,1.6,0.7,1.6,1.6c0,0.9-0.7,1.5-1.5,1.6h-9.1c-0.9,0-1.6-0.7-1.6-1.6c0-0.9,0.7-1.5,1.5-1.6
	H605z"/>
<path class="st3" d="M580.3,242.2c-0.2-0.7-0.8-1.2-1.5-1.2h-3.7l-1.1-3.5c-0.2-0.6-0.9-1.1-1.5-1.1c-0.7,0-1.3,0.4-1.5,1.1
	l-1.1,3.5h-3.7c-0.7,0-1.3,0.4-1.5,1.1c-0.2,0.6,0,1.4,0.6,1.8l3,2.1l-1.1,3.5c-0.2,0.6,0,1.4,0.6,1.8c0.3,0.2,0.6,0.3,1,0.3
	c0.4,0,0.6-0.1,1-0.3l3-2.2l3,1.7c0.6,0.3,1.3,0.3,1.8-0.2c0.5-0.4,0.7-1.1,0.5-1.8l-1.1-3.4l2.8-1.6
	C580.2,243.6,580.5,242.8,580.3,242.2z"/>
<path class="st3" d="M549.2,251.3H233.6c-1.5,0-2.7-1.2-2.7-2.7v-5c0-1.5,1.2-2.7,2.7-2.7h315.6c1.5,0,2.7,1.2,2.7,2.7v5
	C551.9,250.1,550.7,251.3,549.2,251.3z"/>
<path class="st3" d="M178.4,239.4c0.6-0.6,1.7-0.6,2.3,0.1c0.6,0.6,0.6,1.6,0,2.2l-0.1,0.1l-4,3.7l4.2,3.8c0.6,0.6,0.7,1.5,0.2,2.2
	l-0.1,0.1c-0.6,0.6-1.5,0.7-2.2,0.2l-0.1-0.1l-5.5-5c-0.7-0.6-0.7-1.6-0.1-2.3l0.1-0.1L178.4,239.4z"/>
<path class="st3" d="M187.6,243.9c0.9,0,1.6,0.7,1.6,1.6c0,0.8-0.7,1.5-1.5,1.6l-0.1,0h-13.4c-0.9,0-1.6-0.7-1.6-1.6
	c0-0.9,0.7-1.6,1.5-1.6l0.1,0H187.6z"/>
<path class="st3" d="M204.7,239.5c0.6-0.6,1.5-0.7,2.2-0.2l0.1,0.1l5.3,4.9c0.7,0.6,0.7,1.6,0.1,2.3l-0.1,0.1l-5.5,5
	c-0.7,0.6-1.7,0.5-2.3-0.1c-0.6-0.6-0.6-1.6,0-2.2l0.1-0.1l4.2-3.8l-4-3.7C204.1,241.2,204.1,240.2,204.7,239.5L204.7,239.5z"/>
<path class="st3" d="M211.1,243.9c0.9,0,1.6,0.7,1.6,1.6c0,0.8-0.7,1.5-1.5,1.6l-0.1,0h-13.4c-0.9,0-1.6-0.7-1.6-1.6
	c0-0.9,0.7-1.6,1.5-1.6l0.1,0H211.1z"/>
<path class="st3" d="M591,212.2c0.2-0.9,1-1.4,1.9-1.3c0.8,0.2,1.4,1,1.3,1.8l0,0.1l-0.5,2.5l2.7,0.3c0.8,0.1,1.5,0.8,1.4,1.7l0,0.1
	c-0.1,0.8-0.8,1.5-1.7,1.4l-0.1,0l-4.4-0.5c-0.9-0.1-1.5-0.9-1.4-1.8l0-0.1L591,212.2z"/>
<path class="st3" d="M597.3,210.8c0.7-0.5,1.7-0.4,2.2,0.4c0.5,0.7,0.4,1.6-0.3,2.2l-0.1,0.1l-6.5,4.7c-0.7,0.5-1.7,0.4-2.2-0.4
	c-0.5-0.7-0.4-1.6,0.3-2.2l0.1-0.1L597.3,210.8z"/>
<path class="st3" d="M603,203.8c0.1-0.8,0.8-1.5,1.7-1.4l0.1,0l4.3,0.5c0.9,0.1,1.5,0.9,1.4,1.8l0,0.1l-0.9,4.4
	c-0.2,0.9-1,1.4-1.9,1.3c-0.8-0.2-1.4-0.9-1.3-1.8l0-0.1l0.5-2.7l-2.5-0.3C603.6,205.5,603,204.7,603,203.8L603,203.8z"/>
<path class="st3" d="M608,203.2c0.7-0.5,1.7-0.4,2.2,0.4c0.5,0.7,0.4,1.6-0.3,2.2l-0.1,0.1l-6.5,4.7c-0.7,0.5-1.7,0.4-2.2-0.4
	c-0.5-0.7-0.4-1.6,0.3-2.2l0.1-0.1L608,203.2z"/>
<path class="st1" d="M540.7,524.1H415.2c-5.9,0-10.7-4.8-10.7-10.7v-54.5c0-5.9,4.8-10.7,10.7-10.7h125.6c5.9,0,10.7,4.8,10.7,10.7
	v54.5C551.4,519.3,546.6,524.1,540.7,524.1z"/>
<path class="st2" d="M440.4,495.2c8.4,0,15.2-6.8,15.2-15.2c0-8.4-6.8-15.2-15.2-15.2c-8.4,0-15.2,6.8-15.2,15.2
	C425.2,488.4,432,495.2,440.4,495.2z"/>
<path class="st2" d="M525.5,504.4h-19c-1.9,0-3.5-1.5-3.5-3.5V499c0-1.9,1.5-3.5,3.5-3.5h19c1.9,0,3.5,1.5,3.5,3.5v1.9
	C528.9,502.9,527.4,504.4,525.5,504.4z"/>
<path class="st2" d="M407.7,463.4c6.3,0,11.5-5.1,11.5-11.5c0-6.3-5.1-11.5-11.5-11.5s-11.5,5.1-11.5,11.5
	C396.3,458.3,401.4,463.4,407.7,463.4z"/>
<path class="st3" d="M465.5,477.7l61.9,0.2L465.5,477.7z"/>
<path class="st2" d="M465.5,476.1l61.9,0.2c0.9,0,1.6,0.7,1.6,1.6c0,0.8-0.7,1.5-1.5,1.6h-0.1l-61.9-0.2c-0.9,0-1.6-0.7-1.6-1.6
	C463.9,476.8,464.6,476.1,465.5,476.1L465.5,476.1z"/>
<path class="st3" d="M466.2,485.5l61.9,0.2L466.2,485.5z"/>
<path class="st2" d="M466.2,483.9l61.9,0.2c0.9,0,1.6,0.7,1.6,1.6c0,0.8-0.7,1.5-1.5,1.6l-0.1,0l-61.9-0.2c-0.9,0-1.6-0.7-1.6-1.6
	C464.6,484.6,465.3,483.9,466.2,483.9L466.2,483.9z"/>
<g>
	<defs>
		<rect id="SVGID_1_" x="545.3" y="288" width="134.3" height="117.3"/>
	</defs>
	<clipPath id="SVGID_2_">
		<use xlink:href="#SVGID_1_"  style="overflow:visible;"/>
	</clipPath>
	<g class="st6">
		<path class="st1" d="M667.7,404.4l-110.5-0.3c-6.4,0-11.6-5.2-11.5-11.6l0.3-91.6c0-6.4,5.2-11.6,11.6-11.5l110.5,0.3
			c6.4,0,11.6,5.2,11.5,11.6l-0.3,91.6C679.2,399.2,674.1,404.4,667.7,404.4z"/>
	</g>
</g>
<path class="st2" d="M656.1,376.1l-23.7-0.1c-1.7,0-3-1.3-3-3l0.1-24.1c0-1.7,1.3-3,3-3l23.7,0.1c1.7,0,3,1.3,3,3l-0.1,24.1
	C659.1,374.8,657.7,376.1,656.1,376.1z"/>
<path class="st2" d="M651.6,335.6l-77.2-0.2c-2.5,0-4.5-2-4.5-4.5l0.1-12.2c0-2.5,2-4.5,4.5-4.5l77.2,0.2c2.5,0,4.5,2,4.5,4.5
	l-0.1,12.2C656,333.6,654,335.6,651.6,335.6z"/>
<path class="st2" d="M571,371.8l48.8,0.2c0.9,0,1.6,0.7,1.6,1.6c0,0.8-0.7,1.5-1.5,1.6l-0.1,0L571,375c-0.9,0-1.6-0.7-1.6-1.6
	C569.4,372.5,570,371.8,571,371.8L571,371.8z"/>
<path class="st2" d="M571,359l48.8,0.2c0.9,0,1.6,0.7,1.6,1.6c0,0.8-0.7,1.5-1.5,1.6h-0.1l-48.8-0.2c-0.9,0-1.6-0.7-1.6-1.6
	C569.4,359.8,570,359.1,571,359L571,359z"/>
<path class="st2" d="M571,346.3l48.8,0.2c0.9,0,1.6,0.7,1.6,1.6c0,0.8-0.7,1.5-1.5,1.6h-0.1l-48.8-0.2c-0.9,0-1.6-0.7-1.6-1.6
	C569.4,347,570.1,346.3,571,346.3L571,346.3z"/>
<path class="st2" d="M551.2,304.2c6.3,0,11.5-5.1,11.5-11.5c0-6.3-5.1-11.5-11.5-11.5s-11.5,5.1-11.5,11.5
	C539.7,299.1,544.8,304.2,551.2,304.2z"/>
<path class="st1" d="M171.1,471H36.8c-4.4,0-8-3.6-8-8v-36.4c0-4.4,3.6-8,8-8h134.3c4.4,0,8,3.6,8,8V463
	C179.1,467.4,175.5,471,171.1,471z"/>
<path class="st2" d="M156.6,437.1c0.9,0,1.6,0.7,1.6,1.6c0,0.9-0.7,1.5-1.5,1.6H48.9c-0.9,0-1.6-0.7-1.6-1.6c0-0.9,0.7-1.5,1.5-1.6
	H156.6z"/>
<path class="st2" d="M144,448.7c0.9,0,1.6,0.7,1.6,1.6c0,0.8-0.7,1.5-1.5,1.6H48.9c-0.9,0-1.6-0.7-1.6-1.6c0-0.9,0.7-1.6,1.5-1.6
	l0.1,0H144z"/>
<g>
	<defs>
		<rect id="SVGID_3_" x="20.9" y="408" width="23.1" height="25.3"/>
	</defs>
	<clipPath id="SVGID_4_">
		<use xlink:href="#SVGID_3_"  style="overflow:visible;"/>
	</clipPath>
	<g class="st7">
		<path class="st2" d="M32.3,432c6.3,0,11.5-5.1,11.5-11.5c0-6.3-5.1-11.5-11.5-11.5s-11.5,5.1-11.5,11.5
			C20.9,426.9,26,432,32.3,432z"/>
	</g>
</g>
<g>
	<defs>
		<rect id="SVGID_5_" x="241.3" y="102" width="200" height="220.6"/>
	</defs>
	<clipPath id="SVGID_6_">
		<use xlink:href="#SVGID_5_"  style="overflow:visible;"/>
	</clipPath>
	<g class="st8">
		<path class="st2" d="M440.1,193.1c-4.6-54.7-52.7-95.3-107.4-90.7c-54.7,4.6-95.3,52.7-90.7,107.4c2.8,32.9,21.2,60.7,47.4,76.6
			l-9.5,15.5c7.5,6,13.7,13,17.1,17.2l2.9,2.8c0-4.6,0.8-26.6,14.3-28.4c4.5-0.6,7,1.6,8.2,5.6c8.7,1.6,17.7,2.2,26.9,1.4
			C404.1,296,444.7,247.8,440.1,193.1z M347.5,278.3c-42.4,3.6-79.7-27.9-83.2-70.3c-3.6-42.4,27.9-79.7,70.3-83.3
			c42.4-3.6,79.7,27.9,83.3,70.3S389.9,274.7,347.5,278.3z"/>
	</g>
</g>
<path class="st3" d="M299.9,322.8c0,0-0.8-27.3,14.3-29.2c15.1-2,7.6,26.5,6.1,51.8c-1.5,25.3-4.2,44.3-3.7,60.3
	c0.5,16,22,162.7,22,162.7l-98,0.3l1.1-140.1c0,0-43.9-31.5-42.4-77.1c3-36.8,29-53.9,51.6-59.6
	C273.3,286.2,299.9,322.8,299.9,322.8z"/>
<path class="st2" d="M250.4,290.5c-12.8,3.2-24.7,9.4-33.8,18.5c-10.8,10.7-17.4,24.9-18.9,42.4l0,0.1c-0.7,20.7,7.5,40,21.5,57.3
	c4.7,5.8,9.7,11,14.7,15.5c1.8,1.6,3.4,2.9,4.9,4.1l0.2,0.2c0.3,0.2,0.6,0.5,0.9,0.7l0.2,0.1L239,568.7c0,0.8,0.7,1.5,1.5,1.5
	l98-0.3c0.9,0,1.5-0.8,1.5-1.6l-0.1-0.4l-3.1-21.1l-1.6-11.2c-2-14.2-4.1-28.3-6-42l-1.1-7.5c-6.2-44.6-10-73.9-10.2-80.5
	c-0.2-5,0-10.5,0.4-17.4l0.1-2c0.2-2.3,0.3-4.8,0.6-7.8l1.1-13.1c0.6-7.1,1-12.8,1.4-18.6l0.1-1.1c0.1-2,0.3-4.2,0.5-6.5l0.1-1.5
	c0.2-2.3,0.5-4.6,0.8-8.1l0.4-4c1.3-12.6,1.6-17.1,1.1-22.2c-0.8-8-4.2-12-10.7-11.1c-7.1,0.9-11.6,6.7-13.9,15.6
	c-0.8,3-1.3,6.3-1.5,9.5l0,0.3l0,0.6l0,0.4l-0.6-0.7c-0.3-0.3-0.5-0.6-0.8-1c-3.1-3.7-6.6-7.5-10.3-10.9
	c-9.1-8.6-18.2-14.3-26.8-15.8C256.7,289.7,253.5,289.7,250.4,290.5z M259.5,293.2c7.9,1.4,16.6,6.8,25.3,15c3.6,3.4,7,7,10.1,10.7
	l0.5,0.6c0.8,0.9,1.5,1.8,2.1,2.6l0.4,0.6c0.2,0.2,0.3,0.4,0.4,0.6l0.3,0.5c0.8,1.2,2.7,0.6,2.7-0.8l0-0.3c0-1.3,0-3,0.2-5.1
	c0.2-3.1,0.7-6.2,1.4-9c2-7.9,5.7-12.7,11.4-13.4c4.5-0.6,6.7,1.9,7.4,8.3l0.1,0.5c0.5,4.9,0.2,9.6-1.3,23l-0.6,5.5
	c-0.2,2.2-0.4,4-0.6,5.8l-0.1,1.2c-0.2,1.9-0.3,3.7-0.4,5.5l-0.1,2.2c-0.3,5-0.7,10-1.2,16l-1.1,13.4c-0.3,4-0.6,7-0.8,9.9l-0.1,1.7
	c-0.4,7-0.6,12.6-0.4,17.7c0.2,6.3,3.5,32.5,9.2,72.9l1.7,11.9l0.8,5.7c1.8,13,3.7,26.4,5.7,39.8l3.4,23.6l1.1,7.3l-94.8,0.3
	l1.1-138.6c0-0.5-0.2-0.9-0.6-1.2l-0.5-0.3l-0.4-0.3c-0.2-0.2-0.4-0.3-0.7-0.5l-0.2-0.1c-1.4-1.1-3-2.5-4.7-4
	c-4.9-4.4-9.8-9.4-14.4-15.1l-0.4-0.5c-13.2-16.6-20.9-34.8-20.5-54.3l0-0.6v0c1.4-16.8,7.7-30.3,18-40.5
	c8.7-8.6,20.1-14.6,32.4-17.7C253.8,292.7,256.6,292.7,259.5,293.2z"/>
<path class="st2" d="M194.2,427.4c-2.1,3.4,0.9,9,6.8,12.6l3,1.9c5.8,3.6,12.2,3.8,14.3,0.4l25.2-41.5l-22.3-16.9L194.2,427.4z"/>
<path class="st2" d="M231.8,358.3c0.3-0.8,1.2-1.1,1.9-0.8c23.7,9.5,51.3,33.3,49.4,42.6c-1.8,8.8-11,12.1-23.9,9.3
	c-4.3-0.9-10.9-4.5-19.4-10l-0.3-0.2c-1.7-1.1-3.5-2.3-5.3-3.6c-4-2.8-8-5.7-12-8.7l-1.1-0.8c-1-0.8-1.9-1.5-2.8-2.2l-1.4-1.1
	l-1.3-1.1c-0.6-0.5-0.7-1.4-0.2-2.1c0.5-0.6,1.4-0.7,2-0.3l0.1,0.1l1.3,1l1.4,1.1c0.9,0.7,1.8,1.4,2.8,2.1c4.2,3.2,8.6,6.4,12.9,9.4
	c1.6,1.1,3.1,2.1,4.6,3.1l0.6,0.4c8.3,5.5,14.8,9,18.7,9.8c11.5,2.4,19-0.3,20.4-7c0.6-3.1-4.9-10.5-14.2-18.4
	c-9.9-8.5-22.3-16.4-33.4-20.8C231.8,360,231.5,359.1,231.8,358.3z"/>
<path class="st2" d="M238.6,332.5c0.3-0.7,1.2-1,1.9-0.8l0.1,0l0.6,0.3l0.8,0.4c0.3,0.2,0.6,0.3,1,0.5l0.8,0.4
	c1.7,0.9,3.6,1.9,5.7,3c6.7,3.7,13.4,7.8,19.6,12.3c7.4,5.3,13.7,10.9,18.5,16.5l0.3,0.4l0.2,0.2c7.2,8.1,10.1,17.7,8.1,25l-0.1,0.2
	c-2.1,7.5-8.8,10.4-16.1,6.1c-0.7-0.4-0.9-1.3-0.5-2c0.4-0.7,1.3-0.9,2-0.5c5.6,3.3,10.2,1.3,11.8-4.4c1.8-6.3-0.7-15-7.4-22.5
	l-0.3-0.3c-4.7-5.6-10.9-11-18.3-16.4c-6.1-4.4-12.7-8.5-19.3-12.1l-0.9-0.5c-1.8-1-3.5-1.9-5.1-2.7l-0.9-0.4
	c-0.3-0.2-0.6-0.3-0.9-0.4l-1-0.5C238.6,334.1,238.3,333.3,238.6,332.5z"/>
<path class="st2" d="M242.3,310.7c0.2-0.8,1-1.2,1.8-1l0.1,0l0.5,0.2l0.6,0.2c0.5,0.2,1,0.3,1.5,0.5l0.8,0.3
	c1.9,0.7,3.9,1.5,6.1,2.5c7.1,3.1,14.3,7,20.9,11.5c10.5,7.1,18.8,15.4,24.1,24.7c4.8,8.3,6.8,15.1,6.4,20.6
	c-0.3,4.5-2.1,7.8-4.9,10.1c-1.1,0.9-2.2,1.5-3.4,2c-0.7,0.3-1.3,0.5-1.6,0.5c-0.8,0.2-1.6-0.3-1.8-1.1c-0.2-0.8,0.3-1.5,1-1.7
	l0.2-0.1c0,0,0.1,0,0.2,0c0.3-0.1,0.6-0.2,0.9-0.3c0.9-0.4,1.8-0.9,2.7-1.6c2.2-1.8,3.6-4.4,3.8-8c0.3-4.8-1.6-11.1-6.1-18.9
	c-5.1-9-13.1-16.9-23.2-23.8c-6.5-4.4-13.5-8.2-20.5-11.2c-2.3-1-4.4-1.9-6.3-2.6l-0.4-0.2c-0.6-0.2-1.2-0.4-1.7-0.6l-0.5-0.2
	l-0.3-0.1C242.5,312.3,242.1,311.5,242.3,310.7z"/>
<path class="st2" d="M299,320.6c0.7-0.4,1.6-0.1,2,0.6c5.6,10.1,8.3,18.3,8.5,25c0.2,5.3-1.1,9.3-3.5,12.1c-0.8,0.9-1.7,1.7-2.5,2.3
	c-0.5,0.4-1,0.6-1.3,0.7c-0.8,0.3-1.6-0.1-1.9-0.8c-0.3-0.7,0-1.6,0.8-1.9l0.1-0.1c0.1-0.1,0.4-0.2,0.7-0.4c0.6-0.4,1.3-1,1.9-1.7
	c1.9-2.3,3-5.6,2.8-10.1c-0.2-6.1-2.8-13.9-8.2-23.6C298.1,321.9,298.3,321,299,320.6z"/>
<g>
	<defs>
		<rect id="SVGID_7_" x="241.3" y="529.3" width="97.3" height="67.7"/>
	</defs>
	<clipPath id="SVGID_8_">
		<use xlink:href="#SVGID_7_"  style="overflow:visible;"/>
	</clipPath>
	<g class="st9">
		<path class="st10" d="M241.9,580.7l0.2-26.7l89.4-23.8l6.2,41.4c0.1,11.1-20.2,22-46,24.7C265.2,599.1,242.9,592.1,241.9,580.7z"
			/>
	</g>
</g>
</svg>
