<?xml version="1.0" encoding="utf-8"?>
<!-- Generator: Adobe Illustrator 23.0.2, SVG Export Plug-In . SVG Version: 6.00 Build 0)  -->
<svg version="1.1" id="Layer_1" xmlns="http://www.w3.org/2000/svg" xmlns:xlink="http://www.w3.org/1999/xlink" x="0px" y="0px"
	 viewBox="0 0 500 500" style="enable-background:new 0 0 500 500;" xml:space="preserve">
<style type="text/css">
	.st0{opacity:7.000000e-02;fill:#00A4FF;enable-background:new    ;}
	.st1{fill:#00A4FF;}
	.st2{opacity:0.3;enable-background:new    ;}
	.st3{opacity:0.1;}
	.st4{fill:#3F7929;}
	.st5{opacity:5.000000e-02;enable-background:new    ;}
	.st6{opacity:7.000000e-02;enable-background:new    ;}
	.st7{opacity:0.1;enable-background:new    ;}
	.st8{fill:#99DBFF;}
	.st9{display:none;opacity:0.4;fill:#FFFFFF;enable-background:new    ;}
	.st10{opacity:0.3;fill:#3F7929;enable-background:new    ;}
	.st11{opacity:0.3;fill:#FFFFFF;enable-background:new    ;}
	.st12{fill:#FFFFFF;}
	.st13{opacity:5.000000e-02;fill:#3F7929;enable-background:new    ;}
	.st14{opacity:0.1;fill:#3F7929;enable-background:new    ;}
	.st15{opacity:0.15;fill:#3F7929;enable-background:new    ;}
	.st16{fill:#0E7CAD;}
	.st17{display:none;opacity:0.24;enable-background:new    ;}
</style>
<g id="freepik--Light--inject-168">
	<g id="freepik--light--inject-168">
		<circle class="st0" cx="250" cy="211.1" r="195.3"/>
		<circle class="st0" cx="250" cy="211.1" r="153.5"/>
		<circle class="st0" cx="250" cy="211.1" r="111.3"/>
	</g>
</g>
<g id="freepik--Sea--inject-168">
	<g id="freepik--sea--inject-168">
		<ellipse class="st1" cx="250" cy="338" rx="244" ry="148.2"/>
		<ellipse class="st2" cx="250" cy="338" rx="244" ry="148.2"/>
		<g class="st3">
			<path class="st4" d="M432.7,436.3c-3.6-1.6-7.3-2.9-11.1-4c-3.3-0.9-7.7-1.2-11.2,0.4c-1.9,0.9-3.5,2.4-4.5,4.3
				c-1.3,2.3-2.2,4.9-2.5,7.5c-0.2,2.5,0.1,5-0.5,7.6c-0.1,0.6-0.3,1.1-0.6,1.7c2.8-1.3,5.5-2.7,8.2-4.2c0.4-1.5,0.8-3,1.3-4.6
				c0.3-1.3,0.8-2.5,1.5-3.6c0.7-1.1,1.9-2,3.2-2.3c0.7-0.1,1.3,0,1.9,0.3c1.9,0.5,4.5,0.9,7.1,1.5
				C428,439.4,430.4,437.9,432.7,436.3z"/>
			<path class="st4" d="M35.9,292c8.5-2.1,18.2-5.3,21.4-10.3c3.5-5.4-2.2-9.8-5.7-14.3c-3.3-4.2-4.6-9.3-1.7-14.4
				c-3.7,3.3-7.2,6.6-10.4,9.9c0.3,1.6,0.9,3.1,1.7,4.4c1.1,1.8,2.5,3.3,3.5,5.2c1.1,2,1.2,4.5,0.3,6.6c-1.7,3.6-6,5.6-9.7,6.5
				c-4.3,1-8.5,1-12.8,1.8c-0.7,0.1-1.5,0.3-2.2,0.5c-2.3,4-4.4,8.1-6.2,12.4C19.1,296.3,27.9,294,35.9,292z"/>
			<path class="st4" d="M164.2,476.8c3.9,0.9,7.8,1.7,11.8,2.5c-3.3-1.3-6.7-2.1-10.2-2.4C165.2,476.9,164.7,476.9,164.2,476.8z"/>
			<path class="st4" d="M479.3,388.7c-2.4,0.6-4.8,1-7.2,1.4c-7.5,1.1-14.5-0.7-21.1-2.3c-6.1-1.4-12.1-3.1-18.4-4.1
				c-2.4-0.4-4.7-0.5-6.7,2.2c-1.5,2-1.2,4.5-3.4,6.3c-2.8,2.4-8.8,2.7-12.1,1.4s-4.6-3.7-6.1-5.9c-6.4-9.2-17.6-16.7-32.1-21.6
				c-2.6-0.9-5.4-1.7-6.5-3.3s-0.6-3.8,0.2-5.8l3.7-10.4c0.3-1,0.8-1.8,1.6-2.5c1.6-1.1,4.1-1.5,6.4-1.6c8.4-0.3,16.1,1.6,24.5,0
				c6.8-1.3,12.6-4.5,18.5-7.3c6.5-3,13.3-5.3,20.2-7.1c9.2-2.3,19.4-3.6,27-1.5s10.7,8.4,4.4,13.1c-2,1.5-4.8,2.8-6.6,4.4
				c-3.9,3.5-2.2,7.5,1.1,10.2c3.9,3.3,9.6,5.5,15,7.9c2.6,1.2,5.2,2.5,7.6,4c0.6-1.8,1.1-3.6,1.6-5.4c-1.9-0.8-3.8-1.8-5.6-2.8
				c-2.1-1.2-4.5-1.7-6.5-3.1c-2.4-1.7-3.9-4.1-2.9-6.6s4.1-4.8,6.1-7.3c4.6-5.6,3.1-11.9-3.6-15c-3.4-1.6-8.3-2.9-7.6-5.8
				s6.2-4.7,10.7-6.4c2.8-1,5.5-2.3,8.2-3.6c-0.8-2.7-1.8-5.4-2.9-8.1c-3.8,4.7-10.5,8.3-15.6,10.3c-9,3.5-19.6,5.1-27.9,9.3
				c-4.3,2.1-9,5.2-13.8,4.8c-3.3-0.3-4.9-2.2-5.2-4.1s0.4-4,0-5.9c-0.6-3.1-4.1-5.5-7.9-7.4c-11-5.5-26.3-8.6-33.1-16.1
				c-1.2-1.3-2.1-3-0.8-4.6c2.8-3.4,11.5-3.2,16.6-5.9c5.3-2.7,4.6-7,3.3-10.3l-4-10c-1-2.4-1.9-4.8-1.4-7.5
				c0.5-2.6,2.7-5.5,6.7-7.3c5.7-2.6,12.9-2.2,18.5-1.1c4.1,0.7,8.1,2,11.8,3.8c15.7,8.7,5.8,27.7,21,36.7c3.9,2.2,8.3,3.1,12.7,2.7
				c3.9-0.4,7.9-1.7,11.7-2.1c-1.7-2.8-3.5-5.6-5.4-8.3c-2.9,0.2-5.7-0.2-8.5-1.1c-8-3.4-8.2-14.3-12.2-21.8
				c-0.1-0.2-0.2-0.3-0.3-0.5c-4.5-4.1-9.2-8-14.1-11.6c-0.8-0.3-1.5-0.7-2.3-1c-7-2.6-14.6-4.1-21.8-6.4c-1-0.3-2-0.7-2.3-1.6
				c-0.5-1.3,0.4-4.2,1.6-6.9c-17.5-9.6-36-17.3-55.1-23c-3.7,0.2-7.5,0.5-11.3,0.8c-0.5,0.1-1.1,0-1.5-0.2
				c-0.8-0.5-0.5-1.7-0.4-2.7c0.1-0.5,0.2-1,0.2-1.5c-2.3-0.6-4.6-1.2-7-1.7c0,1.1-0.1,2.3-0.4,3.3c-0.9,3.5-3.4,6.4-6.8,7.7
				c-2,0.9-4.4,1.4-6.4,2.4c-1.6,0.8-3,2.1-4,3.6c-2.8,4.3-1.4,8.9,3.5,11.5c2.6,1.3,6,2.1,8.9,3.3c2.4,0.9,4.6,2.3,6.4,4.1
				c2,2.1,2.7,5.2-1,7.3c-1.9,0.9-3.9,1.5-6,1.9c-9.5,2-20.9,3.8-26.9,0.4c-4.4-2.5-4-7-6.5-10.3c-1.5-2-4-3.5-6.7-4.9
				c-9.6-4.9-22.1-7.9-36-8.7c-4.9-0.3-10.4-0.5-12.5-2.8c-1.2-1.4-0.9-3.2-0.5-4.9c1.1-5.3,3.5-11.1,8.6-14.9
				c2.4-1.8,10.8-5.8,9.3-8.9c-5.3-0.2-10.5-0.2-15.8-0.2c1.1,0.2,2.2,0.6,3.3,1.2c0.7,0.4,1.2,0.9,1.2,1.6c0,1.7-3.6,2.9-6.1,4.2
				c-2.4,1.1-4.5,2.8-5.8,5.1c-0.4,1-0.8,2-1.4,2.9c-0.9,1.2-2.3,2-3.8,2.2c-2.4,0.4-3.8-0.8-5.5-1.5c-6.1-2.6-16.9,0.2-24.3-1.3
				c-2.3-0.5-4.5-1.4-6.6-2.4c-5-2.2-10.7-4.1-16.1-6c-3.5,0.6-6.9,1.3-10.4,2c5.6,1.2,10.9,3.2,15.8,6.1c5.5,3.1,11.2,6.7,19.7,6.7
				c5.8,0,12.1-1.6,17.8-1.3c8.8,0.6,12.7,6.9,7.3,12c-2.1,2-5.2,3.6-8,5.3c-5.6,3.4-10.2,7.4-12.1,11.6s-0.7,8.6,4.2,10.9
				c2.8,1.3,10,2.1,7.6,4.3c-3.7,3.6-12.7,0.5-18.6-0.3c-4.7-0.7-9.5-0.7-14.3-0.1c-6.6,1-13.5,2.9-19.6,2.1
				c-4.4-0.6-10.3-2.3-11.4-6.8c-1-3.7,1.6-8-0.1-11.4c-2.2-4.6-10.9-6.3-18.9-7.6s-16.8-2.7-19.7-7.1c-2-3-0.7-6.8,2.4-10.1
				c0.4-0.4,0.8-0.8,1.2-1.2c-4.5,1.7-9,3.4-13.3,5.2c-0.5,3.1-0.2,6.2,0.9,9.1c1,2.5,2.6,5.3,1,8.2c-1,2-3.2,3.4-5.2,4.6
				c-2.6,1.5-5.3,3.1-7.9,3.2c-3.2,0.1-5.4-1.9-7.6-3.6c-3.6-2.7-7.7-4.7-11.9-6.1c-1,0.6-1.9,1.1-2.9,1.7
				c-6.1,3.7-11.8,7.5-17.1,11.5c4.9-2.3,10.2-3.3,15.6-2.9c5.6,0.6,9.3,3,12.5,5.5c1.9,1.4,3.7,3,4,5c0.2,1.5-0.6,3.1-0.6,4.7
				c-0.2,4,3.8,7,8.2,9.6c4.2,2.4,9,5.4,6.3,9.3c-1,1.1-2,2.1-3.1,3.1c-3.1,3.2-3.1,6.9,0,9.2c3.6,2.7,10.7,3.5,13,6.7
				s-2.2,8.3-8.9,9.9s-13.4,0-19.8,2c-6.1,1.9-9.6,6.4-15.8,8c-6,1.6-11.6-0.2-17.2-0.9c-5.6-0.6-11.3-0.3-16.8,1
				c-3.3,0.7-6.5,1.8-9.8,2.3c-3,0.5-6,0.2-8.9-0.7c-3.2-1-5.9-2.9-7.9-5.6c-0.3-0.4-0.5-0.9-0.7-1.3c-1.1,3.2-2,6.4-2.7,9.6
				c3.9,1.5,7.4,3.5,7.7,6.4s-2.7,5.9-3.8,8.9c-1.7,4.6,1.1,8.8,4.5,12.3s7.7,6.9,9.2,11.1c1,2.5,0.5,5.3-1.4,7.3
				c-2.1,2.4-5.9,4.3-9.3,6.2c-0.8,0.4-1.6,0.9-2.4,1.4c0.8,2.2,1.8,4.3,2.8,6.4c1.4-1.1,2.9-2.1,4.5-3.2
				c5.7-3.7,12.2-7.2,15.8-11.4c3.3-3.9,3.8-8.3,1.4-11.6c-3.8-5.2-13.9-7.7-16.7-13.2s3.2-12.8,13-16.3c6.3-2.1,13-3,19.7-2.5
				c8.8,0.3,17.4,2.8,25.1,7.3c5.2,3.1,9.3,7.6,6.3,12.5c-2.7,4.5-11,8.4-11.7,13c-0.7,3.8,4.2,6.4,9.2,8.1s10.7,3.4,12.6,6.7
				c1.6,2.8,0.2,6.2,1,9.2c2.3,8.8,21.8,10.6,28.7,18c0.9,1,1.3,2.5-0.4,3.4c-1,0.4-2,0.6-3,0.6c-4.6,0.4-9.6,1.8-12.4-0.8
				s-2.8-5.8-5.7-8.1c-4.6-3.8-12.9-5.9-22-5.5S62,388.6,55.2,393c-2,1.3-3.8,2.7-6,4c-5.5,3.1-13.3,4.6-20,4.2
				c4.7,6.1,9.9,11.7,15.5,17c10.7,6.7,27.1,6.5,34.9,16.4c2.8,3.6,4.2,8.1,5.5,12.7c11.1,6.2,22.7,11.6,34.5,16.1
				c1.6-0.9,2.8-1.5,2.8-1.5c4.3-2,6.8-5.4,6.2-8.1c-0.2-0.5-0.3-1.1-0.1-1.7c0.3-0.5,0.7-1,1.2-1.3c3.6-2.9,10.6-4.2,15-3
				c3.7,1,5.5,3.4,9.2,4.5c3.9,1,9.1,0.3,13.9-0.4c3.2-0.6,6.5-0.9,9.8-0.9c3.1,0.1,6.1,0.9,7,2.6s-0.4,3.8-0.5,5.7
				c-0.2,3.5,3.6,6.2,8.6,7.6s11,1.7,17,2s12,0.6,16.9,2c2.9,0.7,5.6,2.1,7.9,4c0.8,0.5,1.3,1.3,1.3,2.3c-0.3,0.8-0.8,1.6-1.4,2.1
				c-1.4,1.5-2.8,3.1-4.2,4.7c-0.6,0.6-1.1,1.2-1.8,1.9c2.9,0.1,5.9,0.3,8.8,0.4c3.4-2.6,6.7-5.4,8.1-8.3s0.3-6.2-3.8-7.5
				c-2.3-0.7-5.2-0.7-7.6-1.3s-4.2-2.2-2.7-3.8c1-1,3-1.7,4.9-2.1c15.1-3.7,31.7-3.1,45.3-8.9c7.8-3.3,13.5-8.2,21.3-11.5
				c9.2-3.9,21-4.9,29.2-2.6c3.3,0.9,6.4,2.5,9.2,4.5c3.9,2.9,6.8,6.6,6.1,10.8s-5.7,8.9-12.9,10.7c-6,1.5-12.1,0.8-17.9,0.5
				c-5.7-0.2-11.5,0-17.1,0.7c-4.9,0.6-10.1,1.6-14.2,3.7c-6.9,3.4-9.2,9-7.7,13.3c0.1,0.3,0.2,0.7,0.4,1c3.5-0.2,7-0.5,10.5-0.9
				c-0.4-1.5-0.1-3.1,0.6-4.5c1.8-3.5,6.1-5.1,9.8-5.9c13.7-2.9,26.3,0.6,39.9-1.7c4.8-0.8,9.9-2.4,14.2-1.4
				c0.9,0.2,1.7,0.5,2.5,0.9c5.9-1.7,11.6-3.6,17.3-5.6c-2.2-0.4-4.4-1.1-6.5-2.1c-4-1.9-7-5.5-8.3-9.8v-1.8
				c0.2-6-4.9-11.2-13.2-13.7c-2.3-0.6-4.6-1.3-6.8-2.2c-1.9-1-3.2-2.5-2.3-4.2c0.7-0.9,1.5-1.8,2.4-2.5c2.8-2.7,3.6-5.9,2.2-8.5
				c-0.9-1.6-2.5-3.6,0-5.1c1.7-0.9,3.7-1.1,5.6-0.6c1.4,0.4,2.7,1.1,3.8,2c3.6,2.6,7.9,4.1,12.3,4.2c9.5,0.3,19-4.9,26.5-9.6
				l12-7.5c3.4-2.1,7.6-4.5,12-4.6c2.7-0.1,4.9,0.7,7.4,1c3.2,0.3,6.4,0.2,9.6-0.1c13.8-0.7,26.9,1.2,36.9,5.3
				C471.2,401.2,475.5,395.1,479.3,388.7z M332.9,223.5c-0.4-4.6,7.3-9.8,15.7-11.6c7.8-1.6,15.9-1.3,23.6,0.7
				c8.2,2.1,16,5.7,22.9,10.6c4.4,3.1,8.3,6.6,9,10.9c0.3,1.6-0.1,3.2-1.1,4.4c-1.2,1.4-3.3,2.6-5.3,3.7c-5,2.8-9.8,5.8-13.3,9.2
				s-5.4,7.3-4.2,10.6c1.3,3.5,5.8,6,8.3,9.1s2,8.1-4.1,10.5c-1.9,0.7-4,1.2-6,1.5c-6.1,1.1-12.4,0.8-18.5-0.8
				c-2.2-0.8-4-2.5-4.9-4.7c-1.4-3.6-0.3-8.3,0.8-12.6c1-4,1.9-8.3,0.4-11.7c-1.2-2.8-4.2-4.2-5.2-7.1c-0.7-2-0.4-4.4-0.5-6.6
				C349.9,229.6,333.8,232.7,332.9,223.5z M300.8,258.8c5.6-4.3,14.7-6.8,23-7.6c11.5-0.9,23.2,1.7,25.3,7.8
				c1.9,5.2-3.7,11.5-3.5,17.1c0.2,7.2,9.7,11.9,18.6,16l29,13.2c11,5,22.7,10.9,22.7,19.8c0,2.5-1,4.8-2.9,6.4
				c-3.4,3.2-9.6,5.3-15.5,6.3c-10.9,1.9-17.6,0.3-27.3-1.1c-2-0.3-4.5-0.6-5.5-0.9c-0.5-0.2-2.5-0.4-2.5-0.4
				c-6.1-1.1-7.9-1.3-12.4-3.5c-2.9-1.4-5.3-3.3-5.4-5.8s1.9-4.8,2-7.2s-1.8-4.6-3.7-6.6c-2.7-2.7-5.6-5.5-10.4-7
				c-5-1.6-11.6-1.6-17.9-1.5s-12.8,0.1-17.9-1.4s-8.3-5.1-5.7-8.8c1.4-1.9,3.9-3.5,6-5.2c5.9-5,6.6-11.4,1.8-15.3
				c-1.3-1.1-3-2-3.7-3.3c-1-1.8-0.1-4,1.2-6C297.4,261.9,298.9,260.2,300.8,258.8z M314.2,378.4c1.3,2.9,2.5,6.3-1.1,9.2
				c-2.1,1.5-4.5,2.6-7,3.3c-6.5,2.6-13.7,3-20.5,1.4c-4.1-1.1-9.2-4.4-13.1-5.6c-2.7-0.9-6.6-1.6-9.5-2.4s-5.1-2.4-4.5-4.5
				c0.8-2.5,5-4.4,8.3-6.4c8.4-5.2,11-12.9,5.9-17.7c-1.6-1.5-3.8-2.7-5.1-4.3s-1.5-3.8,0.8-5.6c4-3,11.1-2.4,16.9-3.7
				c8.1-1.8,13.1-7.5,20.9-10c8-2.6,16.5-1.3,23.6,0.3c7.6,1.7,15,3.8,20.3,7.2s8.5,8.2,6.6,13.4s-9.3,10.7-18.4,12.2
				c-3.9,0.7-7.8,0.6-11.7,1s-8.2,1.2-11,3.1C311.9,372,312.8,375.5,314.2,378.4z M157.2,326.3c-3.6-3.5-7.9-6.1-12.6-7.8
				c-4.8-1.8-10.3-3-14.6-5.1s-7.4-5.4-5.8-9.1c1.4-3.3,6.1-6.3,11.5-8c5.4-1.6,11-2.4,16.7-2.4c10.8-0.1,20.9,1.6,28.6,5.1
				c3,1.3,5.7,3,5.8,5.4c0.1,1.7-1.1,3.6-1.9,5.4c-1.7,3.7-1.4,7.9,3.6,9.5c3.4,1.1,8.2,0.7,12.1,1.3s7.3,2.9,4.8,5.3
				c-1.1,0.8-2.2,1.5-3.4,2.1c-3.8,2.5-3.5,5.9-3.6,8.8c-0.3,4.2-2.1,8.6-5.4,12.8c-0.3,0.4-0.6,0.8-0.9,1.1
				c-6.3,4.9-11.1,11.4-20.6,13.6c-6.4,1.5-12.4-0.3-15.7-3c-4-3.3-5.1-8-2.9-12.5c2.1-4.4,6.9-8.6,8-13
				C161.6,332.2,159.9,329,157.2,326.3z M212,289.8c1.8-5.2,11.4-9.8,20.4-10.4s16.5,2.2,19.9,6.3c2.9,3.5,3.2,7.7,4.8,11.5
				c1.9,4.2,4.8,7.7,8.6,10.3c2.3,1.7,5,3,7.8,3.7c7.3,1.8,16.7,0.2,25.5-0.9c6.1-0.9,12.3-1.1,18.5-0.7c5.8,0.5,11.1,2.2,13.7,5
				c1.8,2,3,5.3,0.3,7.6s-7.8,2.6-11.2,1.5c-0.7-0.1-1.4-0.2-2.1-0.1c-5.7,0.4-11.2,1.5-16.6,3.3c-6.5,2.3-11.9,5.6-18.2,8
				s-14.6,3.8-19.3,1.5c-6.6-3.2-1-10.8-4.6-15.4c-2.5-3.3-9.3-4.6-15.8-5.2c-5.3-0.5-10.5-0.6-15.8-0.2c-5.2,0.5-10.5,1.5-15.6,1.6
				s-9.9-0.9-13.3-2.7c-2.3-1.2-4-3.1-2.6-5.2c2-3,8.8-4.2,12.4-6.8C214,298.8,210.5,294.2,212,289.8z M199.2,359.1
				c2.9-7.9,5.8-15.7,8.6-23.6c1.1-2.9,2.2-6,5.2-8.7c4-3.5,11-6.1,17.6-6.3s12.2,1.9,14,5.2c1.2,2.2,0.9,4.8,1.2,7.2
				c0.6,3.8,2.6,7.2,5.6,9.5c2,1.7,4.5,3.8,2.1,5.9s-7.2,2.1-11.2,2.7c-6.3,0.9-12.2,3.8-16.8,8.1c-3.7,3.7-5.4,7.8-7.1,11.8
				c-1.2,2.9-2.5,5.9-3.7,8.9c-0.7,2-1.9,3.9-3.4,5.5c-3.5,3.4-10.7,5.6-16.8,5.7s-12-1.7-14.1-4.7c-0.2-0.4-0.4-0.8-0.5-1.3
				c-0.1-2.8,1.9-4.5,4.7-7.2c1.9-1.8,4.3-3.4,6.3-5.2C195.8,368.3,197.5,363.6,199.2,359.1L199.2,359.1z M197.7,397.2
				c2.4-1.2,5.6-1.9,8.4-2.7c9.1-5,16-11.4,19.5-17.9c1.9-3.6,2.8-7.3,4.9-10.9c2.5-4.4,6.4-7.8,11-9.8c0.8-0.4,1.7-0.7,2.6-0.8
				c1.1-0.1,2.2,0,3.3,0.4c6.2,1.6,12.8,3.6,14.2,7.6c1.1,3.4-2,7.3-6.1,10.5c-3.9,3-9.1,6.1-9.2,9.5c0,2.1,2.1,3.8,4.8,4.9
				c6,2.4,14.4,2.7,21.3,4.3s12.9,5.7,9.6,10.4c-4.2,6.1-19.3,8-25.8,13.6c-2.6,2.2-3.6,4.7-6.3,6.9c-4.5,3.5-12.8,4.8-18.9,3.9
				c-5.1-0.7-9.9-2.9-13.8-6.3c-3.4-2.8-6.3-6-10.6-8.4c-3.6-2-8.3-3.5-11-6S192.9,399.7,197.7,397.2L197.7,397.2z M222.4,245
				c-2.4-2.9-2.3-7.2,0.3-9.9c4.5-5.4,15.8-8.6,25.1-8.6s17.3,2.3,24.8,4.6c11.1,3.4,23,7.5,25.1,15c0.4,1,0.3,2.1-0.2,3
				c-0.9,1.2-1.9,2.2-3.1,2.9c-6.9,5.2-13.8,10.9-14.8,16.7c-0.8,4.3,1.9,8.1,5.4,11.4c1.6,1.5,3.5,3.4,2.1,5.4c-1,1.5-3.5,2.6-5,4
				c-3.4,3.2-1,7.6-6.1,10c-4.4,2.1-10.2,0.5-11.5-2.1s0.2-5.8,0.4-8.7c0.3-4.6-2.9-8.8-8.5-11.4c-3.8-1.7-9-3.4-7.4-6.5
				c0.6-0.8,1.2-1.6,1.9-2.3c3.3-3.7,2.2-8.1-2.5-10.1c-6.1-1.8-10.5-4-15.8-6.4C228.5,250,224.6,247.9,222.4,245z M115.3,285.3
				c-1.2-0.7-2.2-1.6-2-2.7c0.4-2,4.3-3.5,6.2-5.4c3.1-3.2-0.7-6.3-4.5-8.3c-3.5-1.9-7.2-3.7-9.5-6.1c-3.5-3.8-3.3-9,0.5-13.6
				s11.2-8.8,19.4-10.8c9-2.2,19.9-1.2,21.9,3.5c0.4,1.4,0.5,2.9,0.3,4.3c-0.1,6.9,4.7,13.8,15.7,15.3c7.3,1,15.7-0.6,23.8-1.5
				c14.3-1.8,28.8-1.6,43.1,0.6c6.8,1.1,14,3.7,12.6,8.1c-0.9,3-5.7,5.8-10.8,7.2s-10.4,1.8-15.6,2.1c-3.4,1.4-10,4.1-11.9,6.7
				c-1.5,2.1-0.8,4.2-0.7,6.2c0.2,2.7-1.4,5.1-3.9,6c-2.9,1.2-6.2,1.2-9.1,0.2c-2.5-0.9-4-2.4-5.9-3.6c-4.9-3.5-12-5.8-20.4-6.1
				c-11-0.4-23.1,2.6-34,2C124.4,289.1,119.1,287.6,115.3,285.3z M94.8,358.9c-2.5-1.3-5.5-3.4-6.8-6.1s-0.2-6.1,3.1-8.9
				c4-3.5,11.4-6.8,10.6-10.3c-0.3-1.4-2.1-2.4-3.7-3.4c-4.1-2.3-8.3-4.6-12.4-6.9c-2.5-1.4-5.1-3-4.7-5.2c0.3-1.7,2.2-3.4,4.6-4.8
				c7-4,18.2-5.1,24.3-2.4c4,1.8,5.8,4.8,9,7c3.8,2.6,9.5,4.1,15.1,5.6s11.2,2.9,15.1,5.5s5.6,6.6,2.7,10.5
				c-2.1,2.7-6.4,5.1-7.9,7.9s-0.8,6-5,7.6c-2.8,1.1-5.9,0.6-8.9,0.7c-5.7,0.2-11.2,2.7-16.8,4.1S98.7,360.8,94.8,358.9z
				 M146.7,439.5c-5.1,2.7-11.1,1.6-17.3,2.5c-2.6,0.4-5.1,0.1-7.7,0.3s-5.8,1-6.7,2.5c-0.5,0.7-0.5,1.6,0,2.2
				c0.9,1.5,2.7,2.7,3.8,4.1s1.1,3.5-1.1,4.9c-2.7,1.8-7.1,1.8-10.2,1.1c-9.3-2.1-12.3-8.5-13.4-14.6s-1.5-12.6-7.8-16.9
				c-5.5-3.7-14.7-4.9-22.4-7s-14.9-6.1-13.3-11.7c0.8-2.8,3.8-5.6,7.3-8c5.9-4.1,12.6-6.8,19.6-8.1c7.4-1.3,15.4-0.5,19,2.7
				c2.4,2.1,2.8,4.9,3.9,7.5c1.4,3.2,4.5,5.4,8,5.5c6,0.7,13.2-2.5,19.5-2.3c6.6,0.2,9.7,3.9,11.9,7.3c3.1,4.7,6.2,9.4,9.3,14
				c1.4,2.1,2.8,4.3,2.8,6.8S150.3,437.6,146.7,439.5L146.7,439.5z M151.2,412.4c-2.3-9.5-10.3-17.8-22.4-23.4
				c-6.2-2.8-13.6-5-18.2-8.8s-5.6-9.8,0.7-14.2c6.6-4.6,18-5.5,26-3.8s13.6,5.3,20.4,8c2.2,1,4.6,1.5,7.1,1.5
				c7.1-0.2,12.2-6.5,19.4-7.6c0.8-0.1,3-0.2,3.7,0.9c1.1,2-2.4,6.5-5.3,9.2s-6.9,4.9-10.1,7.4s-5.4,5.8-3.7,8.1
				c2.8,3.6,13.6,3.1,15.8,6.9c2.1,3.6-4.8,8.1-5.6,12.2c-1.1,5.5,9,9.4,5.1,14.9c-2.1,3-8,5.2-13.2,5.4c-4.5,0.3-8.9-0.8-12.7-3.2
				c-2.3-1.4-4.1-3.4-5.3-5.9C152,417.6,151.8,414.9,151.2,412.4L151.2,412.4z M291.1,443.4c-8.3,6.5-21.9,10.5-34.5,11.7
				c-9.9,0.9-20.7,0.7-29,4.9c-1.8,0.9-3.4,2-5.4,2.8c-3.7,1.5-8.2,1.7-12.1,1.6c-6-0.1-12.5-1-14.6-4c-1.5-2.3-0.3-5.1,0.4-7.8
				s0.2-5.7-3.5-6.7s-8.7,0.3-13.2,1c-5.7,1-11.5,1-17.2,0c-4.9-0.9-9.3-3.1-8.4-6.4c0.7-2.8,5.5-5.4,10.3-6.5
				c4.7-0.9,9.5-1,14.3-0.4l1.3-0.4c5.6-2.4,9.8-6.1,11.3-9.7c0.7-1.7,0.9-3.5,2.1-5.2c1.7-2.1,4.2-3.4,6.9-3.6
				c2.6-0.2,5.1,1.3,6.2,3.6c2.4,4.3,4.9,8.7,10,11.9s13.8,4.8,22.3,2.7c5.3-1.3,9.8-3.8,14.6-5.8c7.9-3.2,16.3-4.9,24.8-5.1
				c5-0.1,10,0.4,13.7,1.9C300.3,427.8,299.4,436.9,291.1,443.4L291.1,443.4z M392.7,401.4c-1.9,3.1-5.7,5.9-9.7,8.5
				c-2.9,2-6.1,3.5-9.4,4.6c-4.3,1.1-8.7,1.3-13.1,0.6c-3.6-0.5-7-1.5-10.2-3.1c-2.5-1.3-4.7-3.1-8.3-3.5c-5.9-0.8-14,3-14.3,6.8
				c-0.2,3.2,4.4,5.5,4,8.7c-0.4,2.8-4.4,5.5-8.2,7.9c-2.7,1.7-5.7,3.5-9.2,3.8c-2.7,0.4-5.5-0.5-7.5-2.4c-1.4-1.5-1.8-3.4-2.6-5.2
				c-1.6-3.3-4.8-6.2-9.3-8.2l-0.9-0.2c-4.2-2.9-13-1.6-20.2-1.5c-1.5,0-3.3-0.1-3.5-1c-0.1-0.4,0.1-0.9,0.4-1.3
				c3.8-5,16.4-7.4,18.9-12.4c0.7-1.5,0.4-3,1.6-4.4c1.8-2.1,6.1-3.2,9.9-3.6s7.5-0.2,11.2-1c5.2-1.2,9.7-4.3,10.4-7.3
				c1-4.4-5-7.9-2-12.2c1.8-2.6,6.6-4.6,11.2-5.6s9.3-1.2,13.9-1.8c3-0.5,5.9-0.9,8.9-1c5.9-0.1,10.4,2.1,14.1,4.3
				c7.1,4,13.6,9,19.4,14.8C392.7,390.2,396.4,395.6,392.7,401.4L392.7,401.4z"/>
		</g>
		<path class="st5" d="M422.5,233.2l-0.5-0.3c-0.7,2.7-1.2,5.4-1.5,8.1c-1.1,10,0.3,20,0.2,30.1s-1.8,20.6-8.1,28.4
			c-8.3,10.4-23.8,15-27.9,27.7c-2.1,6.5-0.5,13.6-0.6,20.5c-1.1,37-47.5,35.7-65.1,61c-6.4,9.1-9.4,20.7-17.9,27.8
			c-9.1,7.7-22.5,8.3-32.2,15.1c-7.6,5.4-13,14.5-22,16.5c-8,1.8-16.2-2.7-21.9-8.7s-9.7-13.3-15.1-19.4c-15.2-17-40-22.8-55.7-39.4
			c-7.9-8.4-13.8-18.3-18.2-28.6c-5.1-11.7-14.3-18.2-23.9-26.2c-8.1-6.8-15.3-14.9-19.6-24.5c-5.6-12.5-5.9-26.5-7.8-40
			s-6.2-27.8-17.1-36c-1.3-1-2.7-1.9-4.1-2.6c-81,58.2-76.3,145.5,14,200.4c95.3,57.9,249.8,57.9,345.1,0S517.8,291.1,422.5,233.2z"
			/>
		<path class="st6" d="M422.5,442.9c69.8-42.4,88.4-104.1,56-156.8c-1.8,1.4-3.6,2.8-5.5,4.1c-12,8.2-25.8,14.9-33.6,27.1
			c-8.8,13.7-3.1,31.1-11.1,43.8c-7.8,12.3-22.2,23-35.3,28.7c-12.5,5.5-26.5,7.9-37.5,16c-14.7,10.8-21.7,30.1-37.3,39.5
			c-12,7.2-27.5,7.2-39,15.2c-9.3,6.4-15.4,17.5-26.2,20.9c-9.8,3.1-20.4-1.4-28.6-7.5c-6.1-4.6-11-11.4-17.2-15.8
			c-7-5-16.8-7.7-24.7-11.1c-14.2-6.3-29.3-13.3-37.4-26.5c-2.9-4.7-4.8-9.9-7.9-14.5c-10-14.5-29.5-17.9-44.9-26.3
			c-14.6-8.1-25.9-21.2-31.7-36.9c-2.7-7.3-4.1-15.1-7.5-22.1c-5.5-11.5-16.4-20.5-29-22.3c-3.1-0.4-6.2-0.4-9.2,0.1
			C-7.9,348,13,403.6,77.5,442.9C172.8,500.7,327.2,500.7,422.5,442.9z"/>
		<path class="st7" d="M152.8,454c-9.6-4.5-19.1-9.5-27-16.5c-7.3-6.5-13-14.7-21-20.4c-20.1-14.6-49.6-10.3-69.8-24.9
			c-7-5.1-12.4-12-17.5-19c-1-1.4-2.4-2.9-4.1-2.7c-0.5,0.1-1,0.3-1.4,0.6c9.9,26.3,31.6,51.3,65.3,71.8
			c41.9,25.5,95.3,39.7,150.1,42.8c-2.6-1.5-5.3-3-8-4.3C197.9,471,174.7,464.3,152.8,454z M492,337.1c-9.2,4.3-16,12.5-21.1,21.3
			s-9.1,18.2-14.5,26.8c-1.3,1.9-2.6,3.8-4,5.7c-7.3,5.8-14,12.8-21.3,18.6c-6.3,5-13.2,9.1-20.5,12.3h0.3
			c-5.5,2.3-11.1,4.1-16.9,5.5c-11.8,2.7-24.6,3.3-34.4,10.4s-14.9,19.8-25.6,25.4c-7.3,3.8-16,3.8-23.8,6.4
			c-9,3-16.6,9.4-24.3,15.3c50.1-4.5,98.3-18.4,136.8-41.8c48.3-29.4,72.1-68,71.4-106.5C493.3,336.6,492.6,336.8,492,337.1z"/>
	</g>
</g>
<g id="freepik--Iceberg--inject-168">
	<g id="freepik--iceberg--inject-168">
		<polygon class="st8" points="165.6,218.1 157.8,258.7 172.1,311.5 189.5,319.7 195.8,383.9 244.9,456.4 260.1,438.8 261.8,420.6 
			292.3,388.6 302.3,350 312.2,346.3 326.2,313.9 342.2,268.2 336,221.4 		"/>
		<polygon class="st9" points="165.6,218.1 157.8,258.7 172.1,311.5 189.5,319.7 195.8,383.9 244.9,456.4 260.1,438.8 261.8,420.6 
			292.3,388.6 302.3,350 312.2,346.3 326.2,313.9 342.2,268.2 336,221.4 		"/>
		<polygon class="st10" points="327.4,247.3 336,261.8 331.4,288 331.7,261.1 		"/>
		<polygon class="st10" points="189.5,319.7 185.1,291 192.4,254.4 175.9,289.4 172.1,311.5 		"/>
		<polygon class="st10" points="227.8,253.7 251,285.9 255.6,371.2 261.8,281 261.8,253.4 		"/>
		<polygon class="st10" points="260.1,438.8 235.9,395.8 235.9,312 261.8,420.6 		"/>
		<polygon class="st10" points="261.8,420.6 235.9,395.8 260.1,438.8 		"/>
		<polygon class="st10" points="292.3,388.6 280.8,331.5 303.3,266.8 302.3,350 		"/>
		<polygon class="st10" points="292.3,388.6 280.8,331.5 302.3,350 		"/>
		<polygon class="st10" points="312.2,346.3 321,287.9 319.2,259.2 326.2,281.4 326.2,313.9 		"/>
		<polygon class="st10" points="326.2,281.4 321,287.9 312.2,346.3 326.2,313.9 		"/>
		<polygon class="st10" points="203.8,307.5 209.5,368.3 222.1,388 222.1,354.9 		"/>
		<polygon class="st10" points="209.5,368.3 222.1,354.9 222.1,388 		"/>
		<polygon class="st10" points="178.8,231.9 167.4,246.5 173.1,275.5 173.1,247.6 		"/>
		<polygon class="st10" points="207.6,257.2 221.8,283.3 218.5,310.8 228.9,331.5 222.1,307.3 230.9,277 		"/>
		<polygon class="st10" points="290.5,250.5 275,268.5 278.8,289.1 270.5,322.6 284.1,287 280.5,269 		"/>
		<polygon class="st10" points="275,353.5 280.5,372 271.7,380.7 267,402.3 269.1,375.9 277.1,370.4 		"/>
		<polygon class="st10" points="261.8,253.4 251,285.9 255.6,371.2 261.8,281 		"/>
		<path class="st11" d="M265.6,193c-10-0.5-20.1-0.2-30.1,0.8c-13.7,1.3-27.6,1.8-41.1,5.1c-11.2,2.8-22.6,5.2-32.9,10.5
			c-1.8,0.9-3.5,2-5,3.3c-2.6,2.6-3.7,5.8-0.9,8.6c2.2,2.2,5.9,3,8.7,4.2c1.9,0.8,3.8,1.3,5.3,2.8c2.4,2.4,2.6,6.4,5.3,8.4
			c1.2,0.8,2.5,1.4,3.9,1.6c5.2,1,10.6,0.1,15.8,0.3c7,0.4,13.8,2.7,19.6,6.8c3.8,2.7,7,7,12.1,7c2.5,0,4.8-1.3,7.3-1.8
			c3.6-0.7,7.4,0.2,10.9,1.5s6.9,2.8,10.6,3.3c4.5,0.6,9.1-0.6,12.9-3.1c3.7-2.4,7.2-5.4,11.6-6.5c5.7-1.4,11.9,0.8,17.7-0.2
			c1.8-0.3,3.5-1,5.3-1.4c3.6-1,7.3-1.1,10.9-0.3c3.3,0.8,7.6,1.3,10.6-0.6c2.7-1.8,4-5,5.6-7.6c2-3.1,4.7-4.1,8-5.8
			c3.8-1.9,8-4.3,8.7-8.5c0.3-2.5-0.6-5.1-2.4-6.9c-4.7-5.3-13.2-8.4-19.7-10.6C305.2,197.1,285.6,193.9,265.6,193z"/>
		<path class="st11" d="M150.1,219.2c0.4,2.9,2.6,5,5.6,6.3c2.5,1.1,5.3,1.7,7.6,3.2c1.2,0.8,2.4,2.3,1.6,3.5c-0.6,0.7-1.4,1-2.3,1
			c-4.1,0.1-8.1-1.1-11.4-3.4c-1.4-0.9-2.7-2-3.7-3.3c-2.2-3-2.6-7-1-10.4c0.9-1.8,2.3-3.2,4-4.1c0.9-0.5,1.8-0.8,2.8-1.1
			c0.4-0.1,1.4-0.4,1.6,0.1s-0.6,0.8-0.9,0.9c-0.4,0.3-0.9,0.6-1.3,1c-0.5,0.4-1,0.9-1.4,1.4c-0.4,0.5-0.7,1.1-0.9,1.8
			C150,217.1,149.9,218.2,150.1,219.2z"/>
		<path class="st11" d="M222.8,254.3c2.3,0.3,4.7,0.2,7-0.2c0.5-0.1,1-0.1,1.4,0.1c0.5,0.1,0.8,0.6,0.8,1.1
			c-0.1,0.4-0.3,0.7-0.6,0.9c-3.9,3.2-9.5,3.5-13.6,0.6c-1.2-0.8-2.1-1.9-2.6-3.3c-0.3-0.6-0.9-2.4-0.1-2.9s2.7,1.6,3.4,2.1
			C219.8,253.6,221.3,254.1,222.8,254.3z"/>
		<path class="st11" d="M302.8,247.4c-1.1,0.4-3.2,1.8-0.7,2c1.2,0.1,2.4,0,3.6,0c3.3,0,6.6,0.4,9.8,1.2c4.2,1,9.1,2.7,13.4,1
			c3.1-1.3,5.2-4.4,6.4-7.5c0.4-1,0.6-2,0.6-3.1c-0.1-1.1-0.7-2-1.7-2.5c-1.1-0.3-2.2,0.1-3,0.9c-0.7,0.8-1.4,1.7-2,2.7
			C322.6,251.2,311.4,244.3,302.8,247.4z"/>
		<path class="st11" d="M347,214c1,1.2,1.9,2.6,2.5,4.1c1,2.8,0.2,5.9-2,7.9c-0.6,0.6-2.8,2-1.5,2.8s4.1-1,5.2-1.6
			c0.6-0.3,1.3-0.7,1.9-1.1c4.3-3.1,4-8.7,0.6-12.4c-1.3-1.4-3.7-3.5-5.7-3.7C345.2,209.6,345.9,212.5,347,214z"/>
		<polygon class="st12" points="165.6,218.1 182.5,230.6 208.2,236.3 214.8,238 227.8,246 261.8,245.8 290.5,237.4 315.1,238.7 
			336,221.4 330.5,180.7 316,165.3 302.3,177.3 278.8,128.1 270.5,134.1 246.1,93.2 235.2,110.5 229.5,125.3 207.6,130.6 
			192.4,170.7 177.4,176.1 		"/>
		<polygon class="st13" points="192.4,170.7 184.4,195.5 177.4,176.1 		"/>
		<polygon class="st13" points="207.6,130.6 214.2,169.8 229.5,125.3 		"/>
		<polygon class="st13" points="246.1,93.2 252,150.2 270.5,134.1 		"/>
		<polygon class="st13" points="278.8,128.1 285,189.9 302.3,177.3 		"/>
		<polygon class="st13" points="316,165.3 336,221.4 330.5,180.7 		"/>
		<polygon class="st10" points="222.1,183.4 207.6,201.5 184.4,195.5 		"/>
		<polygon class="st14" points="182.5,230.6 184.4,195.5 177.4,176.1 165.6,218.1 		"/>
		<polygon class="st14" points="222.1,183.4 229.4,199 214.8,238 207.6,201.5 		"/>
		<polygon class="st10" points="252,150.2 275,166.5 260.1,166.5 		"/>
		<polygon class="st14" points="275,166.5 261.8,245.8 260.1,166.5 		"/>
		<polygon class="st10" points="290.5,214 310.8,220.3 324.8,212.9 		"/>
		<polygon class="st14" points="336,221.4 324.8,212.9 310.8,220.3 315.1,238.7 		"/>
		<polygon class="st13" points="290.5,214 290.5,237.4 315.1,238.7 310.8,220.3 		"/>
		<polygon class="st15" points="229.5,125.3 207.6,130.6 227.1,132.2 		"/>
		<polygon class="st15" points="302.3,177.3 285,189.9 284.1,180.7 		"/>
		<polygon class="st13" points="227.8,246 235.8,214.4 261.4,230.2 261.8,245.8 		"/>
		<polygon class="st13" points="241.9,151 234.8,166.5 237.2,187.6 233.5,204.6 241.9,185.9 238.8,164.3 		"/>
		<polygon class="st13" points="304.5,183.6 312,194.8 315.1,211.7 316,193.2 		"/>
	</g>
</g>
<g id="freepik--Whales--inject-168">
	<g id="freepik--whale--inject-168">
		<path class="st16" d="M84.5,344.7c2.1-1.3,5.1-2,11-1.1s11.1,2,16.6-0.4s10.6-4.7,10.6-4.7c0-2-0.3-3.9-1.1-5.7
			c-1.2-2.2-2.4-3.8,0-3.4s4.5,1.3,7.3,4.2c2.8,2.9,2.1,3.7,7.2,4.4s7.8,0.6,15.5-0.2s12-0.2,15.8,4.5c1.9,2.6-3.5,5.2-6.2,6.9
			c-1.9,1.2-3.8,2.2-5.9,3c0,0,2.2,4.8,2.6,5.8s-4.3,2.3-9-3.7c0,0-0.2,5.3-1.1,7.3c-0.8,1.8-3.7,3.7-4.7,2.1s-1.3-7-1.3-7
			c-2.9,1.3-5.9,2.3-9,3c-7.6,1.3-15.8,1.3-29.5-2.4s-20.6-9.3-20.6-9.3s-0.5,1.3-4.5,2.6s-5.7,1.5-4.1-0.2s3.5-4.3,3.5-5.8
			s-1.6-4.6-1-4.9S84.5,344.7,84.5,344.7z"/>
		<path class="st17" d="M84.5,344.7c2.1-1.3,5.1-2,11-1.1s11.1,2,16.6-0.4s10.6-4.7,10.6-4.7c0-2-0.3-3.9-1.1-5.7
			c-1.2-2.2-2.4-3.8,0-3.4s4.5,1.3,7.3,4.2c2.8,2.9,2.1,3.7,7.2,4.4s7.8,0.6,15.5-0.2s12-0.2,15.8,4.5c1.9,2.6-3.5,5.2-6.2,6.9
			c-1.9,1.2-3.8,2.2-5.9,3c0,0,2.2,4.8,2.6,5.8s-4.3,2.3-9-3.7c0,0-0.2,5.3-1.1,7.3c-0.8,1.8-3.7,3.7-4.7,2.1s-1.3-7-1.3-7
			c-2.9,1.3-5.9,2.3-9,3c-7.6,1.3-15.8,1.3-29.5-2.4s-20.6-9.3-20.6-9.3s-0.5,1.3-4.5,2.6s-5.7,1.5-4.1-0.2s3.5-4.3,3.5-5.8
			s-1.6-4.6-1-4.9S84.5,344.7,84.5,344.7z"/>
		<path class="st1" d="M152.1,347c3.5-1.8,11.2-2.8,15.4-4.1c0.6,2.4-4.1,4.6-6.5,6.2c-1.9,1.2-3.8,2.2-5.9,3l-5.4,1.7
			C147.2,350.6,148.2,349,152.1,347z"/>
		<path class="st1" d="M160.8,341.7c-0.4,0.6-2.1,1.3-4.8,1.4c-1.9,0.2-3.8,0.1-5.6-0.2c-0.4-0.2-0.1-0.9,2.5-2.1
			c1.7-1,3.7-1.3,5.6-0.8C160.5,340.5,161,341.4,160.8,341.7z"/>
		<path class="st1" d="M105.9,348.8c4.6-0.5,9.4,3.4,13.6,6.5s7.8,4.9,11.2,4.5c-6.7,1-14.2,0.7-25.7-2.2c1.4,0.3,1.9-0.9,3.5-1.1
			s1.9,1.4,3.6,1.6s2.2-0.7,1.1-2.1s-7-1.7-9.3-3.5S101.3,349.2,105.9,348.8z"/>
		<path class="st1" d="M82.6,347.8l1.9-1.1c1.3-0.8,0.6,0.3,1,1.6c0.5,1.1,1.3,2,2.2,2.6C85.9,350.1,84.2,349,82.6,347.8z"/>
	</g>
</g>
<g id="freepik--Sun--inject-168">
	<circle id="freepik--sun--inject-168" class="st1" cx="398" cy="83.6" r="12.2"/>
</g>
<g id="freepik--Whales--inject-168_1_">
	<g id="freepik--whale--inject-168_1_">
		<path class="st16" d="M388.4,371.1c0.4,0.2-0.7,2.2-0.7,3.2c0,1,1.3,2.7,2.3,3.8s-0.1,1-2.7,0.1c-2.7-0.8-3-1.7-3-1.7
			s-4.6,3.7-13.7,6.2c-9.1,2.4-14.5,2.5-19.6,1.6c-2-0.5-4-1.1-6-2c0,0-0.2,3.6-0.9,4.6c-0.7,1-2.6-0.2-3.1-1.4
			c-0.6-1.3-0.7-4.8-0.7-4.8c-3.1,4-6.3,3.2-6,2.5s1.7-3.9,1.7-3.9c-1.3-0.6-2.6-1.2-3.9-2c-1.7-1.1-5.3-2.8-4.1-4.5
			c2.5-3.1,5.4-3.5,10.5-3c5.1,0.5,6.8,0.5,10.3,0.1c3.4-0.4,2.9-1,4.8-2.9s3.2-2.5,4.8-2.8c1.6-0.3,0.8,0.8,0,2.3
			c-0.5,1.2-0.8,2.5-0.8,3.8c0,0,3.4,1.6,7,3.1c3.6,1.5,7,0.8,11,0.2c3.9-0.6,5.9-0.1,7.3,0.8C383.2,374.4,388,370.9,388.4,371.1z"
			/>
		<path class="st17" d="M388.4,371.1c0.4,0.2-0.7,2.2-0.7,3.2c0,1,1.3,2.7,2.3,3.8s-0.1,1-2.7,0.1c-2.7-0.8-3-1.7-3-1.7
			s-4.6,3.7-13.7,6.2c-9.1,2.4-14.5,2.5-19.6,1.6c-2-0.5-4-1.1-6-2c0,0-0.2,3.6-0.9,4.6c-0.7,1-2.6-0.2-3.1-1.4
			c-0.6-1.3-0.7-4.8-0.7-4.8c-3.1,4-6.3,3.2-6,2.5s1.7-3.9,1.7-3.9c-1.3-0.6-2.6-1.2-3.9-2c-1.7-1.1-5.3-2.8-4.1-4.5
			c2.5-3.1,5.4-3.5,10.5-3c5.1,0.5,6.8,0.5,10.3,0.1c3.4-0.4,2.9-1,4.8-2.9s3.2-2.5,4.8-2.8c1.6-0.3,0.8,0.8,0,2.3
			c-0.5,1.2-0.8,2.5-0.8,3.8c0,0,3.4,1.6,7,3.1c3.6,1.5,7,0.8,11,0.2c3.9-0.6,5.9-0.1,7.3,0.8C383.2,374.4,388,370.9,388.4,371.1z"
			/>
		<path class="st1" d="M339.8,380.4l-3.6-1.1c-1.3-0.6-2.6-1.2-3.9-2c-1.6-1-4.7-2.5-4.3-4.1c2.8,0.9,7.9,1.6,10.2,2.7
			C340.9,377.2,341.6,378.3,339.8,380.4z"/>
		<path class="st1" d="M334.1,371.3c1.3-0.3,2.6-0.1,3.7,0.5c1.7,0.8,2,1.3,1.7,1.4c-1.2,0.2-2.5,0.3-3.7,0.1
			c-1.8-0.1-2.9-0.6-3.2-1C332.4,372.2,332.7,371.5,334.1,371.3z"/>
		<path class="st1" d="M370.2,379.5c-1.5,1.2-5.4,1.4-6.2,2.3s-0.4,1.5,0.7,1.4c1.1-0.1,1.3-1.2,2.4-1.1c1.1,0.1,1.4,0.9,2.3,0.7
			c-7.6,1.9-12.6,2.1-17,1.4c2.3,0.2,4.6-0.9,7.5-3s6-4.6,9-4.3C372,377.4,371.7,378.3,370.2,379.5z"/>
		<path class="st1" d="M381.1,378.5c0.6-0.5,1.1-1.1,1.5-1.8c0.3-0.9-0.2-1.6,0.7-1.1l1.3,0.7C383.4,377.2,382.3,377.9,381.1,378.5z
			"/>
	</g>
</g>
</svg>
