<?xml version="1.0" encoding="utf-8"?>
<!-- Generator: Adobe Illustrator 23.0.2, SVG Export Plug-In . SVG Version: 6.00 Build 0)  -->
<svg version="1.1" id="Layer_1" xmlns="http://www.w3.org/2000/svg" xmlns:xlink="http://www.w3.org/1999/xlink" x="0px" y="0px"
	 viewBox="0 0 700 700" style="enable-background:new 0 0 700 700;" xml:space="preserve">
<style type="text/css">
	.st0{fill:#FFD06C;}
	.st1{fill:#DEDFFB;}
	.st2{fill:#4C5C75;}
	.st3{fill:#FEBC1F;}
	.st4{clip-path:url(#SVGID_2_);}
	.st5{fill:#F3F1FC;}
	.st6{fill:#C8E7F7;}
	.st7{clip-path:url(#SVGID_4_);}
	.st8{clip-path:url(#SVGID_6_);}
	.st9{fill:#111D33;}
	.st10{fill:#1D2943;}
	.st11{fill:#00B3EA;}
	.st12{fill:#B0B8CF;}
	.st13{fill:#E3E7F0;}
	.st14{clip-path:url(#SVGID_8_);}
	.st15{fill:#8FABFE;}
	.st16{clip-path:url(#SVGID_10_);}
	.st17{clip-path:url(#SVGID_12_);}
	.st18{fill:#FFFFFF;}
	.st19{fill:#F8F9FE;}
	.st20{fill:#B28AFD;}
	.st21{fill:#F5C9C6;}
	.st22{fill:#3772DB;}
	.st23{fill:#0048E8;}
	.st24{fill:#F4D6D4;}
	.st25{fill:#3BA9F4;}
	.st26{fill:#57B3FE;}
	.st27{fill:#6CC6EA;}
</style>
<path class="st0" d="M393.4,460.9c2.4-1.4,4.6-1.5,6.2-0.6l216.4,125.9c-1.6-0.9-3.8-0.8-6.2,0.6c-4.8,2.8-8.6,9.4-8.6,14.9
	c0,2.7,1,4.6,2.5,5.5L387.3,481.3c-1.6-0.9-2.5-2.8-2.5-5.5C384.8,470.3,388.6,463.7,393.4,460.9z"/>
<path class="st1" d="M601.2,601.7c0,5.5,3.9,7.7,8.7,4.9c4.8-2.7,8.6-9.4,8.6-14.9c0-5.5-3.9-7.7-8.7-4.9
	C605,589.5,601.2,596.2,601.2,601.7z"/>
<path class="st2" d="M472.2,531.1c0.1-1,0.2-2,0.4-2.9c0.2-1,0.4-1.9,0.7-2.9c0.3-0.9,0.6-1.9,1-2.8c0.4-0.9,0.8-1.8,1.3-2.7
	c0.5-0.9,1-1.7,1.5-2.5c0.5-0.8,1.1-1.6,1.8-2.4c0.6-0.8,1.3-1.5,2-2.2c0.7-0.7,1.4-1.4,2.2-2c0.8-0.6,1.6-1.2,2.4-1.8
	c0.8-0.5,1.7-1.1,2.5-1.5c0.9-0.5,1.8-0.9,2.7-1.3c0.9-0.4,1.8-0.7,2.8-1c0.9-0.3,1.9-0.5,2.9-0.7c1-0.2,1.9-0.3,2.9-0.4
	c1-0.1,2-0.1,2.9-0.1s2,0,2.9,0.1c1,0.1,2,0.2,2.9,0.4c1,0.2,1.9,0.4,2.9,0.7c0.9,0.3,1.9,0.6,2.8,1c0.9,0.4,1.8,0.8,2.7,1.3
	c0.9,0.5,1.7,1,2.5,1.5s1.6,1.1,2.4,1.8c0.8,0.6,1.5,1.3,2.2,2c0.7,0.7,1.4,1.4,2,2.2c0.6,0.8,1.2,1.6,1.8,2.4
	c0.5,0.8,1.1,1.7,1.5,2.5c0.5,0.9,0.9,1.8,1.3,2.7c0.4,0.9,0.7,1.8,1,2.8s0.5,1.9,0.7,2.9c0.2,1,0.3,1.9,0.4,2.9
	c0.1,1,0.1,2,0.1,2.9s-0.1,2-0.1,2.9c-0.1,1-0.2,2-0.4,2.9c-0.2,1-0.4,1.9-0.7,2.9c-0.3,0.9-0.6,1.9-1,2.8c-0.4,0.9-0.8,1.8-1.3,2.7
	c-0.5,0.9-1,1.7-1.5,2.5c-0.5,0.8-1.1,1.6-1.8,2.4s-1.3,1.5-2,2.2c-0.7,0.7-1.4,1.4-2.2,2c-0.8,0.6-1.6,1.2-2.4,1.8
	s-1.7,1.1-2.5,1.5c-0.9,0.5-1.8,0.9-2.7,1.3c-0.9,0.4-1.8,0.7-2.8,1c-0.9,0.3-1.9,0.5-2.9,0.7c-1,0.2-1.9,0.3-2.9,0.4
	c-1,0.1-2,0.1-2.9,0.1s-2-0.1-2.9-0.1c-1-0.1-2-0.2-2.9-0.4c-1-0.2-1.9-0.4-2.9-0.7c-0.9-0.3-1.9-0.6-2.8-1
	c-0.9-0.4-1.8-0.8-2.7-1.3c-0.9-0.5-1.7-1-2.5-1.5c-0.8-0.5-1.6-1.1-2.4-1.8c-0.8-0.6-1.5-1.3-2.2-2c-0.7-0.7-1.4-1.4-2-2.2
	s-1.2-1.6-1.8-2.4c-0.5-0.8-1.1-1.7-1.5-2.5c-0.5-0.9-0.9-1.8-1.3-2.7c-0.4-0.9-0.7-1.8-1-2.8c-0.3-0.9-0.5-1.9-0.7-2.9
	c-0.2-1-0.3-1.9-0.4-2.9c-0.1-1-0.1-2-0.1-2.9S472.1,532.1,472.2,531.1z"/>
<path class="st3" d="M521.5,535.2c2.4-1.4,4.6-1.5,6.2-0.6l88.3,51.5c-0.1-0.1-0.2-0.1-0.3-0.1c1.7,0.8,2.8,2.8,2.8,5.6
	c0.1,5.5-3.8,12.1-8.6,14.9c-2.5,1.4-4.6,1.5-6.2,0.6l-0.5-0.3l-87.8-51.2c-1.6-0.9-2.5-2.8-2.5-5.5
	C512.9,544.6,516.7,538,521.5,535.2z"/>
<path class="st0" d="M521.5,535.2c2.4-1.4,4.5-1.5,6.2-0.6l88.3,51.6l-12.2,21l-88.3-51.6c-1.6-0.9-2.5-2.8-2.5-5.6
	C512.9,544.6,516.7,538,521.5,535.2z"/>
<path class="st3" d="M601.2,601.7c0,5.5,3.9,7.7,8.7,4.9c4.8-2.7,8.6-9.4,8.6-14.9c0-5.5-3.9-7.7-8.7-4.9
	C605,589.5,601.2,596.2,601.2,601.7z"/>
<path class="st0" d="M493.4,426.4c4.7,2.7,12.4,2.7,17.2,0c2.4-1.4,3.6-3.2,3.6-5l0.2,91c0,1.8-1.2,3.6-3.6,5
	c-4.8,2.8-12.5,2.8-17.2,0c-2.4-1.4-3.5-3.2-3.5-4.9l-0.2-91C489.9,423.2,491.1,425,493.4,426.4z"/>
<g>
	<defs>
		<rect id="SVGID_1_" x="359.5" y="321.3" width="284" height="174.7"/>
	</defs>
	<clipPath id="SVGID_2_">
		<use xlink:href="#SVGID_1_"  style="overflow:visible;"/>
	</clipPath>
	<g class="st4">
		<path class="st5" d="M499.2,321.9l144.4,84l0,8.4L504,495.1l-144.4-84l0-8.5L499.2,321.9z"/>
	</g>
</g>
<path class="st6" d="M503.9,486.7l0.1,8.4l-144.4-84l-0.1-8.4L503.9,486.7z"/>
<g>
	<defs>
		<rect id="SVGID_3_" x="503.5" y="405.3" width="140" height="90.7"/>
	</defs>
	<clipPath id="SVGID_4_">
		<use xlink:href="#SVGID_3_"  style="overflow:visible;"/>
	</clipPath>
	<g class="st7">
		<path class="st6" d="M643.6,405.9l0.1,8.4L504,495.1l-0.1-8.4L643.6,405.9z"/>
	</g>
</g>
<g>
	<defs>
		<rect id="SVGID_5_" x="359.5" y="321.3" width="284" height="165.3"/>
	</defs>
	<clipPath id="SVGID_6_">
		<use xlink:href="#SVGID_5_"  style="overflow:visible;"/>
	</clipPath>
	<g class="st8">
		<path class="st5" d="M499.3,321.9l144.4,84l-139.7,80.7l-144.4-84L499.3,321.9z"/>
	</g>
</g>
<path class="st2" d="M496.3,467.7L377,398.3l-0.2-69.6L496.1,398L496.3,467.7z"/>
<path class="st9" d="M498,42.9l132.7,77.2l0.8,285l-128.5,74.2l-132.7-77.2l-0.8-285L498,42.9z"/>
<path class="st10" d="M502.3,194.4l0.7,285l-132.7-77.2l-0.7-285L502.3,194.4z"/>
<path class="st9" d="M630.8,120.1l0.7,285l-128.4,74.2l-0.7-285L630.8,120.1z"/>
<path class="st2" d="M498,42.9l132.7,77.2l-128.5,74.2l-132.7-77.2L498,42.9z"/>
<path class="st10" d="M502.3,172.2l-94.6-55L498,65.1l94.6,55L502.3,172.2z"/>
<path class="st11" d="M483.7,297l-0.2,71c0,0.3,0,0.7-0.1,1c-0.4,1.8-1.7,2.6-3.5,2c-0.3-0.1-0.6-0.2-0.9-0.4
	c-2.2-1.3-4-4.1-4.4-6.6c-0.1-0.4-0.1-0.7-0.1-1.1l0.2-71L483.7,297z"/>
<path class="st5" d="M483.9,218.1l-0.2,79l-9-5.2l0.2-79c0-2.8,2-4,4.5-2.6C481.9,211.8,483.9,215.2,483.9,218.1z"/>
<path class="st5" d="M461.6,205.2l0,7l-8.9-5.2l0-7c0-2.8,2-4,4.5-2.6C459.6,198.9,461.6,202.3,461.6,205.2z"/>
<path class="st11" d="M461.6,212.1l-0.4,143c0,0.4,0,0.7-0.1,1c-0.4,2.1-2.2,2.8-4.4,1.6c-2.2-1.2-4-4.1-4.4-6.6
	c-0.1-0.4-0.1-0.7-0.1-1.1l0.4-143L461.6,212.1z"/>
<path class="st5" d="M439.3,192.3l-0.1,31.9l-8.9-5.2l0.1-31.9c0-2.8,2-4,4.5-2.6S439.3,189.4,439.3,192.3z"/>
<path class="st11" d="M439.2,224.2l-0.3,118c0,0.4,0,0.7-0.1,1c-0.4,2.1-2.2,2.8-4.4,1.6c-2.2-1.2-4-4-4.4-6.6
	c-0.1-0.4-0.1-0.7-0.1-1.1l0.3-118L439.2,224.2z"/>
<path class="st5" d="M417,179.4l-0.4,126.2l-8.9-5.2l0.4-126.2c0-2.8,2-4,4.5-2.6C415,173.1,417,176.6,417,179.4z"/>
<path class="st11" d="M416.7,305.6l-0.1,23.7c0,0.4,0,0.7-0.1,1c-0.4,2.1-2.2,2.8-4.4,1.6c-2.2-1.3-4-4-4.4-6.6
	c-0.1-0.4-0.1-0.7-0.1-1.1l0.1-23.7L416.7,305.6z"/>
<path class="st11" d="M394.5,245.5l-0.2,71c0,0.4,0,0.7-0.1,1c-0.4,2.1-2.2,2.8-4.4,1.6c-2.2-1.3-4-4.1-4.4-6.6
	c-0.1-0.4-0.1-0.7-0.1-1.1l0.2-71L394.5,245.5z"/>
<path class="st5" d="M394.7,166.5l-0.2,79l-8.9-5.2l0.2-79c0-2.8,2-4,4.5-2.6C392.7,160.2,394.7,163.7,394.7,166.5z"/>
<path class="st11" d="M483.2,431.6c1.7,1,3.2,2.9,3.9,5c0.1,0.2,0.2,0.5,0.2,0.7c0.1,0.2,0.1,0.5,0.2,0.7c0,0.2,0.1,0.4,0.1,0.7
	c0,0.2,0,0.5,0,0.7c0,2.8-2,4-4.5,2.6L462.7,430l0-10.3L483.2,431.6z"/>
<path class="st5" d="M462.7,419.7l0,10.3l-72.7-42c-2.5-1.4-4.5-4.9-4.4-7.7c0-2.8,2-4,4.5-2.6L462.7,419.7z"/>
<path class="st2" d="M523,257.4l87.7-51l0.1-51.2l-87.7,51L523,257.4z"/>
<path class="st6" d="M532.6,230.9c-1.2,0.7-2.3,2.1-2.9,3.6c-0.1,0.2-0.1,0.3-0.2,0.5c0,0.2-0.1,0.3-0.1,0.5c0,0.2-0.1,0.3-0.1,0.5
	c0,0.2,0,0.3,0,0.5c0,2.1,1.5,2.9,3.3,1.9l15.1-8.7l0-7.6L532.6,230.9z"/>
<path class="st5" d="M547.7,222.1l0,7.6l53.5-30.9c1.8-1,3.3-3.6,3.3-5.7c0-2.1-1.5-2.9-3.3-1.9L547.7,222.1z"/>
<path class="st5" d="M583.5,184.4l0,7.6l17.6-10.2c1.8-1,3.3-3.6,3.3-5.7c0-2.1-1.5-2.9-3.3-1.9L583.5,184.4z"/>
<path class="st6" d="M532.6,213.8c-0.6,0.4-1.2,0.9-1.7,1.5c-0.2,0.3-0.4,0.6-0.6,0.9c-0.4,0.6-0.7,1.3-0.8,2
	c-0.1,0.3-0.1,0.5-0.1,0.8c0,0.1,0,0.3,0,0.4c0,0.1,0,0.3,0,0.4c0,0.2,0.1,0.5,0.1,0.7c0.3,1,1.2,1.5,2.3,1.2
	c0.3-0.1,0.5-0.2,0.8-0.4l50.9-29.4l0-7.6L532.6,213.8z"/>
<path class="st2" d="M523,322.6l87.7-51l0.1-51.2l-87.7,51L523,322.6z"/>
<path class="st6" d="M532.6,296.1c-1.2,0.7-2.3,2.1-2.9,3.6c-0.1,0.2-0.1,0.3-0.2,0.5c0,0.2-0.1,0.3-0.1,0.5c0,0.2-0.1,0.3-0.1,0.5
	c0,0.2,0,0.3,0,0.5c0,2.1,1.5,2.9,3.3,1.9l15.1-8.7l0-7.6L532.6,296.1z"/>
<path class="st5" d="M547.7,287.4l0,7.6l53.5-30.9c1.8-1,3.3-3.6,3.3-5.7c0-2.1-1.5-2.9-3.3-1.9L547.7,287.4z"/>
<path class="st5" d="M583.5,249.6l0,7.6l17.6-10.2c1.8-1,3.3-3.6,3.3-5.7c0-2.1-1.5-2.9-3.3-1.9L583.5,249.6z"/>
<path class="st6" d="M532.6,279c-0.6,0.4-1.2,0.9-1.7,1.5c-0.2,0.3-0.4,0.6-0.6,1c-0.4,0.6-0.7,1.3-0.8,2c-0.1,0.3-0.1,0.5-0.1,0.8
	c0,0.1,0,0.3,0,0.4c0,0.1,0,0.3,0,0.4c0,0.2,0.1,0.5,0.1,0.7c0.3,1,1.2,1.5,2.3,1.2c0.3-0.1,0.5-0.2,0.8-0.3l50.9-29.4l0-7.6
	L532.6,279z"/>
<path class="st2" d="M523,387.8l87.7-51l0.1-51.2l-87.7,51L523,387.8z"/>
<path class="st6" d="M532.6,361.3c-1.2,0.7-2.3,2.1-2.9,3.6c-0.1,0.2-0.1,0.3-0.2,0.5c0,0.2-0.1,0.3-0.1,0.5c0,0.2-0.1,0.3-0.1,0.5
	c0,0.2,0,0.3,0,0.5c0,2.1,1.5,2.9,3.3,1.9l15.1-8.7l0-7.6L532.6,361.3z"/>
<path class="st5" d="M547.7,352.6l0,7.6l53.5-30.9c1.8-1,3.3-3.6,3.3-5.7c0-2.1-1.5-2.9-3.3-1.9L547.7,352.6z"/>
<path class="st5" d="M583.5,314.8l0,7.6l17.6-10.2c1.8-1,3.3-3.6,3.3-5.7c0-2.1-1.5-2.9-3.3-1.9L583.5,314.8z"/>
<path class="st6" d="M532.6,344.2c-0.6,0.4-1.2,0.9-1.7,1.5c-0.2,0.3-0.4,0.6-0.6,0.9c-0.4,0.6-0.7,1.3-0.8,2
	c-0.1,0.3-0.1,0.5-0.1,0.8c0,0.1,0,0.3,0,0.4c0,0.1,0,0.3,0,0.4c0,0.2,0.1,0.5,0.1,0.7c0.3,1,1.2,1.5,2.3,1.2
	c0.3-0.1,0.5-0.2,0.8-0.4l50.9-29.4l0-7.6L532.6,344.2z"/>
<path class="st2" d="M523,453l87.7-51l0.1-51.2l-87.7,51L523,453z"/>
<path class="st6" d="M532.6,426.5c-1.2,0.7-2.3,2.1-2.9,3.6c-0.1,0.2-0.1,0.3-0.2,0.5c0,0.2-0.1,0.3-0.1,0.5c0,0.2-0.1,0.3-0.1,0.5
	c0,0.2,0,0.3,0,0.5c0,2.1,1.5,2.9,3.3,1.9l15.1-8.7l0-7.6L532.6,426.5z"/>
<path class="st5" d="M547.7,417.8l0,7.6l53.5-30.9c1.8-1,3.3-3.6,3.3-5.7c0-2.1-1.5-2.9-3.3-1.9L547.7,417.8z"/>
<path class="st5" d="M583.5,380l0,7.6l17.6-10.2c1.8-1,3.3-3.6,3.3-5.7c0-2.1-1.5-2.9-3.3-1.9L583.5,380z"/>
<path class="st6" d="M532.6,409.4c-0.6,0.4-1.2,0.9-1.7,1.5c-0.2,0.3-0.4,0.6-0.6,1c-0.4,0.6-0.7,1.3-0.8,2
	c-0.1,0.3-0.1,0.5-0.1,0.8c0,0.1,0,0.3,0,0.4s0,0.3,0,0.4c0,0.2,0.1,0.5,0.1,0.7c0.3,1,1.2,1.5,2.3,1.2c0.3-0.1,0.5-0.2,0.8-0.3
	l50.9-29.4l0-7.6L532.6,409.4z"/>
<path class="st12" d="M371.5,560.4c-1.9,3.7-4.4,5.8-6.9,6.8c0,0,0,0,0,0c-5.1,2.2-10.1,0.3-10.1,0.3l-0.1-23.8l0-2.7
	C354.4,541.1,376.6,550.5,371.5,560.4z"/>
<path class="st13" d="M369,561.9c-1.3,2.4-2.8,4.2-4.4,5.4c0,0,0,0,0,0c-5.1,2.2-10.1,0.3-10.1,0.3l-0.1-23.8
	C360.1,546.6,373,554,369,561.9z"/>
<path class="st2" d="M183.1,419.7l88.8,43.7l25.1,75.1l24.4,4.8l2.2-38.9c0,0,4.3-57.1,1.7-76c-4.7-34.8-61.6-35.8-61.6-35.8
	l-57.8-1.9L183.1,419.7z"/>
<path class="st2" d="M183.1,419.7l88.8,43.7l25.1,75.1l24.4,4.8l2.2-38.9c0,0,4.3-57.1,1.7-76c-4.7-34.8-61.6-35.8-61.6-35.8
	l-57.8-1.9L183.1,419.7z"/>
<g>
	<defs>
		<rect id="SVGID_7_" x="58.6" y="368" width="296.9" height="264"/>
	</defs>
	<clipPath id="SVGID_8_">
		<use xlink:href="#SVGID_7_"  style="overflow:visible;"/>
	</clipPath>
	<g class="st14">
		<path class="st15" d="M168.9,369.3l185.3,107.8l0.3,90.4l-109.9,63.6L59.3,523.3L59,432.8L168.9,369.3z"/>
	</g>
</g>
<g>
	<defs>
		<rect id="SVGID_9_" x="58.6" y="432" width="186.2" height="200"/>
	</defs>
	<clipPath id="SVGID_10_">
		<use xlink:href="#SVGID_9_"  style="overflow:visible;"/>
	</clipPath>
	<g class="st16">
		<path class="st11" d="M244.3,540.6l0.3,90.5L59.2,523.3L59,432.8L244.3,540.6z"/>
	</g>
</g>
<path class="st11" d="M354.3,477.1l0.3,90.5l-109.9,63.5l-0.3-90.5L354.3,477.1z"/>
<g>
	<defs>
		<rect id="SVGID_11_" x="58.6" y="368" width="296.9" height="173.3"/>
	</defs>
	<clipPath id="SVGID_12_">
		<use xlink:href="#SVGID_11_"  style="overflow:visible;"/>
	</clipPath>
	<g class="st17">
		<path class="st6" d="M168.9,369.3l185.3,107.8l-109.9,63.5L59,432.8L168.9,369.3z"/>
	</g>
</g>
<path class="st12" d="M170.6,606.2l22.4,2.3c4.6,7.1,8.2,14.5,10.4,22.4c2.5,9.2-1.6,19.2-10,23.1c-0.7,0.3-1.3,0.6-2.1,0.8
	c-2.5,0.8-5,1-7.3,0.1c-9.3-3.6-14.2-17.6-14.2-17.6c-3.3-6.5-3.9-31.7-3.9-31.7L170.6,606.2z"/>
<path class="st13" d="M193,608.5c4.6,7.1,8.2,14.5,10.4,22.4c2.5,9.2-1.6,19.2-10,23.1c-1.6,0.2-3.3,0.1-4.8-0.5
	c-9.4-3.6-14.2-17.6-14.2-17.6c-2.8-5.4-3.7-23.8-3.9-29.8L193,608.5z"/>
<path class="st1" d="M191.3,478c0,0.4,0.3,0.9,0.8,1.2l130.4-12.6l-0.3,7.6c0,0.5-0.3,0.9-0.9,1.2l-77.7,41.5
	c-1.2,0.6-3.1,0.6-4.2-0.1l-47.5-29.9c-0.5-0.3-0.8-0.8-0.8-1.2L191.3,478z"/>
<path class="st18" d="M269.9,435.4c1.2-0.6,3.1-0.6,4.2,0.1l47.5,29.9c1.1,0.7,1.1,1.8-0.1,2.4l-77.7,41.4c-1.2,0.6-3.1,0.6-4.2-0.1
	l-47.5-29.8c-1.1-0.7-1.1-1.8,0.1-2.4L269.9,435.4z"/>
<path class="st2" d="M242.8,488.4c-0.3,0.2-0.8,0.2-1.1,0l-3.4-2.1c-0.3-0.2-0.3-0.4,0-0.6l3.8-2c0.3-0.2,0.8-0.1,1,0l3.4,2.1
	c0.3,0.2,0.3,0.4,0,0.6L242.8,488.4z"/>
<path class="st1" d="M235.7,474.3c-0.3,0.2-0.7,0.2-1,0l-14.3-9.1c-0.3-0.2-0.3-0.4,0-0.6l29.2-15.6c0.3-0.1,0.7-0.1,1,0l14.3,9.1
	c0.3,0.2,0.3,0.4,0,0.6L235.7,474.3z"/>
<path class="st2" d="M277.6,484.4c-0.3,0.2-0.8,0.2-1.1,0l-3.3-2.1c-0.3-0.2-0.3-0.4,0-0.6l3.8-2c0.3-0.2,0.7-0.2,1,0l3.3,2.1
	c0.3,0.2,0.3,0.5,0,0.6L277.6,484.4z"/>
<path class="st2" d="M286.9,456.7c-0.3,0.2-0.7,0.2-1,0l-3.3-2.1c-0.3-0.2-0.3-0.5,0-0.6l3.8-2c0.3-0.2,0.8-0.1,1.1,0.1l3.3,2.1
	c0.3,0.2,0.3,0.4,0,0.6L286.9,456.7z"/>
<path class="st2" d="M235.6,491.6c-0.3,0.2-0.8,0.1-1,0l-3.4-2.1c-0.3-0.2-0.3-0.4,0-0.6l3.8-2c0.3-0.2,0.8-0.1,1,0l3.4,2.1
	c0.3,0.2,0.3,0.4,0,0.6L235.6,491.6z"/>
<path class="st2" d="M221.9,491.4c-0.3,0.2-0.7,0.2-1,0l-3.3-2.1c-0.3-0.2-0.3-0.5,0-0.6l3.8-2c0.3-0.2,0.8-0.1,1.1,0l3.3,2.1
	c0.3,0.2,0.3,0.4,0,0.6L221.9,491.4z"/>
<path class="st2" d="M229.1,487.5c-0.3,0.2-0.7,0.2-1,0l-3.3-2.1c-0.3-0.2-0.3-0.5,0-0.6l3.8-2c0.3-0.2,0.8-0.1,1.1,0l3.3,2.1
	c0.3,0.2,0.3,0.4,0,0.6L229.1,487.5z"/>
<path class="st2" d="M241.4,503.7c-0.3,0.2-0.8,0.1-1.1,0l-3.3-2.1c-0.3-0.2-0.3-0.4,0-0.6l3.8-2c0.3-0.2,0.7-0.2,1,0l3.3,2.1
	c0.3,0.2,0.3,0.5,0,0.6L241.4,503.7z"/>
<path class="st2" d="M248.6,499.8c-0.3,0.2-0.8,0.1-1.1,0l-3.3-2.1c-0.3-0.2-0.3-0.4,0-0.6l3.8-2c0.3-0.2,0.7-0.2,1,0l3.3,2.1
	c0.3,0.2,0.3,0.5,0,0.6L248.6,499.8z"/>
<path class="st2" d="M234.9,499.6c-0.3,0.2-0.7,0.2-1,0l-9.9-6.2c-0.3-0.2-0.3-0.4,0-0.6l3.8-2c0.3-0.2,0.8-0.1,1,0l6,3.8l6.7-3.6
	c0.3-0.2,0.8-0.1,1,0l3.4,2.1c0.3,0.2,0.3,0.4,0,0.6L234.9,499.6z"/>
<path class="st2" d="M255.9,496c-0.3,0.2-0.8,0.2-1.1,0l-3.3-2.1c-0.3-0.2-0.3-0.4,0-0.6l3.8-2c0.3-0.2,0.7-0.2,1,0l3.3,2.1
	c0.3,0.2,0.3,0.5,0,0.6L255.9,496z"/>
<path class="st2" d="M249.4,491.9c-0.3,0.2-0.8,0.2-1.1,0l-3.4-2.1c-0.3-0.2-0.3-0.4,0-0.6l3.8-2c0.3-0.2,0.8-0.1,1,0l3.4,2.1
	c0.3,0.2,0.3,0.4,0,0.6L249.4,491.9z"/>
<path class="st2" d="M263.1,492.1c-0.3,0.2-0.8,0.1-1.1-0.1l-3.3-2.1c-0.3-0.2-0.3-0.4,0-0.6l3.8-2c0.3-0.2,0.7-0.2,1,0l3.3,2.1
	c0.3,0.2,0.3,0.5,0,0.6L263.1,492.1z"/>
<path class="st2" d="M256.6,488c-0.3,0.2-0.8,0.1-1,0l-3.4-2.1c-0.3-0.2-0.3-0.4,0-0.6l3.8-2c0.3-0.2,0.8-0.1,1,0l3.4,2.1
	c0.3,0.2,0.3,0.4,0,0.6L256.6,488z"/>
<path class="st2" d="M270.3,488.3c-0.3,0.2-0.8,0.1-1.1-0.1l-3.3-2.1c-0.3-0.2-0.3-0.4,0-0.6l3.8-2c0.3-0.2,0.7-0.2,1,0l3.3,2.1
	c0.3,0.2,0.3,0.5,0,0.6L270.3,488.3z"/>
<path class="st2" d="M250.1,483.9c-0.3,0.2-0.8,0.1-1,0l-3.4-2.1c-0.3-0.2-0.3-0.4,0-0.6l3.8-2c0.3-0.2,0.8-0.1,1,0l3.4,2.1
	c0.3,0.2,0.3,0.4,0,0.6L250.1,483.9z"/>
<path class="st2" d="M263.8,484.2c-0.3,0.2-0.8,0.1-1,0l-3.4-2.1c-0.3-0.2-0.3-0.4,0-0.6l3.8-2c0.3-0.2,0.8-0.1,1,0l3.4,2.1
	c0.3,0.2,0.3,0.4,0,0.6L263.8,484.2z"/>
<path class="st2" d="M257.3,480.1c-0.3,0.2-0.8,0.1-1,0l-3.4-2.1c-0.3-0.2-0.3-0.4,0-0.6l3.8-2c0.3-0.2,0.8-0.1,1,0l3.4,2.1
	c0.3,0.2,0.3,0.4,0,0.6L257.3,480.1z"/>
<path class="st2" d="M271,480.3c-0.3,0.2-0.8,0.2-1.1,0l-3.4-2.1c-0.3-0.2-0.3-0.4,0-0.6l3.8-2c0.3-0.2,0.8-0.1,1,0l3.4,2.1
	c0.3,0.2,0.3,0.4,0,0.6L271,480.3z"/>
<path class="st2" d="M264.5,476.2c-0.3,0.2-0.8,0.2-1.1,0l-3.4-2.1c-0.3-0.2-0.3-0.4,0-0.6l3.8-2c0.3-0.2,0.8-0.1,1,0l3.4,2.1
	c0.3,0.2,0.3,0.4,0,0.6L264.5,476.2z"/>
<path class="st2" d="M278.3,476.4c-0.3,0.2-0.8,0.1-1,0l-3.4-2.1c-0.3-0.2-0.3-0.4,0-0.6l3.8-2c0.3-0.2,0.8-0.1,1,0l3.4,2.1
	c0.3,0.2,0.3,0.4,0,0.6L278.3,476.4z"/>
<path class="st2" d="M271.8,472.4c-0.3,0.2-0.8,0.1-1,0l-3.4-2.1c-0.3-0.2-0.3-0.4,0-0.6l3.8-2c0.3-0.2,0.8-0.1,1,0l3.4,2.1
	c0.3,0.2,0.3,0.4,0,0.6L271.8,472.4z"/>
<path class="st2" d="M299.2,472.8c-0.3,0.2-0.8,0.2-1.1,0l-3.3-2.1c-0.3-0.2-0.3-0.4,0.1-0.6l3.8-2c0.3-0.2,0.8-0.2,1.1,0l3.3,2.1
	c0.3,0.2,0.3,0.5,0,0.6L299.2,472.8z"/>
<path class="st2" d="M306.5,469c-0.3,0.2-0.8,0.1-1.1-0.1l-3.3-2.1c-0.3-0.2-0.3-0.4,0-0.6l3.8-2c0.3-0.2,0.7-0.2,1,0l3.3,2.1
	c0.3,0.2,0.3,0.5,0,0.6L306.5,469z"/>
<path class="st2" d="M236.3,483.7c-0.3,0.2-0.8,0.2-1.1,0l-3.3-2.1c-0.3-0.2-0.3-0.5,0-0.6l39.9-21.3c0.3-0.2,0.8-0.1,1.1,0l3.3,2.1
	c0.3,0.2,0.3,0.4,0,0.6L236.3,483.7z"/>
<path class="st2" d="M292.7,468.7c-0.3,0.2-0.8,0.2-1.1,0l-3.4-2.1c-0.3-0.2-0.3-0.4,0-0.6l11-5.9c0.3-0.2,0.8-0.1,1,0l3.4,2.1
	c0.3,0.2,0.3,0.4,0,0.6L292.7,468.7z"/>
<path class="st2" d="M279,468.5c-0.3,0.2-0.8,0.1-1,0l-3.4-2.1c-0.3-0.2-0.3-0.4,0-0.6l18.3-9.7c0.3-0.2,0.8-0.1,1,0l3.4,2.1
	c0.3,0.2,0.3,0.4,0,0.6L279,468.5z"/>
<path class="st2" d="M284.8,480.5c-0.3,0.2-0.8,0.1-1.1,0l-3.3-2.1c-0.3-0.2-0.3-0.4,0-0.6l3.8-2c0.3-0.2,0.7-0.2,1,0l3.3,2.1
	c0.3,0.2,0.3,0.5,0,0.6L284.8,480.5z"/>
<path class="st2" d="M285.5,472.6c-0.3,0.2-0.8,0.1-1,0l-3.4-2.1c-0.3-0.2-0.3-0.4,0-0.6l3.8-2c0.3-0.2,0.8-0.1,1,0l3.4,2.1
	c0.3,0.2,0.3,0.4,0,0.6L285.5,472.6z"/>
<path class="st2" d="M292,476.7c-0.3,0.2-0.8,0.1-1.1,0l-3.3-2.1c-0.3-0.2-0.3-0.4,0-0.6l3.8-2c0.3-0.2,0.7-0.2,1,0l3.3,2.1
	c0.3,0.2,0.3,0.5,0,0.6L292,476.7z"/>
<path class="st2" d="M279.7,460.6c-0.3,0.2-0.8,0.2-1.1,0l-3.3-2.1c-0.3-0.2-0.3-0.5,0-0.6l3.8-2c0.3-0.2,0.8-0.2,1.1,0l3.3,2.1
	c0.3,0.2,0.3,0.4,0,0.6L279.7,460.6z"/>
<path class="st19" d="M221.8,500.2l-0.1,4l6.2,3.8l0.1-4L221.8,500.2z"/>
<path class="st2" d="M224.7,502.6l-2.7,1.4l0,0l0.1-2.9L224.7,502.6z"/>
<path class="st10" d="M224.7,502.6l2.8,1.7l-0.1,2.9l-5.3-3.3L224.7,502.6z"/>
<path class="st19" d="M230.3,505.4l-0.1,3.9l6.2,3.8l0.1-3.9L230.3,505.4z"/>
<path class="st2" d="M233.3,507.7l-2.7,1.4l0,0l0.1-2.9L233.3,507.7z"/>
<path class="st10" d="M233.3,507.7l2.8,1.7l-0.1,2.9l-5.4-3.3L233.3,507.7z"/>
<path class="st2" d="M171.4,421.5c1.1,0,22.3,4.7,22.3,4.7l7.3,66.6c-5.1,43.6-9.3,84-7.1,113.2c-0.5,9.1-26.7,8.5-28.3-1.5
	c-8.9-36.6-11.5-70.6-3.5-100.2l-39.1-69.9C123.1,434.5,170.3,421.5,171.4,421.5z"/>
<path class="st20" d="M108.3,299.1l4.8,44l10,91.4c7,17.2,47.4,7.5,71-8.5c3.8-2.6,7.1-5.3,9.8-8.1v-31.1c-6.1-13.3-8.6-28.1-7-42.8
	c0.2-1.7,0.8-3.3,1.9-4.7c0.9-1.2,2.7-1,3.4,0.4l18.4,38.3l3.4,4.1h29.7L236,345.4l-17.6-48.4c-1.4-34.5-21.2-39.8-21.2-39.8
	C166.3,245.2,108.3,299.1,108.3,299.1z"/>
<path class="st20" d="M263.6,402.5c1.4,4-15.4,11.3-16.9,7.2l-14.9-18.1l26.9,0.9L263.6,402.5z"/>
<path class="st21" d="M181,438.8l6,11.5c0,0,5.3,5.2,22.8,14.3c17.5,9.2,18.1-12.5,18.1-12.5s5.1,6.4,9.1,8.1c4,1.7,2.3-4.7,2.3-4.7
	c-1.4-4.1-4.3-7.6-7.5-10.3c-6.2-5.3-14.1-8.1-22.2-8.5l-14.7-0.7L181,438.8z"/>
<path class="st2" d="M194.2,426c12.2-8.3,19.9-18.2,16.3-27.1l-3.6-6.3c-0.3-0.6-0.7-1.2-1-1.9l25.9,0.9l26.9,0.9l4.9,0.2
	c0,0,6.4,0.1,15.1,1.6l12.8,74.4l-6.9-20.8l-93.8-19.7C192,427.4,193.1,426.7,194.2,426z"/>
<path class="st21" d="M252.8,400.9l-2.5,9.9c-0.9,3.3-2.6,6.4-4.9,9c-0.5,0.5-0.9,1-1.3,1.4c-1.2,1.2-1.4,6.9-1.4,10.4
	c0,1.5,1,2.8,2.5,3.1c1.7,0.3,3.4-0.8,3.7-2.5c0.8-4.6,2.5-12,5.4-7.8c3,4.4,4,13.2,4.2,17.2c0.1,1.5,0.8,2.8,2,3.8
	c8.2,6.6,14,0.5,17-4.2c1.5-2.4,2-5.3,1.3-8.1c-1.4-5.7-4.4-15.8-7.7-17.6c-4.7-2.5-7.5-11.4-7.5-11.4L252.8,400.9z"/>
<path class="st10" d="M242.2,452.5c0.1-1.3,1.1-2.9,2.3-3.6l77.7-41.4c0.6-0.3,1.1-0.3,1.5-0.1l6.3,4l-82.6,102.6l-6.3-4
	c-0.4-0.2-0.6-0.7-0.6-1.3L242.2,452.5z"/>
<path class="st2" d="M250.8,452.9c-1.2,0.6-2.2,2.2-2.2,3.6l-1.8,56.1c0,1.3,0.9,1.9,2.1,1.3l77.7-41.4c1.2-0.6,2.2-2.2,2.2-3.6
	l1.8-56.1c0-1.3-0.9-1.9-2.1-1.3L250.8,452.9z"/>
<path class="st10" d="M281.5,466.4c-0.1,4.4,2.9,6.3,6.9,4.2c3.9-2.1,7.3-7.4,7.4-11.8c0.1-4.4-3-6.3-6.9-4.2
	C285,456.7,281.7,462,281.5,466.4z"/>
<path class="st22" d="M197.1,257.2c0,0,15.9,4.2,20.3,29.9c1.4,8.2,3.4,16.3,6.2,24.1l12.4,34.2l27.6,57.1c0.8,2.3-4.2,5.6-9,7.3
	c-3.7,1.3-7.3,1.7-7.9-0.1L220.6,378l-18.4-38.3c-0.3-0.8-1.1-1.2-1.8-1.2c-0.6,0-1.2,0.3-1.6,0.8c-1.1,1.3-1.7,3-1.9,4.7
	c-1.8,16.8,1.7,33.7,9.9,48.5c0,0,0,0,0,0.1l3.5,6.4c3.6,8.8-4.1,18.8-16.3,27c-23.7,16-64.1,25.7-71,8.5l-10-91.4l-4.8-44
	C108.3,299.1,166.3,245.2,197.1,257.2z"/>
<path class="st23" d="M135.3,277.6c0.3,3.4,2.3,8.9,6,14.8c2.8,4.6,7.6,7.8,12.7,9.5c3.4,1.1,6.8,1.3,10.2,0.8
	c4.8-0.7,8.8-4,10.1-8.6c1.4-4.7,1.5-10.4,0-16.1c0,0-1.9-2.3-4.4-5.2c-0.8,0-1.7-0.1-2.5-0.1l0,0c-8.5-0.1-18.8-0.5-27.2,1.6
	C138.3,275.6,136.5,276.7,135.3,277.6z"/>
<path class="st21" d="M168.8,291c-0.2,0.9-0.4,1.8-0.9,2.6c-1.4,2.4-3.4,3.3-6.1,3.4c-5.6,0.3-11.2-1.9-14.9-6.1
	c-5.4-6.2-6.7-16.6-6.7-16.6l10-15.8l19.5,20.4l-0.3,8.2C169.4,287.6,168.8,291,168.8,291z"/>
<path class="st24" d="M190,224.3l-38.1-3.7l-14.4,26.9c4.4,36.8,25.5,41.8,33.8,43.9c2.2,0.6,5.5-0.3,7.3-1.8
	c20.6-16.9,25.6-50.2,25.6-50.2L190,224.3z"/>
<path class="st10" d="M147.7,220.8l16.9,17.4c-1.7,8.9-5.3,15.2-11.2,17.8c-1,0.5-2.2,0.2-2.9-0.6c-1.8-1.9-3.6-5.7-4.3-7.5
	c-0.4-1-1.1-1.8-1.9-2.3c-3.6-2.2-6.8,1.9-6.8,1.9c-2.9-9.9,4.9-27.9,4.9-27.9L147.7,220.8z"/>
<path class="st2" d="M164.1,237.9c15.8,6.8,27.6,8.3,35.4,4.9c5.8-2.6,8.6-8.7,9.8-16.7l-3.7,3.4c1.7-5.8-0.1-10.2-2.1-14.5
	c0.2,2.8,0.1,5.4-0.4,7.8c0.7-6.1-3.4-10.5-8.3-14.5c1.3,2.7,2.5,5.3,2.8,7.3c-6-8.8-14.8-13.4-25.7-14.9
	c-14.4-1.1-23.9,4.9-29.5,18.8C146.3,226.9,153.9,233.6,164.1,237.9z"/>
<path class="st23" d="M135.2,320c0,0-1.3,26.9,16.6,24.5l1.1,21.4c0.2,3.6,1.4,7,3.6,9.9l37.7,50.2c-23.7,16-64.1,25.7-71,8.5
	l-10-91.4L135.2,320z"/>
<path class="st22" d="M135,320l6.7,74.6l54.3,40.1c4.3,2.5-5.5,19.5-9.8,17c0,0-57.2-26.2-66-44.6c-6.6-13.9-12-41.7-17.4-70.6
	c-5.4-28.9,5.6-37.3,5.6-37.3L135,320z"/>
<path class="st23" d="M198.5,322.3l4-37.6c0,0,8.4,24.1,6.9,29.2c-1.5,5.1,2.3,20.8,8.4,22.9c6.1,2.1,8,7.2,8,7.2l-4.6,15.9
	l33.4,49.5c0,0,0,0.1,0,0.2c-3.7,1.3-7.3,1.7-7.9-0.1L220.6,378l-18.4-38.3c-0.3-0.8-1.1-1.2-1.8-1.2c-0.6,0-1.2,0.3-1.6,0.8
	c-1.1,1.3-1.7,3-1.9,4.7L198.5,322.3z"/>
<path class="st25" d="M411.1,364.4c0.9-0.5,2.2-0.4,3.7,0.4c2.9,1.7,5.1,5.6,5.1,8.9c0,1.7-0.6,2.8-1.5,3.3l-1.4,0.8
	c0.9-0.5,1.5-1.7,1.5-3.3c0-3.3-2.3-7.2-5.1-8.9c-1.5-0.8-2.7-0.9-3.7-0.4L411.1,364.4z"/>
<path class="st26" d="M418.5,374.5c0,3.3-2.3,4.7-5.2,3c-2.9-1.7-5.2-5.7-5.1-9c0-3.3,2.3-4.6,5.2-2.9
	C416.2,367.3,418.5,371.2,418.5,374.5z"/>
<path class="st27" d="M426.2,373.1c0.9-0.5,2.2-0.4,3.7,0.4c2.9,1.7,5.1,5.6,5.1,8.9c0,1.7-0.6,2.8-1.5,3.3l-1.4,0.8
	c0.9-0.5,1.5-1.7,1.5-3.3c0-3.3-2.3-7.2-5.1-8.9c-1.5-0.8-2.7-0.9-3.7-0.4L426.2,373.1z"/>
<path class="st6" d="M433.5,383.2c0,3.3-2.3,4.7-5.2,3c-2.9-1.7-5.2-5.7-5.2-9c0-3.3,2.3-4.6,5.2-2.9
	C431.2,375.9,433.5,379.9,433.5,383.2z"/>
<path class="st27" d="M441.2,381.8c0.9-0.5,2.2-0.4,3.7,0.4c2.9,1.6,5.1,5.6,5.1,8.9c0,1.6-0.6,2.8-1.5,3.3l-1.4,0.8
	c0.9-0.5,1.5-1.7,1.5-3.3c0-3.3-2.3-7.2-5.1-8.9c-1.5-0.8-2.7-0.9-3.7-0.4L441.2,381.8z"/>
<path class="st6" d="M448.6,391.9c0,3.3-2.3,4.7-5.2,3c-2.9-1.7-5.2-5.7-5.2-9c0-3.3,2.3-4.6,5.2-2.9
	C446.3,384.6,448.6,388.6,448.6,391.9z"/>
<path class="st27" d="M456.3,390.5c0.9-0.5,2.2-0.4,3.7,0.4c2.9,1.6,5.1,5.6,5.1,8.9c0,1.6-0.6,2.8-1.5,3.3l-1.4,0.8
	c0.9-0.5,1.5-1.7,1.5-3.3c0-3.3-2.3-7.2-5.1-8.9c-1.5-0.8-2.7-0.9-3.7-0.4L456.3,390.5z"/>
<path class="st11" d="M463.6,400.6c0,3.3-2.3,4.7-5.2,3c-2.9-1.7-5.2-5.7-5.2-9c0-3.3,2.3-4.6,5.2-2.9
	C461.3,393.3,463.6,397.3,463.6,400.6z"/>
</svg>
