<?xml version="1.0" encoding="utf-8"?>
<!-- Generator: Adobe Illustrator 23.0.2, SVG Export Plug-In . SVG Version: 6.00 Build 0)  -->
<svg version="1.1" id="Layer_1" xmlns="http://www.w3.org/2000/svg" xmlns:xlink="http://www.w3.org/1999/xlink" x="0px" y="0px"
	 viewBox="0 0 750 500" style="enable-background:new 0 0 750 500;" xml:space="preserve">
<style type="text/css">
	.st0{fill:#EBEBEB;}
	.st1{fill:#FFFFFF;}
	.st2{fill:#A6A6A6;}
	.st3{fill:#BA68C8;}
	.st4{opacity:0.51;}
	.st5{fill:url(#SVGID_1_);}
	.st6{fill:#DBDBDB;}
	.st7{fill:#263238;}
	.st8{fill:#C7C7C7;}
	.st9{fill:#455A64;}
	.st10{opacity:0.1;fill:#020100;enable-background:new    ;}
	.st11{opacity:0.1;enable-background:new    ;}
	.st12{fill:#666666;}
	.st13{opacity:0.28;fill:#DBDBDB;}
	.st14{fill:#FFC4C0;}
	.st15{fill:#FF9CBD;}
	.st16{opacity:0.1;fill:#050400;enable-background:new    ;}
</style>
<g id="freepik--background-complete--inject-11">
	<path class="st0" d="M650,220.7c-2.6,1.6-5.4,2.7-8.4,3.4c-15.6,3.6-31.2-6.1-34.8-21.7c-3.6-15.6,6.1-31.2,21.7-34.8
		s31.2,6.1,34.8,21.7C666.1,201.6,660.8,214.2,650,220.7z"/>
	<path class="st1" d="M643.9,192.7c-0.1,4.9-4,8.8-8.9,8.7s-8.8-4-8.7-8.9s4-8.8,8.9-8.7c0,0,0,0,0,0
		C640.1,183.8,644,187.8,643.9,192.7z"/>
	<path class="st1" d="M650.1,217.1v3.6c-2.6,1.6-5.4,2.7-8.4,3.4c-7.6,1.8-15.5,0.4-22.1-3.8v-3.6c0.3-8.4,7.4-15,15.8-14.7
		C643.5,202.3,650,208.9,650.1,217.1L650.1,217.1z"/>
	<path class="st0" d="M114.7,138.8c-9,5.4-20.7,2.5-26.1-6.5c-1-1.7-1.8-3.6-2.2-5.5c-2.4-10.2,4-20.4,14.2-22.8
		c10.2-2.4,20.4,4,22.8,14.2C125.3,126.3,121.8,134.6,114.7,138.8z"/>
	<path class="st1" d="M110.7,120.4c0,3.2-2.7,5.7-5.8,5.7c-3.2,0-5.7-2.7-5.7-5.8c0-3.2,2.6-5.7,5.8-5.7
		C108.2,114.6,110.8,117.2,110.7,120.4C110.7,120.4,110.7,120.4,110.7,120.4z"/>
	<path class="st1" d="M114.8,136.4v2.4c-6.2,3.7-13.9,3.6-20-0.3v-2.4c0.1-5.5,4.6-9.9,10.1-9.9S114.8,130.9,114.8,136.4
		L114.8,136.4z"/>
	<path class="st0" d="M261.6,140.3H134.9V53.7h126.6V140.3z M135.9,139.3h124.6V54.7H135.9V139.3z"/>
	<path class="st2" d="M144.8,59.2c0,1.4-1.1,2.5-2.5,2.5s-2.5-1.1-2.5-2.5s1.1-2.5,2.5-2.5S144.8,57.9,144.8,59.2L144.8,59.2z"/>
	<path class="st0" d="M155.1,59.2c0,1.4-1.1,2.5-2.5,2.5s-2.5-1.1-2.5-2.5s1.1-2.5,2.5-2.5S155.1,57.9,155.1,59.2L155.1,59.2z"/>
	<path class="st3" d="M165.4,59.2c0,1.4-1.1,2.5-2.5,2.5c-1.4,0-2.5-1.1-2.5-2.5c0-1.4,1.1-2.5,2.5-2.5c0,0,0,0,0,0
		C164.3,56.7,165.4,57.9,165.4,59.2L165.4,59.2z"/>
	<rect x="135.4" y="63.7" class="st0" width="125.6" height="1"/>
	
		<rect x="85.6" y="185" transform="matrix(0.9908 -0.1352 0.1352 0.9908 -26.7756 17.965)" class="st0" width="66.6" height="42.2"/>
	<path class="st1" d="M149,180.7c-2.3,2.9-4.7,5.7-7,8.6s-4.8,5.6-7.1,8.4s-5,5.8-7.5,8.7l-0.2,0.3c-2.2,2.5-4.5,5.1-6.7,7.6
		l-0.3,0.4l-0.4-0.3c-2.8-1.9-5.7-3.7-8.5-5.6c-0.1-0.1-0.2-0.1-0.3-0.2c-3.2-2.1-6.4-4.2-9.6-6.4c-3-2.1-6.1-4.1-9.1-6.2
		c-3-2.1-6.1-4.2-9.1-6.4c3.1,1.8,6.2,3.7,9.3,5.6s6.2,3.8,9.3,5.7c3.4,2.1,6.9,4.3,10.3,6.5l0,0l7.7,4.9c2-2.3,4.1-4.6,6.1-6.8l0,0
		c2.7-3,5.5-6.1,8.2-9c2.5-2.7,4.9-5.3,7.4-8C144,186,146.5,183.3,149,180.7z"/>
	<path class="st1" d="M112.2,208.5C112.2,208.5,112.2,208.5,112.2,208.5l-1,1.1c-1.5,1.6-3,3.2-4.5,4.7c-1.9,1.9-3.8,3.7-5.8,5.5
		s-4,3.6-6,5.3s-4.1,3.4-6.3,5c1.8-2,3.6-3.9,5.5-5.8s3.8-3.7,5.8-5.5s4-3.6,6-5.3c1.6-1.4,3.3-2.8,5-4L112.2,208.5L112.2,208.5z"/>
	<path class="st1" d="M154.4,221.2c-2.5-1-5-2.1-7.4-3.2s-4.8-2.3-7.2-3.5s-4.7-2.5-7.1-3.8c-1.9-1.1-3.8-2.2-5.6-3.3l-1.2-0.8
		l-0.1-0.1h0.1l1.4,0.6c2,0.8,3.9,1.7,5.9,2.6c2.4,1.1,4.8,2.3,7.2,3.5s4.7,2.5,7,3.8S152.1,219.8,154.4,221.2z"/>
	
		<rect x="596.3" y="226.9" transform="matrix(0.2304 -0.9731 0.9731 0.2304 212.5347 827.9598)" class="st0" width="66.9" height="105.5"/>
	<path class="st1" d="M688.7,259.2c-5.1,3-10.2,5.8-15.3,8.7s-10.2,5.6-15.4,8.4c-5.3,2.9-10.7,5.8-16.1,8.6l-0.5,0.3
		c-4.7,2.5-9.5,5-14.3,7.5l-0.7,0.4l-0.5-0.6c-3.1-4.4-6.3-8.7-9.4-13.1c-0.1-0.1-0.2-0.3-0.3-0.5c-3.5-4.9-7-9.9-10.5-14.9
		c-3.3-4.8-6.7-9.6-10-14.4s-6.6-9.7-9.8-14.6c3.6,4.4,7.1,9,10.6,13.6s7,9.2,10.5,13.8c3.9,5.1,7.7,10.3,11.5,15.5c5.8,7.9,0,0,0,0
		c2.9,3.9,5.7,7.8,8.6,11.7c4.3-2.2,8.6-4.5,12.9-6.6l0,0c5.8-2.9,11.5-5.9,17.3-8.7c5.2-2.6,10.3-5.1,15.5-7.6
		C678.3,264.1,683.5,261.5,688.7,259.2z"/>
	<path class="st1" d="M618.5,279.3c-0.1,0-0.1,0.1-0.2,0.1l-1.9,1c-3.1,1.6-6.2,3-9.4,4.4c-3.9,1.7-7.8,3.3-11.7,4.9
		s-7.9,3-11.9,4.4s-8,2.8-12.1,3.9c3.8-2,7.6-3.8,11.5-5.5s7.8-3.3,11.7-4.9s7.9-3,11.9-4.5c3.2-1.1,6.4-2.2,9.7-3.1
		c0.8-0.2,1.5-0.4,2.3-0.6L618.5,279.3z"/>
	<path class="st1" d="M673.5,322.1c-3.2-2.9-6.2-5.9-9.1-8.9s-5.8-6.2-8.6-9.3s-5.6-6.4-8.3-9.6c-2.2-2.6-4.3-5.3-6.4-8.1l-1.3-1.8
		c0,0-0.1-0.1-0.1-0.1c0,0,0.1,0.1,0.1,0.1l1.7,1.6c2.5,2.3,4.9,4.7,7.2,7.1c2.9,3,5.8,6.2,8.6,9.3s5.6,6.4,8.3,9.6
		S671.1,318.7,673.5,322.1z"/>
	<rect x="411.8" y="39" class="st0" width="60.6" height="38.4"/>
	<path class="st1" d="M472.4,39c-2.4,2.3-4.9,4.6-7.4,6.9s-5,4.5-7.5,6.7s-5.2,4.6-7.9,6.9l-0.2,0.2l-7,6.1l-0.3,0.3l-0.3-0.3
		l-7-6.1l-0.3-0.2c-2.6-2.3-5.2-4.6-7.9-6.9c-2.5-2.2-5-4.5-7.5-6.7s-5-4.5-7.4-6.9c2.6,2,5.2,4.1,7.7,6.2s5.1,4.2,7.7,6.3
		c2.8,2.3,5.7,4.7,8.5,7.2l0,0c2.1,1.8,4.2,3.6,6.4,5.4c2.1-1.8,4.2-3.6,6.4-5.4l0,0c2.8-2.4,5.7-4.8,8.5-7.2
		c2.5-2.1,5.1-4.2,7.7-6.3C467.2,43.1,469.8,41,472.4,39z"/>
	<path class="st1" d="M435.8,59.5C435.8,59.5,435.8,59.5,435.8,59.5c-0.4,0.3-0.7,0.6-1,0.9c-1.5,1.3-3.1,2.5-4.7,3.7
		c-1.9,1.5-3.9,2.9-5.9,4.3s-4,2.7-6,4.1s-4.1,2.6-6.3,3.8c1.8-1.6,3.8-3.1,5.7-4.6s3.9-2.9,5.9-4.3s4-2.8,6-4.1c1.6-1,3.3-2.1,5-3
		L435.8,59.5L435.8,59.5z"/>
	<path class="st1" d="M472.3,76.2c-2.1-1.2-4.3-2.5-6.3-3.8s-4-2.7-6-4.1s-4-2.8-5.9-4.3c-1.6-1.2-3.1-2.4-4.6-3.7l-1-0.8
		c0,0,0,0-0.1-0.1l0.1,0l1.2,0.7c1.7,1,3.3,2,5,3c2,1.3,4,2.7,6,4.1s4,2.8,5.9,4.3S470.4,74.5,472.3,76.2z"/>
</g>
<g id="freepik--Shadow--inject-11" class="st4">
	
		<radialGradient id="SVGID_1_" cx="230.1489" cy="453.0177" r="123.8532" gradientTransform="matrix(1 0 0 0.1 0 407.7159)" gradientUnits="userSpaceOnUse">
		<stop  offset="0" style="stop-color:#000000;stop-opacity:0.5"/>
		<stop  offset="0.3726" style="stop-color:#020202;stop-opacity:0.3137"/>
		<stop  offset="0.5069" style="stop-color:#090909;stop-opacity:0.2466"/>
		<stop  offset="0.6026" style="stop-color:#141414;stop-opacity:0.1987"/>
		<stop  offset="0.68" style="stop-color:#252525;stop-opacity:0.16"/>
		<stop  offset="0.7463" style="stop-color:#3B3B3B;stop-opacity:0.1269"/>
		<stop  offset="0.805" style="stop-color:#575757;stop-opacity:9.751302e-02"/>
		<stop  offset="0.8581" style="stop-color:#777777;stop-opacity:7.094941e-02"/>
		<stop  offset="0.9069" style="stop-color:#9D9D9D;stop-opacity:4.654491e-02"/>
		<stop  offset="0.9523" style="stop-color:#C8C8C8;stop-opacity:2.383813e-02"/>
		<stop  offset="0.9926" style="stop-color:#F6F6F6;stop-opacity:3.690124e-03"/>
		<stop  offset="1" style="stop-color:#FFFFFF;stop-opacity:0"/>
	</radialGradient>
	<ellipse class="st5" cx="209.6" cy="449.3" rx="147.3" ry="12.7"/>
</g>
<g id="freepik--Device--inject-11">
	<rect x="153.4" y="73" class="st6" width="441.5" height="295.3"/>
	<rect x="156.6" y="76.6" class="st7" width="435" height="288.1"/>
	<rect x="95.9" y="390.5" class="st8" width="556.4" height="20.3"/>
	<polygon class="st6" points="95.9,390.5 153.4,368.3 594.9,368.3 652.4,390.5 	"/>
	<polygon class="st7" points="158.6,382.6 195.7,368.3 552.6,368.3 589.8,382.6 	"/>
	<rect x="181.2" y="98.5" class="st1" width="385.9" height="244.3"/>
	<rect x="180.9" y="98.5" class="st9" width="386.2" height="9.4"/>
	<path class="st8" d="M188.4,103.2c0,1.3-1,2.3-2.3,2.3c-1.3,0-2.3-1-2.3-2.3s1-2.3,2.3-2.3c0,0,0,0,0,0
		C187.3,100.9,188.4,101.9,188.4,103.2C188.4,103.2,188.4,103.2,188.4,103.2z"/>
	<path class="st1" d="M197.9,103.2c0,1.3-1,2.3-2.3,2.3c-1.3,0-2.3-1-2.3-2.3s1-2.3,2.3-2.3c0,0,0,0,0,0
		C196.8,100.9,197.9,101.9,197.9,103.2C197.9,103.2,197.9,103.2,197.9,103.2z"/>
	<path class="st3" d="M207.4,103.2c0,1.3-1,2.3-2.3,2.3c-1.3,0-2.3-1-2.3-2.3c0-1.3,1-2.3,2.3-2.3c0,0,0,0,0,0
		C206.4,100.9,207.4,101.9,207.4,103.2L207.4,103.2z"/>
	<rect x="560.2" y="107.9" class="st6" width="6.8" height="234.9"/>
	<path class="st2" d="M563.7,189.4L563.7,189.4c-1,0-1.8-0.8-1.8-1.8c0,0,0,0,0,0v-76.5c0-1,0.8-1.8,1.8-1.8l0,0l0,0
		c1,0,1.8,0.8,1.8,1.8c0,0,0,0,0,0v76.5C565.4,188.6,564.6,189.4,563.7,189.4L563.7,189.4z"/>
	<rect x="292.4" y="122.7" class="st1" width="208" height="7.9"/>
	<path class="st0" d="M500.5,130.7H292.4v-8.1h208.1V130.7z"/>
	<rect x="492.4" y="122.6" class="st3" width="8.1" height="8.1"/>
	<path class="st1" d="M499,128.9l-0.7,0.6l-1.4-1.8l-0.5-0.7c0.1,0,0.2-0.1,0.3-0.2c0.2-0.1,0.3-0.3,0.4-0.5l0.5,0.7L499,128.9z"/>
	<path class="st1" d="M497.5,124.7c-0.7-0.9-1.9-1-2.8-0.3c-0.9,0.7-1,1.9-0.3,2.8c0.6,0.8,1.6,1,2.5,0.5c0.1-0.1,0.2-0.1,0.3-0.2
		c0.2-0.1,0.3-0.3,0.4-0.4C498.1,126.3,498.1,125.4,497.5,124.7z M496.7,126.8c-0.1,0.1-0.2,0.1-0.3,0.2c-0.5,0.2-1.1,0.1-1.4-0.4
		c-0.4-0.5-0.3-1.3,0.2-1.7s1.3-0.3,1.7,0.2c0.3,0.3,0.3,0.8,0.1,1.2C497,126.5,496.8,126.7,496.7,126.8z"/>
	<rect x="294.1" y="124.2" class="st8" width="0.4" height="4.8"/>
	<path class="st3" d="M546.3,130.9c-0.4,0.2-0.8,0.4-1.3,0.5c-2.4,0.6-4.8-0.9-5.4-3.3c-0.6-2.4,0.9-4.8,3.3-5.4s4.8,0.9,5.4,3.3
		C548.8,127.9,548,129.9,546.3,130.9L546.3,130.9z"/>
	<path class="st1" d="M545.3,126.6c0,0.8-0.6,1.4-1.4,1.4s-1.4-0.6-1.4-1.4s0.6-1.4,1.4-1.4l0,0
		C544.7,125.2,545.3,125.8,545.3,126.6z"/>
	<path class="st1" d="M546.3,130.3v0.6c-0.4,0.2-0.8,0.4-1.3,0.5c-1.2,0.3-2.4,0.1-3.4-0.6v-0.6c0-1.3,1.1-2.4,2.4-2.4
		C545.3,128,546.3,129.1,546.3,130.3z"/>
	<path class="st6" d="M530.8,131.6h-3.1v-1.1c0-0.1,0-0.1-0.1-0.1l-0.3-0.2c-0.1,0-0.1,0-0.2,0l-1,0.6l-1.6-2.7l1-0.6
		c0.1,0,0.1-0.1,0.1-0.2c0-0.1,0-0.1,0-0.2s0-0.1,0-0.2c0-0.1,0-0.1-0.1-0.2l-1-0.6l1.6-2.7l1,0.6c0.1,0,0.1,0,0.2,0
		c0.1-0.1,0.2-0.1,0.3-0.2c0.1,0,0.1-0.1,0.1-0.1v-1.1h3.1v1.1c0,0.1,0,0.1,0.1,0.2c0.1,0.1,0.2,0.1,0.3,0.2c0.1,0,0.1,0,0.2,0
		l1-0.6l1.6,2.7l-1,0.6c-0.1,0-0.1,0.1-0.1,0.2c0,0.1,0,0.1,0,0.2s0,0.1,0,0.2c0,0.1,0,0.1,0.1,0.2l1,0.6l-1.6,2.7l-1-0.6
		c-0.1,0-0.1,0-0.2,0l-0.3,0.2c-0.1,0-0.1,0.1-0.1,0.1V131.6z M528.4,130.8h1.6v-0.3c0-0.4,0.2-0.7,0.5-0.8l0.3-0.1
		c0.3-0.2,0.7-0.2,1,0l0.3,0.2l0.8-1.4l-0.3-0.2c-0.3-0.2-0.5-0.5-0.5-0.9V127c0-0.4,0.2-0.7,0.5-0.9l0.3-0.2l-0.8-1.4l-0.3,0.2
		c-0.3,0.2-0.7,0.2-1,0l-0.3-0.2c-0.3-0.2-0.5-0.5-0.5-0.8v-0.3h-1.6v0.3c0,0.4-0.2,0.7-0.5,0.8l-0.3,0.2c-0.3,0.2-0.7,0.2-1,0
		l-0.3-0.2l-0.8,1.4l0.3,0.2c0.3,0.2,0.5,0.5,0.5,0.9v0.3c0,0.4-0.2,0.7-0.5,0.9l-0.3,0.2l0.8,1.4l0.3-0.2c0.3-0.2,0.7-0.2,1,0
		l0.3,0.2c0.3,0.2,0.5,0.5,0.5,0.8L528.4,130.8z M529.2,129.4c-1.3,0-2.3-1-2.3-2.3c0-1.3,1-2.3,2.3-2.3c1.3,0,2.3,1,2.3,2.3
		c0,0,0,0,0,0C531.5,128.3,530.5,129.4,529.2,129.4L529.2,129.4L529.2,129.4z M529.2,125.5c-0.8,0-1.5,0.7-1.5,1.5s0.7,1.5,1.5,1.5
		s1.5-0.7,1.5-1.5C530.8,126.2,530.1,125.5,529.2,125.5C529.2,125.5,529.2,125.5,529.2,125.5L529.2,125.5z"/>
	<rect x="272.1" y="163.2" class="st0" width="288.1" height="16.3"/>
	<rect x="284.9" y="168.9" class="st1" width="4.9" height="4.9"/>
	<polygon class="st1" points="310.7,173.8 305.8,173.8 307.8,171.4 305.8,168.9 310.7,168.9 312.7,171.4 	"/>
	<polygon class="st3" points="298.1,168.9 298.9,170.5 300.6,170.8 299.4,172.1 299.6,173.8 298.1,173 296.5,173.8 296.8,172.1 
		295.5,170.8 297.3,170.5 	"/>
	<rect x="316.2" y="170.4" class="st7" width="39.1" height="2"/>
	<rect x="503.3" y="170.4" class="st7" width="35.5" height="2"/>
	<rect x="367.2" y="170.4" class="st9" width="121.3" height="2"/>
	<rect x="284.9" y="185.3" class="st1" width="4.9" height="4.9"/>
	<path class="st0" d="M290.1,190.4h-5.4V185h5.4V190.4z M285.2,189.9h4.4v-4.4h-4.4V189.9z"/>
	<polygon class="st1" points="310.7,190.2 305.8,190.2 307.8,187.7 305.8,185.3 310.7,185.3 312.7,187.7 	"/>
	<path class="st0" d="M310.8,190.4h-5.5l2.2-2.7l-2.2-2.7h5.5l2.2,2.7L310.8,190.4z M306.3,189.9h4.3l1.8-2.2l-1.8-2.2h-4.3l1.8,2.2
		L306.3,189.9z"/>
	<polygon class="st3" points="298.1,185.3 298.9,186.9 300.6,187.1 299.4,188.4 299.6,190.2 298.1,189.3 296.5,190.2 296.8,188.4 
		295.5,187.1 297.3,186.9 	"/>
	<rect x="316.2" y="186.7" class="st7" width="39.1" height="2"/>
	<rect x="503.3" y="186.7" class="st7" width="35.5" height="2"/>
	<rect x="367.2" y="186.7" class="st9" width="121.3" height="2"/>
	<rect x="272.1" y="195.9" class="st0" width="288.1" height="16.3"/>
	<rect x="284.9" y="201.6" class="st1" width="4.9" height="4.9"/>
	<polygon class="st1" points="310.7,206.5 305.8,206.5 307.8,204 305.8,201.6 310.7,201.6 312.7,204 	"/>
	<polygon class="st1" points="298.1,201.6 298.9,203.2 300.6,203.5 299.4,204.7 299.6,206.5 298.1,205.7 296.5,206.5 296.8,204.7 
		295.5,203.5 297.3,203.2 	"/>
	<rect x="316.2" y="203" class="st6" width="39.1" height="2"/>
	<rect x="503.3" y="203" class="st6" width="35.5" height="2"/>
	<rect x="367.2" y="203" class="st8" width="121.3" height="2"/>
	<rect x="284.9" y="217.9" class="st1" width="4.9" height="4.9"/>
	<path class="st0" d="M290.1,223.1h-5.4v-5.4h5.4V223.1z M285.2,222.6h4.4v-4.4h-4.4V222.6z"/>
	<polygon class="st1" points="310.7,222.8 305.8,222.8 307.8,220.4 305.8,217.9 310.7,217.9 312.7,220.4 	"/>
	<path class="st0" d="M310.8,223.1h-5.5l2.2-2.7l-2.2-2.7h5.5l2.2,2.7L310.8,223.1z M306.3,222.6h4.3l1.8-2.2l-1.8-2.2h-4.3l1.8,2.2
		L306.3,222.6z"/>
	<polygon class="st3" points="298.1,217.9 298.9,219.5 300.6,219.8 299.4,221 299.6,222.8 298.1,222 296.5,222.8 296.8,221 
		295.5,219.8 297.3,219.5 	"/>
	<rect x="316.2" y="219.4" class="st6" width="39.1" height="2"/>
	<rect x="503.3" y="219.4" class="st6" width="35.5" height="2"/>
	<rect x="367.2" y="219.4" class="st8" width="121.3" height="2"/>
	<rect x="272.1" y="228.5" class="st0" width="288.1" height="16.3"/>
	<rect x="284.9" y="234.2" class="st1" width="4.9" height="4.9"/>
	<polygon class="st1" points="310.7,239.2 305.8,239.2 307.8,236.7 305.8,234.2 310.7,234.2 312.7,236.7 	"/>
	<polygon class="st3" points="298.1,234.2 298.9,235.9 300.6,236.1 299.4,237.4 299.6,239.2 298.1,238.3 296.5,239.2 296.8,237.4 
		295.5,236.1 297.3,235.9 	"/>
	<rect x="316.2" y="235.7" class="st6" width="39.1" height="2"/>
	<rect x="503.3" y="235.7" class="st6" width="35.5" height="2"/>
	<rect x="367.2" y="235.7" class="st8" width="121.3" height="2"/>
	<rect x="284.9" y="250.6" class="st1" width="4.9" height="4.9"/>
	<path class="st0" d="M290.1,255.7h-5.4v-5.4h5.4V255.7z M285.2,255.2h4.4v-4.4h-4.4V255.2z"/>
	<polygon class="st1" points="310.7,255.5 305.8,255.5 307.8,253 305.8,250.6 310.7,250.6 312.7,253 	"/>
	<path class="st0" d="M310.8,255.7h-5.5l2.2-2.7l-2.2-2.7h5.5l2.2,2.7L310.8,255.7z M306.3,255.2h4.3l1.8-2.2l-1.8-2.2h-4.3l1.8,2.2
		L306.3,255.2z"/>
	<polygon class="st1" points="298.1,250.6 298.9,252.2 300.6,252.4 299.4,253.7 299.6,255.5 298.1,254.6 296.5,255.5 296.8,253.7 
		295.5,252.4 297.3,252.2 	"/>
	<path class="st0" d="M300,255.9l-1.9-1l-1.9,1l0.4-2.1l-1.6-1.5l2.1-0.3l1-1.9l1,1.9l2.1,0.3l-1.5,1.5L300,255.9z M298.1,254.4
		l1.3,0.7l-0.2-1.4l1-1l-1.4-0.2l-0.6-1.3l-0.6,1.3l-1.4,0.2l1,1l-0.2,1.4L298.1,254.4z"/>
	<rect x="316.2" y="252" class="st6" width="39.1" height="2"/>
	<rect x="503.3" y="252" class="st6" width="35.5" height="2"/>
	<rect x="367.2" y="252" class="st8" width="121.3" height="2"/>
	<rect x="272.1" y="261.2" class="st0" width="288.1" height="16.3"/>
	<rect x="284.9" y="266.9" class="st1" width="4.9" height="4.9"/>
	<polygon class="st1" points="310.7,271.8 305.8,271.8 307.8,269.4 305.8,266.9 310.7,266.9 312.7,269.4 	"/>
	<polygon class="st3" points="298.1,266.9 298.9,268.5 300.6,268.8 299.4,270 299.6,271.8 298.1,271 296.5,271.8 296.8,270 
		295.5,268.8 297.3,268.5 	"/>
	<rect x="316.2" y="268.4" class="st6" width="39.1" height="2"/>
	<rect x="503.3" y="268.4" class="st6" width="35.5" height="2"/>
	<rect x="367.2" y="268.4" class="st8" width="121.3" height="2"/>
	<rect x="284.9" y="283.2" class="st1" width="4.9" height="4.9"/>
	<path class="st0" d="M290.1,288.4h-5.4V283h5.4V288.4z M285.2,287.9h4.4v-4.4h-4.4V287.9z"/>
	<polygon class="st1" points="310.7,288.1 305.8,288.1 307.8,285.7 305.8,283.2 310.7,283.2 312.7,285.7 	"/>
	<path class="st0" d="M310.8,288.4h-5.5l2.2-2.7l-2.2-2.7h5.5l2.2,2.7L310.8,288.4z M306.3,287.9h4.3l1.8-2.2l-1.8-2.2h-4.3l1.8,2.2
		L306.3,287.9z"/>
	<polygon class="st1" points="298.1,283.2 298.9,284.9 300.6,285.1 299.4,286.4 299.6,288.1 298.1,287.3 296.5,288.1 296.8,286.4 
		295.5,285.1 297.3,284.9 	"/>
	<path class="st0" d="M300,288.6l-1.9-1l-1.9,1l0.4-2.1l-1.6-1.5l2.1-0.3l1-2l1,2l2.1,0.3l-1.5,1.5L300,288.6z M298.1,287l1.3,0.7
		l-0.2-1.4l1-1l-1.4-0.2l-0.6-1.3l-0.6,1.3l-1.4,0.2l1,1l-0.2,1.4L298.1,287z"/>
	<rect x="316.2" y="284.7" class="st6" width="39.1" height="2"/>
	<rect x="503.3" y="284.7" class="st6" width="35.5" height="2"/>
	<rect x="367.2" y="284.7" class="st8" width="121.3" height="2"/>
	<rect x="272.1" y="293.9" class="st0" width="288.1" height="16.3"/>
	<rect x="284.9" y="299.6" class="st1" width="4.9" height="4.9"/>
	<polygon class="st1" points="310.7,304.5 305.8,304.5 307.8,302 305.8,299.6 310.7,299.6 312.7,302 	"/>
	<polygon class="st1" points="298.1,299.6 298.9,301.2 300.6,301.4 299.4,302.7 299.6,304.5 298.1,303.6 296.5,304.5 296.8,302.7 
		295.5,301.4 297.3,301.2 	"/>
	<rect x="316.2" y="301" class="st6" width="39.1" height="2"/>
	<rect x="503.3" y="301" class="st6" width="35.5" height="2"/>
	<rect x="367.2" y="301" class="st8" width="121.3" height="2"/>
	<rect x="284.9" y="315.9" class="st1" width="4.9" height="4.9"/>
	<path class="st0" d="M290.1,321h-5.4v-5.4h5.4V321z M285.2,320.5h4.4v-4.4h-4.4V320.5z"/>
	<polygon class="st1" points="310.7,320.8 305.8,320.8 307.8,318.4 305.8,315.9 310.7,315.9 312.7,318.4 	"/>
	<path class="st0" d="M310.8,321h-5.5l2.2-2.7l-2.2-2.7h5.5l2.2,2.7L310.8,321z M306.3,320.5h4.3l1.8-2.2l-1.8-2.2h-4.3l1.8,2.2
		L306.3,320.5z"/>
	<polygon class="st1" points="298.1,315.9 298.9,317.5 300.6,317.8 299.4,319 299.6,320.8 298.1,320 296.5,320.8 296.8,319 
		295.5,317.8 297.3,317.5 	"/>
	<path class="st0" d="M300,321.3l-1.9-1l-1.9,1l0.4-2.1l-1.6-1.5l2.1-0.3l1-2l1,2l2.1,0.3l-1.5,1.5L300,321.3z M298.1,319.7l1.3,0.7
		l-0.2-1.4l1-1l-1.4-0.2l-0.6-1.3l-0.6,1.3l-1.4,0.2l1,1l-0.2,1.4L298.1,319.7z"/>
	<rect x="316.2" y="317.4" class="st6" width="39.1" height="2"/>
	<rect x="503.3" y="317.4" class="st6" width="35.5" height="2"/>
	<rect x="367.2" y="317.4" class="st8" width="121.3" height="2"/>
	<rect x="272.1" y="326.5" class="st0" width="288.1" height="16.3"/>
	<rect x="284.9" y="332.2" class="st1" width="4.9" height="4.9"/>
	<polygon class="st1" points="310.7,337.1 305.8,337.1 307.8,334.7 305.8,332.2 310.7,332.2 312.7,334.7 	"/>
	<polygon class="st3" points="298.1,332.2 298.9,333.8 300.6,334.1 299.4,335.4 299.6,337.1 298.1,336.3 296.5,337.1 296.8,335.4 
		295.5,334.1 297.3,333.8 	"/>
	<rect x="316.2" y="333.7" class="st6" width="39.1" height="2"/>
	<rect x="503.3" y="333.7" class="st6" width="35.5" height="2"/>
	<rect x="367.2" y="333.7" class="st8" width="121.3" height="2"/>
	<rect x="300.7" y="148.5" class="st6" width="54.5" height="5.8"/>
	<rect x="284.9" y="148.5" class="st6" width="7.4" height="5.8"/>
	<path class="st1" d="M292.4,148.5l-0.9,0.9l-0.9,0.9l-1,1l0,0l-0.9,0.8l0,0l0,0l-0.9-0.8l0,0l-1-1l-0.9-0.9l-0.9-0.9
		c0.3,0.3,0.6,0.6,1,0.9l0.9,0.9l1,1l0,0l0.8,0.8l0.8-0.8l0,0l1-1l0.9-0.9C291.7,149.1,292,148.8,292.4,148.5z"/>
	<path class="st1" d="M287.9,151.2L287.9,151.2l-0.1,0.1c-0.2,0.3-0.4,0.5-0.6,0.7l-0.7,0.8l-0.7,0.8c-0.3,0.3-0.5,0.5-0.8,0.7
		c0.2-0.3,0.5-0.6,0.7-0.9s0.5-0.5,0.7-0.8s0.5-0.5,0.7-0.8s0.4-0.4,0.6-0.6L287.9,151.2L287.9,151.2z"/>
	<path class="st1" d="M292.3,154.3c-0.3-0.2-0.5-0.5-0.8-0.7l-0.7-0.8c-0.2-0.3-0.5-0.5-0.7-0.8s-0.4-0.4-0.6-0.7l-0.1-0.2l0,0
		l0.1,0.1c0.2,0.2,0.4,0.4,0.6,0.6s0.5,0.5,0.7,0.8s0.5,0.5,0.7,0.8S292.1,154,292.3,154.3z"/>
	<rect x="392.5" y="148.5" class="st6" width="54.5" height="5.8"/>
	<path class="st6" d="M380.1,150.5c0,0.7-0.6,1.2-1.2,1.2c-0.7,0-1.2-0.6-1.2-1.2c0-0.7,0.6-1.2,1.2-1.2l0,0
		C379.5,149.2,380.1,149.8,380.1,150.5C380.1,150.5,380.1,150.5,380.1,150.5z"/>
	<path class="st6" d="M381,153.9v0.4h-4.3v-0.4c0-1.2,1-2.1,2.1-2.1C380,151.7,381,152.7,381,153.9C381,153.9,381,153.9,381,153.9z"
		/>
	<path class="st6" d="M383.2,149.7c0,0.7-0.5,1.2-1.2,1.2c-0.7,0-1.2-0.5-1.2-1.2s0.5-1.2,1.2-1.2c0,0,0,0,0,0
		C382.7,148.5,383.2,149.1,383.2,149.7L383.2,149.7z"/>
	<path class="st6" d="M384.1,153.1v0.4h-4.3v-0.4c0-1.2,1-2.1,2.1-2.1C383.2,151,384.1,152,384.1,153.1z"/>
	<rect x="484.3" y="148.5" class="st6" width="54.5" height="5.8"/>
	<path class="st6" d="M475.9,148.5h-7.4v5.8h7.4l2.2-2.9L475.9,148.5z M476,151.9c-0.2,0-0.4-0.2-0.4-0.4l0,0c0-0.2,0.2-0.4,0.5-0.4
		c0,0,0,0,0,0c0.2,0,0.4,0.2,0.4,0.4c0,0,0,0,0,0C476.4,151.7,476.2,151.9,476,151.9L476,151.9z"/>
	<rect x="180.9" y="107.9" class="st3" width="91.2" height="234.9"/>
	<rect x="193.7" y="142.7" class="st1" width="65.7" height="17.4"/>
	<rect x="193.7" y="122.6" class="st1" width="9.2" height="1.5"/>
	<rect x="193.7" y="129.2" class="st1" width="9.2" height="1.5"/>
	<rect x="193.7" y="126" class="st1" width="9.2" height="1.5"/>
	<rect x="211.5" y="122.6" class="st0" width="12.7" height="8.1"/>
	<path class="st0" d="M224.3,122.6v8.1h-12.7v-8.1c0.6,0.3,1.1,0.6,1.6,0.9s1.1,0.6,1.6,1l1.8,1.1l0,0l1.3,0.8l1.3-0.8l0,0l1.8-1.1
		c0.5-0.3,1.1-0.7,1.6-1S223.7,122.9,224.3,122.6z"/>
	<path class="st1" d="M224.3,122.6l-1.6,1.1l-1.6,1l-1.6,1.1l0,0l-1.5,0.9h-0.1h-0.1l-1.5-0.9l0,0l-1.6-1.1l-1.6-1l-1.6-1.1
		c0.6,0.3,1.1,0.6,1.6,0.9s1.1,0.6,1.6,1l1.8,1.1l0,0l1.3,0.8l1.3-0.8l0,0l1.8-1.1c0.5-0.3,1.1-0.7,1.6-1S223.7,122.9,224.3,122.6z"
		/>
	<path class="st1" d="M216.6,125.6L216.6,125.6l-0.2,0.2c-0.3,0.3-0.6,0.5-1,0.8s-0.8,0.6-1.2,0.9s-0.8,0.6-1.3,0.8
		s-0.9,0.6-1.3,0.8c0.4-0.3,0.8-0.6,1.2-1s0.8-0.6,1.2-0.9s0.8-0.6,1.3-0.8s0.7-0.4,1-0.6L216.6,125.6L216.6,125.6z"/>
	<path class="st1" d="M224.2,129.1c-0.4-0.2-0.9-0.5-1.3-0.8s-0.9-0.6-1.3-0.8s-0.8-0.6-1.2-0.9s-0.6-0.5-1-0.8l-0.2-0.2l0,0
		l0.3,0.1c0.4,0.2,0.7,0.4,1,0.6s0.9,0.6,1.3,0.8s0.8,0.6,1.2,0.9C223.4,128.5,223.8,128.8,224.2,129.1z"/>
	<rect x="180.9" y="175.3" class="st10" width="91.2" height="12.4"/>
	<rect x="193.7" y="178" class="st1" width="52.9" height="7.3"/>
	<rect x="193.7" y="192.2" class="st1" width="52.9" height="7.3"/>
	<rect x="193.7" y="206.5" class="st1" width="52.9" height="7.3"/>
	<rect x="193.7" y="220.7" class="st1" width="52.9" height="7.3"/>
	<rect x="204.9" y="235" class="st9" width="52.9" height="7.3"/>
	<rect x="204.9" y="249.3" class="st9" width="52.9" height="7.3"/>
	<rect x="193.7" y="263.5" class="st1" width="52.9" height="7.3"/>
	<rect x="193.7" y="277.8" class="st1" width="52.9" height="7.3"/>
</g>
<g id="freepik--paper-plane--inject-11">
	<path class="st7" d="M180.4,268.5c-0.1-0.7-0.1-1.4-0.1-2h0.7c0,0.6,0,1.3,0.1,2H180.4z"/>
	<path class="st7" d="M244.8,316.1v-0.8c1.3,0,2.7,0,4-0.1l0.1,0.8C247.5,316,246.1,316.1,244.8,316.1z M239.8,316
		c-1.3-0.1-2.7-0.2-4-0.4l0.1-0.7c1.3,0.2,2.6,0.3,4,0.4L239.8,316z M253.8,315.5l-0.1-0.8c1.3-0.2,2.6-0.4,3.9-0.7l0.1,0.7
		C256.5,315,255.1,315.3,253.8,315.5L253.8,315.5z M230.8,314.8c-1.3-0.3-2.6-0.6-3.9-0.9l0.2-0.7c1.3,0.3,2.6,0.6,3.9,0.9
		L230.8,314.8z M262.8,313.6l-0.2-0.7c1.3-0.3,2.6-0.7,3.8-1.1l0.2,0.7C265.3,312.9,264,313.3,262.8,313.6L262.8,313.6z M222,312.4
		c-1.3-0.4-2.5-0.9-3.8-1.4l0.3-0.7c1.2,0.5,2.5,1,3.7,1.4L222,312.4z M271.2,310.8l-0.3-0.7c0.6-0.3,1.3-0.5,1.9-0.8
		s1.2-0.5,1.7-0.8l0.3,0.7c-0.6,0.3-1.2,0.5-1.8,0.8L271.2,310.8z M213.6,308.9c-1.2-0.6-2.4-1.2-3.6-1.9l0.4-0.7
		c1.2,0.6,2.3,1.3,3.5,1.9L213.6,308.9z M279.4,306.8l-0.4-0.6c1.1-0.7,2.3-1.4,3.4-2.1l0.4,0.6
		C281.7,305.4,280.5,306.1,279.4,306.8L279.4,306.8z M205.8,304.4c-1.1-0.7-2.2-1.5-3.3-2.3l0.4-0.6c1.1,0.8,2.2,1.6,3.3,2.3
		L205.8,304.4z M286.8,301.6l-0.5-0.6c1-0.8,2-1.7,3-2.6l0.5,0.5C288.9,299.9,287.8,300.8,286.8,301.6L286.8,301.6z M198.6,299
		c-1-0.9-2-1.8-3-2.7l0.5-0.5c1,0.9,1.9,1.8,3,2.7L198.6,299z M293.4,295.5l-0.5-0.5c0.9-1,1.8-2,2.6-3l0.6,0.5
		C295.2,293.5,294.3,294.5,293.4,295.5L293.4,295.5z M192.1,292.6c-0.9-1-1.8-2.1-2.6-3.1l0.6-0.5c0.8,1,1.6,2.1,2.5,3.1
		L192.1,292.6z M299.2,288.5l-0.6-0.5c0.8-1,1.6-2.1,2.4-3.2l0.6,0.4C300.8,286.4,300,287.5,299.2,288.5z M186.6,285.4
		c-0.7-1.1-1.4-2.3-2-3.5l0.7-0.4c0.6,1.1,1.3,2.3,2,3.4L186.6,285.4z M304.4,281.1l-0.6-0.4c0.7-1.1,1.4-2.3,2.1-3.4l0.6,0.4
		C305.8,278.9,305.1,280,304.4,281.1L304.4,281.1z M182.5,277.3c-0.5-1.3-0.9-2.5-1.3-3.9l0.7-0.2c0.3,1.3,0.8,2.5,1.2,3.8
		L182.5,277.3z M309.1,273.4l-0.7-0.4c0.7-1.1,1.3-2.3,2-3.5l0.6,0.4C310.4,271,309.8,272.2,309.1,273.4L309.1,273.4z M313.4,265.4
		l-0.7-0.4c0.6-1.2,1.2-2.4,1.9-3.5l0.7,0.3C314.6,263.1,314,264.3,313.4,265.4L313.4,265.4z M317.5,257.4l-0.7-0.3l1.8-3.6l0.7,0.3
		L317.5,257.4z M321.5,249.4l-0.7-0.3l1.8-3.6l0.7,0.3L321.5,249.4z M325.6,241.4L325,241c0.6-1.2,1.2-2.4,1.8-3.6l0.7,0.4
		L325.6,241.4z M329.8,233.4l-0.7-0.4c0.6-1.2,1.3-2.3,1.9-3.5l0.7,0.4C331.1,231,330.5,232.2,329.8,233.4L329.8,233.4z
		 M334.2,225.5l-0.6-0.4c0.7-1.1,1.3-2.3,2-3.4l0.6,0.4C335.5,223.2,334.9,224.3,334.2,225.5L334.2,225.5z M338.8,217.9l-0.6-0.4
		c0.7-1.1,1.5-2.2,2.2-3.4l0.6,0.4C340.3,215.6,339.6,216.7,338.8,217.9L338.8,217.9z M343.8,210.4l-0.6-0.4
		c0.8-1.1,1.6-2.2,2.4-3.2l0.6,0.4C345.5,208.2,344.7,209.3,343.8,210.4L343.8,210.4z M349.3,203.3l-0.6-0.5c0.9-1,1.7-2.1,2.6-3.1
		l0.6,0.5C351.1,201.2,350.2,202.2,349.3,203.3L349.3,203.3z M355.3,196.6l-0.5-0.5c0.9-1,1.9-1.9,2.8-2.9l0.5,0.5
		C357.2,194.6,356.3,195.5,355.3,196.6L355.3,196.6z M361.7,190.3l-0.5-0.6c1-0.9,2-1.8,3-2.6l0.5,0.6
		C363.8,188.5,362.8,189.4,361.7,190.3L361.7,190.3z M368.6,184.6l-0.5-0.6c1.1-0.8,2.2-1.6,3.3-2.4l0.4,0.6
		C370.9,183,369.8,183.8,368.6,184.6L368.6,184.6z M376,179.5l-0.4-0.6c1.1-0.7,2.3-1.4,3.5-2.1l0.4,0.6
		C378.4,178.1,377.2,178.8,376,179.5L376,179.5z"/>
	<path class="st7" d="M384.1,175l-0.3-0.7c0.6-0.3,1.2-0.6,1.8-0.9l0.3,0.7L384.1,175z"/>
	<polygon class="st3" points="381.8,162.9 375.5,180.1 388.7,169.8 439,151.6 	"/>
	<polygon class="st11" points="381.8,162.9 375.5,180.1 388.7,169.8 439,151.6 	"/>
	<polygon class="st7" points="390.4,173.8 375.5,180.1 388.7,169.8 	"/>
	<polygon class="st3" points="388.7,169.8 439,151.6 397.8,191.9 	"/>
	<polygon class="st3" points="381.8,162.9 360.9,149.4 439,151.6 	"/>
</g>
<g id="freepik--Notification--inject-11">
	
		<ellipse transform="matrix(0.2404 -0.9707 0.9707 0.2404 322.5938 626.967)" class="st2" cx="561.9" cy="107.4" rx="48.8" ry="48.8"/>
	<rect x="528.6" y="86.2" class="st1" width="66.6" height="42.2"/>
	<path class="st6" d="M595.2,86.2c-2.7,2.6-5.4,5-8.1,7.6s-5.5,5-8.2,7.4s-5.8,5.1-8.6,7.6l-0.3,0.2l-7.7,6.7l-0.4,0.3l-0.4-0.3
		l-7.7-6.7l-0.3-0.2c-2.9-2.5-5.8-5-8.6-7.6s-5.5-4.9-8.2-7.4s-5.5-5-8.1-7.6c2.9,2.2,5.7,4.5,8.5,6.8s5.6,4.6,8.4,6.9
		c3.1,2.6,6.2,5.2,9.3,7.9l0,0c2.3,2,4.7,4,7,5.9c2.3-2,4.7-4,7-5.9l0,0c3.1-2.7,6.2-5.3,9.3-7.9c2.8-2.3,5.6-4.6,8.4-6.9
		S592.3,88.4,595.2,86.2z"/>
	<path class="st6" d="M555,108.8L555,108.8l-1.1,1c-1.7,1.4-3.4,2.8-5.1,4.1c-2.1,1.6-4.3,3.2-6.5,4.7s-4.4,3-6.6,4.5
		s-4.5,2.8-6.9,4.1c2-1.8,4.1-3.4,6.2-5s4.3-3.2,6.5-4.7s4.4-3,6.7-4.5c1.8-1.2,3.6-2.3,5.5-3.3L555,108.8L555,108.8z"/>
	<path class="st6" d="M595,127.1c-2.3-1.3-4.6-2.7-6.9-4.1s-4.5-2.9-6.7-4.5s-4.3-3.1-6.5-4.7c-1.7-1.3-3.4-2.7-5.1-4.1l-1.1-0.9
		l-0.1-0.1h0.1l1.3,0.7c1.9,1.1,3.7,2.2,5.5,3.3c2.3,1.4,4.5,2.9,6.6,4.5s4.3,3.1,6.5,4.7S593,125.4,595,127.1z"/>
	
		<ellipse transform="matrix(0.9459 -0.3244 0.3244 0.9459 3.8084 195.3897)" class="st3" cx="587.9" cy="86.3" rx="10.7" ry="10.7"/>
	<path class="st1" d="M586.7,88.6v-8.7c0-0.7,0.5-1.2,1.2-1.2c0.7,0,1.2,0.5,1.2,1.2c0,0,0,0,0,0v8.7c0,0.6-0.5,1.2-1.1,1.2
		c0,0,0,0,0,0C587.3,89.8,586.7,89.3,586.7,88.6C586.7,88.6,586.7,88.6,586.7,88.6z M587.9,93.8c-0.7,0-1.2-0.5-1.2-1.2c0,0,0,0,0,0
		v-0.4c0-0.7,0.5-1.2,1.2-1.2c0.7,0,1.2,0.5,1.2,1.2c0,0,0,0,0,0v0.4C589.1,93.3,588.6,93.8,587.9,93.8
		C587.9,93.8,587.9,93.8,587.9,93.8z"/>
</g>
<g id="freepik--Puff--inject-11">
	<path class="st12" d="M87.5,444.9l144.6,0.6c35.1-27.6,38.8-68.5,13.7-93.3c-15.2-15-34.4-12-52.8-14.4h-0.1
		c-6.5-0.7-12.8-2.5-18.6-5.5c-18.9-10-29.5-33.5-45.4-53.3c-2-2.5-4.1-4.9-6.2-7.2c-13.1-13.9-39.1-14.4-52.7,5.2
		C35.4,327,51.2,401.2,87.5,444.9z"/>
	<path class="st13" d="M84.3,330.8c3.8,59.3,72.3,81.5,115.1,63.7c37.2-15.5,25-50.7-6.4-56.6h-0.1c-6.5-0.7-12.8-2.5-18.6-5.5
		c-18.9-10-29.5-33.5-45.4-53.3C105.2,266.9,81.5,287.4,84.3,330.8z"/>
</g>
<g id="freepik--Character--inject-11">
	<path class="st14" d="M199.2,454.1c-2.1-0.8-50.8-38.5-51.8-41.1c-0.4-1,4.7-8.4,11.1-17.2c1.4-1.9,2.8-3.9,4.3-5.8
		c9.6-12.8,20-26.2,20-26.2l32.6,25.2l-20.9,25.5l-4.6,5.6c0,0,12.2,22.8,12.9,25.8S201.4,454.9,199.2,454.1z"/>
	<path class="st0" d="M168,383.2c-1.7,2.2-3.4,4.6-5.1,6.8c-1.5,2-2.9,3.9-4.3,5.8c-6.4,8.8-11.5,16.2-11.1,17.2
		c0.9,2.6,49.6,40.4,51.8,41.1s4.4-5.3,3.7-8.3S190,420.1,190,420.1l4.6-5.6l4.7-5.7L168,383.2z"/>
	<path class="st3" d="M199.4,454.6c-2.2-0.8-51.5-39.4-52.4-42.1c-0.4-1.2,7.3-12.1,15.8-23.3l32.2,25l-4.7,5.7
		c0,0,12.3,23.3,13,26.3S201.6,455.4,199.4,454.6z"/>
	<path class="st7" d="M200.3,452.1c-8.1-6.7-41.4-32.9-50-38.9c-0.1,0-0.1,0,0,0c7.9,6.8,41.4,32.7,49.9,38.9
		C200.4,452.3,200.4,452.2,200.3,452.1z"/>
	<path class="st7" d="M192.9,419c-2.8-3.2-7.1-5.8-11.4-5.4c-0.2,0-0.1,0.3,0,0.3c3.9,1.4,7.6,3.3,11.1,5.5c0.1,0.1,0.3,0,0.4-0.1
		C192.9,419.2,192.9,419.1,192.9,419z"/>
	<path class="st7" d="M194.1,422.3c-2.8-3.1-7.1-5.8-11.4-5.4c-0.2,0-0.1,0.3,0,0.3c3.9,1.4,7.6,3.3,11.1,5.5c0.1,0.1,0.3,0,0.4-0.1
		C194.2,422.4,194.2,422.3,194.1,422.3z"/>
	<path class="st7" d="M195.4,425.5c-2.8-3.2-7.1-5.8-11.4-5.4c-0.2,0-0.1,0.3,0,0.3c3.9,1.4,7.6,3.3,11.1,5.5c0.1,0.1,0.3,0,0.3-0.2
		C195.4,425.7,195.4,425.6,195.4,425.5z"/>
	<path class="st7" d="M196.6,428.8c-2.8-3.2-7.1-5.8-11.4-5.4c-0.2,0-0.1,0.3,0,0.3c3.9,1.4,7.6,3.3,11.1,5.5c0.1,0.1,0.3,0,0.3-0.2
		C196.6,428.9,196.6,428.8,196.6,428.8z"/>
	<path class="st7" d="M204.8,416.2c0.1-2.8-2.9-3.8-5.1-3.8c-3.9,0.2-7.6,1.4-10.9,3.6c0,0-0.1,0.1,0,0.2c0,0,0,0,0,0
		c-0.2,0.2-0.2,0.5,0,0.7c0,0,0.1,0.1,0.1,0.1c3.5,1.1,7,2.7,10.7,2.7C201.9,419.7,204.7,418.8,204.8,416.2z M194.6,417.5
		c-1.7-0.5-3.4-1.1-5.1-1.5c2.1-0.7,4.2-1.5,6.4-1.9c1.1-0.2,2.1-0.4,3.2-0.5c1.6-0.1,7,1,3.6,4.1
		C200.7,419.4,196.6,418.1,194.6,417.5L194.6,417.5z"/>
	<path class="st7" d="M181.2,408.6c1.8,3.3,4.9,5.6,7.6,8.1c0.2,0.2,0.5,0.1,0.7-0.1c0,0,0.1-0.1,0.1-0.1c0.1,0,0.1,0,0.1-0.1
		c0.3-3.9-0.4-7.7-2.1-11.2c-1-2-3.4-4.1-5.8-2.7S180.1,406.7,181.2,408.6z M181.5,405.1c1.1-4.5,4.6-0.3,5.3,1.2c0.4,1,0.8,2,1.1,3
		c0.6,2.2,1,4.3,1.4,6.5c-1.2-1.3-2.5-2.5-3.8-3.8C184,410.6,180.9,407.6,181.5,405.1z"/>
	<path class="st9" d="M249.1,339c-2.2,17-44,65.9-48.9,71.5l-1.1,1.3l-34.6-26.6l0.4-0.5l30.4-39.9c0,0-50.3,29.4-75.5,16
		c-11.3-6-19.7-16.6-19.7-16.6l32.9-17.5c0,0,9.1,2.9,14.9,2.1c20-2.9,65-20,75.6-19.5C237.4,309.8,251.2,323.4,249.1,339z"/>
	<path class="st7" d="M206.4,330c-1.1,1.3-2.2,2.6-3.1,4c-1.1,1.4-2.2,2.8-3.2,4.2v0c0.2-0.4,0.4-0.8,0.6-1.2c0.7-1.4,1.2-2.9,2-4.2
		c0.1-0.1-0.1-0.2-0.1-0.1c-0.8,1.3-1.8,2.6-2.5,4c-0.3,0.7-0.6,1.3-0.9,2c-0.2,0.4-0.3,0.8-0.5,1.1c-0.1,0.2-0.1,0.4-0.2,0.5
		c-0.5,0.6-1,1.3-1.4,2c-1,1.5-1.9,3.1-3,4.5c-0.1,0.1,0.1,0.1,0.1,0.1c1-1.4,2.2-2.7,3.3-4s2.1-2.8,3.1-4.3l3-4.3
		c1.1-1.4,2.1-2.9,3-4.4C206.5,330,206.4,330,206.4,330z"/>
	<path class="st7" d="M202.7,403.6c-1.9-1.8-3.9-3.4-5.9-5s-4-3.3-6.1-4.9c-4.1-3.3-8.1-6.5-12.2-9.7c-2.3-1.8-4.5-3.5-6.9-5.1
		c0,0-0.1,0-0.2,0s0,0.1,0,0.2c3.8,3.5,7.9,6.7,12,9.9s8.1,6.5,12.3,9.7c2.3,1.7,4.5,3.5,6.8,5.1
		C202.7,403.8,202.8,403.6,202.7,403.6z"/>
	<path class="st7" d="M88.4,267.2c-1.3,1-1.5,2.9-0.4,4.2c0.6,0.8,1.6,1.2,2.6,1.1c-0.1,0.4-0.1,0.8,0,1.3c0.4,1.6,1.9,2.7,3.6,2.5
		c-0.1,0.3-0.1,0.7,0,1c0.4,1.6,1.9,2.6,3.5,2.2c0.7-0.2,1.2-0.5,1.7-1.1c0.5,1.5,2,2.3,3.5,2c0.4-0.1,0.8-0.3,1.1-0.5
		c0,0.1,0,0.2,0,0.3c0.4,1.6,2,2.6,3.6,2.2c0.9-0.2,1.7-0.9,2.1-1.8c0.6,1.3,2,2,3.3,1.6c1-0.2,1.9-1,2.2-2.1
		c0.7,0.3,1.4,0.4,2.2,0.2c0.8-0.2,1.6-0.7,2-1.5c1.5,1,3.5,0.5,4.5-1c0.3-0.5,0.5-1,0.5-1.6c0.4,0.1,0.8,0.1,1.2,0
		c1.4-0.3,2.4-1.7,2.3-3.2c0.5,0.1,1,0.1,1.4,0c1.7-0.4,2.8-2.1,2.5-3.9c0,0,0,0,0,0c-0.1-0.4-0.2-0.7-0.4-1c0.2,0,0.4,0,0.5-0.1
		c1.6-0.4,2.6-2,2.2-3.5c-0.1-0.5-0.4-1-0.8-1.4c1.6-0.5,2.5-2.2,2.1-3.8c-0.1-0.6-0.4-1.1-0.9-1.6c1.1-0.8,1.7-2.1,1.4-3.5
		c-0.2-1-0.9-1.8-1.8-2.2c0.5-0.7,0.6-1.5,0.4-2.3c-0.2-0.8-0.7-1.5-1.5-1.9c1.2-1.4,1-3.4-0.4-4.6c-0.5-0.4-1.2-0.7-1.9-0.8
		c0.1-0.5,0.1-0.9,0-1.4c-0.3-1.4-1.7-2.4-3.2-2.3c0.1-0.5,0.1-0.9,0-1.4c-0.4-1.7-2.1-2.8-3.9-2.4c-0.2,0.1-0.5,0.1-0.7,0.3
		c0-0.2,0-0.3-0.1-0.5c-0.4-1.7-2.1-2.8-3.9-2.4c-0.3,0.1-0.5,0.1-0.8,0.3c0-0.3,0-0.6-0.1-0.9c-0.4-1.8-2.2-2.8-3.9-2.4
		c-0.9,0.2-1.6,0.8-2.1,1.5c-1.2-1.3-3.3-1.4-4.6-0.1c-0.2,0.2-0.4,0.4-0.5,0.6c-0.8-1.4-2.7-1.9-4.1-1.1c-0.6,0.3-1.1,0.9-1.3,1.6
		c-1.3-1-3.2-0.7-4.2,0.7c-0.3,0.4-0.5,0.9-0.5,1.4c-0.8-0.5-1.7-0.7-2.6-0.5c-1.4,0.4-2.4,1.7-2.3,3.2c-0.4-0.1-0.7-0.1-1.1,0
		c-1.6,0.4-2.6,2-2.2,3.6c0.1,0.4,0.2,0.7,0.4,1h-0.2c-1.8,0.4-2.8,2.2-2.4,3.9c0.1,0.3,0.2,0.6,0.3,0.9c-0.3,0-0.6,0-0.8,0.1
		c-1.6,0.4-2.6,2-2.2,3.6c0.2,0.8,0.7,1.4,1.3,1.9c-1.2,1.1-1.3,2.9-0.2,4.2c0.2,0.2,0.4,0.4,0.6,0.5c-1.6,0.9-2.1,2.9-1.2,4.4
		c0.5,0.9,1.4,1.5,2.5,1.6c-0.7,0.7-1,1.8-0.8,2.8C86.2,266.1,87.2,267,88.4,267.2z"/>
	<path class="st14" d="M115.6,292.6c6.2,8.8,27.3,31.8,41.8,35.1c8,1.8,46.9,7.3,52.2,2.4c6.2-5.7,3.4-27.1-1.6-27.3
		c-15.1-0.6-43.1,2.4-50.1,0.8c-3.2-0.7-19.9-11.5-37.8-20.2C113.3,280.2,111.7,286.9,115.6,292.6z"/>
	<path class="st3" d="M199.8,301.7l-2.6,32c0,0-35.3-0.6-45.9-6.5s-28-21.2-34.6-31.9s-4.4-16.4,8.5-9.9s30.4,17,32.7,17.5
		S199.8,301.7,199.8,301.7z"/>
	<path class="st7" d="M192.8,303.9c0-0.1-0.1-0.1-0.1,0c-0.4,2.2-0.6,4.5-0.9,6.7s-0.5,4.6-0.7,6.9c-0.4,4.6-0.9,9.2-1,13.9
		c0,0.2,0.3,0.2,0.3,0c0.7-4.5,1.1-9.1,1.5-13.7c0.2-2.3,0.4-4.5,0.6-6.8S192.8,306.2,192.8,303.9z"/>
	<path class="st1" d="M145,296.1c-3.3,6.3-7,12.3-11.2,18c-0.1-0.1-0.3-0.2-0.4-0.3c4.1-5.7,7.9-11.7,11.1-17.9
		C144.7,295.9,144.9,296,145,296.1z"/>
	<path class="st1" d="M149.2,298.4c-3.4,6.6-7.3,12.9-11.6,18.9l-0.4-0.3c4.3-6,8.2-12.3,11.6-18.8L149.2,298.4z"/>
	<path class="st10" d="M166,331.2c-6-1-11.5-2.3-14.7-4.1c-10.6-6-28-21.2-34.6-31.9c-5.1-8.1-5-13.4,1.1-12.5L166,331.2z"/>
	<path class="st3" d="M84.4,351.9c1.9,0.6,56.9-15.3,56.9-15.3l-6.5-19.1c0,0,3.2-6.1,1.7-12c-2-7.9-16.6-20.9-17.7-21.6
		c-4.6-3-8.9-3-12.7-1C90.2,291.4,84.4,351.9,84.4,351.9z"/>
	<path class="st1" d="M133.8,299.9c-14.2,7-33.8,9.6-42.1,10.5c0-0.2,0.1-0.3,0.1-0.5c8.3-0.9,27.6-3.5,41.7-10.4L133.8,299.9z"/>
	<path class="st1" d="M136,303.9c-15.1,8.2-37.9,11-45.6,11.7c0-0.2,0.1-0.3,0.1-0.5c7.8-0.8,30.3-3.5,45.2-11.7
		C135.9,303.5,136,303.7,136,303.9z"/>
	<path class="st7" d="M126.4,290.8c1.4,1.6,2.9,3.2,4.4,4.8c-0.7-1.2-1.4-2.4-2.1-3.6l0,0c1.1,1.4,2,2.9,2.8,4.4
		c1.1,1.2,2.1,2.5,3,3.9c1.1,1.6,2,3.4,2.5,5.3c0.5,1.9,0.5,3.9,0.2,5.9c-0.4,2.2-1,4.4-1.9,6.6c-0.1,0.3-0.5,0.1-0.4-0.2
		c1-3.7,2.2-7.7,1.4-11.5s-3.2-7.1-5.6-10.2c-1.4-1.9-2.9-3.7-4.5-5.3C126.2,290.8,126.3,290.7,126.4,290.8z"/>
	<path class="st14" d="M98.9,296.2c-4.4,25.1-0.8,44,3.4,46.3c11.5,6.3,33.6-4.8,41.3-7.3c3.1-1,0.1-27.1-3.3-26.4
		c-8.5,1.7-23.7,10.6-24.2,10.5c-0.8-0.1-1.8-6.5-6.2-25.1C106.4,279.2,100.7,286,98.9,296.2z"/>
	<path class="st14" d="M137.1,309.7c0,0,16.1-6.7,29.1-6.1c4.4,0.2,22.4,5.8,21.2,10.2c-1.1,4-15.9-2.5-15.9-2.5s15.6,5.2,13.4,9.8
		s-18-5-18-5s15.9,5.7,12.9,10c-2.3,3.3-17.1-4.6-17.1-4.6s13.6,5,11.4,8.5c-2.4,3.8-16.5-2.5-16.5-2.5c-7,7.9-13.5,8.8-18.3,8.9
		C138.3,336.3,137.1,309.7,137.1,309.7z"/>
	<path class="st7" d="M166.2,309.2c1.9,0.5,3.7,1.1,5.5,1.8s3.6,1.5,5.3,2.4c2.3,1.1,4.4,2.4,6.4,4c-3.7-2.5-10.1-5.2-11.9-5.9
		S168,309.9,166.2,309.2C166.1,309.2,166.2,309.1,166.2,309.2z"/>
	<path class="st7" d="M163.5,315.6c2.3,0.8,4.7,1.5,7,2.4s4.4,2,6.6,3c0.2,0.1,0.1,0.1-0.1,0.1c-2.3-1-4.4-1.7-6.7-2.6
		S165.8,316.5,163.5,315.6C163.5,315.6,163.5,315.6,163.5,315.6z"/>
	<path class="st7" d="M160.2,320.7c3.6,1.1,7.1,2.7,10.4,4.5c0.2,0.1,0,0.1-0.1,0.1c-3.4-1.6-6.1-2.8-10.3-4.5
		C160.1,320.8,160.2,320.7,160.2,320.7z"/>
	<path class="st3" d="M133.9,309.8l13.2,28.2c0,0-40.9,11.9-46.4,4.8s-5.2-29.8-2.6-45.4s9.6-15.9,12.7-1.8s4.9,23,5.4,23
		S133.9,309.8,133.9,309.8z"/>
	<path class="st1" d="M114.3,311.5c-5.7,3.8-11.7,7-18,9.7v-0.5c6.2-2.7,12.2-5.9,17.9-9.7C114.2,311.2,114.2,311.3,114.3,311.5z"/>
	<path class="st1" d="M115.4,316.4c-6,4-12.4,7.4-19,10.1V326c6.6-2.8,12.9-6.2,18.8-10.1C115.3,316,115.4,316.2,115.4,316.4z"/>
	<path class="st7" d="M128.6,313.6c0-0.1-0.2,0-0.1,0c0.7,2.1,1.7,4.2,2.6,6.2s1.9,4.2,2.9,6.3c2,4.2,3.9,8.4,6.1,12.5
		c0.1,0.1,0.1,0.1,0.2,0c0,0,0.1-0.1,0-0.2c-1.7-4.3-3.7-8.4-5.6-12.6c-1-2.1-1.9-4.1-2.9-6.2S129.8,315.6,128.6,313.6z"/>
	<path class="st7" d="M125.5,343.2c-1.2,0.1-2.3,0.3-3.4,0.6c-1.2,0.2-2.4,0.4-3.6,0.6c-2.3,0.3-4.7,0.5-7,0.6
		c-2.3,0.1-7.9-0.3-9.7-1.9c-1.4-1.4-2.5-3.2-3-5.1c-0.6-2.6-1.1-5.3-1.4-8c-0.6-5.7-0.8-11.5-0.4-17.3c0.1-1.6,0.2-3.2,0.3-4.8
		s0.3-3.3,0.4-4.9c0,0,0,0-0.1,0c0,0,0,0,0,0c-0.5,2.6-0.9,5.2-1.1,7.9c-0.1-1.6-0.3-3.3-0.3-4.9c0-0.1-0.2-0.1-0.2,0
		c0,1.7-0.1,3.5,0,5.2c0,1,0.1,2,0.3,2.9c-0.1,2.2-0.2,4.4-0.2,6.6c-0.1,5.8,0.6,11.6,2,17.3c0.7,2.5,1.7,4.8,4,6.1
		c1.7,0.8,3.5,1.3,5.4,1.4c3.9,0.3,7.9,0,11.8-0.8c1.1-0.2,2.2-0.4,3.3-0.7c1.1-0.2,2.1-0.4,3.1-0.9
		C125.6,343.3,125.6,343.2,125.5,343.2C125.6,343.2,125.5,343.2,125.5,343.2L125.5,343.2z"/>
	<polygon class="st7" points="134.4,310 134.4,310 134.4,310 	"/>
	<path class="st7" d="M133.9,309.3c-3,1.5-6,3-9,4.5l-4.4,2.3c-1.4,0.7-4.1,2.2-4.1,2.2c0-0.7-0.6-2.6-0.8-3.9s-0.6-2.8-1-4.1
		c-0.1-0.4-0.2-0.7-0.3-1.1l-0.2-2c-0.1-1.1-0.2-2.1-0.4-3.2c0,0-0.1,0-0.1,0c-0.1,1-0.1,2,0,3c-0.5-1.7-0.9-3.3-1.4-5 M112.1,302
		c0.5,2.8,1.1,5.6,1.8,8.4c0.3,1.4,0.7,2.7,1,4c0.3,1.4,0.7,2.9,1.2,4.3c1.5-0.6,3-1.3,4.5-2c1.5-0.7,3.1-1.5,4.6-2.3
		c2.9-1.5,5.9-3,8.8-4.7c0,0,0.4,0.9,0.5,1s0.2-0.1,0.1-0.2c-0.2-0.4-0.4-0.8-0.6-1.2L112.1,302z"/>
	<polygon class="st7" points="134.4,310 134.4,310 134.4,310 	"/>
	<rect x="136" y="330" class="st8" width="58.3" height="2.6"/>
	<polygon class="st2" points="148.5,330 146.5,332.6 194.3,332.6 194.3,330 	"/>
	<polygon class="st8" points="151,332.6 207.8,332.6 212.5,294 155.7,294 	"/>
	<path class="st1" d="M178.3,313.3c0,1.9,1.4,3.4,3.3,3.5c0,0,0.1,0,0.1,0c1.9,0,3.5-1.5,3.5-3.5c0-1.9-1.4-3.4-3.3-3.5
		c0,0-0.1,0-0.1,0C179.9,309.8,178.3,311.4,178.3,313.3z"/>
	<path class="st14" d="M212.1,297.7c2.1,3.3,7.4,7.2,8.1,10c0.4,1.4-0.1,2.9-1.4,3.8c0,0,3.1,1.1,3.3,3.7c0.1,1.4-2,2.8-2,2.8
		c1.4,0.6,2.3,1.9,2.5,3.4c0,1.9-2.1,3-2.1,3s1.9,2,1.3,4c-1.2,4-17.4,6.1-20.7,0.5c-1.6-2.6,2.5-3,2.5-3s-5.9-1-6.4-4.3
		s4.7-3.4,4.7-3.4s-5.7-1-5.9-4.5c-0.2-3.7,5-2.9,5-2.9s-3.9-2-3.5-4.7c0.8-4.5,10,0.3,13.5-1L212.1,297.7z"/>
	<path class="st7" d="M220.3,324.7c-5.4,2.1-11.3,2.5-16.9,1.2c-0.2,0-0.2-0.4,0-0.3C209,326.1,214.7,325.8,220.3,324.7L220.3,324.7
		z"/>
	<path class="st7" d="M220.3,318c0.1,0,0.1,0.1,0,0.1c-5.9,2.3-12.5,2.3-18.5,0.2c-0.2-0.1-0.3-0.4-0.1-0.3
		C205.8,319.3,215.1,319.2,220.3,318z"/>
	<path class="st7" d="M200.7,310.5c5.9,2,11.8,2,17.9,1.1c0.1,0,0.1,0.1,0,0.1c-2.9,1.3-6.8,1.4-9.9,1.3c-2.9-0.1-5.7-0.9-8.1-2.3
		C200.6,310.6,200.6,310.5,200.7,310.5z"/>
	<path class="st14" d="M103.4,284.9c0,0,9.7,8.2,15.9,6.7s2.4-7.8,2.4-7.8s-5.6-3.4-11.7-2.6C107.5,281.5,105.1,282.9,103.4,284.9z"
		/>
	<path class="st14" d="M108.4,283.4c0.2,1,4.9,7.5,9.4,7.4c1.5,0,1.6-8.1,1.6-8.1l0.1-0.6l2-8.3l-11.2-7.3
		C110.4,266.4,108.4,283,108.4,283.4z"/>
	<path class="st7" d="M121.6,273.7l-2,8.3c-4.5-1.8-8.1-5.4-9.8-10c0.3-2.9,0.6-5.3,0.7-5.6c0,0,0,0,0,0l1.4,0.9L121.6,273.7z"/>
	<path class="st14" d="M133.5,261.6c0.3,15-8.7,16.9-11.9,17c-3,0.1-13-0.1-14.8-15c-1.8-14.9,5-19.8,11.8-20.3
		S133.2,246.5,133.5,261.6z"/>
	<path class="st7" d="M131.2,259.2c-0.3-0.1-0.7-0.2-1-0.3c-0.4,0-0.7-0.2-1-0.5c-0.1-0.2-0.1-0.5,0-0.6c0.4-0.3,0.9-0.4,1.3-0.2
		c0.5,0.1,0.9,0.4,1.2,0.8c0.2,0.3,0.1,0.6-0.2,0.8C131.5,259.2,131.3,259.2,131.2,259.2z"/>
	<path class="st7" d="M121,260c0.3,0,0.7-0.1,1-0.2c0.4,0,0.7-0.1,1-0.4c0.1-0.2,0.1-0.5,0-0.6c-0.3-0.3-0.8-0.5-1.3-0.4
		c-0.5,0-0.9,0.3-1.3,0.6c-0.2,0.2-0.2,0.6,0.1,0.8C120.6,260,120.8,260,121,260z"/>
	<path class="st7" d="M123,262.3C123,262.3,122.9,262.3,123,262.3c-0.1,1.1-0.2,2.3-1.2,2.6c0,0,0,0.1,0,0
		C122.9,264.8,123.1,263.3,123,262.3z"/>
	<path class="st7" d="M122.1,261.2c-1.6-0.2-1.9,3.1-0.3,3.3S123.5,261.4,122.1,261.2z"/>
	<path class="st7" d="M121.4,261.3c-0.3,0.2-0.6,0.5-1,0.5s-0.7-0.4-0.9-0.7h-0.1c0,0.6,0.2,1.3,0.8,1.4s1.1-0.4,1.3-1
		C121.6,261.5,121.5,261.3,121.4,261.3z"/>
	<path class="st7" d="M128.9,262.4C128.9,262.4,129,262.4,128.9,262.4c0,1.1,0.1,2.3,0.9,2.7c0,0,0,0.1,0,0.1
		C128.7,264.9,128.6,263.3,128.9,262.4z"/>
	<path class="st7" d="M129.9,261.4c1.7,0,1.5,3.3,0,3.3S128.5,261.4,129.9,261.4z"/>
	<path class="st7" d="M130.6,261.6c0.3,0.2,0.5,0.5,0.8,0.5s0.6-0.3,0.9-0.6h0.1c0,0.6-0.2,1.3-0.8,1.4s-1-0.5-1.1-1.1
		C130.4,261.7,130.5,261.5,130.6,261.6z"/>
	<path class="st7" d="M122.3,271.4c0.2,0.3,0.4,0.6,0.8,0.7c0.4,0,0.8,0,1.1-0.1c0,0,0.1,0,0,0c-0.3,0.4-0.9,0.5-1.4,0.4
		c-0.4-0.2-0.7-0.6-0.7-1C122.1,271.3,122.2,271.3,122.3,271.4z"/>
	<path class="st7" d="M126.9,267.7c0,0,0.1,1.5,0,2.3c0,0.1-0.2,0.1-0.4,0.1l0,0c-1.3,0.1-2.5-0.5-3.2-1.5c0-0.1,0-0.1,0.1-0.1
		c0.9,0.7,1.9,1.1,3,1.1c0.1-0.2-0.2-2.6-0.1-2.6c0.6,0.1,1.1,0.3,1.6,0.5c-0.1-3.2-0.7-6.4-0.7-9.6c0-0.1,0.1-0.1,0.1-0.1
		c0,0,0.1,0,0.1,0.1c0.7,3.4,1.2,6.8,1.2,10.3C128.6,268.5,127.2,267.8,126.9,267.7z"/>
	<path class="st7" d="M126.5,269.7c-0.4,0.6-1,1-1.7,1.3c-0.4,0.2-0.8,0.2-1.2,0.1c-0.8-0.2-0.9-1-0.7-1.6c0.1-0.3,0.2-0.7,0.3-1
		C124.2,269.3,125.3,269.7,126.5,269.7z"/>
	<path class="st15" d="M124.8,271.1c-0.4,0.2-0.8,0.2-1.2,0.1c-0.8-0.2-0.9-1-0.7-1.6C123.9,269.6,124.6,270.2,124.8,271.1z"/>
	<path class="st7" d="M107.9,262.9c1.6-0.1,5.7-4.5,5.8-12.2c0,0-0.6,6.9-1.1,7.9s2.3-2.5,2.5-8.7c2,1.4,4.1,2.5,6.4,3.3
		c2.9,0.8,4.7,0.8,4.9,0.6s-4.1-1.6-5.3-2.9c0,0,7.8,3.6,11.4,3.9c0.4,0,0.3-7.4-5.3-11s-13.8-0.8-16.1,1.5c0,0-1.7,0.8-4.7,4.9
		S106.2,263,107.9,262.9z"/>
	<path class="st3" d="M107.6,266.5c0.8,2.1-5.2-7.4-5.3-8.9c-0.1-1.6,2-9.4,8.1-13.4c5.1-3.3,12-2.1,13.2-1.9
		c1.3,0.2,2.6,0.7,3.7,1.5c0,0-9-1.5-16.1,1.5C107.7,246.7,104.8,258.6,107.6,266.5z"/>
	<path class="st3" d="M107.6,243.8c0,0,1.2-4.8,5.1-6.5c0,0,1.1,4.1,0.1,5.8c-0.5,0.9-3.6,2.2-4.1,1.8
		C108.3,244.6,107.9,244.2,107.6,243.8z"/>
	<path class="st16" d="M107.6,243.8c0.3,0.4,0.7,0.7,1.1,1.1c0,0,0.1,0,0.1,0c0,0,0.1,0,0.1,0h0.1c0.6,0,1.2-0.2,1.8-0.5
		c-0.3-0.6-0.6-1.1-1-1.6c-0.4-0.4-1-0.6-1.6-0.7C108,242.6,107.7,243.2,107.6,243.8z"/>
	<path class="st3" d="M106.8,244.7c0,0-5.9,0.9-8.2,3c1.4,1.4,3.4,2.3,5.5,2.3c1.4-0.1,4.3-3.6,3.9-4.1
		C107.6,245.4,107.2,245,106.8,244.7z"/>
	<path class="st16" d="M105.4,244.9c0,0.7,0.3,1.3,0.7,1.8c0.3,0.3,0.6,0.5,1,0.7c0.6-0.7,0.9-1.4,0.8-1.6c-0.3-0.4-0.7-0.8-1.2-1.1
		C106.7,244.7,106.2,244.7,105.4,244.9z"/>
	<path class="st3" d="M106.6,246.1c0.8,0.8,2,0.8,2.7,0c0.8-0.8,0.8-2,0-2.7s-2-0.8-2.7,0c0,0,0,0,0,0
		C105.8,244.1,105.8,245.4,106.6,246.1C106.6,246.1,106.6,246.1,106.6,246.1z"/>
	<path class="st14" d="M109.2,264.6c0,0-3-4.9-5.2-3.9s-0.2,8,2.3,9.1c1.2,0.7,2.8,0.2,3.5-1.1c0,0,0-0.1,0-0.1L109.2,264.6z"/>
	<path class="st7" d="M104.6,262.7C104.6,262.7,104.6,262.8,104.6,262.7c1.7,0.9,2.5,2.6,3.1,4.3c-0.3-0.7-1.2-1-1.9-0.6
		c-0.1,0-0.1,0.1-0.2,0.1c0,0,0,0.1,0,0.1c0.6-0.2,1.3,0.1,1.7,0.7c0.3,0.5,0.5,0.9,0.7,1.5c0.1,0.2,0.4,0.1,0.3-0.1l0,0
		C108.5,266.4,107,263.1,104.6,262.7z"/>
	<path class="st14" d="M324.5,410.4c-0.8,2.1-39.4,50.1-42,51c-1,0.3-8.3-4.9-17-11.4c-1.9-1.4-3.8-2.9-5.7-4.4
		c-12.6-9.7-25.8-20.4-25.8-20.4l25.7-32.2l25.1,21.3l5.5,4.7c0,0,23-11.8,26-12.4S325.3,408.3,324.5,410.4z"/>
	<path class="st0" d="M253,440.4c2.2,1.7,4.5,3.5,6.8,5.3c2,1.5,3.9,3,5.7,4.4c8.7,6.5,16,11.8,17,11.4c2.6-0.9,41.2-48.9,42-51
		s-5.2-4.5-8.2-3.9s-26,12.5-26,12.5l-5.5-4.7l-5.6-4.8L253,440.4z"/>
	<path class="st3" d="M325,410.2c-0.8,2.2-40.3,50.8-43,51.7c-1.2,0.4-11.9-7.5-23-16.2l25.6-31.7l5.6,4.8c0,0,23.5-11.9,26.5-12.5
		S325.8,408.1,325,410.2z"/>
	<path class="st7" d="M322.5,409.3c-6.8,8-33.6,40.9-39.7,49.3c0,0.1,0,0.1,0,0c6.9-7.8,33.4-40.9,39.8-49.2
		C322.7,409.3,322.6,409.2,322.5,409.3z"/>
	<path class="st7" d="M289.3,416.2c-3.2,2.7-5.9,7-5.6,11.4c0,0.2,0.3,0.1,0.3,0c1.5-3.9,3.4-7.5,5.7-11c0.1-0.1,0.1-0.3,0-0.4
		S289.4,416.1,289.3,416.2z"/>
	<path class="st7" d="M292.5,415c-3.2,2.7-5.9,7-5.6,11.4c0,0.2,0.3,0.1,0.3,0c1.5-3.9,3.4-7.5,5.7-11c0.1-0.1,0-0.3-0.1-0.4
		C292.8,414.9,292.6,414.9,292.5,415z"/>
	<path class="st7" d="M295.8,413.8c-3.2,2.7-5.9,7-5.6,11.4c0,0.2,0.2,0.1,0.3,0c1.5-3.9,3.4-7.5,5.7-11c0.1-0.1,0.1-0.3,0-0.4
		S295.9,413.7,295.8,413.8z"/>
	<path class="st7" d="M299.1,412.6c-3.2,2.7-5.9,7-5.6,11.4c0,0.2,0.3,0.1,0.3,0c1.5-3.9,3.4-7.5,5.7-11c0.1-0.1,0-0.3-0.1-0.4
		C299.3,412.5,299.2,412.6,299.1,412.6z"/>
	<path class="st7" d="M286.7,404.2c-2.8-0.1-3.9,2.8-3.9,5.1c0.1,3.9,1.3,7.6,3.3,10.9c0,0,0.1,0.1,0.1,0c0,0,0,0,0,0
		c0.2,0.2,0.5,0.2,0.7,0c0,0,0.1-0.1,0.1-0.1c1.2-3.5,2.9-7,2.9-10.7C290.1,407.2,289.3,404.4,286.7,404.2z M287.9,414.5
		c-0.5,1.7-1.1,3.4-1.6,5.1c-0.7-2.1-1.3-4.3-1.8-6.4c-0.2-1-0.3-2.1-0.4-3.2c-0.1-1.7,1.1-6.9,4.2-3.5
		C289.8,408.3,288.5,412.4,287.9,414.5z"/>
	<path class="st7" d="M278.7,427.7c3.3-1.7,5.7-4.8,8.2-7.4c0.2-0.2,0.2-0.5-0.1-0.7c0,0-0.1-0.1-0.1-0.1c0-0.1,0-0.1-0.1-0.1
		c-3.9-0.4-7.7,0.3-11.3,1.9c-2,1-4.2,3.3-2.8,5.7S276.8,428.7,278.7,427.7z M275.2,427.3c-4.4-1.2-0.3-4.7,1.3-5.3
		c1-0.4,2-0.7,3.1-1c2.2-0.5,4.3-1,6.5-1.3c-1.3,1.2-2.5,2.5-3.8,3.7C280.7,424.9,277.7,427.9,275.2,427.3z"/>
	<path class="st9" d="M283.4,409.4L256.4,446l-91.4-63.5l-8.8-6.1c0,0-2.5,1.7-6.3,3.8c-5.2,2.9-12.9,6.5-19.6,7.5
		c-11.3,1.7-30.3,1.5-39.9-11.3c-8.1-10.8-3.7-24.8-3.7-24.8l12.5-5.4c0,0,29.5-24.6,48.6-25.3c8.1-0.3,19.9,5.8,30.9,12.3
		S283.4,409.4,283.4,409.4z"/>
	<path class="st7" d="M156.1,376.4c0,0-2.5,1.7-6.3,3.8c-6.6-8-20.7-22.4-21.1-22.9L156.1,376.4z"/>
	<path class="st7" d="M109.9,338c-1.8,1.2-3.5,2.5-5.2,3.8s-3.5,2.4-5.1,3.8s-3.2,2.8-4.8,4.3c-0.8,0.7-1.5,1.4-2.2,2.2
		c-0.8,0.7-1.5,1.5-2.1,2.3c-0.1,0.1,0,0.2,0.1,0.1c0.8-0.6,1.6-1.2,2.4-1.9l2.5-2.1c1.6-1.3,3.2-2.6,4.8-4s3-2.8,4.6-4.2
		S108.3,339.4,109.9,338C110,338,110,338,109.9,338z"/>
	<path class="st7" d="M277.1,408.1c-1.8,1.9-3.4,3.9-5,5.9s-3.3,4-4.9,6.1c-3.3,4.1-6.5,8.1-9.7,12.2c-1.8,2.3-3.5,4.5-5.1,6.9
		c-0.1,0.1,0.1,0.2,0.2,0.1c3.5-3.9,6.7-8,9.9-12s6.5-8.1,9.7-12.3c1.7-2.3,3.5-4.5,5.1-6.8C277.3,408.1,277.2,408,277.1,408.1z"/>
	<path class="st7" d="M202.1,408.5c-4.6-3.6-9.3-7-14-10.3s-9.4-6.7-14.1-10c-1.4-0.9-2.8-1.8-4.1-2.8s-2.8-1.8-4.2-2.7
		c-0.1-0.1-0.1,0.1-0.1,0.1c1.2,0.9,2.4,1.9,3.6,2.8s2.3,1.8,3.5,2.6c2.3,1.7,4.6,3.4,6.9,5c4.7,3.4,9.4,6.7,14.1,10
		c2.7,1.9,5.4,3.7,8.1,5.5C202,408.9,202.2,408.6,202.1,408.5z"/>
	<path class="st7" d="M231.3,370.8c-4.2-3.5-8.7-6.6-13.1-9.8s-8.9-6.5-13.4-9.8l-13.3-9.6c-4.3-3.1-8.6-6.3-13.1-9
		c-2.5-1.5-5-2.9-7.7-4.2c-2.5-1.3-5.2-2.4-7.9-3.2c-0.1,0-0.1,0.1-0.1,0.1c2.2,1.3,4.6,2.3,6.9,3.5s4.4,2.5,6.6,3.8
		c4.5,2.7,8.8,5.8,13,8.9c8.9,6.4,17.8,12.8,26.7,19.1c5,3.5,9.9,7.3,15.1,10.5C231.3,371.1,231.4,370.9,231.3,370.8z"/>
</g>
</svg>
