<?xml version="1.0" encoding="utf-8"?>
<!-- Generator: Adobe Illustrator 23.0.2, SVG Export Plug-In . SVG Version: 6.00 Build 0)  -->
<svg version="1.1" id="Layer_1" xmlns="http://www.w3.org/2000/svg" xmlns:xlink="http://www.w3.org/1999/xlink" x="0px" y="0px"
	 viewBox="0 0 500 500" style="enable-background:new 0 0 500 500;" xml:space="preserve">
<style type="text/css">
	.st0{fill:#FFFFFF;}
	.st1{fill:#E0E0E0;}
	.st2{fill:#FCFCFC;}
	.st3{fill:#FFC100;}
	.st4{opacity:0.85;fill:#FFFFFF;enable-background:new    ;}
	.st5{opacity:0.51;}
	.st6{opacity:0.2;fill:#FFFFFF;enable-background:new    ;}
	.st7{opacity:0.15;}
	.st8{fill:#FFBDA7;}
	.st9{fill:#263238;}
	.st10{fill:#F0997A;}
	.st11{fill:#37474F;}
	.st12{fill:#B16668;}
	.st13{fill:#F28F8F;}
	.st14{fill:#455A64;}
	.st15{fill:#FAFAFA;}
	.st16{fill:#C8856A;}
	.st17{fill:#AF6152;}
	.st18{opacity:0.15;enable-background:new    ;}
	.st19{opacity:5.000000e-02;}
	.st20{opacity:0.3;}
	.st21{fill:#FFA8A7;}
	.st22{opacity:0.4;enable-background:new    ;}
	.st23{opacity:0.2;}
	.st24{fill:#9A4A4D;}
</style>
<g id="freepik--Icons--inject-26">
	<g id="freepik--icons--inject-26">
		<path class="st0" d="M62.2,163.9c-8.6,0-15.6-7-15.6-15.6s7-15.6,15.6-15.6s15.6,7,15.6,15.6C77.8,156.9,70.8,163.9,62.2,163.9
			L62.2,163.9z M62.2,133.3c-8.3,0-15,6.8-15,15c0,8.3,6.8,15,15,15s15-6.8,15-15C77.1,140,70.4,133.3,62.2,133.3z"/>
		<path class="st0" d="M381.3,182.7c-5.5,0-10-4.5-10-10c0-5.5,4.5-10,10-10c5.5,0,10,4.5,10,10
			C391.3,178.3,386.8,182.7,381.3,182.7z M381.3,163.4c-5.1,0-9.3,4.1-9.3,9.3s4.1,9.3,9.3,9.3s9.3-4.1,9.3-9.3
			C390.6,167.7,386.4,163.4,381.3,163.4z"/>
		<path class="st0" d="M197.1,415.7c-9.6,0-17.4-7.8-17.4-17.4s7.8-17.4,17.4-17.4c9.6,0,17.4,7.8,17.4,17.4
			S206.7,415.7,197.1,415.7L197.1,415.7z M197.1,381.7c-9.3,0-16.6,7.5-16.6,16.6c0,9.3,7.5,16.6,16.6,16.6s16.6-7.5,16.6-16.6
			C213.7,389.1,206.3,381.7,197.1,381.7z"/>
		<path class="st0" d="M248.6,111.9c-8.8,0-15.9-7.1-15.9-15.9s7.1-15.9,15.9-15.9s15.9,7.1,15.9,15.9
			C264.5,104.7,257.4,111.9,248.6,111.9z M248.6,80.7c-8.4,0-15.3,6.8-15.3,15.3c0,8.4,6.8,15.3,15.3,15.3c8.4,0,15.3-6.8,15.3-15.3
			C263.9,87.5,257,80.7,248.6,80.7z"/>
		<path class="st0" d="M254.2,96.3H243c-1.5,0-2.8,1.1-3,2.6l-0.8,4.8c2.8,6.4,15.8,6.4,18.6,0l-0.8-4.8
			C257,97.4,255.7,96.3,254.2,96.3z"/>
		<circle class="st0" cx="248.6" cy="89.1" r="5.3"/>
		<path class="st0" d="M445.4,161.2c-9.8,0-17.5-7.9-17.5-17.5c0-9.6,7.9-17.5,17.5-17.5c9.6,0,17.5,7.9,17.5,17.5l0,0
			C462.9,153.3,455,161.2,445.4,161.2z M445.4,126.8c-9.3,0-16.9,7.5-16.9,16.9c0,9.3,7.5,16.9,16.9,16.9s16.9-7.5,16.9-16.9l0,0
			C462.2,134.3,454.6,126.8,445.4,126.8z"/>
		<path class="st0" d="M459.3,146.5c0,1.8-1.5,3.3-3.3,3.3h-8.8v-3.6h2.5l-4.5-5.4l-4.5,5.4h2.5v3.6h-8.8c-1.8-0.3-3-1.8-2.9-3.5
			c0.1-1.5,1.4-2.8,2.9-2.9h1v-0.6c0-2.9,2.3-5.3,5.1-5.3l0,0c1,0,2,0.4,2.9,0.9c1-3.1,4.3-4.9,7.3-3.9c2.5,0.8,4.1,3,4.1,5.6v3.1h1
			C457.8,143.4,459.3,144.8,459.3,146.5z"/>
		<path class="st0" d="M288.6,415.7c-6.8,0-12.3-5.5-12.3-12.3s5.5-12.3,12.3-12.3s12.3,5.5,12.3,12.3
			C300.8,410.4,295.3,415.7,288.6,415.7z M288.6,392c-6.4,0-11.5,5.1-11.5,11.5c0,6.4,5.1,11.5,11.5,11.5c6.4,0,11.5-5.1,11.5-11.5
			C300.1,397.2,295,392,288.6,392z"/>
		<path class="st0" d="M289.6,411.6h-2.3c-0.3,0-0.4-0.1-0.6-0.3c-0.1-0.1-0.3-0.4-0.3-0.6v-1c-0.5-0.1-0.9-0.3-1.3-0.5
			c-0.5-0.3-0.9-0.5-1.3-0.9c-0.4-0.3-0.6-0.6-0.8-1.1c-0.3-0.4-0.3-0.8-0.3-1.3c0-0.3,0.1-0.4,0.3-0.5c0.1-0.1,0.3-0.3,0.5-0.3h2.3
			c0.1,0,0.4,0,0.5,0.1c0.1,0.1,0.3,0.1,0.4,0.3l0.3,0.3c0.1,0.1,0.3,0.3,0.3,0.3c0.1,0.1,0.4,0.3,0.5,0.3c0.3,0.1,0.5,0.1,0.8,0.1
			c0.5,0,1,0,1.4-0.1c0.4-0.1,0.4-0.3,0.4-0.4c0-0.1,0-0.1-0.1-0.1c-0.1-0.1-0.4-0.3-0.6-0.3c-0.4-0.1-0.8-0.3-1.1-0.3
			c-0.5-0.1-1-0.3-1.6-0.4c-1-0.1-2-0.6-2.8-1.4c-0.6-0.8-1-1.6-0.9-2.6c0-0.5,0.1-0.9,0.3-1.3c0.1-0.4,0.4-0.8,0.8-1.1
			c0.4-0.4,0.8-0.6,1.1-0.9c0.4-0.3,0.8-0.4,1.3-0.5v-1c0-0.5,0.4-0.8,0.8-0.8h2.3c0.3,0,0.4,0.1,0.6,0.3c0.1,0.1,0.3,0.4,0.3,0.6v1
			c0.4,0.1,0.9,0.3,1.3,0.5c0.4,0.3,0.8,0.5,1.1,0.9c0.3,0.3,0.6,0.6,0.8,1c0.1,0.4,0.3,0.8,0.4,1.1c0,0.3-0.1,0.4-0.3,0.5
			c-0.1,0.1-0.3,0.3-0.5,0.3H291c-0.1,0-0.4,0-0.5-0.1s-0.3-0.1-0.4-0.3c0,0-0.1-0.1-0.3-0.3c-0.1-0.1-0.1-0.1-0.3-0.3
			c-0.1-0.1-0.3-0.1-0.4-0.3c-0.4-0.1-0.9-0.1-1.3,0c-0.1,0-0.3,0-0.5,0.1c-0.1,0-0.1,0.1-0.3,0.1c0,0-0.1,0.1-0.1,0.3
			s0,0.1,0.1,0.3c0.1,0.1,0.3,0.3,0.4,0.3c0.4,0.1,0.6,0.3,1,0.3l1.6,0.4c0.6,0.1,1.1,0.3,1.8,0.5c0.5,0.3,0.9,0.5,1.3,0.8
			c0.4,0.4,0.6,0.8,0.8,1.1c0.1,0.5,0.3,1,0.3,1.5c0,0.5-0.1,1-0.3,1.5c-0.3,0.5-0.5,0.9-0.9,1.1c-0.4,0.4-0.9,0.6-1.3,0.9
			c-0.4,0.3-0.9,0.4-1.4,0.4v0.9C290.5,411.2,290.1,411.6,289.6,411.6L289.6,411.6z M283.7,406.1c0,0.4,0.1,0.6,0.3,0.9
			c0.1,0.4,0.4,0.6,0.6,0.9c0.4,0.3,0.6,0.5,1,0.8c0.5,0.3,0.9,0.4,1.4,0.5l0.3,0.1v1.5c0,0,0,0,0,0.1c0,0,0,0,0.1,0h2.3
			c0.1,0,0.1,0,0.1-0.1v-1.5h0.3c0.5-0.1,1-0.3,1.5-0.4c0.4-0.1,0.8-0.4,1.1-0.8c0.6-0.5,1-1.4,0.9-2.1c0-0.4-0.1-0.9-0.3-1.3
			c-0.1-0.4-0.4-0.6-0.6-0.9c-0.4-0.3-0.6-0.5-1.1-0.6c-0.5-0.3-1-0.4-1.6-0.5l-1.6-0.4c-0.4-0.1-0.8-0.1-1.1-0.3
			c-0.3-0.1-0.5-0.3-0.6-0.4c-0.4-0.4-0.4-0.9,0-1.4c0.1-0.1,0.4-0.3,0.5-0.4c0.3-0.1,0.4-0.1,0.6-0.1c0.5-0.1,1,0,1.5,0.1
			c0.3,0,0.4,0.1,0.6,0.3c0.1,0.1,0.3,0.3,0.4,0.3l0.1,0.1c0,0,0.1,0.1,0.3,0.1s0.1,0,0.3,0h2.3c0-0.3-0.1-0.5-0.3-0.8
			c-0.1-0.3-0.4-0.6-0.6-0.9c-0.3-0.3-0.6-0.5-1-0.8c-0.4-0.3-0.9-0.4-1.4-0.5h-0.3v-1.5v-0.1c0,0,0,0-0.1,0h-2.3c0,0,0,0-0.1,0
			c0,0,0,0,0,0.1v1.5h-0.4c-0.5,0.1-0.9,0.3-1.3,0.5c-0.4,0.3-0.6,0.5-0.9,0.8c-0.3,0.3-0.5,0.6-0.6,0.9c-0.1,0.4-0.3,0.6-0.3,1
			c0,0.8,0.3,1.5,0.8,2.1c0.6,0.6,1.5,1,2.4,1.1l1.6,0.4c0.4,0.1,0.8,0.1,1.1,0.3c0.3,0.1,0.5,0.3,0.8,0.4c0.3,0.1,0.4,0.4,0.4,0.8
			c0,0.5-0.4,1-0.9,1c-0.5,0.1-1.1,0.3-1.6,0.3c-0.6,0-1.1-0.1-1.6-0.5c-0.1-0.1-0.3-0.3-0.4-0.4l-0.3-0.3l-0.1-0.1
			c-0.1,0-0.1,0-0.3,0L283.7,406.1z"/>
		<path class="st0" d="M394.3,333.9c-7,0-12.8-5.8-12.8-12.8c0-7,5.8-12.8,12.8-12.8c7,0,12.8,5.8,12.8,12.8l0,0
			C407,328.1,401.3,333.9,394.3,333.9z M394.3,309.1c-6.6,0-12,5.4-12,12c0,6.6,5.4,12,12,12c6.6,0,12-5.4,12-12
			S401,309.1,394.3,309.1L394.3,309.1z"/>
		<path class="st0" d="M55.7,342.3c-5.5,0-9.9-4.4-9.9-9.9s4.4-9.9,9.9-9.9s9.9,4.4,9.9,9.9l0,0C65.6,337.8,61,342.1,55.7,342.3z
			 M55.7,323.1c-5.1,0-9.3,4.1-9.3,9.1c0,5.1,4.1,9.3,9.1,9.3c5.1,0,9.3-4.1,9.3-9.1l0,0C64.8,327.3,60.7,323.1,55.7,323.1z"/>
		<path class="st0" d="M61.9,330.6c0.1,0,0.1-0.1,0.1-0.1c-0.1-0.4-0.3-0.8-0.4-1.1c-0.1-0.4-0.4-0.6-0.6-1c0,0-0.1-0.1-0.1,0
			l-1,0.5c-0.4-0.5-0.8-0.9-1.3-1.1l0.4-1c0-0.1,0-0.1-0.1-0.1c-0.6-0.4-1.4-0.6-2.1-0.8c-0.1,0-0.1,0-0.1,0.1l-0.4,1
			c-0.6,0-1.1,0-1.8,0.1l-0.5-1c0-0.1-0.1-0.1-0.1-0.1c-0.4,0.1-0.8,0.3-1,0.4c-0.4,0.1-0.6,0.4-0.9,0.6c0,0-0.1,0.1,0,0.3l0.5,1
			c-0.5,0.4-0.9,0.8-1.1,1.3l-1-0.4c-0.1,0-0.1,0-0.1,0.1c-0.4,0.6-0.6,1.4-0.8,2.1c0,0.1,0,0.1,0.1,0.1l1,0.4c0,0.6,0,1.1,0.1,1.8
			l-1,0.5c-0.1,0-0.1,0.1-0.1,0.1c0.1,0.4,0.3,0.8,0.4,1c0.1,0.4,0.4,0.6,0.6,1c0,0,0.1,0.1,0.3,0l1-0.5c0.4,0.5,0.8,0.9,1.3,1.1
			l-0.4,1c0,0.1,0,0.1,0.1,0.1c0.6,0.4,1.4,0.6,2.1,0.8c0.1,0,0.1,0,0.1-0.1l0.4-1c0.5,0,1.1,0,1.6-0.1l0.5,1c0,0.1,0.1,0.1,0.1,0.1
			c0.4-0.1,0.8-0.3,1-0.4c0.4-0.1,0.6-0.4,1-0.6c0,0,0-0.1,0-0.3l-0.5-1c0.5-0.4,0.9-0.8,1.1-1.3l1,0.4c0.1,0,0.1,0,0.1-0.1
			c0.4-0.6,0.6-1.4,0.8-2.1c0-0.1,0-0.1-0.1-0.1l-1-0.4c0-0.6,0-1.1-0.1-1.8L61.9,330.6z M57.8,334.5c-1.3,1.1-3.3,1.1-4.4-0.1
			c-0.5-0.5-0.8-1.1-0.9-1.8c-0.1-1,0.3-1.9,0.9-2.6c1.3-1.1,3.3-1.1,4.4,0.1c0.5,0.5,0.8,1.1,0.9,1.8
			C58.8,332.9,58.5,333.9,57.8,334.5z"/>
		<path class="st0" d="M204.3,61.9c-6.1,0-11.1-5-11.1-11.1s5-11.1,11.1-11.1s11.1,5,11.1,11.1l0,0
			C215.5,56.9,210.5,61.9,204.3,61.9z M204.3,40.3c-5.8,0-10.5,4.8-10.5,10.5s4.8,10.5,10.5,10.5c5.8,0,10.5-4.6,10.5-10.5
			S210.2,40.3,204.3,40.3L204.3,40.3z"/>
		<path class="st0" d="M101,309.2c-8.1,0-14.8-6.6-14.8-14.8c0-8.1,6.6-14.8,14.8-14.8s14.8,6.6,14.8,14.8l0,0
			C115.7,302.6,109.1,309.2,101,309.2z M101,280.4c-7.8,0-14,6.3-14,14s6.3,14,14,14s14-6.3,14-14l0,0
			C115,286.7,108.7,280.4,101,280.4z"/>
		<polygon class="st0" points="110.2,288.3 91.7,288.3 101,294.8 		"/>
		<polygon class="st0" points="111.4,299.7 111.4,289.2 105.1,293.7 104,294.5 101,296.6 98,294.5 91.7,300.6 110.2,300.6 
			104.1,294.7 105.2,293.8 		"/>
		<polygon class="st0" points="96.8,293.6 90.7,289.2 90.7,299.7 96.7,293.8 97.8,294.6 98,294.5 		"/>
		<path class="st0" d="M448.1,334.9c-5.4,0-9.8-4.4-9.8-9.6c0-5.4,4.4-9.8,9.6-9.8c5.4,0,9.8,4.4,9.8,9.6l0,0
			C457.9,330.5,453.5,334.9,448.1,334.9z M448.1,316.2c-5,0-9,4-9,9s4,9,9,9c5,0,9-4,9-9l0,0C457.2,320.2,453.1,316.2,448.1,316.2z"
			/>
		<path class="st1" d="M248.6,465c-5.5,0-10-4.5-10-10s4.5-10,10-10c5.5,0,10,4.5,10,10C258.7,460.5,254.2,465,248.6,465z
			 M248.6,445.8c-5.1,0-9.3,4.1-9.3,9.3s4.1,9.3,9.3,9.3c5.1,0,9.3-4.1,9.3-9.3C257.9,449.9,253.8,445.8,248.6,445.8L248.6,445.8z"
			/>
		<polygon class="st0" points="248.6,448.5 250.7,452.4 254.9,453 251.8,456 252.5,460.4 248.6,458.4 244.8,460.4 245.5,456 
			242.4,453 246.8,452.4 		"/>
		
			<rect x="149.1" y="67.3" transform="matrix(0.8645 -0.5027 0.5027 0.8645 -10.4835 96.3959)" class="st0" width="48.8" height="0.6"/>
		
			<rect x="225.4" y="51.9" transform="matrix(0.7653 -0.6437 0.6437 0.7653 7.5419 161.8278)" class="st0" width="0.6" height="37.3"/>
		
			<rect x="264" y="92.6" transform="matrix(0.9943 -0.1068 0.1068 0.9943 -8.2577 31.6247)" class="st0" width="54.2" height="0.6"/>
		
			<rect x="61.8" y="163.6" transform="matrix(0.9988 -4.867615e-02 4.867615e-02 0.9988 -8.7343 3.2379)" class="st0" width="0.6" height="34.8"/>
		<polygon class="st0" points="376.4,164.3 365.2,131.8 365.8,131.5 377.1,164.2 		"/>
		
			<rect x="412.3" y="193.5" transform="matrix(9.914345e-02 -0.9951 0.9951 9.914345e-02 208.7862 618.2919)" class="st0" width="67.2" height="0.6"/>
		
			<rect x="406" y="97.6" transform="matrix(0.4995 -0.8663 0.8663 0.4995 95.7707 414.1173)" class="st0" width="0.6" height="53.2"/>
		<polygon class="st0" points="391.1,171.6 390.8,170.9 432.1,154.5 432.5,155.2 		"/>
		<polygon class="st0" points="402.5,311.7 402,311.4 417.1,290.6 417.7,291 		"/>
		<polygon class="st0" points="407.5,367.7 407,367.2 442.1,332.3 442.6,332.8 		"/>
		<polygon class="st0" points="240.1,449.5 208.1,411.4 208.6,410.9 240.8,449.1 		"/>
		
			<rect x="247.1" y="431" transform="matrix(0.5786 -0.8156 0.8156 0.5786 -238.3757 401.2446)" class="st0" width="44.1" height="0.6"/>
		
			<rect x="300" y="398" transform="matrix(0.9833 -0.1821 0.1821 0.9833 -67.0282 66.5135)" class="st0" width="57.4" height="0.6"/>
		
			<rect x="53.7" y="263.2" transform="matrix(0.9998 -1.884886e-02 1.884886e-02 0.9998 -5.5134 1.0694)" class="st0" width="0.6" height="59.7"/>
		
			<rect x="108" y="308.4" transform="matrix(0.9842 -0.1771 0.1771 0.9842 -58.1728 24.5238)" class="st0" width="0.6" height="59.6"/>
		
			<rect x="69.6" y="128.4" transform="matrix(0.8692 -0.4945 0.4945 0.8692 -52.5678 58.7682)" class="st0" width="30.3" height="0.6"/>
		<path class="st1" d="M390.8,432.9c-19.5,0-35.4-15.9-35.4-35.4s15.9-35.4,35.4-35.4c19.5,0,35.4,15.9,35.4,35.4l0,0
			C426.2,417,410.3,432.9,390.8,432.9z M390.8,362.7c-19.1,0-34.7,15.5-34.7,34.7c0,19.1,15.5,34.7,34.7,34.7
			c19.1,0,34.7-15.5,34.7-34.7l0,0C425.5,378.3,410,362.8,390.8,362.7z"/>
		<path class="st1" d="M104,435.1c-19.5,0-35.4-15.9-35.4-35.4c0-19.5,15.9-35.4,35.4-35.4s35.4,15.9,35.4,35.4l0,0
			C139.4,419.4,123.6,435.1,104,435.1z M104,365c-19.1,0-34.7,15.5-34.7,34.7c0,19.1,15.5,34.7,34.7,34.7s34.7-15.5,34.7-34.7l0,0
			C138.6,380.6,123.1,365,104,365z"/>
		<path class="st1" d="M430.1,294.5c-19.5,0-35.4-15.9-35.4-35.4c0-19.5,15.9-35.4,35.4-35.4c19.5,0,35.4,15.9,35.4,35.4l0,0
			C465.4,278.6,449.6,294.3,430.1,294.5z M430.1,224.3c-19.1,0-34.7,15.5-34.7,34.7c0,19.1,15.5,34.7,34.7,34.7
			c19.1,0,34.7-15.5,34.7-34.7C464.8,239.8,449.3,224.3,430.1,224.3L430.1,224.3z"/>
		<path class="st1" d="M67.7,267.6c-19.5,0-35.4-15.9-35.4-35.4s15.9-35.4,35.4-35.4s35.4,15.9,35.4,35.4l0,0
			C103,251.7,87.2,267.6,67.7,267.6z M67.7,197.5C48.5,197.5,33,213,33,232.1s15.5,34.7,34.7,34.7s34.7-15.5,34.7-34.7
			C102.3,213,86.8,197.5,67.7,197.5L67.7,197.5z"/>
		<path class="st1" d="M350.5,136.3c-19.5,0-35.4-15.9-35.4-35.4s15.9-35.4,35.4-35.4c19.5,0,35.4,15.9,35.4,35.4l0,0
			C385.9,120.5,370,136.3,350.5,136.3z M350.5,66.2c-19.1,0-34.7,15.5-34.7,34.7s15.5,34.7,34.7,34.7c19.1,0,34.7-15.5,34.7-34.7
			C385.2,81.7,369.7,66.2,350.5,66.2z"/>
		<path class="st1" d="M125.4,136.3c-19.5,0-35.4-15.9-35.4-35.4s15.9-35.4,35.4-35.4s35.4,15.9,35.4,35.4l0,0
			C160.8,120.5,145,136.3,125.4,136.3z M125.4,66.2c-19.1,0-34.7,15.5-34.7,34.7s15.5,34.7,34.7,34.7S160,120,160,100.9l0,0
			C160,81.7,144.5,66.2,125.4,66.2z"/>
		<polygon class="st0" points="71.2,142.2 52.5,142.2 61.8,148.7 		"/>
		<polygon class="st0" points="72.2,153.4 72.2,143 65.9,147.4 64.8,148.3 61.8,150.4 58.8,148.3 52.7,154.3 71.1,154.3 64.9,148.4 
			66.2,147.7 		"/>
		<polygon class="st0" points="57.7,147.4 51.5,143 51.5,153.4 57.5,147.5 58.7,148.4 58.8,148.3 		"/>
		<polygon class="st2" points="401.2,316.5 387.3,316.5 394.3,321.4 		"/>
		<polygon class="st2" points="402,325 402,317.2 397.3,320.5 396.5,321.1 394.3,322.7 391.9,321.1 387.3,325.6 401.2,325.6 
			396.6,321.2 397.5,320.6 		"/>
		<polygon class="st2" points="391.2,320.5 386.6,317.2 386.6,325 391.1,320.6 391.8,321.2 391.9,321.1 		"/>
		<polygon class="st0" points="206.5,392.2 187.8,392.2 197.1,398.7 		"/>
		<polygon class="st0" points="207.5,403.6 207.5,393.1 201.2,397.6 200.1,398.3 197.1,400.5 194.1,398.3 188,404.5 206.3,404.5 
			200.2,398.6 201.5,397.7 		"/>
		<polygon class="st0" points="193,397.5 186.8,393.1 186.8,403.6 192.8,397.7 194,398.5 194.1,398.3 		"/>
		<polygon class="st2" points="453.5,321.5 442.8,321.5 448.1,325.3 		"/>
		<polygon class="st2" points="454.1,328 454.1,322 450.5,324.6 449.9,325 448.1,326.3 446.4,325 442.9,328.5 453.5,328.5 
			450,325.1 450.6,324.6 		"/>
		<polygon class="st2" points="445.8,324.5 442.3,322 442.3,328 445.8,324.6 446.4,325.1 446.4,325 		"/>
		<polygon class="st0" points="209.9,47 198.7,47 204.3,50.9 		"/>
		<polygon class="st0" points="210.6,53.9 210.6,47.5 206.7,50.3 206.1,50.8 204.3,52 202.5,50.8 198.7,54.4 209.9,54.4 206.2,50.8 
			206.8,50.3 		"/>
		<polygon class="st0" points="201.7,50.3 198,47.5 198,53.9 201.7,50.3 202.3,50.8 202.5,50.8 		"/>
		<polygon class="st0" points="387.1,168.9 375.6,168.9 381.3,172.9 		"/>
		<polygon class="st0" points="387.8,176.1 387.8,169.6 383.9,172.3 383.2,172.8 381.3,174.1 379.4,172.8 375.6,176.6 387.1,176.6 
			383.3,172.9 383.9,172.3 		"/>
		<polygon class="st0" points="378.7,172.3 374.8,169.6 374.8,176.1 378.7,172.3 379.3,172.8 379.4,172.8 		"/>
	</g>
</g>
<g id="freepik--Line--inject-26">
	<path class="st3" d="M248.5,439.4c-103.1,0-186.7-83.7-186.7-186.9c0-46.1,17-90.5,47.8-124.8c68.8-76.6,187.2-83,263.8-14.1
		c76.7,69,83.1,187,14.1,263.7C352.1,416.9,301.6,439.4,248.5,439.4z M248.8,66.8C146.3,66.8,63.2,150,63.2,252.5
		s83.2,185.6,185.7,185.6s185.6-83.2,185.6-185.7c0-52.7-22.4-102.9-61.6-138C338.8,83.7,294.6,66.8,248.8,66.8L248.8,66.8z"/>
</g>
<g id="freepik--World--inject-26">
	<g id="freepik--world--inject-26">
		<path class="st3" d="M164,346.9c52.1,46.7,132.2,42.4,178.8-9.6s42.4-132.2-9.6-178.8s-132.2-42.4-178.8,9.6
			c-17.3,19.3-28.3,43.3-31.4,69C117.9,278.1,133.1,319.1,164,346.9z"/>
		<path class="st4" d="M164,346.9c52.1,46.7,132.2,42.4,178.8-9.6s42.4-132.2-9.6-178.8s-132.2-42.4-178.8,9.6
			c-17.3,19.3-28.3,43.3-31.4,69C117.9,278.1,133.1,319.1,164,346.9z"/>
		<g class="st5">
			<path class="st3" d="M143.5,183.3c0.8,0.3,1.6,0.4,2.4,0.1c0.5-0.1,0.9-0.4,1.3-0.6c0.5-0.3,1.5-1.4,1.9-1.4s0,1.4-0.3,2.3
				c-0.6,1.3-1.4,2.4-2.4,3.4c-1.5,1.5-2.5,1.9-3.6,1.9c-0.4,0-2.1,0-2.6,0.8c-0.5,0.8-0.3,1,0.1,1.1c0.6,0.1,1.3,0,1.9-0.1
				c0.3-0.1,0.5-0.1,0.8,0c0.8,0.4-0.1,2.4,0.5,2.8c0.4,0.3,1,0,1.5-0.1c0.8-0.1,1.6-0.4,2.3-0.8c0.5-0.3,0.9-0.6,1.4-1
				c1.1-0.8,2.1-1.5,3.4-2.1c1-0.4,1.5-1.5,1.1-2.5c-0.3-0.9-1-0.6-1.9-0.1c-1.1,0.6-2.5,1.8-2.8,1.9c-0.4,0.1-0.5,0.3-0.5-0.1
				c0.1-0.6,1.5-1.4,1.8-1.6c0.5-0.4,1.1-0.9,1.6-1.3c0.9-0.8,1.9-1.4,2.4-1.6c0.3-0.3,0.5-0.4,0.8-0.6c0.4-0.4,0.8-0.8,1-1.3
				c0.5-1-0.1-1.4,0.3-2.3c0.4-0.6,0.9-1.3,1.5-1.8c0.6-0.5,1.1-1.1,1.6-1.8c0.9-1.3,0.6-2.4,1.1-3.8c0.4-0.8,0.8-1.5,1.3-2.1
				c0.8-0.9,1.9-2,2.4-2.8c0.4-0.5,0.6-0.9,1-1.3c0.4-0.5,0.8-1.1,1-1.8c0.3-0.4,0.4-0.9,0.5-1.3s0.4-0.6,0.6-0.9
				c0.9-0.9,1.4-1.9,1.6-3.1c0.3-1.5-0.8-0.9-1-1.1c-0.5-0.4-1.1-0.1-1.9,0.1c-1.5,0.6-3.3,2-5,3c-2.1,2.1-4.3,4.3-6.3,6.5
				c-1.8,2-3.4,3.9-5,6c0.4,0.1,0.9,0.1,1.4,0.1c1.1,0,2.6-1.6,4-2.5c0.6-0.4,2.4-1.8,2.6-1.3c0.4,0.9-1.5,2.6-1.9,2.9
				c-0.4,0.3-0.6,0.6-0.9,1c-0.4,0.9-1,2-1.8,1.9c-0.4-0.3-0.9-0.4-1.3-0.4s-0.6,0.3-0.8,0.6c-0.3,0.8-1.3,2.1-1.6,1.5
				c-0.3-0.4-0.4-1.1-0.8-1.1c-0.4-0.1-0.8,0-1-0.1l-0.1-0.1c-1.6,2.1-3.1,4.3-4.5,6.4C143.1,183.1,143.3,183.2,143.5,183.3z"/>
			<path class="st3" d="M276.2,150.8c0.9-1.3,1.9-2.4,3-3.4c0.5-0.5,1.1-0.9,1.8-1.4c0.4-0.3,0.8-0.5,1.1-0.8
				c0.4-0.1,0.6-0.3,0.9-0.5c0.4-0.4,0.4-1,0-1.4c-0.1-0.1-0.3-0.3-0.5-0.3c-0.1,0-0.3-0.1-0.4-0.1c-0.4,0-0.6,0.1-0.9,0.4
				c-0.8,0.5-1.5,1-2.4,1.3c-3.6,1.3-6.1,3.4-6.5,7c-0.3,1.3-0.3,2.5-0.1,3.9c0.1,0.5,0.1,0.9-0.3,1.1c-0.3,0.1-0.4,0.3-0.1,0.6
				c0.6,0.9,1.6,1.5,2.6,1.8c0.6,0.3,1.3,0.4,1.9,0.6c0.8,0.3,1.6,0,2.1-0.6c0.3-0.4-0.4-1.1-0.9-1.6l-0.5-0.5
				c-0.5-0.6-0.9-1.3-1.1-2c-0.1-0.5-0.3-0.9-0.3-1.4C275.4,152.5,275.7,151.7,276.2,150.8z"/>
			<path class="st3" d="M219.5,150.3c0.4,0.3,0.8,0.6,1.3,0.9c0.5,0.3,1,0.5,1.5,0.8c0.6,0.3,1.3,0.4,1.8,0.8c0.1,0,0.1,0.1,0.3,0.3
				c0.3,0.3,0.1,0.3,0.1,0.5c0.1,0.5,0.4,0.6,0.9,0.8c0.5,0.1,0.9,0.3,1.3,0.5c0.8,0.3,1.9,0.1,1.9-0.5c0-0.5-0.1-0.9-0.3-1.4
				c-0.3-0.8-0.4-1.4-0.5-2.1c0-0.1,0-0.3,0-0.3c0-0.1,0.3-0.5,0.9-0.4c0.4,0.1,0.9,0.3,1.1,0.3c0.3,0,0.4,0.1,0.4,0.1
				c0.3,0.1,0.4,0.4,0.4,0.5s0.1,0.1,0.1,0.3c0.1,0.1,0.3,0.1,0.5,0.1c0.5,0.1,1.1,0.3,1.6,0.1c0.3,0,0.4-0.1,0.6-0.1
				c0.3-0.3,0.4-0.6,0.1-0.9c-0.1-0.1-0.1-0.1-0.3-0.3c-0.9-0.1-1.8-0.4-2.6-0.6c-0.6-0.3-1.1-0.6-1.6-1c-0.9-0.8-0.3-1.3,0.4-1.4
				c0.5-0.1,1-0.3,1.4-0.5c0.6-0.3,1.3-0.9,1.5-1.5c0-0.4-0.1-0.8-0.4-1.1l-0.1-0.1c-0.6-0.4-1.4-0.4-2-0.1
				c-0.8,0.3-1.6,0.5-2.4,0.8c-0.4,0.1-0.8,0.3-1.1,0.3c-0.3,0-0.6,0-0.9,0.1c-0.5,0.3-0.9,0.5-1.1,0.9c-0.4,0.5-0.9,0.8-1.5,0.9
				c-0.4,0.1-0.9,0-0.9,0.5c0.1,0.6,1,1,1.3,1.5c0.3,0.5-0.4,0.4-0.8,0.1c-0.4-0.3-0.5-0.8-0.9-1c-0.4-0.3-0.5,0-0.5,0.1
				c0,0.4,0.3,0.8-0.5,0.5c-0.4-0.1-0.6-0.4-1-0.4c-0.6,0-2,0.8-1.1,1.8C218.7,149.9,219.1,150.2,219.5,150.3z"/>
			<path class="st3" d="M234.3,206.1c-0.9-0.8-2.4-0.9-2.6-2.5c-0.1-0.5,0.4-1.1,0.1-1.6c-0.1-0.3-0.5-0.3-0.8-0.4
				c-0.3-0.1-1.4-0.6-1.5-1.1c0-0.3-2.5,0.1-2,0.9c0.6,1.1-1.3,2.1-0.1,2.6l0.1,0.1c0.1,0,0,0.8,0.4,1.6s1.6,0.9,1.9,1.6
				c0.3,0.8,1.3-0.1,1.9,0.4c0.6,0.6,0.9,2,0.4,2.4c-0.6,0.5,0,1.9-0.3,2.3c-0.3,0.3-0.5,0.6-0.1,1c0.3,0.3,0.9-0.5,1.1,0.1
				c0.3,0.8-0.6,1-0.3,1.5c0.4,0.5,1,0.1,1.4,0c1.5-0.5,3.5-1.6,4.3-3.3c0.3-0.6,0.8-2.3-0.1-2.6c-0.4-0.1-0.8,0-1-0.3
				c-0.4-0.3-0.8-0.6-1-1C235.4,207.4,234.9,206.7,234.3,206.1z"/>
			<path class="st3" d="M128.5,287c0.6,0.4,2,2,2.6,1.8c1.1-0.4-0.9-2.4-1.3-2.6c-0.4-0.3-3.4-3.4-3.4-3.4c0.1-0.1,0.1-0.4,0.1-0.5
				c-0.1-0.1-0.9-0.4-1.4-0.9c0.4,1.5,0.8,3,1.1,4.5C127.1,286.2,128,286.6,128.5,287z"/>
			<path class="st3" d="M317.1,301.7c0.3-3,0.1-6.1-0.3-9.1c-0.1-0.6-0.3-1.3-0.4-1.9c-0.1-0.8-0.5-1.6-1-2.3
				c-0.1-0.1-0.4-0.3-0.5-0.4c-0.1-0.1-0.3-0.3-0.4-0.4c-0.1-0.1-0.3-0.4-0.4-0.5c-0.3-0.3-1,0.4-1,1.3c0,0.5,0.1,1.1,0.3,1.6
				c0.3,2.3-1.3,3.8-1.9,5.5c-0.9,2.6,0.1,4.8,0.6,7.1c0.4,1.5,0.1,3.8,1,5C316.2,311.7,317,304.1,317.1,301.7z"/>
			<path class="st3" d="M373.9,259c-0.4-0.4-0.9-0.6-1.4-0.5c-1,0.1-2.1,0.5-3.1,0.8c-0.5,0.1-1.1,0.3-1.8,0.1
				c-0.4,0-0.6-0.3-0.9-0.4c-0.6-0.5-0.6-1.5-0.8-2.4c-0.1-0.9-0.6-1.8-1.4-2.3c-0.3-0.3-0.6-0.5-0.9-0.8c-0.5-0.4-1-0.5-1.5-0.9
				c-0.5-0.4-0.9-1-1-1.6c0-0.4,0-0.8,0.3-1.1c0.3-0.8,0.3-1.6-0.3-2.4c-0.3-0.4-0.5-0.8-0.8-1.1c-0.4-0.5-0.8-1-1.3-1.5
				c-0.3-0.3-0.5-0.4-0.8-0.6c-1.6-1.8-2.6-4-3.1-6.3c-0.1-0.8,0-1.4,0.5-1.5c0.1,0,0.4,0,0.5,0.1c0.5,0.3,0.9,0.5,1.4,0.9
				c0.4,0.4,0.8,0.6,0.9,0.6c1.1-0.4,2.3,3.9,3.4,1.8c0.4-0.6,0.9-1.1,1.3-1.9c0.1-0.3,0.3-0.5,0.4-0.9c0.3-0.9,0.5-1.8,0.4-2.6
				c0-0.5-0.1-1.1-0.4-1.6c-0.8-1.6-2-3-3.4-4.1c-0.5-0.4-0.9-0.5-1-1.3c-0.5-1.6,0.5-3.8,2-3.6c1,0.1,1.9-0.3,2.4-1.1
				c0.5-1.1,1.3-2.1,2.1-3c1.3-1,2.9-2.1,3.8-3.5c0.1-0.1,0.1-0.3,0.3-0.4c-1.5-5-3.4-10-5.5-14.8c-0.3-0.5-0.6-1.4-0.9-2.1
				c-11.1-23.8-29.3-43.6-52.1-56.6c-0.3,0.1-0.5,0.1-0.8,0.3c-1.3,0.3-2.4,0.6-3.5,1.1c-0.9,0.5-1.4,1.4-1.5,2.4
				c0,0.6-0.3,1.1-0.6,1.6c-0.5,0.5-1.1,0.8-1.9,0.9c-0.5,0.1-1.5,0.3-1.1,1.1c0.4,0.9,1.9,1.5,2.5,2.1c1.4,1.4-1.3,0.6-1.9,0.4
				c-0.8-0.3-1.5-0.4-2.3-0.4c-0.4,0-1.4,0-1.3,0.5s0.8,1,1.1,1.4c0.5,0.5,0.6,0.8,0.1,1c-0.4,0.3-0.9,0.5-1.4,0.8
				c-0.8,0.5-1.5,0.6-2.4,0.8c-1.1,0-2.3-1-3-2c-0.4-0.5-0.9-1-1.4-1.3c-0.5-0.3-1.1-0.4-1.6-0.4c-1.1,0.1-1,1.3-0.5,2.3
				c0.5,1-0.4,1.5,0.1,2.4c0.6,0.9,1.5,1.5,2.5,2c0.8,0.5,2,1,2,1.9c-0.1,1.1-1.8,0.6-2.9,0.3c-1.5-0.5-3-0.8-4.5-1.4
				c-1.3-0.4-2.6-0.5-3.9-0.4c-0.6,0.1-1,0.5,0,1.1c0.5,0.3,1.9,0.6,1.9,1.4c0.1,0.8-1.5,0.9-2,1c-1.3,0.5-2.6,1-4,1.1
				c-1.1,0.1-2.4,0-3.3,0.4c-0.4,0.3-0.9,0.5-1.3,0.8c-0.5,0.5-0.8,1.1-0.9,1.8c0,0.1-0.1,0.4-0.3,0.5c-0.1,0.1-0.3,0.3-0.5,0.3
				c-0.8,0.1-1.5-0.3-1.9-1c-0.1-0.6-0.4-1.3-1-1.5c-0.8-0.3-1.5-0.1-2.1,0.4c-0.3,0.3-0.3,0.5-0.3,0.8c0,0.5,0.6,1.8,0.8,2.8
				c0.1,0.5,0,1-0.3,1.5c-0.3,0.3-0.6,0.6-0.9,0.8c-0.4,0.4-0.6,1-0.8,1.5c-0.3,1.1-0.4,2.1-1.4,2.6c-1,0.5-1.9,0.3-3.1-0.6
				c-1-0.6-1.9-1.3-2.8-1.9c-1.3-1.1,0.9-1,1.4-1c0.9,0,1.6-0.3,2.4-0.4c0.6-0.1,1.3-0.3,1.9-0.5c0.5-0.1,1.4-0.5,1-1.4
				c-0.6-1.8-4.8-2.9-6-3.3c-0.6-0.1-1.1-0.4-1.8-0.5c-0.9-0.3-2.6-0.6-3.6-0.8c-0.6-0.1-1.3-0.1-1.9-0.1c-0.9,0.3-1.3,1.5-2.6,0
				c-0.5-0.8-1.4-1.1-2.3-1.1c-1.8,0-3.5,0.6-4.9,1.6c-0.4,0.3-0.8,0.6-1,1c-0.5,0.6-0.9,1.9-1.3,2.3c-0.3,0.3-0.6,0.4-0.9,0.5
				c-2.1,0.4-2.4,2.4-1.9,5c0.1,0.6,0.4,1.5,0.5,2.1c0,0.4,0,0.8-0.1,1.1c-0.1,0.6-0.4,2-0.6,3.1c-0.1,0.8-0.3,1.4-0.4,2.1
				c-0.4,2-0.8,4.3-1.3,6.4c-0.5,1.6-0.4,3.3,0.3,4.9c0.6,1.1,1.6,2,2.8,2.4c1.1,0.4,2.5,0.1,3.4-0.8c1.4-1,2.3-0.4,3.6,1.3
				c0.5,0.8,1.1,1.6,2,2c0.9,0.3,1.8,0.3,2.5-0.3c0.8-0.5,0.8-1.5,0.4-2.6c-0.4-0.9-0.5-1.9-0.1-2.8c0.3-0.9,0.1-1.9-0.5-2.5
				c-0.9-1.4-2.5-2.9-3-3.8c-0.3-0.5-0.5-1.1-0.5-1.6c0-0.5,0-1,0-1.5c0.1-0.8,0.8-2.3,1.1-3.5c0.3-0.9,0.4-1.8,0.4-2.6
				c0-0.4,0-0.9,0.1-1.3c0.4-0.6,1-1,1.6-0.9c0.5,0,0.9,0.3,1.1,0.6c0.5,0.9,0.6,1.8,0.5,2.8c-0.1,1-0.9,1.4-1.1,2.3
				c-0.3,0.9,0.3,2.3,0.6,3.4c0.4,1.1,0.8,2.5,1.6,3.3c1.1,0.9,2.5,0.3,3.4-0.1c0.4-0.1,0.9-0.4,1.4-0.5c0.8-0.3,1.5-0.3,2.1-0.1
				c0.4,0.1,1,0.9,0.8,1.3c-0.3,0.1-0.4,0.3-0.6,0.4c-0.9,0.4-2,0.6-2.9,0.9c-0.6,0.3-1.6,0.5-1.4,1.4c0.1,0.8,1,1.1,1.5,1.5
				c0.5,0.4,1.1,0.8,1.1,1.4c0,0.4-0.3,0.6-0.5,0.6l0,0c-0.6,0-1.1-0.3-1.6-0.5c-0.4-0.3-0.8-0.6-1-0.4c-0.4,0.4,0.4,2.1,0.6,2.8
				c0.4,0.9,0.5,2,0.4,3c-0.5,1.9-2.6,2.5-4.3,2.9c-1,0.1-2.1,0.3-3.1,0.3c-0.8,0.1-1.4,0.1-2.1-0.1c-1.6-0.6-1.6-3.3-2.4-4.6
				c-0.9-1.6-2,0-1.9,1.1c0,1.8,1.9,3.3,1.9,5c0,1.1-1.4,1.6-2,2.1c-1,0.9-1.4,2.3-1,3.5c0,0.8-0.1,1.4-0.5,2
				c-0.4,0.9-0.9,1.5-1.3,2.4c-0.3,0.6-0.8,1-1.4,1.3c-0.4,0.1-1.1,0-1.3,0.4c-0.3,0.4,0.1,0.9-0.4,1.4c-0.5,0.5-1.5,0.4-2.1,0.6
				c-0.4,0.3-1,0.8-0.4,1.1c0.6,0.3,1.4,0.5,2.1,0.6c1.3,0.5,2.1,1.5,2.5,2.8c0.8,1.8,0.6,3.4-1,4c-1.6,0.6-3.4,0.8-4.9,2
				c-1.3,1.1-0.4,3.9,0.1,5.5c0.1,0.8,0.6,1.4,1.1,1.9c0.4,0.4,0.8,1,1.1,1.3c0.6,0.3,1.4,0.3,1.9,0c0.6-0.3,1.4-0.3,2,0.1
				c0.1,0.1,0.3,0.1,0.5,0.1c0.3,0,0.4-0.6,0.9-0.9c0.3-0.1,0.6-0.3,0.9-0.3c0.4,0,0.6-0.1,0.9-0.3c0.3-0.1,0.3-0.5,0.5-0.6
				c0.6-0.6,1-1.5,0.9-2.5c0-0.5,0-0.9,0-1.4c0.1-0.5,0.1-1,0.4-1.5c0-0.4,0-0.8,0.1-1.1c0.3-0.8,0.8-0.8,1.4-1.1
				c0.6-0.5,1-1.3,0.8-2c-0.1-0.8-0.4-1.5,0.3-1.9c0.5-0.5,1.1-0.1,1.6-0.3c0.9-0.3,1.5-1.1,2.1-1.8c1.3-1.3,2.6-1.1,4,0.1
				c0.6,0.6,1.3,1.1,2,1.6c0.6,0.4,1.1,0.5,1.8,0.9c0.8,0.5,1.5,0.8,2.1,1.1c0.8,0.5,1,1.8,1.1,2.6c0,0.4-0.1,1,0.3,1.3
				c0.4,0.3,0.6-0.3,0.8-0.5c0.5-0.9,0.1-1.8-0.3-2.8c-0.1-0.5-0.4-1,0-1.3c0.1-0.1,0.4,0,0.6,0c0.3,0,0-1-0.8-1.3
				c-0.4-0.3-0.9-0.3-1.4-0.3c-0.4,0.1-1.5-0.9-1.9-1c-0.9-0.5-1.6-1-2.5-1.6c-0.6-0.5-1.1-1-1.5-1.8c-0.4-1.1,0.8-1.4,1.6-1
				c0.6,0.3,0.9,0.9,1.4,1.4c1,1.1,2.4,0.9,3.5,1.3c0.9,0.3,1,0.9,1.5,1.6c0.5,0.5,0.9,1,1.3,1.6c0.3,0.5,0.3,0.5,0.6,0.8
				c0.4,0.3,0.8,0.5,1.1,0.6c0.4,0.1,0.8,0.3,1.1,0.5c0.4,0.3,0.3,0.3,0.3,0.6c0.1,0.9,0.4,1.8,1.3,1.9c0.9,0.3,0.6-1.3,0.8-2
				c0.1-0.5,0.1-1-0.1-1.4c-0.3-0.4-0.8-0.5-1.1-0.9c-0.8-0.9,0.3-1.1,0.6-1.6c0.4-0.5,0.9-1.6,2-1.3c0.6,0.3,0.6,0.6,0.8,1.1
				c0.3,0.6,0.5,1.1,0.9,1.6c0.3,0.6,0.5,1.1,0.9,1.6c1,0.9,2.5,1.3,3.9,1c0.5-0.1,0.9-0.8,1.5-0.8c0.3,0,0.5,0.1,0.8,0.1
				c0.4,0,0.9,0,1.3-0.3c0.5-0.3,1-0.5,1.5-0.6c0.9-0.3,1.3-0.1,1.3,1c0.1,1.6,0.3,3.3,0.5,4.9c0.1,0.6,0.8,2,0.5,2.5
				s-1.4,0-1.9-0.1c-1.4-0.3-2.9,0-4.3,0.5c-0.6,0.3-1.4,0.5-2.1,0.6c-0.6,0.3-1.4,0.3-2.1,0.1c-1.3-0.5-4.5-2-5.1,0
				c-0.4,1.4,0.6,3.5-1.3,3.6c-0.9,0-1.9-0.3-2.8-0.5c-1.4-0.3-2.6-0.4-4-0.4c-1,0-1.9-0.3-2.8-0.8c-1.1-0.9,0.1-1.6,0-2.6
				c-0.1-1-0.8-1.9-1.6-2.4c-0.8-0.1-1.6-0.1-2.3,0.3c-0.4,0.1-0.8,0.1-1.1,0.3c-0.4,0.1-0.8,0.4-1.1,0.8c-0.9,0.5-1.8,0.9-2.6,1.1
				c-0.5,0.1-1,0.3-1.4,0.5c-0.3,0.1-1,0.3-1.3,0.5c-0.9,1.4-2,3-3.8,3.4c-1,0.3-2,0.1-3,0.9c-0.9,0.8-1.6,1.8-2.1,2.8
				c-0.5,0.9-0.9,1.8-1.4,2.6c-0.5,1-0.1,2.1,0.3,3.3c0.3,0.6,0.3,1.4,0,2c-0.4,1.1-0.9,2.1-1.8,2.9c-1,0.9-1.6,1.9-2,3.1
				c-0.3,1.1-0.4,2.4-0.5,3.6c-0.1,2.5,0.8,5,2.4,6.9c0.5,0.5,0.3,2.5,0.3,3.1c0,1.3,0.5,2.4,1.1,3.4c0.5,0.6,1.1,1.1,1.9,1.6
				c1.4,0.8,2.5,2.1,3.9,3.1c1.3,1,2.6,1.9,4,2.6c1.8,0.9,3.8,1.3,5.6,0.9c0.9-0.1,1.8-0.5,2.5-1.1c0.4-0.4,0.8-0.6,1.3-0.8
				c1-0.4,1.9-0.9,2.6-1.5c0.4-0.4,0.8-0.9,1.1-1.3c0.6-0.9,1.8-1.4,2.9-1.4c0.5,0.1,1,0.3,1.4,0.4c0.9,0.5,1.9,0.8,2.8,1
				c0.5,0,0.9,0,1.4-0.1c0.8-0.1,1.6,0,2.3,0.4c1.9,1,1.8,3.3,1.4,5.3c-0.3,1.9,0.9,3.3,1.9,4.4c0.5,0.5,1,1.1,1.5,1.6
				c0.6,0.5,1.1,1.1,1.6,1.9c0.4,0.8,0.8,1.3,1.1,2c0.6,1.4,1.1,2.8,1.5,4.3c0.1,0.8,0.3,1.5,0.3,2.3c0,0.4,0.1,0.8,0.1,1.1
				c0,0.6,0,1.4,0,2c0,0.3-0.1,0.6-0.1,0.9c0,0.8,0.1,1.5,0.3,2.3c0.3,1.3,0.6,3.4,0.9,4.5c0.1,0.8,0.4,1.4,0.6,2.1
				c1.5,2.9,3.1,5.6,5.1,8.3c0.9,1.3,1.6,2.6,2.5,3.9c0.4,0.6,0.8,1.4,1.3,2c0.5,0.8,0.9,1.4,1.1,2.3c0.8,1.5,1.6,2.4,3,2.4
				c1.1-0.1,2.3-0.6,3.1-1.4c2.1-1.5,3.9-3.5,4.9-5.9c0.6-1.6,1.1-3.4,1.3-5.1c0.1-0.9,0.3-1.6,0.1-2.5s-0.3-1.8-0.3-2.6
				c0-1.4-0.1-2.9,0-4.3c0.1-2.1-0.1-3.9,0.9-5.8c0.5-0.9,1-1.6,1.5-2.5c0.9-1.3,2.4-3.5,1.9-5.5c-2.5-9.5-7.3-16.1-0.9-25.7
				c1.5-3.1,3.3-8.3,3-12.4c-0.1-2-1.8-2.8-2.8-2c-0.6,0.5-1.3,1-1.9,1.4c-0.6,0.4-1.3,0.6-1.9,1c-0.6,0.3-1.4,0.3-2.1,0.1
				c-0.6,0-1.3-0.4-1.6-1c-0.5-0.6-0.6-1.4-0.9-2.1c-0.4-0.5-1-1-1.6-1.3c-1.4-0.8-2.5-1.8-3.6-2.9c-1-1.3-1.8-2.6-2.4-4.1
				c-0.5-1-1.3-1.8-2-2.4c-0.8-0.8-1.5-1.5-2.3-2.4c-0.6-0.9-3.1-3.6-2-4.8c0.9-0.9,2.5,1.9,3.1,2.6c1.1,1.4,2.4,2.5,3.5,3.8
				l1.9,1.9c1,1,2.3,2.3,2.8,2.8c0.3,0.3,0.6,0.6,0.9,0.9c0.6,0.5,1.1,1.1,1.6,1.9c1.4,2.9,2.6,4.3,4.3,3.6c1.5-0.5,3.3-2.8,4.4-4
				c2.1-2.1,4-4.4,5.6-6.8c0.4-0.8,0.6-1.6,0.8-2.4c0.4-0.9,0.5-1.9,0.5-2.9c0-0.8-0.5-1.5-1.3-1.8c-0.5-0.1-0.9,0.1-1.4,0
				c-0.5-0.1-0.9-1-1.4-1.4c-0.9-0.8-1.4,0.1-2,0.8c-0.6,0.6-1.9,2-2.8,1.6c-0.6-0.3-0.5-0.9-0.9-1.3c-0.4-0.5-0.6-0.1-1-0.1
				c-1,0-1.9-1.3-2.5-2c-0.5-0.6-1.8-1.9-1.8-2.8c0-1.5,2-0.1,2.6,0.3c0.8,0.4,1.4,0.8,2.1,1.1c0.5,0.4,1.1,0.6,1.8,0.6
				c0.6,0.1,1.3,0.3,2,0.3c0.5,0,0.9-0.4,1.4-0.3c0.3,0,0.6,0.1,0.9,0.3c1,0.6,2.3,0.9,3.5,0.6c1.3-0.4,2.5-1.1,3.8-1.5
				c0.9-0.5,2-0.6,3-0.6c1.3,0.3,2.4,0.9,3.3,1.9c0.6,0.8,1.4,2,2.4,2.3c1.1,0.3,1-2.1,1.8-1.9c0.4,0.3,0.6,1.1,0.8,1.5
				c0.3,0.5,0.4,1,0.6,1.4c0.5,1.1,1.1,2.1,1.6,3.3c1.1,2.3,2.4,4.4,3.8,6.5c0.6,1,1.6,2.5,2.8,2.5c0.5,0,1-0.8,1.1-1.3
				s0.1-1.1,0.1-1.6c0-0.8,0-1.4-0.1-2.1c-0.1-1.4-0.1-2.6-0.1-4c0.1-0.6,0.1-1.1,0.4-1.8c0.3-1,0.6-2.1,1.1-3
				c0.5-0.6,0.9-1.4,1.1-2.1c0.1-0.4,0.3-0.6,0.3-1c0.3-0.6,0.4-1.3,0.6-1.9c0.1-0.3,0.3-0.5,0.5-0.8c0.3-0.1,0.6-0.3,0.9-0.4
				c0.6-0.3,0.6-0.9,1.1-1.4c0.5-0.5,1.1-0.1,1.6,0.1c1.3,0.9,1.9,2.6,2.4,4.1c0.3,0.8,0.6,1.6,1.4,1.5c0.8-0.1,1-0.8,1.8-0.3
				s1.1,1.6,1.8,2.4c0.6,0.8,1.4,0.9,1.8,1.9c0.3,0.6,0,0.8-0.1,1.3c-0.1,0.5,0.1,0.9,0.4,1.3c0.4,0.5,0.5,1,0.5,1.6
				c-0.1,0.5,0,1.1,0,1.6c0.1,0.3,0.4,0.5,0.6,0.5c0.6,0.1,1.1,0.5,1.4,1.1c0.1,0.4,0.4,0.8,0.5,1c0.1,0.4,0.4,0.8,0.6,1.1
				c0.1,0.1,0.3,0.3,0.3,0.3c0.3,0.4,0.5,0.8,0.6,1.3c0.1,0.4,0,0.6-0.1,0.9c-0.3,0.1-0.5,0.1-0.9,0c-0.4-0.1-1.1-0.5-1.6-0.6
				c-0.3-0.1-0.5-0.1-0.8-0.1c-1.3,0.3,0.9,2.9,1.4,3.3c0.5,0.4,0.8,0.5,1.1,0.9c0.4,0.4,0.6,0.8,0.8,1.3c0.6,0.9,1.3,1.9,2,2.6
				c0.6,0.8,1.4,1.5,2.1,2.1c0.4,0.3,0.8,0.5,1.3,0.6c0.1,0,1.3,0.3,1.3,0.4c0.8,3.6,3.3,0.6,4.8,1.4c1.3,0.8,2.4,0,3.6-0.4
				c0.4-0.1,0.6-0.3,0.9-0.5c0-0.4,0-0.6,0-1C374.6,259.5,374.2,259.4,373.9,259z M283.7,217.2c-1.1,0.1-2.4,0.1-3.5,0
				c-1.6-0.1-3.9,1.1-5.3,1.9c-0.6,0.4-1.4,0.6-2.3,0.6c-1.6,0-1.6-3.6-1.5-5.5c0-1,0.3-1.9,0.6-2.8c0.9-1.4,3.6-0.6,3.3-0.1
				c-0.3,0.5,0.4,0.8,0.6,1.3c0.3,0.4,0.8,0.8,1,0.1c0.3-0.5-0.8-2.3,0.4-3.4c0.1-0.1,0.3-0.3,0.5-0.4c1.3-1,2.1-0.4,2.5,1.5
				c0,0.5,0.3,0.9,0.4,1.3c1,1.8,2.9,1.4,2.9,1.6c0.1,0.3,0.9,0.3,1.6,0.8C285.8,214.7,285.2,217,283.7,217.2z M301.3,218.2
				c0.1,1.5-1.4,2.1-3.1,1.9c-1.8-0.4-2.5-2.8-3-4.4c-0.5-1.6-3.4-2.4-4.3-4.3c-1.4-3.1,0.6-6.4,2.6-6.8c1.6-0.3,1.1,2.3,0.9,4
				c-0.1,0.6,0.3,1,1,1.5c1.5,1.1,3,1.4,3.9,1.9c0.9,0.5,0.3,1.5-0.5,2C298.1,214.6,301.2,216.4,301.3,218.2z"/>
			<path class="st3" d="M223.6,334.9c0.3-1.3,1.6-2.8,2.8-3.5c0.9-0.6,1.5-0.9,1.9-2.3c0.3-1.6,0-3.3-0.6-4.8
				c-0.5-1-0.3-2.1-0.6-2.8c-0.9-1.4-1.6-3-2-4.6c-0.6-3,1.6-5.6,1-8.9c-0.4-2-2.9-3.4-4.4-3.6c-1.6-0.3-3.9-2.4-5.5-1.9l-0.5,0.1
				c-1.6,0.5-4.5-1-6.3-1.1c-0.4,0-0.8,0-1.3,0c-1.8,0-4.1-1.4-5.5-3c-1.4-1.6-2.6-2.9-4.1-3.3c-2-0.5-4,1.6-6,0.1
				c-0.9-0.6-1.8-1.1-2.8-1.5c-1-0.3-2-0.6-2.9-1.3c-1.4-1-1.9,0.1-3.1,0c-0.8-0.1-1-0.4-1.9-0.3c-1,0.3-1.9,0.6-2.9,0.8
				c-0.8,0.1-1.3-0.3-2-0.5c-1.8-0.8-3.9,0.8-4.4,2.3c-0.3,0.8-0.3,1.8-0.5,2.4c-0.6,1.4-2.9,1-4.3,0.6c-1.1-0.3-2.1-0.8-3-1.4
				c-1-0.9-1.8-1-2-2.4c-0.3-1-0.4-2.4-1.4-3c-0.8-0.4-1.8-0.5-2.5-0.3c-0.6,0.1-1.4,0.6-2.1,0.5c-0.8-0.3-1.4-1-1.5-1.9
				c0-0.5,0.5-1,0.6-1.5c0.1-0.3,0.1-0.6,0.1-0.9c0-0.1-0.4-0.8-0.4-0.8c0.3-1.3-0.1-1.9-0.8-1.9c-1.3-0.1-2.8,1.4-2.6,2.8
				c0.1,1.4-1.9,3-3.5,2.8c-3.1-0.5-5.9-5.3-5.9-9c0-1.8,1.1-4.4,2.5-5c1.1-0.5,2.5-0.4,3.9-0.6c0.6,0,0.5-0.5,0.4-0.9
				c-0.1-0.6,1.1-0.9,2-1.3c1.5-0.5,3.1-0.3,4.4,0.6c0.6,0.6,1.1,1.3,1.6,1.9c1,1.4,3.4,1.9,2.5,0.1c-0.5-1-1.5-2.3-2.1-3.4
				c-0.9-1.6-0.3-4.3,0.6-5.4c0.5-0.8,1.1-1.4,1.5-2.3c0.5-0.8,0.6-1.5,0.6-2.4c-0.1-0.9-1-1.6-1.3-2.6c-0.1-0.8-0.1-1.5,0-2.1
				c0.3-1.1,0.8-2.3,1.6-3.1c0.8-0.8,2.4-1,2.5-2.4c0.1-1.4,0-2.1,0.8-3.4c0.5-0.8,1-1.4,1.8-2c1-1,1,1.4,2.4,0.8
				c1.4-0.8,2.6-1.9,3.6-3.1c1.1-1.4,1.3-3.1,0.8-3.5c-0.6-0.4-1.1,2.8-2.6,2.8c-0.1,0-0.4,0-0.5,0c-1.5-0.3-1.9-2.6-2-2.5
				c-0.3,0.1-0.4-0.3,0-0.5c0.4-0.3,0.1-2.8-1.1-1.9c-0.3,0.1-0.5,0.4-0.6,0.6c-1.3,1.1-1.6,0-0.5-1.1c1.9-1.9,4.5-2.8,6.9-4
				c1.4-0.8,2.1-0.1,1.8,1.8c-0.4,1.9-0.6,3.1,0.5,3c1.5-0.1,3.1-1.3,3.3-0.6c0.1,0.4,0.3,0.8,0.6,0.3c0.6-0.8,1.8,0.3,2.1-0.8
				c0.1-0.6-0.1-1.3-0.5-1.6c-0.6-0.6-1.5-2-2.4-1.8s-1.6-2-1.6-4c0-0.3,0-0.4,0-0.6c0-2-2.6-2.9-4-3.5c-4-2-2.8-2.5-5.3-6.1
				c-0.9-1.4-2.3-0.8-3.1,0.9c-0.5,0.9-1,1.5-1.5,1.6c-1.4,0.1-1.4-4-2.4-4.1c-0.5-0.1-1.1,0-1.6-0.8c-0.8-1.3-2.3-1.4-3.5-0.9
				c-1.3,0.6-2,3.3-1.6,4.5c0.4,1.4-0.4,3.9,0.3,4.8c0.6,0.9,1.9,3.3,1.1,4.9c-0.4,1-1.1,1.9-1.5,3c-0.5,1.9,1.1,4,0.8,5
				c-0.1,0.5-0.8,0.9-1.3,0.8l0,0c-1-0.4-1.9-1.1-2.3-2c-0.8-2.1-0.3-3.6-2.1-3.6c-2.6,0-5.1-0.5-7.5-1.5c-1.1-0.5-1.1-1.5-1.8-2.6
				c-0.6-1.1-1.6-1.3-0.6-3.4c0.6-1.4,1.9-2.4,2.1-4.3c0.3-1.8-1.3-1.5-0.6-3c0.6-1.5,2.9-1.5,3.9-2.3c0.5-0.4,0.9-0.9,1-1.4
				c0.3-1.3-0.6-1.1-1-1.6c-0.1-0.1,0.3-0.4,0.5-0.5c0.5-0.1,0.9-0.4,1.3-0.8c0.3-0.3,0.4-0.5,0.5-0.9c0-0.3,0.1-0.6,0.3-0.9
				c0.1-0.3,0.4-0.5,0.6-0.6c0.6-0.3,1.1-0.6,1.6-1.1c0.8-0.8,1.4-1.8,1.8-2.8c0.1-0.8,0.3-1.5,0-2.3c-0.3-0.4-0.6-0.3-0.8-0.8
				c-0.3-2,1.9-2.6,2.5-2.9c1-0.5,2.3-1.1,2.3,1c0,0.9,0.3,3.1,1.1,1.6c0.5-0.9,0.8-1.3,1.3-0.8c0.5,0.4,0.9,1,0.9,1.6
				c0,0.8-0.3,1.4-0.8,1.9c-0.6,0.8-0.9,3.8-2.1,4.4c-0.3,0.1-0.4,0.1-0.6,0.3c-1.1,0.6-0.5,3.5,0.5,2.6c1.1-0.9,2.6-0.4,3.8,0.4
				c1.5,1.1,3.6,2.3,4.5,2c1.3-0.4-0.1-3,0.5-3.4c0.4-0.3,0.8-0.5,1.1-0.6c0.3,0,0-1.8,0-2c-0.1-0.5-0.4-0.9-0.8-1.3
				c-0.8-0.6-1.5-0.5-2-1.5c-0.6-1.1,0.5-2.6,1.3-2.4c0.4,0.1,0.6,0.6,0.9,1c0.5,0.8,1.3,1,1.5,0.8c0.1-0.1,0.4-0.4,0.5-0.5
				c0.3-0.6,0.1-1.3,0.4-1.9c0.4-1,1.1-0.9,1.5-1.9c0.3-0.5,0.1-1.3-0.4-1.5c-0.1,0-0.1-0.1-0.3-0.1c-1.1-0.5-2.4-0.6-3.4-1.1
				c-0.3-0.1-0.5-0.1-0.6-0.3c-0.4-0.1-0.6-1.1-0.6-1.9c0-0.5,0-0.9-0.1-1.4c-0.1-0.5-0.5-0.9-1-1.1c-0.4-0.4-0.9-0.6-1.4-0.8
				c-0.8-0.4-2.5,0-3.3-0.9c-0.8-0.9-1.4-2-2.3-1.8c-0.1,0-0.4,0.5-0.5,0.5c-0.1,0.1-0.4,0.1-0.6,0.1c-0.4,0-0.6-0.3-1-0.4
				c-0.9-0.3-1.8,0.1-2.3,0.8c-0.3,0.3-0.6,0.5-0.9,0.8c-0.6,0.4-1.3,0.6-1.9,0.8c-0.9,0.6-1.6,1.4-2.3,2.4c-0.5,0.6-0.8,1.3-1,2
				c-0.4,1.1-0.5,2.8,0.3,2.9c0.6,0,1.8-0.6,2.5-0.8c0.8-0.1,2.4-0.6,2.1,1.3c-0.3,1.4-1.8,1.4-1.6,3c0,0.5,0.4,0.9,0.1,1.6
				c-0.3,0.6-0.5,1.1-0.8,1.6c-0.3,0.4-0.6,0.9-0.9,1.3c-0.5,0.5-1.1,0.5-1.3-0.3c0-0.6,0.4-1.3,0.5-1.9c0-0.4-0.3-0.8-0.6-0.9l0,0
				c-0.1,0-0.4,0-0.6,0c-0.4,0-0.8-0.3-1.1-0.5c-0.1-0.1-0.3-0.4-0.4-0.6c-0.3-0.4-0.5-0.8-0.8-1.1c-0.4-0.9-0.3-1.9,0.1-2.6
				c0.1-0.3,0.4-0.5,0.6-0.9c0.4-0.8,0.8-1.5,1.1-2.4c0.6-1.8,0.6-3.3-0.5-2.9c-1.1,0.4-2.5,2.1-3,4.1c-0.1,1.1-0.4,2.4-0.6,3.5
				c-0.4,1-1.1,1.9-1.4,3c-0.1,0.9-0.3,1.9-0.4,2.8c-0.3,0.9-0.4,0.8-0.9,1.3c-1,0.9-0.5,2.9-1.4,4c-0.3,0.3-0.6,0.5-1.1,0.8
				c-0.6,0.4-1.3,0.5-2,0.5c-0.3,0-0.5,0-0.4-0.5c0.1-0.6,0.6-0.9,0.9-1.3c0.9-1.3,1.4-2.8,1.1-4.3c-0.3-0.6-0.8-0.5-1.3-0.8
				c-0.8-0.6-1.3-1.5-1.1-2.5c-1.3,3.1-2.4,6.4-3.3,9.5c0.3,0,0.5,0.1,0.6,0.3c0.3,0.3,0.1,0.8,0,1.3c-0.1,0.4-0.1,0.8-0.3,1.1
				c-0.1,0.6-0.5,2.8-1.3,2.5c-0.1-0.1-0.4-0.1-0.5-0.3c-1.4,5.4-2.5,10.9-3.1,16.4c-1.8,14.4-1.1,28.9,2,43.1
				c0.4-0.1,0.8-0.1,1.1,0c1.4,0.8,2.5,3.1,3.9,3.9c2.3,1.3,4.8,2.8,6.4,4.9c1,1.4,2.5,3.4,4,4c3,1.1,6.4,1.8,9,0.9s6.5,3.3,8.8,1.4
				c0.3-0.3,2.1,1.6,2.4,1.9c1,0.9,2.1,1.5,3.4,1.9c1.3,0.4,2.6,0.8,3.9,0.9c2.4,0.4,5.4,1.1,5.6,4.6c0.1,2.1-0.4,4.3-0.5,6.4
				c-0.1,2.1-0.1,4.4,1.5,6.3c1.5,1.9,3.5,2.9,5,4.5c1.5,1.6,1.6,4.4,3.3,6.3c2,2.4,4.1,2.4,7,3c2.3,0.4,4.3,1.4,5.6,3.1
				c3.5,3.8,6.8,7.9,9.5,12.3c3.5,5.5,6.5,11.4,11.1,16c2.1,2.3,4.8,4.3,7.5,5.6c1.9,0.9,3.5,0.6,3-1.9c-0.4-1.5-1.8-2.5-2.5-3.6
				c-0.8-1.3-0.5-2.5-0.8-3.9c-0.3-1.1-1.6-2.6-1-3.8c0.6-1.1,1.9-0.8,2.1-2c0.3-1.6-1.5-2-2.1-3.3c-0.6-1.3,1.5-1.6,2-2.8
				c0.3-0.8-0.1-1.6,0-2.4c0.1-0.6,0.4-0.8,0.6-1.3c0.4-1,0.6-2,0.5-3.1C225.2,338.1,223.2,336.5,223.6,334.9z M142.6,250.8
				c1-1.4,2.8-4.5,4-4.1c0.8,0.4,1.3,0.9,1.8,1.5c1,1.1,3.1,1.3,4.4,1.5c1.3,0.4-0.1,1.8,0,2.9c0,1.1-0.6,1.8-0.8,1.1
				c0-0.4-0.1-0.6-0.6-0.4c-0.6,0.5-0.6-0.1-0.5-0.8c0.1-0.9-2-1.3-2.1,0.6c0,0.5,0,1,0,1.5c0,1.9-1.6,2.1-1.8,0.4
				c0-0.3,0-0.5,0-0.8c0.1-1.9-0.9-3.9-2.3-3.4C142.9,251.4,141.5,252.3,142.6,250.8L142.6,250.8z"/>
			<path class="st3" d="M136.8,195.6c0.4,0.6,1.1-0.1,1.3-0.5c0.1-0.4,0.8-2.3,0.3-2.9c-0.3-0.3-0.6-0.1-1,0.1
				c-0.4,0.8-0.8,1.4-1.1,2.1C136.3,195,136.5,195.3,136.8,195.6z"/>
			<path class="st3" d="M226.1,214.9c0.8,1.1,1.9,0,2.5-0.4c0.9-0.6,1.3-1.6,1.3-2.8c0-0.8-0.4-1.5-0.9-2.1
				c-0.5-0.5-1.8-1.4-2.3-0.8c-0.3,0.3,0,0.6-0.3,0.9c-0.1,0.3-0.9,0.3-1.3,0.5c-1,0.5,0.1,1.4,0.5,2c0.3,0.4,0.3,0.9,0.3,1.4
				C226,214,225.9,214.5,226.1,214.9z"/>
			<path class="st3" d="M253.9,227c0.3-1.8-2.4-6.1-2.5-4.3c0,0.4,0,0.8,0,1C251.5,225.6,253.7,228.8,253.9,227z"/>
			<path class="st3" d="M374.6,242.4c0.4-1.3,0.1-2.8-1.1-2.6c-1.3,0.1-1.5,1.5-2.1,2.6c-0.8,1.4-1.6,2.8-2.6,3.9
				c-0.6,0.8-2,0.5-1.9,2c0.1,1.3,0.6,2.5,1.4,3.5c0.5,0.8,1.1,1.5,1.9,2c1.5,0.9,3.4,0.9,4.5-0.9c0.1-0.3,0.3-0.6,0.4-0.9
				c0.1-0.5,0.1-1.6,0.4-2.3c0-1.8-0.1-3.5-0.3-5.1C374.4,244,374.3,243.2,374.6,242.4z"/>
			<path class="st3" d="M168.3,282.1c-1.3,0.3-2.4,0.1-3.5-0.3c-1.1-0.4-2.5-0.8-3.4,0c-0.6,0.5,0.5,1.1,1.1,1.4
				c0.5,0.1,0.9,0.3,1.4,0.4c0.8,0.3,1.9,0.6,2.4,0.8c0.4,0.1,0.8,0.1,1,0c1.3-0.5,2.4-1.6,4-1c0.4,0.1,1.1,0.8,1.5,0.5h0.1
				c0.4-0.3,0.1-1-0.3-1.4C171.6,281.1,169.6,281.8,168.3,282.1z"/>
			<path class="st3" d="M260.3,230c0.1-0.8-0.5-1.4-1.3-1.5l0,0c-0.5-0.1-0.4,0.4-0.3,1C258.9,230.3,260.2,231.3,260.3,230z"/>
			<path class="st3" d="M247.1,229.1c0.4-0.8,0.1-1.3-1.5-0.8c-0.3,0-0.5,0.6-0.6,1.1C244.8,230.3,246.4,230.4,247.1,229.1z"/>
			<path class="st3" d="M213.4,190.5c0.4-1.9-2.4-4-3.3-3.6c-0.5,0.3-0.9,0.9-1.3,1.1c-0.5,0.3-1.1,0.5-1.6,0.6
				c-0.9,0.4-1.5,1.9-2.4,1.3c-0.9-0.6-0.8,2.4,0.6,3.8C208.7,196.8,212.9,193.3,213.4,190.5z"/>
			<path class="st3" d="M145.5,215.5c-0.3,1.8,0,3.3,0.8,3.4c0.8,0.1,2.4-1.5,3.6-2.1c1.8-1,0-1.5-1.6-2.4
				C147.3,213.7,145.8,213.7,145.5,215.5z"/>
			<path class="st3" d="M197.1,174.8c0.8-1,2.1-3,1.3-4.9c-0.5-1.1-1.3-1.4-1.6-2.6c-0.1-0.5-0.3-1-0.1-1.5c0.1-0.9,0.4-1.6,0.6-2.5
				c0.1-0.5,0-1-0.3-1.4c-0.5-0.8-1.4-0.6-2-1.1c-2.9-2.1,2.9-9.5,1.9-10.6c-0.3-0.1-0.5-0.3-0.8-0.3c-0.5,0-1.1,0-1.6,0.3
				c-0.3,0.1-0.6,0.3-0.9,0.4c-0.4,0.4-0.6,0.8-0.8,1.3c-0.4,0.8-0.9,1.8-1.1,1.5c-0.1-0.1-0.3-0.3-0.5-0.5c-0.8-0.6-0.6,0-1.1,0.5
				c-0.3,0.3-1.3,0.6-1.6-0.3s0.4-2.1,0.5-2.8c0.1-0.4,0.3-0.9,0.6-1.1c0.5-0.4,0-1.6-0.9-2.1c-0.9-0.4-1.9-0.6-2.9-0.5
				c-1.9,0.1-3.8,0.9-5.3,2.1c-0.9,0.8-1.6,1.5-2.3,2.4c-0.9,1.3-1.5,3.9-2.6,5.4c-0.5,0.8-1.3,1-2.1,0.9c-1.4,0-3,0-4.6,2.9
				c-1,1.9,0,1.8-0.3,3.1c-0.3,1.5-1.9,1.6-2.4,2c-1,0.8-1.5,2.1-1.1,3.4c0.1,0.3,0.1,0.5-0.5,1.5c-0.9,1.1-1.8,2.3-2.8,3.3
				c-0.9,0.9-1.4,1.9-1.6,3.1c-0.3,1.3,0.1,1.1,0.5,1.4c0.3,0.1,0.4,0.3,0.5,0.5c0.3,0.4,0.6,1.5,1.1,1.5s2-1.1,3-1.9
				c1.9-1.3,3.5-2.4,4.9-0.9c0.5,0.5,0.8,1.1,1,1.8c0.3,1.8,0.4,3.5,0.1,5.3c-0.1,0.8,0,1.5,0.4,2.3c0.8,1,2.3,0.6,3,1.9
				c0.6,0.9,0.6,2.5,0.4,4c-0.4,1.6-1.1,2.5-1.6,3.9c-0.5,1.5,0.1,2.8,0.3,4.1c0.3,1.6,0.8,3.1,1.5,4.5c0.8,1.5,1.8,3,2.8,4.4
				c0.4,0.5,0.9,1,1.4,1.4c0.9,0.6,2.6,0.3,3.9-0.4c0.8-0.4,1.4-1.1,1.9-1.9c0.9-2,0-4.4,0-6.5c0-1.6,0.6-3.1,1.9-4.3
				c1-0.9,2.5-1.8,3.1-3.3c0.5-1.3,0.6-2.9,1.3-4.1c0.9-1.5,2.6-2,3.8-2.9c0.8-0.6,2.4-2,2.1-3.4c-0.1-0.8-0.5-1-0.4-1.9
				c0.1-0.5,0.4-0.9,0.8-1.1c0.3-0.1,0.4-0.4,0.6-0.5c0.4-0.3,0.3-1.3-0.1-1.6s-0.6-0.5-0.8-0.6
				C196.6,177.2,196.2,175.9,197.1,174.8z"/>
			<path class="st3" d="M137.5,200.1c0.4-0.6,0.9-1.3,0.6-1.5c-0.1-0.1-0.3,0-0.4-0.1c-0.1-0.1-0.9,0.1-2.1,1.3
				c-1.3,1.1-1.3,2.5-2.1,3.3s0.4,2.4,1.4,2.6c1.5,0.4,2.8-1.5,3.3-3.1C138.8,200.5,136.9,200.9,137.5,200.1z"/>
		</g>
		<path class="st6" d="M263.8,136.6c-83.4-10.5-89.6,46.2-42.1,73.7s121.8,27.5,127.9,3.4C356,189.7,325.7,144.4,263.8,136.6z"/>
		<g class="st7">
			<path class="st3" d="M206.6,332.8c-75.1-30.8-73.5-153.6-16.3-192.6l0,0c-2.1,1.1-4.4,2.3-6.5,3.6
				c-60.1,35.8-79.8,113.4-44.2,173.6s113.4,79.8,173.6,44.2c29.2-17.4,50.2-45.7,58.3-78.7C360.8,311.6,285.3,365,206.6,332.8z"/>
		</g>
	</g>
</g>
<g id="freepik--character-6--inject-26">
	<g id="freepik--Character--inject-26">
		<path class="st0" d="M390.8,432.5c-19.4,0-35-15.6-35-35c0-19.4,15.6-35,35-35c19.4,0,35,15.6,35,35l0,0
			C425.9,416.9,410.1,432.5,390.8,432.5z"/>
		<path class="st3" d="M390.8,363.3c18.9,0,34.2,15.3,34.2,34.2s-15.3,34.2-34.2,34.2c-18.9,0-34.2-15.3-34.2-34.2l0,0
			C356.7,378.6,371.9,363.3,390.8,363.3 M390.8,361.4c-19.9,0-36,16.1-36,36s16.1,36,36,36c19.9,0,36-16.1,36-36l0,0
			C426.7,377.6,410.7,361.4,390.8,361.4z"/>
		<g id="freepik--character--inject-26">
			<path class="st8" d="M309.7,378.3c0.9-0.3,1.8-0.1,2.5,0.3c1.3,0.6,2.5,1.3,3.6,2c1.9,1,4.8,2.6,6.9,2.5c0.4,0,1.4-0.3,0.8-0.8
				c-0.8-0.6-1.5-1.4-2.3-2.1c-0.6-0.8-1-1.9-0.9-2.9c0-0.4,0.3-0.6,0.4-0.8c0.4-0.3,0.6-0.1,0.9,0.1c0.3,0.3,0.6,0.4,0.9,0.6l2,1.1
				c3.9,2.3,7.8,4.9,10,8.9c0.4,0.6,2.4,5.1,3.6,7.6c1,2.4,9,16.9,9,16.9l14.1-13.8c3.1-3.1,6.4-6.1,9.1-7.1
				c1.8-0.8,3.4-1.6,4.9-2.5l-5.3,25c0,0-14.9,11.3-17,12.8c-3.1,2.3-9.5,6-12.6,2.1c-4.3-5.3-6.4-12.9-8.3-18.6
				c-2-5.8-3-9.3-4.3-11.3c-1.3-2-3-2.1-4.4-2.5c-1.9-0.5-3.6-1.3-5.3-2.3c-1.5-0.8-2.8-1.8-4-3c-0.6-0.5-1.1-1.1-1.5-1.9
				c-0.1-0.6-0.3-1.4-0.4-2c-0.5-0.6-0.9-1.4-1.3-2c-0.1-0.6-0.1-1.3-0.1-1.9c-0.1-0.9-0.6-1.6-1.3-2.3c-0.4-0.3-0.6-0.6-0.9-1
				C308.7,378.8,309.2,378.4,309.7,378.3z"/>
			<path class="st9" d="M376.1,387.6c-3.1,0.8-6,2.1-8.5,4.1c-3.4,2.6-20.1,17.4-20.1,17.4l-7.1-10.4c0,0-0.1,2.8-4.1,5
				c-4.3,2.4-5.8,1.6-5.8,1.6s3.1,12.5,6.5,18.6c3.4,6.1,5.4,8.1,11,5.6c5.6-2.5,24.8-16.8,24.8-16.8L376.1,387.6z"/>
			<path class="st10" d="M325.1,384.9c1,2.4,2.6,4.5,4.8,6c-1.4-0.1-2.6-0.8-3.5-1.9C325.4,388,325,386.4,325.1,384.9z"/>
			<path d="M347.4,409.2c2.4,4.1,3.1,9.5,2.6,12.3c1.8-4.4,1.9-8.9-1.1-13.5L347.4,409.2z"/>
			<path class="st11" d="M415.9,407c-0.8,4.3-2.3,11.1-3.3,16.8c-13.1,10.9-32.3,10.4-44.8-1.1v-4.9c0,0-3.9-3.6-3.3-10.4
				c0.6-6.8,9.4-17.5,11.6-19.8c1.9-0.8,9.9-2.1,9.9-2.1c6.6,0,13.1,0.8,19.5,2.4c2.5,0.6,5.6,1.8,5.6,1.8
				C412.2,392.2,417,399.7,415.9,407z"/>
			<g id="freepik--Head--inject-26">
				<g id="freepik--head--inject-26">
					<path class="st1" d="M373.4,360.2c-3.8-13.9,9-21,21.8-18.8c4.3,0.8,9.6,3.1,10.1,9.1c5.5,1.8,8.3,9.1,4.8,17
						c-2.5,5.8-7.4,8.6-9.6,12.1L373.4,360.2z"/>
					<path class="st8" d="M405.6,362.2c-3.5-1.5-5.4,2.1-5.4,2.1c-2.4,1.5-3.6-3.3-4.1-4.5c-0.9-2.4-1.8-5.9-4.4-6.9
						c-2-0.8-4.3,0-6.1,1.1c-1.1,0.6-2.4,0.9-3.6,0.5c-1.1-0.3-1.5-2-2.5-2.5c-2.9-1.5-4.9,3.3-5.5,5.5c-0.8,2.8-1,5.6-0.9,8.6
						c0.3,10.4,2.8,14.9,5.6,16.1c2.4,1,4.9,1.3,7.4,0.9v3.1c-2.3,3-3.1,6.9-2.5,10.6c5.8-0.6,14.1-3.8,17-9v-15.3
						c0.6,1.4,3.8,2,5.6-0.4C408.5,368.7,409,363.5,405.6,362.2z"/>
					<path class="st12" d="M382.4,374.9l4.9-1.1c0.4,1.4-0.4,2.8-1.8,3.1l0,0C384.1,377.2,382.8,376.3,382.4,374.9z"/>
					<path class="st13" d="M384.4,376.9c0.4,0.1,0.8,0.1,1.1,0c0.9-0.3,1.6-1,1.9-1.9C386.1,374.9,384.8,375.7,384.4,376.9z"/>
					<path class="st10" d="M386.1,382.9c3.4-0.5,9.5-2.1,10.5-4.9c0,0,0.1,2.3-2.4,4.3c-2.1,1.6-8.1,2.6-8.1,2.6V382.9z"/>
				</g>
				<path class="st14" d="M375.6,358.8l3.5-1c-0.3-0.9-1.1-1.5-2.1-1.3c0,0,0,0-0.1,0C375.8,356.8,375.3,357.8,375.6,358.8z"/>
				<path class="st14" d="M390.8,359.8l-3.4-1.1c0.3-0.9,1.1-1.5,2.1-1.3h0.1C390.6,357.8,391.1,358.8,390.8,359.8z"/>
				<path class="st9" d="M375.7,364c-0.1,0.8,0.5,1.5,1.3,1.6c0.8,0.1,1.5-0.5,1.6-1.3c0,0,0,0,0-0.1c0.1-0.8-0.5-1.5-1.4-1.6l0,0
					C376.6,362.7,375.8,363.3,375.7,364z"/>
				<path class="st9" d="M386.8,364.9c-0.1,0.9,0.5,1.5,1.4,1.6c0.9,0,1.5-0.6,1.6-1.4c0.1-0.8-0.5-1.5-1.3-1.6
					C387.6,363.4,386.8,364,386.8,364.9C386.8,364.8,386.8,364.8,386.8,364.9z"/>
				<path class="st10" d="M390.2,364.2c0-0.1,0.1-0.1,0.3-0.1l0.5-0.1l0.6-0.3c0.1-0.1,0.4-0.1,0.5-0.1l0.4-0.1c0.1,0,0.3,0,0.5,0
					c0.1,0,0.1,0.1,0.1,0.3c0,0.1-0.1,0.3-0.3,0.3l-0.3,0.1h-0.1h-0.1l0,0h-0.1l-0.5,0.1c-0.3,0.1-0.5,0.1-0.8,0.1
					c-0.1,0-0.3,0-0.4,0C390.2,364.3,390.2,364.2,390.2,364.2z"/>
				<path class="st10" d="M390.2,365.3c0.1-0.1,0.4-0.3,0.5-0.3c0.3,0,0.6,0,0.9,0c0.4,0,0.6,0,1,0c0.4,0,0.1,0.5-0.1,0.5
					c-0.4,0-0.9,0-1.3,0h-0.8c-0.1,0-0.1,0-0.1-0.1C390.2,365.4,390.2,365.3,390.2,365.3L390.2,365.3z"/>
				<path class="st10" d="M390.3,366c0.1-0.1,0.3,0,0.4,0h0.3l0.5,0.1l0.4,0.1h0.1c0.1,0,0.1,0,0.3,0.1c0.1,0,0.1,0.1,0.1,0.1l0,0
					c0,0.1,0,0.3-0.1,0.3s-0.1,0-0.3,0h-0.1h-0.1h-0.3l-0.5-0.1c-0.3,0-0.4-0.1-0.5-0.3l-0.1-0.1C390.2,366.2,390.2,366,390.3,366z"
					/>
				<path class="st11" d="M369.3,360.5c0.1,0.6,0.4,1.1,0.8,1.5c0.1,0.1,0.3,0.4,0.3,0.5c0.3,1.4,0.6,2.8,1,4.1
					c0.8,1.9,2.5,3,4.4,3.1c0.5,0,1,0,1.5,0h0.1c0.4-0.1,0.9-0.3,1.3-0.4h0.1l0.1-0.1l0.1-0.1l0.1-0.1l0.1-0.1l0.1-0.1
					c0.1-0.1,0.1-0.1,0.3-0.3c0.4-0.5,0.8-1,0.9-1.5c0.6-1.4,0.4-3.4,1.5-3.5h0.3c1.4,0.1,1.3,2.3,2.1,3.9c0.9,2,3,3.4,5.3,3.4h0.4
					h0.3c0.3,0,0.5,0,0.8-0.1h0.3h0.3h0.1c0.3-0.1,0.5-0.3,0.9-0.4l0.3-0.1c0.1-0.1,0.4-0.3,0.5-0.4c0.4-0.4,0.8-0.9,0.9-1.4
					c0.4-1.3,0.6-2.6,0.8-4c0-0.3,0.1-0.4,0.3-0.6c0.4-0.4,0.6-0.9,0.6-1.4c0-0.6-0.4-1.1-0.9-1.4l-0.8-0.1
					c-2.4-0.4-5.5-0.8-7.4-0.3c-2.4,0.5-3.1,1.3-4.5,1.1c-1.4-0.1-2-0.9-4.3-1.9c-2.3-0.6-4.6-0.9-7-0.8h-0.8
					C369.7,359.4,369.3,359.9,369.3,360.5z M384.9,362.9c0.1-0.3,0.4-0.4,0.6-0.5l0.1-0.1h0.1l0.4-0.1l0.3-0.1
					c0.4-0.1,0.6-0.3,1-0.3l0.4-0.1c0.4,0,0.8-0.1,1-0.1h0.3c2.3-0.1,3.8,0.5,4.3,1c0.5,0.5,0.4,2.6,0.1,3.6v0.1c0,0,0,0,0,0.1
					c0,0,0,0.3-0.1,0.4c0,0.1,0,0.1-0.1,0.3l0,0c0,0.1-0.1,0.3-0.1,0.5l0,0l-0.1,0.1v0.1v0.1c0,0,0,0.1-0.1,0.1c0,0,0,0.1-0.1,0.1
					l-0.1,0.1l-0.1,0.1c-0.8,1-2,1.5-3.1,1.4c-1.3,0-2.5-0.5-3.4-1.5l0,0c-0.5-0.6-1-1.4-1.1-2.3
					C384.7,364.9,384.4,363.5,384.9,362.9L384.9,362.9z M371.5,361c0.1-0.1,0.4-0.3,0.5-0.4l0,0c0.1,0,0.1-0.1,0.3-0.1h0.1h0.1h0.1
					l0,0h0.1c0.1,0,0.4,0,0.5,0h0.6h0.4h0.3c0.4,0,0.6,0.1,1,0.1c1.6,0.4,3.4,1.1,3.8,1.9c0.4,0.8,0.4,2,0.1,3.3
					c0,0.3-0.1,0.5-0.3,0.8l0,0v0.1l0,0v0.1c0,0.1,0,0.1-0.1,0.3c0,0,0,0.1-0.1,0.1l0,0l-0.1,0.1c0,0,0,0.1-0.1,0.1l0,0
					c-0.8,1.1-2,1.6-3.4,1.4c-0.6,0-1.1-0.3-1.8-0.5c-1.3-0.9-2-2.1-2.3-3.6C371.4,363.7,371,361.5,371.5,361L371.5,361z"/>
				<path class="st11" d="M394.8,361.3l7,1.3c-0.5,0.4-1,0.9-1.4,1.4l-5.6-1V361.3z"/>
				<path class="st10" d="M382.7,363.9l-0.9,8.4l-5-1.8l5.4-6.9C382.3,363.7,382.6,363.8,382.7,363.9z"/>
				<path class="st15" d="M401.8,370.6c0,0.8,0.6,1.4,1.4,1.4s1.4-0.6,1.4-1.4s-0.6-1.4-1.4-1.4
					C402.5,369.2,401.8,369.8,401.8,370.6z"/>
			</g>
			<path class="st8" d="M376.7,436c-2.4-0.3-4.5-2.4-7.6-3.5s-5.6-1.1-7.6-2c-0.9,0.5-0.4,2.3,0.6,3c1.5,1.3,4,2,3.4,2.6
				c-0.9,0.9-4.1,0.3-5,0.1c-3-0.6-6.3-2.4-9.4-1.8c-0.4,0-0.6,0.3-0.9,0.5c-0.3,0.4-0.1,1,0.3,1.3c0.4,0.3,0.8,0.6,1.1,0.8
				c0.4,0.3,0.8,0.6,0.8,1.1c0,0.4-0.3,0.9-0.1,1.3c0,0.3,0.1,0.5,0.4,0.8c0.4,0.4,0.8,0.8,1.1,1c0.4,0.3,0.8,0.5,1,0.8
				c0.6,0.5,1.3,1.1,1.9,1.9c1.6,2.8,5.3,3.5,8.1,4c6.1,1.1,9-0.3,12.6-0.1c3.6,0.1,19.1-0.4,27-1c8.3-0.6,9.4-2.1,11.6-10
				c2.6-9.3,4.8-18.8,6.3-28.3c1.4-10,0-15.1-9.9-18.3c-2.8,1.9-6.1,8.8-7.9,21.9l-3.5,19.9C400.8,431.9,378.9,436.3,376.7,436z"/>
			<path class="st9" d="M411.2,389.6c4.4,0.9,8.5,2.1,10.8,5.8c2.3,3.6,1.5,7.5,0.5,15c-1,7.4-6.1,26.9-7.4,31s-2,5.1-6.5,5.9
				c-4.4,0.8-27,1-27,1s0.9-2,0.5-6.3c-0.4-4.4-1.8-6.1-1.8-6.1l20.1-4.1c0,0,3.1-18.6,4.3-24.5
				C405.8,401.2,407.1,394.8,411.2,389.6z"/>
			<path d="M400.6,431.5c2.6-0.3,7.3,1.5,8.5,4c-0.5-2.6-3.4-5.5-8.3-5.5L400.6,431.5z"/>
		</g>
		<circle class="st3" cx="296.7" cy="320.6" r="2.1"/>
		<polygon class="st3" points="363.7,376.4 315.7,321.1 296.7,321.1 296.7,320.1 316.1,320.1 364.4,375.9 		"/>
	</g>
</g>
<g id="freepik--character-5--inject-26">
	<g>
		<path class="st0" d="M104,434.9c-19.4,0-35-15.6-35-35c0-19.4,15.6-35,35-35s35,15.6,35,35l0,0C139,419.1,123.4,434.9,104,434.9z"
			/>
		<path class="st3" d="M104,365.5c18.9,0,34.2,15.3,34.2,34.2c0,18.9-15.3,34.2-34.2,34.2s-34.2-15.3-34.2-34.2l0,0
			C69.8,380.9,85.2,365.5,104,365.5 M104,363.8c-19.9,0-36,16.1-36,36c0,19.9,16.1,36,36,36s36-16.1,36-36l0,0
			C140,379.9,123.9,363.8,104,363.8z"/>
		<g>
			<path class="st16" d="M168.2,366.7c0.5-2.8,0.8-3.8,0.4-4.5c-0.3-0.5-0.6-0.8-1-0.8c0.1-0.8,0.1-2.1-1.3-2.4l0.1-1.3
				c0.1-1-0.4-1.8-1.1-1.9c0.6-1.8,0.6-3.1-0.4-3.5c-0.3-0.1-2,1.1-2.9,2.1c-3.3,3.1-3.3,1.8-5.8,7.8c-0.9,2-2.5,4.9-3.1,8.3
				c-0.4,1.9,0.9,8.3-1,13.1c-1.6,4-4.9,10-9.4,17.4c0,0-3.9-3.6-8.5-8.5c-8.3-8.8-8.9-10.5-14.8-11.6c-6,2.8-2.9,16.1,0.6,22.5
				c6.4,5.9,13.1,11.3,20.3,16.1c7.3,4.9,11,3.9,13.6-1.5c3.6-7.4,8.8-26.9,9.8-30.5c0.9-3.3,3.3-3.8,3.9-7c1-4.9-0.8-8-0.3-10.3
				C167.7,369.2,167.9,368.1,168.2,366.7z"/>
			<path class="st17" d="M142.9,401c-2.3,4-3.5,6.5-3,10.9c-1.8-3.8-0.5-8.3,1.9-12L142.9,401z"/>
			<path class="st17" d="M161.3,373.3c2.4,2.4,3,7.4,1.4,10.1C164.9,381.4,165.5,376.4,161.3,373.3z"/>
			<path class="st17" d="M156.4,361.9l-0.1,0.3c-0.1,0.4-0.3,0.8-0.5,1.1l0.8,4.3l-1.3,1.3c-0.9,0.9-1.4,2-1.4,3.1l3.6-2.8
				L156.4,361.9z"/>
			<path class="st3" d="M118.6,380.3c4.4,1,5.8,1.4,8.3,3.8c2.5,2.4,13.3,13.9,13.3,13.9s-3.5,0.6-6.6,5.5c-3.1,4.8-2.9,8.8-2.9,8.8
				l-10.6-9C119.9,403.3,111.1,387.6,118.6,380.3z"/>
			<path class="st18" d="M118.6,380.3c4.4,1,5.8,1.4,8.3,3.8c2.5,2.4,13.3,13.9,13.3,13.9s-3.5,0.6-6.6,5.5
				c-3.1,4.8-2.9,8.8-2.9,8.8l-10.6-9C119.9,403.3,111.1,387.6,118.6,380.3z"/>
			<g id="freepik--Mobile--inject-26">
				<path class="st3" d="M167.8,345.4l-12,6.9c-0.4,0.3-0.6,0.6-0.5,1l4,27.5c0.1,0.5,0.4,0.9,0.8,1c0.5,0.1,1,0.1,1.4-0.1l11.9-6.9
					c0.4-0.3,0.6-0.6,0.6-1.1l-3.9-27.5c-0.1-0.5-0.4-0.9-0.8-1C168.7,345,168.2,345.1,167.8,345.4z"/>
				<g class="st19">
					<path d="M167.8,345.4l-12,6.9c-0.4,0.3-0.6,0.6-0.5,1l4,27.5c0.1,0.5,0.4,0.9,0.8,1c0.5,0.1,1,0.1,1.4-0.1l11.9-6.9
						c0.4-0.3,0.6-0.6,0.6-1.1l-3.9-27.5c-0.1-0.5-0.4-0.9-0.8-1C168.7,345,168.2,345.1,167.8,345.4z"/>
				</g>
				<path class="st3" d="M161.3,381.8c-0.4,0.1-0.9,0.1-1.3,0c-0.4-0.3-0.8-0.6-0.8-1l-4-27.5c0-0.3,0-0.4,0.1-0.5l1.3,0.5
					c-0.1,0.3-0.3,0.5-0.3,0.8l3.9,27.3c0,0.4,0.3,0.6,0.6,0.6C161,381.9,161.2,381.9,161.3,381.8z"/>
				<g class="st20">
					<path d="M161.3,381.8c-0.4,0.1-0.9,0.1-1.3,0c-0.4-0.3-0.8-0.6-0.8-1l-4-27.5c0-0.3,0-0.4,0.1-0.5l1.3,0.5
						c-0.1,0.3-0.3,0.5-0.3,0.8l3.9,27.3c0,0.4,0.3,0.6,0.6,0.6C161,381.9,161.2,381.9,161.3,381.8z"/>
				</g>
				<path class="st3" d="M156.9,353c-0.4,0.3-0.5,0.6-0.5,1l3.9,27.3c0.1,0.5,0.5,0.8,1.1,0.5l11.9-6.9c0.4-0.3,0.6-0.6,0.6-1.1
					l-3.9-27.5c0-0.4-0.4-0.5-0.8-0.4L156.9,353z"/>
				<g class="st7">
					<path d="M156.9,353c-0.4,0.3-0.5,0.6-0.5,1l3.9,27.3c0.1,0.5,0.5,0.8,1.1,0.5l11.9-6.9c0.4-0.3,0.6-0.6,0.6-1.1l-3.9-27.5
						c0-0.4-0.4-0.5-0.8-0.4L156.9,353z"/>
				</g>
				<path class="st15" d="M157.7,354.7c-0.4,0.3-0.6,0.6-0.5,1.1l3.5,24.5c0,0.3,0.3,0.5,0.5,0.4c0.1,0,0.3,0,0.3-0.1l11.3-6.5
					c0.4-0.3,0.6-0.6,0.5-1.1l-3.5-24.5c0-0.4-0.4-0.5-0.8-0.4L157.7,354.7z"/>
				<path class="st1" d="M168.9,355.5l-3.1,1.6c-0.5,0.3-0.9,0.3-0.9-0.1c-0.1-0.3,0.3-0.8,0.8-1l3.1-1.8c0.5-0.3,0.9-0.3,0.9,0.1
					C169.7,354.9,169.3,355.3,168.9,355.5z"/>
				<path class="st1" d="M169.2,357.7l-3,1.6c-0.5,0.3-0.9,0.3-0.9-0.1c-0.1-0.3,0.3-0.8,0.8-1l3-1.8c0.5-0.3,0.9-0.3,0.9,0.1
					C169.9,357,169.7,357.4,169.2,357.7z"/>
				<path class="st1" d="M169.8,362.3l-3.1,1.6c-0.5,0.3-0.9,0.3-0.9-0.1c-0.1-0.3,0.3-0.8,0.8-1l3.1-1.8c0.5-0.3,0.9-0.3,0.9,0.1
					C170.6,361.5,170.3,361.9,169.8,362.3z"/>
				<path class="st1" d="M170.2,364.3l-3.1,1.6c-0.5,0.3-0.9,0.3-0.9-0.1c-0.1-0.3,0.3-0.8,0.8-1l3.1-1.8c0.5-0.3,0.9-0.3,0.9,0.1
					C171.1,363.7,170.7,364,170.2,364.3z"/>
				<path class="st1" d="M170.8,368.9l-3,1.8c-0.5,0.3-0.9,0.3-0.9-0.1c-0.1-0.3,0.3-0.8,0.8-1l3-1.8c0.5-0.3,0.9-0.3,0.9,0.1
					C171.7,368.2,171.3,368.7,170.8,368.9z"/>
				<path class="st1" d="M171.2,370.9l-3.1,1.8c-0.5,0.3-0.9,0.3-0.9-0.1c-0.1-0.3,0.3-0.8,0.8-1l3.1-1.6c0.5-0.3,0.9-0.3,0.9,0.1
					C172.1,370.3,171.7,370.7,171.2,370.9z"/>
				<path class="st1" d="M159.4,358.8l4.3-2.5c0.1-0.1,0.3-0.1,0.4,0c0,0,0.1,0.1,0,0.3l0.5,4.1c0,0.3-0.1,0.5-0.4,0.6l-4.3,2.4
					c-0.1,0.1-0.4,0.1-0.4,0v-0.1l-0.5-4.1C159,359.3,159.2,358.9,159.4,358.8z"/>
				<path class="st1" d="M160.4,365.3l4.3-2.5c0.1-0.1,0.3-0.1,0.4,0v0.1l0.5,4.1c0,0.3-0.1,0.5-0.4,0.6l-4.3,2.4
					c-0.1,0.1-0.4,0-0.4-0.1v-0.1l-0.6-4.1C160,365.8,160.2,365.5,160.4,365.3z"/>
				<path class="st1" d="M161.3,371.9l4.3-2.5c0.1-0.1,0.4,0,0.4,0.1v0.1l0.5,4.1c0,0.3-0.1,0.5-0.4,0.6l-4.3,2.4
					c-0.1,0.1-0.3,0.1-0.4,0v-0.1l-0.6-4.1C160.9,372.3,161,372.1,161.3,371.9z"/>
				<path class="st14" d="M157.8,356v-0.1c0,0,0,0,0-0.1l0,0l0,0V356L157.8,356L157.8,356C157.8,356,157.8,356.2,157.8,356z"/>
				<path class="st14" d="M158,356v-0.3v-0.1l0,0l0,0V356C157.9,356,157.9,356,158,356L158,356C157.9,356,158,356,158,356z"/>
				<path class="st14" d="M158.2,355.9v-0.4c0,0,0,0,0-0.1l0,0l0,0V355.9L158.2,355.9L158.2,355.9L158.2,355.9z"/>
				<path class="st14" d="M158.3,355.9l-0.1-0.6c0,0,0,0,0-0.1l0,0l0,0L158.3,355.9C158.3,355.8,158.3,355.9,158.3,355.9
					L158.3,355.9L158.3,355.9z"/>
				<path class="st14" d="M158.7,355.7L158.7,355.7L158.7,355.7h-0.1l0,0v-0.1l0.1-0.5l0,0l0,0l0,0l0,0l0,0v0.4l0,0l0,0l0,0l0,0l0,0
					l0,0l0,0V355.7L158.7,355.7L158.7,355.7L158.7,355.7L158.7,355.7z M158.7,355.4v-0.3V355.4L158.7,355.4z"/>
				<path class="st14" d="M158.9,355.5c0,0-0.1-0.1-0.1-0.3c0-0.1,0-0.1,0-0.3s0.1-0.1,0.1-0.1h0.1h0.1l0,0l0,0c0,0,0,0-0.1,0
					l-0.1,0.1v0.1C158.9,355.3,158.9,355.3,158.9,355.5c0.1-0.1,0.1-0.1,0.1-0.1l0,0l0,0v-0.1h-0.1l0,0v-0.1l0,0l0.1-0.1l0,0l0,0
					v0.3l0,0C159,355.4,159,355.4,158.9,355.5L158.9,355.5z"/>
				<path class="st14" d="M169.1,349C169.1,349,168.9,349,169.1,349l-0.5,0.3c0,0-0.1,0.1,0,0.1v0.4v0.1l0,0l0,0l0.5-0.3
					c0,0,0.1-0.1,0-0.1V349C169.1,349.2,169.1,349,169.1,349z M168.6,349.9L168.6,349.9v-0.4v-0.1l0.5-0.3l0,0l0,0v0.4v0.1
					L168.6,349.9L168.6,349.9z"/>
				<path class="st14" d="M168.8,349.3v0.4l-0.3,0.1l0,0l0,0v-0.3v-0.1L168.8,349.3z"/>
				<path class="st14" d="M169.1,349.2L169.1,349.2v0.1c0,0.1,0,0.1,0,0.1l0,0V349.2L169.1,349.2z"/>
				<path class="st14" d="M159.8,354.9c0,0.1,0,0.1-0.1,0.3c0,0-0.1,0-0.1-0.1C159.5,355,159.5,354.9,159.8,354.9
					C159.7,354.8,159.8,354.8,159.8,354.9z"/>
				<path class="st14" d="M159.7,354.7c-0.1,0.1-0.1,0.1-0.3,0.3c0,0,0,0,0,0.1l0,0l0,0C159.5,354.8,159.5,354.8,159.7,354.7
					c0,0.1,0.1,0.1,0.1,0.1l0,0l0,0l0,0c0,0,0,0,0-0.1C159.8,354.7,159.7,354.5,159.7,354.7L159.7,354.7z"/>
				<path class="st14" d="M159.5,354.4c-0.1,0.1-0.3,0.3-0.3,0.5v0.1l0,0l0,0C159.4,354.7,159.4,354.5,159.5,354.4
					c0.1,0,0.3,0,0.3,0.1l0,0l0,0c0,0,0,0,0-0.1C159.9,354.4,159.7,354.3,159.5,354.4z"/>
				<path class="st14" d="M163.3,352.9L163.3,352.9L163.3,352.9l-0.1-0.5l-0.1,0.1l0,0l0,0l0,0l0,0l0.1-0.3h0.1V352.9z"/>
				<path class="st14" d="M163.4,352.5L163.4,352.5L163.4,352.5L163.4,352.5L163.4,352.5L163.4,352.5L163.4,352.5L163.4,352.5
					L163.4,352.5L163.4,352.5L163.4,352.5z M163.4,352.8L163.4,352.8L163.4,352.8L163.4,352.8L163.4,352.8L163.4,352.8L163.4,352.8
					L163.4,352.8L163.4,352.8z"/>
				<path class="st14" d="M163.8,352.7L163.8,352.7L163.8,352.7L163.8,352.7h-0.1l0,0l0,0l0,0l0,0l0.1-0.5l0,0l0,0l0,0l0,0l0,0
					V352.7L163.8,352.7L163.8,352.7L163.8,352.7L163.8,352.7L163.8,352.7L163.8,352.7L163.8,352.7L163.8,352.7L163.8,352.7z
					 M163.8,352.5v-0.3V352.5L163.8,352.5z"/>
				<path class="st9" d="M162.3,350.8l2-1.1c0.1-0.1,0.3,0,0.3,0.1c0,0.1-0.1,0.3-0.3,0.4l-2,1.1c-0.1,0.1-0.3,0-0.3-0.1
					C162.2,351,162.3,350.9,162.3,350.8z"/>
				<path class="st9" d="M165.8,348.8c0,0,0.1,0,0.3,0c0,0,0,0,0,0.1s0,0.3-0.1,0.4c-0.1,0.1-0.3,0-0.3-0.1
					C165.5,349,165.7,348.9,165.8,348.8z"/>
				<path class="st9" d="M166.6,348.4c0.1,0,0.1,0,0.3,0c0,0,0,0,0,0.1s0,0.3-0.1,0.4c-0.1,0.1-0.3,0-0.3-0.1
					C166.4,348.5,166.4,348.4,166.6,348.4z"/>
				<path class="st9" d="M160.2,352c0.1,0,0.1,0,0.3,0c0,0,0,0,0,0.1s0,0.3-0.1,0.4c-0.1,0-0.1,0-0.3,0c0,0,0,0,0-0.1
					C159.9,352.3,160,352.2,160.2,352z"/>
				<path class="st9" d="M160.9,351.7c0.1-0.1,0.3,0,0.3,0.1s0,0.3-0.1,0.4c0,0-0.1,0-0.3,0c0,0,0,0,0-0.1
					C160.8,351.8,160.8,351.7,160.9,351.7z"/>
			</g>
			<path class="st16" d="M153.3,376.8c0-4,0.6-6.1,2.6-7.9c2.6-2.1,3.5-6.1,4.5-6c1.1,0.3,2.3,2.8,0.6,6c-1.8,3.6-2.6,6.1-2.4,8.1
				C159,379.4,153.3,376.8,153.3,376.8z"/>
			<path class="st9" d="M127.1,424.9c-13.5,12.5-34.5,12-47.6-1.1v-10l0.3-3.5l0,0l2.3-28.7c5.3-1.5,10.6-2.5,16-3.3
				c4.6-0.5,9.3-0.3,13.8,0.6c8.8,1.5,12.6,1.1,13.6,16.4C126.1,401.8,126.8,413.9,127.1,424.9z"/>
			<g>
				<path d="M95.1,365.7l-0.3-4.5c0,0,2.9-4,3.3-7.3c0.4-4.3-0.5-6-0.5-6c-1.5-1.1-4.8-3.9-6.8-4c-2.8-0.3-4.4,3.8-4.6,5.3
					c-1,5-0.1,10.3,2.3,14.6c1.3,2.4,4.1,4.9,5.3,8.4C94.6,370.1,95.1,367.8,95.1,365.7z"/>
				<path d="M90.8,343.4c-1.6,6.6,12,20.5,18.8,20.4c6.8-0.1,11.4-9,11.4-15.8c-0.1-6.8-3.4-11.5-13.1-12.4
					C101,335,92.3,337.3,90.8,343.4z"/>
				<path class="st16" d="M89.3,367.4c1.4,0.6,3.1,0.4,4.1-0.8l0.5,14c1.1,2.1,2.9,3.8,5,4.8c3.4,1.5,7.6,2.1,10.5,1
					c2.9-1.1,4.3-3.3,0.3-6.8l-0.1-4.1c1.6,0.1,3.1,0.1,4.8,0c3-0.5,4.9-2.9,5.8-6.1c1.4-5.3,1-13.1-1.1-23.4
					c-3.4-2.6-14.5-2.9-21.5,1.6c0.4,6-0.5,8.1-0.8,9s-1.4,3.3-2.1,3.4c-1.5,0.3-1.6-1.4-2.6-2.3c-1.8-1.3-4.3-0.9-5.5,1
					c-0.1,0.3-0.3,0.5-0.4,0.8C84.6,362.8,87.3,366.7,89.3,367.4z"/>
				<path class="st17" d="M109.6,375.7c-4.8-0.5-10.8-2.6-12.4-4.9c-0.9-1.3-1.6-2.6-2.1-4c0,0,0.3,3.8,1.4,5.8
					c1.1,1.9,5.6,5.1,13.1,5.6V375.7z"/>
				<path class="st9" d="M106.7,357.8c0,0.8-0.5,1.4-1.4,1.4l0,0c-0.8,0-1.4-0.5-1.5-1.4c0-0.8,0.5-1.4,1.4-1.5
					C106,356.3,106.6,356.9,106.7,357.8L106.7,357.8z"/>
				<path class="st9" d="M106.5,352.2l-3,1.4c-0.4-0.9,0-1.9,0.9-2.3C105.1,350.9,106.1,351.4,106.5,352.2L106.5,352.2z"/>
				<path class="st9" d="M118.4,353.3l-3.3-0.8c0.1-0.9,1-1.4,1.9-1.3c0,0,0,0,0.1,0C118,351.4,118.6,352.4,118.4,353.3z"/>
				<path class="st9" d="M118.6,357.5c0,0.8-0.6,1.4-1.4,1.4l0,0c-0.8,0-1.4-0.5-1.5-1.4c0-0.8,0.5-1.4,1.4-1.5
					C117.9,356,118.5,356.7,118.6,357.5L118.6,357.5z"/>
				<path class="st0" d="M100,353.4L89.6,357c1.1-0.1,2.3,0.5,3,1.4l7.4-2.8V353.4z"/>
				<path class="st0" d="M123.9,352.9l-0.6-0.1c-2.3-0.3-4.6-0.1-6.8,0.4c-2.1,0.8-3,1.5-4.1,1.5c-1.3,0-2.1-0.8-4.4-1.4
					c-2.4-0.4-4.9-0.5-7.3-0.1l-0.8,0.1c-0.5,0.1-0.9,0.8-0.9,1.3c0.1,0.5,0.3,1,0.6,1.4c0.1,0.1,0.3,0.4,0.3,0.6
					c0.1,1.4,0.4,2.6,0.8,3.9c0.3,0.5,0.5,1,0.9,1.4c0.1,0.1,0.3,0.3,0.5,0.4l0.3,0.1c0.3,0.1,0.5,0.3,0.8,0.4h0.1
					c0.1,0,0.1,0,0.3,0.1c0.1,0,0.1,0,0.3,0c0.3,0,0.5,0.1,0.8,0.1h0.3h0.4c2.1,0.1,4.1-1.1,5-3c0.8-1.5,0.6-3.6,2-3.6h0.1h0.1
					c1,0.3,0.9,2.1,1.5,3.5c0.3,0.5,0.5,1,0.9,1.5c0.1,0.1,0.1,0.1,0.3,0.3l0.1,0.1l0.1,0.1l0.1,0.1l0.1,0.1l0.1,0.1h0.1
					c0.4,0.3,0.8,0.4,1.1,0.5h0.1c0.5,0.1,1,0.1,1.5,0.1c1.9,0.1,3.6-1,4.3-2.8c0.4-1.3,0.8-2.6,0.9-4c0-0.3,0.1-0.4,0.3-0.5
					c0.4-0.4,0.6-0.9,0.6-1.5C124.6,353.5,124.2,353,123.9,352.9z M109.5,358.8c-0.1,0.8-0.5,1.5-1.1,2.1c-0.9,0.9-2,1.4-3.3,1.3
					c-1.3,0.1-2.4-0.5-3.1-1.5l-0.1-0.1l-0.1-0.1l-0.1-0.1v-0.1c0,0,0,0,0-0.1v-0.1c0,0,0-0.1-0.1-0.1c-0.1-0.1-0.1-0.3-0.1-0.5l0,0
					c0-0.1,0-0.1-0.1-0.3c-0.1-0.1-0.1-0.3-0.1-0.4s0-0.1,0-0.1s0,0,0-0.1c-0.3-1-0.5-3.1,0.1-3.5c0.5-0.5,1.9-1,4.1-0.8h0.3
					c0.4,0,0.6,0.1,1,0.1l0.4,0.1c0.4,0.1,0.6,0.1,1,0.3l0.3,0.1c0.1,0,0.3,0.1,0.4,0.1h0.1h0.1c0.3,0.1,0.5,0.4,0.6,0.5
					C109.9,356.2,109.7,357.5,109.5,358.8z M122.4,358c-0.3,0.8-0.6,2.6-2.1,3.4c-0.5,0.3-1.1,0.4-1.6,0.4c-1.3,0.1-2.5-0.4-3.3-1.5
					l0,0c0,0,0,0-0.1-0.1V360l0,0c0-0.1-0.1-0.1-0.1-0.1s-0.1-0.1-0.1-0.3c0,0,0,0,0-0.1l0,0v0c0,0,0,0,0-0.1
					c-0.1-0.3-0.1-0.5-0.3-0.8c-0.3-1.1-0.3-2.5,0.1-3.1c0.5-0.6,2.1-1.4,3.6-1.6c0.4,0,0.8-0.1,1-0.1h0.9h0.3c0.1,0,0.4,0,0.5,0.1
					h0.1l0,0h0.1h0.1h0.1l0.3,0.1l0,0c0.3,0.1,0.4,0.3,0.5,0.4C123,354.9,122.6,357,122.4,358z"/>
				<path class="st17" d="M117.2,363l-4.9,1.3l-0.8-7.6c0.1-0.1,0.4-0.3,0.6-0.3h0.1h0.1c0.1,0,0.3,0,0.3,0.1
					C112.7,356.7,117.2,363,117.2,363z"/>
				<path class="st17" d="M107.1,366.3l5.6,1.3c-0.3,1.5-1.8,2.6-3.3,2.4h-0.1C107.7,369.4,106.7,367.8,107.1,366.3z"/>
				<path class="st21" d="M107.7,367.2c-0.3,0-0.5,0-0.8,0c0.1,1.3,1,2.3,2.3,2.6c0.3,0,0.6,0,0.9,0
					C110.2,368.4,109.1,367.3,107.7,367.2z"/>
			</g>
			<path class="st16" d="M89.5,436c2.3,1.3,5.5,0.8,8.9,1.6c3.4,0.9,5.6,2.5,8,3c0.5,1-1.1,2.3-2.4,2.3c-2.1,0.1-4.8-0.8-4.5,0.1
				c0.1,1.4,3.4,2.9,4.4,3.3c3,1.4,7,1.8,9.4,4.4c0.3,0.3,0.5,0.6,0.5,1c-0.1,0.5-0.5,0.9-1,1c-0.5,0-1,0-1.5,0s-1,0.1-1.4,0.5
				c-0.3,0.4-0.4,0.9-0.6,1.3c-0.3,0.3-0.5,0.4-0.8,0.4c-0.5,0.1-1.1,0.3-1.6,0.3c-0.5,0-0.9,0-1.4,0c-0.9,0-1.9,0.1-2.8,0.5
				c-3.1,1.4-6.8-0.1-9.6-1.5c-6.1-2.9-8-5.5-11-8c-3.9-3.5-11.5-10.4-17.3-16.3c-6.3-6.5-7.1-7.8-3.9-16.1
				c3.3-8.8,3.9-10.4,7.1-16.6c4.3-8.3,5.6-12.8,14.4-14.6c2.6,2.5,4.4,9.6,0.9,23.2L77.1,419C76.8,418.7,87.3,434.8,89.5,436z"/>
			<path class="st3" d="M84.1,405.1l-6.6,12.5c-3.3,0-12.8-3.9-15.1-9.1c3.5-8.8,4.5-10.9,7.3-16.6c3.8-7.9,6.9-9.4,14.9-10.9
				C88.8,389.1,85.2,402.3,84.1,405.1z"/>
			<path class="st18" d="M84.1,405.1l-6.6,12.5c-3.3,0-12.8-3.9-15.1-9.1c3.5-8.8,4.5-10.9,7.3-16.6c3.8-7.9,6.9-9.4,14.9-10.9
				C88.8,389.1,85.2,402.3,84.1,405.1z"/>
		</g>
		<circle class="st3" cx="206" cy="313.9" r="2.1"/>
		<polygon class="st3" points="131.1,378.8 130.4,378.2 186.6,313.4 206,313.4 206,314.4 187,314.4 		"/>
	</g>
</g>
<g id="freepik--character-4--inject-26">
	<g>
		<circle class="st0" cx="430.1" cy="259" r="35"/>
		<path class="st3" d="M430.1,224.9c18.9,0,34.2,15.3,34.2,34.2c0,18.9-15.3,34.2-34.2,34.2c-18.9,0-34.2-15.3-34.2-34.2l0,0
			C396,240.1,411.2,224.9,430.1,224.9C430,224.9,430,224.9,430.1,224.9 M430.1,223c-19.9,0-36,16.1-36,36s16.1,36,36,36
			c19.9,0,35.9-16.1,36-35.9C466,239.1,449.9,223,430.1,223L430.1,223z"/>
		<g>
			<g id="freepik--Ponytail--inject-26">
				<path class="st11" d="M450.3,265.1c-5.1,1.4-13,1.4-16.9-3c-3.6-4.3-3.9-8.9-4-14.1c0-0.6-0.1-1.4-0.3-2
					c-0.5-1.8-0.8-3.5-0.9-5.4c-0.3-1.9-0.4-3.6-0.4-5.5c-0.1-3.6,0-7.3,0.4-10.8c0.1-2,0.5-3.9,1.1-5.8s1.9-3.5,3.5-4.5
					c1.3-0.8,2.8-1.3,4.3-1.3c3.5,0,6.9,1.8,9,4.6c2,3,2.1,6.8,2.3,10.4c0.4,11.9,1.3,23.8,2.9,35.7c0.1,0.4,0,0.9-0.3,1.3
					C450.8,264.9,450.5,265.1,450.3,265.1z"/>
				<path class="st3" d="M432.2,215.5c0.9-0.9,4.8-0.4,7,2c2.3,2.4,3,5.9,1.6,6.9S430.7,218.1,432.2,215.5z"/>
			</g>
			<path class="st3" d="M418.9,259l-2,21.8c0,0-2.9,3.4-5.6,6.5c-5-3.4-9-7.9-11.6-13.3c2.1-3.4,4.3-6.4,5.4-7.8
				C408.3,261.9,409.8,259.8,418.9,259z"/>
			<path class="st22" d="M418.9,259l-2,21.8c0,0-2.9,3.4-5.6,6.5c-5-3.4-9-7.9-11.6-13.3c2.1-3.4,4.3-6.4,5.4-7.8
				C408.3,261.9,409.8,259.8,418.9,259z"/>
			<path class="st15" d="M451,276.1c-0.8,3.1-1.8,7.4-2.6,11.9c-4.9,3.1-10.4,4.9-16.1,5.3c-0.8,0-1.5,0.1-2.1,0.1
				c-6.8,0-13.4-2-19-5.8c-1.1-0.8-2.1-1.5-3.1-2.4c-1.5-1.3-2.9-2.6-4.1-4.1c0-0.1,0-0.3,0-0.4c-0.1-5.1,1.3-8,5.9-13.9
				c2.4-3,4.9-5.9,7.5-8.5c0.1-0.1,0.1-0.1,0.3-0.3l0.1-0.1l0.1-0.1c0.1-0.1,0.1-0.1,0.3-0.3l0.1-0.1l0,0l0,0l13.6-2.1l4.6,1.5
				l7.4,2.3C446,259.5,453.6,264.3,451,276.1z"/>
			<path class="st3" d="M418.2,257.3L418.2,257.3l-0.1,0.1c-0.1,0.1-0.1,0.1-0.3,0.3l-0.1,0.1l-0.1,0.1c-0.1,0.1-0.1,0.1-0.3,0.3
				c-3.1,3.4-6.4,10.5-7.6,15c-0.9,2-1.4,6.4-1.8,11.9c-1.5-1.3-2.9-2.6-4.1-4.1c-0.4-0.4-0.6-0.8-1-1.3c0.3-2.3,0.8-4.5,1.9-6.5
				C406.8,269.1,415,259,418.2,257.3z"/>
			<g class="st23">
				<path d="M418.2,257.3L418.2,257.3l-0.1,0.1c-0.1,0.1-0.1,0.1-0.3,0.3l-0.1,0.1l-0.1,0.1c-0.1,0.1-0.1,0.1-0.3,0.3
					c-3.1,3.4-6.4,10.5-7.6,15c-0.9,2-1.4,6.4-1.8,11.9c-1.5-1.3-2.9-2.6-4.1-4.1c-0.4-0.4-0.6-0.8-1-1.3c0.3-2.3,0.8-4.5,1.9-6.5
					C406.8,269.1,415,259,418.2,257.3z"/>
			</g>
			<path class="st9" d="M422.9,257.7c-2.3,1.5-12.4,8.5-14.5,22.2c0-6,2.3-13.4,4.4-16.8c2.6-4.3,6.1-8.3,10-9.4L422.9,257.7z"/>
			<path class="st3" d="M450.9,286.1c-0.4,0.3-0.8,0.6-1.1,0.9c-0.4,0.3-0.9,0.6-1.4,0.9c-4.9,3.1-10.4,4.9-16.1,5.3
				c0-1.4,0-2.6,0-4c0.1-9.3,4.1-28.5,4.3-31c0-0.6,0-1,0-1.4s0-0.9,0-1.3l5.9,2.5c0,0,4,1,6.5,1.9c3,0.9,2.8,4.5,3.3,8.6
				C452.6,273.1,451.6,279.8,450.9,286.1z"/>
			<g class="st23">
				<path d="M450.9,286.1c-0.4,0.3-0.8,0.6-1.1,0.9c-0.4,0.3-0.9,0.6-1.4,0.9c-4.9,3.1-10.4,4.9-16.1,5.3c0-1.4,0-2.6,0-4
					c0.1-9.3,4.1-28.5,4.3-31c0-0.6,0-1,0-1.4s0-0.9,0-1.3l5.9,2.5c0,0,4,1,6.5,1.9c3,0.9,2.8,4.5,3.3,8.6
					C452.6,273.1,451.6,279.8,450.9,286.1z"/>
			</g>
			<path class="st14" d="M413,220.4c-6.1,0.3-9.8,9.6-5.5,16.1c7.5,11.5,25.7,4.8,25.7,4.8l3.4,9.8c0,0,3.4-3.8,5.8-6.9
				c4.3-5.6,4.6-19-2.1-20.4C441.1,216.7,422.1,208.4,413,220.4z"/>
			<path class="st8" d="M412.8,225.1c-1,2-3.4,5.1-3,16.4c0.3,8.9,3.4,10.8,6.3,11.9c1.4,0.5,3.6,0.5,6.6,0.3l0.1,4.1
				c0,0-5.5,5.1-3.8,15.3c17.1-7.1,17.3-15.8,17.3-15.8l0.5-13.8c0.5,0.9,3.3,2.1,5.4-0.6c2.5-3.3,2-7-0.3-8.4
				c-2.3-1.4-4.9-0.1-6,2.5c-2.4,1-5.6-1.5-5.4-10.8c-2.9-1.5-8.6,0.6-10.5,0.4C417.4,226.3,415.7,223.6,412.8,225.1z"/>
			<path class="st3" d="M440.9,241.5c0.1,0.8-0.4,1.4-1.1,1.5c-0.8,0.1-1.4-0.4-1.5-1.1c-0.1-0.8,0.4-1.4,1.1-1.5l0,0
				C440.1,240.4,440.8,240.9,440.9,241.5L440.9,241.5z"/>
			<path class="st10" d="M422.7,253.5c7.4-1.6,11.6-4.6,12.4-7.6c0,0-0.5,3.9-2.5,5.6c-2.9,2.4-9.8,4-9.8,4L422.7,253.5z"/>
			<path class="st12" d="M418.9,245.8l5.1-1.9c0.6,1.4,0,2.9-1.4,3.5h-0.1C421,247.9,419.4,247.3,418.9,245.8z"/>
			<path class="st13" d="M421.4,247.5c0.4,0,0.8,0,1.1-0.1c1-0.4,1.6-1.3,1.8-2.3C422.9,245.3,421.6,246.3,421.4,247.5z"/>
			<ellipse class="st9" cx="424.2" cy="236.9" rx="1.5" ry="1.5"/>
			<path class="st9" d="M415.2,236.4c0,0.9-0.6,1.5-1.5,1.5s-1.5-0.6-1.5-1.5s0.6-1.5,1.5-1.5l0,0
				C414.5,234.9,415.2,235.6,415.2,236.4z"/>
			<polygon class="st10" points="420.1,233.6 419.2,243.7 414.5,241.8 			"/>
			<path class="st9" d="M411.2,234l3.5-1.3c-0.3-0.9-1.3-1.5-2.3-1.1c0,0,0,0-0.1,0C411.5,232,411,233,411.2,234z"/>
			<path class="st9" d="M427.1,234.5l-3.4-1.5c0.4-0.9,1.4-1.4,2.3-1c0,0,0,0,0.1,0C427,232.4,427.5,233.5,427.1,234.5z"/>
			<path class="st9" d="M436.5,252.7c1.1,0,1.4,0.6,3,2.4c0.9,1,1.8,1.9,2.9,2.8c-1.4,8.5-8,19-10,29c-0.1-8,2.1-19.1,4.1-31.4
				L436.5,252.7z"/>
			<path class="st3" d="M461.9,271.4c-2.5,6.3-6.8,11.6-12.3,15.5c-1.5-2.8-2.6-4.8-2.6-4.8s-5.1-14.1,1.8-22.7
				c5.8,1.4,8.8,3,10.5,6.8C460.2,267.8,461,269.6,461.9,271.4z"/>
			<path class="st22" d="M461.9,271.4c-2.5,6.3-6.8,11.6-12.3,15.5c-1.5-2.8-2.6-4.8-2.6-4.8s-5.1-14.1,1.8-22.7
				c5.8,1.4,8.8,3,10.5,6.8C460.2,267.8,461,269.6,461.9,271.4z"/>
		</g>
		<path class="st3" d="M293.2,268.3c0,1.3,1,2.1,2.1,2.1c1.3,0,2.1-1,2.1-2.1c0-1.1-1-2.1-2.1-2.1l0,0
			C294.1,266.2,293.2,267.2,293.2,268.3z"/>
		<polygon class="st3" points="316.4,268.8 295.3,268.8 295.3,267.9 316.1,267.9 327.9,258.5 396,258.5 396,259.4 328.2,259.4 		"/>
	</g>
</g>
<g id="freepik--character-3--inject-26">
	<g>
		<circle class="st0" cx="67.7" cy="232.1" r="35"/>
		<path class="st3" d="M67.7,198c18.9,0,34.2,15.3,34.2,34.2s-15.3,34.2-34.2,34.2S33.5,251,33.5,232.1l0,0
			C33.5,213.2,48.8,198,67.7,198 M67.7,196.2c-19.9,0-36,16.1-36,36s16.1,35.9,36,35.9s36-16.1,36-36
			C103.6,212.2,87.5,196.2,67.7,196.2z"/>
		<g>
			<g id="freepik--Top--inject-26">
				<path class="st9" d="M98.8,246c-2.3,5.1-5.8,9.6-10.3,13c-0.5,0.4-1,0.8-1.5,1.1c-0.5-0.6-0.9-1.1-0.9-1.1l-4.1-27
					c4.3,0.9,6.3,1.4,9,4C92.8,237.6,95.7,241.6,98.8,246z"/>
				<g id="freepik--top--inject-26">
					<path class="st11" d="M88.6,259c-0.5,0.4-1,0.8-1.5,1.1c-12.3,8.5-28.5,8.1-40.4-1c-0.4-0.3-0.8-0.6-1.1-0.9
						c-1.5-1.3-2.9-2.6-4.1-4.1c0-3,0.3-6.1,0.6-9.1c0.4-2.9,0.6-5.8,0.8-8.6c0-0.5,0-0.8,0-0.8l16.9-6.4l13.8,1l8.5,1.8
						c2.9,2.5,5,7.1,5.8,15.4C88.3,250.4,88.5,254.5,88.6,259z"/>
					<g>
						<path class="st11" d="M54.5,192.7c-2,0.5-3.6,2-4.3,4c-1,2.6,0,7.5,1.3,13.4c1.3,5.9,2,8.4,2.9,10c0.5,1,1.4,1.8,2.5,2.1
							l0.1-6.9l-0.1-4.8c0,0,3.3-4.1,3.6-7.5c0.6-4.4-0.3-6.3-0.3-6.3L54.5,192.7z"/>
						<path class="st11" d="M54.5,192.7c0.8-3.9,6.3-8.4,14-7.6s11.5,3,14,7.6c2.5,4.6,0.6,7.9,0.6,7.9l-23.3-0.9L54.5,192.7z"/>
						<path class="st12" d="M50.8,217c2.5,1.8,4.9-0.8,4.9-0.8l0.5,14.1c0,0-0.4,2.8,3.9,5.3c6,3.6,9.5,2.6,12,6.4
							c2.9-5.3,3.9-8.9-0.6-12.4v-3.3c1.6,0.3,3.4,0.3,5,0.1c3.1-0.4,5.3-2.9,6.3-6.3c1.8-5.4,1.8-15-0.8-24.9
							c-4-3.3-14.4-3.3-21.9,1.3c0.1,6.3-1.8,9-1.8,11.3c-0.4,0.6-0.9,1.3-1.4,1.8c-1.1,1-2-1.6-3-2.8c-0.9-1.1-4-2.5-5.8,0.8
							C46.5,211.1,48.7,215.5,50.8,217z"/>
						<path class="st9" d="M67.8,203.5l-3.3,1.9c-0.5-1-0.1-2.1,0.8-2.6C66.2,202.2,67.3,202.5,67.8,203.5L67.8,203.5z"/>
						<path class="st9" d="M81.3,203.7l-3.6-1.1c0.3-1,1.3-1.5,2.3-1.3h0.1C81.1,201.6,81.6,202.7,81.3,203.7z"/>
						<path class="st9" d="M66.1,207.4c0,0.9,0.6,1.5,1.5,1.5s1.5-0.6,1.5-1.5s-0.6-1.5-1.5-1.5l0,0
							C66.8,205.7,66.1,206.5,66.1,207.4z"/>
						<circle class="st9" cx="79.1" cy="206.6" r="1.5"/>
						<path class="st24" d="M72.2,203.4l1.1,9.4l5.5-1.3C77.4,208.2,75.1,205.4,72.2,203.4z"/>
						<path class="st11" d="M58.3,207.2c0.4,6.8,2.6,7.6,5,8c3.1,0.5,6.1-1,10.5-1.4c3.4-0.3,4.8,1.1,6.6,1.9c1.5,0.6,2.6,0.5,3-1.1
							c0.4-3,0.5-6.1,0.4-9.1c0.5,4,0.6,8.1,0.3,12.3c-0.4,3.1-1.3,6.1-3,7.6c-2.4,2.1-7.5,2.5-13.9,1.1c-6.4-1.3-8.8-3.4-9.5-5.6
							c-2.6-7.3-1.6-10.6-2.5-12C54.3,207.5,58.3,207.2,58.3,207.2z"/>
						<path class="st24" d="M70.1,216.1l4.3,1.1c-0.3,1.1-1.4,1.9-2.5,1.6l0,0C70.6,218.5,69.8,217.4,70.1,216.1z"/>
						<path class="st13" d="M70.6,216.9c-0.1,0-0.4,0-0.5,0c0.1,1,0.8,1.8,1.6,2c0.3,0,0.5,0.1,0.8,0
							C72.4,217.9,71.7,217,70.6,216.9z"/>
						<path class="st9" d="M72.2,242c-1.3-1.5-5.5-3.8-7.5-1.8s-1.4,3.8-2.8,3.6c-1.9-0.1-5.6-3.5-7.5-5.6c-1.4-1.8-2.6-3.6-3.5-5.6
							c1-0.8,2-1.6,2.8-2.6c1-1.5,1.3-2.9,2.4-3l0.1,3.3c0,0,0.8,1.6,4,3.8C63.3,236.4,69.8,237,72.2,242z"/>
						<path class="st9" d="M72.2,242c1-1,2.5-3.4,4.3-3c1.8,0.5,2.6,3.6,2.8,2.6c-0.5-2.9-1.5-5.8-3-8.3c-1.4-2-3.5-5.4-4.6-5.5v2.6
							c0,0,2.9,4.4,2.6,6C73.9,238,72.3,240.5,72.2,242z"/>
					</g>
				</g>
			</g>
			<g id="freepik--Arm--inject-26">
				<path class="st12" d="M45.7,258.3c-1.5-1.3-2.9-2.6-4.1-4.1c-3.5-4-5.9-8.9-7.1-14.1c1.9-1.4,4.5-2.5,8.5-3.9l0.1,0.1
					c1.9,3.3,3.1,6.9,3.5,10.6C46.8,250.9,46.5,254.7,45.7,258.3z"/>
				<path class="st9" d="M47.2,257.4l-0.4,1.8c-1.9-1.5-3.6-3.1-5.1-5c-3.5-4.1-6-9.1-7.3-14.4c2.8-2,6.4-3.3,8.6-4.1
					C49.3,242.2,47.2,257.4,47.2,257.4z"/>
			</g>
		</g>
		<path class="st3" d="M149.8,241.5c0,1.3-1,2.1-2.1,2.1c-1.1,0-2.1-1-2.1-2.1c0-1.1,1-2.1,2.1-2.1
			C148.8,239.4,149.8,240.3,149.8,241.5L149.8,241.5z"/>
		<polygon class="st3" points="147.7,242 126.6,242 114.7,232.6 101.8,232.6 101.8,231.8 115.1,231.8 126.9,241 147.7,241 		"/>
	</g>
</g>
<g id="freepik--character-2--inject-26">
	<g>
		<circle class="st0" cx="350.5" cy="100.9" r="35"/>
		<path class="st3" d="M350.5,66.7c18.9,0,34.2,15.3,34.2,34.2S369.4,135,350.5,135c-18.9,0-34.2-15.3-34.2-34.2l0,0
			C316.4,82.1,331.6,66.7,350.5,66.7L350.5,66.7 M350.5,64.9c-19.9,0-35.9,16.1-35.9,36s16.1,35.9,36,35.9c19.9,0,35.9-16.1,35.9-36
			C386.6,81.1,370.4,64.9,350.5,64.9L350.5,64.9z"/>
		<g>
			<path class="st21" d="M324.1,101.5c-3.1,2.8-15.8,13-15.8,13c-1.8-3.5-3.8-7.8-5.4-11.5c-1.8-4-2.9-8.4-3.4-12.8
				c-0.3-1.6-0.6-3.3-1.1-4.9c-0.5-1.6-0.6-3.4-0.5-5c0.1-0.9-2-1.1-3,1.4c-0.8,1.9-0.6,4-0.9,5.3c-0.9-0.5-2.3-1.5-4.3-2.6
				c-2-1.1-5.1-3.5-6.6-1.3c-0.6,0.9,0,1.9,0,2.1s-0.4,0.5-0.6,0.6c-0.8,0.9-1,2-0.6,3.1c0.1,0.3,0.1,0.5,0.3,0.8
				c0,0.5-0.5,0.9-0.6,1.4c-0.1,0.5-0.1,1.1,0,1.6c0.1,0.8,0.5,1.5,0.6,2.4c0.1,0.5,0.3,1,0.4,1.5c0.3,1,1,2,2,2.5
				c1.3,0.8,2.6,1.5,4.5,2.6c1.5,0.9,2.1,3.3,3.1,7.3c2.5,9.3,2.8,15.3,5,20.3c3,6.5,7.4,5.6,15.6,1c10.1-5.6,17.4-9.5,17.4-9.5
				l8.1-26.2C333.1,94.5,327.2,98.7,324.1,101.5z"/>
			<path class="st11" d="M342.4,92.7c-7,0.3-8.4,1.5-12.5,4.1c-4,2.6-15.9,13-15.9,13c1.3,5.8,4.4,11,8.9,14.9l13.3-7.6L342.4,92.7z
				"/>
			<path class="st13" d="M291.6,87c1.5,0.6,1.9,1.8,1.6,4c-0.1,1.4,0,3.9,1.4,5c-0.8-0.1-1.4-0.5-1.9-1c-0.6-0.8-0.8-0.9-1.3-0.5
				c-0.4,0.3-0.6,0.4-1.1,0.5c0.5,0.6,0.4,1.5,0,2.1c-0.9,1.1-4.4,0.3-6.9-1.4c0,0,4.5,2.3,5.6,1.1c1.1-1.3-1.4-3.8-3-4.4
				c0,0,4.4,2,5.1,0.8c0.8-1.3-1.3-3-3.5-3.9c0,0,3.6,1.5,4.4,0.5C292.8,88.3,292,87.5,291.6,87z"/>
			<path class="st13" d="M308.3,114.5c2.5,4.4,2.8,10.4,2.3,12.5c0,0,2.5-5.6-0.5-13.9L308.3,114.5z"/>
			<path class="st3" d="M375.4,124.3c-11.9,12.8-31.5,14.4-45.4,3.9c0.1-8,0-14.4,0.3-17.6c1.3-13.5,5-17.1,11.9-17.8l11.4-0.9
				c3.4,0.9,15.5,4.9,18.8,6.9c2.3,1.4,3,6.5,3.1,14.9C375.7,117.2,375.7,120.6,375.4,124.3z"/>
			<path class="st14" d="M332.6,61.1c0.4,0.4,0.8,0.6,1.1,0.9c-0.9,0-1.6,0.6-1.9,1.5c-0.3,0.8-0.1,1.6,0.3,2.4c0.4,1,1,2,1.9,2.8
				c1,0.6,2,1.3,3.1,1.6c0.8,0.5,1.4,1,2,1.6c1,0.8,1.9,1.5,2.9,2.3c2,1.4,4,2.8,6.1,3.9c2,1.1,4.1,2.1,6.4,2.9
				c1.9,0.6,3.9,1,5.9,1.1l0.5,5.9c0,0,0.8-1.5,1.8-3.4c0.8-1.6,4.1-9.6,4.1-9.6c1.3-3.1,2.6-6.5,2.4-10c-0.1-2.9-1-5-3.3-6.1
				c0.6-2.6-0.4-5.4-2.6-7c-1.8-1.1-3.6-1.9-5.6-2.1c-2.3-0.3-4.6-0.1-6.9,0.3c-6.4,1-12.9,2.9-19-0.3c-0.1,1,0,2,0.5,2.9
				c0.8,2,2,3.8,3.6,5.3l-3.6-0.5c-0.1,0-0.3,0-0.4,0c-0.1,0.1-0.1,0.3-0.1,0.4C331.4,59.1,331.7,60.2,332.6,61.1z"/>
			<path class="st21" d="M355,58.9c0,2.1,2,5.8,5,8.3c-0.4,2.3-0.5,4.6-0.1,7c0.1,0.5,0.3,1,0.5,1.4c0.3,0.4,0.8,0.8,1.3,0.8
				c0.6,0,1-0.4,1.1-0.9c0.3-0.6,0.6-1.3,1-1.9c0.1-0.3,0.4-0.5,0.6-0.8c1-0.9,4-2.1,5.5,1.1c1.4,3.3-1.1,7.8-3.6,8.5
				c-4.3,1.3-5.1-1.6-5.1-1.6l0.1,14c-1.1,3.5-7.8,7-13,6.4s-3.6-3.9-1.5-6l-0.3-4.9c-1.9,0.3-3.8,0.1-5.6-0.1
				c-2.3-0.4-4.4-2.3-5.4-5.5c-1.8-6.4-1.1-15.6-0.4-19.6c0.8-4,2.9-6.6,4.1-7.3c0,0.9,0.6,2.9,5,3.5
				C348.6,61.7,351.8,60.3,355,58.9z"/>
			<path class="st13" d="M346.5,90.2c3.1-0.3,6.3-1,9.3-2.1c3.3-1.6,3.5-5.1,3.9-6c0,0,0,5.3-2.8,7.3c-3.4,2.5-10.3,2.9-10.3,2.9
				L346.5,90.2z"/>
			<path class="st14" d="M350.4,66.8l3.4,1.6c0.5-1,0-2.1-0.9-2.6C352,65.4,350.9,65.8,350.4,66.8C350.5,66.7,350.5,66.8,350.4,66.8
				z"/>
			<path class="st12" d="M350.1,80.5l-5.5,2c0.5,1.5,2.1,2.4,3.6,1.9l0,0C349.9,83.7,350.6,82.1,350.1,80.5z"/>
			<path class="st13" d="M346.9,84.5c0.1-1.4,1.3-2.5,2.8-2.4c0.3,0,0.5,0,0.6,0.1c-0.3,1-0.9,1.9-1.9,2.3
				C347.9,84.5,347.4,84.6,346.9,84.5z"/>
			<path class="st14" d="M336.8,67.9l3.3-1.8c-0.5-0.9-1.6-1.3-2.5-0.8C336.6,65.9,336.3,67.1,336.8,67.9z"/>
			<polygon class="st13" points="345.3,79 340.3,77.2 346,67.9 			"/>
			<path class="st9" d="M340.4,71.3c0,0.9-0.6,1.5-1.5,1.5s-1.5-0.6-1.5-1.5c0-0.9,0.6-1.5,1.5-1.5l0,0
				C339.8,69.8,340.4,70.4,340.4,71.3z"/>
			<path class="st9" d="M352.4,71.4c0,0.9-0.6,1.5-1.5,1.5s-1.5-0.6-1.5-1.5s0.6-1.5,1.5-1.5l0,0C351.6,69.9,352.4,70.6,352.4,71.4z
				"/>
			<path class="st11" d="M382.6,113c-2.9,7.8-8.5,14.1-15.8,18c-0.8-3.5-2.1-10-2.6-12.4c-0.6-3.4-1.6-17.1,8.3-19.8
				c2.1,1,4.3,2.3,6.1,3.8c0.9,0.9,2.4,1.6,3.4,6.8C382.1,110.2,382.3,111.6,382.6,113z"/>
		</g>
		<polygon class="st3" points="328.6,173.8 328.1,173.1 350.1,156.2 350.1,135 351,135 351,156.7 350.9,156.8 		"/>
		<path class="st3" d="M326.2,173.4c0,1.3,1,2.1,2.1,2.1c1.1,0,2.1-1,2.1-2.1c0-1.1-1-2.1-2.1-2.1l0,0
			C327.2,171.3,326.2,172.3,326.2,173.4z"/>
	</g>
</g>
<g id="freepik--character-1--inject-26">
	<g>
		<circle class="st0" cx="125.4" cy="100.9" r="35"/>
		<path class="st3" d="M125.4,66.7c18.9,0,34.2,15.3,34.2,34.2S144.3,135,125.4,135s-34.2-15.3-34.2-34.2l0,0
			C91.2,82.1,106.6,66.7,125.4,66.7 M125.4,64.9c-19.9,0-36,16.1-36,36s16.1,36,36,36s36-16.1,36-36S145.3,64.9,125.4,64.9z"/>
		<g>
			<path class="st11" d="M147.8,104.4c-1.4,3.9-4.3,7.3-7.5,10c-2.1,1.9-4.5,3.4-7.1,4.5c-2.3,0.9-4.5,1.4-6.8,1.8
				c-9.3,1.5-23.8,1.4-28.7-8.4c-1.3-2.4-1.4-5.3-0.3-7.8c0.8-1.5,2-2.8,2.1-4.4c0.1-2.3-1.8-4-2.4-6.1c-1-3.4,1.5-6.1,4-8
				c3-2.3,3.4-3.6,3.5-6.3c0-1.3-0.4-2.5-0.4-3.6c-0.1-2.6,0.5-5.3,1.8-7.6c1.3-2.1,3.3-3.8,5.6-4.5c0.1,0,25.9-0.6,25.9-0.6
				c0.4,1.5,0.8,3,0.9,4.4c0.4,2.4,1.8,3.8,3.3,5.6c1.5,2.1,3.1,4.3,3.1,6.9c0,2.6-1.9,5.4-1.3,7.9c0.5,1.9,2.1,3.1,3.3,4.6
				C149,96,149.3,100.5,147.8,104.4z"/>
			<path class="st21" d="M136.9,98.4c10.5-1,11.9,0.9,20.9,7c6.1,4.1,14.1,9.5,14.1,9.5s5.4-17.5,5.3-20.1c-0.3-3.1-1.8-4.8-2.5-7.9
				c-0.8-3.3-0.9-5.4-1.8-6.8c-0.9-1.3,1.8-1.9,3-0.3c1.3,1.5,1.6,4,2.3,3.5c0.8-0.5,0.8-5.6-0.3-9.3c-1-3.6,1-4.8,1.9-3.6
				c0.5,0.6,0.9,1.3,1.3,1.9c0.4-0.1,0.6-0.3,1-0.3c0.5-0.1,1-0.1,1.4,0.3c0.4,0.3,0.8,0.8,1.1,1c0.5,0.3,1,0.4,1.5,0.5
				c3.5,1.4,3.8,7.1,4,10.1c0.4,6.4-2.3,9.9-2.9,12.3c-0.3,0.9-0.3,3.8-0.8,9.9c-0.5,7-0.8,14-3.3,21.3c-2.1,6-6.3,5.8-10.6,4
				c-6.4-2.6-24.8-12.8-24.8-12.8C140.4,111,136.9,98.4,136.9,98.4z"/>
			<path class="st13" d="M180.2,84.8c0,0,4.1,2.1,3.5,8.1c0,0,1.9-3.3,0.1-5.8C182.3,84.7,180.2,84.8,180.2,84.8z"/>
			<path class="st13" d="M172.1,114.9c0,0-1.6,3.6-0.5,10c-1.9-3.4-2.1-7.4-0.9-11L172.1,114.9z"/>
			<g id="freepik--Chest--inject-26">
				<path class="st3" d="M152.9,121.1c-11.1,15.1-32.4,18.5-47.7,7.4c-0.6-0.5-1.3-0.9-1.8-1.4c-0.3-3.8-0.3-7.5-0.1-11.3
					c0-2,0.3-4,0.8-6c0.4-1.6,1-3.1,1.9-4.5c1.4-2.1,3.8-3.1,6.3-3.8c2-0.5,4.3-0.8,6.1-1.3l2.6-0.6l11.5-1l4.1-0.4
					c5.3,2.5,12,10,15.1,17.1C152.7,117.2,153,119.1,152.9,121.1z"/>
				<path class="st4" d="M152.9,121.1c-11.1,15.1-32.4,18.5-47.7,7.4c-0.6-0.5-1.3-0.9-1.8-1.4c-0.3-3.8-0.3-7.5-0.1-11.3
					c0-2,0.3-4,0.8-6c0.4-1.6,1-3.1,1.9-4.5c1.4-2.1,3.8-3.1,6.3-3.8c2-0.5,4.3-0.8,6.1-1.3l2.6-0.6l11.5-1l4.1-0.4
					c5.3,2.5,12,10,15.1,17.1C152.7,117.2,153,119.1,152.9,121.1z"/>
			</g>
			<path class="st21" d="M116.4,115.6c-0.5,3.6-2,7.3-3.5,10.6l-2.3,5.3c-5.3-2.5-9.8-6.4-13-11.1c0.9-2.8,2.3-6.3,3.8-9.4
				c2.8-6.1,4-8.5,11.1-9.6C116.4,104,117,110.1,116.4,115.6z"/>
			<g>
				<path class="st11" d="M118.1,93.1c0.3-1-1.9-4.5-3-6.1c-3.5-4.4-5.3-5.5-6.6-11.1c-0.9-3.8-0.3-7.9,3-11.9
					c2.5-6.3,6.6-9.1,13.9-10.1c3.3-0.4,6.5-0.3,9.6,0.4c1.4,0.3,2.8,0.8,4.1,0.9c1.4,0.3,2.9,0.1,4.3-0.4c0.8-0.3,1.5-0.8,2.1-0.4
					c0.4,0.3,0.5,0.6,0.5,1.1c0,1.8-0.9,3.4-2.4,4.4c2.1-0.5,4.3,0.9,4.8,3c0.4,1.8-0.4,3.5-2,4.4c1.1,1.1,1.3,2.8,0.5,4
					c-0.9,1.1-2,2.1-3.4,2.6c-4,2.1-7.4,5.1-10.9,7.9l-10,7.9l-3.3,2.6C119.2,92.2,118.1,93,118.1,93.1z"/>
				<path class="st21" d="M138.4,60.9c3.9,1.6,7.3,4,7.1,17.4c-0.1,10.3-3.4,13.1-5.1,14c-2.5,1-5.3,1.4-7.9,1.1v6.3
					c0,0,10,8.3,6.6,14.4c-16.4-3.9-20.8-13.4-20.8-13.4l-0.6-15c-1.3,1-3,1.1-4.4,0.4c-2.8-1.4-4-4.8-2.6-7.5
					c0.3-0.4,0.5-0.9,0.8-1.3c2-2.3,5.3-1.9,6.6,0.5c0,0-1.6-9.8,4.1-14.1C129.1,58.7,133.9,59.1,138.4,60.9z"/>
				<path class="st13" d="M116.6,78.6v-0.1c-0.1-0.5-0.5-1-0.9-1.4c-0.3-0.3-0.6-0.5-1.1-0.6c-1.1-0.3-2.3,0.1-2.9,1
					c-0.6,0.8-1.1,1.6-1.4,2.6c-0.1-0.6-0.1-1.3,0.1-1.9c0.4-1.1,1.1-2.3,2.3-2.9c1.1-0.6,2.4-0.8,3.5-0.4c1.1,0.5,1.9,1.5,2,2.6
					c0.3,1.4-0.6,2.3-1.5,3.3c-0.1,0.1-0.3,0.3-0.4,0.3c-0.1,0.1-0.4,0-0.5-0.1c-0.1-0.1-0.1-0.4,0-0.6c0.1-0.4,0.4-0.6,0.5-0.9
					C116.5,79.3,116.6,79,116.6,78.6z"/>
				<path class="st15" d="M117,82.7c0,0.3,0,0.5-0.1,0.6c-0.4,0.6-1.3,0.6-1.9,0.4c-0.8-0.3-1.4-0.6-1.9-1.3c-0.9-1-1.3-2.9,0-3.8
					c0.8-0.6,2-0.5,2.5,0.4l0,0c0.3,0.5,0.4,1.1,0.4,1.8c0,0.3,0.1,0.5,0.3,0.8c0.3,0.3,0.4,0.4,0.6,0.8C117,82.6,117,82.6,117,82.7
					z"/>
				<path class="st12" d="M131.8,84.8c-0.3,1.4,0.6,2.6,2,2.9c0.1,0,0.1,0,0.3,0c1.5,0.1,2.9-0.8,3.3-2.3L131.8,84.8z"/>
				<path class="st13" d="M134.9,87.7c0-1.1-1-2.1-2.1-2h-0.1c-0.3,0-0.5,0.1-0.8,0.1c0.3,1,1.1,1.9,2.3,1.9
					C134.3,87.7,134.5,87.7,134.9,87.7z"/>
				<path class="st9" d="M131.6,76.1c0,0.8-0.6,1.4-1.5,1.5c-0.8,0.1-1.4-0.5-1.5-1.1v-0.1c0-0.8,0.6-1.4,1.5-1.5
					C130.9,74.7,131.5,75.3,131.6,76.1L131.6,76.1z"/>
				<path class="st9" d="M142.4,74.8c0,0.8-0.6,1.4-1.5,1.5c-0.8,0.1-1.4-0.5-1.5-1.1v-0.1c0-0.8,0.6-1.4,1.5-1.5
					c0.8-0.1,1.4,0.5,1.5,1.1C142.4,74.7,142.4,74.7,142.4,74.8z"/>
				<polygon class="st13" points="135.5,73.8 136.4,81.8 141.4,80.3 				"/>
				<path class="st13" d="M132.5,93.5c-3-0.3-9.8-1.4-12.6-6.1c0.4,1.8,1.3,3.5,2.5,4.8c2.9,2.8,10.1,3.8,10.1,3.8V93.5z"/>
				<path class="st9" d="M130,71.4l-3.1,2.5c-0.6-0.9-0.5-2.1,0.4-2.8C128.1,70.4,129.4,70.6,130,71.4z"/>
				<path class="st9" d="M143.1,71.4l-3.8-1.3c0.4-1,1.5-1.6,2.6-1.3c1,0.3,1.5,1.4,1.3,2.4C143.3,71.3,143.3,71.3,143.1,71.4z"/>
				<path class="st11" d="M134.8,65.1c-1.8,0.4-3.8-2.1-7.1-0.9c-3.6,1.5-2.5,5.3-5.1,7.5c-2,1.8,0,6.1-2.1,7.1
					c-0.9,0.5-2.3-0.9-2.3-0.9s-1.9-2.5-1.4-8.5s8.8-10.5,14.9-11.1c6.1-0.6,12.4,2.8,12.4,8.1c0,0-1.5-3.3-4.4-3.5
					C136.9,62.8,136.3,64.7,134.8,65.1z"/>
			</g>
		</g>
		<polygon class="st3" points="219.6,229.4 125,156.7 125,135 125.9,135 125.9,156.2 220.2,228.6 		"/>
		<path class="st3" d="M222.1,229c0,1.3-1,2.1-2.1,2.1c-1.3,0-2.1-1-2.1-2.1c0-1.3,1-2.1,2.1-2.1l0,0
			C221.1,226.9,222,227.9,222.1,229z"/>
	</g>
</g>
</svg>
