<?xml version="1.0" encoding="utf-8"?>
<!-- Generator: Adobe Illustrator 23.0.2, SVG Export Plug-In . SVG Version: 6.00 Build 0)  -->
<svg version="1.1" id="Layer_1" xmlns="http://www.w3.org/2000/svg" xmlns:xlink="http://www.w3.org/1999/xlink" x="0px" y="0px"
	 viewBox="0 0 500 500" style="enable-background:new 0 0 500 500;" xml:space="preserve">
<style type="text/css">
	.st0{fill:#F9F717;}
	.st1{opacity:0.3;enable-background:new    ;}
	.st2{fill:#FFFFFF;}
	.st3{fill:#CFD8DC;}
	.st4{fill:#EBEBEB;}
	.st5{fill:#FFDC9F;}
	.st6{fill:#263238;}
	.st7{fill:#F4BE67;}
	.st8{opacity:0.7;fill:#FFFFFF;enable-background:new    ;}
	.st9{opacity:0.2;enable-background:new    ;}
	.st10{opacity:0.7;}
	.st11{fill:#4D67FF;}
	.st12{fill:#7F3E3B;}
	.st13{opacity:0.1;enable-background:new    ;}
	.st14{fill:#FF4A5F;}
	.st15{opacity:0.5;fill:#FFFFFF;enable-background:new    ;}
</style>
<g id="freepik--Emails--inject-36">
	<path class="st0" d="M262.5,80.1v56.7c0,3.4-2.7,6.2-6.4,6.4h-97c-3.4,0-6.2-2.7-6.4-6.4V80.1c0-0.8,0.1-1.7,0.5-2.4
		c1-2.4,3.3-4,5.9-4H256c2.6,0,5,1.5,5.9,4C262.5,78.6,262.6,79.3,262.5,80.1z"/>
	<path class="st1" d="M262,77.8l-51.7,42.8c-1.5,1.2-3.6,1.2-5.1,0l-51.8-42.8c1-2.4,3.3-4,5.9-4h96.9C258.9,74,261,75.4,262,77.8z"
		/>
	<path class="st2" d="M224.6,43.7H173v50.4l32,26.7c1.5,1.2,3.6,1.2,5.1,0l32-26.7V55L224.6,43.7z"/>
	<path class="st3" d="M207.7,122.6c-1.1,0-2.2-0.5-3.2-1.1l-32-26.7c-0.1-0.1-0.2-0.5-0.2-0.7V43.7c0-0.6,0.5-1,1-1l0,0h51.5
		c0.1,0,0.2,0,0.5,0.1L243.1,54c0.2,0.1,0.5,0.5,0.5,0.8v39.3c0,0.2-0.1,0.6-0.2,0.7l-32.2,26.7C210,122.2,208.9,122.6,207.7,122.6z
		 M173.9,93.7l31.8,26.5c1.1,1,3,1,4,0l31.8-26.5V55.5l-17.3-10.8h-50.3V93.7z"/>
	<polygon class="st4" points="242.4,54.9 224.6,43.7 230.4,58.6 	"/>
	<path class="st3" d="M230.4,59.4c-0.5,0-0.7-0.2-0.8-0.6l-5.8-15c-0.1-0.5,0.1-1,0.6-1.1c0.2-0.1,0.6,0,0.8,0.1L243,54.1
		c0.2,0.1,0.5,0.6,0.5,0.8c0,0.5-0.2,0.7-0.7,0.7l-12.1,3.6C230.5,59.4,230.4,59.4,230.4,59.4z M226.4,45.9l4.5,11.6l9.4-3
		L226.4,45.9z"/>
	<path class="st3" d="M221.8,91.5h4c-1.5,2.6-3.7,4.7-6.4,6.1c-3.4,1.8-7.4,2.6-11.2,2.5c-3.7,0.1-7.4-0.7-10.8-2
		c-2.7-1.2-5.1-3.4-6.4-6.4s-1.8-5.9-1.5-9c0.2-3.6,1.4-7,3.3-10.1c1.8-3,4.4-5.3,7.5-6.9c3.2-1.5,6.8-2.4,10.3-2.4
		c3,0,5.8,0.6,8.4,1.9c2.4,1.1,4.2,3.1,5.3,5.3c1.2,2.4,1.7,5,1.5,7.6c-0.2,3.3-1.5,6.4-3.7,8.9c-2.4,3.2-6.1,5-10.1,5
		c-0.8,0-1.7-0.1-2.4-0.6c-0.6-0.5-0.8-1-1-1.7c-1.5,1.4-3.3,2.2-5.3,2.2c-1.9,0.1-3.9-0.7-5.1-2.2c-1.4-1.7-1.9-3.7-1.7-5.9
		c0.2-3.1,1.4-5.8,3.2-8.2c1.8-2.7,4.9-4.4,8.2-4.5c1.9-0.1,3.9,0.8,4.9,2.6l0.7-2h5.1l-4,13.7c-0.1,0.6-0.2,1.1-0.5,1.7
		c0,0.2,0,0.6,0.1,0.7c0.1,0.1,0.2,0.2,0.6,0.2c1-0.1,1.8-0.6,2.5-1.1c1.4-1,2.6-2.4,3.4-3.9c1-1.5,1.4-3.3,1.7-5.1
		c0.2-3-0.7-5.8-2.7-7.8c-2.2-2-5.3-3.2-9.4-3.2c-3.2-0.1-6.2,0.7-9,2c-2.5,1.4-4.5,3.4-5.9,5.9c-1.4,2.5-2.2,5.1-2.5,8.1
		c-0.2,2.5,0.2,5.1,1.5,7.4c1.1,2.2,3.1,3.9,5.3,4.9c2.6,1.1,5.6,1.5,8.3,1.5c2.7,0,5.3-0.5,8.1-1.2
		C218.3,94.4,220.3,93.2,221.8,91.5z M201.7,83.6c-0.2,1.2,0,2.5,0.7,3.6c0.6,0.7,1.4,1.1,2.4,1.1c0.7,0,1.4-0.1,2-0.6
		c0.6-0.2,1.1-0.7,1.5-1.2c0.8-1,1.5-2.2,2-3.4c0.6-1.4,1-2.7,1.1-4.2c0.1-1.1-0.1-2.4-0.7-3.3c-0.6-0.8-1.5-1.2-2.5-1.1
		c-1.1,0-2.4,0.5-3.2,1.2c-1.1,1-1.9,2.2-2.4,3.6C202.2,80.7,201.9,82,201.7,83.6z"/>
	<path class="st0" d="M189.8,217.3V268c0,3.2-2.5,5.7-5.7,5.7H97.3c-3.2,0-5.7-2.5-5.7-5.7v-50.8c0-0.7,0.1-1.4,0.5-2
		c0.8-2,3-3.6,5.2-3.6h86.9c2.4,0,4.4,1.4,5.2,3.4C189.7,215.9,189.8,216.6,189.8,217.3z"/>
	<path class="st1" d="M189.5,215.2l-46.3,38.4c-1.4,1.1-3.3,1.1-4.5,0l-46.3-38.4c0.8-2,3-3.6,5.2-3.6h86.9
		C186.5,211.6,188.6,213,189.5,215.2z"/>
	<path class="st2" d="M155.9,184.6h-46v45.2l28.7,24c1.4,1.1,3.3,1.1,4.5,0l28.7-24v-35.1L155.9,184.6z"/>
	<path class="st3" d="M140.9,255.3c-1,0-2-0.5-2.7-1l-28.7-24c-0.1-0.1-0.2-0.5-0.2-0.6v-45.1c0-0.5,0.5-0.8,0.8-0.8h46
		c0.1,0,0.2,0,0.5,0.1l16,10.1c0.2,0.1,0.5,0.5,0.5,0.7v35.1c0,0.2-0.1,0.5-0.2,0.6l-28.7,24C142.8,254.9,141.9,255.3,140.9,255.3z
		 M110.7,229.4l28.5,23.6c1.1,0.8,2.5,0.8,3.6,0l28.5-23.6v-34.3l-15.4-9.7h-45.1L110.7,229.4z"/>
	<polygon class="st4" points="171.9,194.7 155.9,184.6 161.1,198 	"/>
	<path class="st3" d="M161.1,198.8c-0.2,0-0.6-0.2-0.7-0.6l-5.2-13.4c-0.1-0.2,0-0.7,0.2-1c0.2-0.1,0.7-0.1,1,0l16,10.1
		c0.2,0.1,0.5,0.5,0.5,0.8c0,0.2-0.2,0.6-0.6,0.7l-10.8,3.3C161.2,198.8,161.1,198.8,161.1,198.8z M157.6,186.6l4,10.3l8.4-2.5
		L157.6,186.6z"/>
	<path class="st3" d="M153.5,227.4h3.6c-1.4,2.4-3.3,4.3-5.7,5.3c-3.2,1.5-6.6,2.4-10.1,2.2c-3.3,0.1-6.6-0.6-9.7-1.9
		c-2.5-1.1-4.5-3.2-5.7-5.7c-1.1-2.5-1.7-5.3-1.4-8.2c0.2-3.2,1.2-6.2,3-9c1.7-2.6,4-4.9,6.8-6.2c3-1.4,5.9-2,9.3-2
		c2.6,0,5.2,0.6,7.6,1.7c2,1,3.7,2.7,4.7,4.9c1,2,1.5,4.4,1.2,6.8c-0.2,3-1.4,5.7-3.3,7.8c-2.2,2.7-5.6,4.4-9,4.4
		c-0.7,0-1.5-0.1-2-0.6c-0.5-0.5-0.8-0.8-0.8-1.5c-1.2,1.2-3.1,1.9-4.9,1.9s-3.4-0.7-4.5-1.9c-1.2-1.5-1.8-3.3-1.5-5.2
		c0.2-2.6,1.2-5.2,2.7-7.4c1.7-2.5,4.4-4,7.4-4c1.8-0.1,3.4,0.8,4.3,2.4l0.6-1.9h4.5l-3.6,12.3c-0.1,0.8-0.2,1.2-0.5,1.5
		c0,0.2,0,0.5,0.1,0.7c0.1,0.1,0.2,0.1,0.5,0.1c0.8-0.1,1.5-0.5,2.2-1c1.2-1,2.4-2,3.2-3.4s1.4-3,1.5-4.5c0.2-2.6-0.7-5.2-2.5-7
		c-2.2-2-5.2-3.1-8.3-3c-2.7-0.1-5.6,0.6-8.1,1.9c-2.2,1.2-4,3.1-5.2,5.3c-1.2,2.2-1.9,4.7-2.2,7.2c-0.2,2.2,0.2,4.5,1.2,6.6
		c1.1,1.9,2.7,3.4,4.9,4.3c2.4,1,4.9,1.4,7.4,1.4c2.5,0,4.9-0.2,7.2-1.1C150.3,230.1,152.1,228.8,153.5,227.4z M135.6,220.4
		c-0.1,1.1,0,2.2,0.7,3.2c0.6,0.7,1.2,1.1,2,1c0.7,0,1.2-0.1,1.9-0.6c0.6-0.2,1-0.7,1.4-1.1c0.8-0.8,1.4-1.9,1.8-3.1
		c0.6-1.2,0.8-2.5,1-3.7c0.1-1-0.1-2-0.7-3c-0.6-0.7-1.4-1.1-2.2-1c-1.1,0-2,0.5-2.7,1.1c-1,0.8-1.7,1.9-2,3.2
		C136,217.8,135.7,219.1,135.6,220.4L135.6,220.4z"/>
	<path class="st0" d="M113.4,116v43.9c0,2.6-2.2,4.9-4.9,4.9H33.5c-2.7,0-4.9-2.2-4.9-4.9V116c0-0.7,0.1-1.2,0.5-1.8
		c0.7-1.8,2.5-3.1,4.5-3.1h75.1c1.9,0,3.7,1.2,4.5,3.1C113.3,114.7,113.4,115.3,113.4,116z"/>
	<path class="st1" d="M113.2,114.2l-40.1,33.3c-1.1,1-3,1-4,0L29,114.2c0.7-1.8,2.5-3.1,4.5-3.1h75.1
		C110.6,111.1,112.3,112.2,113.2,114.2z"/>
	<path class="st2" d="M84,87.6H44.1v39.2L69,147.3c1.1,1,3,1,4,0l24.9-20.6V96.3L84,87.6z"/>
	<path class="st3" d="M70.9,148.9c-0.8,0-1.8-0.2-2.5-0.8l-24.9-20.6c-0.1-0.1-0.2-0.2-0.2-0.6V87.8c0-0.5,0.2-0.7,0.7-0.7l0,0h39.9
		c0.1,0,0.2,0,0.5,0.1L98.2,96c0.1,0.1,0.2,0.5,0.2,0.6V127c0,0.1-0.1,0.5-0.2,0.6l-24.9,20.6C72.8,148.5,72,148.9,70.9,148.9z
		 M44.8,126.4l24.6,20.4c1,0.7,2.2,0.7,3.2,0l24.6-20.4V96.7l-13.4-8.4H44.8V126.4z"/>
	<polygon class="st4" points="98,96.3 84,87.6 88.5,99.2 	"/>
	<path class="st3" d="M88.5,100c-0.2,0-0.6-0.1-0.7-0.5l-4.4-11.6c-0.1-0.5,0-0.7,0.5-0.8c0.1-0.1,0.5,0,0.6,0l13.9,8.7
		c0.2,0.1,0.5,0.5,0.2,0.7c0,0.2-0.2,0.6-0.6,0.6L88.5,100L88.5,100z M85.5,89.3l3.4,9l7.4-2.2L85.5,89.3z"/>
	<path class="st3" d="M82,124.6h3.2c-1.1,2-3,3.6-5,4.7c-2.7,1.4-5.7,2-8.7,1.9c-3,0.1-5.7-0.5-8.3-1.7c-2.2-1-3.9-2.7-5-4.9
		c-1-2.2-1.4-4.5-1.2-7c0.2-2.7,1.1-5.3,2.6-7.7c1.4-2.4,3.4-4.2,5.8-5.3c2.5-1.2,5.2-1.8,8.1-1.8c2.2,0,4.5,0.5,6.5,1.5
		c1.8,0.8,3.2,2.4,4.2,4.2c0.8,1.8,1.2,3.9,1.1,5.9c-0.1,2.5-1.2,5-3,6.8c-1.8,2.5-4.7,3.9-7.7,3.9c-0.7,0-1.2-0.1-1.8-0.5
		c-0.5-0.2-0.7-0.7-0.7-1.2c-1.1,1.1-2.6,1.7-4.2,1.7c-1.5,0-3-0.6-4-1.7c-1-1.2-1.5-3-1.2-4.5c0.1-2.4,1.1-4.5,2.5-6.4
		c1.4-2,3.7-3.4,6.4-3.4c1.5-0.1,3.1,0.7,3.7,2l0.6-1.7h3.9l-3.1,10.6c-0.1,0.5-0.2,0.8-0.2,1.2c0,0.1,0,0.5,0.1,0.6
		c0.1,0.1,0.2,0.1,0.5,0.1c0.7-0.1,1.4-0.5,1.9-0.8c2.2-1.7,3.7-4.2,3.9-6.9c0.2-2.2-0.6-4.4-2.2-6.1c-1.9-1.8-4.5-2.6-7.2-2.5
		c-2.4,0-4.9,0.6-6.9,1.7c-1.9,1.1-3.4,2.6-4.5,4.5c-1.1,1.9-1.8,4-1.9,6.2c-0.1,1.9,0.2,4,1.1,5.7c1,1.7,2.4,3.1,4.2,3.7
		c2,0.8,4.3,1.2,6.5,1.2c2,0,4.2-0.2,6.2-1C79.2,127,80.8,126.1,82,124.6z M66.3,118.6c-0.1,1,0,1.9,0.6,2.7c0.5,0.6,1.1,1,1.8,0.8
		c0.6,0,1.1-0.1,1.7-0.5c0.5-0.2,0.8-0.6,1.2-1c0.7-0.8,1.2-1.7,1.5-2.6c0.5-1,0.7-2,0.8-3.2c0.1-1-0.1-1.8-0.6-2.6
		c-0.5-0.6-1.1-1-1.9-1c-1,0-1.8,0.5-2.5,1c-0.8,0.8-1.5,1.8-1.8,3C66.7,116.3,66.4,117.5,66.3,118.6z"/>
	<rect x="147.1" y="150.4" class="st3" width="38.3" height="1.5"/>
	<rect x="168.1" y="160.2" class="st3" width="26.9" height="1.5"/>
	<rect x="39.5" y="272.9" class="st3" width="24.9" height="1.5"/>
	<rect x="60.5" y="282.7" class="st3" width="13.4" height="1.5"/>
	<rect x="216.3" y="267" class="st3" width="24.9" height="1.5"/>
	<rect x="237.3" y="276.9" class="st3" width="13.4" height="1.5"/>
	<rect x="39.5" y="197.1" class="st3" width="13.4" height="1.5"/>
	<rect x="131.9" y="150.4" class="st3" width="8.2" height="1.5"/>
</g>
<g id="freepik--Character--inject-36">
	<polygon class="st5" points="338.6,456.8 327.8,453 333.8,427.3 344.6,431.2 	"/>
	<polygon class="st5" points="423.1,471 411.7,471 408.4,444.8 419.9,444.8 	"/>
	<path class="st6" d="M410.2,469.9h13.9c0.5,0,0.8,0.2,1,0.8l2.4,10.1c0.1,0.8-0.2,1.8-1.2,1.9c-0.1,0-0.2,0-0.5,0
		c-4.4,0-7.7-0.2-13.3-0.2c-3.4,0-13.9,0.5-18.6,0.5c-4.8,0-5.3-4.7-3.4-5.1c8.7-1.9,15.3-4.5,18.1-7
		C408.9,470.1,409.5,469.9,410.2,469.9z"/>
	<path class="st6" d="M327.4,450.9l12.1,2.6c0.5,0.1,0.8,0.6,0.8,1l0.1,10.3c0,1-0.7,1.7-1.5,1.7c-0.1,0-0.2,0-0.5,0
		c-4.4-1-10.7-2.6-16.1-3.9c-6.5-1.4-10.6-2.6-17.9-4.3c-4.5-1-4.9-5.8-3-5.9c9.1,0,14.6,1.8,23-1.2
		C325.6,450.8,326.5,450.6,327.4,450.9z"/>
	<path class="st7" d="M399.8,132.7c-3.4,5.2-7,10.7-10.7,15.9l-10.9,15.7c-1.8,2.6-3.6,5.2-5.2,7.7c-1.2,1.9-3,3.7-4.7,5.2
		c-2.2,1.8-4.9,3.1-7.6,3.6c-1.4,0.2-3,0.2-4.3,0.1c-1.2-0.1-2.6-0.6-3.7-1c-2-0.8-4-1.9-5.7-3.3c-1.5-1.2-3-2.6-4-4.2
		c-0.6-0.7-1.1-1.5-1.7-2.2c-0.6-0.7-1-1.5-1.5-2.5l6.8-5.2l1.7,1.2l1.8,1.1c1.1,0.7,2.2,1.4,3.4,1.8c1,0.5,1.9,0.7,3,0.8
		c0.8,0,1.2-0.1,1.4-0.5c0.2-0.2,0.6-0.6,0.7-1c0.5-0.6,0.7-1.2,1.4-2.2c1.7-3,3.2-5.7,5-8.4c3.3-5.6,6.8-11,10.2-16.5
		c1.8-2.6,3.4-5.3,5.2-8.1c1.8-2.6,3.6-5.3,5.3-7.8L399.8,132.7z"/>
	<path class="st3" d="M405.6,125.8c1.8,10.8-22.8,36.3-22.8,36.3l-20.1-16.6c5.1-8.4,11.2-16.4,17.9-23.5
		C390.7,111.8,403.4,114.1,405.6,125.8z"/>
	<path class="st8" d="M405.6,125.8c1.8,10.8-22.8,36.3-22.8,36.3l-20.1-16.6c5.1-8.4,11.2-16.4,17.9-23.5
		C390.7,111.8,403.4,114.1,405.6,125.8z"/>
	<path class="st9" d="M389.8,138.2c-5.8,1.8-12.8,10.3-14.6,17.7l7.5,6.2c5.9-6.2,11.4-12.7,16.4-19.8
		C397.5,139.5,396.6,136.2,389.8,138.2z"/>
	<polygon class="st9" points="333.8,427.3 330.7,440.5 341.4,444.5 344.6,431.2 	"/>
	<polygon class="st9" points="419.9,444.8 408.4,444.8 410.2,458.3 421.6,458.3 	"/>
	<path class="st3" d="M456.4,127.6c-4.9,11.7-8.7,24-11.6,36.2c-2,8.5-3.7,16.9-5.1,24.3c-3.1,17.7-4.3,31.2-5.3,35.7l-59.7-12
		c-0.5-65.3,19.2-96.4,19.2-96.4c4.9-0.2,9.8-0.2,14.6,0.1c1,0.1,2,0.1,3.2,0.2c8.5,1.2,17,3,25.4,5.1c1.5,0.5,3.2,0.8,4.7,1.2
		C449.5,124.6,456.4,127.6,456.4,127.6z"/>
	<path class="st8" d="M456.4,127.6c-4.9,11.7-8.7,24-11.6,36.2c-2,8.5-3.7,16.9-5.1,24.3c-3.1,17.7-4.3,31.2-5.3,35.7l-59.7-12
		c-0.5-65.3,19.2-96.4,19.2-96.4c4.9-0.2,9.8-0.2,14.6,0.1c1,0.1,2,0.1,3.2,0.2c8.5,1.2,17,3,25.4,5.1c1.5,0.5,3.2,0.8,4.7,1.2
		C449.5,124.6,456.4,127.6,456.4,127.6z"/>
	<path class="st3" d="M412.7,128.1c-2.4,4.2-5.6,7.4-9.5,18.6c0.2,2.6,0.7,5.1,1.1,7.7c1.8-2,3.7-4.2,5.8-6.2c3-11,2.4-14.2,5-19.6
		L412.7,128.1z"/>
	<polygon class="st3" points="412.2,131.8 411.2,125.8 415.7,124.8 418.3,127.3 	"/>
	<path class="st6" d="M441.6,122.3c-14.8,10.2-27.4,20.9-37.4,32.2c-2.6-14-1.9-26.9,2.6-39.2c-4.4-0.2-8.9-0.2-13.3,0
		c0,0-19.6,31-19.2,96.4l59.7,12c1.1-4.5,2.4-18.1,5.3-35.7c1.4-7.5,3-15.8,5.1-24.3c3-12.3,6.9-24.4,11.6-36.2
		C456.4,127.6,449.5,124.6,441.6,122.3z"/>
	<path class="st5" d="M439.9,91.9c-3.2,7.8-7.6,22.5-3,29.1c-6.1,4.3-13.9,5.7-21,3.9c-7-1.5-6.4-6.6-4.3-9
		c9.5-0.2,10.7-7.2,10.2-13.9L439.9,91.9z"/>
	<path class="st2" d="M415.7,124.8c0,0,1.9,3.9,4.4,7.8c5.1-1.5,17.3-5.8,18.1-11.9c-0.5-1.4-1.2-2.6-2.4-3.4
		C429.4,121,422.7,123.5,415.7,124.8z"/>
	<path class="st2" d="M415.7,124.8c-2.7,1.4-5.2,3.3-7.5,5.3c-2.7-3.1,1.4-14,3-14.9c1.5-0.7,3.2-0.8,4.9-0.6
		C416,114.8,410.7,122.3,415.7,124.8z"/>
	<path class="st9" d="M432.5,96l-10.8,5.9c0.1,1.5,0.1,3.2-0.1,4.7c3.6,0.1,9.1-2.6,10.1-6.2C432.4,99.1,432.5,97.6,432.5,96z"/>
	<path class="st6" d="M419.1,63.5c-3.1,3.3-6.2,11.9,0.6,11.7C426.3,75.2,424.4,57.7,419.1,63.5z"/>
	<path class="st5" d="M445.2,82.3c-4.2,10.6-6.1,16.9-13.3,20.4c-10.8,5.6-22.4-3.9-21.5-15.3c0.8-10.3,7.5-25.9,19.3-26.6
		c8.5-0.6,15.9,6.1,16.5,14.6C446.4,77.8,446,80.1,445.2,82.3z"/>
	<path class="st6" d="M422,67.7c-7-3.4-9.3-13.3,2.5-15.9c2.7-0.5,5.6-0.5,8.2,0c0,0-3.1,1.9-1.9,4.7c3.6-3.4,9.1-4.2,13.4-1.8
		c-2.2,1.7-2.6,7,1.4,7.2c6.1,0.1,13.3,4.5,9.7,10.8c5.1,6.5-3,15.4-14.2,16.4c-3.2-6.2,1.9-15.4,1.9-15.4
		C436.9,73.4,428.4,70.9,422,67.7z"/>
	<path class="st6" d="M453.4,73c0,0,5.2-0.7,3.4-5.7C460.6,70.5,457.8,73.5,453.4,73z"/>
	<path class="st6" d="M452.2,73.6c0,0,5.1-1.5,5.3,3.7C460,72.8,456.1,71.4,452.2,73.6z"/>
	<path class="st5" d="M446.4,92.5c-1.7,2.4-4.2,3.9-6.9,4.3c-3.7,0.6-5.1-3-3.7-6.2c1.2-3,4.7-6.8,8.3-5.8
		C447.7,85.8,448.4,89.6,446.4,92.5z"/>
	<path class="st3" d="M327.6,436.6l18.1,6.6c0,0,14.2-62.3,21.7-97.1c2.4-10.6,6.9-25,12.3-40.4c6.9-19.3,15.1-40.4,21.7-56.7
		c7.2-17,12.3-29.2,12.3-29.2l-39.3-7.8c0,0-29.9,86.1-36.7,120.1C330.9,367.4,327.6,436.6,327.6,436.6z"/>
	<g class="st10">
		<path class="st11" d="M327.6,436.6l18.1,6.6c0,0,14.2-62.3,21.7-97.1c2.4-10.6,6.9-25,12.3-40.4c6.9-19.3,15.1-40.4,21.7-56.7
			c7.2-17,12.3-29.2,12.3-29.2l-39.3-7.8c0,0-29.9,86.1-36.7,120.1C330.9,367.4,327.6,436.6,327.6,436.6z"/>
	</g>
	<path class="st9" d="M379.8,305.7c6.9-19.3,15.1-40.4,21.7-56.7l-3.1-9.4C387.3,250.2,380.2,285.8,379.8,305.7z"/>
	<path class="st3" d="M395.7,216c0,0-7,98.1-7.5,131.6c-0.5,36.4,16.6,108.1,16.6,108.1h20.9c0,0-8.3-64.6-5.6-100.8
		c3.1-40.5,14-131,14-131L395.7,216z"/>
	<g class="st10">
		<path class="st11" d="M395.7,216c0,0-7,98.1-7.5,131.6c-0.5,36.4,16.6,108.1,16.6,108.1h20.9c0,0-8.3-64.6-5.6-100.8
			c3.1-40.5,14-131,14-131L395.7,216z"/>
	</g>
	<polygon class="st6" points="402.4,456.2 426.9,456.2 426.8,448.8 401.2,447.4 	"/>
	<polygon class="st6" points="325.2,436.4 346.9,443.9 349.2,437 325.5,428.2 	"/>
	<path class="st6" d="M428,79.8c-0.2,0.8-1,1.4-1.5,1.2c-0.6-0.1-0.8-1.1-0.6-1.9c0.2-0.8,1-1.4,1.5-1.2
		C428,77.9,428.4,78.9,428,79.8z"/>
	<ellipse transform="matrix(0.303 -0.953 0.953 0.303 218.1287 450.6109)" class="st6" cx="417.1" cy="76.2" rx="1.7" ry="1.1"/>
	<path class="st7" d="M421.1,77.9c-1.9,2.2-4.2,4.2-6.6,5.8c1,1.2,2.4,1.9,3.9,2L421.1,77.9z"/>
	<path class="st6" d="M422.3,93.3c-0.5-0.1-0.8-0.1-1.1-0.2c-0.1,0-0.2-0.1-0.1-0.5c0-0.1,0.1-0.2,0.5-0.1c2.2,0.8,4.5,0.6,6.5-0.8
		c0.1-0.1,0.2-0.1,0.5,0l0,0c0.1,0.1,0.1,0.2,0,0.5l0,0C426.3,93.3,424.3,93.7,422.3,93.3z"/>
	<path class="st6" d="M432,77.7c-0.1,0-0.5-0.1-0.5-0.5c-0.5-1.2-1.5-2.4-2.7-2.7c-0.2-0.1-0.5-0.5-0.5-0.7c0.1-0.2,0.5-0.5,0.7-0.5
		c1.7,0.6,3,1.8,3.4,3.4c0.1,0.2,0,0.6-0.2,0.7l0,0C432.2,77.7,432.2,77.7,432,77.7z"/>
	<path class="st6" d="M415.1,71.6c-0.1,0-0.1-0.1-0.2-0.1c-0.2-0.1-0.2-0.6,0-0.7l0,0c1.1-1.2,3-1.9,4.5-1.7c0.2,0,0.5,0.2,0.5,0.7
		c0,0.2-0.2,0.5-0.7,0.5c-1.4-0.1-2.7,0.5-3.6,1.4C415.4,71.7,415.2,71.7,415.1,71.6z"/>
	<path class="st3" d="M406.5,471.8c-0.8,0-1.5-0.1-2.2-0.6c-0.5-0.2-0.6-0.8-0.6-1.4c0-0.2,0.1-0.6,0.5-0.7c1.2-0.7,5,1.7,5.3,1.9
		c0.1,0,0.1,0.1,0.1,0.2s-0.1,0.1-0.1,0.2C408.4,471.6,407.5,471.8,406.5,471.8z M404.9,469.5c-0.1,0-0.2,0-0.5,0
		c-0.1,0-0.1,0.1-0.1,0.2c0,0.5,0.1,0.7,0.5,1c0.7,0.6,2,0.6,4,0.1C407.5,470.2,406.2,469.7,404.9,469.5L404.9,469.5z"/>
	<path class="st3" d="M409.4,471.4C409.4,471.4,409.3,471.4,409.4,471.4c-1.2-0.7-3.6-3.2-3.3-4.4c0.1-0.5,0.5-0.7,0.8-0.7
		c0.5,0,0.8,0,1.1,0.5c1.4,1.1,1.7,4.3,1.7,4.5C409.7,471.3,409.5,471.4,409.4,471.4L409.4,471.4L409.4,471.4z M407,466.8L407,466.8
		c-0.5,0-0.6,0.1-0.6,0.2c-0.1,0.7,1.4,2.6,2.5,3.4c-0.1-1.2-0.6-2.5-1.4-3.6C407.5,466.8,407.3,466.8,407,466.8L407,466.8z"/>
	<path class="st3" d="M326.1,452.2L326.1,452.2c-1.9,0-5.1-0.2-6.2-1.7c-0.2-0.5-0.5-1-0.2-1.4c0.1-0.2,0.2-0.6,0.6-0.6
		c1.5-0.6,5.6,2.7,5.9,3.2c0.1,0.1,0.1,0.1,0.1,0.2C326.3,452.2,326.2,452.2,326.1,452.2z M320.5,449L320.5,449
		c-0.2,0-0.2,0.1-0.2,0.2c-0.1,0.2,0,0.7,0.1,1c0.6,0.7,2.4,1.2,5,1.4C323.7,450.4,321.3,449,320.5,449z"/>
	<path class="st3" d="M326.1,452.2H326c-1.2-0.8-3.4-3.9-3-5.1c0.1-0.2,0.5-0.6,1.1-0.6c0.6,0,1.1,0.2,1.4,0.7
		c1.2,1.5,0.8,4.5,0.8,4.7C326.3,452,326.2,452.2,326.1,452.2L326.1,452.2z M323.7,447.1c-0.2,0-0.2,0.1-0.2,0.1
		c-0.2,0.7,1.1,3.1,2.4,4.2c0.1-1.2-0.1-2.6-0.8-3.7c-0.2-0.2-0.6-0.6-1-0.6L323.7,447.1L323.7,447.1z"/>
	<path class="st5" d="M346.9,162.4l-8.4-8.1l-4,12.3c0,0,7.8,6.6,11.2,2.5L346.9,162.4z"/>
	<polygon class="st12" points="327.3,152.1 327.4,163.8 334.5,166.7 338.5,154.5 	"/>
	<path class="st3" d="M366.2,134.9L279.9,117l-7.7,36.7l86.4,17.9c11.2,2.4,18.4,13.3,16,24.6s-13.3,18.4-24.6,16l0,0l-86.3-17.9
		L256,231l86.4,17.9c31.6,6.5,62.2-13.7,68.8-45.1l3-14.2L366.2,134.9z"/>
	<path class="st13" d="M366.2,134.9L279.9,117l-7.7,36.7l86.4,17.9c11.2,2.4,18.4,13.3,16,24.6s-13.3,18.4-24.6,16l0,0l-86.3-17.9
		L256,231l86.4,17.9c31.6,6.5,62.2-13.7,68.8-45.1l3-14.2L366.2,134.9z"/>
	<path class="st14" d="M413.9,191.2c-6.6,31.3-37.4,51.5-68.8,45.2l-86.3-17.9l7.6-36.7l86.3,17.9c11.2,2.5,22.3-4.7,24.6-15.9
		c2.5-11.2-4.7-22.3-15.9-24.6c-0.1,0-0.2,0-0.5-0.1l-86.3-17.9l7.6-36.7l86.4,17.9C400.1,129,420.2,159.8,413.9,191.2L413.9,191.2z
		"/>
	
		<rect x="268.5" y="115.6" transform="matrix(0.2038 -0.979 0.979 0.2038 104.1835 392.8775)" class="st15" width="50.2" height="33.6"/>
	
		<rect x="252.5" y="192.9" transform="matrix(0.2038 -0.979 0.979 0.2038 15.7424 438.7042)" class="st15" width="50.2" height="33.6"/>
	<path class="st5" d="M461.7,137.6c1.1,4.2,2,8.1,3,12s1.5,8.1,2.2,12.1c0.7,4.2,1.1,8.3,1.4,12.6c0.5,4.5,0.2,9.1-0.5,13.7
		c-0.1,1.4-0.6,2.6-0.8,4c-0.2,0.7-0.6,1.5-0.8,2.2c-0.1,0.5-0.2,0.8-0.6,1.2l-0.2,0.6l-0.5,0.7c-1.1,1.8-2.6,3.3-4.4,4.4
		c-1.4,0.8-3,1.5-4.5,2c-2.5,0.7-5.1,1.1-7.7,1.1c-2.2,0-4.5-0.1-6.8-0.5c-8.3-1.1-16.6-3.3-24.3-6.6l2.4-8.2l5.7,0.7
		c1.9,0.1,3.9,0.5,5.8,0.6c3.7,0.2,7.5,0.5,11.2,0.2c1.7,0,3.4-0.1,5.1-0.5c1.4-0.1,2.6-0.6,4-1.1c0.2-0.1,0.6-0.2,0.8-0.6
		c0-0.1-0.1,0-0.2,0.1c0,0,0,0,0,0.1l0,0v-0.1c0-0.1,0.1-0.5,0.1-0.6c0.1-0.7,0.1-1.2,0.2-1.9c0.1-3.4,0-6.8-0.5-10.2
		c-0.5-3.6-1-7.4-1.7-11c-1.4-7.5-3.1-15.2-4.9-22.5L461.7,137.6z"/>
	<path class="st3" d="M459.4,129.3c9,6.2,11.9,38.7,11.9,38.7l-27.6,3.3c-2-9.4-3.3-19-3.7-28.5
		C439.5,127.5,448.5,121.7,459.4,129.3z"/>
	<path class="st8" d="M459.4,129.3c9,6.2,11.9,38.7,11.9,38.7l-27.6,3.3c-2-9.4-3.3-19-3.7-28.5
		C439.5,127.5,448.5,121.7,459.4,129.3z"/>
	<path class="st7" d="M422.3,189.3l-8.2-8.3l-5.1,13.9c0,0,8.4,5.3,11.7,1.2L422.3,189.3z"/>
	<polygon class="st5" points="404.7,179.9 401.1,191.5 409,194.8 414.1,181 	"/>
</g>
</svg>
