<?xml version="1.0" encoding="utf-8"?>
<!-- Generator: Adobe Illustrator 23.0.2, SVG Export Plug-In . SVG Version: 6.00 Build 0)  -->
<svg version="1.1" id="Layer_1" xmlns="http://www.w3.org/2000/svg" xmlns:xlink="http://www.w3.org/1999/xlink" x="0px" y="0px"
	 viewBox="0 0 500 500" style="enable-background:new 0 0 500 500;" xml:space="preserve">
<style type="text/css">
	.st0{opacity:0.8;fill:#EDF9FF;enable-background:new    ;}
	.st1{fill:#E0E0E0;}
	.st2{fill:#455A64;}
	.st3{fill:#263238;}
	.st4{fill:#37474F;}
	.st5{fill:#00A4FF;}
	.st6{opacity:0.2;enable-background:new    ;}
	.st7{opacity:0.7;enable-background:new    ;}
	.st8{opacity:0.6;enable-background:new    ;}
	.st9{opacity:0.8;enable-background:new    ;}
	.st10{opacity:0.8;fill:#FFFFFF;enable-background:new    ;}
	.st11{opacity:0.6;fill:#FFFFFF;enable-background:new    ;}
	.st12{fill:#FAFAFA;}
	.st13{opacity:0.4;enable-background:new    ;}
	.st14{opacity:0.5;enable-background:new    ;}
	.st15{opacity:0.3;enable-background:new    ;}
	.st16{fill:#FFFFFF;}
	.st17{opacity:0.81;}
	.st18{opacity:0.64;fill:#45BEF4;enable-background:new    ;}
	.st19{fill:#F5F5F5;}
	.st20{fill:#F28F8F;}
	.st21{fill:#FFA8A7;}
	.st22{opacity:0.7;fill:#FFFFFF;enable-background:new    ;}
	.st23{opacity:0.3;fill:#FFFFFF;enable-background:new    ;}
</style>
<g id="freepik--Floor--inject-9">
	<path class="st0" d="M101.4,390.7c83.8,43.8,219.6,43.8,303.4,0s83.8-114.7,0-158.5s-219.6-43.8-303.4,0S17.6,347,101.4,390.7z"/>
</g>
<g id="freepik--Shadow--inject-9">
	<path class="st1" d="M424.6,314.8c-12.6,6-33,6-45.6,0s-12.6-15.7,0-21.7s33-6,45.6,0S437.2,308.8,424.6,314.8z"/>
</g>
<g id="freepik--percentage-symbol--inject-9">
	<path class="st2" d="M156.4,203.4c-15.9,9.2-28.9,31.6-28.9,50s12.9,25.9,28.9,16.7s28.9-31.6,28.9-50S172.4,194.2,156.4,203.4z
		 M154,255.7c-2,1.2-4.2,2-6.5,2.1c-5.6,0-6.2-6.6-6.2-9.5c0-11.1,8.1-25.1,17.7-30.7c2-1.2,4.2-2,6.5-2.1c5.6,0,6.2,6.6,6.2,9.4
		C171.7,236.1,163.6,250.2,154,255.7z"/>
	<path class="st3" d="M166.3,215.7c-0.3,0-0.5-0.1-0.8-0.1c-1.4,0-2.8,0.4-4.1,0.9c0.1,0.9,0.2,1.8,0.2,2.7
		c0,11.1-8.1,25.1-17.7,30.7c-0.8,0.5-1.6,0.9-2.4,1.2c0.2,1.7,0.8,3.3,1.7,4.7c1,1.4,2.6,2.1,4.3,2.1c2.3-0.1,4.6-0.8,6.5-2.1
		c9.6-5.6,17.7-19.6,17.7-30.7C171.7,222.3,171.1,216.3,166.3,215.7z"/>
	<path class="st4" d="M176.8,201.3l-14.3-8.3l0,0c-5.2-3.1-12.5-2.6-20.5,1.9c-16,9.2-28.9,31.6-28.9,50c0,9.1,3.2,15.5,8.3,18.6
		l0.1,0.1h0.1l14.1,8.1h0.1c-2.5-1.5-4.4-3.7-5.7-6.3c-1.1-2.2-1.8-4.7-2.2-7.1c-0.3-1.7-0.4-3.4-0.4-5.1c0-18.4,12.9-40.8,28.9-50
		c1.5-0.8,3-1.6,4.6-2.2c2.3-0.9,4.8-1.5,7.3-1.7c3-0.2,5.9,0.4,8.5,1.8L176.8,201.3z"/>
	<polygon class="st4" points="153.6,131.7 140.1,123.9 119.8,135.6 72.8,302.9 86.2,310.6 106.2,299.1 	"/>
	<polygon class="st2" points="106.2,299.1 86.2,310.6 133.4,143.4 153.6,131.7 	"/>
	<polygon class="st3" points="86.2,310.6 133.4,143.4 119.8,135.6 72.8,302.9 	"/>
	<path class="st2" d="M78,176.4c-15.9,9.2-28.9,31.6-28.9,50s13,25.9,28.9,16.7s28.9-31.6,28.9-50S94,167.2,78,176.4z M75.5,228.8
		c-2,1.2-4.2,2-6.5,2.1c-5.6,0-6.2-6.6-6.2-9.4c0-11.1,8.1-25.1,17.7-30.7c2-1.2,4.2-2,6.5-2.1c5.6,0,6.2,6.6,6.2,9.4
		C93.3,209.2,85.1,223.2,75.5,228.8z"/>
	<path class="st3" d="M87.8,188.7c-0.3,0-0.5-0.1-0.8-0.1c-1.4,0-2.8,0.4-4.1,0.9c0.1,0.9,0.2,1.8,0.2,2.7
		c0,11.1-8.1,25.1-17.7,30.7c-0.8,0.5-1.6,0.8-2.4,1.2c0.2,1.7,0.8,3.3,1.7,4.7c1,1.4,2.6,2.1,4.3,2.1c2.3-0.1,4.6-0.8,6.5-2.1
		c9.6-5.6,17.7-19.6,17.7-30.7C93.3,195.4,92.7,189.3,87.8,188.7z"/>
	<path class="st4" d="M98.4,174.4l-14.3-8.3l0,0c-5.2-3.1-12.5-2.6-20.5,2c-16,9.2-28.9,31.6-28.9,50c0,9.1,3.2,15.5,8.3,18.6
		l0.1,0.1h0.1l14.1,8.2h0.1c-2.5-1.5-4.4-3.7-5.7-6.3c-1.1-2.3-1.8-4.7-2.2-7.1c-0.3-1.7-0.4-3.4-0.4-5.1c0-18.4,12.9-40.8,28.9-50
		c1.5-0.8,3-1.6,4.6-2.2c2.3-0.9,4.8-1.5,7.3-1.7C92.8,172.3,95.8,173,98.4,174.4L98.4,174.4z"/>
</g>
<g id="freepik--chart-2--inject-9">
	<path class="st5" d="M303.5,362.6l9.5,17.9c7.5-1.2,14.8-3.7,21.4-7.4l-22.9-5.1C309.1,369.3,306.4,362.1,303.5,362.6z"/>
	<path class="st6" d="M303.5,362.6l9.5,17.9c7.5-1.2,14.8-3.7,21.4-7.4l-22.9-5.1C309.1,369.3,306.4,362.1,303.5,362.6z"/>
	<path class="st5" d="M284.1,352.1c4.6-2.6,10.8-3.7,16.8-3.1l5-29l-5-9l-26.1,3.4l-28,41l0.9,1.3l30.9,2.2
		C279,356.4,280.8,354,284.1,352.1z"/>
	<path class="st7" d="M284.1,352.1c4.6-2.6,10.8-3.7,16.8-3.1l5-29l-5-9l-26.1,3.4l-28,41l0.9,1.3l30.9,2.2
		C279,356.4,280.8,354,284.1,352.1z"/>
	<polygon class="st5" points="305.9,300.3 305.9,295.1 300.8,313.5 300.8,318.6 	"/>
	<polygon class="st7" points="305.9,300.3 305.9,295.1 300.8,313.5 300.8,318.6 	"/>
	<path class="st5" d="M284.1,316.6c4.6-2.6,10.8-3.7,16.8-3.1l5-18.4c-28.2-2.6-54.6,8.5-59.1,24.8c-0.1,0.5-0.3,1.1-0.4,1.5l32.1,2
		C279,320.9,280.8,318.5,284.1,316.6z"/>
	<path class="st8" d="M284.1,316.6c4.6-2.6,10.8-3.7,16.8-3.1l5-18.4c-28.2-2.6-54.6,8.5-59.1,24.8c-0.1,0.5-0.3,1.1-0.4,1.5l32.1,2
		C279,320.9,280.8,318.5,284.1,316.6z"/>
	<polygon class="st5" points="278.5,344.3 278.5,323.4 246.4,321.5 246.4,342.4 	"/>
	<polygon class="st9" points="278.5,344.3 278.5,323.4 246.4,321.5 246.4,342.4 	"/>
	<path class="st5" d="M311.5,321.8c3.9,2.3,5.8,5.2,5.6,8.1l32.3,0.3c0.5-15-17.8-27.6-43.6-30l-5,18.4
		C304.6,318.9,308.2,320,311.5,321.8z"/>
	<path class="st10" d="M311.5,321.8c3.9,2.3,5.8,5.2,5.6,8.1l32.3,0.3c0.5-15-17.8-27.6-43.6-30l-5,18.4
		C304.6,318.9,308.2,320,311.5,321.8z"/>
	<polygon class="st5" points="317.1,329.9 317.1,352.2 349.4,352.5 349.4,330.2 	"/>
	<polygon class="st11" points="317.1,329.9 317.1,352.2 349.4,352.5 349.4,330.2 	"/>
	<path class="st5" d="M317.2,329.9V352c0-2.9-1.9-5.7-5.7-7.9c-3-1.7-6.8,5.3-10.7,4.9v-30.4C309.7,319.4,317.3,323.8,317.2,329.9z"
		/>
	<path class="st11" d="M317.2,329.9V352c0-2.9-1.9-5.7-5.7-7.9c-3-1.7-6.8,5.3-10.7,4.9v-30.4C309.7,319.4,317.3,323.8,317.2,329.9z
		"/>
	<rect x="278.4" y="339.8" class="st1" width="38.8" height="26.1"/>
	<path class="st12" d="M284.1,347.9c-7.6-4.4-7.6-11.5,0-15.8s19.9-4.4,27.4,0s7.6,11.5,0,15.8S291.6,352.2,284.1,347.9z"/>
	<path class="st4" d="M317.1,352.2c-0.1,2.8-2,13.6-5.6,15.7l0,0l22.9,5.1c10-5.8,14.9-12.4,15.1-20.6L317.1,352.2z"/>
	<polygon class="st4" points="349.4,335.1 349.4,352.5 334.3,373.1 334.3,355.7 	"/>
	<path class="st2" d="M317.1,334.8c-0.1,2.8-2,5.6-5.6,7.7l0,0l22.9,13.2c10-5.8,14.9-12.4,15.1-20.6L317.1,334.8z"/>
	<polygon class="st3" points="334.3,355.7 334.3,373.1 311.5,359.9 311.5,342.5 	"/>
	<polygon class="st5" points="334.3,361.2 312.9,368.6 312.9,380.5 334.3,373.1 	"/>
	<polygon class="st6" points="334.3,361.2 312.9,368.6 312.9,380.5 334.3,373.1 	"/>
	<path class="st5" d="M303.5,350.8l9.5,17.9c7.5-1.2,14.8-3.7,21.4-7.4L311.5,348C309,349.4,306.3,350.3,303.5,350.8z"/>
	<polygon class="st5" points="303.4,350.8 303.4,356.2 312.9,380.5 312.9,368.6 	"/>
	<polygon class="st13" points="303.4,350.8 303.4,356.2 312.9,380.5 312.9,368.6 	"/>
	<path class="st5" d="M288.6,366c-4.3-2.5-10.7-3.9-10.1-7.1l-32.4-15.5c0,0,0,7.7,0,8.8c0.1,15,19.8,27.9,46.3,29.5
		c6.9,0.5,13.7,0.1,20.5-1.1v-8.7C306.3,372.9,293.9,369,288.6,366z"/>
	<path class="st14" d="M288.6,366c-4.3-2.5-10.7-3.9-10.1-7.1l-32.4-15.5c0,0,0,7.7,0,8.8c0.1,15,19.8,27.9,46.3,29.5
		c6.9,0.5,13.7,0.1,20.5-1.1v-8.7C306.3,372.9,293.9,369,288.6,366z"/>
	<path class="st5" d="M284.1,351.1c-4.3-2.5-6.1-5.8-5.6-9l-32.1-2c-3,16.4,17.6,31.1,46,32.8c6.9,0.5,13.7,0.1,20.5-1.1l-9.5-17.9
		C296.8,355.1,289.3,354.2,284.1,351.1z"/>
	<path class="st15" d="M284.1,351.1c-4.3-2.5-6.1-5.8-5.6-9l-32.1-2c-3,16.4,17.6,31.1,46,32.8c6.9,0.5,13.7,0.1,20.5-1.1l-9.5-17.9
		C296.8,355.1,289.3,354.2,284.1,351.1z"/>
</g>
<g id="freepik--chart-1--inject-9">
	<path class="st4" d="M167,306c0.8-6.2,0.5-12.5-1.1-18.6c-1.7-6.6-5-11.2-8.9-13.6s-11.1,0.1-5.4,7.9s11.6,17.6,12.2,25L167,306z"
		/>
	<path class="st16" d="M165.9,306.7L165.9,306.7c-0.3,0-0.5-0.2-0.5-0.5l0,0c0.3-13.7-6.1-27.4-12-30.6c-0.2-0.1-0.3-0.4-0.2-0.7
		c0.1-0.2,0.4-0.3,0.7-0.2c6.2,3.3,12.9,17.5,12.6,31.5C166.4,306.5,166.2,306.7,165.9,306.7L165.9,306.7z"/>
	<path class="st2" d="M167.5,330.2c-6.3,3.7-13.5,0.3-14.7-6.7c-0.4-2.5-0.9-5-3.1-6.4c-1.9-1.2-4.5-1.3-6.1-2.9
		c-2.3-2.3-1-5.2,0.5-7.5c1.4-2.1,2.5-4.5,1.2-6.9c-0.8-1.2-1.4-2.6-1.9-4c-0.4-1.4-0.1-3,0.9-4.1c1.2-1.1,3.1-1.1,4.7-0.7
		c2.6,0.7,5,2,7,3.9c1.4,1.2,2.2,2.4,4.2,2.8c1.5,0.3,3.1,0,4.5,0.4c1.9,0.5,3.5,1.8,4.3,3.6c1.5,2.9,1,6.2,0.8,9.3
		s-0.5,5.9-0.9,8.8c-0.3,2.5-0.6,5-1,7.4C167.9,327.5,167.8,330,167.5,330.2z"/>
	<path class="st16" d="M168.1,326.7c-0.2,0-0.5-0.2-0.5-0.4c-2.2-15.7-15.4-30.3-20.3-32.8c-0.2-0.1-0.3-0.4-0.2-0.7
		c0.1-0.2,0.4-0.3,0.7-0.2l0,0c5.2,2.7,18.6,17.3,20.9,33.6C168.6,326.4,168.4,326.7,168.1,326.7L168.1,326.7z"/>
	<path class="st16" d="M148.6,309.7c-0.3,0.1-0.5-0.1-0.6-0.4s0.1-0.5,0.4-0.6c4-1.5,8.2-2.1,12.5-1.7c0.3,0,0.5,0.3,0.5,0.5l0,0
		c0,0.3-0.3,0.5-0.5,0.5l0,0c-4.1-0.4-8.2,0.2-12,1.7C148.7,309.7,148.6,309.7,148.6,309.7z"/>
	<path class="st5" d="M168.9,333.9c-1.8-1.2-2.9-3.2-3-5.4V177.4c0.1-2.2,1.3-4.3,3.2-5.5L347.7,68.8c1.9-1,4.2-1.1,6.2-0.1
		c1.8,1.2,2.9,3.2,3,5.4v151.2c-0.1,2.2-1.3,4.3-3.2,5.5l-178.6,103C173.1,334.8,170.8,334.8,168.9,333.9z"/>
	<path class="st5" d="M183.8,184l-17-9.8c-0.6,0.9-0.9,2-0.9,3.1v151.2c-0.1,3.3,2.5,6.1,5.8,6.2c1.2,0,2.3-0.3,3.3-0.9l8.8-5.1
		L183.8,184z"/>
	<path class="st6" d="M183.8,184l-17-9.8c-0.6,0.9-0.9,2-0.9,3.1v151.2c-0.1,3.3,2.5,6.1,5.8,6.2c1.2,0,2.3-0.3,3.3-0.9l8.8-5.1
		L183.8,184z"/>
	<path class="st5" d="M175.1,175.3L353.6,72.2c1.8-1,3.2-0.2,3.2,1.8v151.2c-0.1,2.2-1.3,4.3-3.2,5.5L175.1,333.8
		c-1.8,1-3.2,0.2-3.2-1.8V180.8C172,178.6,173.2,176.5,175.1,175.3z"/>
	<g class="st17">
		<path class="st16" d="M175.1,175.3L353.6,72.2c1.8-1,3.2-0.2,3.2,1.8v151.2c-0.1,2.2-1.3,4.3-3.2,5.5L175.1,333.8
			c-1.8,1-3.2,0.2-3.2-1.8V180.8C172,178.6,173.2,176.5,175.1,175.3z"/>
	</g>
	<path class="st18" d="M189.8,297.7c0.2-10.9,0.9-21.8,2.3-32.6c1.4-11.8,4.2-31.6,15.6-38.1s15.6,5.3,17.2,11.1
		c2.1,7.6,13.2,2.8,14.8-9.7s2.5-52.1,15.8-59.8c13.3-7.7,17.6,10.8,19.1,15.9c3,10.1,11.7,7.3,14.5,0.6s10.6-8.3,13.5,1.1
		s4.8,20.3,14.3,14.7c8.3-4.9,4.5-13.8,12.6-18c2.4-1.2,7.1-0.5,8.1,6.4c1,7.4,1.4,14.8,1.3,22.2L189.8,297.7z"/>
	<path class="st19" d="M189.8,298.5L189.8,298.5c-0.4,0-0.7-0.3-0.7-0.7c0.2-10.9,0.9-21.9,2.3-32.7c1.1-9.5,3.8-31.6,15.9-38.7
		c3.6-2.1,6.9-2.6,9.7-1.4c3.8,1.5,6.6,5.8,8.6,13c0.6,2.1,2,3.2,3.9,3.1c3.9-0.3,8.4-5.1,9.4-12.6c0.3-2,0.5-4.7,0.8-7.9
		c1.5-17.1,4-45.8,15.4-52.4c3.5-2,6.7-2.5,9.6-1.3c6.3,2.6,9,12.1,10.3,16.7c0.1,0.4,0.2,0.7,0.3,1c1.1,3.8,3.2,6,5.8,6.1
		c2.9,0.2,6-2.2,7.4-5.6c1.6-3.8,4.7-6.1,7.8-5.9s5.7,2.7,7.1,7.1c0.3,1,0.6,2.1,0.9,3.1c1.7,5.7,3.2,11,6.5,12.3
		c1.5,0.6,3.5,0.2,5.8-1.1c3.9-2.3,5-5.5,6.1-8.8s2.3-6.9,6.6-9.2c1.6-0.8,3.5-0.8,5.1,0.1c1.5,0.8,3.5,2.6,4.1,6.9
		c1,7.4,1.4,14.9,1.3,22.3c0,0.4-0.3,0.7-0.7,0.7c0,0,0,0-0.1,0c-0.4,0-0.7-0.3-0.7-0.8c0.1-7.4-0.3-14.8-1.3-22.1
		c-0.6-3.7-2.1-5.2-3.3-5.8c-1.2-0.6-2.6-0.6-3.8-0.1c-3.8,2-4.8,5.1-5.9,8.3c-1.1,3.5-2.3,7.1-6.7,9.6c-2.8,1.6-5.1,2-7.1,1.2
		c-3.9-1.5-5.5-7.2-7.3-13.3c-0.3-1-0.6-2.1-0.9-3.1c-1.2-3.7-3.3-5.9-5.7-6.1s-5.1,1.9-6.4,5.1c-1.7,4-5.3,6.7-8.8,6.5
		c-1.9-0.1-5.3-1.2-7.1-7.2c-0.1-0.3-0.2-0.6-0.3-1c-1.2-4.4-3.8-13.4-9.4-15.7c-2.4-1-5.2-0.6-8.3,1.2
		c-10.8,6.2-13.3,35.5-14.7,51.3c-0.3,3.2-0.5,5.9-0.8,8c-1,8.3-6.3,13.6-10.7,13.9c-2.6,0.2-4.7-1.4-5.4-4.1
		c-1.9-6.7-4.4-10.6-7.8-12c-2.4-1-5.2-0.5-8.4,1.3c-11.6,6.7-14.1,28.3-15.2,37.6c-1.3,10.8-2.1,21.6-2.3,32.5
		C190.5,298.2,190.2,298.5,189.8,298.5z"/>
	<path class="st19" d="M210.9,226.8c-0.3,0-0.5-0.2-0.5-0.5l0,0v-0.9c0-0.3,0.1-0.5,0.4-0.5c0.3,0,0.5,0.1,0.5,0.4v0.1v0.9
		C211.4,226.6,211.2,226.8,210.9,226.8z"/>
	<path class="st19" d="M210.9,282.3c-0.3,0-0.5-0.2-0.5-0.5l0,0V280c0-0.3,0.3-0.4,0.5-0.4s0.4,0.2,0.4,0.4v1.9
		C211.4,282.1,211.2,282.3,210.9,282.3L210.9,282.3z M210.9,278.6c-0.3,0-0.5-0.2-0.5-0.5l0,0v-1.9c0-0.3,0.3-0.4,0.5-0.4
		s0.4,0.2,0.4,0.4v1.9C211.4,278.4,211.2,278.6,210.9,278.6L210.9,278.6z M210.9,274.9c-0.3,0-0.5-0.2-0.5-0.5l0,0v-1.8
		c0-0.3,0.1-0.5,0.4-0.5c0.3,0,0.5,0.1,0.5,0.4v0.1v1.8C211.4,274.7,211.2,274.9,210.9,274.9L210.9,274.9z M210.9,271.2
		c-0.3,0-0.5-0.2-0.5-0.5v-1.9c0-0.3,0.1-0.5,0.4-0.5c0.3,0,0.5,0.1,0.5,0.4v0.1v1.9C211.4,271,211.2,271.2,210.9,271.2L210.9,271.2
		z M210.9,267.5c-0.3,0-0.5-0.2-0.5-0.5v-1.9c0-0.3,0.1-0.5,0.4-0.5c0.3,0,0.5,0.1,0.5,0.4v0.1v1.9
		C211.4,267.3,211.2,267.5,210.9,267.5L210.9,267.5z M210.9,263.8c-0.3,0-0.5-0.2-0.5-0.5v-1.9c0-0.3,0.1-0.5,0.4-0.5
		c0.3,0,0.5,0.1,0.5,0.4v0.1v1.9C211.4,263.6,211.2,263.8,210.9,263.8L210.9,263.8z M210.9,260.1c-0.3,0-0.5-0.2-0.5-0.5v-1.9
		c0-0.3,0.1-0.5,0.4-0.5c0.3,0,0.5,0.1,0.5,0.4v0.1v1.9C211.4,259.9,211.2,260.1,210.9,260.1L210.9,260.1z M210.9,256.4
		c-0.3,0-0.5-0.2-0.5-0.4l0,0v-1.9c0-0.3,0.1-0.5,0.4-0.5c0.3,0,0.5,0.1,0.5,0.4v0.1v1.9C211.4,256.2,211.2,256.4,210.9,256.4
		L210.9,256.4z M210.9,252.7c-0.3,0-0.5-0.2-0.5-0.4l0,0v-1.9c0-0.3,0.1-0.5,0.4-0.5c0.3,0,0.5,0.1,0.5,0.4v0.1v1.9
		C211.4,252.5,211.2,252.7,210.9,252.7L210.9,252.7L210.9,252.7z M210.9,249c-0.3,0-0.5-0.2-0.5-0.4l0,0v-1.9c0-0.3,0.3-0.4,0.5-0.4
		s0.4,0.2,0.4,0.4v1.9C211.3,248.8,211.1,249,210.9,249L210.9,249z M210.9,245.3c-0.3,0-0.5-0.2-0.5-0.5l0,0V243
		c0-0.3,0.3-0.4,0.5-0.4s0.4,0.2,0.4,0.4v1.9C211.4,245.1,211.2,245.3,210.9,245.3L210.9,245.3L210.9,245.3z M210.9,241.6
		c-0.3,0-0.5-0.2-0.5-0.5l0,0v-1.9c0-0.3,0.3-0.4,0.5-0.4s0.4,0.2,0.4,0.4v1.9C211.4,241.4,211.2,241.6,210.9,241.6L210.9,241.6z
		 M210.9,237.9c-0.3,0-0.5-0.2-0.5-0.5l0,0v-1.9c0-0.3,0.3-0.4,0.5-0.4s0.4,0.2,0.4,0.4v1.9C211.4,237.7,211.2,238,210.9,237.9
		C210.9,238,210.9,238,210.9,237.9L210.9,237.9z M210.9,234.2c-0.3,0-0.5-0.2-0.5-0.5l0,0v-1.9c0-0.3,0.3-0.4,0.5-0.4
		s0.4,0.2,0.4,0.4v1.9C211.4,234,211.2,234.2,210.9,234.2L210.9,234.2z M210.9,230.5c-0.3,0-0.5-0.2-0.5-0.5l0,0v-1.9
		c0-0.3,0.3-0.4,0.5-0.4s0.4,0.2,0.4,0.4v1.9C211.4,230.3,211.2,230.5,210.9,230.5L210.9,230.5z"/>
	<path class="st19" d="M210.9,285.1c-0.3,0-0.5-0.2-0.5-0.5l0,0v-0.9c0-0.3,0.3-0.4,0.5-0.4s0.4,0.2,0.4,0.4v0.9
		C211.4,284.9,211.2,285.1,210.9,285.1z"/>
	<path class="st19" d="M258.9,168.8c-0.3,0-0.5-0.2-0.5-0.5v-0.9c0-0.3,0.1-0.5,0.4-0.5s0.5,0.1,0.5,0.4v0.1v0.9
		C259.4,168.6,259.1,168.8,258.9,168.8z"/>
	<path class="st19" d="M258.9,255.5c-0.3,0-0.5-0.2-0.5-0.5v-1.9c0-0.3,0.1-0.5,0.4-0.5s0.5,0.1,0.5,0.4v0.1v1.8
		C259.4,255.3,259.2,255.5,258.9,255.5L258.9,255.5z M258.9,251.7c-0.3,0-0.5-0.2-0.5-0.5v-1.9c0-0.3,0.3-0.4,0.5-0.4
		s0.4,0.2,0.4,0.4v1.9C259.4,251.5,259.1,251.7,258.9,251.7L258.9,251.7L258.9,251.7z M258.9,248c-0.3,0-0.5-0.2-0.5-0.5v-1.9
		c0-0.3,0.3-0.4,0.5-0.4s0.4,0.2,0.4,0.4v1.9C259.4,247.8,259.2,248,258.9,248L258.9,248L258.9,248z M258.9,244.2
		c-0.3,0-0.5-0.2-0.5-0.5v-1.9c0-0.3,0.3-0.4,0.5-0.4s0.4,0.2,0.4,0.4v1.9C259.4,244,259.1,244.2,258.9,244.2L258.9,244.2z
		 M258.9,240.4c-0.3,0-0.5-0.2-0.5-0.5V238c0-0.3,0.3-0.4,0.5-0.4s0.4,0.2,0.4,0.4v1.9C259.3,240.2,259.1,240.4,258.9,240.4
		L258.9,240.4z M258.9,236.6c-0.3,0-0.5-0.2-0.5-0.5v-1.9c0-0.3,0.3-0.4,0.5-0.4s0.4,0.2,0.4,0.4v1.9
		C259.4,236.4,259.1,236.7,258.9,236.6L258.9,236.6z M258.9,232.9c-0.3,0-0.5-0.2-0.5-0.5v-1.9c0-0.3,0.1-0.5,0.4-0.5
		s0.5,0.1,0.5,0.4v0.1v1.9C259.4,232.7,259.1,232.9,258.9,232.9L258.9,232.9L258.9,232.9z M258.9,229.1c-0.3,0-0.5-0.2-0.5-0.5v-1.9
		c0-0.3,0.1-0.5,0.4-0.5s0.5,0.1,0.5,0.4v0.1v1.9C259.4,228.9,259.1,229.1,258.9,229.1L258.9,229.1L258.9,229.1z M258.9,225.3
		c-0.3,0-0.5-0.2-0.5-0.5V223c0-0.3,0.1-0.5,0.4-0.5s0.5,0.1,0.5,0.4v0.1v1.9C259.4,225.1,259.1,225.3,258.9,225.3L258.9,225.3z
		 M258.9,221.6c-0.3,0-0.5-0.2-0.5-0.5v-1.9c0-0.3,0.1-0.5,0.4-0.5s0.5,0.1,0.5,0.4v0.1v1.9C259.4,221.4,259.1,221.6,258.9,221.6
		L258.9,221.6L258.9,221.6z M258.9,217.8c-0.3,0-0.5-0.2-0.5-0.5v-1.9c0-0.3,0.1-0.5,0.4-0.5s0.5,0.1,0.5,0.4v0.1v1.9
		C259.4,217.6,259.1,217.8,258.9,217.8L258.9,217.8L258.9,217.8z M258.9,214c-0.3,0-0.5-0.2-0.5-0.5v-1.9c0-0.3,0.3-0.4,0.5-0.4
		s0.4,0.2,0.4,0.4v1.9C259.3,213.8,259.1,214,258.9,214L258.9,214z M258.9,210.2c-0.3,0-0.5-0.2-0.5-0.5v-1.9c0-0.3,0.3-0.4,0.5-0.4
		s0.4,0.2,0.4,0.4v1.9C259.4,210,259.2,210.3,258.9,210.2C258.9,210.3,258.9,210.3,258.9,210.2L258.9,210.2z M258.9,206.5
		c-0.3,0-0.5-0.2-0.5-0.5v-1.9c0-0.3,0.3-0.4,0.5-0.4s0.4,0.2,0.4,0.4v1.9C259.4,206.3,259.2,206.5,258.9,206.5L258.9,206.5
		L258.9,206.5z M258.9,202.7c-0.3,0-0.5-0.2-0.5-0.5v-1.9c0-0.3,0.3-0.4,0.5-0.4s0.4,0.2,0.4,0.4v1.9
		C259.4,202.5,259.1,202.7,258.9,202.7L258.9,202.7z M258.9,198.9c-0.3,0-0.5-0.2-0.5-0.5v-1.9c0-0.3,0.3-0.4,0.5-0.4
		s0.4,0.2,0.4,0.4v1.9C259.4,198.7,259.1,198.9,258.9,198.9L258.9,198.9z M258.9,195.2c-0.3,0-0.5-0.2-0.5-0.5v-1.9
		c0-0.3,0.1-0.5,0.4-0.5s0.5,0.1,0.5,0.4v0.1v1.9C259.4,195,259.1,195.2,258.9,195.2L258.9,195.2L258.9,195.2z M258.9,191.4
		c-0.3,0-0.5-0.2-0.5-0.5V189c0-0.3,0.1-0.5,0.4-0.5s0.5,0.1,0.5,0.4v0.1v1.9C259.4,191.2,259.1,191.4,258.9,191.4L258.9,191.4
		L258.9,191.4z M258.9,187.6c-0.3,0-0.5-0.2-0.5-0.5v-1.9c0-0.3,0.1-0.5,0.4-0.5s0.5,0.1,0.5,0.4v0.1v1.9
		C259.4,187.4,259.1,187.6,258.9,187.6L258.9,187.6L258.9,187.6z M258.9,183.9c-0.3,0-0.5-0.2-0.5-0.5v-1.9c0-0.3,0.1-0.5,0.4-0.5
		s0.5,0.1,0.5,0.4v0.1v1.9C259.4,183.6,259.1,183.9,258.9,183.9L258.9,183.9L258.9,183.9z M258.9,180.1c-0.3,0-0.5-0.2-0.5-0.5v-1.9
		c0-0.3,0.3-0.4,0.5-0.4s0.4,0.2,0.4,0.4v1.9C259.4,179.9,259.1,180.1,258.9,180.1L258.9,180.1L258.9,180.1z M258.9,176.3
		c-0.3,0-0.5-0.2-0.5-0.5V174c0-0.3,0.3-0.4,0.5-0.4s0.4,0.2,0.4,0.4v1.9C259.3,176.1,259.1,176.3,258.9,176.3L258.9,176.3z
		 M258.9,172.5c-0.3,0-0.5-0.2-0.5-0.5v-1.9c0-0.3,0.3-0.4,0.5-0.4s0.4,0.2,0.4,0.4v1.9C259.4,172.3,259.2,172.5,258.9,172.5
		L258.9,172.5L258.9,172.5z"/>
	<path class="st19" d="M258.9,258.3c-0.3,0-0.5-0.2-0.5-0.5v-0.9c0-0.3,0.1-0.5,0.4-0.5s0.5,0.1,0.5,0.4v0.1v0.9
		C259.4,258.1,259.1,258.3,258.9,258.3z"/>
	<path class="st19" d="M295.6,181.4c-0.3,0-0.5-0.2-0.5-0.5V180c0-0.3,0.3-0.4,0.5-0.4s0.4,0.2,0.4,0.4v1
		C296,181.2,295.8,181.4,295.6,181.4z"/>
	<path class="st19" d="M295.6,234.5c-0.3,0-0.5-0.2-0.5-0.5v-1.9c0-0.3,0.3-0.4,0.5-0.4s0.4,0.2,0.4,0.4v1.9
		C296,234.3,295.8,234.5,295.6,234.5L295.6,234.5z M295.6,230.7c-0.3,0-0.5-0.2-0.5-0.5v-1.9c0-0.3,0.3-0.4,0.5-0.4s0.4,0.2,0.4,0.4
		v1.9C296,230.5,295.8,230.7,295.6,230.7z M295.6,226.9c-0.3,0-0.5-0.2-0.5-0.5v-1.9c0-0.3,0.3-0.4,0.5-0.4s0.4,0.2,0.4,0.4v1.9
		C296,226.7,295.8,226.9,295.6,226.9L295.6,226.9z M295.6,223.1c-0.3,0-0.5-0.2-0.5-0.5v-1.9c0-0.3,0.3-0.4,0.5-0.4s0.4,0.2,0.4,0.4
		v1.9C296,222.9,295.8,223.1,295.6,223.1L295.6,223.1z M295.6,219.3c-0.3,0-0.5-0.2-0.5-0.5V217c0-0.3,0.3-0.4,0.5-0.4
		s0.4,0.2,0.4,0.4v1.9C296,219.1,295.8,219.3,295.6,219.3L295.6,219.3z M295.6,215.5c-0.3,0-0.5-0.2-0.5-0.5v-1.9
		c0-0.3,0.3-0.4,0.5-0.4s0.4,0.2,0.4,0.4v1.9C296,215.3,295.8,215.5,295.6,215.5L295.6,215.5z M295.6,211.7c-0.3,0-0.5-0.2-0.5-0.5
		v-1.9c0-0.3,0.3-0.4,0.5-0.4s0.4,0.2,0.4,0.4v1.9C296,211.5,295.8,211.7,295.6,211.7L295.6,211.7z M295.6,208
		c-0.3,0-0.5-0.2-0.5-0.5v-1.9c0-0.3,0.3-0.4,0.5-0.4s0.4,0.2,0.4,0.4v1.9C296.1,207.7,295.9,208,295.6,208L295.6,208L295.6,208z
		 M295.6,204.2c-0.3,0-0.5-0.2-0.5-0.5v-1.9c0-0.3,0.3-0.4,0.5-0.4s0.4,0.2,0.4,0.4v1.9C296,204,295.8,204.2,295.6,204.2
		L295.6,204.2z M295.6,200.4c-0.3,0-0.5-0.2-0.5-0.5V198c0-0.3,0.3-0.4,0.5-0.4s0.4,0.2,0.4,0.4v1.9
		C296,200.2,295.8,200.4,295.6,200.4L295.6,200.4L295.6,200.4z M295.6,196.6c-0.3,0-0.5-0.2-0.5-0.5v-1.9c0-0.3,0.3-0.4,0.5-0.4
		s0.4,0.2,0.4,0.4v1.9C296,196.4,295.8,196.6,295.6,196.6L295.6,196.6z M295.6,192.8c-0.3,0-0.5-0.2-0.5-0.5v-1.9
		c0-0.3,0.1-0.5,0.4-0.5s0.5,0.1,0.5,0.4v0.1v1.9C296,192.6,295.8,192.8,295.6,192.8L295.6,192.8z M295.6,189
		c-0.3,0-0.5-0.2-0.5-0.5v-1.9c0-0.3,0.1-0.5,0.4-0.5s0.5,0.1,0.5,0.4v0.1v1.9C296,188.8,295.8,189,295.6,189L295.6,189z
		 M295.6,185.2c-0.3,0-0.5-0.2-0.5-0.5v-1.9c0-0.3,0.1-0.5,0.4-0.5s0.5,0.1,0.5,0.4v0.1v1.9C296,185,295.8,185.2,295.6,185.2
		L295.6,185.2z"/>
	<path class="st19" d="M295.6,237.3c-0.3,0-0.5-0.2-0.5-0.5v-0.9c0-0.3,0.3-0.4,0.5-0.4s0.4,0.2,0.4,0.4v0.9
		C296,237.1,295.8,237.3,295.6,237.3L295.6,237.3z"/>
	<path class="st19" d="M331.7,183.9c-0.3,0-0.5-0.2-0.5-0.5l0,0v-0.9c0-0.3,0.3-0.4,0.5-0.4s0.4,0.2,0.4,0.4v0.9
		C332.2,183.7,331.9,183.9,331.7,183.9z"/>
	<path class="st19" d="M331.7,213.6c-0.3,0-0.5-0.2-0.5-0.5l0,0v-1.9c0-0.3,0.1-0.5,0.4-0.5s0.5,0.1,0.5,0.4v0.1v1.9
		C332.2,213.4,331.9,213.6,331.7,213.6z M331.7,209.9c-0.3,0-0.5-0.2-0.5-0.5l0,0v-1.9c0-0.3,0.1-0.5,0.4-0.5s0.5,0.1,0.5,0.4v0.1
		v1.9C332.2,209.7,331.9,209.9,331.7,209.9L331.7,209.9z M331.7,206.2c-0.3,0-0.5-0.2-0.5-0.5l0,0v-1.9c0-0.3,0.1-0.5,0.4-0.5
		s0.5,0.1,0.5,0.4v0.1v1.9C332.2,206,331.9,206.2,331.7,206.2L331.7,206.2z M331.7,202.5c-0.3,0-0.5-0.2-0.5-0.5l0,0v-1.9
		c0-0.3,0.3-0.4,0.5-0.4s0.4,0.2,0.4,0.4v1.9C332.1,202.3,331.9,202.5,331.7,202.5L331.7,202.5z M331.7,198.7
		c-0.3,0-0.5-0.2-0.5-0.4l0,0v-1.9c0-0.3,0.3-0.4,0.5-0.4s0.4,0.2,0.4,0.4v1.9C332.2,198.5,331.9,198.7,331.7,198.7L331.7,198.7
		L331.7,198.7z M331.7,195c-0.3,0-0.5-0.2-0.5-0.5v-1.9c0-0.3,0.3-0.4,0.5-0.4s0.4,0.2,0.4,0.4v1.9C332.1,194.8,331.9,195,331.7,195
		L331.7,195z M331.7,191.3c-0.3,0-0.5-0.2-0.5-0.5V189c0-0.3,0.3-0.4,0.5-0.4s0.4,0.2,0.4,0.4v1.9
		C332.1,191.1,331.9,191.3,331.7,191.3L331.7,191.3z M331.7,187.6c-0.3,0-0.5-0.2-0.5-0.5v-1.9c0-0.3,0.3-0.4,0.5-0.4
		s0.4,0.2,0.4,0.4v1.9C332.1,187.4,331.9,187.6,331.7,187.6L331.7,187.6z"/>
	<path class="st19" d="M331.7,216.4c-0.3,0-0.5-0.2-0.5-0.4l0,0v-1c0-0.3,0.1-0.5,0.4-0.5s0.5,0.1,0.5,0.4v0.1v0.9
		C332.1,216.2,331.9,216.4,331.7,216.4z"/>
	<path class="st19" d="M303.1,151.2c0-0.9-0.6-1.3-1.4-0.8l-13.2,7.6c-0.8,0.6-1.4,1.5-1.4,2.5v10.7c0,0.9,0.6,1.3,1.4,0.8l4.9-2.8
		l2,3.6c0.1,0.1,0.3,0.2,0.4,0.1c0.1,0,0.1-0.1,0.1-0.2l2.2-6.3l0,0l3.5-2c0.8-0.5,1.4-1.5,1.4-2.5L303.1,151.2z"/>
	<path class="st5" d="M291.6,162.4c-0.3,0-0.5-0.1-0.7-0.3s-0.3-0.6-0.3-0.9c0-0.4,0.1-0.8,0.3-1.2c0.2-0.4,0.4-0.8,0.7-1.1
		c0.3-0.3,0.6-0.6,1-0.8c0.3-0.2,0.6-0.3,1-0.3c0.3,0,0.5,0.1,0.7,0.3s0.3,0.6,0.3,0.9c0,0.4-0.1,0.8-0.3,1.2
		c-0.2,0.4-0.4,0.8-0.7,1.1c-0.3,0.3-0.6,0.6-1,0.8C292.4,162.3,292,162.4,291.6,162.4z M291.3,167.8c0-0.1,0-0.1,0-0.2L297,156
		l0.1-0.3c0.1-0.1,0.1-0.1,0.2-0.2l1.2-0.7h0.1c0,0,0.1,0,0.1,0.1s0,0.1-0.1,0.2l-5.8,11.6c0,0.1-0.1,0.2-0.1,0.2
		c-0.1,0.1-0.1,0.1-0.2,0.1L291.3,167.8C291.4,168,291.3,167.9,291.3,167.8z M293.3,160.4c0.2-0.3,0.3-0.6,0.3-0.9
		c0-0.2-0.1-0.5-0.3-0.6c-0.2-0.1-0.5,0-0.7,0.1c-0.3,0.2-0.5,0.4-0.7,0.7s-0.3,0.6-0.3,0.9c0,0.2,0.1,0.4,0.3,0.6
		c0.2,0.1,0.5,0,0.7-0.1C292.9,161,293.2,160.7,293.3,160.4L293.3,160.4z M296.5,164.9c-0.3,0-0.5-0.1-0.7-0.3s-0.3-0.5-0.3-0.9
		s0.1-0.8,0.3-1.2c0.2-0.4,0.4-0.8,0.7-1.1c0.3-0.3,0.6-0.6,1-0.8c0.3-0.2,0.6-0.3,1-0.3c0.3,0,0.5,0.1,0.7,0.3s0.3,0.6,0.3,0.9
		c0,0.4-0.1,0.8-0.3,1.2c-0.2,0.4-0.4,0.8-0.7,1.1c-0.3,0.3-0.6,0.6-1,0.8C297.2,164.8,296.9,164.9,296.5,164.9L296.5,164.9z
		 M298.2,162.9c0.2-0.3,0.3-0.6,0.3-0.9c0-0.3-0.1-0.5-0.3-0.6c-0.2-0.1-0.5,0-0.7,0.1c-0.3,0.2-0.5,0.4-0.7,0.7s-0.3,0.6-0.3,0.9
		c0,0.3,0.1,0.5,0.3,0.6c0.2,0.1,0.5,0,0.7-0.1C297.8,163.4,298.1,163.2,298.2,162.9L298.2,162.9z"/>
	<path class="st13" d="M291.6,162.4c-0.3,0-0.5-0.1-0.7-0.3s-0.3-0.6-0.3-0.9c0-0.4,0.1-0.8,0.3-1.2c0.2-0.4,0.4-0.8,0.7-1.1
		c0.3-0.3,0.6-0.6,1-0.8c0.3-0.2,0.6-0.3,1-0.3c0.3,0,0.5,0.1,0.7,0.3s0.3,0.6,0.3,0.9c0,0.4-0.1,0.8-0.3,1.2
		c-0.2,0.4-0.4,0.8-0.7,1.1c-0.3,0.3-0.6,0.6-1,0.8C292.4,162.3,292,162.4,291.6,162.4z M291.3,167.8c0-0.1,0-0.1,0-0.2L297,156
		l0.1-0.3c0.1-0.1,0.1-0.1,0.2-0.2l1.2-0.7h0.1c0,0,0.1,0,0.1,0.1s0,0.1-0.1,0.2l-5.8,11.6c0,0.1-0.1,0.2-0.1,0.2
		c-0.1,0.1-0.1,0.1-0.2,0.1L291.3,167.8C291.4,168,291.3,167.9,291.3,167.8z M293.3,160.4c0.2-0.3,0.3-0.6,0.3-0.9
		c0-0.2-0.1-0.5-0.3-0.6c-0.2-0.1-0.5,0-0.7,0.1c-0.3,0.2-0.5,0.4-0.7,0.7s-0.3,0.6-0.3,0.9c0,0.2,0.1,0.4,0.3,0.6
		c0.2,0.1,0.5,0,0.7-0.1C292.9,161,293.2,160.7,293.3,160.4L293.3,160.4z M296.5,164.9c-0.3,0-0.5-0.1-0.7-0.3s-0.3-0.5-0.3-0.9
		s0.1-0.8,0.3-1.2c0.2-0.4,0.4-0.8,0.7-1.1c0.3-0.3,0.6-0.6,1-0.8c0.3-0.2,0.6-0.3,1-0.3c0.3,0,0.5,0.1,0.7,0.3s0.3,0.6,0.3,0.9
		c0,0.4-0.1,0.8-0.3,1.2c-0.2,0.4-0.4,0.8-0.7,1.1c-0.3,0.3-0.6,0.6-1,0.8C297.2,164.8,296.9,164.9,296.5,164.9L296.5,164.9z
		 M298.2,162.9c0.2-0.3,0.3-0.6,0.3-0.9c0-0.3-0.1-0.5-0.3-0.6c-0.2-0.1-0.5,0-0.7,0.1c-0.3,0.2-0.5,0.4-0.7,0.7s-0.3,0.6-0.3,0.9
		c0,0.3,0.1,0.5,0.3,0.6c0.2,0.1,0.5,0,0.7-0.1C297.8,163.4,298.1,163.2,298.2,162.9L298.2,162.9z"/>
	<path class="st19" d="M338.7,153.1c0-0.9-0.6-1.3-1.4-0.8l-13.2,7.6c-0.8,0.6-1.4,1.5-1.4,2.5V173c0,0.9,0.6,1.3,1.4,0.8l4.9-2.8
		l2.1,3.6c0.1,0.2,0.2,0.2,0.4,0.2c0.1,0,0.1-0.1,0.2-0.2l2.2-6.3l0,0l3.5-2c0.8-0.6,1.4-1.5,1.4-2.5L338.7,153.1z"/>
	<path class="st5" d="M327.2,164.2c-0.3,0-0.5-0.1-0.7-0.3s-0.3-0.6-0.3-0.9c0-0.4,0.1-0.8,0.3-1.2c0.2-0.4,0.4-0.8,0.7-1.1
		c0.3-0.3,0.6-0.6,1-0.8c0.3-0.2,0.6-0.3,1-0.3c0.3,0,0.5,0.1,0.7,0.3s0.3,0.6,0.3,0.9c0,0.4-0.1,0.8-0.3,1.2
		c-0.2,0.4-0.4,0.8-0.7,1.1c-0.3,0.3-0.6,0.6-1,0.8C327.9,164.1,327.6,164.2,327.2,164.2z M326.9,169.6c0-0.1,0-0.1,0.1-0.2
		l5.7-11.6c0-0.1,0.1-0.2,0.1-0.3c0.1-0.1,0.1-0.1,0.2-0.2l1.2-0.7c0.1,0,0.1-0.1,0.1,0s0,0,0,0.1s0,0.1,0,0.2l-5.8,11.7
		c0,0.1-0.1,0.2-0.1,0.2c-0.1,0.1-0.1,0.1-0.2,0.1l-1.2,0.7C327,169.8,326.9,169.7,326.9,169.6z M328.9,162.3
		c0.2-0.3,0.3-0.6,0.3-0.9c0-0.2-0.1-0.5-0.3-0.6c-0.2-0.1-0.5,0-0.7,0.1c-0.3,0.2-0.5,0.4-0.7,0.7s-0.3,0.6-0.3,0.9
		c0,0.2,0.1,0.5,0.3,0.6c0.2,0.1,0.5,0,0.7-0.1C328.5,162.8,328.7,162.6,328.9,162.3L328.9,162.3z M332.1,166.7
		c-0.3,0-0.5-0.1-0.7-0.3s-0.3-0.6-0.3-0.9c0-0.4,0.1-0.8,0.3-1.2c0.2-0.4,0.4-0.8,0.7-1.1c0.3-0.3,0.6-0.6,1-0.8
		c0.3-0.2,0.6-0.3,1-0.3c0.3,0,0.5,0.1,0.7,0.3s0.3,0.5,0.3,0.9s-0.1,0.8-0.3,1.2c-0.2,0.4-0.4,0.8-0.7,1.1c-0.3,0.3-0.6,0.6-1,0.8
		C332.8,166.6,332.4,166.7,332.1,166.7L332.1,166.7z M333.8,164.7c0.2-0.3,0.3-0.6,0.3-0.9c0-0.2-0.1-0.4-0.3-0.6
		c-0.3-0.1-0.5,0-0.7,0.1c-0.3,0.2-0.5,0.4-0.7,0.7s-0.3,0.6-0.3,0.9c0,0.3,0.1,0.5,0.3,0.6c0.2,0.1,0.5,0,0.7-0.1
		C333.4,165.3,333.6,165,333.8,164.7L333.8,164.7z"/>
	<path class="st13" d="M327.2,164.2c-0.3,0-0.5-0.1-0.7-0.3s-0.3-0.6-0.3-0.9c0-0.4,0.1-0.8,0.3-1.2c0.2-0.4,0.4-0.8,0.7-1.1
		c0.3-0.3,0.6-0.6,1-0.8c0.3-0.2,0.6-0.3,1-0.3c0.3,0,0.5,0.1,0.7,0.3s0.3,0.6,0.3,0.9c0,0.4-0.1,0.8-0.3,1.2
		c-0.2,0.4-0.4,0.8-0.7,1.1c-0.3,0.3-0.6,0.6-1,0.8C327.9,164.1,327.6,164.2,327.2,164.2z M326.9,169.6c0-0.1,0-0.1,0.1-0.2
		l5.7-11.6c0-0.1,0.1-0.2,0.1-0.3c0.1-0.1,0.1-0.1,0.2-0.2l1.2-0.7c0.1,0,0.1-0.1,0.1,0s0,0,0,0.1s0,0.1,0,0.2l-5.8,11.7
		c0,0.1-0.1,0.2-0.1,0.2c-0.1,0.1-0.1,0.1-0.2,0.1l-1.2,0.7C327,169.8,326.9,169.7,326.9,169.6z M328.9,162.3
		c0.2-0.3,0.3-0.6,0.3-0.9c0-0.2-0.1-0.5-0.3-0.6c-0.2-0.1-0.5,0-0.7,0.1c-0.3,0.2-0.5,0.4-0.7,0.7s-0.3,0.6-0.3,0.9
		c0,0.2,0.1,0.5,0.3,0.6c0.2,0.1,0.5,0,0.7-0.1C328.5,162.8,328.7,162.6,328.9,162.3L328.9,162.3z M332.1,166.7
		c-0.3,0-0.5-0.1-0.7-0.3s-0.3-0.6-0.3-0.9c0-0.4,0.1-0.8,0.3-1.2c0.2-0.4,0.4-0.8,0.7-1.1c0.3-0.3,0.6-0.6,1-0.8
		c0.3-0.2,0.6-0.3,1-0.3c0.3,0,0.5,0.1,0.7,0.3s0.3,0.5,0.3,0.9s-0.1,0.8-0.3,1.2c-0.2,0.4-0.4,0.8-0.7,1.1c-0.3,0.3-0.6,0.6-1,0.8
		C332.8,166.6,332.4,166.7,332.1,166.7L332.1,166.7z M333.8,164.7c0.2-0.3,0.3-0.6,0.3-0.9c0-0.2-0.1-0.4-0.3-0.6
		c-0.3-0.1-0.5,0-0.7,0.1c-0.3,0.2-0.5,0.4-0.7,0.7s-0.3,0.6-0.3,0.9c0,0.3,0.1,0.5,0.3,0.6c0.2,0.1,0.5,0,0.7-0.1
		C333.4,165.3,333.6,165,333.8,164.7L333.8,164.7z"/>
	<path class="st19" d="M265.7,138.9c0-0.9-0.6-1.3-1.4-0.8l-13.2,7.6c-0.8,0.6-1.4,1.5-1.4,2.5v10.7c0,0.9,0.6,1.3,1.4,0.8l4.9-2.8
		l2.1,3.6c0.1,0.2,0.2,0.2,0.4,0.2c0.1,0,0.1-0.1,0.2-0.2l2.2-6.3l0,0l3.5-2c0.8-0.5,1.4-1.5,1.4-2.5v-10.8H265.7z"/>
	<path class="st5" d="M254.3,150c-0.3,0-0.5-0.1-0.7-0.3s-0.3-0.6-0.3-0.9c0-0.4,0.1-0.8,0.3-1.2s0.4-0.8,0.7-1.1s0.6-0.6,1-0.8
		c0.3-0.2,0.6-0.3,1-0.3c0.3,0,0.5,0.1,0.7,0.3s0.3,0.6,0.3,0.9c0,0.4-0.1,0.8-0.3,1.2c-0.2,0.4-0.4,0.8-0.7,1.1
		c-0.3,0.3-0.6,0.6-1,0.8C255,149.9,254.6,150,254.3,150z M253.9,155.4c0-0.1,0-0.1,0.1-0.2l5.7-11.6c0-0.1,0.1-0.2,0.1-0.3
		c0.1-0.1,0.1-0.1,0.2-0.2l1.2-0.7h0.1c0,0,0,0,0,0.1s0,0.1,0,0.2l-5.8,11.7c0,0.1-0.1,0.2-0.1,0.2c0,0.1-0.1,0.1-0.2,0.1l-1.2,0.7
		C254,155.6,253.9,155.5,253.9,155.4L253.9,155.4z M255.9,148c0.2-0.3,0.3-0.6,0.3-0.9c0-0.2-0.1-0.5-0.3-0.6s-0.5,0-0.7,0.1
		c-0.3,0.2-0.5,0.4-0.7,0.7s-0.3,0.6-0.3,0.9c0,0.3,0.1,0.5,0.3,0.6s0.5,0,0.7-0.1C255.5,148.5,255.8,148.3,255.9,148L255.9,148z
		 M259.1,152.5c-0.3,0-0.5-0.1-0.7-0.3s-0.3-0.6-0.3-0.9c0-0.4,0.1-0.8,0.3-1.2c0.2-0.4,0.4-0.8,0.7-1.1c0.3-0.3,0.6-0.6,1-0.8
		c0.3-0.2,0.6-0.3,1-0.3c0.3,0,0.5,0.1,0.7,0.3s0.3,0.6,0.3,0.9c0,0.4-0.1,0.8-0.3,1.2c-0.2,0.4-0.4,0.8-0.7,1.1
		c-0.3,0.3-0.6,0.6-1,0.8C259.8,152.4,259.5,152.5,259.1,152.5L259.1,152.5z M260.8,150.5c0.2-0.3,0.3-0.6,0.3-0.9
		c0-0.2-0.1-0.4-0.3-0.6c-0.3-0.1-0.5,0-0.7,0.1c-0.3,0.2-0.5,0.4-0.7,0.7s-0.3,0.6-0.3,0.9c0,0.3,0.1,0.5,0.3,0.6
		c0.2,0.1,0.5,0,0.7-0.1C260.4,151,260.7,150.8,260.8,150.5L260.8,150.5z"/>
	<path class="st13" d="M254.3,150c-0.3,0-0.5-0.1-0.7-0.3s-0.3-0.6-0.3-0.9c0-0.4,0.1-0.8,0.3-1.2s0.4-0.8,0.7-1.1s0.6-0.6,1-0.8
		c0.3-0.2,0.6-0.3,1-0.3c0.3,0,0.5,0.1,0.7,0.3s0.3,0.6,0.3,0.9c0,0.4-0.1,0.8-0.3,1.2c-0.2,0.4-0.4,0.8-0.7,1.1
		c-0.3,0.3-0.6,0.6-1,0.8C255,149.9,254.6,150,254.3,150z M253.9,155.4c0-0.1,0-0.1,0.1-0.2l5.7-11.6c0-0.1,0.1-0.2,0.1-0.3
		c0.1-0.1,0.1-0.1,0.2-0.2l1.2-0.7h0.1c0,0,0,0,0,0.1s0,0.1,0,0.2l-5.8,11.7c0,0.1-0.1,0.2-0.1,0.2c0,0.1-0.1,0.1-0.2,0.1l-1.2,0.7
		C254,155.6,253.9,155.5,253.9,155.4L253.9,155.4z M255.9,148c0.2-0.3,0.3-0.6,0.3-0.9c0-0.2-0.1-0.5-0.3-0.6s-0.5,0-0.7,0.1
		c-0.3,0.2-0.5,0.4-0.7,0.7s-0.3,0.6-0.3,0.9c0,0.3,0.1,0.5,0.3,0.6s0.5,0,0.7-0.1C255.5,148.5,255.8,148.3,255.9,148L255.9,148z
		 M259.1,152.5c-0.3,0-0.5-0.1-0.7-0.3s-0.3-0.6-0.3-0.9c0-0.4,0.1-0.8,0.3-1.2c0.2-0.4,0.4-0.8,0.7-1.1c0.3-0.3,0.6-0.6,1-0.8
		c0.3-0.2,0.6-0.3,1-0.3c0.3,0,0.5,0.1,0.7,0.3s0.3,0.6,0.3,0.9c0,0.4-0.1,0.8-0.3,1.2c-0.2,0.4-0.4,0.8-0.7,1.1
		c-0.3,0.3-0.6,0.6-1,0.8C259.8,152.4,259.5,152.5,259.1,152.5L259.1,152.5z M260.8,150.5c0.2-0.3,0.3-0.6,0.3-0.9
		c0-0.2-0.1-0.4-0.3-0.6c-0.3-0.1-0.5,0-0.7,0.1c-0.3,0.2-0.5,0.4-0.7,0.7s-0.3,0.6-0.3,0.9c0,0.3,0.1,0.5,0.3,0.6
		c0.2,0.1,0.5,0,0.7-0.1C260.4,151,260.7,150.8,260.8,150.5L260.8,150.5z"/>
	<path class="st19" d="M217.9,195.6c0-0.9-0.6-1.3-1.4-0.8l-13.2,7.6c-0.8,0.6-1.4,1.5-1.4,2.5v10.6c0,0.9,0.6,1.3,1.4,0.8l4.9-2.8
		l2.1,3.6c0.1,0.1,0.3,0.2,0.4,0.1c0.1,0,0.1-0.1,0.1-0.2l2.2-6.3l0,0l3.5-2c0.8-0.6,1.4-1.5,1.4-2.5V195.6z"/>
	<path class="st5" d="M206.4,206.8c-0.3,0-0.5-0.1-0.7-0.3s-0.3-0.6-0.3-0.9c0-0.4,0.1-0.8,0.3-1.2s0.4-0.8,0.7-1.1s0.6-0.6,1-0.8
		c0.3-0.2,0.6-0.3,1-0.3c0.3,0,0.5,0.1,0.7,0.3s0.3,0.6,0.3,0.9c0,0.4-0.1,0.8-0.3,1.2s-0.4,0.8-0.7,1.1s-0.6,0.6-1,0.8
		C207.1,206.7,206.8,206.8,206.4,206.8z M206.1,212.2c0-0.1,0-0.1,0.1-0.2l5.7-11.6c0-0.1,0.1-0.2,0.1-0.3c0.1-0.1,0.1-0.1,0.2-0.2
		l1.2-0.7h0.1c0,0,0.1,0,0.1,0.1s0,0.1-0.1,0.2l-5.7,11.7c-0.1,0.1-0.1,0.2-0.1,0.2c-0.1,0.1-0.1,0.1-0.2,0.1l-1.2,0.7
		C206.2,212.3,206.1,212.3,206.1,212.2L206.1,212.2z M208.1,204.8c0.2-0.3,0.3-0.6,0.3-0.9c0-0.3-0.1-0.5-0.3-0.6s-0.5,0-0.7,0.1
		c-0.3,0.2-0.5,0.4-0.7,0.7s-0.3,0.6-0.3,0.9c0,0.2,0.1,0.4,0.3,0.6c0.2,0.1,0.5,0,0.7-0.1C207.7,205.3,208,205.1,208.1,204.8
		L208.1,204.8z M211.3,209.3c-0.3,0-0.5-0.1-0.7-0.3s-0.3-0.5-0.3-0.9s0.1-0.8,0.3-1.2s0.4-0.8,0.7-1.1s0.6-0.6,1-0.8
		c0.3-0.2,0.6-0.3,1-0.3c0.3,0,0.5,0.1,0.7,0.3s0.3,0.6,0.3,0.9c0,0.4-0.1,0.8-0.3,1.2s-0.4,0.8-0.7,1.1s-0.6,0.6-1,0.8
		C212,209.1,211.7,209.3,211.3,209.3L211.3,209.3z M213,207.3c0.2-0.3,0.3-0.6,0.3-0.9c0-0.2-0.1-0.4-0.3-0.6
		c-0.3-0.1-0.5,0-0.7,0.1c-0.3,0.2-0.5,0.4-0.7,0.7s-0.3,0.6-0.3,0.9c0,0.3,0.1,0.5,0.3,0.6s0.5,0,0.7-0.1
		C212.6,207.8,212.9,207.6,213,207.3L213,207.3z"/>
	<path class="st13" d="M206.4,206.8c-0.3,0-0.5-0.1-0.7-0.3s-0.3-0.6-0.3-0.9c0-0.4,0.1-0.8,0.3-1.2s0.4-0.8,0.7-1.1s0.6-0.6,1-0.8
		c0.3-0.2,0.6-0.3,1-0.3c0.3,0,0.5,0.1,0.7,0.3s0.3,0.6,0.3,0.9c0,0.4-0.1,0.8-0.3,1.2s-0.4,0.8-0.7,1.1s-0.6,0.6-1,0.8
		C207.1,206.7,206.8,206.8,206.4,206.8z M206.1,212.2c0-0.1,0-0.1,0.1-0.2l5.7-11.6c0-0.1,0.1-0.2,0.1-0.3c0.1-0.1,0.1-0.1,0.2-0.2
		l1.2-0.7h0.1c0,0,0.1,0,0.1,0.1s0,0.1-0.1,0.2l-5.7,11.7c-0.1,0.1-0.1,0.2-0.1,0.2c-0.1,0.1-0.1,0.1-0.2,0.1l-1.2,0.7
		C206.2,212.3,206.1,212.3,206.1,212.2L206.1,212.2z M208.1,204.8c0.2-0.3,0.3-0.6,0.3-0.9c0-0.3-0.1-0.5-0.3-0.6s-0.5,0-0.7,0.1
		c-0.3,0.2-0.5,0.4-0.7,0.7s-0.3,0.6-0.3,0.9c0,0.2,0.1,0.4,0.3,0.6c0.2,0.1,0.5,0,0.7-0.1C207.7,205.3,208,205.1,208.1,204.8
		L208.1,204.8z M211.3,209.3c-0.3,0-0.5-0.1-0.7-0.3s-0.3-0.5-0.3-0.9s0.1-0.8,0.3-1.2s0.4-0.8,0.7-1.1s0.6-0.6,1-0.8
		c0.3-0.2,0.6-0.3,1-0.3c0.3,0,0.5,0.1,0.7,0.3s0.3,0.6,0.3,0.9c0,0.4-0.1,0.8-0.3,1.2s-0.4,0.8-0.7,1.1s-0.6,0.6-1,0.8
		C212,209.1,211.7,209.3,211.3,209.3L211.3,209.3z M213,207.3c0.2-0.3,0.3-0.6,0.3-0.9c0-0.2-0.1-0.4-0.3-0.6
		c-0.3-0.1-0.5,0-0.7,0.1c-0.3,0.2-0.5,0.4-0.7,0.7s-0.3,0.6-0.3,0.9c0,0.3,0.1,0.5,0.3,0.6s0.5,0,0.7-0.1
		C212.6,207.8,212.9,207.6,213,207.3L213,207.3z"/>
	<path class="st19" d="M206.1,295.2l9.6-5.6c1.4-0.8,2.5-0.5,2.5,0.8c-0.2,1.6-1.2,2.9-2.5,3.7l-9.6,5.6c-1.4,0.8-2.6,0.5-2.6-0.8
		C203.8,297.3,204.7,296,206.1,295.2z"/>
	<path class="st19" d="M254.1,267.5l9.6-5.6c1.4-0.8,2.5-0.5,2.5,0.8c-0.2,1.6-1.2,2.9-2.5,3.7l-9.6,5.6c-1.4,0.8-2.5,0.5-2.5-0.8
		C251.7,269.6,252.7,268.3,254.1,267.5z"/>
	<path class="st19" d="M290.7,246.3l9.6-5.6c1.4-0.8,2.5-0.5,2.5,0.8c-0.2,1.6-1.2,2.9-2.5,3.7l-9.6,5.6c-1.4,0.8-2.5,0.5-2.5-0.8
		C288.4,248.5,289.4,247.1,290.7,246.3z"/>
	<path class="st19" d="M326.9,225.4l9.6-5.6c1.4-0.8,2.5-0.5,2.5,0.8c-0.2,1.6-1.2,3-2.5,3.7l-9.6,5.6c-1.4,0.8-2.5,0.5-2.5-0.8
		C324.5,227.6,325.5,226.2,326.9,225.4z"/>
</g>
<g id="freepik--Character--inject-9">
	<path class="st20" d="M394,170.7c-2.5-0.2-5.9-0.2-9.3,5.4s-12.6,20.8-12.6,20.8l6,4.1l10.5-14.8c0,0,1-11.8,2.9-13.4
		S394,170.7,394,170.7z"/>
	
		<rect x="397.9" y="282.9" transform="matrix(0.9514 -0.308 0.308 0.9514 -68.9734 137.42)" class="st21" width="5.9" height="8.6"/>
	<path class="st3" d="M398.2,288.7c0,0.7-0.1,1.3-0.5,1.9c-0.9,1.5-2,2.9-3.1,4.1c-1.7,1.8-4.2,4-6,5.5c-1,0.9-1,2.2,0.4,2.7
		c2.7,0.7,5.5,0.3,7.9-1.1c1.8-1,4.4-5.4,5.9-6.1c1.7-0.8,2.7-1.2,3.3-2c0.9-0.9,1-2.4,0.4-3.5c-0.8-1.5-2-3.8-2.5-3.6l0.1,0.5
		c-0.4,1.2-3.7,2.7-5.5,2.3L398.2,288.7z"/>
	<path class="st21" d="M403.9,287.2c-1.6-0.5-2.1,0.4-3.8,0l-1.9,1.5c0,0.7-0.1,1.3-0.5,1.9c-0.9,1.5-2,2.9-3.1,4.1
		c-0.8,0.9-1.9,1.8-2.9,2.8l0,0c-0.8,1.3,1.9,1.7,3.5,1.2c1.7-0.6,3.1-1.7,4.1-3.2c1.1-1.5,4.1-4.9,4.6-6
		C404.2,288.8,404.2,288,403.9,287.2z"/>
	<path class="st21" d="M422.9,204.4c-0.8-6-2.7-13-5.1-23.8c-0.9-3.9-2-7.4-4.8-8.5l0,0c0,0-7.6,3.1-7.6,8.8s6.2,8.5,6.2,8.5
		l3.5,12.1l5.6,6.8C422.3,207.8,423.3,206.1,422.9,204.4z"/>
	<rect x="405.2" y="295.6" class="st21" width="5.8" height="8.4"/>
	<path class="st2" d="M415.3,210.3c2.3,9.8,0.1,22.9-0.7,31.1c-0.8,8-1.7,17.4-1.7,17.4s2.5,8.5,2.3,15c-0.1,6.9-4.2,23.6-4.2,23.6
		c-1.8,1.2-4.1,1.2-5.9,0c0,0-1-14-2-21.9c-1-8.3-1.3-14.3-2.2-19.2c-1.1-6-2.9-31.6-2.9-31.6l-3,25.3c1.8,3,3.3,6.3,4.3,9.7
		c1.3,4.9,4,24.4,4,24.4c-1.7,1.5-3.9,2.4-6.2,2.5c0,0-12.3-29.3-14-32.2c-1.8-3.1-2.1-37.2,0.8-45.7L415.3,210.3z"/>
	<path class="st5" d="M404.7,170.8c0,0,7.3,0.9,8.3,1.4c-7.6,5.4-1.5,17.3-1.5,17.3l-3.7,10.2l7.4,10.6c-2.1,2.5-15.7,11-30.2,1.6
		c0.3-4.9,0.9-9.9,1.7-14.7c-2.1-10-2.3-13.2-1.7-15.5c1.7-6.6,5.6-10.8,10.1-11.1L404.7,170.8z"/>
	<path class="st22" d="M404.7,170.8c0,0,7.3,0.9,8.3,1.4c-7.6,5.4-1.5,17.3-1.5,17.3l-3.7,10.2l7.4,10.6c-2.1,2.5-15.7,11-30.2,1.6
		c0.3-4.9,0.9-9.9,1.7-14.7c-2.1-10-2.3-13.2-1.7-15.5c1.7-6.6,5.6-10.8,10.1-11.1L404.7,170.8z"/>
	<polygon class="st5" points="367.9,188.7 392.7,195.2 400,226 376.4,219.2 	"/>
	<path class="st5" d="M378.7,209.1c-0.2,0.6-1.6,2.4-4.5,2.2l-0.4-1.3L378.7,209.1z"/>
	<path class="st6" d="M378.7,209.1c-0.2,0.6-1.6,2.4-4.5,2.2l-0.4-1.3L378.7,209.1z"/>
	<path class="st5" d="M384.2,210c0.1,0.8,1.8,2.3,4.6,3.3c3.3,1.1,8.2,0.5,8.2,0.5l-0.4-1.5L384.2,210z"/>
	<path class="st6" d="M384.2,210c0.1,0.8,1.8,2.3,4.6,3.3c3.3,1.1,8.2,0.5,8.2,0.5l-0.4-1.5L384.2,210z"/>
	<path class="st5" d="M375.1,193.1l-0.2-0.9c-0.1-0.5,1.3-0.6,3.3-0.1l3.6,0.9c1.9,0.5,3.5,1.3,3.7,1.8l0.2,0.9L375.1,193.1z"/>
	<path class="st15" d="M375.1,193.1l-0.2-0.9c-0.1-0.5,1.3-0.6,3.3-0.1l3.6,0.9c1.9,0.5,3.5,1.3,3.7,1.8l0.2,0.9L375.1,193.1z"/>
	<path class="st2" d="M373.4,189.6c-0.1-0.3,0.5-0.4,1.3-0.2l1.5,0.4c0,0-0.4-2,2.8-1.3c1.7,0.2,3.2,1.4,3.9,3l1.5,0.4
		c0.9,0.2,1.6,0.7,1.7,1l0.2,0.6l-12.8-3.4C373.5,190.1,373.5,189.9,373.4,189.6z"/>
	<path class="st2" d="M375.2,190.6c1.2,0.3,1.7,0.4,1.8,1.3s0.3,1.6,0.3,1.6l5.7,1.5c0,0-0.3-1.2-0.4-1.6s0.1-0.7,1-0.5l0.1-0.4
		l-8.9-2.3L375.2,190.6z"/>
	<path class="st2" d="M375,193.2c0,0-0.1-0.4-0.2-1s1.3-0.5,3.3,0l3.7,0.9c1.9,0.5,3.5,1.3,3.7,1.8l0.2,0.9L375,193.2z"/>
	<path class="st21" d="M420.6,208.4l-5.6-6.8c0,0-12.6,5.3-14.5,5.4s-3.5-1.8-4.3-3.7s-2.3-1.7-2.3-1.7s0.6,2.4,0.8,3.2
		s-4.4,1.4-7,0.5s-6.4,0.4-4.1,4s6.9,4,10.1,4c1.3,0,2.7-0.1,4-0.3c1-0.1,2-0.2,3.1-0.3C407.4,212.3,417.7,209.3,420.6,208.4z"/>
	<path class="st21" d="M370.4,197.7l1.1,3.9c0.2,0.8,3.1,2.1,4.9,2.6s3.8,1.1,3,3.6c-0.8,2.4-3.8,2.9-5.3,2.8s-3.6-1.5-4.4-3.9
		c-1-3-0.5-6.2-0.9-8S369.5,196.6,370.4,197.7z"/>
	<path class="st3" d="M405.2,301.1v-0.8c-0.7,2.7-2.1,5.2-4.1,7.2c-1.8,1.7-4.3,3.6-4.9,5.4s2.9,2.7,5.3,2.5
		c2.3-0.3,4.4-1.4,5.9-3.1s1.5-2.9,2.2-3.8s2.3-2,2.7-3.1c0.1-1,0-2-0.3-3s-0.6-2.1-0.9-2v0.6c-0.8,0.7-1.8,1-2.9,1
		C407.2,301.9,405.2,301.8,405.2,301.1z"/>
	<path class="st21" d="M410.9,300.9c-0.4,0.5-0.6-0.7-1.9-0.6c-0.8,0-2.3,0.6-2.3,0h-1.6c-0.7,2.7-2.1,5.2-4.1,7.2
		c-0.4,0.4-0.9,0.8-1.4,1.2c-1,1.1-0.7,2,1.6,2.2s4.3-1.2,6-3.3C408.7,305.5,410,303.3,410.9,300.9z"/>
	<path class="st3" d="M399.8,165.9h-1.4c-7.2,0-13.1-5.9-13.1-13.1l0,0v-1.3c0-6.1,5-11.1,11.1-11.1l0,0h5.4c6.1,0,11.1,5,11.1,11.1
		l0,0v1.3C412.9,160,407,165.9,399.8,165.9z"/>
	<path class="st21" d="M389.8,145.9c-1.5,0.9-3.3,4.5-3.1,12.2c0.1,6.5,2.3,8.1,3.3,8.6s3.1,0.2,5.1-0.1v3.9c0,0-2.8,3.2-2.6,5
		s4,2.2,6.5,0.5c1.9-1.4,3.5-3.2,4.7-5.2v-9c0,0,1.2,1.1,3.2-0.6c1.6-1.4,2.2-3.9,0.9-5.1c-1.1-1.1-3-1-4,0.1
		c-0.2,0.2-0.4,0.5-0.5,0.8c-2.6-0.1-5.2-0.9-7.4-2.2C392.6,152.9,390.4,149.7,389.8,145.9z"/>
	<path class="st3" d="M394,156.5c0,0.5,0.3,0.9,0.8,0.9l0,0c0.5,0,0.9-0.4,0.9-0.8c0-0.5-0.3-0.8-0.8-0.9S394,156,394,156.5
		L394,156.5z"/>
	<path class="st20" d="M393.8,162l-1.9,0.6c0.2,0.5,0.7,0.8,1.2,0.7C393.7,163.1,394,162.6,393.8,162L393.8,162z"/>
	<path class="st3" d="M387.3,154l1.7-1.1c-0.3-0.5-0.9-0.6-1.4-0.3S387,153.5,387.3,154L387.3,154z"/>
	<path class="st3" d="M387.7,155.9c0,0.5,0.4,0.8,0.8,0.8c0.5,0,0.8-0.4,0.8-0.8c0-0.4-0.3-0.8-0.8-0.8
		C388.1,155.1,387.7,155.4,387.7,155.9L387.7,155.9z"/>
	<polygon class="st20" points="391.6,155.4 391.4,160.4 388.8,159.6 	"/>
	<path class="st20" d="M395.2,166.6c2.1-0.3,6.4-1.5,7.1-3.2c-0.3,0.9-0.8,1.6-1.5,2.2c-1.3,1.1-5.6,2.3-5.6,2.3V166.6z"/>
	<polygon class="st5" points="410,193.6 404.3,201.4 407.9,199.6 	"/>
	<polygon class="st23" points="410,193.6 404.3,201.4 407.9,199.6 	"/>
</g>
</svg>
