<?xml version="1.0" encoding="utf-8"?>
<!-- Generator: Adobe Illustrator 23.0.2, SVG Export Plug-In . SVG Version: 6.00 Build 0)  -->
<svg version="1.1" id="Layer_1" xmlns="http://www.w3.org/2000/svg" xmlns:xlink="http://www.w3.org/1999/xlink" x="0px" y="0px"
	 viewBox="0 0 500 500" style="enable-background:new 0 0 500 500;" xml:space="preserve">
<style type="text/css">
	.st0{fill:#EBEBEB;}
	.st1{fill:#F0F0F0;}
	.st2{fill:#E6E6E6;}
	.st3{fill:#E0E0E0;}
	.st4{fill:#FAFAFA;}
	.st5{fill:#F5F5F5;}
	.st6{fill:#263238;}
	.st7{opacity:0.6;fill:#FFFFFF;enable-background:new    ;}
	.st8{fill:#00A4FF;}
	.st9{opacity:0.2;enable-background:new    ;}
	.st10{opacity:0.8;}
	.st11{fill:#FFFFFF;}
	.st12{opacity:0.5;fill:#FFFFFF;enable-background:new    ;}
	.st13{opacity:0.7;}
	.st14{fill:#2CB7F4;}
	.st15{fill:#6CCBF4;}
	.st16{opacity:0.2;}
	.st17{fill:#FF8B7B;}
	.st18{opacity:0.3;enable-background:new    ;}
	.st19{opacity:0.1;enable-background:new    ;}
	.st20{opacity:0.7;fill:#FFFFFF;enable-background:new    ;}
	.st21{fill:#D85B5B;}
	.st22{fill:#EC837E;}
	.st23{fill:#FFC2BC;}
	.st24{opacity:0.1;fill:#FFFFFF;enable-background:new    ;}
	.st25{fill:#D8D8D8;}
</style>
<g id="freepik--background-complete--inject-7">
	<rect x="416.8" y="398.5" class="st0" width="33.1" height="0.3"/>
	<rect x="322.5" y="401.2" class="st0" width="8.7" height="0.3"/>
	<rect x="396.6" y="389.2" class="st0" width="19.2" height="0.3"/>
	<rect x="52.5" y="390.9" class="st0" width="43.2" height="0.3"/>
	<rect x="104.6" y="390.9" class="st0" width="6.3" height="0.3"/>
	<rect x="131.5" y="395.1" class="st0" width="93.7" height="0.3"/>
	<path class="st0" d="M237,337.8H43.9c-3.2,0-5.7-2.6-5.7-5.7V60.7c0-3.1,2.6-5.7,5.7-5.7H237c3.2,0,5.7,2.6,5.7,5.7l0,0v271.4
		C242.7,335.2,240.2,337.8,237,337.8z M43.9,55.2c-3,0-5.5,2.4-5.5,5.5v271.4c0,3,2.4,5.5,5.5,5.5H237c3,0,5.5-2.4,5.5-5.5V60.7
		c0-3-2.4-5.5-5.5-5.5H43.9z"/>
	<path class="st0" d="M453.3,337.8H260.2c-3.2,0-5.7-2.6-5.7-5.7V60.7c0-3.1,2.6-5.7,5.7-5.7h193.1c3.1,0,5.7,2.5,5.7,5.7v271.4
		C459,335.2,456.5,337.8,453.3,337.8z M260.2,55.2c-3,0-5.5,2.4-5.5,5.5v271.4c0,3,2.4,5.5,5.5,5.5h193.1c3,0,5.5-2.4,5.5-5.5V60.7
		c0-3-2.4-5.5-5.5-5.5H260.2z"/>
	<path class="st1" d="M428.8,140.8v6c3.8,0.3,7.3,1.8,10.2,4.3l4.3-4.3C439.2,143.3,434.1,141.2,428.8,140.8z"/>
	<path class="st2" d="M425.9,182.9c-8.8-0.7-15.8-7.7-16.5-16.6h-6c0.7,12.2,10.4,21.9,22.5,22.6V182.9z"/>
	<path class="st0" d="M409.3,163.4c0.7-8.8,7.7-15.8,16.5-16.6v-6c-12.2,0.7-21.8,10.4-22.6,22.6H409.3z"/>
	<path class="st3" d="M445.4,148.9l-4.3,4.3c6.5,7.6,5.6,19-2,25.5c-2.9,2.5-6.5,3.9-10.3,4.3v6c13.3-0.8,23.4-12.2,22.6-25.5
		C451,158,448.9,152.9,445.4,148.9L445.4,148.9z"/>
	<path class="st2" d="M245.9,153.7h4.4c1.5,0,2.8,1.2,2.8,2.8l0,0v129.1l0,0h-9.9l0,0V156.5C243.1,155,244.3,153.7,245.9,153.7
		L245.9,153.7z"/>
	<path class="st1" d="M248.9,153.7h-2.7c-1.7,0-3.1,1.4-3.1,3.1v128.8h2.7V156.8C245.9,155.1,247.2,153.7,248.9,153.7z"/>
	<rect x="240.3" y="277.1" class="st0" width="15.7" height="105.6"/>
	<path class="st2" d="M234.7,378.4h26.8c2.1,0,3.8,1.7,3.8,3.8l0,0v0.4l0,0h-34.4l0,0v-0.4C230.9,380.1,232.6,378.4,234.7,378.4
		L234.7,378.4z"/>
	<path class="st3" d="M396.4,330.5h25.3c4.5,0,8.2-3.7,8.2-8.2v-36.9c0-0.8-0.7-1.5-1.5-1.5l0,0c-0.8,0-1.5,0.7-1.5,1.5v36.9
		c0,2.9-2.3,5.2-5.2,5.2h-25.3V330.5z"/>
	<path class="st3" d="M389.2,365.9v-34.4l-2-0.6c-2.3-0.7-3.8-2.8-3.8-5.2h19c0,2.4-1.5,4.5-3.8,5.2l-2,0.6v34.4l15.8,7.1v3
		l-19.5-6.8l-19.5,6.8v-3L389.2,365.9z"/>
	<path class="st1" d="M368,327.5h49.8c3,0,5.4-2.4,5.4-5.4l0,0l0,0c0-3-2.4-5.4-5.4-5.4H368c-3,0-5.4,2.4-5.4,5.4l0,0
		C362.6,325.1,365,327.5,368,327.5L368,327.5z"/>
	<path class="st0" d="M426.6,298.4l2.7-38.4c0.2-3-2-5.5-5-5.8l0,0c-3-0.2-5.6,2-5.8,5l-2.7,38.4c-0.2,3,2,5.6,5,5.8l0,0
		C423.8,303.6,426.4,301.3,426.6,298.4z"/>
	<path class="st3" d="M409,378.1c0,1.9,1.5,3.4,3.4,3.4s3.4-1.5,3.4-3.4s-1.5-3.4-3.4-3.4S409,376.2,409,378.1L409,378.1z"/>
	<path class="st3" d="M369.9,378.1c0,1.9,1.5,3.4,3.4,3.4s3.4-1.5,3.4-3.4s-1.5-3.4-3.4-3.4C371.5,374.7,369.9,376.2,369.9,378.1
		L369.9,378.1z"/>
	<path class="st3" d="M100.4,330.5H75.1c-4.5,0-8.2-3.7-8.2-8.2v-36.9c0-0.8,0.7-1.5,1.5-1.5l0,0c0.8,0,1.5,0.7,1.5,1.5v36.9
		c0,2.9,2.3,5.2,5.2,5.2h25.3C100.4,327.5,100.4,330.5,100.4,330.5z"/>
	<path class="st3" d="M107.6,365.9v-34.4l2-0.6c2.3-0.7,3.8-2.8,3.8-5.2h-19c0,2.4,1.5,4.5,3.8,5.2l2,0.6v34.4L84.4,373v3l19.5-6.8
		l19.5,6.8v-3L107.6,365.9z"/>
	<path class="st1" d="M128.8,327.5H79c-3,0-5.4-2.4-5.4-5.4l0,0c0-3,2.4-5.4,5.4-5.4h49.8c3,0,5.4,2.4,5.4,5.4l0,0
		C134.2,325.1,131.8,327.5,128.8,327.5L128.8,327.5z"/>
	<path class="st0" d="M70.2,298.4L67.5,260c-0.2-3,2-5.5,5-5.8l0,0c3-0.2,5.6,2,5.8,5l2.7,38.5c0.2,3-2,5.6-5,5.8l0,0
		C73,303.6,70.4,301.4,70.2,298.4L70.2,298.4z"/>
	<path class="st3" d="M87.8,378.1c0,1.9-1.5,3.4-3.4,3.4S81,380,81,378.1s1.5-3.4,3.4-3.4l0,0C86.3,374.7,87.8,376.2,87.8,378.1
		L87.8,378.1z"/>
	<path class="st3" d="M126.8,378.1c0,1.9-1.5,3.4-3.4,3.4s-3.4-1.5-3.4-3.4s1.5-3.4,3.4-3.4l0,0
		C125.3,374.7,126.8,376.2,126.8,378.1L126.8,378.1z"/>
	<polygon class="st0" points="207.7,382.6 188.2,382.6 186.2,345.7 209.7,345.7 	"/>
	<polygon class="st3" points="192.7,382.6 184.7,382.6 184.7,381 192.7,380 	"/>
	<path class="st3" d="M189.1,342.7h17.6c1.7,0,3,1.3,3,3l0,0l0,0h-23.5l0,0l0,0C186.2,344,187.5,342.7,189.1,342.7L189.1,342.7z"/>
	<polygon class="st3" points="167.7,286.7 136.5,286.7 136.5,283 167.7,281 	"/>
	<rect x="121.5" y="290.5" class="st1" width="92.3" height="12.8"/>
	<rect x="102.7" y="286.7" class="st4" width="130.3" height="7.6"/>
	<polygon class="st2" points="220.9,382.6 226.8,382.6 216.6,294.4 209.7,294.4 	"/>
	<polygon class="st2" points="126,294.4 119.1,294.4 108.9,382.6 114.8,382.6 	"/>
	<path class="st3" d="M199.3,284.8c-2.7-13.2-5.3-26.5-8-39.7c-0.4-1.9-3.3-1.1-2.9,0.8l7.6,37.8h-16.5c-0.8,0-1.5,0.7-1.5,1.5
		s0.7,1.5,1.5,1.5h18.3c0.8,0,1.5-0.7,1.5-1.5C199.3,285.1,199.3,285,199.3,284.8z"/>
	<path class="st4" d="M180.6,274.2L180.6,274.2l5.1-73.5l0,0c3.9,2.8,6,7.3,5.7,12.1l-3.5,50.3C187.6,267.7,184.8,272,180.6,274.2z"
		/>
	<path class="st5" d="M212.3,265.4h8.4c1.6,0,2.9,1.3,2.9,2.9v15.6c0,1.6-1.3,2.9-2.9,2.9h-8.4c-1.6,0-2.9-1.3-2.9-2.9v-15.6
		C209.4,266.7,210.7,265.4,212.3,265.4z"/>
	<path class="st3" d="M215,257.4c-2.2,0-4,0.5-4,1.2s1.8-0.2,4-0.2c0.3,0,0.6,0,0.9,0v4.8h1.3v-4.6c1.1,0.2,1.9,0.4,1.9,0
		C219,258,217.2,257.4,215,257.4z"/>
	<rect x="214.2" y="261.7" class="st1" width="4.5" height="4.5"/>
	<rect x="282.9" y="290.6" class="st1" width="92.3" height="12.8"/>
	<rect x="263.8" y="286.8" class="st4" width="130.3" height="7.6"/>
	<polygon class="st2" points="275.9,382.6 270,382.6 280.2,294.4 287.1,294.4 	"/>
	<polygon class="st2" points="370.8,294.4 377.7,294.4 387.9,382.6 382,382.6 	"/>
	<polygon class="st6" points="348.6,286.7 379.8,286.7 379.8,283 348.6,281 	"/>
	<polygon class="st7" points="348.6,286.7 379.8,286.7 379.8,283 348.6,281 	"/>
	<path class="st4" d="M285.8,219.7v67.1h4.3l1-6c0.4-2.2,2.3-3.8,4.5-3.8H336c2.2,0,4.1,1.6,4.5,3.8l1,6h4.3v-67.1L285.8,219.7
		L285.8,219.7z"/>
	<path class="st3" d="M305.3,284.8c2.7-13.2,5.3-26.5,8-39.7c0.4-1.9,3.3-1.1,2.9,0.8l-7.6,37.8H325c0.8,0,1.5,0.7,1.5,1.5
		s-0.7,1.5-1.5,1.5h-18.3c-0.8,0-1.5-0.7-1.5-1.6C305.2,285.1,305.2,285,305.3,284.8z"/>
	<path class="st3" d="M323.9,274.2L323.9,274.2l-5.1-73.5l0,0c-3.9,2.8-6,7.3-5.7,12.1l3.5,50.3C316.9,267.7,319.7,272,323.9,274.2z
		"/>
	<polygon class="st0" points="245.5,74.8 239.5,74.8 239.5,106.3 245.5,106.3 	"/>
	<path class="st2" d="M227.7,81.4v24.9c0.2,0,0.4,0.1,0.7,0.1h5.4v-25H227.7z"/>
	<path class="st1" d="M263.9,71.6v34.7h5.4c0.2,0,0.4,0,0.6-0.1V71.6H263.9z"/>
	<polygon class="st3" points="257.8,87.8 251.8,87.8 251.8,106.3 257.8,106.3 	"/>
	<path class="st3" d="M71.8,140.6v23.9l8.9,22.2c12.1-5.5,17.5-19.8,12-32C88.9,146.5,80.9,141.1,71.8,140.6z"/>
	<path class="st1" d="M69.7,164.2v-23.6c-12.5,0.6-22.3,10.9-22.3,23.4c0,0.3,0,0.6,0,0.9c0,0.3,0,0.6,0,0.9
		c0,12.9,10.5,23.4,23.4,23.4c2.6,0,5.2-0.4,7.7-1.3L69.7,164.2z"/>
</g>
<g id="freepik--Board--inject-7">
	<path class="st8" d="M224.7,407.1l18.7-18.7l18.7,18.7c0.5,0.5,1.1,0.8,1.8,0.8l0,0c1.4,0,2.6-1.1,2.6-2.6c0-0.7-0.3-1.3-0.8-1.8
		l-22.4-22.4L221,403.5c-1,1-1,2.6,0,3.6c0.5,0.5,1.1,0.8,1.8,0.8l0,0C223.5,407.9,224.2,407.6,224.7,407.1z"/>
	<polygon class="st9" points="244,381.8 242.8,381.8 237,387.5 237,394.5 237.3,394.5 243.4,388.4 249.5,394.5 249.8,394.5 
		249.8,387.5 	"/>
	<path class="st8" d="M239.6,323.4h7.7l0,0v81.5c0,1.7-1.3,3-3,3h-1.7c-1.7,0-3-1.3-3-3V323.4L239.6,323.4z"/>
	<rect x="239.6" y="323.4" class="st9" width="7.7" height="30"/>
	<path class="st8" d="M379.7,342.6H107.1c-5.6,0-10.1-4.6-10.2-10.2V120.9h293v211.5C389.9,338.1,385.4,342.6,379.7,342.6z
		 M100.3,124.4v208.1c0,3.7,3,6.7,6.7,6.7h272.7c3.7,0,6.7-3,6.7-6.7V124.4H100.3z"/>
	<g class="st10">
		<path class="st11" d="M379.7,342.6H107.1c-5.6,0-10.1-4.6-10.2-10.2V120.9h293v211.5C389.9,338.1,385.4,342.6,379.7,342.6z
			 M100.3,124.4v208.1c0,3.7,3,6.7,6.7,6.7h272.7c3.7,0,6.7-3,6.7-6.7V124.4H100.3z"/>
	</g>
	<path class="st11" d="M100.3,124.4v208.1c0,3.7,3,6.7,6.7,6.7h272.7c3.7,0,6.7-3,6.7-6.7V124.4H100.3z"/>
	<rect x="90.3" y="118.8" class="st8" width="306.2" height="7.7"/>
	<rect x="90.3" y="118.8" class="st12" width="306.2" height="3.9"/>
	<path class="st8" d="M127.5,302.3c0,0,170.6-3.2,223.2-151.9l-1.8,152.2L127.5,302.3z"/>
	<g class="st13">
		<path class="st11" d="M127.5,300.8c0,0,170.6-3.2,223.2-151.9l-1.8,152.2L127.5,300.8z"/>
	</g>
	<path class="st8" d="M128.9,303.2c-0.6,0-1-0.4-1-1s0.4-1,1-1c8.3-0.4,51.9-3.4,98.9-23.9c60-26.2,100.9-69,121.5-127.3
		c0.2-0.5,0.8-0.7,1.3-0.5c0.4,0.2,0.7,0.7,0.6,1.2c-11.4,32.2-29.2,60-53,82.8c-19.4,18.6-42.8,33.9-69.6,45.6
		C181.2,299.8,137.2,302.8,128.9,303.2L128.9,303.2z"/>
	<path class="st8" d="M137.8,312.5c-0.6,0-1-0.4-1-1v-8.3c0-0.6,0.4-1,1-1s1,0.4,1,1v8.3C138.8,312.1,138.3,312.5,137.8,312.5z"/>
	<path class="st8" d="M172.5,312.6c-0.6,0-1-0.4-1-1v-8.3c0-0.6,0.4-1,1-1s1,0.4,1,1v8.3C173.5,312.1,173,312.6,172.5,312.6z"/>
	<path class="st8" d="M207.2,312.6c-0.6,0-1-0.4-1-1v-8.3c0-0.6,0.4-1,1-1s1,0.4,1,1v8.3C208.2,312.1,207.7,312.6,207.2,312.6z"/>
	<path class="st8" d="M241.9,312.6c-0.6,0-1-0.4-1-1v-8.3c0-0.6,0.4-1,1-1s1,0.4,1,1v8.3C242.9,312.2,242.4,312.6,241.9,312.6z"/>
	<path class="st8" d="M276.6,312.6c-0.6,0-1-0.4-1-1v-8.3c0-0.6,0.4-1,1-1s1,0.4,1,1v8.3C277.6,312.2,277.2,312.6,276.6,312.6z"/>
	<path class="st8" d="M311.3,312.7c-0.6,0-1-0.4-1-1v-8.3c0-0.6,0.4-1,1-1s1,0.4,1,1v8.3C312.3,312.2,311.9,312.7,311.3,312.7z"/>
	<path class="st8" d="M346,312.7c-0.6,0-1-0.4-1-1v-8.3c0-0.6,0.4-1,1-1s1,0.4,1,1v8.3C347,312.3,346.6,312.7,346,312.7z"/>
	<path class="st8" d="M128,159.6h-4.5c-0.6,0-1-0.4-1-1s0.4-1,1-1h4.5c0.6,0,1,0.4,1,1S128.6,159.6,128,159.6z"/>
	<path class="st8" d="M128,181.4h-4.5c-0.6,0-1-0.4-1-1s0.4-1,1-1h4.5c0.6,0,1,0.4,1,1S128.6,181.4,128,181.4z"/>
	<path class="st8" d="M128,203.2h-4.5c-0.6,0-1-0.4-1-1s0.4-1,1-1h4.5c0.6,0,1,0.4,1,1S128.6,203.2,128,203.2z"/>
	<path class="st8" d="M128,225h-4.5c-0.6,0-1-0.4-1-1s0.4-1,1-1h4.5c0.6,0,1,0.4,1,1S128.6,225,128,225z"/>
	<path class="st8" d="M128,246.7h-4.5c-0.6,0-1-0.4-1-1s0.4-1,1-1h4.5c0.6,0,1,0.4,1,1S128.6,246.7,128,246.7z"/>
	<path class="st8" d="M128,268.5h-4.5c-0.6,0-1-0.4-1-1s0.4-1,1-1h4.5c0.6,0,1,0.4,1,1S128.6,268.5,128,268.5z"/>
	<path class="st8" d="M128,290.3h-4.5c-0.6,0-1-0.4-1-1s0.4-1,1-1h4.5c0.6,0,1,0.4,1,1S128.6,290.3,128,290.3z"/>
	<path class="st8" d="M357.4,304.2H128.9c-0.6,0-1-0.4-1-1V150c0-0.6,0.4-1,1-1s1,0.4,1,1v152.2h227.5c0.6,0,1,0.4,1,1
		S358,304.2,357.4,304.2z"/>
	<path class="st8" d="M196.6,159.8v1.8l-5.7,12.9H188l5.5-12.4h-5.8v2.5h-2.5v-4.8H196.6z"/>
	<path class="st8" d="M197.9,167.2c0-4.8,2.6-7.6,6.1-7.6s6.1,2.7,6.1,7.6c0,4.8-2.6,7.5-6.1,7.5S197.9,172,197.9,167.2z
		 M207.4,167.2c0-3.5-1.4-5.2-3.4-5.2s-3.4,1.6-3.4,5.2s1.4,5.2,3.4,5.2S207.4,170.7,207.4,167.2z"/>
	<path class="st8" d="M211.8,163.7c0-2.4,1.4-4,3.5-4s3.5,1.6,3.5,4s-1.4,4-3.5,4S211.8,166.1,211.8,163.7z M217.1,163.7
		c0-1.6-0.7-2.6-1.8-2.6s-1.8,0.9-1.8,2.6s0.7,2.6,1.8,2.6S217.1,165.3,217.1,163.7z M224.1,159.8h2.1l-10,14.7h-2.1L224.1,159.8z
		 M221.4,170.6c0-2.4,1.4-4,3.5-4s3.5,1.6,3.5,4s-1.4,4-3.5,4S221.4,173,221.4,170.6z M226.7,170.6c0-1.6-0.7-2.6-1.8-2.6
		s-1.8,0.9-1.8,2.6c0,1.6,0.7,2.6,1.8,2.6S226.7,172.2,226.7,170.6z"/>
	<rect x="187.9" y="180.1" class="st8" width="40.3" height="2.8"/>
	<rect x="184.2" y="188" class="st14" width="44" height="2.6"/>
	<rect x="179.1" y="195.4" class="st15" width="49.1" height="2.9"/>
	<rect x="174.2" y="201.9" class="st15" width="54" height="3.2"/>
</g>
<g>
	<polygon class="st8" points="257.9,204.6 232.2,204.6 232.2,182.9 245,174.7 257.9,182.9 	"/>
	<g>
		<rect x="233.6" y="176.9" class="st0" width="22.8" height="26"/>
		<polygon class="st8" points="243.6,192.5 238.4,187.8 240.2,186.2 243.2,189 249.6,180.1 251.6,181.3 		"/>
	</g>
	<path class="st8" d="M257.9,188.3v16.3h-25.7v-16.3c1.1,0.6,2.2,1.3,3.3,1.9s2.2,1.3,3.3,2c1.2,0.7,2.4,1.5,3.6,2.2l0,0l0,0
		c0.9,0.6,1.8,1.1,2.7,1.7c0.9-0.6,1.8-1.1,2.7-1.7l0,0l0,0c1.2-0.8,2.4-1.5,3.6-2.2c1.1-0.7,2.2-1.3,3.3-2
		C255.7,189.6,256.8,188.9,257.9,188.3z"/>
	<g class="st16">
		<path d="M257.9,188.3c-1,0.7-2.1,1.4-3.1,2.2c-1,0.7-2.1,1.4-3.2,2.1c-1.1,0.7-2.2,1.4-3.3,2.2c0,0-0.1,0-0.1,0.1
			c-1,0.6-2,1.3-3,1.9l-0.1,0.1l-0.1-0.1c-1-0.6-2-1.3-3-1.9c0,0-0.1,0-0.1-0.1c-1.1-0.7-2.2-1.4-3.3-2.2c-1.1-0.7-2.1-1.4-3.2-2.1
			c-1-0.7-2.1-1.4-3.1-2.2c1.1,0.6,2.2,1.3,3.3,1.9c1.1,0.7,2.2,1.3,3.3,2c1.2,0.7,2.4,1.5,3.6,2.2l0,0c0.9,0.6,1.8,1.1,2.7,1.7
			c0.9-0.6,1.8-1.1,2.7-1.7l0,0c1.2-0.8,2.4-1.5,3.6-2.2c1.1-0.7,2.2-1.3,3.3-2C255.7,189.6,256.8,188.9,257.9,188.3z"/>
		<path d="M242.4,194.4L242.4,194.4c-0.2,0.1-0.3,0.2-0.5,0.4c-0.6,0.6-1.3,1.1-2,1.6c-0.8,0.6-1.7,1.2-2.5,1.8s-1.7,1.2-2.6,1.7
			c-0.9,0.6-1.7,1.1-2.6,1.6c0.8-0.7,1.6-1.3,2.4-1.9c0.8-0.6,1.7-1.2,2.5-1.8s1.7-1.2,2.6-1.7c0.7-0.5,1.4-0.9,2.1-1.3
			C242,194.6,242.2,194.5,242.4,194.4L242.4,194.4z"/>
		<path d="M257.8,201.5c-0.9-0.5-1.8-1-2.6-1.6c-0.9-0.6-1.7-1.1-2.6-1.7c-0.8-0.6-1.7-1.2-2.5-1.8c-0.7-0.5-1.3-1-2-1.6
			c-0.1-0.1-0.3-0.2-0.4-0.3l0,0l0,0c0.2,0.1,0.3,0.2,0.5,0.3c0.7,0.4,1.4,0.8,2.1,1.3c0.9,0.6,1.7,1.1,2.6,1.7
			c0.8,0.6,1.7,1.2,2.5,1.8C256.2,200.1,257,200.8,257.8,201.5z"/>
	</g>
</g>
<g id="freepik--character-2--inject-7">
	<g id="freepik--Character--inject-166--inject-7">
		<path class="st8" d="M364.2,228.5c-0.5,0.4-0.9,0.7-1.3,1s-0.9,0.6-1.3,0.9c-0.9,0.6-1.7,1.1-2.6,1.6c-1.8,1.1-3.7,2-5.6,2.9
			c-2,0.9-4.1,1.6-6.2,2.2c-1.1,0.3-2.3,0.5-3.4,0.7c-0.6,0.1-1.2,0.1-1.8,0.1h-1h-0.6l-0.7-0.1c-1.5-0.2-3-0.7-4.4-1.4
			c-1.1-0.6-2.1-1.3-3.1-2.1c-1.7-1.4-3.2-3-4.6-4.7c-2.5-3.2-4.6-6.7-6.3-10.5l4.6-2.9c2.4,2.7,5,5.3,7.6,7.7
			c1.2,1.1,2.5,2.1,3.9,3c0.6,0.4,1.2,0.6,1.8,0.9c0.4,0.1,0.7,0.2,1.1,0.2l0,0h0.1l0.5-0.1c0.3-0.1,0.7-0.1,1-0.2
			c0.7-0.2,1.4-0.4,2.1-0.6c1.5-0.6,3.1-1.2,4.5-2c1.5-0.8,3-1.6,4.5-2.6c0.7-0.4,1.5-0.9,2.2-1.4l1.1-0.7l3-2L364.2,228.5z"/>
		<path class="st9" d="M364.2,228.5c-0.5,0.4-0.9,0.7-1.3,1s-0.9,0.6-1.3,0.9c-0.9,0.6-1.7,1.1-2.6,1.6c-1.8,1.1-3.7,2-5.6,2.9
			c-2,0.9-4.1,1.6-6.2,2.2c-1.1,0.3-2.3,0.5-3.4,0.7c-0.6,0.1-1.2,0.1-1.8,0.1h-1h-0.6l-0.7-0.1c-1.5-0.2-3-0.7-4.4-1.4
			c-1.1-0.6-2.1-1.3-3.1-2.1c-1.7-1.4-3.2-3-4.6-4.7c-2.5-3.2-4.6-6.7-6.3-10.5l4.6-2.9c2.4,2.7,5,5.3,7.6,7.7
			c1.2,1.1,2.5,2.1,3.9,3c0.6,0.4,1.2,0.6,1.8,0.9c0.4,0.1,0.7,0.2,1.1,0.2l0,0h0.1l0.5-0.1c0.3-0.1,0.7-0.1,1-0.2
			c0.7-0.2,1.4-0.4,2.1-0.6c1.5-0.6,3.1-1.2,4.5-2c1.5-0.8,3-1.6,4.5-2.6c0.7-0.4,1.5-0.9,2.2-1.4l1.1-0.7l3-2L364.2,228.5z"/>
		<path class="st17" d="M323.4,219.6l-4.3-2.1l3.5-5.4c0,0,3.6,3,4,6.1L323.4,219.6z"/>
		<polygon class="st17" points="314.4,214 317.3,210.7 322.5,212.1 319.1,217.5 		"/>
		<path class="st6" d="M405.6,410.1c0.5-1.1,1.1-2.1,1.9-3l0,0c0,0,3.3-5.6,0.7-15.3l4.5-3.9c1.2,0,2.4,0.5,3.3,1.3
			c0.6,0.6,1.1,1.3,1.6,2c1.6,2.8,5.2,9.3,5.2,9.3l-0.7,0.4c-1.2-1.9-2.5-3.7-3.9-5.5c-1.5-1.6-1.4,1.3-0.9,3.8s-1.1,6.4-5.3,9
			C407.1,411.2,404.9,412.1,405.6,410.1z"/>
		<path class="st17" d="M413.8,396.8c0,1.6,1.1,4.6-0.4,6.7c-1.3,2-3.5,3.4-5.9,3.6c0,0,2.5-4.4,1.4-12c-0.2-1.1-0.4-2.2-0.7-3.3
			c0,0,3.9-2.9,5.7-3.3l0.9,2.6c-0.2,1.7-0.5,3.4-1,5C413.8,396.3,413.8,396.5,413.8,396.8z"/>
		<path class="st17" d="M414.9,391.1c-0.2,1.7-0.5,3.4-1,5c-0.1,0.2-0.1,0.5-0.1,0.7l-3.7,1.5l-1.2-3.3l-4.3-11.7l6.4-2.7l2.9,7.9
			L414.9,391.1z"/>
		<path class="st9" d="M411,380.6l-6.4,2.7l2.2,5.9h0.1c2.4,0.1,4.7-0.8,6.4-2.5l0,0L411,380.6z"/>
		<path class="st6" d="M356.8,406.4c1-0.6,2.1-1.1,3.2-1.4l0,0c0,0,5.8-3,8.9-12.5l6-1.2c1.1,0.5,1.9,1.5,2.2,2.6
			c0.1,1,0,2.1-0.1,3.1c-0.1,3.3-0.6,11.7-0.6,11.7h-0.8c0.1-2.6,0-5.2-0.2-7.8c-0.4-2.2-1.9,0.3-2.8,2.7s-4.4,4.8-9.3,4.7
			C357.4,408.1,355.1,407.8,356.8,406.4z"/>
		<path class="st17" d="M373.9,396c-0.7,1.2-1.6,2.2-2.6,3.1c-1.2,0.9-1.6,4.8-4.4,6c-2.2,1-4.8,1-6.9-0.1c0,0,4.3-2.2,7.5-9.1
			c0.7-1.6,0.9-3.4,0.6-5.1l-2.1-11.1l7.3-1l1.8,13.3C375.2,393.5,374.8,394.9,373.9,396z"/>
		<path class="st9" d="M365.4,375.5l1.7,9.8l0.6,0.1c2.2,0.5,4.5,0,6.3-1.3l0,0l-1.2-9.5L365.4,375.5z"/>
		<path class="st6" d="M389.7,223.3c0-0.3,0-0.6-0.1-0.8c-0.6-5-5-8.6-10-8l0,0h-0.2c-0.6,0.1-1.2,0.2-1.9,0.3
			c-4.2,0.6-8.4,1.4-12.5,2.6c-0.7,0.2-1.4,0.4-2.1,0.6c-1,0.3-1.9,0.6-2.8,1c-4.3,1.6-6.7,6-5.8,10.4c1.4,7.8,3.9,15.4,7.5,22.5
			c1.2,2.3,1.4,7.1,2.4,10l27.6-5.6l0,0C390.5,247.6,389.9,232.9,389.7,223.3z"/>
		<path class="st6" d="M364.2,261.8c0,0-1.5,35.2-2.9,62.2c-1.1,21.5,3.1,58.2,3.1,58.2c3.8,1,7.8,0.4,11.2-1.6
			c0.2,1.7,1.7-33.8,0-54.3c7.7-29.9,19.1-58.2,10.7-69.2L364.2,261.8z"/>
		<path class="st18" d="M377.3,282.5l11.4-6.5c-1.5,10.7-5.7,24.1-9.8,38.4C375.8,303,374.3,291.1,377.3,282.5z"/>
		<path class="st6" d="M369.1,262.6c0,0,7.5,27.3,12.4,53.4c2.1,18.8,22.3,70.1,22.3,70.1l3.5-0.7c1.7-0.3,3.2-1.1,4.4-2.2l1.2-1.1
			c0,0-6-37.2-11.8-51.7c0.1-30.3,0.7-62.9-10.7-73.1L369.1,262.6z"/>
		<path class="st8" d="M378.1,214.5c0,0-2.9,32.2,4.4,74.1c12-0.7,19.4-4,19.4-4s-2.5-22.7-9.9-34.3c-1.3-8.1-0.1-25.4-0.9-31.8
			c-0.3-2.3-2.1-4.1-4.3-4.4C384,213.9,381,214,378.1,214.5z"/>
		<path class="st19" d="M378.1,214.5c0,0-2.9,32.2,4.4,74.1c12-0.7,19.4-4,19.4-4s-2.5-22.7-9.9-34.3c-1.3-8.1-0.1-25.4-0.9-31.8
			c-0.3-2.3-2.1-4.1-4.3-4.4C384,213.9,381,214,378.1,214.5z"/>
		<path class="st8" d="M364.9,216.8c0,0-1.6,15.3,8.3,72.6c-3.9,2.1-12.2,1.4-12.2,1.4s0.1-19.1,1.4-34.3c0.6-7.4-4.7-8.5-7.8-16.7
			c-1.5-9.5-0.6-17.2,0.8-18.3C357.5,219.7,361.1,217.3,364.9,216.8z"/>
		<path class="st19" d="M364.9,216.8c0,0-1.6,15.3,8.3,72.6c-3.9,2.1-12.2,1.4-12.2,1.4s0.1-19.1,1.4-34.3c0.6-7.4-4.7-8.5-7.8-16.7
			c-1.5-9.5-0.6-17.2,0.8-18.3C357.5,219.7,361.1,217.3,364.9,216.8z"/>
		<path class="st20" d="M378,214.4c0,0-0.6,13.2-0.4,22.8c1-6.8,3.4-13.4,3.4-15.5c-0.7-0.4-1.4-0.8-2-1.3c0.8-0.6,1.6-1.2,2.5-1.6
			c0.1-1.6,0.1-3.2,0.1-4.9C379.6,214.2,378,214.4,378,214.4z"/>
		<path class="st20" d="M365,216.7c-0.2,7.6,0.1,15.3,1,22.9c-2.1-6.1-4.9-11.9-4.6-14.2c1.1-0.9,2.1-2,2.1-2
			c-0.7-0.4-1.5-0.8-2.3-0.9c0-1.7,0.2-3.4,0.4-5.1C363.4,217,365,216.7,365,216.7z"/>
		<path class="st8" d="M388,219.1c-1.9,3.3-0.8,7.5,2.4,9.5h0.1c2,1.2,3.9,2.5,5.8,3.7s3.7,2.6,5.3,3.9c0.8,0.6,1.5,1.3,2.2,2
			c0.3,0.3,0.5,0.6,0.8,0.9c0.2,0.2,0.3,0.4,0.3,0.3l-0.3-1.4c0.1,0.9-0.1,1.7-0.5,2.5c-0.6,1.3-1.4,2.6-2.3,3.7
			c-1,1.3-2,2.6-3.1,3.8s-2.4,2.5-3.5,3.6l3,4.6c1.7-0.8,3.4-1.7,5-2.8s3.2-2.2,4.6-3.5c1.6-1.4,3-3,4.2-4.7
			c0.8-1.2,1.4-2.4,1.8-3.8c0.4-1.3,0.6-2.6,0.6-3.9v-0.6l-0.2-0.7c-0.3-0.9-0.7-1.7-1.2-2.5s-1.1-1.6-1.7-2.3
			c-0.9-1.1-1.9-2.1-2.9-3c-1.9-1.7-3.9-3.4-5.9-4.9s-4-2.9-6.1-4.2s-4.1-2.6-6.3-3.8L388,219.1z"/>
		<path class="st17" d="M398.6,251.8c-2.2-0.7-4.5-0.7-6.7,0.2l2.5,7.6l3.9-3.4L398.6,251.8z"/>
		<polygon class="st17" points="394.5,259.6 391.9,252 388.1,256.2 391.3,261.5 		"/>
	</g>
	<path class="st6" d="M361.3,213.7c-1.6-9.4-0.3-19.1,3.8-27.7c4.8-10,24.6-3,21.6,13.8c-1.8,9.9-6,8.2,1.5,14.8
		c4.3,3.8-8.4,4.8-9.5,2.3c0,0-4.5,0.4-7.7-2.1C371,214.8,362.1,218.9,361.3,213.7z"/>
	<path class="st17" d="M369,223.7c4.3,0.7,7.1-4.8,8.2-7.6h-0.5c-1.2-3.4-0.4-9.1,0.5-12.4l-8,6.3c0.5,2.6,0.6,5.2-1.8,6.6
		c-0.5,0.1-1,0.2-1.4,0.3C365.4,219.5,365.4,223.1,369,223.7z"/>
	<path class="st9" d="M373.7,206.3L369,210c0.2,0.7,0.3,1.5,0.3,2.3c1.7-0.2,4.4-1.6,4.7-3.4C374,208,374,207.2,373.7,206.3z"/>
	<path class="st17" d="M381.4,197.8c-2.5,6.3-3.5,9-7.8,11.2c-6.5,3.3-13.7-1.2-13.1-8.1c0.5-6.3,4.6-15.5,11.8-16
		c5.1-0.4,9.5,3.5,9.9,8.6C382.2,195.1,382,196.5,381.4,197.8L381.4,197.8z"/>
	<path class="st21" d="M366.4,195.8c-0.9,1-1.9,2-3,2.7c0.4,0.6,1,0.9,1.7,1L366.4,195.8z"/>
	<path class="st6" d="M373,194.9h0.1c0.1-0.1,0.2-0.2,0.1-0.3l0,0l0,0c-0.4-0.9-1.2-1.6-2.2-1.9c-0.1,0-0.3,0.1-0.3,0.2
		c0,0.1,0.1,0.3,0.2,0.3c0.8,0.2,1.5,0.8,1.8,1.6C372.8,194.9,372.9,194.9,373,194.9z"/>
	<path class="st6" d="M363.2,191h0.1c0.8-0.3,1.7-0.3,2.4,0.1c0.1,0.1,0.3,0.1,0.4-0.1l0,0l0,0c0.1-0.1,0.1-0.3-0.1-0.4
		c-0.9-0.5-2-0.6-2.9-0.2c-0.1,0-0.2,0.2-0.2,0.3l0,0C363,190.9,363.1,191,363.2,191L363.2,191z"/>
	<path class="st6" d="M370.4,196.2c-0.2,0.5-0.6,0.9-0.9,0.7s-0.5-0.6-0.3-1.2s0.6-0.9,0.9-0.7S370.6,195.7,370.4,196.2z"/>
	<path class="st6" d="M364.5,194.2c-0.2,0.5-0.6,0.9-0.9,0.7s-0.5-0.6-0.3-1.1s0.6-0.9,0.9-0.7S364.6,193.7,364.5,194.2z"/>
	<path class="st6" d="M364.3,193.1l-1.1-0.8C363.2,192.4,363.5,193.6,364.3,193.1z"/>
	<path class="st6" d="M370.2,195.1l-1.1-0.8C369.1,194.3,369.4,195.5,370.2,195.1z"/>
	<path class="st6" d="M369,203.3c0.3-0.1,0.7-0.2,1-0.4c0.1,0,0.1-0.2,0.1-0.3l0,0c0-0.1-0.2-0.1-0.3-0.1c-1.5,0.7-3.2,0.7-4.7-0.1
		c-0.1-0.1-0.2,0-0.3,0.1c-0.1,0.1,0,0.2,0,0.3C366.2,203.5,367.7,203.6,369,203.3z"/>
	<path class="st6" d="M369.9,187c0,0-2.2,1.8-0.9,3.6s5.3,1,6.1,4.4s-0.7,5.9,1.7,7s4.8-2.3,4.8-2.3s3.8-7.8-0.9-12
		s-10.2-5.7-13.5-3.8s-5.1,3.3-3.9,4.1s3.1,1.4,3.9,0.6C368,187.8,368.9,187.3,369.9,187z"/>
	<path class="st17" d="M381.2,203.4c-0.8,1.1-1.9,1.8-3.2,2c-1.7,0.3-2.4-1.3-1.8-2.8c0.6-1.4,2.1-3.2,3.8-2.8
		c1.2,0.3,1.9,1.6,1.5,2.8C381.6,202.9,381.4,203.2,381.2,203.4z"/>
	<path class="st8" d="M364.9,217.1c0.6-0.4,1.3-0.5,2-0.5c0,0-1.9,6.2,2.5,6.5s7.8-7.2,7.8-7.2c0.6-0.2,1.3-0.2,1.9,0.2
		c0,0-3.5,8.8-9.6,8.5S364.9,217.1,364.9,217.1z"/>
	<path class="st20" d="M364.9,217.1c0.6-0.4,1.3-0.5,2-0.5c0,0-1.9,6.2,2.5,6.5s7.8-7.2,7.8-7.2c0.6-0.2,1.3-0.2,1.9,0.2
		c0,0-3.5,8.8-9.6,8.5S364.9,217.1,364.9,217.1z"/>
	<path class="st6" d="M377.6,198.1l-4.3-1.6c-0.1-1.2-1.7-1.8-2.3-2.1s-2.3-0.9-3.2,0.1l-1.5-0.6c0-1.3-1.6-1.9-2.3-2.2
		s-2.9-1.1-3.6,0.7c-0.5,1.7,0.5,3.4,2.1,3.8c1.4,0.4,3-0.3,3.6-1.6c0-0.1,0.1-0.2,0.1-0.3l1.3,0.5c-0.1,0.1-0.1,0.2-0.1,0.3
		c-0.5,1.7,0.5,3.4,2.1,3.8c1.4,0.4,3-0.3,3.6-1.6c0.1-0.1,0.1-0.3,0.1-0.4l4.1,1.6c0.6,0.2,1,0.6,1.3,1.1l0.4-0.2
		C378.8,198.8,378.2,198.4,377.6,198.1z M362.5,195.7c-1.3-0.4-2.1-1.8-1.6-3.2c0.4-1,1.3-1.1,3-0.4s2.3,1.4,2,2.4
		C365.2,195.7,363.7,196.2,362.5,195.7z M369.5,198.4c-1.3-0.4-2.1-1.8-1.6-3.2c0.4-1,1.3-1.1,3-0.4s2.3,1.4,2,2.4
		C372.2,198.4,370.7,199,369.5,198.4z"/>
</g>
<g id="freepik--character-1--inject-7">
	<path class="st8" d="M129,205.2c0,0-8.1,0.6-12.5,9.9s-7.4,26.7,3,27.1s9.5-2.1,9.5-2.1v-4.6l-6.7-2c-1.4-0.4-2.1-1.9-1.7-3.2v-0.1
		l3.5-10L129,205.2z"/>
	<path class="st9" d="M129,205.2c0,0-8.1,0.6-12.5,9.9s-7.4,26.7,3,27.1s9.5-2.1,9.5-2.1v-4.6l-6.7-2c-1.4-0.4-2.1-1.9-1.7-3.2v-0.1
		l3.5-10L129,205.2z"/>
	<path class="st6" d="M150.1,181.2c0.3-0.1,0.7,0.3,0.8,0.8s-0.1,1-0.4,1s-0.7-0.3-0.8-0.8S149.7,181.3,150.1,181.2z"/>
	<path class="st22" d="M151.1,188c0.9,0,1.8-0.3,2.4-1c-1.3-1.1-2.4-2.5-3.4-3.9L151.1,188z"/>
	<path class="st6" d="M147.4,179.7c0.5-0.6,1.3-0.9,2.1-0.9l0,0h0.1c0.2,0,0.3-0.1,0.3-0.3s-0.1-0.3-0.3-0.3l0,0c-1-0.1-2,0.3-2.6,1
		c-0.1,0.1-0.1,0.1-0.1,0.2c0,0.2,0.1,0.3,0.3,0.3C147.3,179.8,147.3,179.8,147.4,179.7z"/>
	<path class="st23" d="M145.3,197.2c-0.9,3.7-1,8.3,3.1,9.6c0,0,5.1,4.2-4.7,4.2c-8.8,0-10.1-4.8-10.1-4.8c3.3-3.2,2.8-9.8,1.8-14.6
		L145.3,197.2z"/>
	<path class="st8" d="M129.9,205.4c0,0,1.6-4.2,3.8-5.5s11.3,0.6,12.8,1.3s2.7,4,2.7,4L129.9,205.4z"/>
	<path class="st9" d="M129.9,205.4c0,0,1.6-4.2,3.8-5.5s11.3,0.6,12.8,1.3s2.7,4,2.7,4L129.9,205.4z"/>
	<path class="st8" d="M143.9,401.9c-0.1,0-0.1-0.1-0.1-0.2c0,0,0-0.1,0.1-0.1c0.1-0.1,2.4-1.4,3.5-1.1c0.2,0,0.4,0.2,0.5,0.4
		c0.1,0.2,0.1,0.5,0,0.7c-0.3,0.4-1,0.5-1.9,0.5C145.2,402.1,144.5,402.1,143.9,401.9z M146.9,400.9c-0.9,0.1-1.8,0.4-2.6,0.8
		c1.2,0.2,2.9,0.2,3.2-0.3c0.1-0.1,0.1-0.1,0-0.3c-0.1-0.1-0.2-0.2-0.3-0.2C147.1,400.9,147,400.9,146.9,400.9L146.9,400.9z"/>
	<path class="st8" d="M143.8,401.9l-0.1-0.1c0-0.9,0.4-1.8,1-2.5c0.2-0.2,0.6-0.3,0.9-0.3c0.4,0,0.6,0.3,0.6,0.4
		c0.1,0.8-1.4,2.1-2.2,2.5H143.8C143.9,401.9,143.8,401.9,143.8,401.9z M145.5,399.3c-0.2,0-0.4,0.1-0.6,0.2c-0.5,0.6-0.8,1.3-0.9,2
		c0.8-0.5,1.9-1.6,1.8-2C145.9,399.5,145.9,399.4,145.5,399.3L145.5,399.3L145.5,399.3z"/>
	<polygon class="st23" points="137.4,386.7 143.9,386.7 143.3,401.8 136.8,401.8 	"/>
	<path class="st6" d="M144.8,401.5c4.4,2.7,5.8,2.8,10.9,4c1.1,0.2,0.4,2.9-2.3,2.9c-4.4,0-4.9-0.2-8.6-0.2c-3.2,0-6.9,0.1-9.5,0.2
		c-0.1,0-0.2,0-0.2,0c-0.5-0.1-0.8-0.6-0.7-1.1l1.3-5.8c0.1-0.3,0.3-0.4,0.6-0.5h7.1C143.8,401.1,144.3,401.2,144.8,401.5z"/>
	<path class="st8" d="M152.7,205.3c-6.5-0.5-13-0.6-19.4-0.4c-1.7,0.1-3.4,0.3-5.1,0.5c-3.4,0.4-5.9,3.6-5.4,7c0,0.1,0,0.2,0,0.2
		c3.9,23.1,1.9,45.8,1.4,50.4l34.8-0.3c3.6-28.6,2.7-43.1,1.3-50.1C159.5,208.8,156.5,205.9,152.7,205.3z"/>
	<path class="st19" d="M152.7,205.3c-6.5-0.5-13-0.6-19.4-0.4c-1.7,0.1-3.4,0.3-5.1,0.5c-3.4,0.4-5.9,3.6-5.4,7c0,0.1,0,0.2,0,0.2
		c3.9,23.1,1.9,45.8,1.4,50.4l34.8-0.3c3.6-28.6,2.7-43.1,1.3-50.1C159.5,208.8,156.5,205.9,152.7,205.3z"/>
	<polygon class="st9" points="137.4,386.7 137.1,394.5 143.6,394.5 143.9,386.7 	"/>
	<path class="st23" d="M132.1,180.6c0.9-4.8,5.5-7.9,10.3-7c6.7,1.3,9.5,10.5,9.3,16.4c-0.2,6.6-7.4,11.1-13.2,7.2
		c-3.9-2.6-4.5-6.3-6.2-12.6C131.9,183.3,131.8,182,132.1,180.6z"/>
	<path class="st6" d="M124.7,260.6c0,0-6.7,21.4-11.8,43.1c-6.8,28.3-23,86.3-23,86.3l11.5,2.5c0,0,23.7-67.4,29.9-87.8
		c5.7-18.6,15.9-44.2,15.9-44.2L124.7,260.6z"/>
	<path class="st18" d="M138.5,284.3c-10.2,27.9-12.4,36.2-12.6,36.8C127.2,304.1,132.3,285.2,138.5,284.3
		C139,284.3,138.1,284.2,138.5,284.3z"/>
	<path class="st6" d="M136.6,260.6c0,0-0.8,23.7-1.2,45.8c-0.4,20.3,0,86.6,0,86.6h11c0,0,8.5-67.6,10.7-88.3
		c2.2-19.8,2.4-44.1,2.4-44.1H136.6z"/>
	<path class="st8" d="M133.7,389.1l0.4,4.1h13.4c0,0,0.7-4.6,0.6-4.6L133.7,389.1z"/>
	<path class="st8" d="M89.6,401.9c0,0.1-0.1,0.1-0.2,0.1c0,0-0.1,0-0.1-0.1c-0.1-0.1-1.3-2.4-1-3.5c0.1-0.2,0.2-0.4,0.4-0.5
		c0.2-0.1,0.5-0.1,0.7,0c0.4,0.3,0.5,1,0.5,1.9C89.8,400.5,89.7,401.2,89.6,401.9z M88.5,398.8c0.1,0.9,0.4,1.8,0.8,2.6
		c0.2-1.2,0.2-2.9-0.2-3.2c0-0.1-0.1-0.1-0.3,0c-0.1,0.1-0.2,0.2-0.2,0.3C88.5,398.6,88.5,398.7,88.5,398.8z"/>
	<path class="st8" d="M89.6,401.9l-0.1,0.1c-0.9,0-1.8-0.4-2.5-1c-0.2-0.2-0.3-0.6-0.3-0.9c0-0.4,0.3-0.6,0.4-0.6
		c0.7-0.1,2.1,1.5,2.5,2.2V401.9L89.6,401.9z M87,400.2c0,0.2,0.1,0.4,0.2,0.5c0.6,0.5,1.3,0.8,2,0.9c-0.5-0.8-1.6-1.9-2-1.8
		C87.2,399.8,87.1,399.8,87,400.2L87,400.2L87,400.2z"/>
	<polygon class="st23" points="92.4,389.4 98.8,389.9 95.8,402.3 89.5,401.9 	"/>
	<polygon class="st9" points="92.5,389 91.2,394.5 97.6,395 98.9,389.5 	"/>
	<path class="st6" d="M88,401c-1.7,2-2.6,3.1-7.6,4.6c-1.1,0.3-0.1,3,2.6,2.7c4.4-0.4,2-0.4,5.7-0.7c3.2-0.3,6.9-0.5,9.5-0.6
		c0.1,0,0.2,0,0.3,0c0.5-0.2,0.7-0.7,0.6-1.2l-1.8-5.7c-0.1-0.3-0.3-0.4-0.6-0.4l-7.1,0.6C89,400.4,88.4,400.6,88,401z"/>
	<path class="st8" d="M88.5,387.9l-0.1,4.1l13.8,1.5c0,0,1.2-4.5,1.1-4.5L88.5,387.9z"/>
	<path class="st6" d="M134.2,172.3c3.3-1.3,3.8-1.6,5.7-4.5c1.1-1.7,0.9-3.1,4.2-3.6c4.1-0.7,8,2.1,8.7,6.2c0.5,3.1-0.9,6.1-3.5,7.7
		c-1.7,1.1,0.8-1.5-1-0.7s-1.4-0.1-1.6,1.9c-0.1,1.5,0.8,2.9,1.4,4.3s0.7,3.3-0.5,4.2c0.4-1.2-2.5,2-2.4,3.2
		c0.3,3.4-2.7,6.5-6.1,6.9c-7.4,1-12.2-7.6-14.4-13.4C122,176.6,126.4,175.3,134.2,172.3z"/>
	<path class="st23" d="M146.3,181.9c1.9,0.6,2.8,3.3,2.9,5.1c0.1,1.9-1.2,3.1-2.9,1.8c-1.3-1-2.1-2.4-2.5-3.9
		C143.3,183,144.4,181.3,146.3,181.9z"/>
	<path class="st24" d="M152.8,205.8c3.9-0.2,7.5,2.2,8.8,5.9c1.9,4.7,5.5,15.1,7.4,20.5c0.3,0.8,1.2,1.2,2,1
		c0.4-0.1,0.7-0.4,0.9-0.7l2.5-4.7c0,0,3.7,0.7,5.1,3.9s-7,12.1-11.4,12.1c-4.9,0-11.3-12-13-17.5
		C153,219.6,152.2,212.7,152.8,205.8z"/>
	<path class="st23" d="M174.4,229.2l2.9-4.9c0,0-1.6-3-0.6-5s2.1-0.4,3.1-1s3.3-4.9,4.4-2.7s2.5,5.8-3.2,10.2l-3.1,7.8L174.4,229.2z
		"/>
	<path class="st8" d="M174.8,227.1c2.6,0.5,4.6,2.5,5.3,5v0.1c0.1,0.4,0.6,3.8,0,3.8s-1.6-3.1-6.8-5.9c-0.3-0.2-0.4-0.6-0.3-0.9l0,0
		l1.1-1.9C174.3,227.2,174.5,227.1,174.8,227.1z"/>
	<path class="st8" d="M174.8,227.1c2.6,0.5,4.6,2.5,5.3,5v0.1c0.1,0.4,0.6,3.8,0,3.8s-1.6-3.1-6.8-5.9c-0.3-0.2-0.4-0.6-0.3-0.9l0,0
		l1.1-1.9C174.3,227.2,174.5,227.1,174.8,227.1z"/>
	<path class="st8" d="M152.8,205.8c3.9-0.2,7.5,2.2,8.8,5.9c1.9,4.7,5.5,15.1,7.4,20.5c0.3,0.8,1.2,1.2,2,1c0.4-0.1,0.7-0.4,0.9-0.7
		l2.5-4.7c0,0,3.7,0.7,5.1,3.9s-7,12.1-11.4,12.1c-4.9,0-11.3-12-13-17.5C153,219.6,152.2,212.7,152.8,205.8z"/>
	<path class="st24" d="M152.8,205.8c3.9-0.2,7.5,2.2,8.8,5.9c1.9,4.7,5.5,15.1,7.4,20.5c0.3,0.8,1.2,1.2,2,1
		c0.4-0.1,0.7-0.4,0.9-0.7l2.5-4.7c0,0,3.7,0.7,5.1,3.9s-7,12.1-11.4,12.1c-4.9,0-11.3-12-13-17.5
		C153,219.6,152.2,212.7,152.8,205.8z"/>
</g>
<path class="st25" d="M438.2,156.1h-20.1c-1.3,0-2.4,1-2.5,2.3l-1.1,13.3c-0.1,1.1,0.7,2.2,1.9,2.3c0.1,0,0.2,0,0.3,0h20.1
	c1.3,0,2.4-1,2.5-2.3l1.2-13.3c0.1-1.1-0.7-2.2-1.8-2.3C438.5,156.1,438.4,156.1,438.2,156.1z M422.8,165l-6.7,6.2l1.1-12.4
	L422.8,165z M418.4,157.7h19.2l-9.7,8.9c-0.4,0.4-1,0.4-1.3,0l0,0L418.4,157.7z M423.9,166.2l1.5,1.6c0.4,0.5,1.1,0.8,1.7,0.7
	c0.7,0,1.4-0.3,1.9-0.7l1.8-1.6l5.7,6.2h-19.3L423.9,166.2z M432,165l6.8-6.2l-1.1,12.4L432,165z"/>
</svg>
