<?xml version="1.0" encoding="utf-8"?>
<!-- Generator: Adobe Illustrator 23.0.2, SVG Export Plug-In . SVG Version: 6.00 Build 0)  -->
<svg version="1.1" id="Layer_1" xmlns="http://www.w3.org/2000/svg" xmlns:xlink="http://www.w3.org/1999/xlink" x="0px" y="0px"
	 viewBox="0 0 500 500" style="enable-background:new 0 0 500 500;" xml:space="preserve">
<style type="text/css">
	.st0{fill:#EBEBEB;}
	.st1{fill:#263238;}
	.st2{fill:#EDF9FF;}
	.st3{fill:#FFFFFF;}
	.st4{opacity:0.2;fill:#FFFFFF;enable-background:new    ;}
	.st5{opacity:0.3;enable-background:new    ;}
	.st6{fill:#C1C1C1;}
	.st7{opacity:0.2;}
	.st8{opacity:0.5;fill:#7BE6FF;enable-background:new    ;}
	.st9{opacity:0.1;}
	.st10{opacity:0.2;enable-background:new    ;}
	.st11{opacity:0.8;fill:#FFFFFF;enable-background:new    ;}
	.st12{fill:#FAB27B;}
	.st13{fill:#00A4FF;}
	.st14{opacity:0.4;enable-background:new    ;}
	.st15{opacity:0.1;enable-background:new    ;}
	.st16{fill:#ED893E;}
	.st17{opacity:0.13;enable-background:new    ;}
	.st18{opacity:0.89;fill:#6B6B6B;enable-background:new    ;}
	.st19{opacity:0.6;fill:#FFFFFF;enable-background:new    ;}
	.st20{opacity:0.5;fill:#FFFFFF;enable-background:new    ;}
	.st21{opacity:0.4;fill:#FFFFFF;enable-background:new    ;}
	.st22{opacity:0.3;fill:#FFFFFF;enable-background:new    ;}
	.st23{opacity:0.1;fill:#FFFFFF;enable-background:new    ;}
	.st24{fill:#7F7F7F;}
</style>
<g id="freepik--background-complete--inject-4">
	<rect x="416.8" y="398.5" class="st0" width="33.1" height="0.3"/>
	<rect x="322.5" y="401.2" class="st0" width="8.7" height="0.3"/>
	<rect x="396.6" y="389.2" class="st0" width="19.2" height="0.3"/>
	<rect x="52.5" y="390.9" class="st0" width="43.2" height="0.3"/>
	<rect x="104.6" y="390.9" class="st0" width="6.3" height="0.3"/>
	<rect x="131.5" y="395.1" class="st0" width="93.7" height="0.3"/>
	<path class="st1" d="M255.2,280.8c-3.2,0-5.8-2.6-5.8-5.8c0-3.2,2.6-5.8,5.8-5.8s5.8,2.6,5.8,5.8l0,0
		C261,278.2,258.4,280.8,255.2,280.8z M255.2,272.2c-1.6,0-2.8,1.2-2.8,2.8s1.2,2.8,2.8,2.8c1.6,0,2.8-1.2,2.8-2.8l0,0
		C258,273.5,256.7,272.2,255.2,272.2L255.2,272.2z"/>
	
		<rect x="260.1" y="276.7" transform="matrix(0.7076 -0.7066 0.7066 0.7076 -122.5001 267.1922)" class="st1" width="3" height="9.8"/>
	<ellipse class="st2" cx="364.1" cy="123.2" rx="38.1" ry="38.1"/>
	<path class="st3" d="M364.2,162.1c-21.4-0.4-38.6-18.1-38.2-39.6c0.4-20.9,17.3-37.8,38.2-38.2v1.6c-20.6,0.4-36.9,17.4-36.5,37.8
		c0.4,20.1,16.5,36.2,36.5,36.5V162.1z"/>
	<path class="st3" d="M364.2,162.1v-1.8c20.6,0.4,37.4-16,37.8-36.5s-16-37.4-36.5-37.8c-0.5,0-0.9,0-1.4,0v-1.6
		c21.4-0.4,39.2,16.8,39.6,38.2s-16.8,39.2-38.2,39.6C365.1,162.1,364.7,162.1,364.2,162.1z"/>
	<path class="st3" d="M384.1,123.2h-1.8c0-12.6-6.3-29.4-18.7-37.3l0.9-1.4C377.4,92.6,384.1,110.2,384.1,123.2z"/>
	<path class="st3" d="M364.7,160.8l-0.9-1.4c12.2-7.9,18.7-24.7,18.7-37.3h1.8C384.1,135.2,377.4,152.7,364.7,160.8z"/>
	<path class="st3" d="M346.1,123.2h-1.8c0-13.1,6.7-30.6,19.4-38.8l0.9,1.4C352.4,93.7,346.1,110.5,346.1,123.2z"/>
	<path class="st3" d="M363.7,160.8c-12.7-8.1-19.4-25.8-19.4-38.8h1.8c0,12.6,6.3,29.4,18.7,37.3L363.7,160.8z"/>
	<rect x="363.3" y="85.2" class="st3" width="1.8" height="76.1"/>
	<rect x="332" y="102" class="st3" width="64.5" height="1.6"/>
	<rect x="326.1" y="123" class="st3" width="76" height="1.6"/>
	<rect x="332.9" y="143.9" class="st3" width="62.7" height="1.6"/>
	<path class="st2" d="M135.3,116.7c0-2.9-0.4-5.9-1.3-8.7l7.5-6.7l-4.8-8.3l-9.4,3.3c-4.1-4.4-9.3-7.4-14.9-8.7l-2-9.9h-9.6l-2,9.9
		C92.9,89,87.8,92,83.8,96.4l-9.6-3.2l-4.8,8.3l7.5,6.7c-1.7,5.7-1.7,11.6,0,17.3l-7.5,6.7l4.8,8.3l9.6-3.3
		c4.1,4.4,9.3,7.4,14.9,8.7l2,9.9h9.6l2-9.9c5.8-1.3,10.9-4.4,14.9-8.7l9.6,3.2l4.8-8.3l-7.7-6.5
		C134.8,122.6,135.3,119.6,135.3,116.7z M105.5,132.8c-8.6,0-15.5-7-15.5-15.4c0-8.6,7-15.5,15.4-15.5s15.5,7,15.5,15.5l0,0
		C121.1,125.8,114.1,132.8,105.5,132.8L105.5,132.8z"/>
	<path class="st2" d="M176.2,157.7c0-2.2-0.3-4.5-1-6.5l5.8-5.1l-3.6-6.2l-7.3,2.5c-3-3.3-7-5.5-11.3-6.5l-1.5-7.5h-7.3l-1.5,7.5
		c-4.4,1-8.3,3.3-11.5,6.5l-7.3-2.5l-3.6,6.2l5.8,5.1c-1.3,4.4-1.3,8.9,0,13.2l-5.8,5.1l3.6,6.2l7.3-2.5c3,3.3,7,5.5,11.5,6.5
		l1.5,7.5h7.3l1.5-7.5c4.4-1,8.3-3.3,11.3-6.5l7.3,2.5l3.6-6.2l-5.8-5.1C175.9,162.2,176.2,160.1,176.2,157.7z M153.6,170.1
		c-6.5,0-11.8-5.2-11.8-11.8c0-6.5,5.2-11.8,11.8-11.8c6.5,0,11.8,5.2,11.8,11.8l0,0C165.3,164.7,160.1,170.1,153.6,170.1
		L153.6,170.1L153.6,170.1z"/>
</g>
<g id="freepik--Device--inject-4">
	<path class="st1" d="M179.7,402.4l-0.2,2.3c0,0.3,0,0.6,0.1,0.8l0,0c0,0.1,0.1,0.2,0.2,0.4c0.1,0.1,0.2,0.2,0.2,0.3
		c0.1,0.1,0.2,0.2,0.3,0.3c0.3,0.2,0.7,0.4,1.2,0.4h82.4c0.2,0,0.4,0,0.6-0.1c0.1,0,0.3-0.1,0.4-0.1c0.4-0.2,0.8-0.6,1-1
		c0.1-0.2,0.2-0.5,0.2-0.8l0.2-2.2c0-0.3,0-0.5-0.1-0.8c0-0.1-0.1-0.2-0.1-0.3c-0.2-0.3-0.4-0.5-0.6-0.6c-0.1-0.1-0.2-0.1-0.4-0.2
		c-0.2-0.1-0.4-0.1-0.6-0.1H244c-0.3,0-0.5,0-0.8-0.1l0,0l-0.3-0.1l0,0l0,0c-0.1,0-0.2-0.1-0.3-0.1s-0.2-0.1-0.3-0.1
		c-0.1-0.1-0.3-0.2-0.4-0.3c-0.2-0.1-0.3-0.3-0.4-0.4c-0.1-0.1-0.1-0.2-0.2-0.3l-0.1-0.2L241,399l0,0c-0.1-0.1-0.1-0.2-0.1-0.3
		l-0.1-0.3c0,0,0,0,0-0.1c0,0,0,0,0-0.1l0,0c0-0.1,0-0.2-0.1-0.2c0-0.1,0-0.2,0-0.3l0,0c0-0.1,0-0.2,0-0.3s0-0.2,0-0.3V397
		c0-0.1,0-0.2,0-0.3c0-0.1,0.1-0.2,0.1-0.3l0,0l8.1-30.9l1.6-5.9l1.2-4.6h-46.8l-2.5,4.6l-3.2,5.9L181,399.2
		c-0.1,0.1-0.1,0.2-0.2,0.4l0,0l-0.2,0.4c-0.1,0.1-0.1,0.3-0.2,0.4l-0.1,0.3C180,401.2,179.8,401.8,179.7,402.4z"/>
	<path class="st4" d="M266.2,402.7l-0.2,2.2c-0.1,1.1-1,2-2.2,2h-82.4c-1.1,0-2-0.9-2-2c0-0.1,0-0.1,0-0.2l0.2-2.3
		c0.1-0.6,0.2-1.2,0.4-1.8c0.2-0.5,0.4-1,0.6-1.5l23.9-44.3h46.8l-10.8,41.5c-0.1,0.2-0.1,0.5-0.1,0.7c-0.1,1.7,1,3.2,2.7,3.6
		c0.3,0.1,0.5,0.1,0.8,0.1h20.5c1,0,1.8,0.8,1.8,1.7C266.2,402.5,266.2,402.6,266.2,402.7z"/>
	<path class="st1" d="M178,399.1l23.9-44.3h2.6l-23.9,44.3c-0.6,1-0.9,2.1-1,3.3l-0.2,2.3c-0.1,1.1,0.7,2,1.7,2.1c0.1,0,0.2,0,0.3,0
		h-2.6c-1.1,0-2-0.8-2-1.9c0-0.1,0-0.2,0-0.3l0.2-2.3C177.1,401.3,177.4,400.1,178,399.1z"/>
	<polygon class="st5" points="204.6,354.8 251.4,354.8 248.6,365.4 198.9,365.4 	"/>
	<path class="st1" d="M125.2,207.9v144.3c0,4,3.3,7.3,7.3,7.3l0,0h199.7c4,0,7.3-3.3,7.3-7.3l0,0V207.9c0-4-3.3-7.3-7.3-7.3l0,0
		H132.5c-1.6,0-3.2,0.5-4.4,1.5c-0.2,0.1-0.3,0.3-0.5,0.4c-0.5,0.4-0.9,1-1.3,1.5c-0.2,0.4-0.4,0.8-0.6,1.2
		C125.4,206.1,125.2,207,125.2,207.9z"/>
	<path class="st6" d="M339.4,336.5v15.6c0,4-3.3,7.3-7.3,7.3H132.5c-4,0-7.3-3.3-7.3-7.3v-15.6H339.4z"/>
	<path class="st2" d="M132.6,332.1H332c2.2,0,4-1.8,4-4V209c0-2.2-1.8-4-4-4H132.6c-2.2,0-4,1.8-4,4v119.2
		C128.6,330.4,130.4,332.1,132.6,332.1z"/>
	<path class="st1" d="M128.1,200.6h4.4c-4,0-7.3,3.3-7.3,7.3l0,0v144.3c0,4,3.3,7.3,7.3,7.3h-4.4c-4,0-7.3-3.3-7.3-7.3V207.9
		C120.8,203.8,124,200.6,128.1,200.6L128.1,200.6z"/>
	<g class="st7">
		<path class="st3" d="M128.1,200.6h4.4c-4,0-7.3,3.3-7.3,7.3l0,0v144.3c0,4,3.3,7.3,7.3,7.3h-4.4c-4,0-7.3-3.3-7.3-7.3V207.9
			C120.8,203.8,124,200.6,128.1,200.6L128.1,200.6z"/>
	</g>
	<path class="st8" d="M337.2,280.9c-5.1-1-13.3,2.3-14.8,7.3c0.3-3.1-1.2-6.2-3.9-7.8c-2.6-1.5-6.1-2.6-8.6-0.8
		c2.4-10-1.1-20.5-9.1-27.1c-7.8-6.3-19.2-7-28.3-2.6c4.9-9.5,1.2-21.2-8.2-26.1c-1-0.5-2-0.9-3.1-1.3c-12.6-4.4-26-5.6-39.1-3.7
		c-7.6,1.1-15.4,3.5-20.9,8.8s-7,15-3.3,21.7c-8.7-2.8-18.3-0.6-24.9,5.9c-6.3,6.6-8.4,16.2-5.4,24.8c-2.4-1.4-5.4-1.5-7.9-0.3
		s-4.1,3.7-4.4,6.4c-5.5-7.3-15.9-8.7-23.2-3.2c-1.5,1.1-2.8,2.5-3.8,4.1v44.9H336L337.2,280.9z"/>
	<path class="st3" d="M184,261.2h106.9c5.4,0,9.9,4.4,9.9,9.9l0,0c0,5.4-4.4,9.9-9.9,9.9H184c-5.4,0-9.9-4.4-9.9-9.9l0,0
		C174.2,265.6,178.6,261.2,184,261.2z"/>
	<path class="st1" d="M183.4,274.8c-3.2,0-5.8-2.6-5.8-5.8s2.6-5.8,5.8-5.8s5.8,2.6,5.8,5.8C189.2,272.2,186.6,274.8,183.4,274.8z
		 M183.4,266.2c-1.6,0-2.8,1.3-2.8,2.8s1.3,2.8,2.8,2.8c1.6,0,2.8-1.3,2.8-2.8S185,266.2,183.4,266.2L183.4,266.2z"/>
	
		<rect x="188.3" y="270.7" transform="matrix(0.7076 -0.7066 0.7066 0.7076 -139.247 214.7056)" class="st1" width="3" height="9.8"/>
	<g class="st9">
		<polygon class="st3" points="268.5,205 276.1,205 292,332.1 284.4,332.1 		"/>
		<polygon class="st2" points="299.8,332.1 283.9,205 312.7,205 328.6,332.1 		"/>
	</g>
	<path class="st4" d="M193.9,402.7l-0.2,2.1c-0.1,1,0.6,2,1.6,2.1c0.1,0,0.2,0,0.2,0h68.2c1.1,0,2.1-0.9,2.2-2l0.2-2.2
		c0.1-1-0.6-1.9-1.5-2c-0.1,0-0.2,0-0.3,0h-20.5c-0.3,0-0.5,0-0.8-0.1h-47C194.9,400.6,194,401.5,193.9,402.7z"/>
	<path class="st10" d="M180,400.6h63.1c-1.7-0.3-2.8-1.9-2.7-3.6H182L180,400.6z"/>
	<path class="st3" d="M212.3,249.4l1.4-3.1c1.7,1.2,3.7,1.8,5.8,1.8c2.4,0,3.4-0.8,3.4-1.9c0-3.3-10.2-1-10.2-7.6
		c0-3,2.4-5.5,7.4-5.5c2.1,0,4.3,0.5,6.1,1.6l-1.3,3.1c-1.5-0.9-3.2-1.4-4.9-1.4c-2.4,0-3.3,0.9-3.3,2c0,3.2,10.2,1,10.2,7.5
		c0,2.9-2.4,5.5-7.5,5.5C216.9,251.5,214.4,250.8,212.3,249.4z"/>
	<path class="st3" d="M243.3,247.9v3.3h-13.6v-17.6H243v3.3h-9.3v3.8h8.2v3.2h-8.2v4.1L243.3,247.9z"/>
	<path class="st3" d="M245.4,242.3c0-5.2,4.1-9.1,9.6-9.1s9.6,3.9,9.6,9.1s-4.1,9.1-9.6,9.1S245.4,247.6,245.4,242.3z M260.5,242.3
		c-0.1-3-2.6-5.4-5.7-5.3c-3,0.1-5.4,2.6-5.3,5.7c0.1,3,2.5,5.3,5.5,5.3c3,0.1,5.4-2.2,5.5-5.2C260.5,242.6,260.5,242.5,260.5,242.3
		z"/>
	<path class="st11" d="M190,293.8h42.2c2.1,0,3.9,1.7,3.9,3.9v8.9c0,2.1-1.7,3.9-3.9,3.9H190c-2.1,0-3.9-1.7-3.9-3.9v-8.9
		C186.2,295.6,187.9,293.8,190,293.8z"/>
	<path class="st11" d="M251.2,293.8h42.2c2.1,0,3.9,1.7,3.9,3.9v8.9c0,2.1-1.7,3.9-3.9,3.9h-42.2c-2.1,0-3.9-1.7-3.9-3.9v-8.9
		C247.4,295.6,249.1,293.8,251.2,293.8z"/>
</g>
<g id="freepik--Character--inject-4">
	<path class="st12" d="M345.6,281.3l-1.1,0.3c-1.1,0.2-1.9,1.1-2,2.1l-0.1,0.8c-0.1,0.8,0.2,1.6,0.8,2.2c1.9,1.6,6.4,4.7,11.8,2.7
		l4.3-3.3l-0.7-5.8l-9-1.3c-0.5,0-1.1,0.2-1.5,0.6L345.6,281.3z"/>
	<polygon class="st12" points="359.2,286.1 371.2,285.5 369.4,279 358.5,280.3 	"/>
	<path class="st13" d="M366.4,279.1c-0.5,0.9-0.7,2-0.5,3c0.2,1.7,0.9,3.2,1.9,4.5l0,0c-2,0-4,0.5-5.8,1.4h-0.1
		c-6.2-4.3-2.6-9.3-2.6-9.3l0.4,0.1C361.9,279.2,364.1,279.2,366.4,279.1z"/>
	<path class="st13" d="M390.9,284.5c-11.1,2.6-25,2.3-25,2.3c-0.5-0.8-0.7-1.7-0.6-2.5c0.1-1.9,0.4-4.2,1-5.1s5.5-1.4,5.5-1.4
		s9.3-4.3,11-5.7s1.7-8,1.4-12.3c-1.8-23.3,2.3-25,6-26.1C398,231.3,400.7,282.2,390.9,284.5z"/>
	<path class="st13" d="M314.7,289.4h31.1c1,0,1.5-0.8,1-1.8l-7.8-17.5c-0.5-1-1.5-1.7-2.6-1.8h-31.1c-1,0-1.5,0.8-1,1.8l7.8,17.5
		C312.5,288.6,313.5,289.3,314.7,289.4z"/>
	<path class="st10" d="M314.7,289.4h31.1c1,0,1.5-0.8,1-1.8l-7.8-17.5c-0.5-1-1.5-1.7-2.6-1.8h-31.1c-1,0-1.5,0.8-1,1.8l7.8,17.5
		C312.5,288.6,313.5,289.3,314.7,289.4z"/>
	<path class="st13" d="M303.9,268.3h1.4c-1,0-1.5,0.8-1,1.8l7.8,17.5c0.5,1,1.5,1.7,2.6,1.8h-1.3c-1.1-0.1-2.2-0.8-2.6-1.8
		l-7.8-17.5C302.5,269.1,302.9,268.3,303.9,268.3z"/>
	<path class="st14" d="M303.9,268.3h1.4c-1,0-1.5,0.8-1,1.8l7.8,17.5c0.5,1,1.5,1.7,2.6,1.8h-1.3c-1.1-0.1-2.2-0.8-2.6-1.8
		l-7.8-17.5C302.5,269.1,302.9,268.3,303.9,268.3z"/>
	<polygon class="st1" points="315.3,287.4 343.4,287.4 335.8,270.3 307.6,270.3 	"/>
	<polygon class="st11" points="315.3,287.4 343.4,287.4 335.8,270.3 307.6,270.3 	"/>
	<path class="st1" d="M407.8,288.1c0,0,0.8,10.3,0.9,13.9c0.8,24-18.9,25.9-33.3,23.2l-52.3-14.6c-2.1,7-26.3,45.2-26.3,45.2
		l-12.7-7.3c0,0,13.2-31.6,21.7-53.6c4.9-12.5,44.4-3.9,58.9-1.3c4.4,1.2,3.6-5.7,3.6-5.7L407.8,288.1z"/>
	<polygon class="st12" points="293.6,355 288.7,363.1 279.7,358.6 284.4,349.4 	"/>
	<path class="st13" d="M274.9,357c-1.2-0.5-2.3-1.3-2.5-2c-0.1-0.4,0.1-0.8,0.5-1c0.3-0.2,0.7-0.3,1-0.2c1.8,0.3,4.3,3.7,4.4,3.9
		c0.1,0.1,0.1,0.2,0,0.3c-0.1,0.1-0.2,0.1-0.3,0.1C276.9,357.8,275.9,357.5,274.9,357z M274.2,354.4c-0.1-0.1-0.3-0.1-0.5-0.1
		c-0.2-0.1-0.4,0-0.6,0.1c-0.3,0.2-0.3,0.4-0.3,0.5c0.2,0.8,2.6,2,4.5,2.5C276.5,356.2,275.4,355.2,274.2,354.4L274.2,354.4z"/>
	<path class="st13" d="M277.9,358C277.9,358,277.8,358,277.9,358c-1-1-2.4-4.2-1.7-5.2c0.1-0.3,0.5-0.5,1.1-0.3
		c0.5,0.2,0.9,0.5,1.1,1c0.8,1.6-0.2,4.3-0.2,4.4s-0.1,0.1-0.2,0.2C278,358.1,277.9,358.1,277.9,358z M277.3,353l-0.1-0.1
		c-0.4-0.2-0.5,0-0.6,0c-0.4,0.6,0.4,2.9,1.3,4.2c0.4-1.1,0.4-2.4,0.1-3.5C277.8,353.4,277.6,353.1,277.3,353L277.3,353z"/>
	<path class="st1" d="M279.5,357.1l10.5,4.8c0.4,0.2,0.6,0.6,0.5,1l-2,9.4c-0.2,0.8-1,1.4-1.8,1.2l0,0c-0.1,0-0.2-0.1-0.3-0.1
		c-3.8-1.8-7-3.5-11.7-5.7c-5.5-2.5-4.5-1.2-11-4.1c-4-1.8-2.6-6.5-0.9-6c8.1,2.5,9.9,0.6,14.1-0.8
		C277.8,356.6,278.7,356.7,279.5,357.1z"/>
	<polygon class="st10" points="291.1,359.1 293.6,355 284.4,349.4 282.1,353.9 	"/>
	<path class="st13" d="M298.9,355l-15.8-9.8c-1.5,0.8-2.3,2.5-2,4.1l15.2,9.7C296.3,359,298.3,358.9,298.9,355z"/>
	<polygon class="st12" points="320.4,395.3 318.5,404.3 308.8,403 310.2,393 	"/>
	<path class="st13" d="M303.8,403c-1.3-0.1-2.6-0.5-2.9-1.1c-0.2-0.3-0.1-0.7,0.1-1s0.5-0.4,0.8-0.5c1.8-0.3,5.1,2.1,5.3,2.2
		c0.1,0.1,0.1,0.2,0.1,0.3c0,0.1-0.1,0.2-0.2,0.2C305.9,403.1,304.9,403.1,303.8,403z M302.4,400.9c-0.2,0-0.3,0-0.5,0
		s-0.4,0.1-0.5,0.3c-0.2,0.3-0.2,0.4-0.1,0.5c0.4,0.7,3,1,4.9,0.9C305.1,401.8,303.8,401.2,302.4,400.9L302.4,400.9z"/>
	<path class="st13" d="M306.9,403h-0.1c-1.2-0.7-3.4-3.1-3.1-4.3c0-0.3,0.3-0.6,1-0.6c0.5,0,1,0.2,1.3,0.5c1.2,1.2,1.2,4,1.2,4.1
		s0,0.2-0.1,0.2C307.1,403.1,307,403,306.9,403z M304.8,398.6h-0.1c-0.4,0-0.5,0.2-0.5,0.2c-0.1,0.7,1.3,2.6,2.5,3.5
		c0-1.2-0.4-2.3-1-3.3C305.4,398.8,305.1,398.7,304.8,398.6L304.8,398.6z"/>
	<path class="st1" d="M308.1,401.7l11.1,1.1c0.4,0,0.8,0.4,0.8,0.8l1.1,9.3c0.1,0.8-0.5,1.6-1.3,1.7c-0.1,0-0.2,0-0.3,0
		c-4-0.5-7.6-1-12.6-1.5c-5.9-0.6-4.5,0.3-11.4-0.3c-4.2-0.4-4.5-5.2-2.7-5.3c8.2-0.2,9.3-2.6,12.7-5.2
		C306.4,401.7,307.3,401.5,308.1,401.7z"/>
	<polygon class="st10" points="309.4,398.3 319.6,399 320.4,395.3 310.2,393 	"/>
	<polygon class="st1" points="323.3,391.7 323,392.9 308.1,391.7 308.2,390.6 	"/>
	<path class="st13" d="M323.9,396.4l-3.7-0.3l-10.4-0.9l-3.3-0.3c-1-1.3-1-3.1-0.1-4.5l1.9,0.1l15.1,1.2l1.1,0.1
		C325.6,395.4,323.9,396.4,323.9,396.4z"/>
	<path class="st1" d="M384.5,334.1c-13.5,1.2-44.7,1.7-48.9,1.1l-12.3,56.6l-15.1-1.2c0,0,1.6-48.9,8.2-69.2
		c5.3-16.3,90.8-12.9,90.8-12.9l0.3,4.6C408.1,328.9,400,332.7,384.5,334.1z"/>
	<path class="st15" d="M384.5,334.1c-13.5,1.2-44.7,1.7-48.9,1.1l-12.3,56.6l-15.1-1.2c0,0,1.6-48.9,8.2-69.2
		c5.3-16.3,90.8-12.9,90.8-12.9l0.3,4.6C408.1,328.9,400,332.7,384.5,334.1z"/>
	<path class="st1" d="M316.2,327.3c0-0.1,0-0.2,0-0.3V327.3z"/>
	<path class="st1" d="M317.2,320l-0.1,1.1C317.1,320.7,317.2,320.4,317.2,320z"/>
	<polygon class="st12" points="365.1,231.6 369.2,237.6 378.5,229.7 372.7,222.5 	"/>
	<path class="st10" d="M367.1,234.5c1.8-2.6,1-6.8,1-6.8l-1.6,2.1l-1.4,1.8L367.1,234.5z"/>
	<path class="st1" d="M349.1,218.2c0.2,0.6,0.7,1,1.1,0.8s0.6-0.8,0.4-1.3s-0.7-1-1.1-0.8S348.9,217.6,349.1,218.2z"/>
	<path class="st16" d="M351.3,218.4l-1.3,5.7c1.4,0.3,2.8-0.1,3.8-1L351.3,218.4z"/>
	<path class="st1" d="M348.5,214.1c0.1,0,0.2,0,0.3,0c0.8,0.3,1.6,0.3,2.4-0.2c0.1-0.1,0.3-0.1,0.4,0.1l0,0c0.1,0.2,0.1,0.4-0.1,0.5
		c-0.9,0.6-2,0.7-3,0.3c-0.2-0.1-0.3-0.3-0.2-0.4l0,0l0,0C348.4,214.2,348.4,214.2,348.5,214.1z"/>
	<path class="st12" d="M371.3,208c3,7.7,4.5,10.9,2.4,16.6c-4,6.8-13.4,10.9-18.7,4.2c-4.8-6-8.9-17.6-2.9-24.2
		c4.2-4.7,11.4-5.2,16.2-1C369.6,204.9,370.7,206.3,371.3,208z"/>
	<path class="st1" d="M378.6,210.3c-0.4,2.6-0.7,5.2-0.8,7.8c-0.1,5-3.3,9.3-7.9,11.1l0,0c0,0-10.9-0.1-15.5-13.8
		c-4.3,0.4-8.1-2.8-8.5-7.1c-0.1-1,0-2,0.3-3c0.9-2.9,4.6-4.7,7.6-4.9c2-2.6,5.2-4.1,8.6-3.9c3.3,0.3,6.5,1.3,9.3,3.1
		c2.5,1.3,4.7,3.2,6.2,5.6C378.6,206.8,378.9,208.6,378.6,210.3z"/>
	<path class="st12" d="M356.6,217c-0.7,1.6-0.7,3.3-0.1,4.9c0.8,2.1,3.1,1.7,4.4,0c1.2-1.6,2.1-4.6,0.5-6.1S357.5,215.1,356.6,217z"
		/>
	<path class="st13" d="M378.6,225.2c-3,0.1-7.4,2.2-13.4,6.2c-0.6,0.5-0.9,1.4-0.8,2.2s0.9,1.6,1.6,1.3c0.4,1,0.6,2.1,1,3.1
		c1.9-0.9,3.8-1.7,5.7-2.4c3-1.2,6-2.2,9.1-3c-0.8-1.3-1.9-2.5-2.3-4c0.7-0.3,1.1-1.1,0.9-1.9C380.3,225.8,379.5,225.3,378.6,225.2z
		"/>
	<path class="st13" d="M378.6,225.2c-3,0.1-7.4,2.2-13.4,6.2c-0.6,0.5-0.9,1.4-0.8,2.2s0.9,1.6,1.6,1.3c0.4,1,0.6,2.1,1,3.1
		c1.9-0.9,3.8-1.7,5.7-2.4c3-1.2,6-2.2,9.1-3c-0.8-1.3-1.9-2.5-2.3-4c0.7-0.3,1.1-1.1,0.9-1.9C380.3,225.8,379.5,225.3,378.6,225.2z
		"/>
	<path class="st13" d="M369.8,301.8c-6.3-15.2-11.7-30.8-16.2-46.6c-4.6-17.3,8.6-17.6,24.6-21.9c12.7-3.4,18.1-0.4,21.7,6.1
		s9.5,60.9,9.5,60.9L369.8,301.8z"/>
	<path class="st13" d="M369.8,301.8c-6.3-15.2-11.7-30.8-16.2-46.6c-4.6-17.3,8.6-17.6,24.6-21.9c12.7-3.4,18.1-0.4,21.7,6.1
		s9.5,60.9,9.5,60.9L369.8,301.8z"/>
	<path class="st17" d="M369.8,301.8c-6.3-15.2-11.7-30.8-16.2-46.6c-4.6-17.3,8.6-17.6,24.6-21.9c12.7-3.4,18.1-0.4,21.7,6.1
		s9.5,60.9,9.5,60.9L369.8,301.8z"/>
	<path class="st12" d="M312,276.8h-1.1c-1,0-1.9,0.7-2.2,1.7l-0.2,0.7c-0.2,0.8-0.1,1.6,0.4,2.2c1.5,1.9,5.2,5.5,10.6,4.5l4.6-2.3
		l0.3-5.6l-8.2-2.7c-0.5-0.1-1,0-1.5,0.3L312,276.8z"/>
	<polygon class="st12" points="324.1,283.7 335.4,285.1 334.8,278.7 324.4,278.1 	"/>
	<path class="st13" d="M332,278.2c-0.6,0.8-1,1.8-1,2.8c-0.1,1.6,0.3,3.2,1.1,4.6l0,0c-1.9-0.3-3.9-0.2-5.7,0.4h-0.1
		c-5.2-5-0.9-9.2-0.9-9.2l0.4,0.1C327.8,277.5,329.9,278,332,278.2z"/>
	<path class="st13" d="M354.1,287.3c-10.9,0.6-23.9-2-23.9-2c-0.3-0.8-0.4-1.7-0.1-2.5c0.4-1.7,1-3.9,1.8-4.7s5.4-0.4,5.4-0.4
		s9.5-2.5,11.4-3.5s2.9-7.2,3.3-11.4c2.2-22.2,6.4-23.2,10-23.5C369.6,238.5,363.8,286.9,354.1,287.3z"/>
	<path class="st1" d="M390,413.8l-7.5-63.1c-0.8-6.4-6.2-11.2-12.6-11.2H345c-6.2,0-11.6,4.5-12.5,10.7L322.2,413l-2-0.3l10.2-62.8
		c1.1-7.1,7.3-12.4,14.5-12.4h25c7.4,0,13.7,5.6,14.6,13l7.5,63.1L390,413.8z"/>
	<path class="st1" d="M424.9,413.8l-7.5-63.1c-0.8-6.4-6.2-11.2-12.6-11.2h-25c-6.2,0-11.6,4.5-12.5,10.7L357.1,413l-2-0.3
		l10.2-62.8c1.1-7.1,7.3-12.4,14.5-12.4h25c7.4,0,13.7,5.6,14.6,13l7.5,63.1L424.9,413.8z"/>
	<rect x="323.9" y="395.4" class="st1" width="34.4" height="2"/>
	<rect x="383.5" y="349.6" class="st1" width="35.5" height="2"/>
	<path class="st13" d="M390,339.9h26.1c10.1,0,18.5-7.7,19.3-17.8l3.7-46.9c0.6-7.2-4.8-13.5-12-14.1c-0.3,0-0.7,0-1,0h-14.5
		c-16.8,0-31.7,11.1-36.5,27.2l-10,33.5c-1.7,5.6-6.8,9.5-12.7,9.5h-18.3c-4.8,0-8.6,3.9-8.6,8.7H390V339.9z"/>
	<path class="st18" d="M390,339.9h26.1c10.1,0,18.5-7.7,19.3-17.8l3.7-46.9c0.6-7.2-4.8-13.5-12-14.1c-0.3,0-0.7,0-1,0h-14.5
		c-16.8,0-31.7,11.1-36.5,27.2l-10,33.5c-1.7,5.6-6.8,9.5-12.7,9.5h-18.3c-4.8,0-8.6,3.9-8.6,8.7H390V339.9z"/>
</g>
<g id="freepik--Speedometer--inject-4">
	<path class="st13" d="M264.6,188.3L264.6,188.3v-0.1C264.6,188.3,264.6,188.3,264.6,188.3z"/>
	<path class="st13" d="M217.5,175.7c-3.4,3.2-5.9,7.2-7.3,11.6h-1.8c0.6-5,2.5-9.8,5.5-13.9L217.5,175.7z"/>
	<path class="st19" d="M217.5,175.7c-3.4,3.2-5.9,7.2-7.3,11.6h-1.8c0.6-5,2.5-9.8,5.5-13.9L217.5,175.7z"/>
	<path class="st13" d="M228.1,169.7c-4,1.1-7.6,3.2-10.6,6l-3.6-2.3c2.9-4.1,6.8-7.5,11.3-9.8L228.1,169.7z"/>
	<path class="st20" d="M228.1,169.7c-4,1.1-7.6,3.2-10.6,6l-3.6-2.3c2.9-4.1,6.8-7.5,11.3-9.8L228.1,169.7z"/>
	<path class="st13" d="M239.3,160.2l-0.9,8.9c-1.3-0.2-2.6-0.3-3.9-0.3c-2.2,0-4.4,0.3-6.5,0.9l-2.9-6.1c4.2-2.2,8.9-3.4,13.7-3.4
		L239.3,160.2L239.3,160.2z"/>
	<path class="st21" d="M239.3,160.2l-0.9,8.9c-1.3-0.2-2.6-0.3-3.9-0.3c-2.2,0-4.4,0.3-6.5,0.9l-2.9-6.1c4.2-2.2,8.9-3.4,13.7-3.4
		L239.3,160.2L239.3,160.2z"/>
	<path class="st13" d="M252.7,164l-5.8,8.6c-2.5-1.7-5.4-2.9-8.4-3.4l0.9-8.9C244.1,160.2,248.7,161.5,252.7,164z"/>
	<path class="st22" d="M252.7,164l-5.8,8.6c-2.5-1.7-5.4-2.9-8.4-3.4l0.9-8.9C244.1,160.2,248.7,161.5,252.7,164z"/>
	<path class="st13" d="M262,174.1l-9.1,4.9c-1.5-2.5-3.6-4.7-6-6.4l5.8-8.6C256.7,166.4,259.9,169.9,262,174.1z"/>
	<path class="st4" d="M262,174.1l-9.1,4.9c-1.5-2.5-3.6-4.7-6-6.4l5.8-8.6C256.7,166.4,259.9,169.9,262,174.1z"/>
	<path class="st13" d="M264.6,188l-8.9-0.1c-0.3-3.2-1.3-6.2-2.9-8.9l9.1-4.9C264.1,178.4,265,183.2,264.6,188z"/>
	<path class="st23" d="M264.6,188l-8.9-0.1c-0.3-3.2-1.3-6.2-2.9-8.9l9.1-4.9C264.1,178.4,265,183.2,264.6,188z"/>
	<path class="st13" d="M264.6,188.2v0.1c-0.4,3.1-1.2,6.2-2.4,9.1l-7.2-1.6l0.6-2.8c0-0.4,0.1-0.7,0.1-1.1l0,0v-0.2l0,0
		c0.1-1.3,0.1-2.6,0-3.9l8.9,0.1c0,0.1,0,0.1,0,0.1C264.6,188.2,264.6,188.2,264.6,188.2z"/>
	<path class="st13" d="M209.5,196.9L209,197c-0.2-0.7-0.3-1.4-0.4-2.1c-0.3-2.2-0.4-4.4-0.2-6.6l0,0v-0.1v-0.1c0-0.3,0-0.6,0.1-0.8
		h1.8c-0.4,1.4-0.7,2.9-0.9,4.4v0.1v0.1c-0.1,0.9-0.1,1.8,0,2.7C209.4,195.4,209.4,196.1,209.5,196.9z"/>
	<path class="st23" d="M209.5,196.9L209,197c-0.2-0.7-0.3-1.4-0.4-2.1c-0.3-2.2-0.4-4.4-0.2-6.6l0,0v-0.1v-0.1c0-0.3,0-0.6,0.1-0.8
		h1.8c-0.4,1.4-0.7,2.9-0.9,4.4v0.1v0.1c-0.1,0.9-0.1,1.8,0,2.7C209.4,195.4,209.4,196.1,209.5,196.9z"/>
	<path class="st1" d="M264,195.4l-0.8,1.9l-1.5-0.3l-14.4-3.3l-6.2-1.4c0.4-0.6,0.8-1.2,1.1-1.8c0.3-0.8,0.5-1.6,0.6-2.4l13.7,4.7
		l0,0L264,195.4z"/>
	<path class="st1" d="M242.8,188.1c-0.1,1.5-0.7,3-1.6,4.2l-5.5-1.3l1.8-4.8L242.8,188.1z"/>
	<path class="st24" d="M242.8,188.1c-0.1,1.5-0.7,3-1.6,4.2c-0.7,0.9-1.6,1.6-2.5,2.1c-3.6,1.9-7.8,0.7-9.4-2.7
		c-1.5-3.6,0-7.8,3.5-9.6c3.6-1.9,7.8-0.7,9.4,2.7C242.7,185.8,242.9,187,242.8,188.1z"/>
</g>
</svg>
