<?xml version="1.0" encoding="utf-8"?>
<!-- Generator: Adobe Illustrator 23.0.2, SVG Export Plug-In . SVG Version: 6.00 Build 0)  -->
<svg version="1.1" id="Layer_1" xmlns="http://www.w3.org/2000/svg" xmlns:xlink="http://www.w3.org/1999/xlink" x="0px" y="0px"
	 viewBox="0 0 500 500" style="enable-background:new 0 0 500 500;" xml:space="preserve">
<style type="text/css">
	.st0{opacity:0.9;}
	.st1{fill:#00A4FF;}
	.st2{fill:#FFFFFF;}
	.st3{opacity:0.6;fill:#FFFFFF;enable-background:new    ;}
	.st4{opacity:0.8;fill:#FFFFFF;enable-background:new    ;}
	.st5{opacity:0.3;fill:#FFFFFF;enable-background:new    ;}
	.st6{opacity:0.5;}
	.st7{opacity:0.3;fill:#00A4FF;enable-background:new    ;}
	.st8{opacity:0.1;fill:#00A4FF;enable-background:new    ;}
	.st9{opacity:0.4;fill:#FFFFFF;enable-background:new    ;}
	.st10{opacity:0.6;fill:#00A4FF;enable-background:new    ;}
	.st11{opacity:0.7;fill:#FFFFFF;enable-background:new    ;}
	.st12{opacity:0.7;fill:#00A4FF;enable-background:new    ;}
	.st13{opacity:0.2;enable-background:new    ;}
	.st14{opacity:0.1;fill:#FFFFFF;enable-background:new    ;}
	.st15{opacity:0.5;fill:#00A4FF;enable-background:new    ;}
	.st16{opacity:0.5;fill:#FFFFFF;enable-background:new    ;}
	.st17{opacity:0.2;fill:#00A4FF;enable-background:new    ;}
	.st18{fill:#263238;}
	.st19{opacity:0.12;fill:#FFFFFF;enable-background:new    ;}
	.st20{fill:#FFB573;}
	.st21{fill:#E0E0E0;}
	.st22{fill:#E6E6E6;}
	.st23{fill:#ED893E;}
	.st24{fill:#DB9F09;}
	.st25{fill:#FFBC00;}
</style>
<g id="freepik--background-simple--inject-31">
	<g class="st0">
		<path class="st1" d="M360.4,347.6c-56.4,79-151.2,6.5-173.6-56.7c-8.9-25.1-7.2-38.7-26.9-56.3c-14.4-12.8-36.4-9.5-49.9-25.1
			c-29.6-34.3-18.1-98.9,7.7-128.9c26.8-31.2,65-43.5,93.1-19.8c20.6,17.3,22,47.9,34.3,57.8c25.3,20.4,41.8,7.9,68.6,12.1
			C412,146.1,411.5,275.9,360.4,347.6z"/>
	</g>
	<g class="st0">
		<path class="st2" d="M360.4,347.6c-56.4,79-151.2,6.5-173.6-56.7c-8.9-25.1-7.2-38.7-26.9-56.3c-14.4-12.8-36.4-9.5-49.9-25.1
			c-29.6-34.3-18.1-98.9,7.7-128.9c26.8-31.2,65-43.5,93.1-19.8c20.6,17.3,22,47.9,34.3,57.8c25.3,20.4,41.8,7.9,68.6,12.1
			C412,146.1,411.5,275.9,360.4,347.6z"/>
	</g>
</g>
<g id="freepik--landing-page--inject-31">
	<rect x="43" y="92.7" class="st1" width="414" height="261.4"/>
	<rect x="43" y="92.7" class="st3" width="414" height="261.4"/>
	<rect x="45.7" y="89.8" class="st1" width="408.7" height="261.7"/>
	<rect x="45.7" y="89.8" class="st4" width="408.7" height="261.7"/>
	<path class="st5" d="M338,338.7c-1.8,0-3.6,0-5.4-0.1c-36-1.5-59.2-16.6-83.8-32.6c-10.6-6.9-21.6-14-34.1-20.4
		c-21.4-11-36.3-5.9-52.1-0.6c-10.4,3.5-21.2,7.2-34.3,6.3c-15.1-1-26.3-6.5-33.3-16.5c-10.9-15.5-9.6-39-4.8-55.9
		c9.6-33.4,32.3-59.2,65.7-74.7c31.9-14.8,72.3-19.8,116.8-14.5c58.5,7,110,35.5,134.4,74.4c16.3,25.9,19.6,54.9,9.6,83.9
		C405.7,320.5,377.1,338.7,338,338.7z M189.9,278.6c7.5,0,15.7,1.8,25.1,6.6c12.5,6.4,23.5,13.5,34.1,20.5
		c24.5,15.9,47.7,31,83.5,32.5c41.6,1.7,72.1-16.6,83.7-50.2c9.9-28.9,6.6-57.7-9.6-83.5c-24.3-38.8-75.7-67.2-134-74.2
		c-93.3-11.2-163,22.9-182,88.9c-4.8,16.8-6.1,40.1,4.7,55.5c7,9.9,18,15.4,33,16.3c13,0.8,23.7-2.8,34.1-6.3
		C171.5,281.6,180.2,278.6,189.9,278.6z"/>
	<path class="st2" d="M417.9,169.9c26,39.7,20.9,98.4-29,132.8c-54.5,37.5-106.4,27.8-132.9-11.3s-14.9-88.8,26.8-124.5
		S390.4,127.9,417.9,169.9z"/>
	<g class="st6">
		<path class="st1" d="M72.5,105h21.1c0.8,0,1.4,0.6,1.4,1.4v0.3c0,0.8-0.6,1.4-1.4,1.4H72.5c-0.8,0-1.4-0.6-1.4-1.4v-0.3
			C71,105.6,71.7,105,72.5,105z"/>
		<path class="st1" d="M120.4,105h21.1c0.8,0,1.4,0.6,1.4,1.4v0.3c0,0.8-0.6,1.4-1.4,1.4h-21.1c-0.8,0-1.4-0.6-1.4-1.4v-0.3
			C118.9,105.6,119.6,105,120.4,105z"/>
		<path class="st1" d="M168.3,105h21.1c0.8,0,1.4,0.6,1.4,1.4v0.3c0,0.8-0.6,1.4-1.4,1.4h-21.1c-0.8,0-1.4-0.6-1.4-1.4v-0.3
			C166.9,105.6,167.5,105,168.3,105z"/>
		<path class="st1" d="M216.3,105h21.1c0.8,0,1.4,0.6,1.4,1.4v0.3c0,0.8-0.6,1.4-1.4,1.4h-21.1c-0.8,0-1.4-0.6-1.4-1.4v-0.3
			C214.8,105.6,215.5,105,216.3,105z"/>
	</g>
	<path class="st1" d="M393.4,105h38.3c1.5,0,2.6,1.2,2.6,2.6v0.6c0,1.5-1.2,2.6-2.6,2.6h-38.3c-1.5,0-2.6-1.2-2.6-2.6v-0.6
		C390.8,106.1,392,105,393.4,105z"/>
	<path class="st2" d="M77.1,151.9h112c3.4,0,6.1,2.7,6.1,6.1l0,0c0,3.4-2.7,6.1-6.1,6.1h-112c-3.4,0-6.1-2.7-6.1-6.1l0,0
		C71,154.6,73.7,151.9,77.1,151.9z"/>
	<path class="st2" d="M76.4,176.2h142.9c3,0,5.4,2.4,5.4,5.4v14.6c0,3-2.4,5.4-5.4,5.4H76.4c-3,0-5.4-2.4-5.4-5.4v-14.6
		C71,178.6,73.4,176.2,76.4,176.2z"/>
	<path class="st2" d="M76.4,211.9h97.8c3,0,5.4,2.4,5.4,5.4v14.6c0,3-2.4,5.4-5.4,5.4H76.4c-3,0-5.4-2.4-5.4-5.4v-14.6
		C71,214.4,73.4,211.9,76.4,211.9z"/>
	<path class="st7" d="M175.6,254.7H73.3c-1.2,0-2.2-1-2.3-2.2l0,0l0,0c0-1.2,1-2.2,2.2-2.2l0,0h102.3c1.2,0,2.2,1,2.2,2.2l0,0l0,0
		C177.8,253.7,176.8,254.7,175.6,254.7L175.6,254.7z"/>
	<path class="st7" d="M144.2,263.4h-71c-1.2,0-2.2-1-2.2-2.2l0,0c0-1.2,1-2.2,2.2-2.2h71c1.2,0,2.2,1,2.2,2.2l0,0
		C146.5,262.4,145.5,263.4,144.2,263.4L144.2,263.4z"/>
	<path class="st8" d="M86.2,284.9h70.3c8.4,0,15.2,6.8,15.2,15.2l0,0c0,8.4-6.8,15.2-15.2,15.2H86.2c-8.4,0-15.2-6.8-15.2-15.2l0,0
		C71,291.7,77.8,284.9,86.2,284.9z"/>
	<path class="st1" d="M155.3,312.3h-68c-8.1,0-14.7-6.5-14.8-14.7c0,0,0,0,0-0.1l0,0c0-8.1,6.6-14.7,14.7-14.7h68.1
		c8.1,0,14.7,6.6,14.7,14.7l0,0l0,0C170,305.7,163.4,312.3,155.3,312.3L155.3,312.3z"/>
	<path class="st9" d="M138.2,301.5h-33.9c-2.2,0-3.9-1.7-3.9-3.9l0,0c0-2.2,1.7-3.9,3.9-3.9h33.9c2.1,0,3.9,1.7,3.9,3.9l0,0l0,0
		C142.1,299.8,140.3,301.5,138.2,301.5L138.2,301.5z"/>
	<path class="st2" d="M291.9,133c2.3,8.5-2.7,17.3-11.3,19.6c-6.2,1.7-12.8-0.5-16.7-5.5c2.7,0.7,5.5,0.7,8.1,0
		c8.5-2.2,13.7-11,11.4-19.5c-0.6-2.2-1.6-4.2-3-6C286,123,290.4,127.4,291.9,133z"/>
	<circle class="st3" cx="437.2" cy="179.9" r="0.9"/>
	<path class="st3" d="M371.4,132.2c0,0.5-0.4,0.9-0.9,0.9s-0.9-0.4-0.9-0.9s0.4-0.9,0.9-0.9S371.4,131.7,371.4,132.2L371.4,132.2z"
		/>
	<circle class="st3" cx="302.5" cy="145.6" r="0.9"/>
	<circle class="st10" cx="341.3" cy="171.8" r="0.9"/>
	<path class="st10" d="M413.4,218.3c0,0.5-0.4,0.9-0.9,0.9s-0.9-0.4-0.9-0.9s0.4-0.9,0.9-0.9C413,217.4,413.4,217.8,413.4,218.3
		L413.4,218.3z"/>
	<path class="st11" d="M328.5,127.9c-2.6,0.9-3.4,1.6-4.2,4.2c-0.9-2.6-1.6-3.4-4.2-4.2c2.6-0.9,3.4-1.6,4.2-4.2
		C325.2,126.3,325.9,127.1,328.5,127.9z"/>
	<circle class="st11" cx="419" cy="144.7" r="2.7"/>
	<path class="st11" d="M250.9,157.9c-1.4,0.3-2.4,1.3-2.7,2.7c-0.3-1.4-1.3-2.4-2.7-2.7c1.4-0.3,2.4-1.3,2.7-2.7
		C248.5,156.6,249.5,157.7,250.9,157.9z"/>
	<path class="st12" d="M313.7,172.4c-2.1,0.7-2.6,1.3-3.4,3.4c-0.7-2.1-1.3-2.6-3.4-3.4c2.1-0.7,2.6-1.3,3.4-3.4
		C311,171.1,311.6,171.7,313.7,172.4z"/>
	<circle class="st12" cx="346.5" cy="145.6" r="1.6"/>
	<path class="st1" d="M382.1,241.7c0.4-1.5,7.1-0.9,15,1.2s14,5.1,13.6,6.6l8.3,2.3c0.6-2.3-9-7-21.5-10.4s-23.1-4.3-23.8-2
		L382.1,241.7z"/>
	<path class="st13" d="M385.8,238.8c4,0.6,7.9,1.5,11.8,2.6c3.9,1,7.7,2.3,11.4,3.8c0.1,0.8,0.1,1.6,0.1,2.4
		c-3.8-2.1-7.8-3.6-12-4.7c-5.2-1.4-9.9-2.1-12.6-2.1C384.8,240.2,385.3,239.5,385.8,238.8z"/>
	<circle class="st1" cx="396.4" cy="245.6" r="11.4"/>
	<circle class="st9" cx="396.4" cy="245.6" r="11.4"/>
	<path class="st14" d="M387.5,242.3c0.1,2.2,1.7,3.2,3.7,2.3c2-1.1,3.3-3.2,3.3-5.5c-0.1-2.2-1.7-3.2-3.7-2.3
		C388.8,237.9,387.5,240,387.5,242.3z"/>
	<path class="st14" d="M398.4,240.9c0.3,0.8,1.1,1.2,1.9,0.9s1.2-1.1,0.9-1.9c-0.3-0.8-1.1-1.2-1.9-0.9l0,0
		C398.5,239.2,398.1,240.1,398.4,240.9z"/>
	<path class="st14" d="M401.1,253c0.2,0.7,1,1,1.6,0.8l0,0c0.6-0.3,0.9-1,0.6-1.7c-0.3-0.6-0.9-0.9-1.5-0.7S400.9,252.3,401.1,253
		L401.1,253z"/>
	<path class="st15" d="M395.4,249.3c3.5,1,7.2,1.7,10.8,2c-0.4,0.6-0.8,1.2-1.3,1.8c-3-0.5-6.4-1.3-10-2.3s-6.8-2-9.7-3.1
		c-0.2-0.7-0.2-1.5-0.2-2.2C388.4,247.1,391.8,248.4,395.4,249.3z"/>
	<path class="st1" d="M382.1,241.7c-0.4,1.5,5.7,4.4,13.6,6.6s14.6,2.7,15,1.2l8.3,2.3c-0.6,2.3-11.3,1.4-23.8-2
		s-22.1-8.1-21.5-10.4L382.1,241.7z"/>
	<path class="st1" d="M223.3,283l-10.9,18l17.3-4.9l17.3-4.8l-21.1-9C225,281.9,223.9,282.1,223.3,283z"/>
	<path class="st16" d="M223.3,283l-10.9,18l17.3-4.9l17.3-4.8l-21.1-9C225,281.9,223.9,282.1,223.3,283z"/>
	<path class="st1" d="M255,314.5l-33,9.2c-0.8,0.2-1.7-0.3-2-1.1l-7.9-20.7c-0.3-0.7,0-1.5,0.7-1.8c0.1,0,0.1-0.1,0.2-0.1l33-9.2
		c0.8-0.2,1.7,0.3,2,1.1l7.9,20.7c0.3,0.7,0,1.5-0.7,1.8C255.1,314.4,255.1,314.4,255,314.5z"/>
	<path class="st5" d="M255,314.5l-33,9.2c-0.8,0.2-1.7-0.3-2-1.1l-7.9-20.7c-0.3-0.7,0-1.5,0.7-1.8c0.1,0,0.1-0.1,0.2-0.1l33-9.2
		c0.8-0.2,1.7,0.3,2,1.1l7.9,20.7c0.3,0.7,0,1.5-0.7,1.8C255.1,314.4,255.1,314.4,255,314.5z"/>
	<path class="st17" d="M234.7,310.5l-19.9-9.6c-0.4-0.1-0.6-0.6-0.4-0.9c0.1-0.2,0.2-0.4,0.4-0.4l14.7-4.1l14.7-4.1
		c0.4-0.1,0.9,0.2,1,0.6c0,0.2,0,0.3,0,0.5l-9.5,17.9C235.5,310.6,235,310.7,234.7,310.5z"/>
	<path class="st18" d="M235.2,305.9c-1.2-0.6-2.7-0.2-3.4,1l-9.7,16.8l33-9.2L235.2,305.9z"/>
	<path class="st1" d="M234.2,305.7l-12.2,18l16.5-4.6l16.5-4.6l-18.3-9.5C235.8,304.6,234.7,304.9,234.2,305.7z"/>
	<path class="st19" d="M236.7,305c-0.9-0.4-2-0.1-2.5,0.7l-12.2,18l33-9.2L236.7,305z"/>
</g>
<g id="freepik--Character--inject-31">
	<path class="st18" d="M272.2,174.1c3.3-3.6,8.3,4.8,8.3,4.8s3.3,1.2,0.2,3.8C271.2,178.4,272.2,174.1,272.2,174.1z"/>
	<path d="M301.5,292.9c-7.6-12.9,48-24.2,48.6-35.2c-8.5-16.6-23.1-36-23.1-36L278.7,243C278.7,242.9,287.4,286.7,301.5,292.9z"/>
	<path class="st18" d="M315.3,272.8l15.2-24.1c0,0,51,37.3,55,45.4s5.5,73.4,5.5,73.4l-9.6-0.2c0,0-12.2-33-12.9-62.6
		C339.3,292,315.3,272.8,315.3,272.8z"/>
	<path d="M338.6,279.4c-0.4,3.6,0.2,7.3,1.8,10.6c-3.7-2.2-7-4.4-10.1-6.4l-0.5-0.9L338.6,279.4z"/>
	<path class="st18" d="M400.6,380.6c0,0-11.1-8.3-11.4-13.9l-8,0.5l-1.6,8.6l4.3,1.5l0.9-1l0.9,1.6c3.5,1.2,12.7,4.3,15.1,4.3
		C400.9,381.8,400.9,381.1,400.6,380.6z"/>
	<polygon class="st1" points="391.5,369.7 380.3,369.1 379.5,364.2 392.1,364.1 	"/>
	<path class="st18" d="M302.2,271.5l26.6-10.3c0,0,18.5,60.4,17,69.3s-39.5,62.2-39.5,62.2l-7.6-5.9c0,0,9.9-33.8,27-57.9
		C310,301.2,302.2,271.5,302.2,271.5z"/>
	<path class="st18" d="M306.2,408.9c0,0-4-13.3-0.9-18l-6.7-4.3l-6.5,5.9l2.5,3.8l1.3-0.3l-0.3,1.8c2,3,7.6,11,9.5,12.5
		C305.7,410,306.1,409.5,306.2,408.9z"/>
	<polygon class="st1" points="305.4,394.7 296.8,387.5 299.1,383 309.2,390.5 	"/>
	<path class="st18" d="M310.6,198.5c2.3,1.4,4.8,3,7.2,4.5s4.9,2.9,7.3,4.3s4.9,2.6,7.3,3.8c2.2,1.1,4.5,1.9,6.8,2.6l-2.5,0.1
		c0.5,0,1-0.2,1.4-0.4c0.8-0.4,1.6-0.8,2.3-1.2c1.6-1,3.4-2.2,5.1-3.5s3.4-2.7,5.1-4.1l5.2-4.2l0.1-0.1c1.6-1.3,3.9-1.1,5.2,0.5
		c1,1.2,1.1,2.8,0.4,4.2c-1.2,2.1-2.5,4.1-3.9,6s-2.9,3.8-4.5,5.7s-3.4,3.7-5.3,5.4c-1.1,0.9-2.2,1.8-3.4,2.5
		c-1.5,1-3.1,1.7-4.9,2.2c-0.7,0.2-1.3,0.2-2,0.1l-0.5-0.1c-3.4-0.5-6.8-1.4-10.1-2.7c-1.5-0.6-3-1.2-4.5-1.8s-2.9-1.3-4.3-2
		c-2.8-1.4-5.5-2.9-8.1-4.4s-5.2-3.2-7.8-5c-3.3-2.4-4-7-1.6-10.2c2.2-3.1,6.4-3.9,9.7-2L310.6,198.5z"/>
	<path class="st20" d="M360.1,204c3.6,0.3,6.5-5.8,6.5-5.8l2.4-3.4c0.8-1.2,0.7-2.7-0.3-3.7l-2.5-2.5c-1.1-1.1-3-1.1-4.1,0l0,0
		l-2.8,3c-0.5,0.5-0.9,1.2-1.1,1.9l-1,2.9c-0.8,2.4-0.2,5.1,1.7,6.9l0.2,0.2C359.3,203.8,359.7,204,360.1,204z"/>
	<path class="st21" d="M353.5,201.4c0,0,0.9-2,1.6-3.4c2.3-0.4,7.9,4.3,8.6,6.3c-0.5,1.1-3.2,3.2-3.2,3.2
		C358.7,205.6,354.8,202.7,353.5,201.4z"/>
	<path class="st2" d="M271.5,217c8.1-6.2,20.7-13.4,30-16.8c4.7-1.7,10-0.2,13.2,3.8c9.1,11.7,16.6,28.7,28.4,51.7
		c-15.4,17.7-39.5,22.8-39.5,22.8c-3.3-4.1-6.4-13.8-9.9-22.2c-6.3-7.2-15.1-14.6-23.6-24.1c-3.8-4.1-3.6-10.6,0.5-14.4
		C270.9,217.5,271.2,217.2,271.5,217z"/>
	<path class="st22" d="M329.8,262.3c-0.2,0-0.4-0.1-0.5-0.3c-8.2-20.7-30.7-45.2-35.3-48.4c-0.2-0.2-0.2-0.5,0-0.7s0.4-0.2,0.6-0.1
		c4.6,3.2,27.4,28,35.7,48.9c0.1,0.3,0,0.5-0.3,0.6C330,262.3,329.9,262.3,329.8,262.3z"/>
	<path class="st18" d="M278,212.4c17.1,8.9,9.4,62.2,36.2,85.6c-15.8-0.1-26.8-11.4-26.8-11.4s-10-43.4-20-56
		C261.4,223,269.9,216.5,278,212.4z"/>
	<path class="st18" d="M293.9,203.7c8.8,3.4,57,46.6,58.1,71c4.8-17.4-3.3-32-3.3-32s-16.3-18.2-23.4-27.9s-15.5-19-22.1-16.9
		C294.8,200.5,293.9,203.7,293.9,203.7z"/>
	<path class="st20" d="M270.4,195.2l14.7,2.4c0.7,4.2,2.4,8,8.8,6.1c2.5,1.1,1.3,4.6-0.5,7c-4,1.7-10.1,3.6-14.2,1.7
		C278.5,209.5,274.3,199.7,270.4,195.2z"/>
	<path class="st1" d="M294.6,207.2c0.3,1.4,0.2,2.9-0.3,4.3c-1.5,0.9-4.8,0.4-4.8,0.4s-0.5-2.9,0.4-4.1
		C293.5,206.8,294.6,207.2,294.6,207.2z"/>
	<path class="st1" d="M291.8,211.4c0.2-0.8,0.7-1.5,1.3-2.1c8.2,7.5,27.9,12.1,32.6,15.7c2.3,1.6,6.3,5.6,6.3,10.7
		c-4.4-3.7-10-2.4-12.6-4.5C312.2,224.2,295.9,218.9,291.8,211.4z"/>
	<path class="st13" d="M276.5,196.2l8.6,1.4c0.1,1,0.4,1.9,0.7,2.9c-2.2,1.5-6.6,1-8-1C277.2,198.5,276.8,197.4,276.5,196.2z"/>
	<path class="st20" d="M264.8,193.6c5.6,4.7,8.7,7.7,13.9,7.5c7.9-0.2,11.5-9.2,7.4-15.4c-3.7-5.6-12.3-12.3-19.3-9.1
		c-5,2.4-7.2,8.4-4.8,13.4C262.7,191.5,263.7,192.7,264.8,193.6z"/>
	<path class="st18" d="M267.5,195.9c3.4-3,1.5-5.9-0.3-5.5c1.6-2.2-1.7-5.9-4.4-5.3c4.2-3,12.5-6.5,11.1-12.6
		c-1.3-5.7-11.9-5.3-11.6,1.9c1.8-0.6,2.2,2.1-3,4.4c-8.4,3.6-7.6,9.8-3.2,10.2C252.9,190.9,259.7,197.6,267.5,195.9z"/>
	<path class="st18" d="M271.9,178.5c3.1-4.4,2.8-8,2.4-9.9C276.6,172.5,275.1,177.1,271.9,178.5z"/>
	<path class="st18" d="M250.9,188.2c5.3,1.1,8.4-0.7,10.1-1.9C258.4,190,253.6,190.5,250.9,188.2z"/>
	<path class="st20" d="M266.1,198.6c1.4,0.9,3.1,1.2,4.8,0.9c2.2-0.5,2.2-2.7,0.8-4.2c-1.3-1.4-4-2.8-5.8-1.5
		c-1.3,0.9-1.5,2.7-0.6,4C265.4,198.2,265.7,198.4,266.1,198.6z"/>
	<path class="st18" d="M272.5,187c0.4,0.4,1,0.5,1.3,0.2s0.1-0.9-0.3-1.3s-1-0.5-1.3-0.2S272.1,186.6,272.5,187z"/>
	<path class="st18" d="M277.7,182.1c0.4,0.4,1,0.5,1.3,0.2s0.1-0.9-0.3-1.3s-1-0.5-1.3-0.2S277.3,181.7,277.7,182.1z"/>
	<path class="st23" d="M277.2,183.7c1.8,0.7,3.7,1.2,5.6,1.4c-0.1,1-0.7,1.9-1.5,2.5L277.2,183.7z"/>
	<path class="st18" d="M270.1,186.9L270,187c-0.2,0.1-0.4,0-0.4-0.2l0,0c-0.4-1.1-0.3-2.2,0.3-3.2c0.1-0.2,0.3-0.2,0.5-0.1
		c0.2,0.1,0.2,0.3,0.1,0.5l0,0c-0.5,0.8-0.6,1.7-0.2,2.5C270.2,186.6,270.2,186.8,270.1,186.9z"/>
	<path class="st18" d="M278.6,178.2c-0.1,0.1-0.2,0.2-0.3,0.2c-0.9,0.1-1.7,0.5-2.2,1.3c-0.1,0.2-0.3,0.2-0.5,0.1
		c-0.2-0.1-0.2-0.3-0.1-0.5c0.6-1,1.6-1.6,2.7-1.7c0.2,0,0.4,0.1,0.4,0.3C278.7,178.1,278.7,178.2,278.6,178.2L278.6,178.2z"/>
	<path class="st22" d="M279,211.8l-0.2-0.6c-0.5,0-2.2,1.6-1.4,2.5c2.9,2.9,10.4,2.7,13.4,1.8c-1-0.9-1.4-5.8-1-7.5
		C287.5,209.5,284.4,210.7,279,211.8z"/>
	<path class="st22" d="M290,207.9c3-0.4,6,0.5,8.4,2.4c0.8-1.3-0.3-3.8-0.8-4.5c-1.5-2.6-3.1-3.9-5.9-1.5
		C291.6,205.2,292.5,206.2,290,207.9z"/>
	<path class="st18" d="M279.2,228.8l-4.2,5.8c-1.4,2-2.7,3.9-4,5.9s-2.5,3.9-3.6,5.8c-0.5,1-1,1.9-1.5,2.8c-0.4,0.8-0.7,1.6-1,2.4
		c-0.4,1.6-0.5,3.3-0.3,5c0.2,2.2,0.6,4.3,1.2,6.5c1.2,4.6,2.7,9.1,4.3,13.5l0.1,0.2c0.7,1.9-0.3,4-2.2,4.7c-1.4,0.5-3,0.1-4-1.1
		c-1.7-2.1-3.3-4.2-4.7-6.5c-1.4-2.3-2.7-4.6-3.9-7.1c-1.2-2.6-2.2-5.2-2.9-8c-0.9-3.2-1.1-6.6-0.6-9.9c0.3-1.6,0.7-3.2,1.3-4.8
		c0.5-1.4,1.1-2.8,1.7-4c1.1-2.5,2.4-4.9,3.8-7.2s2.8-4.5,4.3-6.6s3-4.2,4.7-6.3c2.6-3.1,7.2-3.5,10.3-0.9
		C280.9,221.4,281.4,225.7,279.2,228.8L279.2,228.8z"/>
	<path class="st20" d="M263.4,278.5c0.2-0.3,0.5-0.6,0.9-0.7l3.2-1.2c0.6-0.2,1.3-0.1,1.8,0.4l2.1,2c2,2,3.6,4.4,4.7,7l0.4,0.9
		c0.6,1.5-0.2,3.2-1.7,3.8l0,0l-3.3,1.2c-1.3,0.5-2.8-0.1-3.5-1.3l-2-3.6C265.8,286.9,261.6,281.7,263.4,278.5z"/>
	<path class="st21" d="M269.5,275.4c1.1,0.8,2,1.8,2.8,2.9c-0.9,2.1-7.9,4.1-10,3.7c-0.6-1-0.9-4.5-0.9-4.5
		C264,277.2,267.7,275.8,269.5,275.4z"/>
	<path class="st18" d="M280.7,190.9c0.3-0.2,0.6-0.5,0.8-0.8c0.1-0.1,0.1-0.2,0-0.3l0,0c-0.1-0.1-0.2-0.1-0.3,0
		c-1.1,1.3-2.8,2.1-4.5,2.1c-0.1,0-0.2,0.1-0.2,0.2l0,0c0,0.1,0.1,0.2,0.2,0.2C278.1,192.4,279.5,191.9,280.7,190.9z"/>
	<path class="st1" d="M365.8,185.1l46.7-17.5c0.7-0.2,1-0.9,0.8-1.6c0-0.1-0.1-0.2-0.1-0.3l-15.3-26c-0.5-0.7-1.4-1.1-2.2-0.8
		L349,156.4c-0.7,0.2-1,0.9-0.8,1.6c0,0.1,0.1,0.2,0.1,0.3l15.3,26C364,185,365,185.3,365.8,185.1z"/>
	<path class="st1" d="M363.4,221l46.7-17.5c0.9-0.4,1.5-1.3,1.6-2.2l2.8-32.8c0.1-0.9-0.5-1.4-1.3-1.1l-46.7,17.5
		c-0.9,0.4-1.5,1.2-1.6,2.2l-2.8,32.8C362,220.8,362.6,221.3,363.4,221z"/>
	<path class="st13" d="M366.6,188.1c0.1-1,0.7-1.8,1.6-2.2l44.7-16.8c0.6-0.2,1.2,0.1,1.4,0.7c0.1,0.2,0.1,0.3,0.1,0.5l-2.6,31
		c-0.1,1-0.7,1.8-1.6,2.2l-44.7,16.8c-0.6,0.2-1.2-0.1-1.4-0.6c-0.1-0.2-0.1-0.3-0.1-0.5L366.6,188.1z"/>
</g>
<g id="freepik--coins-2--inject-47">
	<path class="st24" d="M238.4,396.7v4.3c0,0.4-0.3,0.7-0.7,0.7h-19.4c-0.4,0-0.7-0.3-0.7-0.7v-4.3c0-0.1,0-0.2,0-0.2
		c0.1-0.3,0.4-0.5,0.7-0.5h19.4c0.3,0,0.6,0.2,0.7,0.5C238.3,396.6,238.4,396.6,238.4,396.7z"/>
	<path class="st25" d="M237.2,400.9v-4c0-0.1-0.1-0.3-0.3-0.3s-0.3,0.1-0.3,0.3v4h-1.1v-4c0-0.1-0.1-0.3-0.3-0.3s-0.3,0.1-0.3,0.3v4
		h-1.1v-4c0-0.1-0.1-0.3-0.3-0.3s-0.3,0.1-0.3,0.3v4h-1.1v-4c0-0.1-0.1-0.3-0.3-0.3s-0.3,0.1-0.3,0.3v4h-1.1v-4
		c0-0.1-0.1-0.2-0.3-0.3c-0.1,0-0.3,0.1-0.3,0.3v4H229v-4c0-0.1-0.1-0.3-0.3-0.3c-0.1,0-0.2,0.1-0.3,0.3v4h-1.1v-4
		c0-0.1-0.1-0.3-0.3-0.3s-0.3,0.1-0.3,0.3v4h-1.1v-4c0-0.1-0.1-0.3-0.3-0.3s-0.3,0.1-0.3,0.3v4h-1.1v-4c0-0.1-0.1-0.3-0.3-0.3
		s-0.3,0.1-0.3,0.3v4h-1.2v-4c0-0.1-0.1-0.2-0.3-0.3c-0.1,0-0.3,0.1-0.3,0.3v3.8c-0.1-0.1-0.2-0.3-0.2-0.5l-0.1-2.7
		c0-0.4-0.3-0.7-0.7-0.8l0,0h-2.7c-0.4,0-0.8,0.3-0.8,0.8v3.6c0,0.4,0.3,0.7,0.7,0.7l0,0h19.4c0.4,0,0.8-0.3,0.8-0.8v-0.1H237.2z"/>
	<path class="st5" d="M238.3,396.5h-20.8c0.1-0.3,0.4-0.5,0.7-0.5h19.4C237.9,396,238.2,396.2,238.3,396.5z"/>
	<path class="st24" d="M238.3,390.9v4.3c0,0.4-0.3,0.7-0.7,0.7h-19.4c-0.4,0-0.7-0.3-0.7-0.7v-4.3c0-0.1,0-0.2,0-0.2
		c0.1-0.3,0.4-0.5,0.7-0.5h19.4c0.3,0,0.6,0.2,0.7,0.5C238.3,390.7,238.3,390.8,238.3,390.9z"/>
	<path class="st25" d="M237.1,395.1v-4c0-0.1-0.1-0.3-0.3-0.3s-0.3,0.1-0.3,0.3v4h-1.1v-4c0-0.1-0.1-0.2-0.3-0.3
		c-0.1,0-0.3,0.1-0.3,0.3v4h-1.1v-4c0-0.1-0.1-0.3-0.3-0.3c-0.1,0-0.2,0.1-0.3,0.3v4H232v-4c0-0.1-0.1-0.3-0.3-0.3s-0.3,0.1-0.3,0.3
		v4h-1.1v-4c0-0.1-0.1-0.3-0.3-0.3s-0.3,0.1-0.3,0.3v4H229v-4c0-0.1-0.1-0.3-0.3-0.3s-0.3,0.1-0.3,0.3v4h-1.1v-4
		c0-0.1-0.1-0.2-0.3-0.3c-0.1,0-0.3,0.1-0.3,0.3v4h-1.1v-4c0-0.1-0.1-0.3-0.3-0.3c-0.1,0-0.2,0.1-0.3,0.3v4h-1.1v-4
		c0-0.1-0.1-0.3-0.3-0.3s-0.3,0.1-0.3,0.3v4h-1.1v-4c0-0.1-0.1-0.3-0.3-0.3s-0.3,0.1-0.3,0.3v3.7c-0.1-0.1-0.2-0.3-0.2-0.5l-0.1-2.7
		c0-0.4-0.3-0.7-0.7-0.8l0,0h-2.7c-0.4,0-0.8,0.3-0.8,0.8v3.6c0,0.4,0.3,0.7,0.7,0.7l0,0h19.4c0.4,0,0.8-0.3,0.8-0.8V395
		L237.1,395.1L237.1,395.1z"/>
	<path class="st5" d="M238.3,390.7h-20.8c0.1-0.3,0.4-0.5,0.7-0.5h19.4C237.9,390.1,238.2,390.4,238.3,390.7z"/>
	<path class="st24" d="M238.3,385.1v4.3c0,0.4-0.3,0.7-0.7,0.7h-19.4c-0.4,0-0.7-0.3-0.7-0.7v-4.3c0-0.1,0-0.2,0-0.2
		c0.1-0.3,0.4-0.5,0.7-0.5h19.4c0.3,0,0.6,0.2,0.7,0.5C238.2,384.9,238.2,385,238.3,385.1z"/>
	<path class="st25" d="M237.1,389.3v-4c0-0.1-0.1-0.3-0.3-0.3s-0.3,0.1-0.3,0.3v4h-1.1v-4c0-0.1-0.1-0.3-0.3-0.3s-0.3,0.1-0.3,0.3v4
		h-1.1v-4c0-0.1-0.1-0.3-0.3-0.3s-0.3,0.1-0.3,0.3v4H232v-4c0-0.1-0.1-0.2-0.3-0.3c-0.1,0-0.3,0.1-0.3,0.3v4h-1.1v-4
		c0-0.1-0.1-0.3-0.3-0.3c-0.1,0-0.2,0.1-0.3,0.3v4h-1.1v-4c0-0.1-0.1-0.3-0.3-0.3s-0.3,0.1-0.3,0.3v4h-1.1v-4c0-0.1-0.1-0.3-0.3-0.3
		s-0.3,0.1-0.3,0.3v4h-1.1v-4c0-0.1-0.1-0.3-0.3-0.3s-0.3,0.1-0.3,0.3v4h-1.1v-4c0-0.1-0.1-0.3-0.3-0.3s-0.3,0.1-0.3,0.3v4h-1.1v-4
		c0-0.1-0.1-0.2-0.3-0.3c-0.1,0-0.3,0.1-0.3,0.3v3.7c-0.1-0.1-0.2-0.3-0.2-0.5l-0.1-2.7c0-0.4-0.3-0.7-0.7-0.8l0,0h-2.7
		c-0.4,0-0.8,0.3-0.8,0.8v3.6c0,0.4,0.3,0.7,0.7,0.7l0,0h19.4c0.4,0,0.7-0.3,0.8-0.8v-0.1L237.1,389.3L237.1,389.3z"/>
	<path class="st5" d="M238.2,384.8h-20.8c0.1-0.3,0.4-0.5,0.7-0.5h19.4C237.8,384.3,238.1,384.5,238.2,384.8z"/>
	<path class="st24" d="M238.2,379.2v4.3c0,0.4-0.3,0.7-0.7,0.7h-19.4c-0.4,0-0.7-0.3-0.7-0.7v-4.3c0-0.1,0-0.2,0-0.2
		c0.1-0.3,0.4-0.5,0.7-0.5h19.4c0.3,0,0.6,0.2,0.7,0.5C238.2,379.1,238.2,379.2,238.2,379.2z"/>
	<path class="st25" d="M237,383.5v-4c0-0.1-0.1-0.2-0.3-0.3c-0.1,0-0.3,0.1-0.3,0.3v4h-1.1v-4c0-0.1-0.1-0.3-0.3-0.3
		c-0.1,0-0.2,0.1-0.3,0.3v4h-1.1v-4c0-0.1-0.1-0.3-0.3-0.3s-0.3,0.1-0.3,0.3v4h-1.1v-4c0-0.1-0.1-0.3-0.3-0.3s-0.3,0.1-0.3,0.3v4
		h-1.1v-4c0-0.1-0.1-0.3-0.3-0.3s-0.3,0.1-0.3,0.3v4h-1.1v-4c0-0.1-0.1-0.3-0.3-0.3s-0.3,0.1-0.3,0.3v4h-1.1v-4
		c0-0.1-0.1-0.2-0.3-0.3c-0.1,0-0.3,0.1-0.3,0.3v4h-1.1v-4c0-0.1-0.1-0.3-0.3-0.3c-0.1,0-0.2,0.1-0.3,0.3v4h-1.1v-4
		c0-0.1-0.1-0.3-0.3-0.3s-0.3,0.1-0.3,0.3v4h-1.1v-4c0-0.1-0.1-0.3-0.3-0.3s-0.3,0.1-0.3,0.3v3.7c-0.1-0.1-0.2-0.3-0.2-0.5l-0.1-2.7
		c0-0.4-0.3-0.7-0.7-0.8l0,0h-2.7c-0.4,0-0.7,0.3-0.8,0.8v3.6c0,0.4,0.3,0.7,0.7,0.7l0,0h19.4c0.4,0,0.8-0.3,0.8-0.8v-0.1L237,383.5
		L237,383.5z"/>
	<path class="st5" d="M238.2,379h-20.8c0.1-0.3,0.4-0.5,0.7-0.5h19.4C237.8,378.5,238.1,378.7,238.2,379z"/>
	<path class="st24" d="M237.1,373.4v4.3c0,0.4-0.3,0.7-0.7,0.7H217c-0.4,0-0.7-0.3-0.7-0.7v-4.3c0-0.1,0-0.2,0-0.2
		c0.1-0.3,0.4-0.5,0.7-0.5h19.4c0.3,0,0.6,0.2,0.7,0.5C237.1,373.3,237.1,373.3,237.1,373.4z"/>
	<path class="st25" d="M236,377.6v-3.9c0-0.1-0.1-0.3-0.3-0.3s-0.3,0.1-0.3,0.3v4h-1.1v-4c0-0.1-0.1-0.3-0.3-0.3s-0.3,0.1-0.3,0.3v4
		h-1.1v-4c0-0.1-0.1-0.2-0.3-0.3c-0.1,0-0.3,0.1-0.3,0.3v4h-1v-4c0-0.1-0.1-0.3-0.3-0.3c-0.1,0-0.2,0.1-0.3,0.3v4h-1.1v-4
		c0-0.1-0.1-0.3-0.3-0.3s-0.3,0.1-0.3,0.3v4h-1.1v-4c0-0.1-0.1-0.3-0.3-0.3s-0.3,0.1-0.3,0.3v4h-1.1v-4c0-0.1-0.1-0.3-0.3-0.3
		s-0.3,0.1-0.3,0.3v4h-1.1v-4c0-0.1-0.1-0.3-0.3-0.3s-0.3,0.1-0.3,0.3v4h-1.1v-4c0-0.1-0.1-0.2-0.3-0.3c-0.1,0-0.3,0.1-0.3,0.3v4
		h-1.1v-4c0-0.1-0.1-0.3-0.3-0.3c-0.1,0-0.2,0.1-0.3,0.3v3.7c-0.1-0.1-0.2-0.3-0.2-0.5l-0.1-2.7c0-0.4-0.3-0.7-0.7-0.8l0,0H217
		c-0.4,0-0.8,0.3-0.8,0.8v3.6c0,0.4,0.3,0.7,0.7,0.7l0,0h19.4c0.4,0,0.7-0.3,0.8-0.8v-0.1L236,377.6z"/>
	<path class="st5" d="M237.1,373.2h-20.8c0.1-0.3,0.4-0.5,0.7-0.5h19.4C236.7,372.7,237,372.9,237.1,373.2z"/>
	<path class="st24" d="M237.1,367.6v4.3c0,0.4-0.3,0.7-0.7,0.7H217c-0.4,0-0.7-0.3-0.7-0.7v-4.3c0-0.1,0-0.2,0-0.2
		c0.1-0.3,0.4-0.5,0.7-0.5h19.4c0.3,0,0.6,0.2,0.7,0.5C237.1,367.4,237.1,367.5,237.1,367.6z"/>
	<path class="st25" d="M235.9,371.8v-4c0-0.1-0.1-0.3-0.3-0.3c-0.1,0-0.2,0.1-0.3,0.3v4h-1.1v-4c0-0.1-0.1-0.3-0.3-0.3
		s-0.3,0.1-0.3,0.3v4h-1.1v-4c0-0.1-0.1-0.3-0.3-0.3s-0.3,0.1-0.3,0.3v4H231v-4c0-0.1-0.1-0.3-0.3-0.3s-0.3,0.1-0.3,0.3v4h-1.1v-4
		c0-0.1-0.1-0.3-0.3-0.3s-0.3,0.1-0.3,0.3v4h-1.1v-4c0-0.1-0.1-0.2-0.3-0.3c-0.1,0-0.3,0.1-0.3,0.3v4h-1.1v-4c0-0.1-0.1-0.3-0.3-0.3
		c-0.1,0-0.2,0.1-0.3,0.3v4h-1.1v-4c0-0.1-0.1-0.3-0.3-0.3s-0.3,0.1-0.3,0.3v4h-1.1v-4c0-0.1-0.1-0.3-0.3-0.3s-0.3,0.1-0.3,0.3v4
		h-1.1v-4c0-0.1-0.1-0.3-0.3-0.3s-0.3,0.1-0.3,0.3v3.7c-0.1-0.1-0.2-0.3-0.2-0.5l-0.1-2.7c0-0.4-0.3-0.7-0.7-0.8l0,0H217
		c-0.4,0-0.7,0.3-0.8,0.8v3.6c0,0.4,0.3,0.7,0.7,0.7l0,0h19.4c0.4,0,0.8-0.3,0.8-0.8v-0.1L235.9,371.8z"/>
	<path class="st5" d="M237.1,367.4h-20.8c0.1-0.3,0.4-0.5,0.7-0.5h19.4C236.7,366.9,237,367.1,237.1,367.4z"/>
	<path class="st24" d="M237,361.8v4.3c0,0.4-0.3,0.7-0.7,0.7h-19.4c-0.4,0-0.7-0.3-0.7-0.7v-4.3c0-0.1,0-0.2,0-0.2
		c0.1-0.3,0.4-0.5,0.7-0.5h19.4c0.3,0,0.6,0.2,0.7,0.5C237,361.6,237,361.7,237,361.8z"/>
	<path class="st25" d="M235.8,366v-4c0-0.1-0.1-0.3-0.3-0.3s-0.3,0.1-0.3,0.3v4h-1.1v-4c0-0.1-0.1-0.3-0.3-0.3s-0.3,0.1-0.3,0.3v4
		h-1.1v-4c0-0.1-0.1-0.2-0.3-0.3c-0.1,0-0.3,0.1-0.3,0.3v4h-1.1v-4c0-0.1-0.1-0.3-0.3-0.3c-0.1,0-0.2,0.1-0.3,0.3v4H229v-4
		c0-0.1-0.1-0.3-0.3-0.3s-0.3,0.1-0.3,0.3v4h-1.1v-4c0-0.1-0.1-0.3-0.3-0.3s-0.3,0.1-0.3,0.3v4h-1.1v-4c0-0.1-0.1-0.3-0.3-0.3
		s-0.3,0.1-0.3,0.3v4h-1.1v-4c0-0.1-0.1-0.2-0.3-0.3c-0.1,0-0.3,0.1-0.3,0.3v4h-1.1v-4c0-0.1-0.1-0.3-0.3-0.3
		c-0.1,0-0.2,0.1-0.3,0.3v4h-1.1v-4c0-0.1-0.1-0.3-0.3-0.3s-0.3,0.1-0.3,0.3v3.7c-0.1-0.1-0.2-0.3-0.2-0.5l-0.1-2.7
		c0-0.4-0.3-0.7-0.7-0.8l0,0h-2.7c-0.4,0-0.8,0.3-0.8,0.8v3.6c0,0.4,0.3,0.7,0.7,0.7l0,0h19.4c0.4,0,0.8-0.3,0.8-0.8v0H235.8z"/>
	<path class="st5" d="M237,361.6h-20.8c0.1-0.3,0.4-0.5,0.7-0.5h19.4C236.6,361,236.9,361.3,237,361.6z"/>
	<path class="st24" d="M238,356v4.3c0,0.4-0.3,0.7-0.7,0.7h-19.4c-0.4,0-0.7-0.3-0.7-0.7V356c0-0.1,0-0.2,0-0.2
		c0.1-0.3,0.4-0.5,0.7-0.5h19.4c0.3,0,0.6,0.2,0.7,0.5C238,355.8,238,355.9,238,356z"/>
	<path class="st25" d="M236.8,360.2v-4c0-0.1-0.1-0.3-0.3-0.3c-0.1,0-0.2,0.1-0.3,0.3v4h-1.1v-4c0-0.1-0.1-0.3-0.3-0.3
		s-0.3,0.1-0.3,0.3v4h-1.1v-4c0-0.1-0.1-0.3-0.3-0.3s-0.3,0.1-0.3,0.3v4h-1.1v-4c0-0.1-0.1-0.3-0.3-0.3s-0.3,0.1-0.3,0.3v4H230v-4
		c0-0.1-0.1-0.3-0.3-0.3s-0.3,0.1-0.3,0.3v4h-1.1v-4c0-0.1-0.1-0.2-0.3-0.3c-0.1,0-0.3,0.1-0.3,0.3v4H227v-4c0-0.1-0.1-0.3-0.3-0.3
		c-0.1,0-0.2,0.1-0.3,0.3v4h-1.1v-4c0-0.1-0.1-0.3-0.3-0.3s-0.3,0.1-0.3,0.3v4h-1.2v-4c0-0.1-0.1-0.3-0.3-0.3s-0.3,0.1-0.3,0.3v4
		h-1.1v-4c0-0.1-0.1-0.3-0.3-0.3s-0.3,0.1-0.3,0.3v3.7c-0.1-0.1-0.2-0.3-0.2-0.5l-0.1-2.7c0-0.4-0.3-0.7-0.7-0.8l0,0h-2.7
		c-0.4,0-0.8,0.3-0.8,0.8v3.6c0,0.4,0.3,0.7,0.7,0.7l0,0h19.4c0.4,0,0.8-0.3,0.8-0.8v-0.1L236.8,360.2L236.8,360.2z"/>
	<path class="st5" d="M238,355.7h-20.8c0.1-0.3,0.4-0.5,0.7-0.5h19.4C237.6,355.2,237.9,355.4,238,355.7z"/>
	<path class="st24" d="M237.9,350.1v4.3c0,0.4-0.3,0.7-0.7,0.7h-19.4c-0.4,0-0.7-0.3-0.7-0.7v-4.3c0-0.1,0-0.2,0-0.2
		c0.1-0.3,0.4-0.5,0.7-0.5h19.4c0.3,0,0.6,0.2,0.7,0.5C237.9,350,237.9,350.1,237.9,350.1z"/>
	<path class="st25" d="M236.7,354.4v-4c0-0.1-0.1-0.3-0.3-0.3s-0.3,0.1-0.3,0.3v4H235v-4c0-0.1-0.1-0.3-0.3-0.3s-0.3,0.1-0.3,0.3v4
		h-1.1v-4c0-0.1-0.1-0.2-0.3-0.3c-0.1,0-0.3,0.1-0.3,0.3v4h-1.1v-4c0-0.1-0.1-0.3-0.3-0.3c-0.1,0-0.2,0.1-0.3,0.3v4h-1.1v-4
		c0-0.1-0.1-0.3-0.3-0.3s-0.3,0.1-0.3,0.3v4h-1.1v-4c0-0.1-0.1-0.3-0.3-0.3s-0.3,0.1-0.3,0.3v4h-1.1v-4c0-0.1-0.1-0.3-0.3-0.3
		s-0.3,0.1-0.3,0.3v4h-1.1v-4c0-0.1-0.1-0.2-0.3-0.3c-0.1,0-0.3,0.1-0.3,0.3v4h-1.1v-4c0-0.1-0.1-0.3-0.3-0.3
		c-0.1,0-0.2,0.1-0.3,0.3v4h-1.1v-4c0-0.1-0.1-0.3-0.3-0.3s-0.3,0.1-0.3,0.3v3.7c-0.1-0.1-0.2-0.3-0.2-0.5l-0.1-2.7
		c0-0.4-0.3-0.7-0.7-0.8l0,0h-2.7c-0.4,0-0.8,0.3-0.8,0.8v3.6c0,0.4,0.3,0.7,0.7,0.7l0,0h19.4c0.4,0,0.8-0.3,0.8-0.8v-0.1
		L236.7,354.4L236.7,354.4z"/>
	<path class="st5" d="M237.9,349.9h-20.8c0.1-0.3,0.4-0.5,0.7-0.5h19.4C237.5,349.4,237.8,349.6,237.9,349.9z"/>
	<path class="st24" d="M237.9,344.3v4.4c0,0.4-0.3,0.7-0.7,0.7h-19.4c-0.4,0-0.7-0.3-0.7-0.7v-4.3c0-0.1,0-0.2,0-0.2
		c0.1-0.3,0.4-0.5,0.7-0.5h19.4c0.3,0,0.6,0.2,0.7,0.5C237.8,344.2,237.9,344.3,237.9,344.3z"/>
	<path class="st25" d="M236.7,348.5v-4c0-0.1-0.1-0.3-0.3-0.3c-0.1,0-0.2,0.1-0.3,0.3v4H235v-4c0-0.1-0.1-0.3-0.3-0.3
		s-0.3,0.1-0.3,0.3v4h-1.1v-4c0-0.1-0.1-0.3-0.3-0.3s-0.3,0.1-0.3,0.3v4h-1.1v-4c0-0.1-0.1-0.3-0.3-0.3s-0.3,0.1-0.3,0.3v4h-1.1v-4
		c0-0.1-0.1-0.2-0.3-0.3c-0.1,0-0.3,0.1-0.3,0.3v4h-1.1v-4c0-0.1-0.1-0.3-0.3-0.3c-0.1,0-0.2,0.1-0.3,0.3v4h-1.1v-4
		c0-0.1-0.1-0.3-0.3-0.3s-0.3,0.1-0.3,0.3v4h-1.1v-4c0-0.1-0.1-0.3-0.3-0.3s-0.3,0.1-0.3,0.3v4h-1.1v-4c0-0.1-0.1-0.3-0.3-0.3
		s-0.3,0.1-0.3,0.3v4H222v-4c0-0.1-0.1-0.3-0.3-0.3s-0.3,0.1-0.3,0.3v3.7c-0.1-0.1-0.2-0.3-0.2-0.5l-0.1-2.7c0-0.4-0.3-0.7-0.7-0.8
		l0,0h-2.7c-0.4,0-0.8,0.3-0.8,0.8v3.6c0,0.4,0.3,0.7,0.7,0.7l0,0H237c0.4,0,0.8-0.3,0.8-0.8v-0.1L236.7,348.5L236.7,348.5z"/>
	<path class="st5" d="M237.8,344.1H217c0.1-0.3,0.4-0.5,0.7-0.5h19.4C237.4,343.6,237.7,343.8,237.8,344.1z"/>
	<path class="st24" d="M238.8,338.5v4.3c0,0.4-0.3,0.7-0.7,0.7h-19.4c-0.4,0-0.7-0.3-0.7-0.7v-4.3c0-0.1,0-0.2,0-0.2
		c0.1-0.3,0.4-0.5,0.7-0.5H238c0.3,0,0.6,0.2,0.7,0.5C238.8,338.3,238.8,338.4,238.8,338.5z"/>
	<path class="st25" d="M237.6,342.7v-4c0-0.1-0.1-0.3-0.3-0.3s-0.3,0.1-0.3,0.3v4h-1v-4c0-0.1-0.1-0.3-0.3-0.3s-0.3,0.1-0.3,0.3v4
		h-1.1v-4c0-0.1-0.1-0.2-0.3-0.3c-0.1,0-0.3,0.1-0.3,0.3v4h-1.2v-4c0-0.1-0.1-0.3-0.3-0.3c-0.1,0-0.2,0.1-0.3,0.3v4h-1.1v-4
		c0-0.1-0.1-0.3-0.3-0.3s-0.3,0.1-0.3,0.3v4h-1.1v-4c0-0.1-0.1-0.3-0.3-0.3s-0.3,0.1-0.3,0.3v4h-1.1v-4c0-0.1-0.1-0.3-0.3-0.3
		s-0.3,0.1-0.3,0.3v4h-1.1v-4c0-0.1-0.1-0.2-0.3-0.3c-0.1,0-0.3,0.1-0.3,0.3v4H224v-4c0-0.1-0.1-0.3-0.3-0.3c-0.1,0-0.2,0.1-0.3,0.3
		v4h-1.1v-4c0-0.1-0.1-0.3-0.3-0.3s-0.3,0.1-0.3,0.3v3.7c-0.1-0.1-0.2-0.3-0.2-0.5l-0.1-2.7c0-0.4-0.3-0.7-0.7-0.8l0,0H218
		c-0.4,0-0.8,0.3-0.8,0.8v3.6c0,0.4,0.3,0.7,0.7,0.7l0,0H238c0.4,0,0.8-0.3,0.8-0.8v-0.1L237.6,342.7L237.6,342.7z"/>
	<path class="st5" d="M238.8,338.3H218c0.1-0.3,0.4-0.5,0.7-0.5h19.4C238.4,337.8,238.7,338,238.8,338.3z"/>
	<path class="st24" d="M238.8,332.7v4.3c0,0.4-0.3,0.7-0.7,0.7h-19.3c-0.4,0-0.7-0.3-0.7-0.7v-4.3c0-0.1,0-0.2,0-0.2
		c0.1-0.3,0.4-0.5,0.7-0.5H238c0.3,0,0.6,0.2,0.7,0.5C238.7,332.6,238.8,332.6,238.8,332.7z"/>
	<path class="st25" d="M237.6,336.9v-4c0-0.1-0.1-0.3-0.3-0.3c-0.1,0-0.2,0.1-0.3,0.3v4h-1.1v-4c0-0.1-0.1-0.3-0.3-0.3
		s-0.3,0.1-0.3,0.3v4h-1.1v-4c0-0.1-0.1-0.3-0.3-0.3s-0.3,0.1-0.3,0.3v4h-1.1v-4c0-0.1-0.1-0.3-0.3-0.3s-0.3,0.1-0.3,0.3v4h-1.1v-4
		c0-0.1-0.1-0.2-0.3-0.3c-0.1,0-0.3,0.1-0.3,0.3v4h-1.1v-4c0-0.1-0.1-0.3-0.3-0.3c-0.1,0-0.2,0.1-0.3,0.3v4h-1.1v-4
		c0-0.1-0.1-0.3-0.3-0.3s-0.3,0.1-0.3,0.3v4h-1.1v-4c0-0.1-0.1-0.3-0.3-0.3s-0.3,0.1-0.3,0.3v4H224v-4c0-0.1-0.1-0.3-0.3-0.3
		s-0.3,0.1-0.3,0.3v4h-1.1v-4c0-0.1-0.1-0.3-0.3-0.3s-0.3,0.1-0.3,0.3v3.8c-0.1-0.1-0.2-0.3-0.2-0.5l-0.1-2.7c0-0.4-0.3-0.7-0.7-0.8
		l0,0H218c-0.4,0-0.8,0.3-0.8,0.8v3.6c0,0.4,0.3,0.7,0.7,0.7l0,0h19.4c0.4,0,0.8-0.3,0.8-0.8v-0.1H237.6z"/>
	<path class="st5" d="M238.7,332.5H218c0.1-0.3,0.4-0.5,0.7-0.5H238C238.3,332,238.6,332.2,238.7,332.5z"/>
	<path class="st24" d="M236.7,326.9v4.3c0,0.4-0.3,0.7-0.7,0.7h-19.4c-0.4,0-0.7-0.3-0.7-0.7v-4.3c0-0.1,0-0.2,0-0.2
		c0.1-0.3,0.4-0.5,0.7-0.5H236c0.3,0,0.6,0.2,0.7,0.5C236.7,326.7,236.7,326.8,236.7,326.9z"/>
	<path class="st25" d="M235.5,331.1v-4c0-0.1-0.1-0.3-0.3-0.3s-0.3,0.1-0.3,0.3v4h-1.1v-4c0-0.1-0.1-0.2-0.3-0.3
		c-0.1,0-0.3,0.1-0.3,0.3v4h-1.1v-4c0-0.1-0.1-0.3-0.3-0.3c-0.1,0-0.2,0.1-0.3,0.3v4h-1.1v-4c0-0.1-0.1-0.3-0.3-0.3
		s-0.3,0.1-0.3,0.3v4H229v-4c0-0.1-0.1-0.3-0.3-0.3s-0.3,0.1-0.3,0.3v4h-1.1v-4c0-0.1-0.1-0.3-0.3-0.3s-0.3,0.1-0.3,0.3v4h-1.2v-4
		c0-0.1-0.1-0.2-0.3-0.3c-0.1,0-0.3,0.1-0.3,0.3v4H224v-4c0-0.1-0.1-0.3-0.3-0.3c-0.1,0-0.2,0.1-0.3,0.3v4h-1.1v-4
		c0-0.1-0.1-0.3-0.3-0.3s-0.3,0.1-0.3,0.3v4h-1.1v-4c0-0.1-0.1-0.3-0.3-0.3s-0.3,0.1-0.3,0.3v3.7c-0.1-0.1-0.2-0.3-0.2-0.5l-0.1-2.7
		c0-0.4-0.3-0.7-0.7-0.8l0,0h-2.7c-0.4,0-0.7,0.3-0.8,0.8v3.6c0,0.4,0.3,0.7,0.7,0.7l0,0h19.4c0.4,0,0.8-0.3,0.8-0.8V331
		L235.5,331.1L235.5,331.1z"/>
	<path class="st5" d="M236.7,326.6h-20.8c0.1-0.3,0.4-0.5,0.7-0.5H236C236.3,326.1,236.6,326.3,236.7,326.6z"/>
	<path class="st24" d="M238.7,321v4.3c0,0.4-0.3,0.7-0.7,0.7h-19.4c-0.4,0-0.7-0.3-0.7-0.7V321c0-0.1,0-0.2,0-0.2
		c0.1-0.3,0.4-0.5,0.7-0.5H238c0.3,0,0.6,0.2,0.7,0.5C238.6,320.9,238.7,321,238.7,321z"/>
	<path class="st25" d="M237.5,325.3v-4c0-0.1-0.1-0.3-0.3-0.3s-0.3,0.1-0.3,0.3v4h-1.1v-4c0-0.1-0.1-0.3-0.3-0.3s-0.3,0.1-0.3,0.3v4
		h-1.1v-4c0-0.1-0.1-0.3-0.3-0.3s-0.3,0.1-0.3,0.3v4h-1.1v-4c0-0.1-0.1-0.3-0.3-0.3s-0.3,0.1-0.3,0.3v4h-1.1v-4
		c0-0.1-0.1-0.2-0.3-0.3c-0.1,0-0.3,0.1-0.3,0.3v4H229v-4c0-0.1-0.1-0.3-0.3-0.3c-0.1,0-0.2,0.1-0.3,0.3v4h-1.1v-4
		c0-0.1-0.1-0.3-0.3-0.3s-0.3,0.1-0.3,0.3v4h-1.1v-4c0-0.1-0.1-0.3-0.3-0.3s-0.3,0.1-0.3,0.3v4h-1.1v-4c0-0.1-0.1-0.3-0.3-0.3
		s-0.3,0.1-0.3,0.3v4h-1.1v-4c0-0.1-0.1-0.2-0.3-0.3c-0.1,0-0.3,0.1-0.3,0.3v3.7c-0.1-0.1-0.2-0.3-0.2-0.5l-0.1-2.7
		c0-0.4-0.3-0.7-0.7-0.8l0,0h-2.7c-0.4,0-0.8,0.3-0.8,0.8v3.6c0,0.4,0.3,0.7,0.7,0.7l0,0h19.4c0.4,0,0.8-0.3,0.8-0.8v-0.1
		L237.5,325.3z"/>
	<path class="st5" d="M238.6,320.8h-20.8c0.1-0.3,0.4-0.5,0.7-0.5h19.4C238.2,320.3,238.5,320.5,238.6,320.8z"/>
	<path class="st24" d="M238.6,315.2v4.3c0,0.4-0.3,0.7-0.7,0.7h-19.4c-0.4,0-0.7-0.3-0.7-0.7v-4.3c0-0.1,0-0.2,0-0.2
		c0.1-0.3,0.4-0.5,0.7-0.5h19.4c0.3,0,0.6,0.2,0.7,0.5C238.6,315.1,238.6,315.1,238.6,315.2z"/>
	<path class="st25" d="M237.4,319.4v-4c0-0.1-0.1-0.3-0.3-0.3s-0.3,0.1-0.3,0.3v4h-1.1v-4c0-0.1-0.1-0.2-0.3-0.3
		c-0.1,0-0.3,0.1-0.3,0.3v4H234v-4c0-0.1-0.1-0.3-0.3-0.3c-0.1,0-0.2,0.1-0.3,0.3v4h-1.1v-4c0-0.1-0.1-0.3-0.3-0.3s-0.3,0.1-0.3,0.3
		v4h-1.1v-4c0-0.1-0.1-0.3-0.3-0.3s-0.3,0.1-0.3,0.3v4h-1.1v-4c0-0.1-0.1-0.3-0.3-0.3s-0.3,0.1-0.3,0.3v4h-1.1v-4
		c0-0.1-0.1-0.2-0.3-0.3c-0.1,0-0.3,0.1-0.3,0.3v4H226v-4c0-0.1-0.1-0.3-0.3-0.3c-0.1,0-0.2,0.1-0.3,0.3v4h-1.1v-4
		c0-0.1-0.1-0.3-0.3-0.3s-0.3,0.1-0.3,0.3v4h-1.1v-4c0-0.1-0.1-0.3-0.3-0.3s-0.3,0.1-0.3,0.3v3.7c-0.1-0.1-0.2-0.3-0.2-0.5l-0.1-2.7
		c0-0.4-0.3-0.7-0.7-0.8l0,0h-2.7c-0.4,0-0.8,0.3-0.8,0.8v3.6c0,0.4,0.3,0.7,0.7,0.7l0,0h19.4c0.4,0,0.8-0.3,0.8-0.8v-0.1
		L237.4,319.4z"/>
	<path class="st5" d="M238.6,315h-20.8c0.1-0.3,0.4-0.5,0.7-0.5h19.4C238.2,314.5,238.5,314.7,238.6,315z"/>
	<path class="st24" d="M237.5,309.4v4.3c0,0.4-0.3,0.7-0.7,0.7h-19.4c-0.4,0-0.7-0.3-0.7-0.7v-4.3c0-0.1,0-0.2,0-0.2
		c0.1-0.3,0.4-0.5,0.7-0.5h19.4c0.3,0,0.6,0.2,0.7,0.5C237.5,309.2,237.5,309.3,237.5,309.4z"/>
	<path class="st25" d="M236.3,313.6v-3.9c0-0.1-0.1-0.3-0.3-0.3s-0.3,0.1-0.3,0.3v4h-1.1v-4c0-0.1-0.1-0.3-0.3-0.3s-0.3,0.1-0.3,0.3
		v4h-1.1v-4c0-0.1-0.1-0.3-0.3-0.3s-0.3,0.1-0.3,0.3v4h-1.1v-4c0-0.1-0.1-0.2-0.3-0.3c-0.1,0-0.3,0.1-0.3,0.3v4h-1.1v-4
		c0-0.1-0.1-0.3-0.3-0.3c-0.1,0-0.2,0.1-0.3,0.3v4h-1.1v-4c0-0.1-0.1-0.3-0.3-0.3s-0.3,0.1-0.3,0.3v4h-1.1v-4c0-0.1-0.1-0.3-0.3-0.3
		s-0.3,0.1-0.3,0.3v4h-1.1v-4c0-0.1-0.1-0.3-0.3-0.3s-0.3,0.1-0.3,0.3v4h-1.1v-4c0-0.1-0.1-0.2-0.3-0.3c-0.1,0-0.3,0.1-0.3,0.3v4
		H221v-4c0-0.1-0.1-0.3-0.3-0.3c-0.1,0-0.2,0.1-0.3,0.3v3.7c-0.1-0.1-0.2-0.3-0.2-0.5l-0.1-2.7c0-0.4-0.3-0.7-0.7-0.8l0,0h-2.7
		c-0.4,0-0.8,0.3-0.8,0.8v3.6c0,0.4,0.3,0.7,0.7,0.7l0,0H236c0.4,0,0.8-0.3,0.8-0.8v-0.1L236.3,313.6z"/>
	<path class="st5" d="M237.5,309.2h-20.8c0.1-0.3,0.4-0.5,0.7-0.5h19.4C237.1,308.6,237.4,308.9,237.5,309.2z"/>
	<path class="st24" d="M237.5,303.6v4.3c0,0.4-0.3,0.7-0.7,0.7h-19.4c-0.4,0-0.7-0.3-0.7-0.7v-4.3c0-0.1,0-0.2,0-0.2
		c0.1-0.3,0.4-0.5,0.7-0.5h19.4c0.3,0,0.6,0.2,0.7,0.5C237.5,303.4,237.5,303.5,237.5,303.6z"/>
	<path class="st25" d="M236.3,307.8v-4c0-0.1-0.1-0.2-0.3-0.3c-0.1,0-0.3,0.1-0.3,0.3v4h-1.1v-4c0-0.1-0.1-0.3-0.3-0.3
		c-0.1,0-0.2,0.1-0.3,0.3v4h-1.1v-4c0-0.1-0.1-0.3-0.3-0.3s-0.3,0.1-0.3,0.3v4h-1.2v-4c0-0.1-0.1-0.3-0.3-0.3s-0.3,0.1-0.3,0.3v4
		h-1.1v-4c0-0.1-0.1-0.3-0.3-0.3s-0.3,0.1-0.3,0.3v4h-1.1v-4c0-0.1-0.1-0.2-0.3-0.3c-0.1,0-0.3,0.1-0.3,0.3v4H226v-4
		c0-0.1-0.1-0.3-0.3-0.3c-0.1,0-0.2,0.1-0.3,0.3v4h-1.1v-4c0-0.1-0.1-0.3-0.3-0.3s-0.3,0.1-0.3,0.3v4h-1.1v-4c0-0.1-0.1-0.3-0.3-0.3
		s-0.3,0.1-0.3,0.3v4h-1.1v-4c0-0.1-0.1-0.3-0.3-0.3s-0.3,0.1-0.3,0.3v3.7c-0.1-0.1-0.2-0.3-0.2-0.5l-0.1-2.7c0-0.4-0.3-0.7-0.7-0.8
		l0,0h-2.7c-0.4,0-0.7,0.3-0.8,0.8v3.6c0,0.4,0.3,0.7,0.7,0.7l0,0h19.4c0.4,0,0.8-0.3,0.8-0.8v-0.1L236.3,307.8L236.3,307.8z"/>
	<path class="st5" d="M237.5,303.4h-20.8c0.1-0.3,0.4-0.5,0.7-0.5h19.4C237.1,302.9,237.4,303.1,237.5,303.4z"/>
	<path class="st24" d="M236.4,297.8v4.3c0,0.4-0.3,0.7-0.7,0.7h-19.4c-0.4,0-0.7-0.3-0.7-0.7v-4.3c0-0.1,0-0.2,0-0.2
		c0.1-0.3,0.4-0.5,0.7-0.5h19.4c0.3,0,0.6,0.2,0.7,0.5C236.4,297.6,236.4,297.7,236.4,297.8z"/>
	<path class="st25" d="M235.2,302v-4c0-0.1-0.1-0.3-0.3-0.3s-0.3,0.1-0.3,0.3v4h-1.1v-4c0-0.1-0.1-0.3-0.3-0.3s-0.3,0.1-0.3,0.3v4
		H232v-4c0-0.1-0.1-0.2-0.3-0.3c-0.1,0-0.3,0.1-0.3,0.3v4h-1.1v-4c0-0.1-0.1-0.3-0.3-0.3c-0.1,0-0.2,0.1-0.3,0.3v4h-1.1v-4
		c0-0.1-0.1-0.3-0.3-0.3s-0.3,0.1-0.3,0.3v4h-1.1v-4c0-0.1-0.1-0.3-0.3-0.3s-0.3,0.1-0.3,0.3v4h-1.1v-4c0-0.1-0.1-0.3-0.3-0.3
		s-0.3,0.1-0.3,0.3v4h-1.1v-4c0-0.1-0.1-0.3-0.3-0.3s-0.3,0.1-0.3,0.3v4h-1.1v-4c0-0.1-0.1-0.2-0.3-0.3c-0.1,0-0.3,0.1-0.3,0.3v4
		h-1.1v-4c0-0.1-0.1-0.3-0.3-0.3c-0.1,0-0.2,0.1-0.3,0.3v3.7c-0.1-0.1-0.2-0.3-0.2-0.5l-0.1-2.7c0-0.4-0.3-0.7-0.7-0.8l0,0h-2.7
		c-0.4,0-0.8,0.3-0.8,0.8v3.6c0,0.4,0.3,0.7,0.7,0.7l0,0h19.4c0.4,0,0.8-0.3,0.8-0.8v-0.1L235.2,302z"/>
	<path class="st5" d="M236.4,297.5h-20.8c0.1-0.3,0.4-0.5,0.7-0.5h19.4C236,297,236.3,297.2,236.4,297.5z"/>
	<path class="st24" d="M264.1,396.7v4.3c0,0.4-0.3,0.7-0.7,0.7H244c-0.4,0-0.7-0.3-0.7-0.7v-4.3c0-0.1,0-0.2,0-0.2
		c0.1-0.3,0.4-0.5,0.7-0.5h19.4c0.3,0,0.6,0.2,0.7,0.5C264.1,396.6,264.1,396.6,264.1,396.7z"/>
	<path class="st25" d="M262.9,400.9v-4c0-0.1-0.1-0.3-0.3-0.3s-0.3,0.1-0.3,0.3v4h-1.1v-4c0-0.1-0.1-0.3-0.3-0.3s-0.3,0.1-0.3,0.3v4
		h-1.1v-4c0-0.1-0.1-0.3-0.3-0.3s-0.3,0.1-0.3,0.3v4H258v-4c0-0.1-0.1-0.3-0.3-0.3s-0.3,0.1-0.3,0.3v4h-1.1v-4
		c0-0.1-0.1-0.2-0.3-0.3c-0.1,0-0.2,0.1-0.2,0.3v4h-1.1v-4c0-0.1-0.1-0.3-0.3-0.3c-0.1,0-0.2,0.1-0.3,0.3v4H253v-4
		c0-0.1-0.1-0.3-0.3-0.3s-0.3,0.1-0.3,0.3v4h-1.1v-4c0-0.1-0.1-0.3-0.3-0.3s-0.3,0.1-0.3,0.3v4h-1.1v-4c0-0.1-0.1-0.3-0.3-0.3
		s-0.3,0.1-0.3,0.3v4h-1.2v-4c0-0.1-0.1-0.2-0.3-0.3c-0.1,0-0.3,0.1-0.3,0.3v3.8c-0.1-0.1-0.2-0.3-0.2-0.5l-0.1-2.7
		c0-0.4-0.3-0.7-0.7-0.8l0,0H244c-0.4,0-0.8,0.3-0.8,0.8v3.6c0,0.4,0.3,0.7,0.7,0.7l0,0h19.4c0.4,0,0.8-0.3,0.8-0.8v-0.1H262.9z"/>
	<path class="st5" d="M264.1,396.5h-20.8c0.1-0.3,0.4-0.5,0.7-0.5h19.4C263.7,396,264,396.2,264.1,396.5z"/>
	<path class="st24" d="M264,390.9v4.3c0,0.4-0.3,0.7-0.7,0.7h-19.4c-0.4,0-0.7-0.3-0.7-0.7v-4.3c0-0.1,0-0.2,0-0.2
		c0.1-0.3,0.4-0.5,0.7-0.5h19.4c0.3,0,0.6,0.2,0.7,0.5C264,390.7,264,390.8,264,390.9z"/>
	<path class="st25" d="M262.8,395.1v-4c0-0.1-0.1-0.3-0.3-0.3s-0.3,0.1-0.3,0.3v4h-1.1v-4c0-0.1-0.1-0.2-0.3-0.3
		c-0.1,0-0.3,0.1-0.3,0.3v4h-1.1v-4c0-0.1-0.1-0.3-0.3-0.3c-0.1,0-0.2,0.1-0.3,0.3v4h-1.1v-4c0-0.1-0.1-0.3-0.3-0.3
		s-0.3,0.1-0.3,0.3v4H256v-4c0-0.1-0.1-0.3-0.3-0.3c-0.1,0-0.2,0.1-0.2,0.3v4h-1.1v-4c0-0.1-0.1-0.3-0.3-0.3s-0.3,0.1-0.3,0.3v4
		h-1.1v-4c0-0.1-0.1-0.2-0.3-0.3c-0.1,0-0.3,0.1-0.3,0.3v4H251v-4c0-0.1-0.1-0.3-0.3-0.3c-0.1,0-0.2,0.1-0.3,0.3v4h-1.1v-4
		c0-0.1-0.1-0.3-0.3-0.3s-0.3,0.1-0.3,0.3v4h-1.1v-4c0-0.1-0.1-0.3-0.3-0.3s-0.3,0.1-0.3,0.3v3.7c-0.1-0.1-0.2-0.3-0.2-0.5l-0.1-2.7
		c0-0.4-0.3-0.7-0.7-0.8l0,0h-2.7c-0.4,0-0.8,0.3-0.8,0.8v3.6c0,0.4,0.3,0.7,0.7,0.7l0,0h19.4c0.4,0,0.8-0.3,0.8-0.8V395
		L262.8,395.1L262.8,395.1z"/>
	<path class="st5" d="M264,390.7h-20.8c0.1-0.3,0.4-0.5,0.7-0.5h19.4C263.6,390.1,263.9,390.4,264,390.7z"/>
	<path class="st24" d="M264,385.1v4.3c0,0.4-0.3,0.7-0.7,0.7h-19.4c-0.4,0-0.7-0.3-0.7-0.7v-4.3c0-0.1,0-0.2,0-0.2
		c0.1-0.3,0.4-0.5,0.7-0.5h19.4c0.3,0,0.6,0.2,0.7,0.5C263.9,384.9,264,385,264,385.1z"/>
	<path class="st25" d="M262.8,389.3v-4c0-0.1-0.1-0.3-0.3-0.3s-0.3,0.1-0.3,0.3v4h-1.1v-4c0-0.1-0.1-0.3-0.3-0.3s-0.3,0.1-0.3,0.3v4
		h-1.1v-4c0-0.1-0.1-0.3-0.3-0.3s-0.3,0.1-0.3,0.3v4h-1.1v-4c0-0.1-0.1-0.2-0.3-0.3c-0.1,0-0.3,0.1-0.3,0.3v4H256v-4
		c0-0.1-0.1-0.3-0.3-0.3c-0.1,0-0.2,0.1-0.2,0.3v4h-1.1v-4c0-0.1-0.1-0.3-0.3-0.3s-0.3,0.1-0.3,0.3v4H253v-4c0-0.1-0.1-0.3-0.3-0.3
		s-0.3,0.1-0.3,0.3v4h-1.1v-4c0-0.1-0.1-0.3-0.3-0.3s-0.3,0.1-0.3,0.3v4h-1.1v-4c0-0.1-0.1-0.3-0.3-0.3s-0.3,0.1-0.3,0.3v4h-1.1v-4
		c0-0.1-0.1-0.2-0.3-0.3c-0.1,0-0.3,0.1-0.3,0.3v3.7c-0.1-0.1-0.2-0.3-0.2-0.5l-0.1-2.7c0-0.4-0.3-0.7-0.7-0.8l0,0h-2.7
		c-0.4,0-0.8,0.3-0.8,0.8v3.6c0,0.4,0.3,0.7,0.7,0.7l0,0h19.4c0.4,0,0.7-0.3,0.8-0.8v-0.1L262.8,389.3L262.8,389.3z"/>
	<path class="st5" d="M263.9,384.8h-20.8c0.1-0.3,0.4-0.5,0.7-0.5h19.4C263.6,384.3,263.8,384.5,263.9,384.8z"/>
	<path class="st24" d="M263.9,379.2v4.3c0,0.4-0.3,0.7-0.7,0.7h-19.4c-0.4,0-0.7-0.3-0.7-0.7v-4.3c0-0.1,0-0.2,0-0.2
		c0.1-0.3,0.4-0.5,0.7-0.5h19.4c0.3,0,0.6,0.2,0.7,0.5C263.9,379.1,263.9,379.2,263.9,379.2z"/>
	<path class="st25" d="M262.7,383.5v-4c0-0.1-0.1-0.2-0.3-0.3c-0.1,0-0.3,0.1-0.3,0.3v4H261v-4c0-0.1-0.1-0.3-0.3-0.3
		c-0.1,0-0.2,0.1-0.3,0.3v4h-1.1v-4c0-0.1-0.1-0.3-0.3-0.3s-0.3,0.1-0.3,0.3v4h-1.1v-4c0-0.1-0.1-0.3-0.3-0.3s-0.3,0.1-0.3,0.3v4
		h-1.1v-4c0-0.1-0.1-0.3-0.2-0.3c-0.1,0-0.3,0.1-0.3,0.3v4h-1.1v-4c0-0.1-0.1-0.3-0.3-0.3s-0.3,0.1-0.3,0.3v4h-1.1v-4
		c0-0.1-0.1-0.2-0.3-0.3c-0.1,0-0.3,0.1-0.3,0.3v4h-1.1v-4c0-0.1-0.1-0.3-0.3-0.3c-0.1,0-0.2,0.1-0.3,0.3v4h-1.1v-4
		c0-0.1-0.1-0.3-0.3-0.3s-0.3,0.1-0.3,0.3v4H248v-4c0-0.1-0.1-0.3-0.3-0.3s-0.3,0.1-0.3,0.3v3.7c-0.1-0.1-0.2-0.3-0.2-0.5l-0.1-2.7
		c0-0.4-0.3-0.7-0.7-0.8l0,0h-2.7c-0.4,0-0.7,0.3-0.8,0.8v3.6c0,0.4,0.3,0.7,0.7,0.7l0,0H263c0.4,0,0.8-0.3,0.8-0.8v-0.1
		L262.7,383.5L262.7,383.5z"/>
	<path class="st5" d="M263.9,379h-20.8c0.1-0.3,0.4-0.5,0.7-0.5h19.4C263.5,378.5,263.8,378.7,263.9,379z"/>
	<path class="st24" d="M262.9,373.4v4.3c0,0.4-0.3,0.7-0.7,0.7h-19.4c-0.4,0-0.7-0.3-0.7-0.7v-4.3c0-0.1,0-0.2,0-0.2
		c0.1-0.3,0.4-0.5,0.7-0.5h19.4c0.3,0,0.6,0.2,0.7,0.5C262.8,373.3,262.9,373.3,262.9,373.4z"/>
	<path class="st25" d="M261.7,377.6v-3.9c0-0.1-0.1-0.3-0.3-0.3s-0.3,0.1-0.3,0.3v4H260v-4c0-0.1-0.1-0.3-0.3-0.3s-0.3,0.1-0.3,0.3
		v4h-1.1v-4c0-0.1-0.1-0.2-0.3-0.3c-0.1,0-0.3,0.1-0.3,0.3v4h-1.1v-4c0-0.1-0.1-0.3-0.3-0.3c-0.1,0-0.2,0.1-0.3,0.3v4h-1.1v-4
		c0-0.1-0.1-0.3-0.3-0.3s-0.3,0.1-0.3,0.3v4h-1.1v-4c0-0.1-0.1-0.3-0.3-0.3s-0.3,0.1-0.3,0.3v4h-1.1v-4c0-0.1-0.1-0.3-0.3-0.3
		s-0.3,0.1-0.3,0.3v4h-1.1v-4c0-0.1-0.1-0.3-0.3-0.3s-0.3,0.1-0.3,0.3v4h-1.1v-4c0-0.1-0.1-0.2-0.3-0.3c-0.1,0-0.3,0.1-0.3,0.3v4
		H247v-4c0-0.1-0.1-0.3-0.3-0.3c-0.1,0-0.2,0.1-0.3,0.3v3.7c-0.1-0.1-0.2-0.3-0.2-0.5l-0.1-2.7c0-0.4-0.3-0.7-0.7-0.8l0,0h-2.7
		c-0.4,0-0.8,0.3-0.8,0.8v3.6c0,0.4,0.3,0.7,0.7,0.7l0,0H262c0.4,0,0.7-0.3,0.8-0.8v-0.1L261.7,377.6z"/>
	<path class="st5" d="M262.8,373.2H242c0.1-0.3,0.4-0.5,0.7-0.5h19.4C262.5,372.7,262.7,372.9,262.8,373.2z"/>
	<path class="st24" d="M262.8,367.6v4.3c0,0.4-0.3,0.7-0.7,0.7h-19.4c-0.4,0-0.7-0.3-0.7-0.7v-4.3c0-0.1,0-0.2,0-0.2
		c0.1-0.3,0.4-0.5,0.7-0.5H262c0.3,0,0.6,0.2,0.7,0.5C262.8,367.4,262.8,367.5,262.8,367.6z"/>
	<path class="st25" d="M261.6,371.8v-4c0-0.1-0.1-0.3-0.3-0.3c-0.1,0-0.2,0.1-0.3,0.3v4h-1v-4c0-0.1-0.1-0.3-0.3-0.3
		s-0.3,0.1-0.3,0.3v4h-1.1v-4c0-0.1-0.1-0.3-0.3-0.3s-0.3,0.1-0.3,0.3v4h-1.1v-4c0-0.1-0.1-0.3-0.3-0.3s-0.3,0.1-0.3,0.3v4h-1.1v-4
		c0-0.1-0.1-0.3-0.3-0.3s-0.3,0.1-0.3,0.3v4h-1.1v-4c0-0.1-0.1-0.2-0.3-0.3c-0.1,0-0.3,0.1-0.3,0.3v4h-1.1v-4c0-0.1-0.1-0.3-0.3-0.3
		c-0.1,0-0.2,0.1-0.3,0.3v4h-1.1v-4c0-0.1-0.1-0.3-0.3-0.3s-0.3,0.1-0.3,0.3v4h-1.1v-4c0-0.1-0.1-0.3-0.3-0.3s-0.3,0.1-0.3,0.3v4
		h-1.1v-4c0-0.1-0.1-0.3-0.3-0.3s-0.3,0.1-0.3,0.3v3.7c-0.1-0.1-0.2-0.3-0.2-0.5l-0.1-2.7c0-0.4-0.3-0.7-0.7-0.8l0,0h-2.7
		c-0.4,0-0.7,0.3-0.8,0.8v3.6c0,0.4,0.3,0.7,0.7,0.7l0,0h19.4c0.4,0,0.8-0.3,0.8-0.8v-0.1L261.6,371.8z"/>
	<path class="st5" d="M262.8,367.4H242c0.1-0.3,0.4-0.5,0.7-0.5h19.4C262.4,366.9,262.7,367.1,262.8,367.4z"/>
	<path class="st24" d="M262.8,361.8v4.3c0,0.4-0.3,0.7-0.7,0.7h-19.4c-0.4,0-0.7-0.3-0.7-0.7v-4.3c0-0.1,0-0.2,0-0.2
		c0.1-0.3,0.4-0.5,0.7-0.5H262c0.3,0,0.6,0.2,0.7,0.5C262.7,361.6,262.8,361.7,262.8,361.8z"/>
	<path class="st25" d="M261.6,366v-4c0-0.1-0.1-0.3-0.3-0.3s-0.3,0.1-0.3,0.3v4h-1.1v-4c0-0.1-0.1-0.3-0.3-0.3s-0.3,0.1-0.3,0.3v4
		h-1.1v-4c0-0.1-0.1-0.2-0.3-0.3c-0.1,0-0.3,0.1-0.3,0.3v4h-1.1v-4c0-0.1-0.1-0.3-0.3-0.3c-0.1,0-0.2,0.1-0.3,0.3v4H255v-4
		c0-0.1-0.1-0.3-0.3-0.3s-0.3,0.1-0.3,0.3v4h-1.1v-4c0-0.1-0.1-0.3-0.3-0.3s-0.3,0.1-0.3,0.3v4h-1.1v-4c0-0.1-0.1-0.3-0.3-0.3
		s-0.3,0.1-0.3,0.3v4h-1.1v-4c0-0.1-0.1-0.2-0.3-0.3c-0.1,0-0.3,0.1-0.3,0.3v4h-1.1v-4c0-0.1-0.1-0.3-0.3-0.3
		c-0.1,0-0.2,0.1-0.3,0.3v4h-1.1v-4c0-0.1-0.1-0.3-0.3-0.3s-0.3,0.1-0.3,0.3v3.7c-0.1-0.1-0.2-0.3-0.2-0.5l-0.1-2.7
		c0-0.4-0.3-0.7-0.7-0.8l0,0h-2.7c-0.4,0-0.8,0.3-0.8,0.8v3.6c0,0.4,0.3,0.7,0.7,0.7l0,0H262c0.4,0,0.8-0.3,0.8-0.8v0H261.6z"/>
	<path class="st5" d="M262.7,361.6H242c0.1-0.3,0.4-0.5,0.7-0.5H262C262.3,361,262.6,361.3,262.7,361.6z"/>
	<path class="st24" d="M263.7,356v4.3c0,0.4-0.3,0.7-0.7,0.7h-19.4c-0.4,0-0.7-0.3-0.7-0.7V356c0-0.1,0-0.2,0-0.2
		c0.1-0.3,0.4-0.5,0.7-0.5H263c0.3,0,0.6,0.2,0.7,0.5C263.7,355.8,263.7,355.9,263.7,356z"/>
	<path class="st25" d="M262.5,360.2v-4c0-0.1-0.1-0.3-0.3-0.3c-0.1,0-0.2,0.1-0.3,0.3v4h-1.1v-4c0-0.1-0.1-0.3-0.3-0.3
		s-0.3,0.1-0.3,0.3v4h-1.1v-4c0-0.1-0.1-0.3-0.3-0.3s-0.3,0.1-0.3,0.3v4h-1.1v-4c0-0.1-0.1-0.3-0.3-0.3s-0.3,0.1-0.3,0.3v4H256v-4
		c0-0.1-0.1-0.3-0.3-0.3s-0.3,0.1-0.3,0.3v4h-1.1v-4c0-0.1-0.1-0.2-0.3-0.3c-0.1,0-0.3,0.1-0.3,0.3v4h-1.1v-4c0-0.1-0.1-0.3-0.3-0.3
		c-0.1,0-0.2,0.1-0.3,0.3v4h-1.1v-4c0-0.1-0.1-0.3-0.3-0.3s-0.3,0.1-0.3,0.3v4h-1.2v-4c0-0.1-0.1-0.3-0.3-0.3s-0.3,0.1-0.3,0.3v4
		h-1.1v-4c0-0.1-0.1-0.3-0.3-0.3s-0.3,0.1-0.3,0.3v3.7c-0.1-0.1-0.2-0.3-0.2-0.5l-0.1-2.7c0-0.4-0.3-0.7-0.7-0.8l0,0h-2.7
		c-0.4,0-0.8,0.3-0.8,0.8v3.6c0,0.4,0.3,0.7,0.7,0.7l0,0h19.4c0.4,0,0.8-0.3,0.8-0.8v-0.1L262.5,360.2L262.5,360.2z"/>
	<path class="st5" d="M263.7,355.7h-20.8c0.1-0.3,0.4-0.5,0.7-0.5H263C263.3,355.2,263.6,355.4,263.7,355.7z"/>
	<path class="st24" d="M263.7,350.1v4.3c0,0.4-0.3,0.7-0.7,0.7h-19.4c-0.4,0-0.7-0.3-0.7-0.7v-4.3c0-0.1,0-0.2,0-0.2
		c0.1-0.3,0.4-0.5,0.7-0.5H263c0.3,0,0.6,0.2,0.7,0.5C263.6,350,263.7,350.1,263.7,350.1z"/>
	<path class="st25" d="M262.4,354.4v-4c0-0.1-0.1-0.3-0.3-0.3s-0.3,0.1-0.3,0.3v4h-1.1v-4c0-0.1-0.1-0.3-0.3-0.3s-0.3,0.1-0.3,0.3v4
		H259v-4c0-0.1-0.1-0.2-0.3-0.3c-0.1,0-0.3,0.1-0.3,0.3v4h-1.1v-4c0-0.1-0.1-0.3-0.3-0.3c-0.1,0-0.2,0.1-0.3,0.3v4h-1.1v-4
		c0-0.1-0.1-0.3-0.3-0.3s-0.3,0.1-0.3,0.3v4h-1.1v-4c0-0.1-0.1-0.3-0.3-0.3s-0.3,0.1-0.3,0.3v4h-1.1v-4c0-0.1-0.1-0.3-0.3-0.3
		s-0.3,0.1-0.3,0.3v4H251v-4c0-0.1-0.1-0.2-0.3-0.3c-0.1,0-0.3,0.1-0.3,0.3v4h-1.1v-4c0-0.1-0.1-0.3-0.3-0.3c-0.1,0-0.2,0.1-0.3,0.3
		v4h-1.1v-4c0-0.1-0.1-0.3-0.3-0.3s-0.3,0.1-0.3,0.3v3.7c-0.1-0.1-0.2-0.3-0.2-0.5l-0.1-2.7c0-0.4-0.3-0.7-0.7-0.8l0,0h-2.7
		c-0.4,0-0.8,0.3-0.8,0.8v3.6c0,0.4,0.3,0.7,0.7,0.7l0,0h19.4c0.4,0,0.8-0.3,0.8-0.8v-0.1L262.4,354.4L262.4,354.4z"/>
	<path class="st5" d="M263.6,349.9h-20.8c0.1-0.3,0.4-0.5,0.7-0.5h19.4C263.2,349.4,263.5,349.6,263.6,349.9z"/>
	<path class="st24" d="M263.6,344.3v4.4c0,0.4-0.3,0.7-0.7,0.7h-19.4c-0.4,0-0.7-0.3-0.7-0.7v-4.3c0-0.1,0-0.2,0-0.2
		c0.1-0.3,0.4-0.5,0.7-0.5h19.4c0.3,0,0.6,0.2,0.7,0.5C263.5,344.2,263.6,344.3,263.6,344.3z"/>
	<path class="st25" d="M262.4,348.5v-4c0-0.1-0.1-0.3-0.3-0.3c-0.1,0-0.2,0.1-0.3,0.3v4h-1.1v-4c0-0.1-0.1-0.3-0.3-0.3
		s-0.3,0.1-0.3,0.3v4H259v-4c0-0.1-0.1-0.3-0.3-0.3s-0.3,0.1-0.3,0.3v4h-1.1v-4c0-0.1-0.1-0.3-0.3-0.3s-0.3,0.1-0.3,0.3v4h-1.1v-4
		c0-0.1-0.1-0.2-0.3-0.3c-0.1,0-0.3,0.1-0.3,0.3v4h-1.1v-4c0-0.1-0.1-0.3-0.3-0.3c-0.1,0-0.2,0.1-0.3,0.3v4h-1.1v-4
		c0-0.1-0.1-0.3-0.3-0.3s-0.3,0.1-0.3,0.3v4H251v-4c0-0.1-0.1-0.3-0.3-0.3s-0.3,0.1-0.3,0.3v4h-1.1v-4c0-0.1-0.1-0.3-0.3-0.3
		s-0.3,0.1-0.3,0.3v4h-1.1v-4c0-0.1-0.1-0.3-0.3-0.3s-0.3,0.1-0.3,0.3v3.7c-0.1-0.1-0.2-0.3-0.2-0.5l-0.1-2.7c0-0.4-0.3-0.7-0.7-0.8
		l0,0h-2.7c-0.4,0-0.8,0.3-0.8,0.8v3.6c0,0.4,0.3,0.7,0.7,0.7l0,0h19.4c0.4,0,0.8-0.3,0.8-0.8v-0.1L262.4,348.5L262.4,348.5z"/>
	<path class="st5" d="M263.6,344.1h-20.8c0.1-0.3,0.4-0.5,0.7-0.5h19.4C263.2,343.6,263.5,343.8,263.6,344.1z"/>
	<path class="st24" d="M264.5,338.5v4.3c0,0.4-0.3,0.7-0.7,0.7h-19.4c-0.4,0-0.7-0.3-0.7-0.7v-4.3c0-0.1,0-0.2,0-0.2
		c0.1-0.3,0.4-0.5,0.7-0.5h19.4c0.3,0,0.6,0.2,0.7,0.5C264.5,338.3,264.5,338.4,264.5,338.5z"/>
	<path class="st25" d="M263.3,342.7v-4c0-0.1-0.1-0.3-0.3-0.3s-0.3,0.1-0.3,0.3v4h-1.1v-4c0-0.1-0.1-0.3-0.3-0.3s-0.3,0.1-0.3,0.3v4
		h-1.1v-4c0-0.1-0.1-0.2-0.3-0.3c-0.1,0-0.3,0.1-0.3,0.3v4h-1.2v-4c0-0.1-0.1-0.3-0.3-0.3c-0.1,0-0.2,0.1-0.3,0.3v4h-1.1v-4
		c0-0.1-0.1-0.3-0.3-0.3s-0.3,0.1-0.3,0.3v4h-1.1v-4c0-0.1-0.1-0.3-0.3-0.3s-0.3,0.1-0.3,0.3v4H253v-4c0-0.1-0.1-0.3-0.3-0.3
		s-0.3,0.1-0.3,0.3v4h-1.1v-4c0-0.1-0.1-0.2-0.3-0.3c-0.1,0-0.3,0.1-0.3,0.3v4h-1.1v-4c0-0.1-0.1-0.3-0.3-0.3
		c-0.1,0-0.2,0.1-0.3,0.3v4h-1.1v-4c0-0.1-0.1-0.3-0.3-0.3s-0.3,0.1-0.3,0.3v3.7c-0.1-0.1-0.2-0.3-0.2-0.5l-0.1-2.7
		c0-0.4-0.3-0.7-0.7-0.8l0,0h-2.7c-0.4,0-0.8,0.3-0.8,0.8v3.6c0,0.4,0.3,0.7,0.7,0.7l0,0h19.4c0.4,0,0.8-0.3,0.8-0.8v-0.1
		L263.3,342.7L263.3,342.7z"/>
	<path class="st5" d="M264.5,338.3h-20.8c0.1-0.3,0.4-0.5,0.7-0.5h19.4C264.1,337.8,264.4,338,264.5,338.3z"/>
	<path class="st24" d="M264.5,332.7v4.3c0,0.4-0.3,0.7-0.7,0.7h-19.3c-0.4,0-0.7-0.3-0.7-0.7v-4.3c0-0.1,0-0.2,0-0.2
		c0.1-0.3,0.4-0.5,0.7-0.5h19.4c0.3,0,0.6,0.2,0.7,0.5C264.5,332.6,264.5,332.6,264.5,332.7z"/>
	<path class="st25" d="M263.3,336.9v-4c0-0.1-0.1-0.3-0.3-0.3c-0.1,0-0.2,0.1-0.3,0.3v4h-1.1v-4c0-0.1-0.1-0.3-0.3-0.3
		s-0.3,0.1-0.3,0.3v4h-1v-4c0-0.1-0.1-0.3-0.3-0.3s-0.3,0.1-0.3,0.3v4h-1.1v-4c0-0.1-0.1-0.3-0.3-0.3s-0.3,0.1-0.3,0.3v4h-1.1v-4
		c0-0.1-0.1-0.2-0.3-0.3c-0.1,0-0.3,0.1-0.3,0.3v4h-1.1v-4c0-0.1-0.1-0.3-0.3-0.3c-0.1,0-0.2,0.1-0.3,0.3v4h-1.1v-4
		c0-0.1-0.1-0.3-0.3-0.3s-0.3,0.1-0.3,0.3v4h-1.1v-4c0-0.1-0.1-0.3-0.3-0.3s-0.3,0.1-0.3,0.3v4h-1.1v-4c0-0.1-0.1-0.3-0.3-0.3
		s-0.3,0.1-0.3,0.3v4h-1.1v-4c0-0.1-0.1-0.3-0.3-0.3s-0.3,0.1-0.3,0.3v3.8c-0.1-0.1-0.2-0.3-0.2-0.5l-0.1-2.7c0-0.4-0.3-0.7-0.7-0.8
		l0,0h-2.7c-0.4,0-0.8,0.3-0.8,0.8v3.6c0,0.4,0.3,0.7,0.7,0.7l0,0h19.4c0.4,0,0.8-0.3,0.8-0.8v-0.1H263.3z"/>
	<path class="st5" d="M264.4,332.5h-20.7c0.1-0.3,0.4-0.5,0.7-0.5h19.4C264.1,332,264.3,332.2,264.4,332.5z"/>
	<path class="st24" d="M262.4,326.9v4.3c0,0.4-0.3,0.7-0.7,0.7h-19.3c-0.4,0-0.7-0.3-0.7-0.7v-4.3c0-0.1,0-0.2,0-0.2
		c0.1-0.3,0.4-0.5,0.7-0.5h19.4c0.3,0,0.6,0.2,0.7,0.5C262.4,326.7,262.4,326.8,262.4,326.9z"/>
	<path class="st25" d="M261.2,331.1v-4c0-0.1-0.1-0.3-0.3-0.3s-0.3,0.1-0.3,0.3v4h-1.1v-4c0-0.1-0.1-0.2-0.3-0.3
		c-0.1,0-0.3,0.1-0.3,0.3v4H258v-4c0-0.1-0.1-0.3-0.3-0.3c-0.1,0-0.2,0.1-0.3,0.3v4h-1.1v-4c0-0.1-0.1-0.3-0.3-0.3
		c-0.1,0-0.2,0.1-0.2,0.3v4h-1.1v-4c0-0.1-0.1-0.3-0.3-0.3s-0.3,0.1-0.3,0.3v4H253v-4c0-0.1-0.1-0.3-0.3-0.3s-0.3,0.1-0.3,0.3v4
		h-1.2v-4c0-0.1-0.1-0.2-0.3-0.3c-0.1,0-0.3,0.1-0.3,0.3v4h-1.1v-4c0-0.1-0.1-0.3-0.3-0.3c-0.1,0-0.2,0.1-0.3,0.3v4h-1.1v-4
		c0-0.1-0.1-0.3-0.3-0.3s-0.3,0.1-0.3,0.3v4h-1.1v-4c0-0.1-0.1-0.3-0.3-0.3s-0.3,0.1-0.3,0.3v3.7c-0.1-0.1-0.2-0.3-0.2-0.5l-0.1-2.7
		c0-0.4-0.3-0.7-0.7-0.8l0,0h-2.7c-0.4,0-0.7,0.3-0.8,0.8v3.6c0,0.4,0.3,0.7,0.7,0.7l0,0h19.4c0.4,0,0.8-0.3,0.8-0.8V331
		L261.2,331.1L261.2,331.1z"/>
	<path class="st5" d="M262.4,326.6h-20.8c0.1-0.3,0.4-0.5,0.7-0.5h19.4C262,326.1,262.3,326.3,262.4,326.6z"/>
	<path class="st24" d="M264.4,321v4.3c0,0.4-0.3,0.7-0.7,0.7h-19.4c-0.4,0-0.7-0.3-0.7-0.7V321c0-0.1,0-0.2,0-0.2
		c0.1-0.3,0.4-0.5,0.7-0.5h19.4c0.3,0,0.6,0.2,0.7,0.5C264.3,320.9,264.4,321,264.4,321z"/>
	<path class="st25" d="M263.2,325.3v-4c0-0.1-0.1-0.3-0.3-0.3s-0.3,0.1-0.3,0.3v4h-1.1v-4c0-0.1-0.1-0.3-0.3-0.3s-0.3,0.1-0.3,0.3v4
		h-1.1v-4c0-0.1-0.1-0.3-0.3-0.3s-0.3,0.1-0.3,0.3v4h-1.1v-4c0-0.1-0.1-0.3-0.3-0.3s-0.3,0.1-0.3,0.3v4h-1.1v-4
		c0-0.1-0.1-0.2-0.3-0.3c-0.1,0-0.3,0.1-0.3,0.3v4H255v-4c0-0.1-0.1-0.3-0.3-0.3c-0.1,0-0.2,0.1-0.3,0.3v4h-1.1v-4
		c0-0.1-0.1-0.3-0.3-0.3s-0.3,0.1-0.3,0.3v4h-1.1v-4c0-0.1-0.1-0.3-0.3-0.3s-0.3,0.1-0.3,0.3v4h-1.1v-4c0-0.1-0.1-0.3-0.3-0.3
		s-0.3,0.1-0.3,0.3v4h-1.1v-4c0-0.1-0.1-0.2-0.3-0.3c-0.1,0-0.3,0.1-0.3,0.3v3.7c-0.1-0.1-0.2-0.3-0.2-0.5l-0.1-2.7
		c0-0.4-0.3-0.7-0.7-0.8l0,0h-2.7c-0.4,0-0.8,0.3-0.8,0.8v3.6c0,0.4,0.3,0.7,0.7,0.7l0,0h19.4c0.4,0,0.8-0.3,0.8-0.8v-0.1
		L263.2,325.3z"/>
	<path class="st5" d="M264.3,320.8h-20.8c0.1-0.3,0.4-0.5,0.7-0.5h19.4C264,320.3,264.2,320.5,264.3,320.8z"/>
	<path class="st24" d="M264.3,315.2v4.3c0,0.4-0.3,0.7-0.7,0.7h-19.4c-0.4,0-0.7-0.3-0.7-0.7v-4.3c0-0.1,0-0.2,0-0.2
		c0.1-0.3,0.4-0.5,0.7-0.5h19.4c0.3,0,0.6,0.2,0.7,0.5C264.3,315.1,264.3,315.1,264.3,315.2z"/>
	<path class="st25" d="M263.1,319.4v-4c0-0.1-0.1-0.3-0.3-0.3s-0.3,0.1-0.3,0.3v4h-1.1v-4c0-0.1-0.1-0.2-0.3-0.3
		c-0.1,0-0.3,0.1-0.3,0.3v4h-1.1v-4c0-0.1-0.1-0.3-0.3-0.3c-0.1,0-0.2,0.1-0.3,0.3v4H258v-4c0-0.1-0.1-0.3-0.3-0.3s-0.3,0.1-0.3,0.3
		v4h-1.1v-4c0-0.1-0.1-0.3-0.3-0.3s-0.3,0.1-0.3,0.3v4H255v-4c0-0.1-0.1-0.3-0.3-0.3s-0.3,0.1-0.3,0.3v4h-1.1v-4
		c0-0.1-0.1-0.2-0.3-0.3c-0.1,0-0.3,0.1-0.3,0.3v4h-1.1v-4c0-0.1-0.1-0.3-0.3-0.3c-0.1,0-0.2,0.1-0.3,0.3v4h-1.1v-4
		c0-0.1-0.1-0.3-0.3-0.3s-0.3,0.1-0.3,0.3v4h-1.1v-4c0-0.1-0.1-0.3-0.3-0.3s-0.3,0.1-0.3,0.3v3.7c-0.1-0.1-0.2-0.3-0.2-0.5l-0.1-2.7
		c0-0.4-0.3-0.7-0.7-0.8l0,0h-2.7c-0.4,0-0.8,0.3-0.8,0.8v3.6c0,0.4,0.3,0.7,0.7,0.7l0,0h19.4c0.4,0,0.8-0.3,0.8-0.8v-0.1
		L263.1,319.4z"/>
	<path class="st5" d="M264.3,315h-20.8c0.1-0.3,0.4-0.5,0.7-0.5h19.4C263.9,314.5,264.2,314.7,264.3,315z"/>
	<path class="st24" d="M263.3,309.4v4.3c0,0.4-0.3,0.7-0.7,0.7h-19.4c-0.4,0-0.7-0.3-0.7-0.7v-4.3c0-0.1,0-0.2,0-0.2
		c0.1-0.3,0.4-0.5,0.7-0.5h19.4c0.3,0,0.6,0.2,0.7,0.5C263.2,309.2,263.3,309.3,263.3,309.4z"/>
	<path class="st25" d="M262.1,313.6v-3.9c0-0.1-0.1-0.3-0.3-0.3s-0.3,0.1-0.3,0.3v4h-1.1v-4c0-0.1-0.1-0.3-0.3-0.3s-0.3,0.1-0.3,0.3
		v4h-1.1v-4c0-0.1-0.1-0.3-0.3-0.3s-0.3,0.1-0.3,0.3v4H257v-4c0-0.1-0.1-0.2-0.3-0.3c-0.1,0-0.3,0.1-0.3,0.3v4h-1.1v-4
		c0-0.1-0.1-0.3-0.3-0.3c-0.1,0-0.2,0.1-0.3,0.3v4h-1.1v-4c0-0.1-0.1-0.3-0.3-0.3s-0.3,0.1-0.3,0.3v4h-1.1v-4c0-0.1-0.1-0.3-0.3-0.3
		s-0.3,0.1-0.3,0.3v4h-1.1v-4c0-0.1-0.1-0.3-0.3-0.3s-0.3,0.1-0.3,0.3v4H249v-4c0-0.1-0.1-0.2-0.3-0.3c-0.1,0-0.3,0.1-0.3,0.3v4
		h-1.1v-4c0-0.1-0.1-0.3-0.3-0.3c-0.1,0-0.2,0.1-0.3,0.3v3.7c-0.1-0.1-0.2-0.3-0.2-0.5l-0.1-2.7c0-0.4-0.3-0.7-0.7-0.8l0,0H243
		c-0.4,0-0.8,0.3-0.8,0.8v3.6c0,0.4,0.3,0.7,0.7,0.7l0,0h19.4c0.4,0,0.8-0.3,0.8-0.8v-0.1L262.1,313.6z"/>
	<path class="st5" d="M263.2,309.2h-20.8c0.1-0.3,0.4-0.5,0.7-0.5h19.4C262.8,308.6,263.1,308.9,263.2,309.2z"/>
	<path class="st24" d="M263.2,303.6v4.3c0,0.4-0.3,0.7-0.7,0.7h-19.4c-0.4,0-0.7-0.3-0.7-0.7v-4.3c0-0.1,0-0.2,0-0.2
		c0.1-0.3,0.4-0.5,0.7-0.5h19.4c0.3,0,0.6,0.2,0.7,0.5C263.2,303.4,263.2,303.5,263.2,303.6z"/>
	<path class="st25" d="M262,307.8v-4c0-0.1-0.1-0.2-0.3-0.3c-0.1,0-0.3,0.1-0.3,0.3v4h-1.1v-4c0-0.1-0.1-0.3-0.3-0.3
		c-0.1,0-0.2,0.1-0.3,0.3v4h-1.1v-4c0-0.1-0.1-0.3-0.3-0.3s-0.3,0.1-0.3,0.3v4h-1.2v-4c0-0.1-0.1-0.3-0.3-0.3s-0.3,0.1-0.3,0.3v4
		h-1.1v-4c0-0.1-0.1-0.3-0.3-0.3s-0.3,0.1-0.3,0.3v4h-1.1v-4c0-0.1-0.1-0.2-0.3-0.3c-0.1,0-0.3,0.1-0.3,0.3v4h-1.1v-4
		c0-0.1-0.1-0.3-0.3-0.3c-0.1,0-0.2,0.1-0.3,0.3v4H250v-4c0-0.1-0.1-0.3-0.3-0.3s-0.3,0.1-0.3,0.3v4H249v-4c0-0.1-0.1-0.3-0.3-0.3
		s-0.3,0.1-0.3,0.3v4h-1.1v-4c0-0.1-0.1-0.3-0.3-0.3s-0.3,0.1-0.3,0.3v3.7c-0.1-0.1-0.2-0.3-0.2-0.5l-0.1-2.7c0-0.4-0.3-0.7-0.7-0.8
		l0,0H243c-0.4,0-0.7,0.3-0.8,0.8v3.6c0,0.4,0.3,0.7,0.7,0.7l0,0h19.4c0.4,0,0.8-0.3,0.8-0.8v-0.1L262,307.8L262,307.8z"/>
	<path class="st5" d="M263.2,303.4h-20.8c0.1-0.3,0.4-0.5,0.7-0.5h19.4C262.8,302.9,263.1,303.1,263.2,303.4z"/>
	<path class="st24" d="M262.2,297.8v4.3c0,0.4-0.3,0.7-0.7,0.7H242c-0.4,0-0.7-0.3-0.7-0.7v-4.3c0-0.1,0-0.2,0-0.2
		c0.1-0.3,0.4-0.5,0.7-0.5h19.4c0.3,0,0.6,0.2,0.7,0.5C262.1,297.6,262.2,297.7,262.2,297.8z"/>
	<path class="st25" d="M261,302v-4c0-0.1-0.1-0.3-0.3-0.3s-0.3,0.1-0.3,0.3v4h-1.1v-4c0-0.1-0.1-0.3-0.3-0.3s-0.3,0.1-0.3,0.3v4
		h-1.1v-4c0-0.1-0.1-0.2-0.3-0.3c-0.1,0-0.3,0.1-0.3,0.3v4h-1.1v-4c0-0.1-0.1-0.3-0.2-0.3c-0.1,0-0.2,0.1-0.3,0.3v4h-1.1v-4
		c0-0.1-0.1-0.3-0.3-0.3s-0.3,0.1-0.3,0.3v4h-1.1v-4c0-0.1-0.1-0.3-0.3-0.3s-0.3,0.1-0.3,0.3v4h-1.1v-4c0-0.1-0.1-0.3-0.3-0.3
		s-0.3,0.1-0.3,0.3v4h-1.1v-4c0-0.1-0.1-0.3-0.3-0.3s-0.3,0.1-0.3,0.3v4h-1.1v-4c0-0.1-0.1-0.2-0.3-0.3c-0.1,0-0.3,0.1-0.3,0.3v4
		h-1.1v-4c0-0.1-0.1-0.3-0.3-0.3c-0.1,0-0.2,0.1-0.3,0.3v3.7c-0.1-0.1-0.2-0.3-0.2-0.5l-0.1-2.7c0-0.4-0.3-0.7-0.7-0.8l0,0H242
		c-0.4,0-0.8,0.3-0.8,0.8v3.6c0,0.4,0.3,0.7,0.7,0.7l0,0h19.4c0.4,0,0.8-0.3,0.8-0.8v-0.1L261,302z"/>
	<path class="st5" d="M262.1,297.5h-20.8c0.1-0.3,0.4-0.5,0.7-0.5h19.4C261.7,297,262,297.2,262.1,297.5z"/>
	<path class="st24" d="M208.4,396.7v4.3c0,0.4-0.3,0.7-0.7,0.7h-19.4c-0.4,0-0.7-0.3-0.7-0.7v-4.3c0-0.1,0-0.2,0-0.2
		c0.1-0.3,0.4-0.5,0.7-0.5h19.4c0.3,0,0.6,0.2,0.7,0.5C208.3,396.6,208.3,396.6,208.4,396.7z"/>
	<path class="st25" d="M207.1,400.9v-4c0-0.1-0.1-0.3-0.3-0.3c-0.1,0-0.2,0.1-0.3,0.3v4h-1.1v-4c0-0.1-0.1-0.3-0.3-0.3
		s-0.3,0.1-0.3,0.3v4h-1.1v-4c0-0.1-0.1-0.3-0.3-0.3s-0.3,0.1-0.3,0.3v4H202v-4c0-0.1-0.1-0.3-0.3-0.3s-0.3,0.1-0.3,0.3v4h-1.1v-4
		c0-0.1-0.1-0.2-0.3-0.3c-0.1,0-0.3,0.1-0.3,0.3v4H199v-4c0-0.1-0.1-0.3-0.3-0.3c-0.1,0-0.2,0.1-0.3,0.3v4h-1.1v-4
		c0-0.1-0.1-0.3-0.3-0.3s-0.3,0.1-0.3,0.3v4h-1.2v-4c0-0.1-0.1-0.3-0.3-0.3s-0.3,0.1-0.3,0.3v4h-1.1v-4c0-0.1-0.1-0.3-0.3-0.3
		s-0.3,0.1-0.3,0.3v4h-1.1v-4c0-0.1-0.1-0.3-0.3-0.3s-0.3,0.1-0.3,0.3v3.8c-0.1-0.1-0.2-0.3-0.2-0.5l-0.1-2.7c0-0.4-0.3-0.7-0.7-0.8
		l0,0h-2.7c-0.4,0-0.8,0.3-0.8,0.8v3.6c0,0.4,0.3,0.7,0.7,0.7l0,0h19.4c0.4,0,0.8-0.3,0.8-0.8v-0.1H207.1z"/>
	<path class="st5" d="M208.3,396.5h-20.8c0.1-0.3,0.4-0.5,0.7-0.5h19.4C207.9,396,208.2,396.2,208.3,396.5z"/>
	<path class="st24" d="M206.3,390.9v4.3c0,0.4-0.3,0.7-0.7,0.7h-19.4c-0.4,0-0.7-0.3-0.7-0.7v-4.3c0-0.1,0-0.2,0-0.2
		c0.1-0.3,0.4-0.5,0.7-0.5h19.4c0.3,0,0.6,0.2,0.7,0.5C206.3,390.7,206.3,390.8,206.3,390.9z"/>
	<path class="st25" d="M205.1,395.1v-4c0-0.1-0.1-0.3-0.3-0.3s-0.3,0.1-0.3,0.3v4h-1.1v-4c0-0.1-0.1-0.2-0.3-0.3
		c-0.1,0-0.3,0.1-0.3,0.3v4h-1.1v-4c0-0.1-0.1-0.3-0.3-0.3c-0.1,0-0.2,0.1-0.3,0.3v4H200v-4c0-0.1-0.1-0.3-0.3-0.3s-0.3,0.1-0.3,0.3
		v4h-1.1v-4c0-0.1-0.1-0.3-0.3-0.3s-0.3,0.1-0.3,0.3v4h-1.1v-4c0-0.1-0.1-0.3-0.3-0.3s-0.3,0.1-0.3,0.3v4h-1.1v-4
		c0-0.1-0.1-0.2-0.3-0.3c-0.1,0-0.3,0.1-0.3,0.3v4h-1.1v-4c0-0.1-0.1-0.3-0.3-0.3c-0.1,0-0.2,0.1-0.3,0.3v4h-1.1v-4
		c0-0.1-0.1-0.3-0.3-0.3s-0.3,0.1-0.3,0.3v4h-1.1v-4c0-0.1-0.1-0.3-0.3-0.3s-0.3,0.1-0.3,0.3v3.7c-0.1-0.1-0.2-0.3-0.2-0.5l-0.1-2.7
		c0-0.4-0.3-0.7-0.7-0.8l0,0h-2.7c-0.4,0-0.7,0.3-0.8,0.8v3.6c0,0.4,0.3,0.7,0.7,0.7l0,0h19.4c0.4,0,0.8-0.3,0.8-0.8V395
		L205.1,395.1L205.1,395.1z"/>
	<path class="st5" d="M206.3,390.7h-20.8c0.1-0.3,0.4-0.5,0.7-0.5h19.4C205.9,390.1,206.2,390.4,206.3,390.7z"/>
	<path class="st24" d="M208.2,385.1v4.3c0,0.4-0.3,0.7-0.7,0.7h-19.4c-0.4,0-0.7-0.3-0.7-0.7v-4.3c0-0.1,0-0.2,0-0.2
		c0.1-0.3,0.4-0.5,0.7-0.5h19.4c0.3,0,0.6,0.2,0.7,0.5C208.2,384.9,208.2,385,208.2,385.1z"/>
	<path class="st25" d="M207,389.3v-4c0-0.1-0.1-0.3-0.3-0.3s-0.3,0.1-0.3,0.3v4h-1.1v-4c0-0.1-0.1-0.3-0.3-0.3s-0.3,0.1-0.3,0.3v4
		h-1.1v-4c0-0.1-0.1-0.3-0.3-0.3s-0.3,0.1-0.3,0.3v4h-1.1v-4c0-0.1-0.1-0.3-0.3-0.3s-0.3,0.1-0.3,0.3v4h-1.1v-4
		c0-0.1-0.1-0.2-0.3-0.3c-0.1,0-0.3,0.1-0.3,0.3v4h-1.1v-4c0-0.1-0.1-0.3-0.3-0.3c-0.1,0-0.2,0.1-0.3,0.3v4h-1.1v-4
		c0-0.1-0.1-0.3-0.3-0.3s-0.3,0.1-0.3,0.3v4h-1.1v-4c0-0.1-0.1-0.3-0.3-0.3s-0.3,0.1-0.3,0.3v4H194v-4c0-0.1-0.1-0.3-0.3-0.3
		s-0.3,0.1-0.3,0.3v4h-1.1v-4c0-0.1-0.1-0.2-0.3-0.3c-0.1,0-0.3,0.1-0.3,0.3v3.7c-0.1-0.1-0.2-0.3-0.2-0.5l-0.1-2.7
		c0-0.4-0.3-0.7-0.7-0.8l0,0H188c-0.4,0-0.8,0.3-0.8,0.8v3.6c0,0.4,0.3,0.7,0.7,0.7l0,0h19.4c0.4,0,0.8-0.3,0.8-0.8v-0.1L207,389.3
		L207,389.3z"/>
	<path class="st5" d="M208.2,384.8h-20.8c0.1-0.3,0.4-0.5,0.7-0.5h19.4C207.8,384.3,208.1,384.5,208.2,384.8z"/>
	<path class="st24" d="M209.2,379.2v4.3c0,0.4-0.3,0.7-0.7,0.7h-19.4c-0.4,0-0.7-0.3-0.7-0.7v-4.3c0-0.1,0-0.2,0-0.2
		c0.1-0.3,0.4-0.5,0.7-0.5h19.4c0.3,0,0.6,0.2,0.7,0.5C209.2,379.1,209.2,379.2,209.2,379.2z"/>
	<path class="st25" d="M208,383.5v-4c0-0.1-0.1-0.3-0.3-0.3s-0.3,0.1-0.3,0.3v4h-1.1v-4c0-0.1-0.1-0.2-0.3-0.3
		c-0.1,0-0.3,0.1-0.3,0.3v4h-1.2v-4c0-0.1-0.1-0.3-0.3-0.3c-0.1,0-0.2,0.1-0.3,0.3v4h-1.1v-4c0-0.1-0.1-0.3-0.3-0.3
		s-0.3,0.1-0.3,0.3v4h-1.1v-4c0-0.1-0.1-0.3-0.3-0.3s-0.3,0.1-0.3,0.3v4h-1.1v-4c0-0.1-0.1-0.3-0.3-0.3s-0.3,0.1-0.3,0.3v4h-1.1v-4
		c0-0.1-0.1-0.3-0.3-0.3s-0.3,0.1-0.3,0.3v4H196v-4c0-0.1-0.1-0.2-0.3-0.3c-0.1,0-0.3,0.1-0.3,0.3v4h-1.1v-4c0-0.1-0.1-0.3-0.3-0.3
		c-0.1,0-0.2,0.1-0.3,0.3v4h-1.1v-4c0-0.1-0.1-0.3-0.3-0.3s-0.3,0.1-0.3,0.3v3.7c-0.1-0.1-0.2-0.3-0.2-0.5l-0.1-2.7
		c0-0.4-0.3-0.7-0.7-0.8l0,0h-2.7c-0.4,0-0.8,0.3-0.8,0.8v3.6c0,0.4,0.3,0.7,0.7,0.7l0,0h19.4c0.4,0,0.8-0.3,0.8-0.8v-0.1L208,383.5
		L208,383.5z"/>
	<path class="st25" d="M209.1,379h-20.8c0.1-0.3,0.4-0.5,0.7-0.5h19.4C208.8,378.5,209.1,378.7,209.1,379z"/>
	<path class="st24" d="M209.1,373.4v4.3c0,0.4-0.3,0.7-0.7,0.7H189c-0.4,0-0.7-0.3-0.7-0.7v-4.3c0-0.1,0-0.2,0-0.2
		c0.1-0.3,0.4-0.5,0.7-0.5h19.4c0.3,0,0.6,0.2,0.7,0.5C209.1,373.3,209.1,373.3,209.1,373.4z"/>
	<path class="st25" d="M207.9,377.6v-3.9c0-0.1-0.1-0.3-0.3-0.3s-0.3,0.1-0.3,0.3v4h-1.1v-4c0-0.1-0.1-0.3-0.3-0.3s-0.3,0.1-0.3,0.3
		v4h-1.1v-4c0-0.1-0.1-0.3-0.3-0.3s-0.3,0.1-0.3,0.3v4h-1.1v-4c0-0.1-0.1-0.3-0.3-0.3s-0.3,0.1-0.3,0.3v4h-1.1v-4
		c0-0.1-0.1-0.2-0.3-0.3c-0.1,0-0.3,0.1-0.3,0.3v4h-1.1v-4c0-0.1-0.1-0.3-0.3-0.3c-0.1,0-0.2,0.1-0.3,0.3v4h-1.1v-4
		c0-0.1-0.1-0.3-0.3-0.3s-0.3,0.1-0.3,0.3v4H196v-4c0-0.1-0.1-0.3-0.3-0.3s-0.3,0.1-0.3,0.3v4h-1.1v-4c0-0.1-0.1-0.3-0.3-0.3
		s-0.3,0.1-0.3,0.3v4h-1.1v-4c0-0.1-0.1-0.2-0.3-0.3c-0.1,0-0.3,0.1-0.3,0.3v3.7c-0.1-0.1-0.2-0.3-0.2-0.5l-0.1-2.7
		c0-0.4-0.3-0.7-0.7-0.8l0,0h-2c-0.4,0-0.8,0.3-0.8,0.8v3.6c0,0.4,0.3,0.7,0.7,0.7l0,0h19.3c0.4,0,0.8-0.3,0.8-0.8v-0.1L207.9,377.6
		z"/>
	<path class="st5" d="M209.1,373.2h-20.8c0.1-0.3,0.4-0.5,0.7-0.5h19.4C208.7,372.7,209,372.9,209.1,373.2z"/>
	<path class="st24" d="M209.1,367.6v4.3c0,0.4-0.3,0.7-0.7,0.7H189c-0.4,0-0.7-0.3-0.7-0.7v-4.3c0-0.1,0-0.2,0-0.2
		c0.1-0.3,0.4-0.5,0.7-0.5h19.4c0.3,0,0.6,0.2,0.7,0.5C209,367.4,209.1,367.5,209.1,367.6z"/>
	<path class="st25" d="M207.9,371.8v-4c0-0.1-0.1-0.3-0.3-0.3s-0.3,0.1-0.3,0.3v4h-1.1v-4c0-0.1-0.1-0.2-0.3-0.3
		c-0.1,0-0.3,0.1-0.3,0.3v4h-1.1v-4c0-0.1-0.1-0.3-0.3-0.3c-0.1,0-0.2,0.1-0.3,0.3v4H203v-4c0-0.1-0.1-0.3-0.3-0.3s-0.3,0.1-0.3,0.3
		v4h-1.1v-4c0-0.1-0.1-0.3-0.3-0.3s-0.3,0.1-0.3,0.3v4h-1.2v-4c0-0.1-0.1-0.3-0.3-0.3s-0.3,0.1-0.3,0.3v4h-1.1v-4
		c0-0.1-0.1-0.2-0.3-0.3c-0.1,0-0.3,0.1-0.3,0.3v4h-1.1v-4c0-0.1-0.1-0.3-0.3-0.3c-0.1,0-0.2,0.1-0.3,0.3v4h-1.1v-4
		c0-0.1-0.1-0.3-0.3-0.3s-0.3,0.1-0.3,0.3v4h-1.1v-4c0-0.1-0.1-0.3-0.3-0.3s-0.3,0.1-0.3,0.3v3.7c-0.1-0.1-0.2-0.3-0.2-0.5l-0.1-2.7
		c0-0.4-0.3-0.7-0.7-0.8l0,0H189c-0.4,0-0.8,0.3-0.8,0.8v3.6c0,0.4,0.3,0.7,0.7,0.7l0,0h19.4c0.4,0,0.8-0.3,0.8-0.8v-0.1
		L207.9,371.8z"/>
	<path class="st5" d="M209,367.4h-20.8c0.1-0.3,0.4-0.5,0.7-0.5h19.4C208.7,366.9,208.9,367.1,209,367.4z"/>
	<path class="st24" d="M208,361.8v4.3c0,0.4-0.3,0.7-0.7,0.7h-19.4c-0.4,0-0.7-0.3-0.7-0.7v-4.3c0-0.1,0-0.2,0-0.2
		c0.1-0.3,0.4-0.5,0.7-0.5h19.4c0.3,0,0.6,0.2,0.7,0.5C208,361.6,208,361.7,208,361.8z"/>
	<path class="st25" d="M206.8,366v-4c0-0.1-0.1-0.3-0.3-0.3s-0.3,0.1-0.3,0.3v4h-1.1v-4c0-0.1-0.1-0.3-0.3-0.3s-0.3,0.1-0.3,0.3v4
		h-1.1v-4c0-0.1-0.1-0.3-0.3-0.3s-0.3,0.1-0.3,0.3v4h-1.1v-4c0-0.1-0.1-0.2-0.3-0.3c-0.1,0-0.3,0.1-0.3,0.3v4H200v-4
		c0-0.1-0.1-0.3-0.3-0.3c-0.1,0-0.2,0.1-0.3,0.3v4h-1.1v-4c0-0.1-0.1-0.3-0.3-0.3s-0.3,0.1-0.3,0.3v4h-1.1v-4c0-0.1-0.1-0.3-0.3-0.3
		s-0.3,0.1-0.3,0.3v4h-1.1v-4c0-0.1-0.1-0.3-0.3-0.3s-0.3,0.1-0.3,0.3v4h-1.1v-4c0-0.1-0.1-0.2-0.3-0.3c-0.1,0-0.3,0.1-0.3,0.3v4
		h-1.1v-4c0-0.1-0.1-0.3-0.3-0.3c-0.1,0-0.2,0.1-0.3,0.3v3.7c-0.1-0.1-0.2-0.3-0.2-0.5l-0.1-2.7c0-0.4-0.3-0.7-0.7-0.8l0,0h-2.7
		c-0.4,0-0.8,0.3-0.8,0.8v3.6c0,0.4,0.3,0.7,0.7,0.7l0,0h19.4c0.4,0,0.8-0.3,0.8-0.8v0H206.8z"/>
	<path class="st5" d="M208,361.6h-20.8c0.1-0.3,0.4-0.5,0.7-0.5h19.4C207.6,361,207.9,361.3,208,361.6z"/>
	<path class="st24" d="M208,356v4.3c0,0.4-0.3,0.7-0.7,0.7h-19.4c-0.4,0-0.7-0.3-0.7-0.7V356c0-0.1,0-0.2,0-0.2
		c0.1-0.3,0.4-0.5,0.7-0.5h19.4c0.3,0,0.6,0.2,0.7,0.5C207.9,355.8,208,355.9,208,356z"/>
	<path class="st25" d="M206.8,360.2v-4c0-0.1-0.1-0.2-0.3-0.3c-0.1,0-0.3,0.1-0.3,0.3v4h-1.1v-4c0-0.1-0.1-0.3-0.3-0.3
		c-0.1,0-0.2,0.1-0.3,0.3v4h-1.1v-4c0-0.1-0.1-0.3-0.3-0.3s-0.3,0.1-0.3,0.3v4h-1.1v-4c0-0.1-0.1-0.3-0.3-0.3s-0.3,0.1-0.3,0.3v4
		H200v-4c0-0.1-0.1-0.3-0.3-0.3s-0.3,0.1-0.3,0.3v4h-1.1v-4c0-0.1-0.1-0.2-0.3-0.3c-0.1,0-0.3,0.1-0.3,0.3v4H197v-4
		c0-0.1-0.1-0.3-0.3-0.3c-0.1,0-0.2,0.1-0.3,0.3v4h-1.1v-4c0-0.1-0.1-0.3-0.3-0.3s-0.3,0.1-0.3,0.3v4h-1.1v-4c0-0.1-0.1-0.3-0.3-0.3
		s-0.3,0.1-0.3,0.3v4h-1.1v-4c0-0.1-0.1-0.3-0.3-0.3s-0.3,0.1-0.3,0.3v3.7c-0.1-0.1-0.2-0.3-0.2-0.5l-0.1-2.7c0-0.4-0.3-0.7-0.7-0.8
		l0,0h-2.7c-0.4,0-0.7,0.3-0.8,0.8v3.6c0,0.4,0.3,0.7,0.7,0.7l0,0h19.4c0.4,0,0.8-0.3,0.8-0.8v-0.1L206.8,360.2L206.8,360.2z"/>
	<path class="st5" d="M207.9,355.7h-20.8c0.1-0.3,0.4-0.5,0.7-0.5h19.4C207.5,355.2,207.8,355.4,207.9,355.7z"/>
	<path class="st24" d="M208.9,350.1v4.3c0,0.4-0.3,0.7-0.7,0.7h-19.4c-0.4,0-0.7-0.3-0.7-0.7v-4.3c0-0.1,0-0.2,0-0.2
		c0.1-0.3,0.4-0.5,0.7-0.5h19.4c0.3,0,0.6,0.2,0.7,0.5C208.9,350,208.9,350.1,208.9,350.1z"/>
	<path class="st25" d="M207.7,354.4v-4c0-0.1-0.1-0.3-0.3-0.3s-0.3,0.1-0.3,0.3v4H206v-4c0-0.1-0.1-0.3-0.3-0.3s-0.3,0.1-0.3,0.3v4
		h-1.1v-4c0-0.1-0.1-0.3-0.3-0.3s-0.3,0.1-0.3,0.3v4h-1.1v-4c0-0.1-0.1-0.2-0.3-0.3c-0.1,0-0.3,0.1-0.3,0.3v4h-1.1v-4
		c0-0.1-0.1-0.3-0.3-0.3c-0.1,0-0.2,0.1-0.3,0.3v4h-1.1v-4c0-0.1-0.1-0.3-0.3-0.3s-0.3,0.1-0.3,0.3v4h-1.1v-4c0-0.1-0.1-0.3-0.3-0.3
		s-0.3,0.1-0.3,0.3v4h-1.1v-4c0-0.1-0.1-0.3-0.3-0.3s-0.3,0.1-0.3,0.3v4h-1.1v-4c0-0.1-0.1-0.2-0.3-0.3c-0.1,0-0.3,0.1-0.3,0.3v4
		H193v-4c0-0.1-0.1-0.3-0.3-0.3c-0.1,0-0.2,0.1-0.3,0.3v3.7c-0.1-0.1-0.2-0.3-0.2-0.5l-0.1-2.7c0-0.4-0.3-0.7-0.7-0.8l0,0h-2.7
		c-0.4,0-0.8,0.3-0.8,0.8v3.6c0,0.4,0.3,0.7,0.7,0.7l0,0H208c0.4,0,0.8-0.3,0.8-0.8v-0.1L207.7,354.4L207.7,354.4z"/>
	<path class="st5" d="M208.9,349.9h-20.8c0.1-0.3,0.4-0.5,0.7-0.5h19.4C208.5,349.4,208.8,349.6,208.9,349.9z"/>
	<path class="st24" d="M207.9,344.3v4.4c0,0.4-0.3,0.7-0.7,0.7h-19.4c-0.4,0-0.7-0.3-0.7-0.7v-4.3c0-0.1,0-0.2,0-0.2
		c0.1-0.3,0.4-0.5,0.7-0.5h19.4c0.3,0,0.6,0.2,0.7,0.5C207.8,344.2,207.8,344.3,207.9,344.3z"/>
	<path class="st25" d="M206.7,348.5v-4c0-0.1-0.1-0.3-0.3-0.3c-0.1,0-0.2,0.1-0.3,0.3v4H205v-4c0-0.1-0.1-0.3-0.3-0.3
		s-0.3,0.1-0.3,0.3v4h-1.2v-4c0-0.1-0.1-0.3-0.3-0.3s-0.3,0.1-0.3,0.3v4h-1.1v-4c0-0.1-0.1-0.3-0.3-0.3s-0.3,0.1-0.3,0.3v4h-1.1v-4
		c0-0.1-0.1-0.3-0.3-0.3s-0.3,0.1-0.3,0.3v4h-1.1v-4c0-0.1-0.1-0.2-0.3-0.3c-0.1,0-0.3,0.1-0.3,0.3v4h-1.1v-4c0-0.1-0.1-0.3-0.3-0.3
		c-0.1,0-0.2,0.1-0.3,0.3v4h-1.1v-4c0-0.1-0.1-0.3-0.3-0.3s-0.3,0.1-0.3,0.3v4H193v-4c0-0.1-0.1-0.3-0.3-0.3s-0.3,0.1-0.3,0.3v4H192
		v-4c0-0.1-0.1-0.3-0.3-0.3s-0.3,0.1-0.3,0.3v3.7c-0.1-0.1-0.2-0.3-0.2-0.5l-0.1-2.7c0-0.4-0.3-0.7-0.7-0.8l0,0h-2.7
		c-0.4,0-0.7,0.3-0.8,0.8v3.6c0,0.4,0.3,0.7,0.7,0.7l0,0H207c0.4,0,0.8-0.3,0.8-0.8v-0.1L206.7,348.5L206.7,348.5z"/>
	<path class="st5" d="M207.8,344.1H187c0.1-0.3,0.4-0.5,0.7-0.5h19.4C207.4,343.6,207.7,343.8,207.8,344.1z"/>
	<path class="st24" d="M208.8,338.5v4.3c0,0.4-0.3,0.7-0.7,0.7h-19.4c-0.4,0-0.7-0.3-0.7-0.7v-4.3c0-0.1,0-0.2,0-0.2
		c0.1-0.3,0.4-0.5,0.7-0.5H208c0.3,0,0.6,0.2,0.7,0.5C208.8,338.3,208.8,338.4,208.8,338.5z"/>
	<path class="st25" d="M207.6,342.7v-4c0-0.1-0.1-0.3-0.3-0.3s-0.3,0.1-0.3,0.3v4h-1v-4c0-0.1-0.1-0.3-0.3-0.3s-0.3,0.1-0.3,0.3v4
		h-1.1v-4c0-0.1-0.1-0.2-0.3-0.3c-0.1,0-0.3,0.1-0.3,0.3v4h-1.1v-4c0-0.1-0.1-0.3-0.3-0.3c-0.1,0-0.2,0.1-0.3,0.3v4h-1.1v-4
		c0-0.1-0.1-0.3-0.3-0.3s-0.3,0.1-0.3,0.3v4h-1.1v-4c0-0.1-0.1-0.3-0.3-0.3s-0.3,0.1-0.3,0.3v4h-1.1v-4c0-0.1-0.1-0.3-0.3-0.3
		s-0.3,0.1-0.3,0.3v4h-1.1v-4c0-0.1-0.1-0.3-0.3-0.3s-0.3,0.1-0.3,0.3v4h-1.1v-4c0-0.1-0.1-0.2-0.3-0.3c-0.1,0-0.3,0.1-0.3,0.3v4
		h-1.1v-4c0-0.1-0.1-0.3-0.3-0.3c-0.1,0-0.2,0.1-0.3,0.3v3.7c-0.1-0.1-0.2-0.3-0.2-0.5l-0.1-2.7c0-0.4-0.3-0.7-0.7-0.8l0,0h-2.7
		c-0.4,0-0.8,0.3-0.8,0.8v3.6c0,0.4,0.3,0.7,0.7,0.7l0,0h20c0.4,0,0.8-0.3,0.8-0.8v-0.1L207.6,342.7L207.6,342.7z"/>
	<path class="st5" d="M208.8,338.3H188c0.1-0.3,0.4-0.5,0.7-0.5h19.4C208.4,337.8,208.7,338,208.8,338.3z"/>
	<path class="st24" d="M207.7,332.7v4.3c0,0.4-0.3,0.7-0.7,0.7h-19.4c-0.4,0-0.7-0.3-0.7-0.7v-4.3c0-0.1,0-0.2,0-0.2
		c0.1-0.3,0.4-0.5,0.7-0.5H207c0.3,0,0.6,0.2,0.7,0.5C207.7,332.6,207.7,332.6,207.7,332.7z"/>
	<path class="st25" d="M206.5,336.9v-4c0-0.1-0.1-0.3-0.3-0.3c-0.1,0-0.2,0.1-0.3,0.3v4h-1.1v-4c0-0.1-0.1-0.3-0.3-0.3
		s-0.3,0.1-0.3,0.3v4h-1.1v-4c0-0.1-0.1-0.3-0.3-0.3s-0.3,0.1-0.3,0.3v4h-1.1v-4c0-0.1-0.1-0.3-0.3-0.3s-0.3,0.1-0.3,0.3v4h-1.1v-4
		c0-0.1-0.1-0.2-0.3-0.3c-0.1,0-0.3,0.1-0.3,0.3v4H198v-4c0-0.1-0.1-0.3-0.3-0.3c-0.1,0-0.2,0.1-0.3,0.3v4h-1.1v-4
		c0-0.1-0.1-0.3-0.3-0.3s-0.3,0.1-0.3,0.3v4h-1.1v-4c0-0.1-0.1-0.3-0.3-0.3s-0.3,0.1-0.3,0.3v4h-1.2v-4c0-0.1-0.1-0.3-0.3-0.3
		s-0.3,0.1-0.3,0.3v4h-1.1v-4c0-0.1-0.1-0.3-0.3-0.3s-0.3,0.1-0.3,0.3v3.8c-0.1-0.1-0.2-0.3-0.2-0.5l-0.1-2.7c0-0.4-0.3-0.7-0.7-0.8
		l0,0h-2.7c-0.4,0-0.8,0.3-0.8,0.8v3.6c0,0.4,0.3,0.7,0.7,0.7l0,0H207c0.4,0,0.8-0.3,0.8-0.8v-0.1H206.5z"/>
	<path class="st5" d="M207.7,332.5h-20.8c0.1-0.3,0.4-0.5,0.7-0.5H207C207.3,332,207.6,332.2,207.7,332.5z"/>
	<path class="st24" d="M178.3,396.7v4.3c0,0.4-0.3,0.7-0.7,0.7h-19.4c-0.4,0-0.7-0.3-0.7-0.7v-4.3c0-0.1,0-0.2,0-0.2
		c0.1-0.3,0.4-0.5,0.7-0.5h19.4c0.3,0,0.6,0.2,0.7,0.5C178.3,396.6,178.3,396.6,178.3,396.7z"/>
	<path class="st25" d="M177.1,400.9v-4c0-0.1-0.1-0.3-0.3-0.3c-0.1,0-0.2,0.1-0.3,0.3v4h-1.1v-4c0-0.1-0.1-0.3-0.3-0.3
		s-0.3,0.1-0.3,0.3v4h-1.1v-4c0-0.1-0.1-0.3-0.3-0.3s-0.3,0.1-0.3,0.3v4H172v-4c0-0.1-0.1-0.3-0.3-0.3s-0.3,0.1-0.3,0.3v4h-1.1v-4
		c0-0.1-0.1-0.3-0.3-0.3s-0.3,0.1-0.3,0.3v4H169v-4c0-0.1-0.1-0.3-0.3-0.3l0,0c-0.1,0-0.3,0.1-0.3,0.3v4h-1.1v-4
		c0-0.1-0.1-0.3-0.3-0.3c-0.1,0-0.2,0.1-0.3,0.3v4h-1.1v-4c0-0.1-0.1-0.3-0.3-0.3s-0.3,0.1-0.3,0.3v4h-1.1v-4c0-0.1-0.1-0.3-0.3-0.3
		s-0.3,0.1-0.3,0.3v4h-1.1v-4c0-0.1-0.1-0.3-0.3-0.3s-0.3,0.1-0.3,0.3v3.8c-0.1-0.1-0.2-0.3-0.2-0.5l-0.1-2.7c0-0.4-0.3-0.7-0.7-0.8
		l0,0h-2.7c-0.4,0-0.8,0.3-0.8,0.8v3.6c0,0.4,0.3,0.7,0.7,0.7l0,0h19.4c0.4,0,0.8-0.3,0.8-0.8v-0.1H177.1z"/>
	<path class="st5" d="M178.3,396.5h-20.8c0.1-0.3,0.4-0.5,0.7-0.5h19.4C177.9,396,178.2,396.2,178.3,396.5z"/>
	<path class="st24" d="M176.3,390.9v4.3c0,0.4-0.3,0.7-0.7,0.7h-19.4c-0.4,0-0.7-0.3-0.7-0.7v-4.3c0-0.1,0-0.2,0-0.2
		c0.1-0.3,0.4-0.5,0.7-0.5h19.4c0.3,0,0.6,0.2,0.7,0.5C176.2,390.7,176.3,390.8,176.3,390.9z"/>
	<path class="st25" d="M175.1,395.1v-4c0-0.1-0.1-0.3-0.3-0.3s-0.3,0.1-0.3,0.3v4h-1.1v-4c0-0.1-0.1-0.2-0.3-0.3
		c-0.1,0-0.3,0.1-0.3,0.3v4h-1.1v-4c0-0.1-0.1-0.3-0.3-0.3c-0.1,0-0.2,0.1-0.3,0.3v4H170v-4c0-0.1-0.1-0.3-0.3-0.3s-0.3,0.1-0.3,0.3
		v4h-1.1v-4c0-0.1-0.1-0.3-0.3-0.3s-0.3,0.1-0.3,0.3v4h-1.1v-4c0-0.1-0.1-0.3-0.3-0.3s-0.3,0.1-0.3,0.3v4h-1.1v-4
		c0-0.1-0.1-0.3-0.3-0.3s-0.3,0.1-0.3,0.3v4h-1.1v-4c0-0.1-0.1-0.2-0.3-0.3c-0.1,0-0.3,0.1-0.3,0.3v4H162v-4c0-0.1-0.1-0.3-0.3-0.3
		c-0.1,0-0.2,0.1-0.3,0.3v4h-1.2v-4c0-0.1-0.1-0.3-0.3-0.3s-0.3,0.1-0.3,0.3v3.7c-0.1-0.1-0.2-0.3-0.2-0.5l-0.1-2.7
		c0-0.4-0.3-0.7-0.7-0.8l0,0h-2.7c-0.4,0-0.8,0.3-0.8,0.8v3.6c0,0.4,0.3,0.7,0.7,0.7l0,0h19.4c0.4,0,0.8-0.3,0.8-0.8V395
		L175.1,395.1L175.1,395.1z"/>
	<path class="st5" d="M176.2,390.7h-20.8c0.1-0.3,0.4-0.5,0.7-0.5h19.4C175.9,390.1,176.1,390.4,176.2,390.7z"/>
	<path class="st24" d="M179.2,385.1v4.3c0,0.4-0.3,0.7-0.7,0.7h-19.4c-0.4,0-0.7-0.3-0.7-0.7v-4.3c0-0.1,0-0.2,0-0.2
		c0.1-0.3,0.4-0.5,0.7-0.5h19.4c0.3,0,0.6,0.2,0.7,0.5C179.2,384.9,179.2,385,179.2,385.1z"/>
	<path class="st25" d="M178,389.3v-4c0-0.1-0.1-0.3-0.3-0.3c-0.1,0-0.2,0.1-0.3,0.3v4h-1.1v-4c0-0.1-0.1-0.3-0.3-0.3
		s-0.3,0.1-0.3,0.3v4h-1.1v-4c0-0.1-0.1-0.3-0.3-0.3s-0.3,0.1-0.3,0.3v4h-1.1v-4c0-0.1-0.1-0.3-0.3-0.3s-0.3,0.1-0.3,0.3v4h-1.1v-4
		c0-0.1-0.1-0.3-0.3-0.3s-0.3,0.1-0.3,0.3v4h-1.1v-4c0-0.1-0.1-0.2-0.3-0.3c-0.1,0-0.3,0.1-0.3,0.3v4h-1.1v-4c0-0.1-0.1-0.3-0.3-0.3
		c-0.1,0-0.2,0.1-0.3,0.3v4h-1.1v-4c0-0.1-0.1-0.3-0.3-0.3s-0.3,0.1-0.3,0.3v4H165v-4c0-0.1-0.1-0.3-0.3-0.3s-0.3,0.1-0.3,0.3v4
		h-1.1v-4c0-0.1-0.1-0.3-0.3-0.3s-0.3,0.1-0.3,0.3v3.7c-0.1-0.1-0.2-0.3-0.2-0.5l-0.1-2.7c0-0.4-0.3-0.7-0.7-0.8l0,0H159
		c-0.4,0-0.8,0.3-0.8,0.8v3.6c0,0.4,0.3,0.7,0.7,0.7l0,0h19.4c0.4,0,0.8-0.3,0.8-0.8v-0.1L178,389.3L178,389.3z"/>
	<path class="st5" d="M179.2,384.8h-20.8c0.1-0.3,0.4-0.5,0.7-0.5h19.4C178.8,384.3,179.1,384.5,179.2,384.8z"/>
	<path class="st24" d="M178.2,379.2v4.3c0,0.4-0.3,0.7-0.7,0.7h-19.4c-0.4,0-0.7-0.3-0.7-0.7v-4.3c0-0.1,0-0.2,0-0.2
		c0.1-0.3,0.4-0.5,0.7-0.5h19.4c0.3,0,0.6,0.2,0.7,0.5C178.1,379.1,178.2,379.2,178.2,379.2z"/>
	<path class="st25" d="M177,383.5v-4c0-0.1-0.1-0.3-0.3-0.3s-0.3,0.1-0.3,0.3v4h-1.1v-4c0-0.1-0.1-0.2-0.3-0.3
		c-0.1,0-0.3,0.1-0.3,0.3v4h-1.1v-4c0-0.1-0.1-0.3-0.3-0.3c-0.1,0-0.2,0.1-0.3,0.3v4h-1.1v-4c0-0.1-0.1-0.3-0.3-0.3
		s-0.3,0.1-0.3,0.3v4h-1.1v-4c0-0.1-0.1-0.3-0.3-0.3s-0.3,0.1-0.3,0.3v4h-1.1v-4c0-0.1-0.1-0.3-0.3-0.3s-0.3,0.1-0.3,0.3v4h-1.1v-4
		c0-0.1-0.1-0.3-0.3-0.3s-0.3,0.1-0.3,0.3v4h-1.1v-4c0-0.1-0.1-0.2-0.3-0.3c-0.1,0-0.3,0.1-0.3,0.3v4h-1.1v-4c0-0.1-0.1-0.3-0.3-0.3
		c-0.1,0-0.2,0.1-0.3,0.3v4h-1.1v-4c0-0.1-0.1-0.3-0.3-0.3s-0.3,0.1-0.3,0.3v3.7c-0.1-0.1-0.2-0.3-0.2-0.5l-0.1-2.7
		c0-0.4-0.3-0.7-0.7-0.8l0,0H158c-0.4,0-0.8,0.3-0.8,0.8v3.6c0,0.4,0.3,0.7,0.7,0.7l0,0h19.4c0.4,0,0.8-0.3,0.8-0.8v-0.1L177,383.5
		L177,383.5z"/>
	<path class="st5" d="M178.1,379h-20.8c0.1-0.3,0.4-0.5,0.7-0.5h19.4C177.7,378.5,178,378.7,178.1,379z"/>
	<path class="st24" d="M177.1,373.4v4.3c0,0.4-0.3,0.7-0.7,0.7H157c-0.4,0-0.7-0.3-0.7-0.7v-4.3c0-0.1,0-0.2,0-0.2
		c0.1-0.3,0.4-0.5,0.7-0.5h19.4c0.3,0,0.6,0.2,0.7,0.5C177.1,373.3,177.1,373.3,177.1,373.4z"/>
	<path class="st25" d="M175.9,377.6v-3.9c0-0.1-0.1-0.3-0.3-0.3s-0.3,0.1-0.3,0.3v4h-1.1v-4c0-0.1-0.1-0.3-0.3-0.3s-0.3,0.1-0.3,0.3
		v4h-1.1v-4c0-0.1-0.1-0.3-0.3-0.3s-0.3,0.1-0.3,0.3v4h-1.1v-4c0-0.1-0.1-0.3-0.3-0.3s-0.3,0.1-0.3,0.3v4H169v-4
		c0-0.1-0.1-0.2-0.3-0.3c-0.1,0-0.3,0.1-0.3,0.3v4h-1.1v-4c0-0.1-0.1-0.3-0.3-0.3c-0.1,0-0.2,0.1-0.3,0.3v4h-1.1v-4
		c0-0.1-0.1-0.3-0.3-0.3s-0.3,0.1-0.3,0.3v4h-1.1v-4c0-0.1-0.1-0.3-0.3-0.3s-0.3,0.1-0.3,0.3v4h-1.1v-4c0-0.1-0.1-0.3-0.3-0.3
		s-0.3,0.1-0.3,0.3v4h-1.1v-4c0-0.1-0.1-0.2-0.3-0.3c-0.1,0-0.3,0.1-0.3,0.3v3.7c-0.1-0.1-0.2-0.3-0.2-0.5l-0.1-2.7
		c0-0.4-0.3-0.7-0.7-0.8l0,0H157c-0.4,0-0.8,0.3-0.8,0.8v3.6c0,0.4,0.3,0.7,0.7,0.7l0,0h19.4c0.4,0,0.8-0.3,0.8-0.8v-0.1
		L175.9,377.6z"/>
	<path class="st5" d="M177.1,373.2h-20.8c0.1-0.3,0.4-0.5,0.7-0.5h19.4C176.7,372.7,177,372.9,177.1,373.2z"/>
	<path class="st24" d="M177.1,367.6v4.3c0,0.4-0.3,0.7-0.7,0.7H157c-0.4,0-0.7-0.3-0.7-0.7v-4.3c0-0.1,0-0.2,0-0.2
		c0.1-0.3,0.4-0.5,0.7-0.5h19.4c0.3,0,0.6,0.2,0.7,0.5C177,367.4,177,367.5,177.1,367.6z"/>
	<path class="st25" d="M175.9,371.8v-4c0-0.1-0.1-0.3-0.3-0.3s-0.3,0.1-0.3,0.3v4h-1.1v-4c0-0.1-0.1-0.2-0.3-0.3
		c-0.1,0-0.3,0.1-0.3,0.3v4h-1.1v-4c0-0.1-0.1-0.3-0.3-0.3c-0.1,0-0.2,0.1-0.3,0.3v4H171v-4c0-0.1-0.1-0.3-0.3-0.3s-0.3,0.1-0.3,0.3
		v4h-1.1v-4c0-0.1-0.1-0.3-0.3-0.3s-0.3,0.1-0.3,0.3v4h-1.1v-4c0-0.1-0.1-0.3-0.3-0.3s-0.3,0.1-0.3,0.3v4h-1.1v-4
		c0-0.1-0.1-0.2-0.3-0.3c-0.1,0-0.3,0.1-0.3,0.3v4h-1.1v-4c0-0.1-0.1-0.3-0.3-0.3c-0.1,0-0.2,0.1-0.3,0.3v4h-1.1v-4
		c0-0.1-0.1-0.3-0.3-0.3s-0.3,0.1-0.3,0.3v4h-1.1v-4c0-0.1-0.1-0.3-0.3-0.3s-0.3,0.1-0.3,0.3v3.7c-0.1-0.1-0.2-0.3-0.2-0.5l-0.1-2.7
		c0-0.4-0.3-0.7-0.7-0.8l0,0h-2.7c-0.4,0-0.8,0.3-0.8,0.8v3.6c0,0.4,0.3,0.7,0.7,0.7l0,0h19.4c0.4,0,0.8-0.3,0.8-0.8v-0.1
		L175.9,371.8z"/>
	<path class="st5" d="M177,367.4h-20.8c0.1-0.3,0.4-0.5,0.7-0.5h19.4C176.6,366.9,176.9,367.1,177,367.4z"/>
	<path class="st24" d="M178,361.8v4.3c0,0.4-0.3,0.7-0.7,0.7h-19.4c-0.4,0-0.7-0.3-0.7-0.7v-4.3c0-0.1,0-0.2,0-0.2
		c0.1-0.3,0.4-0.5,0.7-0.5h19.4c0.3,0,0.6,0.2,0.7,0.5C178,361.6,178,361.7,178,361.8z"/>
	<path class="st25" d="M176.8,366v-4c0-0.1-0.1-0.3-0.3-0.3s-0.3,0.1-0.3,0.3v4h-1.1v-4c0-0.1-0.1-0.3-0.3-0.3s-0.3,0.1-0.3,0.3v4
		h-1.1v-4c0-0.1-0.1-0.3-0.3-0.3s-0.3,0.1-0.3,0.3v4h-1.1v-4c0-0.1-0.1-0.2-0.3-0.3c-0.1,0-0.3,0.1-0.3,0.3v4H170v-4
		c0-0.1-0.1-0.3-0.3-0.3c-0.1,0-0.2,0.1-0.3,0.3v4h-1.1v-4c0-0.1-0.1-0.3-0.3-0.3s-0.3,0.1-0.3,0.3v4h-1.1v-4c0-0.1-0.1-0.3-0.3-0.3
		s-0.3,0.1-0.3,0.3v4h-1.1v-4c0-0.1-0.1-0.3-0.3-0.3s-0.3,0.1-0.3,0.3v4h-1.1v-4c0-0.1-0.1-0.3-0.3-0.3s-0.3,0.1-0.3,0.3v4h-1.1v-4
		c0-0.1-0.1-0.2-0.3-0.3c-0.1,0-0.3,0.1-0.3,0.3v3.7c-0.1-0.1-0.2-0.3-0.2-0.5l-0.1-2.7c0-0.4-0.3-0.7-0.7-0.8l0,0h-2.8
		c-0.4,0-0.8,0.3-0.8,0.8v3.6c0,0.4,0.3,0.7,0.7,0.7l0,0h19.4c0.4,0,0.8-0.3,0.8-0.8v0H176.8z"/>
	<path class="st5" d="M178,361.6h-20.8c0.1-0.3,0.4-0.5,0.7-0.5h19.4C177.6,361,177.9,361.3,178,361.6z"/>
	<polygon class="st18" points="232.5,270.1 234,262 225.9,263.5 227.6,265.2 145.2,347.5 148.5,350.8 230.8,268.4 	"/>
</g>
<g id="freepik--coins-1--inject-47">
	<path class="st24" d="M79.6,396.7v4.3c0,0.4-0.3,0.7-0.7,0.7H59.5c-0.4,0-0.7-0.3-0.7-0.7v-4.3c0-0.1,0-0.2,0-0.2
		c0.1-0.3,0.4-0.5,0.7-0.5h19.4c0.3,0,0.6,0.2,0.7,0.5C79.6,396.6,79.6,396.6,79.6,396.7z"/>
	<path class="st25" d="M78.4,400.9v-4c0-0.1-0.1-0.3-0.3-0.3s-0.3,0.1-0.3,0.3v4h-1.1v-4c0-0.1-0.1-0.2-0.3-0.3
		c-0.1,0-0.3,0.1-0.3,0.3v4H75v-4c0-0.1-0.1-0.3-0.3-0.3c-0.1,0-0.2,0.1-0.3,0.3v4h-1.1v-4c0-0.1-0.1-0.3-0.3-0.3s0,0.2,0,0.4v4
		h-1.1v-4c0-0.1-0.1-0.3-0.3-0.3s-0.3,0.1-0.3,0.3v4h-1.1v-4c0-0.1-0.1-0.3-0.3-0.3s-0.3,0.1-0.3,0.3v4h-1.1v-4
		c0-0.1-0.1-0.2-0.3-0.3c-0.1,0-0.3,0.1-0.3,0.3v4H67v-4c0-0.1-0.1-0.3-0.2-0.3l0,0c-0.1,0-0.2,0.1-0.3,0.3v4h-1.1v-4
		c0-0.1-0.1-0.3-0.3-0.3s-0.3,0.1-0.3,0.3v4h-1.1v-4c0-0.1-0.1-0.3-0.3-0.3s-0.3,0.1-0.3,0.3v3.8c-0.1-0.1-0.2-0.3-0.2-0.5l-0.1-2.7
		c0-0.4-0.3-0.7-0.7-0.8l0,0h-2.7c-0.4,0-0.8,0.3-0.8,0.8v3.6c0,0.4,0.3,0.7,0.7,0.7l0,0h19.4c0.4,0,0.8-0.3,0.8-0.8V401L78.4,400.9
		z"/>
	<path class="st5" d="M79.5,396.5H58.8c0.1-0.3,0.4-0.5,0.7-0.5h19.4C79.2,396,79.5,396.2,79.5,396.5z"/>
	<circle class="st25" cx="92" cy="334.8" r="10.4"/>
	<path class="st24" d="M100.6,338.1c-1.5,4.7-6.5,7.2-11.2,5.7s-7.2-6.5-5.7-11.2s6.5-7.2,11.2-5.7
		C99.6,328.5,102.1,333.5,100.6,338.1L100.6,338.1z"/>
	<path class="st25" d="M91.2,340.1l-0.5,1.4l-1.1-0.3l0.5-1.4c-1.1-0.4-2.1-1.1-2.8-2.1l1-1.1c0.6,0.8,1.3,1.4,2.2,1.8l0.8-2.5
		c-1.3-0.8-2.7-1.8-2.1-3.5c0.4-1.3,1.7-2.1,3.8-1.7l0.5-1.4l1,0.3L94,331c0.9,0.3,1.7,0.9,2.3,1.6l-0.9,1.1c-0.5-0.6-1.1-1-1.8-1.4
		l-0.8,2.6c1.3,0.8,2.7,1.8,2.1,3.5C94.6,339.8,93.3,340.6,91.2,340.1z M92,334.3l0.7-2.3c-0.9-0.2-1.5,0.2-1.7,0.7
		S91.3,333.9,92,334.3z M93.4,338.1c0.2-0.6-0.3-1.1-0.9-1.6l-0.7,2.2C92.7,338.9,93.2,338.6,93.4,338.1L93.4,338.1z"/>
	<circle class="st25" cx="136.3" cy="387.6" r="10.4"/>
	<circle class="st24" cx="136.3" cy="387.6" r="8.9"/>
	<path class="st25" d="M136.9,392.4v1.5h-1.1v-1.5c-1.2,0-2.3-0.4-3.3-1.1l0.6-1.4c0.8,0.6,1.7,0.9,2.7,1v-2.7
		c-1.5-0.4-3.1-0.9-3.1-2.7c0-1.4,1-2.5,3.1-2.8v-1.5h1.1v1.5c1,0,1.9,0.3,2.7,0.8l-0.5,1.4c-0.7-0.4-1.4-0.6-2.2-0.7v2.7
		c1.5,0.4,3.1,0.8,3.1,2.7C140,391,139,392.2,136.9,392.4z M135.8,386.7v-2.4c-1,0.1-1.4,0.6-1.4,1.2S135,386.5,135.8,386.7
		L135.8,386.7z M138.3,389.8c0-0.7-0.6-1-1.4-1.2v2.4C137.9,390.8,138.3,390.4,138.3,389.8L138.3,389.8z"/>
	<path class="st18" d="M92.4,401c-0.1,0-0.2,0-0.3-0.1c-0.2-0.1-0.3-0.4-0.2-0.7c0.1-0.1,0.1-0.2,0.2-0.4c-0.3,0-0.5-0.2-0.5-0.4
		c0,0,0,0,0-0.1v-2c0-0.3,0.2-0.5,0.5-0.5s0.5,0.2,0.5,0.5v1.8c0.1-0.2,0.3-0.4,0.4-0.6c0.2-0.2,0.5-0.2,0.7,0s0.2,0.4,0.1,0.6
		c-0.5,0.7-0.9,1.3-1.1,1.6C92.7,400.9,92.5,401,92.4,401z M94.7,397.8c-0.1,0-0.2,0-0.3-0.1c-0.2-0.2-0.2-0.5-0.1-0.7
		c0.4-0.5,0.8-1,1.3-1.5c0.2-0.2,0.5-0.2,0.7,0l0,0c0.2,0.2,0.2,0.5,0,0.7l0,0c-0.5,0.5-0.9,1-1.3,1.5
		C95,397.7,94.8,397.8,94.7,397.8L94.7,397.8z M92.1,395.9c-0.3,0-0.5-0.2-0.5-0.5v-2c0-0.3,0.2-0.5,0.5-0.5s0.5,0.2,0.5,0.5v2
		C92.6,395.7,92.4,395.9,92.1,395.9z M97.4,394.8c-0.3,0-0.5-0.2-0.5-0.5c0-0.1,0.1-0.3,0.2-0.4c0.5-0.5,1-0.9,1.5-1.4
		c0.2-0.2,0.5-0.2,0.7,0l0,0c0.2,0.2,0.1,0.5-0.1,0.7c-0.5,0.4-1,0.9-1.5,1.3C97.7,394.8,97.5,394.8,97.4,394.8L97.4,394.8z
		 M100.4,392.2c-0.3,0-0.5-0.2-0.5-0.5c0-0.2,0.1-0.3,0.2-0.4c0.5-0.4,1.1-0.8,1.7-1.2c0.2-0.1,0.5,0,0.7,0.2
		c0.1,0.2,0.1,0.5-0.1,0.6c-0.6,0.4-1.1,0.8-1.6,1.1C100.6,392.2,100.5,392.2,100.4,392.2L100.4,392.2z M92.1,391.9
		c-0.3,0-0.5-0.2-0.5-0.5v-2c0-0.3,0.2-0.5,0.5-0.5s0.5,0.2,0.5,0.5v2C92.6,391.7,92.4,391.9,92.1,391.9L92.1,391.9z M103.7,390
		c-0.3,0-0.5-0.2-0.5-0.5c0-0.2,0.1-0.3,0.2-0.4c0.6-0.3,1.2-0.6,1.8-1c0.2-0.1,0.5,0,0.7,0.2c0.1,0.2,0,0.5-0.2,0.7
		c-0.6,0.3-1.2,0.6-1.7,0.9C103.9,390,103.9,390,103.7,390L103.7,390z M107.3,388.3c-0.2,0-0.4-0.1-0.5-0.3c-0.1-0.3,0-0.5,0.3-0.7
		l0,0c0.6-0.3,1.2-0.5,1.9-0.7c0.3-0.1,0.6,0.1,0.7,0.3c0.1,0.3-0.1,0.6-0.3,0.7c-0.6,0.2-1.3,0.5-1.8,0.7
		C107.5,388.3,107.4,388.3,107.3,388.3L107.3,388.3z M92.1,387.9c-0.3,0-0.5-0.2-0.5-0.5v-2c0-0.3,0.2-0.5,0.5-0.5s0.5,0.2,0.5,0.5
		v2C92.6,387.7,92.4,387.9,92.1,387.9L92.1,387.9z M111.1,386.9c-0.2,0-0.4-0.1-0.5-0.4s0.1-0.5,0.3-0.6c0.6-0.2,1.3-0.4,2-0.5
		c0.3-0.1,0.5,0.1,0.6,0.4s-0.1,0.5-0.4,0.6C112.5,386.5,111.8,386.7,111.1,386.9L111.1,386.9z M115,386c-0.3,0-0.5-0.2-0.5-0.5
		s0.2-0.5,0.5-0.5c0.6-0.1,1.3-0.2,2-0.3c0.3,0,0.5,0.2,0.6,0.4s-0.2,0.5-0.4,0.6C116.3,385.8,115.7,385.9,115,386L115,386z
		 M119,385.6c-0.3,0-0.5-0.2-0.5-0.5s0.2-0.5,0.5-0.5c0.7,0,1.3-0.1,2-0.1l0,0c0.3,0,0.5,0.2,0.5,0.5s-0.2,0.5-0.5,0.5
		C120.3,385.5,119.6,385.5,119,385.6L119,385.6z M123.8,385.6L123.8,385.6H123c-0.3,0-0.5-0.2-0.5-0.5l0,0c0-0.3,0.2-0.5,0.5-0.5
		s0.5,0,0.8,0s0.5,0.2,0.5,0.5S124.1,385.6,123.8,385.6L123.8,385.6z M92.1,383.9c-0.3,0-0.5-0.2-0.5-0.5v-2c0-0.3,0.2-0.5,0.5-0.5
		s0.5,0.2,0.5,0.5v2C92.6,383.7,92.4,383.9,92.1,383.9L92.1,383.9z M92.1,379.9c-0.3,0-0.5-0.2-0.5-0.5v-2c0-0.3,0.2-0.5,0.5-0.5
		s0.5,0.2,0.5,0.5v2C92.6,379.7,92.4,379.9,92.1,379.9L92.1,379.9z M92.1,375.9c-0.3,0-0.5-0.2-0.5-0.5v-2c0-0.3,0.2-0.5,0.5-0.5
		s0.5,0.2,0.5,0.5v2C92.6,375.7,92.4,375.9,92.1,375.9L92.1,375.9z M92.1,371.9c-0.3,0-0.5-0.2-0.5-0.5v-2c0-0.3,0.2-0.5,0.5-0.5
		s0.5,0.2,0.5,0.5v2C92.6,371.7,92.4,371.9,92.1,371.9L92.1,371.9z M92.1,367.9c-0.3,0-0.5-0.2-0.5-0.5v-2c0-0.3,0.2-0.5,0.5-0.5
		s0.5,0.2,0.5,0.5v2C92.6,367.7,92.4,367.9,92.1,367.9L92.1,367.9z M92.1,363.9c-0.3,0-0.5-0.2-0.5-0.5v-2c0-0.3,0.2-0.5,0.5-0.5
		s0.5,0.2,0.5,0.5v2C92.6,363.7,92.4,363.9,92.1,363.9L92.1,363.9z M92.1,359.9c-0.3,0-0.5-0.2-0.5-0.5v-2c0-0.3,0.2-0.5,0.5-0.5
		s0.5,0.2,0.5,0.5v2C92.6,359.7,92.4,359.9,92.1,359.9L92.1,359.9z M92.1,355.9c-0.3,0-0.5-0.2-0.5-0.5v-2c0-0.3,0.2-0.5,0.5-0.5
		s0.5,0.2,0.5,0.5v2C92.6,355.7,92.4,355.9,92.1,355.9L92.1,355.9z M92.1,351.9c-0.3,0-0.5-0.2-0.5-0.5v-2c0-0.3,0.2-0.5,0.5-0.5
		s0.5,0.2,0.5,0.5v2C92.6,351.7,92.4,351.9,92.1,351.9L92.1,351.9z"/>
	<path class="st25" d="M197.3,383c4.6,3.5,5.5,10,2,14.6s-10,5.5-14.6,2s-5.5-10-2-14.6C186.1,380.4,192.7,379.6,197.3,383z"/>
	<path class="st24" d="M196.3,384.2c3.9,3,4.7,8.5,1.7,12.4s-8.5,4.7-12.4,1.7s-4.7-8.5-1.7-12.4C186.9,382,192.4,381.3,196.3,384.2
		z"/>
	<path class="st25" d="M195.2,393.7l1.2,0.9l-0.7,0.9l-1.2-0.9c-0.7,0.9-1.7,1.6-2.9,2l-0.7-1.3c0.9-0.3,1.8-0.8,2.4-1.5l-2.1-1.6
		c-1.2,1-2.5,1.9-4,0.8c-1.1-0.8-1.4-2.3-0.3-4.1l-1.2-0.9l0.7-0.9l1.2,0.9c0.6-0.7,1.4-1.3,2.3-1.7l0.8,1.3
		c-0.7,0.3-1.4,0.7-1.9,1.3l2.2,1.6c1.2-1,2.5-2,4-0.9C195.9,390.4,196.3,391.9,195.2,393.7z M189.9,391.1l-1.9-1.4
		c-0.5,0.9-0.3,1.5,0.2,1.8S189.3,391.6,189.9,391.1L189.9,391.1z M193.9,391c-0.5-0.4-1.1-0.1-1.8,0.4l1.9,1.4
		C194.5,392,194.4,391.4,193.9,391L193.9,391z"/>
	<path class="st18" d="M145.9,401.4c-0.1,0-0.2,0-0.3-0.1c-0.2-0.2-0.3-0.5-0.1-0.7c0,0,0.4-0.6,1.3-1.6c0.2-0.2,0.5-0.2,0.7-0.1
		c0.2,0.2,0.2,0.5,0.1,0.7c-0.8,0.9-1.2,1.5-1.2,1.5C146.2,401.4,146.1,401.4,145.9,401.4z M148.5,398.4c-0.1,0-0.3-0.1-0.4-0.1
		c-0.2-0.2-0.2-0.5,0-0.7l0,0c0.4-0.5,0.9-0.9,1.5-1.4c0.2-0.2,0.5-0.2,0.7,0s0.2,0.5,0,0.7c0,0,0,0-0.1,0c-0.5,0.5-1,1-1.4,1.4
		C148.8,398.3,148.6,398.4,148.5,398.4L148.5,398.4z M151.4,395.7c-0.2,0-0.3-0.1-0.4-0.2c-0.2-0.2-0.1-0.5,0.1-0.7
		c0.5-0.4,1-0.8,1.6-1.3c0.2-0.2,0.5-0.1,0.7,0.1s0.1,0.5-0.1,0.7l0,0c-0.5,0.4-1.1,0.8-1.5,1.2
		C151.7,395.6,151.6,395.7,151.4,395.7L151.4,395.7z M154.6,393.3c-0.2,0-0.3-0.1-0.4-0.2c-0.2-0.2-0.1-0.5,0.1-0.7l0,0
		c0.5-0.4,1.1-0.7,1.7-1.1c0.2-0.1,0.5-0.1,0.7,0.1l0,0c0.1,0.2,0.1,0.5-0.2,0.7l0,0c-0.6,0.3-1.1,0.7-1.7,1
		C154.8,393.2,154.7,393.3,154.6,393.3L154.6,393.3z M158.1,391.3c-0.2,0-0.4-0.1-0.4-0.3c-0.1-0.2,0-0.5,0.2-0.7l0,0
		c0.6-0.3,1.2-0.6,1.8-0.9c0.3-0.1,0.6,0,0.7,0.3c0.1,0.3,0,0.5-0.3,0.7c-0.6,0.3-1.2,0.6-1.8,0.9
		C158.2,391.2,158.1,391.2,158.1,391.3L158.1,391.3z M161.7,389.6c-0.2,0-0.4-0.1-0.5-0.3c-0.1-0.3,0-0.5,0.3-0.6l0,0
		c0.6-0.3,1.3-0.5,1.9-0.7c0.3-0.1,0.5,0,0.6,0.3l0,0c0.1,0.3-0.1,0.5-0.3,0.6c-0.6,0.2-1.3,0.4-1.9,0.7
		C161.8,389.6,161.8,389.6,161.7,389.6L161.7,389.6z M165.5,388.3c-0.2,0-0.4-0.1-0.5-0.4s0.1-0.5,0.3-0.6l0,0
		c0.6-0.2,1.3-0.3,2-0.5c0.3-0.1,0.5,0.1,0.6,0.4s-0.1,0.5-0.4,0.6c-0.6,0.1-1.3,0.3-1.9,0.5C165.6,388.3,165.5,388.3,165.5,388.3
		L165.5,388.3z M169.4,387.5c-0.3,0-0.5-0.2-0.5-0.5s0.2-0.5,0.5-0.5c0.6-0.1,1.3-0.2,2-0.3c0.3,0,0.5,0.2,0.5,0.4
		c0,0.3-0.2,0.5-0.4,0.5l0,0C170.8,387.3,170.1,387.4,169.4,387.5L169.4,387.5z M179.4,387.1L179.4,387.1c-0.7-0.1-1.3-0.1-2-0.1
		c-0.3,0-0.5-0.2-0.5-0.5l0,0c0-0.3,0.2-0.5,0.5-0.5c0.7,0,1.3,0,2,0.1c0.3,0,0.5,0.3,0.5,0.5C179.9,386.9,179.6,387.1,179.4,387.1
		L179.4,387.1z M173.4,387c-0.3,0-0.5-0.2-0.5-0.5s0.2-0.5,0.4-0.5l0,0c0.7,0,1.3-0.1,2-0.1c0.3,0,0.5,0.2,0.5,0.4c0,0,0,0,0,0.1
		c0,0.3-0.2,0.5-0.5,0.5C174.7,387,174.1,387,173.4,387L173.4,387z"/>
	<path class="st24" d="M119.6,396.7v4.3c0,0.4-0.3,0.7-0.7,0.7H99.5c-0.4,0-0.7-0.3-0.7-0.7v-4.3c0-0.1,0-0.2,0-0.2
		c0.1-0.3,0.4-0.5,0.7-0.5h19.4c0.3,0,0.6,0.2,0.7,0.5C119.6,396.6,119.6,396.6,119.6,396.7z"/>
	<path class="st25" d="M118.4,400.9v-4c0-0.1-0.1-0.3-0.3-0.3s-0.3,0.1-0.3,0.3v4h-1.1v-4c0-0.1-0.1-0.3-0.3-0.3s-0.3,0.1-0.3,0.3v4
		H115v-4c0-0.1-0.1-0.3-0.3-0.3s-0.3,0.1-0.3,0.3v4h-1.1v-4c0-0.1-0.1-0.3-0.3-0.3s-0.3,0.1-0.3,0.3v4h-1.1v-4
		c0-0.1-0.1-0.2-0.2-0.3c-0.1,0-0.3,0.1-0.3,0.3v4H110v-4c0-0.1-0.1-0.3-0.3-0.3c-0.1,0-0.2,0.1-0.3,0.3v4h-1.1v-4
		c0-0.1-0.1-0.3-0.3-0.3s-0.3,0.1-0.3,0.3v4H107v-4c0-0.1-0.1-0.3-0.3-0.3s-0.3,0.1-0.3,0.3v4h-1.1v-4c0-0.1-0.1-0.3-0.3-0.3
		s-0.3,0.1-0.3,0.3v4h-1.2v-4c0-0.1-0.1-0.2-0.3-0.3c-0.1,0-0.3,0.1-0.3,0.3v3.8c-0.1-0.1-0.2-0.3-0.2-0.5l-0.1-2.7
		c0-0.4-0.3-0.7-0.7-0.8l0,0h-2.7c-0.4,0-0.8,0.3-0.8,0.8v3.6c0,0.4,0.3,0.7,0.7,0.7l0,0h19.4c0.4,0,0.8-0.3,0.8-0.8v-0.1H118.4z"/>
	<path class="st5" d="M119.6,396.5H98.8c0.1-0.3,0.4-0.5,0.7-0.5h19.4C119.2,396,119.5,396.2,119.6,396.5z"/>
	<path class="st24" d="M84.5,390.7v4.3c0,0.4-0.3,0.7-0.7,0.7H64.4c-0.4,0-0.7-0.3-0.7-0.7v-4.3c0-0.1,0-0.2,0-0.2
		c0.1-0.3,0.4-0.5,0.7-0.5h19.4c0.3,0,0.6,0.2,0.7,0.5C84.5,390.5,84.5,390.6,84.5,390.7z"/>
	<path class="st25" d="M83.3,394.9V391c0-0.1-0.1-0.3-0.3-0.3s-0.3,0.1-0.3,0.3v4h-1.1v-4c0-0.1-0.1-0.3-0.3-0.3S81,390.8,81,391v4
		h-1.1v-4c0-0.1-0.1-0.3-0.3-0.3s-0.3,0.1-0.3,0.3v4h-1.1v-4c0-0.1-0.1-0.3-0.3-0.3s-0.3,0.1-0.3,0.3v4h-1.1v-4
		c0-0.1-0.1-0.2-0.3-0.3c-0.1,0-0.3,0.1-0.3,0.3v4h-1.1v-4c0-0.1-0.1-0.3-0.3-0.3c-0.1,0-0.2,0.1-0.3,0.3v4h-1.1v-4
		c0-0.1-0.1-0.3-0.3-0.3s-0.3,0.1-0.3,0.3v4h-1.1v-4c0-0.1-0.1-0.3-0.3-0.3s-0.3,0.1-0.3,0.3v4h-1.1v-4c0-0.1-0.1-0.3-0.3-0.3
		s-0.3,0.1-0.3,0.3v4H68v-4c0-0.1-0.1-0.2-0.3-0.3c-0.1,0-0.3,0.1-0.3,0.3v3.7c-0.1-0.1-0.2-0.3-0.2-0.5l-0.1-2.7
		c0-0.4-0.3-0.7-0.7-0.8l0,0h-2.7c-0.4,0-0.7,0.3-0.8,0.8l0.1,3.6c0,0.4,0.3,0.7,0.7,0.7l0,0h19.4c0.4,0,0.8-0.3,0.8-0.8v-0.1
		L83.3,394.9z"/>
	<path class="st5" d="M84.5,390.4H63.7c0.1-0.3,0.4-0.5,0.7-0.5h19.4C84.1,389.9,84.4,390.1,84.5,390.4z"/>
</g>
</svg>
