<?xml version="1.0" encoding="utf-8"?>
<!-- Generator: Adobe Illustrator 23.0.2, SVG Export Plug-In . SVG Version: 6.00 Build 0)  -->
<svg version="1.1" id="Layer_1" xmlns="http://www.w3.org/2000/svg" xmlns:xlink="http://www.w3.org/1999/xlink" x="0px" y="0px"
	 viewBox="0 0 500 500" style="enable-background:new 0 0 500 500;" xml:space="preserve">
<style type="text/css">
	.st0{fill:#92E3A9;}
	.st1{fill:#FFFFFF;}
	.st2{fill:#BABABA;}
	.st3{fill:none;stroke:#FFFFFF;stroke-linecap:round;stroke-linejoin:round;}
	.st4{fill:#00A4FF;stroke:#000000;stroke-miterlimit:10;}
	.st5{fill:#92E3A9;stroke:#2E353A;stroke-linecap:round;stroke-linejoin:round;}
	.st6{fill:#EFEFEF;}
	.st7{fill:none;stroke:#BABABA;stroke-miterlimit:10;}
	.st8{fill:#FFFFFF;stroke:#2E353A;stroke-linecap:round;stroke-linejoin:round;}
	.st9{fill:#2E353A;stroke:#2E353A;stroke-linecap:round;stroke-linejoin:round;}
	.st10{fill:none;stroke:#FFFFFF;stroke-width:0.5;stroke-linecap:round;stroke-linejoin:round;}
	.st11{fill:none;stroke:#2E353A;stroke-width:0.5;stroke-linecap:round;stroke-linejoin:round;}
	.st12{fill:#2E353A;}
	.st13{fill:none;stroke:#2E353A;stroke-width:0.75;stroke-linecap:round;stroke-linejoin:round;}
	.st14{fill:none;stroke:#2E353A;stroke-linecap:round;stroke-linejoin:round;}
	.st15{fill:#72D2FC;stroke:#000000;stroke-miterlimit:10;}
</style>
<g id="freepik--background-simple--inject-1--inject-40">
	<path class="st0" d="M418.2,217.3c-5.6-13.3-17.5-24.9-26.5-35.8c-23.2-28.3-20.5-75-51.4-96.5c-24.2-16.9-58.6-22.7-86.8-13.4
		c-34.6,11.4-46.2,54.3-81.6,65.2c-51.9,16-89.6,32-102.6,66s31.8,47,22.4,77s-27.1,35-14.2,64s79,56,196.9,43
		c24.3-2.7,49.4-7.4,72.4-16c25.1-9.4,57.2-28.1,61.8-57.2c1.9-12.3-3.7-24-3-36.2C406.8,254.7,428.3,241.4,418.2,217.3z"/>
	<path class="st1" d="M418.2,217.3c-5.6-13.3-17.5-24.9-26.5-35.8c-23.2-28.3-20.5-75-51.4-96.5c-24.2-16.9-58.6-22.7-86.8-13.4
		c-34.6,11.4-46.2,54.3-81.6,65.2c-51.9,16-89.6,32-102.6,66s31.8,47,22.4,77s-27.1,35-14.2,64s79,56,196.9,43
		c24.3-2.7,49.4-7.4,72.4-16c25.1-9.4,57.2-28.1,61.8-57.2c1.9-12.3-3.7-24-3-36.2C406.8,254.7,428.3,241.4,418.2,217.3z"/>
</g>
<g id="freepik--Chart--inject-1--inject-40">
	<polygon class="st2" points="114.2,336.5 114.2,326.5 227.2,342.3 227.2,352.4 	"/>
	<polygon class="st2" points="227.2,342.3 273.1,277.1 273.1,287.1 227.2,352.4 	"/>
	<line class="st3" x1="227.2" y1="342.3" x2="227.2" y2="348"/>
	<path class="st2" d="M367.4,351.2c-7.7-27.6-43.4-50-90.4-57.7l-45.9,65.2l-113-15.8v-10.1c0,0-5.3,16.1-4.8,19.5v10.1
		c0,39.6,57.2,71.7,127.8,71.7S369,402,369,362.4v-10.1L367.4,351.2z"/>
	<line class="st3" x1="130.7" y1="382.8" x2="130.7" y2="396.9"/>
	<line class="st3" x1="135.6" y1="384.4" x2="135.6" y2="398.1"/>
	<line class="st3" x1="141.6" y1="393.3" x2="141.6" y2="399.4"/>
	<line class="st3" x1="141.6" y1="403.4" x2="141.6" y2="406.3"/>
	<line class="st3" x1="152.1" y1="394.9" x2="152.1" y2="412.3"/>
	<line class="st3" x1="171.1" y1="407.4" x2="171.1" y2="420.4"/>
	<line class="st3" x1="187.7" y1="424.7" x2="187.7" y2="427"/>
	<line class="st3" x1="187.7" y1="414.3" x2="187.7" y2="421.9"/>
	<line class="st3" x1="208.7" y1="420" x2="208.7" y2="430.3"/>
	<line class="st3" x1="350.3" y1="385.7" x2="350.3" y2="398"/>
	<line class="st3" x1="353.7" y1="383" x2="353.7" y2="392"/>
	<line class="st3" x1="358.7" y1="375.3" x2="358.7" y2="387.7"/>
	<line class="st3" x1="363.7" y1="371.7" x2="363.7" y2="377.3"/>
	<path class="st4" d="M277.1,283.5l-45.9,65.2l-113-15.9c-3.1,6-4.7,12.7-4.8,19.5c0,39.6,57.2,71.7,127.8,71.7S369,391.9,369,352.3
		C369,319.7,330.2,292.2,277.1,283.5z"/>
	<path class="st5" d="M273.1,277.1c-11.8-1.9-23.8-2.9-35.8-2.9c-58.5,0-107.9,22.1-123,52.2l113,15.9L273.1,277.1z"/>
	<path class="st6" d="M273.1,277.1c-11.8-1.9-23.8-2.9-35.8-2.9c-58.5,0-107.9,22.1-123,52.2l113,15.9L273.1,277.1z"/>
	<line class="st7" x1="347.9" y1="256.3" x2="382.4" y2="256.3"/>
	<line class="st7" x1="347.9" y1="260.3" x2="382.4" y2="260.3"/>
	<line class="st7" x1="347.9" y1="264.3" x2="382.4" y2="264.3"/>
	<line class="st7" x1="347.9" y1="268.3" x2="382.4" y2="268.3"/>
	<line class="st7" x1="347.9" y1="272.3" x2="382.4" y2="272.3"/>
	<line class="st7" x1="347.9" y1="276.3" x2="382.4" y2="276.3"/>
	<polyline class="st7" points="333.5,332 333.5,255.9 340.5,255.9 	"/>
	<line class="st7" x1="255.9" y1="101" x2="290.4" y2="101"/>
	<line class="st7" x1="255.9" y1="105" x2="290.4" y2="105"/>
	<line class="st7" x1="255.9" y1="109" x2="290.4" y2="109"/>
	<line class="st7" x1="255.9" y1="113" x2="290.4" y2="113"/>
	<line class="st7" x1="255.9" y1="117" x2="290.4" y2="117"/>
	<line class="st7" x1="255.9" y1="121" x2="290.4" y2="121"/>
	<polyline class="st7" points="241.5,249.3 241.5,100.6 248.5,100.6 	"/>
	<line class="st7" x1="241.5" y1="286" x2="241.5" y2="256.9"/>
</g>
<g id="freepik--character-2--inject-1--inject-40">
	<path class="st8" d="M280.3,361.9c0,0-0.8,0.7,0.7,1.5s3.7,0.7,6.5-0.5c2-0.9,4.2-1.6,6.3-2.2c1.2-0.2,1.7,0.2,2.1-1.3
		s-0.5-4.3-1-4.3s-3,0.7-6.8,2.8S281.9,362.1,280.3,361.9z"/>
	<path class="st8" d="M279.6,306.6c0,0,3.5,12.1,4.3,16.1s4,18.1,4.3,22.6s0.7,6.6,0.7,7.1s-4.5,4.8-5.1,6.1s-3,2.7-3.5,3.3
		s4,0.7,5,0.5s5-3.6,6.3-4.1s3.5,0.2,3.8-2.2s-1.3-5-1.3-5c-0.3-3.8-0.3-7.5,0-11.3c0.5-5.8,0.7-8.3,0-12.6c-0.7-4.3-1-8.6-1-13
		c0-5-0.2-7.6-0.2-7.6C288.7,308.6,283.8,308.6,279.6,306.6z"/>
	<path class="st9" d="M283.6,359.4l2.5,3.1l3.7-3l-2.9-4.2C286.9,355.3,284.1,357.3,283.6,359.4z"/>
	<path class="st8" d="M308.1,365.6c0,0-0.7,2.5,0.4,4.1c1,1.7,3.2,2.2,4.9,1.2l0.1-0.1c1.2-0.8,1.6-1.5,0.9-5.7
		S308.8,362.5,308.1,365.6z"/>
	<path class="st8" d="M287.9,309.8c0,0,1.8,7.8,4.5,12.6s10,19.8,13.1,24.1c4.3,5.8,1.8,20,2.8,21.3c1.7,2.2,5.1,2.3,6-0.2
		s-2.3-11.1-2.6-13s-0.8-12-2.8-20.1s-6.6-17-7.1-20.2c-0.3-1.8-0.3-3.7,0-5.5l-14.3,0.3"/>
	<path class="st9" d="M314.4,365.2c-0.2-1.1-0.4-2.1-0.6-3.1c-1.8-0.6-3.8-0.5-5.6,0.2c0,1.3-0.1,2.5,0,3.4
		C310.1,364.8,312.3,364.7,314.4,365.2z"/>
	<path class="st6" d="M281.4,311.5c2.7,3.3,6.5,5.5,10.7,6.3c6.9,1.3,10.1,0.3,10.1,0.3l-0.6-6.3l-20.7-5L281.4,311.5z"/>
	<path class="st9" d="M270.5,245.2c0,0-2.6,8.8-2,17.1c0.6,8.3,7.2,43.4,7.2,43.4c4.2,3.4,9,5.7,14.2,7c8.1,1.8,13.1-1.8,13.1-1.8
		s7.7-46,6.4-54.5c-1.3-8.5-4.1-12-4.1-12L270.5,245.2z"/>
	<path class="st10" d="M299.7,251.9c0,0-8.7,12.2-14.7,19.4"/>
	<path class="st10" d="M292.8,264.8c0,0-9,15.5-9.6,24.5"/>
	<path class="st9" d="M281.5,166.2c0,0-4.8-0.2-7.7-6.3s3.1-10.5,6.8-10.9s5.9,2.9,8.3,2.9c3.8-0.2,7.6-0.2,11.4,0
		c6.6,0.4,9.6,7.4,10.5,14.7s-2.9,15.5,0.6,21.7s16.2,19.3,14.2,31.5s-11.6,17.1-19.7,17.9s-11.6-2.6-13.6-7.4s-6.3-26-7.4-30.4
		s-0.6-13.4,1.1-17.7s1.3-12.5,1.8-14.9S281.5,166.2,281.5,166.2z"/>
	<path class="st10" d="M282.8,160.7c0,0-5.1-3-6.5-1.9s2.8,3.4,2.8,3.4"/>
	<path class="st10" d="M288.1,151.6c3,2.6,6.4,4.8,10.1,6.3c5.5,2.1,8.9,0.9,8.9,0.9"/>
	<path class="st10" d="M297,164.9c0,0,7.4-2.8,10.6-1.5"/>
	<path class="st10" d="M294.9,166.2c0,0-0.2,4.4,3,4.9s7.6,2.1,8.9,11.2s1.1,16.9,9.9,24.5s7.6,13.7,5.7,19.4"/>
	<path class="st10" d="M299.5,164.3c-1.8,0.3-3.6-0.1-5.1-1.1c-5.1-3.2-7.6-8.7-11.8-10.4s-5.9,4-5.9,4"/>
	<path class="st8" d="M279.3,193.1c0,0-5.4,0.2-8.1,2.6s-13.3,24.2-14.3,27s0.1,4.3,1.3,4.3s7.5-3.5,9.3-5.4s9-15.8,10.9-19.2
		S281.6,192.7,279.3,193.1z"/>
	<path class="st8" d="M272.6,213c2.3-4.3,4.7-8.9,5.7-10.6c1.8-3.4,3.3-9.6,0.9-9.3c0,0-5.4,0.2-8.1,2.6c-1.2,1.1-4,6.1-6.9,11.5
		L272.6,213z"/>
	<path class="st4" d="M287.4,190.5c0,0-7.4,1.5-8.1,2.6s-9,18.6-8.5,22.5s4.4,10.3,4.2,14.9s-4.4,14.7-4.4,14.7
		c2.8,3.3,6.7,5.3,10.9,5.7c7.4,0.9,18.6,0.4,25-4.6c0,0-3.7-9.2-3.7-14s0.4-12.7,0.4-12.7s3.3-22.3,2.6-24.1s-6.6-5.3-9.8-5.5
		C293,190,290.2,190.1,287.4,190.5z"/>
	<path class="st8" d="M300.5,191.5c-1.4-0.8-3-1.3-4.6-1.6c-2.9-0.1-5.7,0.1-8.5,0.4c0,0-1.9,0.4-3.9,0.9c-0.7,2.3-3.6,11.9-2,16.4
		C283.1,212.6,291.6,219,300.5,191.5z"/>
	<path class="st8" d="M288.2,189.4c-1.4-0.3-2.7,0.5-3.3,1.8c-0.9,2.2-3.9,10.7-3.9,10.7s6.1-1.1,7-1.3s7.7,5,7.7,5
		c1.9-3.5,3.1-7.4,3.3-11.4C299.2,188.1,290.2,186.8,288.2,189.4z"/>
	<path class="st8" d="M286.7,183.7c0,0,0.2,6.3,0.7,10.5s-2.8,9.2,0,8.8s8.5-10.1,8.5-12.9s-0.7-11.8-0.7-11.8L286.7,183.7z"/>
	<path class="st8" d="M297.5,164.2c-1.7,0.7-3.6,0.7-5.4,0c-2.8-1.2-7.5-4.6-8.5-4c-0.8,0.6-1.4,1.3-1.8,2.2c-0.5,2-0.8,4.1-0.8,6.2
		c0.2,2.2-2,3.6-2,5.2s1.6,10.5,4.6,11.7s12.3-4.8,12.3-4.8s3.2-1.6,4-3.2s0.8-5.2-1.2-5.2s-2.8,2.4-2.8,2.4s-1.8-4-1.4-6.2
		S297.5,164.2,297.5,164.2z"/>
	<path class="st11" d="M282,167.5c0,0,3.2-1,2.9,1.4s-0.8,2.9-0.8,2.9"/>
	<path class="st11" d="M282.6,178.6c0,0,2.4,1.6,4.2,0"/>
	<path class="st12" d="M283.4,170.5c0,0.6-0.3,1.1-0.6,1.1s-0.5-0.5-0.4-1.1s0.3-1.1,0.6-1.1S283.5,169.8,283.4,170.5z"/>
	<path class="st12" d="M288.2,172.1c-0.1,0.6-0.4,1.1-0.7,1s-0.4-0.6-0.3-1.2s0.4-1.1,0.7-1S288.4,171.5,288.2,172.1z"/>
	<path class="st11" d="M287.4,168.8c0,0,1.5-1.1,4.3,1.4"/>
	<line class="st11" x1="282.9" y1="176.1" x2="284.9" y2="177"/>
	<path class="st11" d="M299.3,175.1c0,0,0.2-1.3-0.6-1.3s-1.9,2.6-1.9,2.6s2.4,0.3,0.8,1.1"/>
	<path class="st8" d="M304.9,194.6c0,0-3.7,5.9-4.6,11.2s2.2,15.1,2.2,15.1s-12.3,2-18.2,2s-8.1,0.2-8.1,0.2s13.8,5.9,22.1,9
		s14,2.8,14.2,0s-0.9-20.1-1.8-25.8S308.4,194.2,304.9,194.6z"/>
	<path class="st8" d="M310.8,206.2c-0.9-5.7-2.4-12-5.9-11.6c0,0-3.7,5.9-4.6,11.2c-0.5,2.9,0.2,7.1,1,10.4l10.4-2.1
		C311.3,210.9,311,208,310.8,206.2z"/>
	<path class="st8" d="M279.2,221.3c-1.6-1.5-3.1-3.1-4.5-4.8c-0.9-1.6-5.2-3.8-6.1-4.1s-2.5,0.6-2.5,0.6s-1.8,2.1-1.2,2.8
		s3,1.8,3.1,2.2c0.7,1.6,1.9,2.9,3.5,3.7c1.8,0.7,3.7,1.1,5.6,1.3L279.2,221.3z"/>
	<path class="st13" d="M265.2,215.1c1,0.4,2,0.9,3,1.4l1.2,0.8"/>
	<path class="st13" d="M265.8,213.9c1.7,0.4,3.3,1.3,4.7,2.4"/>
	<path class="st13" d="M267.1,212.7c0,0,3.9,1.7,4.7,2.9"/>
	<path class="st8" d="M258.5,221.6c0,0-3.3,3.5-2.2,5.3c1.1,1.8,7.2,3.1,16,1.5s21.7-3.5,21.7-3.5s4.8-0.2,6.1-1.3
		c1.3-0.8,2.8-1.4,4.4-1.8c0,0,5,0.7,5.7,0s-0.2-3.9-2.4-5s-5.7-1.1-7.7,0.2c-1.4,1-2.6,2.3-3.5,3.7c0,0-16.6,0.9-22.8,0
		s-8.5-1.3-10.1-0.9"/>
	<path class="st13" d="M303.1,219.6c1.4,0,2.8,0.3,4.1,0.7c1,0.4,2,0.9,2.9,1.5"/>
	<path class="st13" d="M303,218.3c0,0,3.7,0,4.8,0.7c0.8,0.5,1.6,1,2.2,1.7"/>
	<path class="st13" d="M303.2,216.9c0,0,3.7-0.1,5.9,1.1"/>
</g>
<g id="freepik--character-1--inject-1--inject-40">
	<path class="st9" d="M202.4,302.8c0,0,6.1,4.6,7.9,6.1s0.9,2.2-1.4,3.5s-6-0.7-9-2.3c-1.9-1-3.7-2.1-5.4-3.4
		C194.6,306.8,198.5,302.7,202.4,302.8z"/>
	<path class="st9" d="M185.2,310.8c0,0,3.3,6.9,5.4,8.9s5.1,5.3,7.1,3.2s0.5-7.2-0.4-9.1c-0.9-1.8-1.9-3.5-2.9-5.2L185.2,310.8z"/>
	<path class="st4" d="M176.2,212.6c0,0,1.2,35.9,2.1,43.9c0.9,8,1,16.6,2.9,23s3.5,20.1,3.4,24.2s-0.5,6,0.7,7.2s1.1,1.5,4.8,1.6
		s6.4-2.9,6.9-3.8c0.3-0.6,0.4-1.3,0.3-1.9c0,0,3.7-1.5,4.9-2s2.3-3.8,2.3-3.8c-0.2-2.7,0.1-5.5,0.8-8.1c1.1-3.3,7.4-16.3,8.7-25.1
		s2.7-37.2,2.8-39.1s-0.6-19.7-0.6-19.7s-26.7-0.1-31.7-0.3S176.1,203.2,176.2,212.6z"/>
	<path class="st14" d="M206.4,231.3l-6.2,5.5c0,0-2.3,40.1-2.1,47s-0.9,22.8-0.9,22.8"/>
	<path class="st13" d="M187.3,306.9c0.2,1.2,0.5,2.3,1.1,3.4"/>
	<path class="st13" d="M182.7,235.6c0,8.4,0.1,17.7,0.9,22.8c1.5,10.6,3,19.4,3.6,25.2s1.5,12.4,0.3,17.6c-0.3,1.2-0.4,2.4-0.4,3.6"
		/>
	<path class="st13" d="M182.9,218.3c0,0-0.2,6.3-0.3,14.1"/>
	<path class="st13" d="M206.6,215.6c0,0-2.7,3.3-2.7,4.3s3.3,1.2,3,3.9S203,229,203,229"/>
	<path class="st13" d="M195.4,216.2c4.9,2,10.4,1.9,15.2-0.3"/>
	<path class="st13" d="M200.2,236.9l10.6-4.9"/>
	<path class="st13" d="M202,289.8c-0.6,0.7-1.3,1.4-2.1,1.9"/>
	<path class="st13" d="M211.5,274.8c-2.4,4.7-5.1,9.2-8.1,13.5"/>
	<path class="st9" d="M218,151.7c0,0,4.1,1.5,6.5,8s13,23.6,12.9,25.9s-2.9,3.6-5.7,5.3s-5.5,0.2-7-1s-4.3-12.3-5.1-20.6
		S218,151.7,218,151.7z"/>
	<path class="st9" d="M184,151c0,0-9.8,5.3-11.7,6.2s-2.6,3.1-2.7,4.9S170,222,170,222c3.2,1.3,6.6,2,10,2c4.3,0.1,8.7-0.4,12.9-1.5
		l-1-10.1L189,150l12.1-0.2l11.9,62.4l1.7,9c0,0,7.6-2.3,9.3-3.1c2.3-1,3.8-4,3.8-4s-9.2-61.4-9.8-62.6s-13.3-4.6-23.4-3.9
		S184,151,184,151z"/>
	<path class="st9" d="M171.3,157.8c-2.1,1.2-3.7,2.9-4.8,5.1c-1.7,3.6-11.5,31.3-11.6,32.7s4.2,3.6,6.4,4.4s8.8-8.1,8.8-8.1
		l4.4-12.2"/>
	<path class="st9" d="M159.6,187.3c0,0-6.2,7.1-4.1,10.8s14.4,10.9,16,10.5s8.5-6.5,8.1-7.7s-15.2-13.6-15.2-13.6"/>
	<path class="st9" d="M232.7,183.1c2.1,0.1,5.1,2.7,4.7,3.6s-1.5,8.2-4.6,11.7S226,207,226,207c-1.1-1.8-2.4-3.5-3.9-5
		c-1.5-1.6-2.7-3.5-3.4-5.6l5.4-8.2c0,0,3.6-4,5.6-3.9"/>
	<path class="st10" d="M180.6,198c0,0-7.4-8-10-8.4s-7.7,2.6-7.7,2.6"/>
	<path class="st10" d="M165.2,186.2c0,0,4.5,0.3,5.5,3.5"/>
	<line class="st10" x1="177.1" y1="171.7" x2="175.1" y2="192.6"/>
	<line class="st10" x1="216.6" y1="169.1" x2="224.1" y2="188.2"/>
	<line class="st10" x1="218.7" y1="196.5" x2="228.5" y2="183.3"/>
	<path class="st10" d="M188,205.4c0,0,1.3,4.8-1,8"/>
	<path class="st10" d="M189.9,212.2c-1.1,2-2.6,3.8-4.2,5.5"/>
	<path class="st10" d="M224.9,211.9c-1.1,2.2-3.3,3.7-5.8,3.9"/>
	<path class="st15" d="M190.9,142.1c0,0-4.6,1.2-6.6,4.5s-6,13-4.7,15.4s7.4,8.1,8.6,9s18.3-0.9,19.3-2.6s5.7-10.1,4.2-13.6
		s-5.1-10.9-11.6-12.8S190.9,142.1,190.9,142.1z"/>
	<path class="st15" d="M182.1,197.3c0,0-8.2,10.9-11.5,12.8l3.1,3.6c0,0,10.4-9.9,11.8-13.7L182.1,197.3z"/>
	<polygon class="st15" points="217.6,195.8 226.4,207.7 224.2,209.5 215.2,197.4 	"/>
	<path class="st8" d="M189.5,144.3c-1.9,4.9-2.5,10.1-2,15.2c1,8,4.3,52.7,4.3,52.7s4,2.6,7.6,2.6c8.4,0.1,13.6-2.7,13.6-2.7
		l-10.3-62.6C202.7,149.7,200,139.1,189.5,144.3z"/>
	<path class="st15" d="M201.6,147.1l6.2,66.7l5.2-1.6l-10.3-62.6C202.4,148.8,202.1,147.9,201.6,147.1z"/>
	<path class="st8" d="M187.4,138.6c0,0,2.2,7.6,2.5,11.3s4.1,6.8,7,7.8s5-4.4,4.2-7.8s-1.9-10.1-1.9-10.1L187.4,138.6z"/>
	<path class="st8" d="M200.1,119.4c0,0,2,12.2,1.9,15.4s-0.8,7.3-4.5,8.5s-7.8-0.3-8.8-1.7s-3.3-4.5-3.3-4.5s-3.9-0.4-4.7-2.7
		s-0.4-3.2,1.3-3.7l3.6,1.2c0,0-3.2-5.4-2.8-9.7s7.3-5,9.6-4.9S200.1,119.4,200.1,119.4z"/>
	<path class="st11" d="M198.7,124c-0.9,0.1-1.7,0.5-2.3,1.1c-0.9,1,1.8,5.9,1.2,6.9s-1.5,1.8-2.2,1.4"/>
	<path class="st11" d="M192.8,125.2c-1.5-0.3-3.1,0.2-4.2,1.3"/>
	<path class="st12" d="M192.4,128.9c0.1,0.6-0.1,1.1-0.4,1.1s-0.6-0.4-0.6-1s0.1-1.1,0.4-1.1S192.4,128.3,192.4,128.9z"/>
	<path class="st12" d="M198.6,127.3c0.1,0.6-0.1,1.1-0.4,1.1s-0.6-0.4-0.6-1s0.1-1.1,0.4-1.1S198.5,126.8,198.6,127.3z"/>
	<path class="st11" d="M197,136.4c0,0-1.1,1.2-3.6,0.8"/>
	<path class="st11" d="M182,134c0,0-0.8-1.6,0.6-1.6s2.4,2.1,2.4,2.1s-1.6-1.6-1.6-0.7"/>
	<path class="st9" d="M181.6,130.5l0.4,0.1l3.6,1.2c0,0-1.3-6.5-0.8-7.6s2.2-4.3,5.2-4.1s6.2,0.3,12.6,0.3s7.2-7.5,5-11.2
		s-9.1-2-8.4-1s2.8,4.2-1.3,3.8s-8.7-4.2-14.6-1s-6.3,9.1-4.6,11.7S181.6,130.5,181.6,130.5z"/>
	<path class="st10" d="M181.1,122.6c0,0,1.7-4,7-3.6s7.8,1.7,10.8,1.7"/>
	<line class="st10" x1="180.9" y1="126.6" x2="184.8" y2="124.3"/>
</g>
</svg>
