<?xml version="1.0" encoding="utf-8"?>
<!-- Generator: Adobe Illustrator 23.0.2, SVG Export Plug-In . SVG Version: 6.00 Build 0)  -->
<svg version="1.1" id="Layer_1" xmlns="http://www.w3.org/2000/svg" xmlns:xlink="http://www.w3.org/1999/xlink" x="0px" y="0px"
	 viewBox="0 0 500 500" style="enable-background:new 0 0 500 500;" xml:space="preserve">
<style type="text/css">
	.st0{fill:#EDF9FF;}
	.st1{fill:none;}
	.st2{fill:#F0F0F0;}
	.st3{fill:#F5F5F5;}
	.st4{fill:#E0E0E0;}
	.st5{fill:#EBEBEB;}
	.st6{fill:#FAFAFA;}
	.st7{fill:#FFFFFF;}
	.st8{fill:#CACACA;}
	.st9{fill:#00958F;}
	.st10{fill:#CCEDFF;}
	.st11{fill:#455A64;}
	.st12{opacity:0.2;enable-background:new    ;}
	.st13{fill:#00A4FF;}
	.st14{fill:#F4F4F4;}
	.st15{opacity:0.3;}
	.st16{fill:#37474F;}
	.st17{fill:#FFA8A7;}
	.st18{fill:#F28F8F;}
	.st19{opacity:0.3;enable-background:new    ;}
	.st20{fill:#263238;}
	.st21{opacity:0.5;}
	.st22{fill:#565656;}
	.st23{fill:#2B2B2A;}
	.st24{fill:#444443;}
	.st25{enable-background:new    ;}
	.st26{opacity:0.18;enable-background:new    ;}
	.st27{fill:#D3053B;}
	.st28{opacity:0.2;}
	.st29{opacity:0.3;fill:#FFFFFF;enable-background:new    ;}
	.st30{opacity:0.1;fill:#FFFFFF;enable-background:new    ;}
	.st31{opacity:0.2;fill:#FFFFFF;enable-background:new    ;}
	.st32{fill:#E6E6E6;}
	.st33{opacity:0.93;}
</style>
<g id="freepik--Floor--inject-3">
	<path class="st0" d="M409,259.8c-88.4-51-231.3-51-319.1,0S2.5,393.6,91,444.6s231.3,51,319.1,0S497.5,310.8,409,259.8z"/>
</g>
<g id="freepik--Pictures--inject-3">
	<polygon class="st1" points="407.2,79 439.9,97.9 439.8,123 407.1,104.1 	"/>
	<polygon class="st2" points="407.2,79 407.1,104.1 404.1,105.8 404.1,77.3 	"/>
	<polygon class="st3" points="439.8,123 439.8,126.5 404.1,105.8 407.1,104.1 	"/>
	<path class="st4" d="M400.4,107.9l43.1,24.9l0.1-36.9L400.5,71L400.4,107.9z M404.1,105.8l0.1-28.5l3,1.7L440,98l-0.1,25v3.5
		L404.1,105.8z"/>
	<polygon class="st3" points="400.5,71 403.5,69.2 446.6,94.1 443.6,95.9 	"/>
	<polygon class="st2" points="446.6,94.1 446.5,131 443.5,132.8 443.6,95.9 	"/>
	<polygon class="st1" points="407.2,135.2 439.9,154.1 439.9,179.1 407.1,160.2 	"/>
	<polygon class="st2" points="407.2,135.2 407.1,160.2 404.1,162 404.2,133.5 	"/>
	<polygon class="st3" points="439.9,179.1 439.9,182.6 404.1,162 407.1,160.2 	"/>
	<path class="st4" d="M400.4,164.1l43.1,24.9l0.1-36.9l-43.1-24.9L400.4,164.1z M404.1,162l0.1-28.5l3,1.7l32.7,18.9l-0.1,25v3.5
		L404.1,162z"/>
	<polygon class="st3" points="400.5,127.1 403.5,125.4 446.6,150.2 443.6,152 	"/>
	<polygon class="st2" points="446.6,150.2 446.5,187.2 443.5,189 443.6,152 	"/>
	<path class="st1" d="M356.6,94.5L356.6,94.5l-1.2-0.6l0,0L356.6,94.5z"/>
	<path class="st1" d="M357,94.7L357,94.7l-0.4-0.2l0,0L357,94.7z"/>
	<polygon class="st1" points="343.2,45.7 352.2,50.9 361.3,56.1 352.2,50.9 	"/>
	<polygon class="st1" points="343.1,75.2 343.2,66.9 343.2,59.3 343.2,66.9 	"/>
	<path class="st1" d="M355.4,93.9l-0.2-0.1L355.4,93.9z"/>
	<polygon class="st1" points="343,111.6 343.1,104.7 343.1,98.6 343.1,104.7 	"/>
	<path class="st1" d="M360.5,96.1c-1.1-0.4-2.3-0.9-3.5-1.4l0,0C358.2,95.2,359.3,95.7,360.5,96.1z"/>
	<polygon class="st1" points="369.8,71.4 369.8,98 369.7,113.5 369.8,98 	"/>
	<path class="st5" d="M343.1,104.7v-6.1l0.3,0.2l0.5,0.3c4.5,2.7,9,7,13.2,11.6c0.7,0.8,1.4,1.5,2.1,2.3c3.5,4,7,8.3,10.5,12.3v9.8
		l-4.3-2.5C359.8,122,352.2,112.5,343.1,104.7z"/>
	<path class="st5" d="M343,119.8v-8.1c3.7,3.9,6.8,8.4,9.2,13.4L343,119.8z"/>
	<path class="st6" d="M352.2,125c-2.3-4.9-5.4-9.4-9.1-13.4v-6.9c9.2,7.8,16.7,17.3,22.3,28L352.2,125z"/>
	<path class="st1" d="M357,94.7L357,94.7"/>
	<path class="st1" d="M356.6,94.5L356.6,94.5"/>
	<path class="st6" d="M361.1,96.3l-0.6-0.2c-1.1-0.4-2.3-0.9-3.5-1.4l-0.4-0.2l-1.2-0.6c-0.7-0.3-1.4-0.7-2-1.1
		c0.7,0.4,1.4,0.7,2,1.1l-0.2-0.1c-0.6-0.3-1.2-0.6-1.8-1l-0.4-0.2l-0.3-0.2c-3.2-1.9-6.3-4.1-9.2-6.6l-0.4-0.3V75.2
		c6.5,3.3,12.9,4.4,18.1,2.8c3.5-1.1,6.6-3.5,8.6-6.6l0,26.6C366.8,97.9,363.9,97.3,361.1,96.3z"/>
	<path class="st6" d="M357.1,110.7c-4.2-4.6-8.7-8.9-13.2-11.6l-0.5-0.3l-0.3-0.2v-5.9c8.7,5.1,16.8,11.3,24,18.3
		c0.9,0.8,1.7,1.7,2.6,2.5v11.8c-3.6-4-7-8.3-10.5-12.3C358.4,112.2,357.8,111.4,357.1,110.7z"/>
	<path class="st5" d="M343.1,92.7v-7.2l0.4,0.3c2.9,2.4,5.9,4.6,9.2,6.6l0.3,0.2l0.4,0.2c0.6,0.3,1.2,0.7,1.8,1l0.2,0.1l0.2,0.1l0,0
		l-0.2-0.1l1.2,0.6l0.4,0.2c1.2,0.5,2.3,1,3.5,1.4l-0.6-0.2l0.6,0.2l0.6,0.2c2.8,1,5.7,1.5,8.6,1.7v15.5c-0.9-0.8-1.7-1.7-2.6-2.5
		C359.8,104,351.8,97.9,343.1,92.7z"/>
	<path class="st6" d="M343.2,66.9v-7.6c4.1-1,7.3-4,9-8.5l9.1,5.3C358,63.1,350.9,67.4,343.2,66.9z"/>
	<path class="st5" d="M361.3,78c-5.2,1.6-11.6,0.6-18.1-2.8v-8.3c7.7,0.4,14.8-3.8,18.1-10.8l8.6,5v10.3
		C367.8,74.5,364.8,76.9,361.3,78z"/>
	<path class="st7" d="M341.5,120.6l29.6,17.1l0.2-77.5l-29.6-17.1L341.5,120.6z M365.4,132.6l-13.2-7.6l0,0l-9.2-5.2v-8.1v-6.9v-6.1
		v-5.9v-7.2V75.2v-8.3v-7.6V45.7l9,5.2l9.1,5.3l8.6,5v10.3l0.1,26.6v15.5v11.8v9.8L365.4,132.6z"/>
	<path class="st1" d="M355.6,94L355.6,94"/>
	<path class="st1" d="M355.6,94l-0.2-0.1"/>
	<path class="st1" d="M353.4,92.8c0.7,0.4,1.4,0.7,2,1.1"/>
	<line class="st1" x1="355.4" y1="93.9" x2="355.4" y2="93.9"/>
	<path class="st1" d="M360.5,96.1l-0.6-0.2"/>
	<path class="st5" d="M343.2,59.3V45.7l9,5.2C350.5,55.4,347.3,58.4,343.2,59.3z"/>
	<polygon class="st8" points="341.5,120.6 371.1,137.7 371.1,139.8 339.7,121.7 	"/>
	<polygon class="st2" points="341.7,43.1 341.5,120.6 339.7,121.7 340,42.1 	"/>
	<path class="st4" d="M335,124.4l40.9,23.6l0.3-90.5l-40.9-23.6L335,124.4z M339.8,121.7l0.2-79.5l1.8,1l29.6,17.1l-0.2,77.5v2.1
		L339.8,121.7z"/>
	<polygon class="st3" points="335.2,33.9 338.6,32.1 379.5,55.7 376.1,57.5 	"/>
	<polygon class="st2" points="379.5,55.7 379.3,146.2 375.9,148 376.1,57.5 	"/>
	<polygon class="st4" points="417.6,88.5 408.6,95.6 408.6,102.4 438.3,119.6 438.3,112.7 432.7,101.5 427.6,105.4 429.4,111 
		426.8,106.1 	"/>
	<path class="st4" d="M427.3,92c-1.4-0.8-2.5-0.2-2.5,1.4c0.1,1.8,1,3.4,2.5,4.4c1.4,0.8,2.5,0.2,2.5-1.4
		C429.7,94.6,428.8,93,427.3,92z"/>
	<polygon class="st4" points="417.6,144.7 408.7,151.7 408.6,158.6 438.3,175.7 438.4,168.9 432.7,157.6 427.6,161.6 429.4,167.2 
		426.8,162.2 	"/>
	<path class="st4" d="M427.4,148.2c-1.4-0.8-2.5-0.1-2.5,1.4c0.1,1.8,1,3.4,2.5,4.4c1.4,0.8,2.5,0.2,2.5-1.4
		C429.8,150.8,428.8,149.1,427.4,148.2z"/>
</g>
<g id="freepik--Screen--inject-3">
	<polygon class="st9" points="47.3,185.6 47.3,172.3 40.4,168.4 40.4,181.4 40.4,181.4 40.4,181.7 	"/>
	<path class="st9" d="M47.8,339.2l-0.4-153.6l-6.9-4L40.9,335c-0.1,1,0.3,1.9,1.1,2.5l0,0l0,0l0,0l6.8,4.2
		C48.1,341.1,47.7,340.1,47.8,339.2z"/>
	<path class="st10" d="M47.8,339.2l-0.4-153.6l-6.9-4L40.9,335c-0.1,1,0.3,1.9,1.1,2.5l0,0l0,0l0,0l6.8,4.2
		C48.1,341.1,47.7,340.1,47.8,339.2z"/>
	<path class="st11" d="M51.9,341.5c-0.3,0.1-0.5,0.3-0.8,0.4C51.4,341.8,51.6,341.7,51.9,341.5z"/>
	<path class="st11" d="M50.5,342h-0.2H50.5z"/>
	<path class="st11" d="M49.1,341.9L49.1,341.9L49.1,341.9z"/>
	<path class="st9" d="M47.3,172.3v-7.6c0.1-2.9,1.7-5.5,4.1-7.1L282.8,24c0.8-0.6,1.9-0.7,2.9-0.3l-6.8-4.2l0,0
		c-1-0.5-2.1-0.4-3,0.3L44.5,153.4c-2.4,1.6-3.9,4.2-4.1,7.1v7.6l0,0l0,0v0.3L47.3,172.3L47.3,172.3z"/>
	<path class="st10" d="M47.3,172.3v-7.6c0.1-2.9,1.7-5.5,4.1-7.1L282.8,24c0.8-0.6,1.9-0.7,2.9-0.3l-6.8-4.2l0,0
		c-1-0.5-2.1-0.4-3,0.3L44.5,153.4c-2.4,1.6-3.9,4.2-4.1,7.1v7.6l0,0l0,0v0.3L47.3,172.3L47.3,172.3z"/>
	<polygon class="st12" points="47.3,185.6 47.3,172.3 40.4,168.4 40.4,181.4 40.4,181.4 40.4,181.7 	"/>
	<polygon class="st10" points="47.3,185.6 47.3,172.3 40.4,168.4 40.4,181.4 40.4,181.4 40.4,181.7 	"/>
	<path class="st13" d="M282.8,24c2.3-1.3,4.1-0.3,4.1,2.4L287,34L47.3,172.3v-7.6c0.1-2.9,1.7-5.5,4.1-7.1L282.8,24z"/>
	<path class="st7" d="M267.3,36.6c1.2-0.7,2.2-0.1,2.2,1.3c-0.1,1.5-0.9,2.9-2.2,3.8c-1.2,0.7-2.2,0.1-2.2-1.3
		C265.2,38.9,266,37.5,267.3,36.6z"/>
	<path class="st7" d="M274,32.8c1.2-0.7,2.2-0.1,2.2,1.3c-0.1,1.5-0.9,2.9-2.2,3.8c-1.2,0.7-2.2,0.1-2.2-1.3
		C271.9,35,272.7,33.6,274,32.8z"/>
	<path class="st7" d="M280.7,28.9c1.2-0.7,2.2-0.1,2.2,1.3c-0.1,1.6-0.9,3-2.2,3.8c-1.2,0.7-2.2,0.1-2.2-1.3
		C278.6,31.2,279.4,29.8,280.7,28.9z"/>
	<path class="st4" d="M95.5,136.9c0.9-0.5,1.7-0.4,2.2,0.2l2.2,3.3c0.4,0.7,1.3,0.8,2.2,0.3L286.9,34v13.3L47.3,185.6v-13.3l7.1-4.1
		c1-0.6,1.8-1.6,2.2-2.7l2.1-5.8c0.4-1.1,1.2-2.1,2.2-2.7L95.5,136.9z"/>
	<path class="st14" d="M287,47.3l0.4,153.6c-0.2,2.9-1.7,5.5-4.1,7.1L51.9,341.5c-2.3,1.3-4.1,0.3-4.1-2.3l-0.4-153.6L287,47.3z"/>
	<path class="st7" d="M277.5,42.2c1.6-0.9,2.9-0.2,2.9,1.7c-0.1,2-1.2,3.9-2.9,5L74.7,166c-1.6,0.9-2.9,0.2-2.9-1.7
		c0.1-2,1.2-3.9,2.9-5L277.5,42.2z"/>
	<path class="st4" d="M51.2,173.5c0.1-0.1,0.2-0.1,0.3,0c0.2,0.1,0.1,0.4,0,0.7l-1.3,2.1l3.4-1.9c0.2-0.1,0.4,0,0.4,0.2
		c0,0.3-0.2,0.6-0.4,0.7l-3.3,1.9l1.3,0.6c0.2,0.1,0.2,0.4,0,0.6c-0.1,0.1-0.2,0.3-0.3,0.3s-0.2,0-0.3,0l-2-1l-0.1-0.1l0,0v-0.2
		v-0.2l0,0L49,177l2-3.4C51,173.7,51.1,173.6,51.2,173.5z"/>
	<path class="st4" d="M58.5,169.3c0.1,0,0.2,0,0.3,0l2.1,1l0.1,0.1l0,0v0.2v0.2v0.1l-0.1,0.2l-2.1,3.4c-0.1,0.1-0.2,0.2-0.3,0.3
		s-0.2,0.1-0.3,0c-0.2-0.1-0.2-0.4,0-0.7l1.3-2.1l-3.4,1.9c-0.2,0.1-0.4,0-0.4-0.2c0-0.3,0.2-0.6,0.4-0.7l3.4-1.9l-1.3-0.6
		c-0.2-0.1-0.2-0.4,0-0.7C58.2,169.5,58.3,169.4,58.5,169.3z"/>
	<path class="st4" d="M65.3,165.3c0.4-0.3,0.9-0.4,1.4-0.3l0.3-0.4c0.1-0.1,0.1-0.2,0.2-0.2s0.1,0,0.2,0s0.2,0.2,0.2,0.4l-0.2,1.3
		c0,0.2-0.1,0.3-0.2,0.4c-0.1,0.1-0.1,0.2-0.2,0.2h0l-1,0.3c-0.1,0-0.3,0-0.3-0.1c0,0,0,0,0-0.1c0-0.2,0-0.4,0.2-0.6l0.1-0.1
		c-0.2,0-0.4,0.1-0.6,0.2c-0.9,0.6-1.4,1.5-1.5,2.6c0,0.9,0.7,1.3,1.5,0.8c0.6-0.4,1.1-1,1.3-1.6c0.1-0.2,0.2-0.3,0.3-0.4
		c0.1,0,0.1-0.1,0.2-0.1c0.2,0,0.3,0.3,0.2,0.6c-0.4,1-1.1,1.9-2,2.5c-1.3,0.7-2.3,0.1-2.3-1.3C63.2,167.7,64,166.2,65.3,165.3z"/>
	<g class="st15">
		<path d="M51.2,173.5c0.1-0.1,0.2-0.1,0.3,0c0.2,0.1,0.1,0.4,0,0.7l-1.3,2.1l3.4-1.9c0.2-0.1,0.4,0,0.4,0.2c0,0.3-0.2,0.6-0.4,0.7
			l-3.3,1.9l1.3,0.6c0.2,0.1,0.2,0.4,0,0.6c-0.1,0.1-0.2,0.3-0.3,0.3s-0.2,0-0.3,0l-2-1l-0.1-0.1l0,0v-0.2v-0.2l0,0L49,177l2-3.4
			C51,173.7,51.1,173.6,51.2,173.5z"/>
	</g>
	<g class="st15">
		<path d="M58.5,169.3c0.1,0,0.2,0,0.3,0l2.1,1l0.1,0.1l0,0v0.2v0.2v0.1l-0.1,0.2l-2.1,3.4c-0.1,0.1-0.2,0.2-0.3,0.3s-0.2,0.1-0.3,0
			c-0.2-0.1-0.2-0.4,0-0.7l1.3-2.1l-3.4,1.9c-0.2,0.1-0.4,0-0.4-0.2c0-0.3,0.2-0.6,0.4-0.7l3.4-1.9l-1.3-0.6c-0.2-0.1-0.2-0.4,0-0.7
			C58.2,169.5,58.3,169.4,58.5,169.3z"/>
	</g>
	<g class="st15">
		<path d="M65.3,165.3c0.4-0.3,0.9-0.4,1.4-0.3l0.3-0.4c0.1-0.1,0.1-0.2,0.2-0.2s0.1,0,0.2,0s0.2,0.2,0.2,0.4l-0.2,1.3
			c0,0.2-0.1,0.3-0.2,0.4c-0.1,0.1-0.1,0.2-0.2,0.2h0l-1,0.3c-0.1,0-0.3,0-0.3-0.1c0,0,0,0,0-0.1c0-0.2,0-0.4,0.2-0.6l0.1-0.1
			c-0.2,0-0.4,0.1-0.6,0.2c-0.9,0.6-1.4,1.5-1.5,2.6c0,0.9,0.7,1.3,1.5,0.8c0.6-0.4,1.1-1,1.3-1.6c0.1-0.2,0.2-0.3,0.3-0.4
			c0.1,0,0.1-0.1,0.2-0.1c0.2,0,0.3,0.3,0.2,0.6c-0.4,1-1.1,1.9-2,2.5c-1.3,0.7-2.3,0.1-2.3-1.3C63.2,167.7,64,166.2,65.3,165.3z"/>
	</g>
	<polygon class="st9" points="191.8,171.5 192.1,249.8 116.4,293.5 116.2,215.2 	"/>
	<polygon class="st9" points="277.3,65 277.5,109.1 175.2,168.1 175.1,124 	"/>
	<g>
		<polygon class="st10" points="191.8,171.5 192.1,249.8 116.4,293.5 116.2,215.2 		"/>
	</g>
	<g>
		<polygon class="st10" points="277.3,65 277.5,109.1 175.2,168.1 175.1,124 		"/>
	</g>
	<polygon class="st9" points="108.8,219.4 109.1,297.8 61.1,325.4 60.9,247.1 	"/>
	<polygon class="st9" points="276.7,122.5 276.9,200.8 199.4,245.6 199.2,167.2 	"/>
	<g>
		<polygon class="st10" points="108.8,219.4 109.1,297.8 61.1,325.4 60.9,247.1 		"/>
	</g>
	<g>
		<polygon class="st10" points="276.7,122.5 276.9,200.8 199.4,245.6 199.2,167.2 		"/>
	</g>
	<path class="st7" d="M83.9,175.8c12.8-7.4,23.1-1.4,23.1,13.2s-10.3,32.5-23,39.9s-23.1,1.4-23.2-13.2S71.1,183.2,83.9,175.8z"/>
	<path class="st16" d="M95.6,189.5c2.6-1.9,3.3-5.4,1.7-8.1c0.7-0.3,1.3-0.8,1.6-1.5c0.4-0.9,0-2-0.9-2.4c-0.5-0.2-1-0.2-1.4,0
		c0.4-1.1,0-2.3-1-2.9c-1-0.6-2.3-0.3-3,0.5c0-0.7-0.4-1.4-1.1-1.6c-0.7-0.2-1.4-0.1-2,0.1c-0.7,0.2-1.3,0.6-2,0.8
		c-1.1,0.3-2.3,0.4-3.5,0.4s-2.3,0.3-3.4,0.9c-1.2,0.7-1.7,2.1-1.3,3.4c-0.3-0.4-0.9-0.7-1.4-0.8c-0.5,0-1.1,0.2-1.4,0.6
		c0.7,0.5,1.4,1,2.2,1.4c-0.9-0.2-1.8,0.1-2.3,0.9c-0.3,0.7-0.5,1.6-0.4,2.4c0.1,3.1,0.6,6.1,1.6,9.1c0.5,1.7,1.6,3.2,3.1,4.1
		L95.6,189.5z"/>
	<path class="st5" d="M93.2,201.1l3.5,3l1.8,10.6c1.5-2.3,2.8-4.6,4-7.1C100.9,203.5,99.6,201.1,93.2,201.1z"/>
	<path class="st13" d="M84,228.9c6-3.5,11.4-9.2,15.5-15.9c-0.3-5.7-1.2-11.9-6.4-11.9l-15.5,0.1l-3.2,0.3L73,232
		C76.9,232.1,80.7,231,84,228.9z"/>
	<path class="st5" d="M90.6,203.1c1.4,4.6,0.5,11,0,13.9c-3.7-5-7.1-10.1-8.2-12.1l5.1-2.5L90.6,203.1z"/>
	<path class="st11" d="M88.5,207.4l1.3-0.3c0.6,1.6,1.1,3.2,1.5,4.9c-0.1,1.7-0.4,3.4-0.7,5.1c-0.7-1-1.4-2-2.1-2.9
		C88.7,211.9,88.7,209.6,88.5,207.4z"/>
	<path class="st12" d="M88.5,207.7c0-0.1,0-0.2,0-0.3l1.3-0.3c0,0,0,0.1,0.1,0.2c-0.2,0.2-0.4,0.3-0.7,0.4
		C88.9,207.7,88.7,207.7,88.5,207.7z"/>
	<path class="st11" d="M87.8,204.1l-1-0.6l-2.3,1.3c0.8,0.6,1.7,1,2.7,1.1L87.8,204.1z"/>
	<path class="st11" d="M89.3,203.8l0.3-0.7l1.2,0.7c-0.1,0.4-0.4,0.8-0.8,1.1L89.3,203.8z"/>
	<path class="st12" d="M87.8,204.1l-1-0.6l-2.3,1.3c0.8,0.6,1.7,1,2.7,1.1L87.8,204.1z"/>
	<path class="st12" d="M89.3,203.8l0.3-0.7l1.2,0.7c-0.1,0.4-0.4,0.8-0.8,1.1L89.3,203.8z"/>
	<path class="st11" d="M87.2,205.8c0.1-0.6,0.3-1.2,0.6-1.7l1.5-0.3c0.3,0.4,0.5,0.8,0.7,1.2c0,0.7-0.1,1.4-0.3,2.1
		c-0.4,0.2-0.8,0.3-1.3,0.3C87.9,207,87.5,206.4,87.2,205.8z"/>
	<path class="st4" d="M88.3,203.5c-2.4,0-3.9,1.9-6.2,2.6l-4.5-4.9l1.8-2.6c0.4-0.5,0.8-1,1.3-1.3l0,0v0.9c0,0.6,0.3,1.1,0.8,1.4
		L88.3,203.5z"/>
	<path class="st4" d="M88.3,203.5c1.3-0.4,3.4,1.3,3.4,1.3c-0.7-3.9-2.8-5.5-3.4-5.5V203.5z"/>
	<path class="st5" d="M74.5,201.5l-2.1,0.3c-2.5,0.4-4.6,2.4-5.1,4.9c-1.2,5.9-1.6,11.9-1.4,17.9l9.6-4.4
		C76.6,212.7,78.5,206.5,74.5,201.5z"/>
	<path class="st4" d="M75.4,223.5v-0.8c0-0.1,0.1-0.3,0.2-0.4c0.1-0.1,0.2-0.3,0.2-0.4v-1.4c0-0.4-0.3-0.7-0.7-0.7l0,0
		c-4.3,0.1-8.6,2.1-9.7,4.6c-0.3,0.8-0.3,1.6,0,2.4c-0.8,1-0.4,1.5,0,2.2c0.4,0.4,0.8,0.7,1.3,1C69.5,225.4,75.4,223.5,75.4,223.5z"
		/>
	<path class="st12" d="M71,222.5c-2.1,0.9-4,2.4-5.5,4.1c-0.1-0.3-0.1-0.5-0.2-0.8C66.8,224.2,68.8,223,71,222.5z"/>
	<path class="st12" d="M75.8,222c0,0.1-0.1,0.2-0.2,0.3s-0.2,0.2-0.2,0.4v0.1c-3,0.5-5.8,1.9-8,4.1C69.5,223.9,73.9,222.4,75.8,222z
		"/>
	<path class="st17" d="M84,228.9c3.7-2.2,7-5,9.9-8.3c-5.6,0-13.3,0.3-18.4,2.1v0.8c0,0-5.9,1.9-8.7,6.4
		C70.9,233,77.1,232.9,84,228.9z"/>
	<path class="st12" d="M75.9,223.5l0.1-0.9l-0.5,0.2v0.8c-1.4,0.5-2.7,1.1-4,1.9c-0.4,0.5-0.7,1.1-0.9,1.8c1.2-1.6,2.4-2.3,4.9-2.9
		c2.3,0.4,6.2,2,10.2,3.7c0.4-0.2,0.8-0.5,1.1-0.8C82,225.4,77.1,223.6,75.9,223.5z"/>
	<path class="st17" d="M83.6,197.5L83.6,197.5c-1.1-0.5-1.8-1.5-2.1-2.6c-0.1-0.6-0.2-1.1-0.3-1.7s-0.5,0-0.5,0s0,1.3,0.1,2.7
		c0,0.8,0,1.6,0.1,2.4c0,0.6,0.3,1.1,0.8,1.4l6.8,3.9v-4.8C86.7,198.7,85.1,198.2,83.6,197.5z"/>
	<path class="st17" d="M81.9,196.6L81.9,196.6L81.9,196.6z"/>
	<path class="st12" d="M82.6,197.4c-0.4-0.5-0.7-1.1-0.8-1.7c0.4,0.8,1,1.4,1.7,1.8h0.1c1.5,0.7,3.1,1.2,4.8,1.3v1.3
		c-1-0.1-1.9-0.3-2.8-0.6C84.4,199,83.3,198.3,82.6,197.4z"/>
	<path class="st17" d="M96,182.1c0.6,4.2,0.3,8.5-0.8,12.5c-0.2,0.9-0.5,1.8-1,2.6c-0.4,0.8-1.2,1.4-2,1.8c-1.1,0.3-2.3,0.3-3.4,0
		c-2.1-0.2-4.1-0.9-5.9-1.8c-1.9-1-3-3-3-5.1c-1,0.6-2.3,0.7-3.4,0.2c-1.1-0.6-1.8-1.7-1.9-2.9c-0.3-1.2,0.5-2.4,1.7-2.7
		c0.7-0.2,1.5,0,2.1,0.6c0.5,0.5,1,1,1.4,1.6c0.2,0.3,0.4,0.5,0.7,0.7c0.3,0.2,0.7,0.2,1,0c0.2-0.3,0.3-0.6,0.3-1l-0.2-2.6
		c0-0.4,0.2-0.8,0.6-1c0.5-0.3,1-0.8,1.2-1.4c0.2-0.5,0.3-1,0.3-1.6c0-0.4,0.3-0.6,0.7-0.6c0.1,0,0.1,0,0.2,0
		C88.1,182.9,92.2,183.1,96,182.1z"/>
	<polygon class="st18" points="90.2,188.4 92.6,192.4 89.7,192.9 	"/>
	<path class="st18" d="M87,194.3l2.1,1c-0.4,0.5-1,0.7-1.6,0.5C87,195.5,86.8,194.8,87,194.3z"/>
	<path class="st19" d="M87,194.3l2.1,1c-0.4,0.5-1,0.7-1.6,0.5C87,195.5,86.8,194.8,87,194.3z"/>
	<path class="st18" d="M88.3,195.9c-0.2,0.1-0.5,0-0.7-0.1c-0.4-0.2-0.6-0.7-0.6-1.1c0.3,0,0.6,0.1,0.8,0.3
		C88.1,195.2,88.3,195.5,88.3,195.9z"/>
	<path class="st20" d="M86.1,188.6c0,0.4,0.3,0.8,0.7,0.9c0.4,0,0.8-0.3,0.9-0.7c0-0.4-0.3-0.8-0.7-0.9l0,0
		C86.6,187.8,86.2,188.1,86.1,188.6z"/>
	<path class="st20" d="M92.9,189c0,0.4,0.3,0.8,0.7,0.9c0.4,0,0.8-0.3,0.9-0.7c0-0.4-0.3-0.8-0.7-0.9l0,0
		C93.3,188.2,92.9,188.6,92.9,189z"/>
	<path class="st20" d="M94,185.9l1.7,1.4c0.2-0.4,0.1-1-0.2-1.3C95,185.7,94.5,185.6,94,185.9z"/>
	<g class="st21">
		<polygon class="st7" points="144.1,169.8 144.1,172 115.9,188.2 115.9,186 		"/>
		<polygon class="st7" points="149.4,180.5 149.4,182.7 115.9,202 115.9,199.7 		"/>
		<polygon class="st7" points="154.4,173 154.4,175.3 115.9,197.4 115.9,195.2 		"/>
		<polygon class="st7" points="162.3,154.7 162.3,157 115.9,183.7 115.9,181.4 		"/>
		<polygon class="st7" points="167.9,146.9 167.9,149.1 115.9,179.1 115.9,176.8 		"/>
		<polygon class="st7" points="142.6,152.9 142.7,157.3 115.9,172.8 115.9,168.3 		"/>
	</g>
	<polygon class="st9" points="211.8,110.5 211.8,115.7 182.9,132.5 182.9,127.3 	"/>
	<polygon class="st9" points="267.6,86.9 267.6,90.1 182.9,138.9 182.9,135.7 	"/>
	<g>
		<polygon class="st13" points="211.8,110.5 211.8,115.7 182.9,132.5 182.9,127.3 		"/>
		<polygon class="st13" points="267.6,86.9 267.6,90.1 182.9,138.9 182.9,135.7 		"/>
		<polygon class="st7" points="261.4,109.5 261.4,112.7 182.9,158.1 182.9,154.9 		"/>
		<polygon class="st7" points="267.7,99.7 267.7,102.9 182.9,151.7 182.9,148.5 		"/>
		<polygon class="st7" points="248.4,104.4 248.4,107.6 182.9,145.3 182.9,142.1 		"/>
	</g>
	<g class="st21">
		<polygon class="st7" points="84.9,240.8 84.9,245.6 66.5,256.2 66.4,251.5 		"/>
		<polygon class="st7" points="103.3,237.8 103.3,240.1 66.5,261.4 66.5,259.1 		"/>
		<polygon class="st7" points="103.3,242.3 103.3,244.6 66.5,265.9 66.5,263.6 		"/>
		<polygon class="st7" points="92.7,259.3 92.7,264.1 66.5,279.2 66.5,274.4 		"/>
		<polygon class="st7" points="84.9,257.5 84.9,259.7 66.5,270.4 66.5,268.1 		"/>
		<polygon class="st7" points="76.6,308.2 76.6,310.4 66.6,316.2 66.6,313.9 		"/>
		<polygon class="st7" points="103.5,288.2 103.5,290.4 66.6,311.7 66.6,309.4 		"/>
		<polygon class="st7" points="103.5,283.7 103.5,285.9 66.6,307.2 66.6,304.9 		"/>
		<polygon class="st7" points="82.6,288 82.6,292.8 66.6,302.1 66.6,297.3 		"/>
		<polygon class="st7" points="96.9,273.5 96.9,275.8 66.6,293.3 66.6,291 		"/>
		<polygon class="st7" points="103.4,265.2 103.4,267.5 66.6,288.8 66.6,286.5 		"/>
		<polygon class="st7" points="103.4,260.8 103.4,263 66.5,284.3 66.5,282 		"/>
	</g>
	<polygon class="st13" points="164.7,211 149.6,239.6 145.4,247.6 148.3,238.5 140,232.1 130.8,250.4 130.8,261.6 179.2,233.7 
		179.2,222.5 	"/>
	<path class="st13" d="M148.8,226.1c2.4-1.6,4-4.2,4.1-7.1c0-2.6-1.9-3.7-4.1-2.4c-2.4,1.6-4,4.2-4.1,7.1
		C144.6,226.4,146.5,227.5,148.8,226.1z"/>
	<polygon class="st9" points="250.3,162.5 235.3,191 231.1,199.1 234,190 225.7,183.6 216.5,201.9 216.5,213.1 264.9,185.1 
		264.9,174 	"/>
	<path class="st9" d="M234.4,177.6c2.4-1.6,4-4.2,4.1-7.1c0-2.6-1.9-3.7-4.1-2.4c-2.4,1.6-4,4.2-4.1,7.1
		C230.3,177.9,232.2,178.9,234.4,177.6z"/>
	<g>
		<polygon class="st13" points="250.3,162.5 235.3,191 231.1,199.1 234,190 225.7,183.6 216.5,201.9 216.5,213.1 264.9,185.1 
			264.9,174 		"/>
		<path class="st13" d="M234.4,177.6c2.4-1.6,4-4.2,4.1-7.1c0-2.6-1.9-3.7-4.1-2.4c-2.4,1.6-4,4.2-4.1,7.1
			C230.3,177.9,232.2,178.9,234.4,177.6z"/>
	</g>
	<polygon class="st13" points="261.4,109.5 261.4,112.7 182.9,158.1 182.9,154.9 	"/>
	<polygon class="st13" points="267.7,99.7 267.7,102.9 182.9,151.7 182.9,148.5 	"/>
	<polygon class="st13" points="248.4,104.4 248.4,107.6 182.9,145.3 182.9,142.1 	"/>
</g>
<g id="freepik--Character--inject-3">
	<path class="st4" d="M329.1,374L329.1,374l2.6,1.7h0.1l0,0c1,0.4,2.1,0.3,3-0.3c2.5-1.6,4-4.3,4.2-7.2c0.1-1-0.3-2-1.2-2.6l0,0l0,0
		l0,0l-0.8-0.5l25.1-10.2c0.1,0.6,0.4,1.2,1,1.5l-2.3,19.7v2.7c-2.1,1.7-3.3,4.1-3.5,6.7c-0.1,1.1,0.4,2.1,1.3,2.7l0,0l2.6,1.7l0,0
		l0,0c1,0.4,2.1,0.3,3-0.3c2.5-1.6,4-4.3,4.2-7.2c0.1-1-0.4-2-1.2-2.6l0,0l0,0l0,0l-2.7-1.7l0,0c-0.4-0.3-0.9-0.4-1.4-0.3l2.7-20.6
		l0,0c0.6,0,1.2-0.1,1.8-0.3l0,0l23.8,12.8l-1.4,0.9l0,0l0,0l0,0c-0.8,0.6-1.3,1.6-1.2,2.6c0.2,2.9,1.7,5.6,4.2,7.2
		c0.9,0.6,2,0.8,3,0.3l0,0h0.1l2.6-1.7l0,0c0.9-0.6,1.4-1.6,1.3-2.7c-0.1-2.6-1.4-5-3.4-6.7v-4.1l-22.1-13.1l11.7-2.9
		c-0.8,1.3-1.2,2.7-1.2,4.1c-0.1,1.1,0.4,2.1,1.3,2.7l0,0l2.6,1.7l0,0l0,0c1,0.5,2.1,0.3,3-0.3c2.5-1.6,4-4.3,4.2-7.2
		c0.1-1-0.4-2-1.2-2.6l0,0l0,0l0,0l-2.9-1.6l0,0c-0.6-0.3-1.3-0.4-2-0.2v-0.7l-1.4-0.5l-19,1v-3.4c0.2-0.1,0.4-0.2,0.6-0.3
		c1-0.5,1.8-1.5,1.9-2.6v-22h-12.7v21.9c0.1,1.1,0.8,2.1,1.9,2.6c0.2,0.1,0.4,0.2,0.6,0.3v2.8l-13.7-3l-0.6,0.3v2.5l0,0l-2.7,1.7
		l0,0l0,0l0,0c-0.8,0.6-1.3,1.6-1.2,2.6c0.1,2,0.8,3.8,2.1,5.3l-13.2,6v3.1c-0.2,0.1-0.4,0.2-0.5,0.3c-2.5,1.6-4,4.3-4.2,7.2
		C327.7,372.3,328.1,373.4,329.1,374z M337,359.8l9.6-4.3l0,0l-13,5.8L337,359.8z M354,349l1.9,1l-1.3,0.6
		C354.4,350.1,354.2,349.5,354,349L354,349z M362,348.7l-7.2,3.2l0,0L362,348.7z"/>
	<path class="st16" d="M392.7,351.3l2.1-3.6l-2.7-1.7l0,0c-1-0.5-2.1-0.4-3,0.3c-2.5,1.6-4,4.3-4.2,7.2c-0.1,1.1,0.4,2.1,1.3,2.7
		l0,0l2.7,1.7l2.2-3.8C391.8,353.3,392.3,352.3,392.7,351.3z"/>
	<path class="st11" d="M391.8,348c2.3-1.3,4.2-0.3,4.2,2.4c-0.2,2.9-1.7,5.6-4.2,7.2c-2.3,1.3-4.2,0.3-4.2-2.4
		C387.7,352.3,389.3,349.6,391.8,348z"/>
	<path class="st16" d="M346.9,350.3l-2.1-3.6l2.7-1.7l0,0c1-0.5,2.1-0.4,3,0.3c2.5,1.6,4,4.3,4.2,7.2c0.1,1.1-0.4,2.1-1.3,2.7l0,0
		l-2.7,1.7l-2.2-3.8C347.8,352.2,347.3,351.3,346.9,350.3z"/>
	<path class="st11" d="M347.9,346.9c-2.3-1.3-4.2-0.3-4.2,2.4c0.2,2.9,1.7,5.6,4.2,7.2c2.3,1.3,4.2,0.3,4.2-2.4
		C351.9,351.2,350.3,348.5,347.9,346.9z"/>
	<path class="st5" d="M361.9,341.4h7.8v13.4l0,0c-0.1,0.7-0.5,1.3-1.1,1.6c-1.7,0.9-3.8,0.9-5.5,0c-0.6-0.3-1.1-0.9-1.1-1.6l0,0
		L361.9,341.4L361.9,341.4z"/>
	<polygon class="st4" points="390.1,345.1 390.1,348.3 369.7,353.4 369.7,346.7 	"/>
	<polygon class="st3" points="390.1,345.1 388.7,344.6 369.7,345.6 369.7,346.7 	"/>
	<path class="st16" d="M392.1,374.1l-2.1-3.6l2.7-1.7l0,0c1-0.5,2.1-0.4,3,0.3c2.5,1.6,4,4.3,4.2,7.2c0.1,1.1-0.4,2.1-1.3,2.7l0,0
		l-2.6,1.7l-2.2-3.8C393.1,376,392.5,375.1,392.1,374.1z"/>
	<path class="st11" d="M393.1,370.7c-2.3-1.3-4.2-0.3-4.2,2.4c0.2,2.9,1.7,5.6,4.2,7.2c2.3,1.3,4.2,0.3,4.2-2.4
		C397.1,375,395.5,372.3,393.1,370.7z"/>
	<path class="st16" d="M365,383.2l2.1-3.6l-2.7-1.7l0,0c-1-0.5-2.1-0.4-3,0.3c-2.5,1.6-4,4.3-4.2,7.2c-0.1,1.1,0.4,2.1,1.3,2.7l0,0
		l2.7,1.7l2.2-3.8C364.1,385.1,364.6,384.2,365,383.2z"/>
	<path class="st11" d="M364.1,379.9c2.3-1.3,4.2-0.3,4.2,2.4c-0.2,2.9-1.7,5.6-4.2,7.2c-2.3,1.3-4.2,0.3-4.2-2.4
		C360,384.1,361.6,381.4,364.1,379.9z"/>
	<path class="st16" d="M335.6,369.1l2.1-3.6l-2.7-1.7l0,0c-1-0.5-2.1-0.4-3,0.3c-2.5,1.6-4,4.3-4.2,7.2c-0.1,1.1,0.4,2.1,1.3,2.7
		l0,0l2.7,1.7l2.2-3.8C334.7,371,335.2,370.1,335.6,369.1z"/>
	<path class="st11" d="M334.6,365.7c2.3-1.3,4.2-0.3,4.2,2.4c-0.2,2.9-1.7,5.6-4.2,7.2c-2.3,1.3-4.2,0.3-4.2-2.4
		C330.6,370,332.2,367.3,334.6,365.7z"/>
	<polygon class="st4" points="395,366.3 395,371.5 367.7,356.7 367.7,349.6 	"/>
	<polygon class="st3" points="396.6,365.4 369.3,349.2 367.7,349.6 395,366.3 	"/>
	<polygon class="st2" points="396.6,370.6 395,371.5 395,366.3 396.6,365.4 	"/>
	<polygon class="st4" points="365.9,349.6 362.5,375.9 362.5,380.7 365.9,357 	"/>
	<rect x="360.6" y="375.9" class="st2" width="1.9" height="4.7"/>
	<polygon class="st3" points="360.6,375.9 363.6,349.6 365.9,349.6 362.5,375.9 	"/>
	<polygon class="st4" points="333.6,361.3 333.6,366.3 361.9,354.8 361.9,348.7 	"/>
	<polygon class="st2" points="332.5,365.5 333.6,366.3 333.6,361.3 332.5,360.6 	"/>
	<polygon class="st3" points="337,359.8 333.6,361.3 332.5,360.6 361.9,347.3 361.9,348.7 	"/>
	<polygon class="st4" points="347.6,342.4 347.6,345.6 355.9,350.1 361.9,347.3 361.9,346 	"/>
	<polygon class="st3" points="347.6,342.4 348.2,342.1 361.9,345.1 361.9,346 	"/>
	<path class="st4" d="M359.5,317.5h12.7v21.9l0,0c-0.1,1.1-0.8,2.1-1.9,2.6c-2.8,1.4-6.2,1.4-9,0c-1-0.5-1.8-1.5-1.9-2.6l0,0
		L359.5,317.5z"/>
	<path class="st9" d="M309.4,282.2c0.7,1.1,1.6,2,2.8,2.6l51.8,27.5c3.5,1.8,7.6,1.9,11.2,0.1l36.3-18.4c4.6-2.4,8.1-6.6,9.4-11.6
		l17.5-64.7c0.3,0.1,0.6,0.2,0.9,0.3c0.7,0.2,1.5,0.4,2.3,0.4h0.1l-20.8,76.8c-1.4,5-4.8,9.2-9.4,11.6l-36.3,18.4
		c-3.5,1.8-7.7,1.7-11.2-0.1l-51.8-27.5C306.9,294.6,306.5,286.6,309.4,282.2z"/>
	<path class="st22" d="M309.4,282.2c0.7,1.1,1.6,2,2.8,2.6l51.8,27.5c3.5,1.8,7.6,1.9,11.2,0.1l36.3-18.4c4.6-2.4,8.1-6.6,9.4-11.6
		l17.5-64.7c0.3,0.1,0.6,0.2,0.9,0.3c0.7,0.2,1.5,0.4,2.3,0.4h0.1l-20.8,76.8c-1.4,5-4.8,9.2-9.4,11.6l-36.3,18.4
		c-3.5,1.8-7.7,1.7-11.2-0.1l-51.8-27.5C306.9,294.6,306.5,286.6,309.4,282.2z"/>
	<path class="st9" d="M311.8,279.9l37.6-19.3l49.5,25.5c-1.6,0.4-3.3,0.7-4.9,1c-4.3,0.9-8.6,1.8-12.3,4.1s-6.7,6.2-6.7,10.5
		l1.3,10.2l0,0l-1.1,0.6c-3.5,1.8-7.7,1.7-11.2-0.1l-51.8-27.5c-1.1-0.6-2-1.5-2.8-2.6C310,281.2,310.8,280.5,311.8,279.9z"/>
	<path class="st23" d="M311.8,279.9l37.6-19.3l49.5,25.5c-1.6,0.4-3.3,0.7-4.9,1c-4.3,0.9-8.6,1.8-12.3,4.1s-6.7,6.2-6.7,10.5
		l1.3,10.2l0,0l-1.1,0.6c-3.5,1.8-7.7,1.7-11.2-0.1l-51.8-27.5c-1.1-0.6-2-1.5-2.8-2.6C310,281.2,310.8,280.5,311.8,279.9z"/>
	<path class="st9" d="M317.2,247.7c0,0,30.1,8.9,38.1,1c9.9-9.7,5.8-34.3,4.6-43.9s0-16.3,2.7-19.1s6.5-6.9,19-1.8
		c-12.6,6.5-14.3,37.4-10.3,49.8c-9.9,10.2-9.2,26-9.4,33.3c0,0-25.8,6.3-39.2,13.7L317.2,247.7z"/>
	<path class="st22" d="M317.2,247.7c0,0,30.1,8.9,38.1,1c9.9-9.7,5.8-34.3,4.6-43.9s0-16.3,2.7-19.1s6.5-6.9,19-1.8
		c-12.6,6.5-14.3,37.4-10.3,49.8c-9.9,10.2-9.2,26-9.4,33.3c0,0-25.8,6.3-39.2,13.7L317.2,247.7z"/>
	<path class="st9" d="M322.7,280.8l-6.2-3.3c0-17-2.5-15.3-7.2-21.9c-4.7-6.6,2.5-10.8,7.9-7.8S324.8,259.5,322.7,280.8z"/>
	<path class="st24" d="M322.7,280.8l-6.2-3.3c0-17-2.5-15.3-7.2-21.9c-4.7-6.6,2.5-10.8,7.9-7.8S324.8,259.5,322.7,280.8z"/>
	<path class="st9" d="M381.6,184c0,0,33.8,14.6,50.2,22.8l-1.2,6l-53.9-24.4C378,186.5,379.7,185,381.6,184z"/>
	<path class="st22" d="M381.6,184c0,0,33.8,14.6,50.2,22.8l-1.2,6l-53.9-24.4C378,186.5,379.7,185,381.6,184z"/>
	<path class="st9" d="M371.3,233.8c-3.4-10.6-2.7-34.7,5.4-45.5l53.9,24.4l-12.3,61.7L398.8,286l-36.9-19
		C362.1,259.8,361.4,244,371.3,233.8z"/>
	<path class="st24" d="M371.3,233.8c-3.4-10.6-2.7-34.7,5.4-45.5l53.9,24.4l-12.3,61.7L398.8,286l-36.9-19
		C362.1,259.8,361.4,244,371.3,233.8z"/>
	<path class="st9" d="M404.7,246.2c-0.9-0.5-1.7-0.1-1.7,1c0.1,1.2,0.7,2.2,1.6,2.9c0.9,0.5,1.7,0.1,1.7-0.9
		C406.3,247.9,405.7,246.8,404.7,246.2z"/>
	<path class="st9" d="M396.3,241.3c-0.9-0.5-1.7-0.1-1.7,1c0.1,1.2,0.7,2.2,1.6,2.9c0.9,0.5,1.7,0.1,1.7-0.9
		C397.9,243,397.3,241.9,396.3,241.3z"/>
	<path class="st9" d="M388,236.4c-0.9-0.5-1.7-0.1-1.7,0.9c0.1,1.2,0.7,2.2,1.6,2.9c0.9,0.5,1.7,0.1,1.7-0.9
		C389.6,238.1,389,237,388,236.4z"/>
	<path class="st9" d="M379.7,231.5c-0.9-0.5-1.6-0.1-1.7,0.9c0.1,1.2,0.7,2.2,1.6,2.9c0.9,0.5,1.7,0.1,1.7-1
		C381.2,233.1,380.6,232.1,379.7,231.5z"/>
	<g class="st25">
		<path class="st23" d="M404.7,246.2c-0.9-0.5-1.7-0.1-1.7,1c0.1,1.2,0.7,2.2,1.6,2.9c0.9,0.5,1.7,0.1,1.7-0.9
			C406.3,247.9,405.7,246.8,404.7,246.2z"/>
		<path class="st23" d="M396.3,241.3c-0.9-0.5-1.7-0.1-1.7,1c0.1,1.2,0.7,2.2,1.6,2.9c0.9,0.5,1.7,0.1,1.7-0.9
			C397.9,243,397.3,241.9,396.3,241.3z"/>
		<path class="st23" d="M388,236.4c-0.9-0.5-1.7-0.1-1.7,0.9c0.1,1.2,0.7,2.2,1.6,2.9c0.9,0.5,1.7,0.1,1.7-0.9
			C389.6,238.1,389,237,388,236.4z"/>
		<path class="st23" d="M379.7,231.5c-0.9-0.5-1.6-0.1-1.7,0.9c0.1,1.2,0.7,2.2,1.6,2.9c0.9,0.5,1.7,0.1,1.7-1
			C381.2,233.1,380.6,232.1,379.7,231.5z"/>
	</g>
	<path class="st9" d="M381.6,291.2c3.7-2.3,8-3.2,12.3-4.1c1.6-0.3,3.3-0.6,4.9-1c2.6-0.6,5.2-1.5,7.5-2.8c6-3.3,10-9.4,11.9-16
		s2-13.5,1.6-20.3s-1.3-13.6-1-20.4c0.1-4,0.7-8.2,3.4-11.1s7.2-3.9,11.3-3.4c1.3,0.2,2.6,0.5,3.9,0.9l1.8,2.1l-0.7,2.5L421,282.3
		c-1.2,4.5-4.1,8.3-8,10.8c-0.5,0.3-0.9,0.5-1.4,0.8l-35.2,17.8l-1.3-10.2C375,297.3,378,293.5,381.6,291.2z"/>
	<path class="st24" d="M381.6,291.2c3.7-2.3,8-3.2,12.3-4.1c1.6-0.3,3.3-0.6,4.9-1c2.6-0.6,5.2-1.5,7.5-2.8c6-3.3,10-9.4,11.9-16
		s2-13.5,1.6-20.3s-1.3-13.6-1-20.4c0.1-4,0.7-8.2,3.4-11.1s7.2-3.9,11.3-3.4c1.3,0.2,2.6,0.5,3.9,0.9l1.8,2.1l-0.7,2.5L421,282.3
		c-1.2,4.5-4.1,8.3-8,10.8c-0.5,0.3-0.9,0.5-1.4,0.8l-35.2,17.8l-1.3-10.2C375,297.3,378,293.5,381.6,291.2z"/>
	<path class="st9" d="M381.6,284.2c12.9-3.7,25.5-4.1,30.1-13.4s5-22,2.7-44.2c-0.3-2.9-0.2-5.7,0.2-8.6c1.4-8.3,6.4-11.8,12.1-11.9
		c5.7-0.1,11.2,2,15.4,5.8c0.8,0.7,1.5,1.5,1.9,2.5s0.3,2.1-0.4,3c-0.5,0.5-1.2,0.9-2,0.9h-0.1c-0.8,0-1.5-0.1-2.3-0.4
		c-0.3-0.1-0.6-0.2-0.9-0.3c-1.6-0.5-3.1-1.1-4.7-1.5c-1.9-0.6-3.9-0.6-5.8,0c-1.8,0.7-3.2,2.3-3.7,4.1c-5.4,17.7,1.5,36.7-4.6,51.4
		c-5,13.3-22.2,18.8-34.4,22.8l0,0c1.2-0.5,2.2-1.2,3-2.2c1.2-1.9,1-4.5-0.5-6.2C386.1,284.6,383.8,283.8,381.6,284.2z"/>
	<path class="st22" d="M381.6,284.2c12.9-3.7,25.5-4.1,30.1-13.4s5-22,2.7-44.2c-0.3-2.9-0.2-5.7,0.2-8.6
		c1.4-8.3,6.4-11.8,12.1-11.9c5.7-0.1,11.2,2,15.4,5.8c0.8,0.7,1.5,1.5,1.9,2.5s0.3,2.1-0.4,3c-0.5,0.5-1.2,0.9-2,0.9h-0.1
		c-0.8,0-1.5-0.1-2.3-0.4c-0.3-0.1-0.6-0.2-0.9-0.3c-1.6-0.5-3.1-1.1-4.7-1.5c-1.9-0.6-3.9-0.6-5.8,0c-1.8,0.7-3.2,2.3-3.7,4.1
		c-5.4,17.7,1.5,36.7-4.6,51.4c-5,13.3-22.2,18.8-34.4,22.8l0,0c1.2-0.5,2.2-1.2,3-2.2c1.2-1.9,1-4.5-0.5-6.2
		C386.1,284.6,383.8,283.8,381.6,284.2z"/>
	<path class="st9" d="M372.7,293.3c0.8-2.1,1.9-4,3.3-5.8c1.4-1.7,3.4-2.9,5.6-3.3s4.5,0.3,6.1,2c1.5,1.7,1.7,4.2,0.5,6.2
		c-0.8,1-1.8,1.7-3,2.2c-1,0.4-1.9,0.9-2.8,1.4c-2.4,1.6-4.1,4.1-4.9,6.9c-0.7,2.8-1.1,5.6-1.1,8.5v0.5l-6-3.3
		C370,303.4,370.8,298.2,372.7,293.3z"/>
	<path class="st22" d="M372.7,293.3c0.8-2.1,1.9-4,3.3-5.8c1.4-1.7,3.4-2.9,5.6-3.3s4.5,0.3,6.1,2c1.5,1.7,1.7,4.2,0.5,6.2
		c-0.8,1-1.8,1.7-3,2.2c-1,0.4-1.9,0.9-2.8,1.4c-2.4,1.6-4.1,4.1-4.9,6.9c-0.7,2.8-1.1,5.6-1.1,8.5v0.5l-6-3.3
		C370,303.4,370.8,298.2,372.7,293.3z"/>
	<path class="st26" d="M419.5,285.9c-0.1,0.3-0.3,0.5-0.4,0.8C419.3,286.4,419.4,286.1,419.5,285.9L419.5,285.9z M418.7,287.4
		c-0.2,0.3-0.4,0.5-0.6,0.8C418.3,288,418.5,287.7,418.7,287.4L418.7,287.4z M378.9,185.9c-0.3,0.3-0.6,0.6-1,0.9
		C378.2,186.5,378.5,186.2,378.9,185.9z M380,184.9c-0.3,0.2-0.6,0.5-0.9,0.8C379.4,185.4,379.7,185.2,380,184.9L380,184.9z
		 M376.8,188.2c-0.2,0.3-0.5,0.7-0.7,1c0.5-0.8,1.1-1.6,1.7-2.3C377.4,187.4,377.1,187.8,376.8,188.2L376.8,188.2z M372,198.5
		c-0.9,3-1.5,6.1-1.9,9.3C370.5,204.6,371.1,201.5,372,198.5z M376,189.4c-0.2,0.4-0.5,0.7-0.7,1.1
		C375.5,190.1,375.8,189.7,376,189.4z M375.3,190.5c-1.4,2.5-2.5,5.2-3.3,8C372.8,195.7,373.9,193,375.3,190.5L375.3,190.5z
		 M370.1,207.9c-0.1,0.5-0.1,0.9-0.2,1.4C370,208.9,370,208.4,370.1,207.9L370.1,207.9z M369.9,209.7c0,0.4-0.1,0.9-0.1,1.4
		C369.8,210.6,369.8,210.1,369.9,209.7L369.9,209.7z M369.7,211.3c0,0.5-0.1,0.9-0.1,1.4C369.6,212.3,369.7,211.8,369.7,211.3
		L369.7,211.3z M369.6,212.8c-0.1,1.5-0.2,2.9-0.2,4.3C369.4,215.7,369.5,214.3,369.6,212.8L369.6,212.8z M369.4,217.7L369.4,217.7z
		 M371,232.7c0-0.1-0.1-0.3-0.1-0.4C370.9,232.4,371,232.5,371,232.7z M370.7,231.4c0-0.2-0.1-0.3-0.1-0.5
		C370.6,231.1,370.7,231.3,370.7,231.4L370.7,231.4z M370.4,230.1c0-0.2-0.1-0.4-0.1-0.6C370.4,229.8,370.4,229.9,370.4,230.1
		L370.4,230.1z M370.2,228.7l-0.1-0.6L370.2,228.7z M370,227.2c0-0.2,0-0.4-0.1-0.6C369.9,226.9,369.9,227,370,227.2L370,227.2z
		 M369.7,225.3c0-0.2,0-0.4,0-0.7C369.7,224.9,369.7,225.1,369.7,225.3L369.7,225.3z M369.6,223.6c0-0.3,0-0.5,0-0.8
		C369.6,223.1,369.6,223.4,369.6,223.6L369.6,223.6z M369.5,222c0-0.3,0-0.6,0-0.9C369.5,221.4,369.5,221.7,369.5,222L369.5,222z
		 M369.4,220.4c0-0.3,0-0.6,0-0.9C369.4,219.8,369.4,220.1,369.4,220.4z M390.8,282L390.8,282l-28.9-14.9l0,0L390.8,282z M414,292.4
		c-0.4,0.3-0.8,0.6-1.2,0.8C413.2,293,413.6,292.7,414,292.4z M414.3,292.2c0.4-0.3,0.7-0.5,1-0.8C415,291.7,414.7,292,414.3,292.2
		L414.3,292.2z M416.1,292.9c0.3-0.3,0.6-0.6,0.8-0.9C416.7,292.3,416.4,292.6,416.1,292.9L416.1,292.9z M417.7,288.9
		c-0.2,0.3-0.5,0.6-0.7,0.9C417.2,289.5,417.4,289.2,417.7,288.9z M420,284.9c0.1-0.2,0.2-0.4,0.3-0.6
		C420.2,284.4,420.1,284.6,420,284.9L420,284.9z"/>
	<path class="st16" d="M353.6,313.9c6-2.6,10.9-7.2,14-12.9c3-5.7,4.6-10.7,3.4-17.1l-46.6-18.3c-1.5,13.9-14.2,22.9-14.2,22.9
		L353.6,313.9z"/>
	<path class="st17" d="M302.8,368.5c0,3.8,0.1,9.2,0.1,9.2l2.5,0.1c2.4,0.1,4.6,1.7,5.4,4l0.1,0.2c0.4,1.2,1.7,1.8,2.9,1.5l0,0
		c0.6-0.2,1.1-0.6,1.4-1.2l1.2-12.3L302.8,368.5z"/>
	<path class="st6" d="M299.2,406c-6.6,2.8-16.6,3.4-20.8-3.4v1.8c4.2,6.7,14.2,6.2,20.8,3.4s5.1-7.4,11-9.9c2.2-0.8,4.1-2,5.8-3.6
		c0-0.5,0.1-1.2,0.2-2c-1.7,1.6-3.8,2.9-6,3.8C304.4,398.6,305.8,403.2,299.2,406z"/>
	<path class="st9" d="M316.2,386.4c-0.3-1.3-0.3-2.6,0-3.9c0.2-0.6,0-1.2-0.3-1.7l-0.5-0.5l-0.2,2c-0.6,1.2-2,1.7-3.1,1.1
		c-0.6-0.3-1-0.8-1.2-1.3l-0.1-0.2c-0.8-2.3-2.9-3.9-5.4-4l-2.5-0.1c-0.8,0-1.5,0.4-1.8,1.1c-2.6,6.3-9.2,13.4-14.3,16.6
		c-3.7-0.1-8.4,3-8.4,6.8v0.4c4.2,6.7,14.2,6.2,20.8,3.4s5.1-7.4,11-9.9c2.2-0.9,4.2-2.2,6-3.8C316.4,390.3,316.4,388.3,316.2,386.4
		z"/>
	<path class="st12" d="M316.2,386.4c-0.3-1.3-0.3-2.6,0-3.9c0.2-0.6,0-1.2-0.3-1.7l-0.5-0.5l-0.2,2c-0.6,1.2-2,1.7-3.1,1.1
		c-0.6-0.3-1-0.8-1.2-1.3l-0.1-0.2c-0.8-2.3-2.9-3.9-5.4-4l-2.5-0.1c-0.8,0-1.5,0.4-1.8,1.1c-2.6,6.3-9.2,13.4-14.3,16.6
		c-3.7-0.1-8.4,3-8.4,6.8v0.4c4.2,6.7,14.2,6.2,20.8,3.4s5.1-7.4,11-9.9c2.2-0.9,4.2-2.2,6-3.8C316.4,390.3,316.4,388.3,316.2,386.4
		z"/>
	<path class="st27" d="M316.2,386.4c-0.3-1.3-0.3-2.6,0-3.9c0.2-0.6,0-1.2-0.3-1.7l-0.5-0.5l-0.2,2c-0.6,1.2-2,1.7-3.1,1.1
		c-0.6-0.3-1-0.8-1.2-1.3l-0.1-0.2c-0.8-2.3-2.9-3.9-5.4-4l-2.5-0.1c-0.8,0-1.5,0.4-1.8,1.1c-2.6,6.3-9.2,13.4-14.3,16.6
		c-3.7-0.1-8.4,3-8.4,6.8v0.4c4.2,6.7,14.2,6.2,20.8,3.4s5.1-7.4,11-9.9c2.2-0.9,4.2-2.2,6-3.8C316.4,390.3,316.4,388.3,316.2,386.4
		z"/>
	<path class="st7" d="M303.5,391.6c0.3,0.3,0.9,0.3,1.2,0c0.3-0.3,0.3-0.7,0.1-1.1c-2-2.7-5.3-4.1-8.6-3.8c-0.4,0.4-0.7,0.9-1.1,1.3
		C298.3,387.6,301.5,389,303.5,391.6z"/>
	<path class="st7" d="M306.1,388.7c0.3,0.3,0.9,0.3,1.2,0c0.3-0.3,0.3-0.7,0.1-1.1c-2.1-2.8-5.5-4.2-9-3.9c-0.3,0.5-0.6,0.9-1,1.4
		C300.6,384.9,303.5,385.5,306.1,388.7z"/>
	<path class="st7" d="M300.8,394.4c0.3,0.3,0.8,0.4,1.1,0.1l0,0c0.4-0.3,0.4-0.8,0.1-1.1c-2-2.6-5.1-4-8.4-3.8
		c-0.4,0.5-0.9,0.9-1.3,1.3C295.6,390.5,298.8,391.8,300.8,394.4z"/>
	<path class="st7" d="M286.8,395.5c-3.7-0.1-8.4,3-8.4,6.8v0.4c4.1,6.6,13.9,6.2,20.5,3.5C298.4,397.1,289.7,395.4,286.8,395.5z"/>
	<path class="st7" d="M298,397.1c0.3,0.3,0.9,0.3,1.2,0c0.2-0.3,0.3-0.7,0.1-1c-2-2.6-5.1-4.1-8.4-3.8c-0.5,0.5-1,0.9-1.6,1.3
		C292.6,393.4,295.4,394,298,397.1z"/>
	<path class="st16" d="M322.3,345.6c-0.5,8.3-2.6,14.3-4.3,25.6c0,0-9.9,3-16.1-1.4l-0.3-17.4L322.3,345.6z"/>
	<path class="st17" d="M267.5,355.9c-0.8,3.6-2.5,8.5-2.5,8.5l2.5,0.1c2.4,0.1,4.6,1.7,5.4,4v0.2c0.4,1.2,1.7,1.8,2.9,1.5l0,0
		c0.6-0.2,1.2-0.6,1.4-1.2l3.8-9.9L267.5,355.9z"/>
	<path class="st6" d="M261.4,392.5c-6.6,2.8-16.6,3.4-20.8-3.4v1.8c4.2,6.7,14.2,6.2,20.8,3.4c6.6-2.8,5.1-7.4,11-9.9
		c2.2-0.8,4.1-2,5.8-3.6c0-0.5,0.1-1.2,0.2-2c-1.7,1.6-3.8,2.9-6,3.8C266.5,385.1,267.9,389.7,261.4,392.5z"/>
	<path class="st9" d="M278.3,372.9c-0.3-1.3-0.3-2.6,0-3.9c0.2-0.6,0-1.2-0.3-1.7l-0.1-0.1l-0.6,1.6c-0.3,0.6-0.8,1-1.4,1.2
		c-1.2,0.4-2.5-0.3-2.9-1.5v-0.2c-0.8-2.3-2.9-3.9-5.4-4l-2.5-0.1c-0.8,0-1.5,0.4-1.8,1.1c-2.6,6.3-9.2,13.4-14.3,16.6
		c-3.7-0.1-8.4,3-8.4,6.8v0.4c4.2,6.7,14.2,6.2,20.8,3.4c6.6-2.8,5.1-7.4,11-9.9c2.2-0.9,4.2-2.2,6-3.8
		C278.6,376.9,278.6,374.9,278.3,372.9z"/>
	<path class="st12" d="M278.3,372.9c-0.3-1.3-0.3-2.6,0-3.9c0.2-0.6,0-1.2-0.3-1.7l-0.1-0.1l-0.6,1.6c-0.3,0.6-0.8,1-1.4,1.2
		c-1.2,0.4-2.5-0.3-2.9-1.5v-0.2c-0.8-2.3-2.9-3.9-5.4-4l-2.5-0.1c-0.8,0-1.5,0.4-1.8,1.1c-2.6,6.3-9.2,13.4-14.3,16.6
		c-3.7-0.1-8.4,3-8.4,6.8v0.4c4.2,6.7,14.2,6.2,20.8,3.4c6.6-2.8,5.1-7.4,11-9.9c2.2-0.9,4.2-2.2,6-3.8
		C278.6,376.9,278.6,374.9,278.3,372.9z"/>
	<path class="st27" d="M278.3,372.9c-0.3-1.3-0.3-2.6,0-3.9c0.2-0.6,0-1.2-0.3-1.7l-0.1-0.1l-0.6,1.6c-0.3,0.6-0.8,1-1.4,1.2
		c-1.2,0.4-2.5-0.3-2.9-1.5v-0.2c-0.8-2.3-2.9-3.9-5.4-4l-2.5-0.1c-0.8,0-1.5,0.4-1.8,1.1c-2.6,6.3-9.2,13.4-14.3,16.6
		c-3.7-0.1-8.4,3-8.4,6.8v0.4c4.2,6.7,14.2,6.2,20.8,3.4c6.6-2.8,5.1-7.4,11-9.9c2.2-0.9,4.2-2.2,6-3.8
		C278.6,376.9,278.6,374.9,278.3,372.9z"/>
	<path class="st7" d="M265.6,378.1c0.3,0.3,0.9,0.3,1.2,0c0.2-0.3,0.3-0.7,0.1-1c-2-2.7-5.3-4.1-8.6-3.8c-0.4,0.4-0.7,0.9-1.1,1.3
		C260.4,374.2,263.6,375.5,265.6,378.1z"/>
	<path class="st7" d="M268.2,375.2c0.3,0.3,0.8,0.4,1.2,0.1c0.4-0.3,0.4-0.8,0.1-1.1c-2.1-2.8-5.5-4.2-9-3.9c-0.3,0.5-0.6,0.9-1,1.4
		C262.8,371.5,265.6,372.1,268.2,375.2z"/>
	<path class="st7" d="M262.9,380.9c0.3,0.3,0.9,0.3,1.2,0c0.3-0.3,0.3-0.7,0.1-1.1c-2-2.6-5.1-4-8.4-3.8c-0.4,0.4-0.9,0.9-1.3,1.3
		C257.8,377,260.9,378.4,262.9,380.9z"/>
	<path class="st7" d="M248.9,382c-3.7-0.1-8.4,3-8.4,6.8v0.4c4.1,6.6,13.9,6.2,20.5,3.5C260.5,383.6,251.9,382,248.9,382z"/>
	<path class="st7" d="M260.1,383.6c0.3,0.3,0.8,0.4,1.2,0.1l0,0c0.4-0.3,0.4-0.8,0.1-1.1l0,0c-2-2.6-5.1-4-8.4-3.8
		c-0.5,0.5-1.1,0.9-1.6,1.3C254.7,379.9,257.6,380.5,260.1,383.6z"/>
	<path class="st16" d="M290.5,336.3c-1.9,8.1-5,13.7-8.5,24.5c0,0-10.3,1.2-15.7-4.1l4.6-28.4L290.5,336.3z"/>
	<polygon class="st11" points="165.5,277.9 165.5,363.6 168.6,361.9 168.6,276.1 	"/>
	<polygon class="st16" points="165.5,277.9 165.5,363.6 162.5,361.9 162.5,276.1 	"/>
	<polygon class="st11" points="168.6,300.7 239.6,259.7 239.6,256.5 168.6,297.5 	"/>
	<polygon class="st16" points="168.6,294 236.5,254.7 239.6,256.5 168.6,297.5 	"/>
	<polygon class="st11" points="379.8,316.2 379.8,401.9 382.9,400.2 382.9,314.4 	"/>
	<polygon class="st16" points="379.8,316.2 379.8,401.9 376.8,400.2 376.8,314.4 	"/>
	<polygon class="st11" points="305.8,358.9 305.8,444.7 308.8,442.9 308.8,357.2 	"/>
	<polygon class="st16" points="305.8,358.9 305.8,444.7 302.8,442.9 302.8,357.2 	"/>
	<polygon class="st11" points="308.8,381.8 379.8,340.8 379.8,337.5 308.8,378.5 	"/>
	<polygon class="st16" points="308.8,375.1 376.8,335.8 379.8,337.5 308.8,378.5 	"/>
	<g class="st28">
		<polygon class="st7" points="379.8,316.2 379.8,401.9 382.9,400.2 382.9,314.4 		"/>
		<polygon class="st7" points="379.8,316.2 379.8,401.9 376.8,400.2 376.8,314.4 		"/>
		<polygon class="st7" points="305.8,358.9 305.8,444.7 308.8,442.9 308.8,357.2 		"/>
		<polygon class="st7" points="305.8,358.9 305.8,444.7 302.8,442.9 302.8,357.2 		"/>
		<polygon class="st7" points="308.8,381.8 379.8,340.8 379.8,337.5 308.8,378.5 		"/>
		<polygon class="st7" points="308.8,375.1 376.8,335.8 379.8,337.5 308.8,378.5 		"/>
	</g>
	<g class="st28">
		<polygon class="st7" points="165.5,277.9 165.5,363.6 168.6,361.9 168.6,276.1 		"/>
		<polygon class="st7" points="165.5,277.9 165.5,363.6 162.5,361.9 162.5,276.1 		"/>
		<polygon class="st7" points="168.6,300.7 239.6,259.7 239.6,256.5 168.6,297.5 		"/>
		<polygon class="st7" points="168.6,294 236.5,254.7 239.6,256.5 168.6,297.5 		"/>
	</g>
	<polygon class="st11" points="305.8,350.6 162.5,268 239.6,223.5 382.9,306.1 	"/>
	<polygon class="st11" points="305.8,358.9 162.5,276.1 162.5,268 305.8,350.6 	"/>
	<polygon class="st11" points="305.8,350.6 382.9,306.1 382.9,314.4 305.8,358.9 	"/>
	<polygon class="st29" points="305.8,350.6 162.5,268 239.6,223.5 382.9,306.1 	"/>
	<polygon class="st30" points="305.8,350.6 382.9,306.1 382.9,314.4 305.8,358.9 	"/>
	<polygon class="st31" points="305.8,358.9 162.5,276.1 162.5,268 305.8,350.6 	"/>
	<polygon class="st32" points="246.8,243.2 235.3,268.3 205.3,263.7 216.8,238.5 	"/>
	<polygon class="st2" points="258,248.1 232,269.2 206.7,258.8 232.7,237.6 	"/>
	<polygon class="st7" points="263.3,241 278.9,256.6 240,269.5 224.5,254 	"/>
	<path class="st4" d="M240.2,283.4l31.4-18.3c2-1,4.4-1,6.5,0L330,295c0.7,0.3,1.2,1,1.3,1.8l0,0v2l0,0c0,0.1,0,0.3,0,0.4l0,0
		c-0.1,0.2-0.1,0.3-0.2,0.4l0,0c-0.1,0.2-0.2,0.3-0.4,0.4l0,0c-0.2,0.2-0.4,0.3-0.6,0.4L298.5,319c-0.3,0.2-0.6,0.3-0.9,0.4
		l-0.4,0.1l-0.5,0.1l-0.6,0.1H296c-0.3,0-0.5,0-0.8,0h-0.1c-0.3,0-0.5,0-0.8,0h-0.1c-0.3,0-0.5-0.1-0.7-0.1h-0.1
		c-0.2-0.1-0.4-0.1-0.6-0.2h-0.1c-0.2-0.1-0.5-0.2-0.7-0.3L240.2,289c-0.2-0.1-0.4-0.3-0.6-0.4c-0.1,0-0.1-0.1-0.1-0.2
		c-0.1-0.1-0.2-0.2-0.3-0.3c0-0.1-0.1-0.1-0.1-0.2c-0.1-0.1-0.1-0.2-0.2-0.3c0-0.1,0-0.1,0-0.2s0-0.2,0-0.3v-1.8
		C239,284.5,239.5,283.8,240.2,283.4z"/>
	<path class="st19" d="M331.3,296.9c0,0.2,0,0.4,0,0.6l0,0c-0.1,0.2-0.1,0.3-0.2,0.4l0,0c-0.1,0.2-0.2,0.3-0.4,0.4l0,0
		c-0.2,0.2-0.4,0.3-0.6,0.4L298.6,317c-0.3,0.2-0.6,0.3-0.9,0.4l-0.4,0.1l-0.5,0.1c-0.2,0-0.4,0.1-0.6,0.1h-0.1c-0.3,0-0.5,0-0.8,0
		h-0.1c-0.3,0-0.5,0-0.8,0h-0.1c-0.3,0-0.5-0.1-0.7-0.1h-0.1c-0.2-0.1-0.4-0.1-0.6-0.2h-0.1c-0.2-0.1-0.5-0.2-0.7-0.3l-51.9-30
		c-0.2-0.1-0.4-0.3-0.6-0.4c-0.1,0-0.1-0.1-0.1-0.2c-0.1-0.1-0.2-0.2-0.3-0.3c0-0.1-0.1-0.1-0.1-0.2c-0.1-0.1-0.1-0.2-0.2-0.3
		c0-0.1,0-0.1,0-0.2s0-0.2,0-0.3v1.8c0,0.1,0,0.2,0,0.3c0,0.1,0,0.1,0,0.2s0.1,0.2,0.2,0.3c0,0.1,0.1,0.1,0.1,0.2
		c0.1,0.1,0.2,0.2,0.3,0.3c0.1,0,0.1,0.1,0.1,0.2c0.2,0.2,0.4,0.3,0.6,0.4l51.8,30c0.2,0.1,0.5,0.2,0.7,0.3h0.1
		c0.2,0.1,0.4,0.1,0.6,0.2h0.1c0.2,0,0.5,0.1,0.7,0.1h0.1c0.3,0,0.5,0,0.8,0h0.1c0.3,0,0.5,0,0.8,0h0.1l0.6-0.1l0.5-0.1l0.4-0.1
		c0.3-0.1,0.6-0.2,0.9-0.4l31.5-18.3c0.2-0.1,0.4-0.3,0.6-0.4l0,0c0.1-0.1,0.3-0.3,0.4-0.4l0,0c0.1-0.1,0.2-0.3,0.2-0.4l0,0
		c0-0.1,0-0.3,0-0.4l0,0L331.3,296.9L331.3,296.9z"/>
	<path class="st4" d="M243.3,285.3l50.4,29.1c0.1,0,0.1,0.1,0.2,0.1h0.1c0.1,0.1,0.3,0.1,0.4,0.1h0.3h0.2c0.1,0,0.3,0,0.5,0l0,0
		c0.2,0,0.3,0,0.5,0h0.3l0.4-0.1c0.1,0,0.2-0.1,0.4-0.1l16.3-9.3L261.2,275L243.3,285.3z"/>
	<path class="st20" d="M295.4,314.7L295.4,314.7z"/>
	<path class="st4" d="M291.2,277.3l-9.5,5.6c-0.5,0.3-0.6,0.9-0.3,1.4c0.1,0.1,0.2,0.2,0.3,0.3l14.2,8.2c0.5,0.3,1.1,0.3,1.6,0
		l9.5-5.6c0.5-0.3,0.6-0.9,0.3-1.4c-0.1-0.1-0.2-0.2-0.3-0.3l-14.2-8.2C292.3,277,291.7,277,291.2,277.3z"/>
	<path class="st12" d="M243.3,285.3l50.4,29.1c0.1,0,0.1,0.1,0.2,0.1h0.1c0.1,0.1,0.3,0.1,0.4,0.1h0.3h0.2c0.1,0,0.3,0,0.5,0l0,0
		c0.2,0,0.3,0,0.5,0h0.3l0.4-0.1c0.1,0,0.2-0.1,0.4-0.1l16.3-9.3L261.2,275L243.3,285.3z"/>
	<path class="st12" d="M291.2,277.3l-9.5,5.6c-0.5,0.3-0.6,0.9-0.3,1.4c0.1,0.1,0.2,0.2,0.3,0.3l14.2,8.2c0.5,0.3,1.1,0.3,1.6,0
		l9.5-5.6c0.5-0.3,0.6-0.9,0.3-1.4c-0.1-0.1-0.2-0.2-0.3-0.3l-14.2-8.2C292.3,277,291.7,277,291.2,277.3z"/>
	<path class="st17" d="M316.2,233.4l-6.3,16l-25,10.3c-1.5,0.6-3.2,0.9-4.8,0.7l-9.6-0.8c-1.1-0.1-2.3,0.2-3.2,0.8l-5.5,3.3
		c-0.6,0.3-1.1,0.8-1.5,1.3l-2.7,3.2c-0.7,0.8-0.6,2.1,0.2,2.8c0.1,0,0.1,0.1,0.2,0.1l1.7,1.2c1.8,1.3,4.2,1.5,6.2,0.5l4.3-2.1
		l8.8,1v2.3l-2.4,2c-1.1,0.9-1.2,2.5-0.3,3.6c0.1,0.1,0.2,0.2,0.3,0.3l0,0c0,0,5.9-1.7,11.2-10.3l31.3-6.6c3.6-0.8,6.5-3.3,7.7-6.8
		l6-17L316.2,233.4z"/>
	<path class="st9" d="M333.4,206.2c-4.3-0.5-6.8-0.3-10.9,6.5c-4.9,8.2-9.6,24-9.6,24c9.4,4.6,20.5,5.4,20.5,5.4
		C335.8,236.1,333.4,206.2,333.4,206.2z"/>
	<g class="st33">
		<path class="st23" d="M333.4,206.2c-4.3-0.5-6.8-0.3-10.9,6.5c-4.9,8.2-9.6,24-9.6,24c9.4,4.6,20.5,5.4,20.5,5.4
			C335.8,236.1,333.4,206.2,333.4,206.2z"/>
	</g>
	<path class="st9" d="M367.8,213.7c-13.4-6.3-23.4-7-34.4-7.5c-16.4,10.5-10.3,19.3-10,33.4c0.2,11.9,2.5,19.8-2.7,30.7l31.7,18.3
		c9.2-0.1,16.6-2.3,19.6-4.2C376.3,245.5,375.1,216.7,367.8,213.7z"/>
	<path class="st13" d="M367.8,213.7c-13.4-6.3-23.4-7-34.4-7.5c-16.4,10.5-10.3,19.3-10,33.4c0.2,11.9,2.5,19.8-2.7,30.7l31.7,18.3
		c9.2-0.1,16.6-2.3,19.6-4.2C376.3,245.5,375.1,216.7,367.8,213.7z"/>
	<path class="st17" d="M354.5,250.4l-4,17.7L323,279.4c-1.7,0.7-3.5,1-5.3,0.8l-10.6-0.9c-1.2-0.1-2.5,0.2-3.6,0.8l-6.1,3.7
		c-0.6,0.4-1.2,0.8-1.6,1.4l-3,3.5c-0.8,0.9-0.7,2.3,0.3,3.1l0.1,0.1l1.9,1.3c2,1.4,4.7,1.6,6.9,0.5l4.7-2.4l7.7,1.4
		c3.5,0.6,7.1,0,10.2-1.7l1.6-0.9l33.6-7.1c4.4-0.9,7.9-4.3,8.9-8.7l4.5-19.6L354.5,250.4z"/>
	<path class="st9" d="M367.8,213.7c16,6,12.4,20.2,6.5,42.8c-9.5,2.6-20.8-5.7-20.8-5.7C356.6,233,357.8,213.4,367.8,213.7z"/>
	<path class="st23" d="M367.8,213.7c16,6,12.4,20.2,6.5,42.8c-9.5,2.6-20.8-5.7-20.8-5.7C356.6,233,357.8,213.4,367.8,213.7z"/>
	<path class="st4" d="M231.7,246.8L231.7,246.8l1.2-0.6l0,0c0.5-0.2,1-0.2,1.4,0.1l52.2,30.4c1.6,1,2.8,2.6,3.1,4.5l5.4,34.1
		c0.1,0.7-0.3,1.4-0.9,1.6l0,0l-1.2,0.6l0,0c-0.4,0.2-0.9,0.1-1.4-0.1L239.4,287c-1.6-1-2.8-2.6-3.1-4.5l-5.4-34.2
		C230.8,247.7,231.2,247.1,231.7,246.8z"/>
	<path class="st7" d="M260.2,278c2.7,1.7,4.5,4.4,5.2,7.5c0.3,2.7-1.4,3.7-4,2.2c-2.7-1.7-4.5-4.4-5.2-7.5
		C255.9,277.6,257.7,276.6,260.2,278z"/>
	<path class="st19" d="M294,315.8l-5.4-34.1c-0.3-1.9-1.4-3.5-3.1-4.5l-52.2-30.4c-0.5-0.3-1.1-0.3-1.6,0l0,0l1.2-0.6l0,0
		c0.5-0.2,1-0.2,1.4,0.1l52.2,30.4c1.6,1,2.8,2.6,3.1,4.5l5.3,34.1c0.1,0.7-0.3,1.4-0.9,1.6l0,0l-1.2,0.6l0,0
		C293.6,317.3,294.1,316.5,294,315.8z"/>
	<path class="st16" d="M324,189.4c-4.9-3.5-6.3-10.2-3.3-15.5c-1.3-0.6-2.4-1.6-3.1-2.9c-0.8-1.7,0-3.7,1.7-4.5
		c0.9-0.4,1.8-0.4,2.7,0c-0.7-2.1,0.1-4.4,1.9-5.6c1.9-1,4.2-0.6,5.6,1c0-1.3,0.8-2.6,2.1-3c1.3-0.3,2.7-0.2,3.9,0.3
		c1.3,0.4,2.4,1,3.7,1.4c2.2,0.5,4.4,0.8,6.6,0.9c2.2,0,4.5,0.6,6.4,1.7c1.9,1.2,3.5,4.1,2.5,6.5c0.6-0.8,1.6-1.3,2.7-1.4
		c1,0,2,0.4,2.7,1.2c-1.4,0.9-2.8,1.8-4.1,2.7c1.4-0.6,3.5,0.4,4.3,1.7c0.7,1.4,0.9,3,0.8,4.5c-0.2,5.9-1.2,11.7-3.1,17.2
		c-1,2.9-2.3,5.9-5,7.2L324,189.4z"/>
	<path class="st17" d="M338.8,203.2l0.6,6.9c0,0.5-0.1,1.1-0.4,1.5c-0.8,1.5-0.5,3.3,0.6,4.5c0.9,0.7,2,1,3.1,1
		c4.2,0.2,8.3-1.3,11.3-4.3c0.6-0.6,0.9-1.5,0.9-2.4l-0.5-17.4L338.8,203.2z"/>
	<path class="st19" d="M353.1,193.9l-14.3,9.3l0.5,6.1c3.3-0.8,6.7-1.7,9.3-3.9C352,202.6,353.7,198.3,353.1,193.9z"/>
	<path class="st17" d="M323.2,175.3c-1,8-0.5,16,1.5,23.8c0.4,1.7,1,3.4,1.9,4.9s2.2,2.7,3.9,3.4c2,0.8,4.3,0.4,6.4,0
		c3.9-0.7,7.9-1.4,11.2-3.4s6-5.7,5.7-9.7c1.9,1.2,4.4,1.3,6.5,0.4c2-1.1,3.4-3.2,3.5-5.5c0.1-2.2-1.1-4.6-3.3-5.1
		c-1.4-0.2-2.7,0.2-3.8,1.1c-1,0.9-1.9,1.9-2.6,3.1c-0.3,0.6-0.8,1-1.3,1.4s-1.3,0.4-1.8,0c-0.5-0.6-0.7-1.3-0.5-2l0.2-5
		c0-0.8-0.4-1.5-1.1-1.9c-1-0.6-1.8-1.5-2.2-2.6c-0.4-1-0.6-2-0.6-3c-0.1-0.7-0.6-1.2-1.3-1.1c-0.1,0-0.2,0-0.4,0.1
		C338.4,176.9,330.1,177,323.2,175.3z"/>
	<polygon class="st18" points="334.2,187.3 329.7,194.9 335,195.9 	"/>
	<path class="st18" d="M340.2,198.5l-4.1,2c0.7,0.9,2,1.3,3.1,0.9C340.2,200.8,340.6,199.6,340.2,198.5z"/>
	<path class="st19" d="M340.2,198.5l-4.1,2c0.7,0.9,2,1.3,3.1,0.9C340.2,200.8,340.6,199.6,340.2,198.5z"/>
	<path class="st18" d="M337.8,201.5c0.5,0.1,1,0.1,1.4-0.1c0.8-0.4,1.2-1.3,1.1-2.1C339,199.2,337.9,200.2,337.8,201.5z"/>
	<path class="st20" d="M341.9,187.6c0.1,0.8-0.5,1.6-1.4,1.7s-1.6-0.5-1.7-1.4c-0.1-0.8,0.5-1.6,1.4-1.7
		C341.1,186.2,341.8,186.8,341.9,187.6z"/>
	<path class="st20" d="M329,188.4c0.1,0.8-0.5,1.6-1.4,1.7s-1.6-0.5-1.7-1.4c-0.1-0.8,0.5-1.6,1.4-1.7
		C328.2,187,328.9,187.6,329,188.4L329,188.4z"/>
	<path class="st20" d="M326.9,182.5l-3.1,2.7c-0.4-0.8-0.2-1.8,0.4-2.5C325,182.2,326.1,182.1,326.9,182.5z"/>
	<path class="st20" d="M340,181l3.6,2c0.2-0.9-0.1-1.8-0.9-2.3C341.8,180.3,340.8,180.4,340,181z"/>
</g>
</svg>
