<?xml version="1.0" encoding="utf-8"?>
<!-- Generator: Adobe Illustrator 23.0.2, SVG Export Plug-In . SVG Version: 6.00 Build 0)  -->
<svg version="1.1" id="Layer_1" xmlns="http://www.w3.org/2000/svg" xmlns:xlink="http://www.w3.org/1999/xlink" x="0px" y="0px"
	 viewBox="0 0 500 500" style="enable-background:new 0 0 500 500;" xml:space="preserve">
<style type="text/css">
	.st0{fill:#00A4FF;}
	.st1{fill:#FFFFFF;}
	.st2{fill:#263238;}
	.st3{opacity:0.2;enable-background:new    ;}
	.st4{opacity:0.5;fill:#FFFFFF;enable-background:new    ;}
	.st5{fill:#E0E0E0;}
	.st6{opacity:0.7;fill:#FFFFFF;enable-background:new    ;}
	.st7{opacity:0.92;fill:#FFFFFF;enable-background:new    ;}
	.st8{opacity:0.8;}
	.st9{opacity:0.5;}
	.st10{fill:#727272;}
	.st11{fill:#B7B7B7;}
	.st12{fill:#EFEFEF;}
	.st13{opacity:0.7;}
	.st14{opacity:0.94;}
	.st15{fill:#CCCCCC;}
	.st16{opacity:0.92;}
	.st17{opacity:0.2;fill:#FFFFFF;enable-background:new    ;}
	.st18{opacity:0.2;}
	.st19{fill:#D9F3FF;}
	.st20{opacity:0.3;}
	.st21{opacity:0.6;fill:#FFFFFF;enable-background:new    ;}
	.st22{opacity:0.4;fill:#FFFFFF;enable-background:new    ;}
	.st23{opacity:0.89;fill:#FFFFFF;enable-background:new    ;}
	.st24{opacity:0.3;enable-background:new    ;}
	.st25{opacity:0.4;}
	.st26{opacity:0.93;}
	.st27{fill:#FFC3BD;}
	.st28{fill:#ED847E;}
	.st29{fill:#A59471;}
</style>
<g id="freepik--background-simple--inject-10">
	<path class="st0" d="M111.7,92.8c27.6-14.6,63-17.6,91.1-2.6c24.2,12.9,32.9,39.1,41.4,63.4c11.9,34,32.3,73,74.3,49.8
		c28.7-15.9,58.2-44.7,93.9-29.1c32.5,14.2,39.3,54.9,29.8,85.8C411.3,360,285.5,398,193.1,367.4C108.3,339.3,12.2,236.8,60.6,142.7
		C71.1,122.2,89.9,104.3,111.7,92.8z"/>
	<path class="st1" d="M111.7,92.8c27.6-14.6,63-17.6,91.1-2.6c24.2,12.9,32.9,39.1,41.4,63.4c11.9,34,32.3,73,74.3,49.8
		c28.7-15.9,58.2-44.7,93.9-29.1c32.5,14.2,39.3,54.9,29.8,85.8C411.3,360,285.5,398,193.1,367.4C108.3,339.3,12.2,236.8,60.6,142.7
		C71.1,122.2,89.9,104.3,111.7,92.8z"/>
</g>
<g id="freepik--Shadow--inject-10">
	<ellipse id="freepik--path--inject-10" class="st1" cx="250" cy="416.2" rx="193.9" ry="11.3"/>
</g>
<g id="freepik--Device--inject-10">
	<rect x="228.4" y="320.8" class="st2" width="48.6" height="96.6"/>
	<rect x="228.4" y="351.9" class="st3" width="48.6" height="14.9"/>
	<rect x="195.6" y="410.9" class="st2" width="114.2" height="6.6"/>
	<rect x="195.6" y="410.9" class="st3" width="114.2" height="6.6"/>
	<path class="st2" d="M114.7,156.9h275.9c5.9,0,10.7,4.8,10.7,10.7v184c0,5.9-4.8,10.7-10.7,10.7H114.7c-5.9,0-10.7-4.8-10.7-10.7
		v-184C104,161.7,108.8,156.9,114.7,156.9z"/>
	<path class="st4" d="M115.8,158.6h275.9c5.9,0,10.7,4.8,10.7,10.7v184c0,5.9-4.8,10.7-10.7,10.7H115.8c-5.9,0-10.7-4.8-10.7-10.7
		v-184C105.1,163.4,109.9,158.6,115.8,158.6z"/>
	<rect x="109.1" y="163.7" class="st2" width="286.1" height="177"/>
	<circle class="st5" cx="252.7" cy="351.9" r="7.7"/>
	<rect x="114.2" y="166.8" class="st6" width="275.9" height="170.6"/>
	<rect x="114.2" y="166.8" class="st0" width="275.9" height="168.4"/>
	<g>
		<rect x="114.2" y="166.8" class="st1" width="275.9" height="170.6"/>
	</g>
	<rect x="202.5" y="219.1" class="st0" width="187.6" height="65.5"/>
	<g>
		<rect x="202.5" y="219.1" class="st1" width="187.6" height="65.5"/>
	</g>
	<g>
		<rect x="114.3" y="219.1" class="st7" width="60.1" height="65.5"/>
	</g>
	<rect x="114.2" y="219.1" class="st0" width="28.1" height="65.5"/>
	<g>
		<rect x="114.2" y="219.1" class="st1" width="28.1" height="65.5"/>
	</g>
	<rect x="167.2" y="203.1" class="st0" width="158.9" height="9.5"/>
	<g class="st8">
		<rect x="167.2" y="203.1" class="st1" width="158.9" height="9.5"/>
	</g>
	<rect x="326.1" y="203.1" class="st0" width="10.3" height="9.5"/>
	<g class="st9">
		<rect x="326.1" y="203.1" class="st1" width="10.3" height="9.5"/>
	</g>
	<rect x="114.2" y="166.8" class="st0" width="275.9" height="10.8"/>
	<path class="st1" d="M363.7,172.2c0,1.7-1.4,3.1-3.1,3.1s-3.1-1.4-3.1-3.1c0-1.7,1.4-3.1,3.1-3.1l0,0
		C362.3,169.1,363.7,170.5,363.7,172.2z"/>
	<path class="st1" d="M375.6,172.2c0,1.7-1.4,3.1-3.1,3.1s-3.1-1.4-3.1-3.1c0-1.7,1.4-3.1,3.1-3.1l0,0
		C374.2,169.1,375.6,170.5,375.6,172.2z"/>
	<path class="st1" d="M387.4,172.2c0,1.7-1.4,3.1-3.1,3.1s-3.1-1.4-3.1-3.1c0-1.7,1.4-3.1,3.1-3.1l0,0
		C386,169.1,387.4,170.5,387.4,172.2z"/>
	<path class="st10" d="M123.1,211.8c-0.5-0.1-1.1-0.3-1.6-0.6l0.9-2c0.4,0.2,0.8,0.4,1.3,0.5c0.4,0.1,0.9,0.2,1.4,0.2
		c0.3,0,0.5,0,0.8-0.1c0.1-0.1,0.2-0.2,0.2-0.3c0-0.2-0.1-0.3-0.3-0.4c-0.3-0.1-0.7-0.2-1-0.3c-0.5-0.1-1-0.2-1.5-0.4
		c-0.4-0.2-0.8-0.4-1.1-0.7c-0.3-0.4-0.5-0.9-0.5-1.4s0.1-1,0.4-1.4c0.3-0.5,0.7-0.8,1.3-1c0.6-0.3,1.3-0.4,2-0.4
		c0.5,0,1.1,0.1,1.6,0.2c0.5,0.1,1,0.3,1.4,0.5l-0.8,2c-0.7-0.4-1.5-0.6-2.2-0.6s-1,0.2-1,0.5c0,0.2,0.1,0.3,0.3,0.4
		c0.3,0.1,0.7,0.2,1,0.3c0.5,0.1,1,0.2,1.6,0.4c0.4,0.1,0.8,0.4,1.1,0.7c0.3,0.4,0.5,0.9,0.5,1.4s-0.1,1-0.4,1.4
		c-0.3,0.4-0.8,0.8-1.3,1c-0.6,0.3-1.3,0.4-2,0.4C124.5,212.1,123.8,212,123.1,211.8z"/>
	<path class="st10" d="M131.2,205.9h-2.4v-2.1h7.4v2.1h-2.4v5.9h-2.7L131.2,205.9z"/>
	<path class="st10" d="M138.8,211.5c-2-1.1-2.8-3.7-1.7-5.7c0,0,0-0.1,0.1-0.1c0.4-0.6,1-1.2,1.6-1.5c0.7-0.4,1.5-0.6,2.3-0.5
		c0.8,0,1.6,0.2,2.3,0.5s1.2,0.9,1.6,1.5c0.4,0.7,0.6,1.4,0.6,2.2s-0.2,1.5-0.6,2.2c-0.4,0.6-0.9,1.2-1.6,1.5
		c-0.7,0.4-1.5,0.6-2.3,0.5C140.3,212.1,139.5,211.9,138.8,211.5z M142,209.6c0.3-0.2,0.5-0.4,0.6-0.7c0.2-0.3,0.2-0.7,0.2-1.1
		c0-0.4-0.1-0.7-0.2-1.1c-0.1-0.3-0.4-0.5-0.6-0.7c-0.6-0.3-1.3-0.3-1.8,0c-0.3,0.2-0.5,0.4-0.6,0.7c-0.2,0.3-0.2,0.7-0.2,1.1
		c0,0.4,0.1,0.7,0.2,1.1c0.1,0.3,0.4,0.5,0.6,0.7C140.7,209.9,141.4,209.9,142,209.6z"/>
	<path class="st10" d="M150,209.9h-0.7v2h-2.7v-8h3.9c0.7,0,1.3,0.1,1.9,0.4c0.5,0.2,1,0.6,1.3,1.1s0.5,1,0.4,1.6
		c0,0.5-0.1,1-0.4,1.5c-0.3,0.4-0.7,0.8-1.1,1l1.7,2.5h-2.9L150,209.9z M151.1,206.2c-0.2-0.2-0.5-0.3-0.8-0.3h-1v1.9h1
		c0.3,0,0.6-0.1,0.8-0.3C151.5,207.2,151.5,206.6,151.1,206.2z"/>
	<path class="st10" d="M161.8,209.8v2h-6.7v-8h6.5v2h-3.9v0.9h3.4v1.9h-3.4v1.1L161.8,209.8z"/>
	<path class="st2" d="M350.3,212.6c0,0.8-0.6,1.4-1.4,1.4s-1.4-0.6-1.4-1.4c0-0.8,0.6-1.4,1.4-1.4
		C349.7,211.2,350.3,211.8,350.3,212.6L350.3,212.6z"/>
	<circle class="st2" cx="357.5" cy="212.6" r="1.4"/>
	<path class="st2" d="M347.8,202.9l-0.9-3h-3.5v0.9h2.8l2.6,8.5h9.1l0.8-5.6L347.8,202.9z M357.2,208.7l-7.8-0.1l-1.5-5l9.9,0.7
		L357.2,208.7z"/>
	<path class="st0" d="M270.5,276.9c0,1.5-1.2,2.8-2.7,2.8s-2.8-1.2-2.8-2.8s1.2-2.8,2.7-2.8l0,0
		C269.2,274.1,270.5,275.4,270.5,276.9z"/>
	<path class="st11" d="M270.5,276.9c0,1.5-1.2,2.8-2.7,2.8s-2.8-1.2-2.8-2.8s1.2-2.8,2.7-2.8l0,0
		C269.2,274.1,270.5,275.4,270.5,276.9z"/>
	<path class="st0" d="M278.6,276.9c0,1.5-1.2,2.8-2.7,2.8s-2.8-1.2-2.8-2.8s1.2-2.8,2.7-2.8l0,0
		C277.3,274.1,278.6,275.4,278.6,276.9z"/>
	<path class="st12" d="M278.6,276.9c0,1.5-1.2,2.8-2.7,2.8s-2.8-1.2-2.8-2.8s1.2-2.8,2.7-2.8l0,0
		C277.3,274.1,278.6,275.4,278.6,276.9z"/>
	<path class="st0" d="M286.7,276.9c0,1.5-1.2,2.8-2.7,2.8s-2.8-1.2-2.8-2.8s1.2-2.8,2.7-2.8l0,0
		C285.4,274.1,286.7,275.4,286.7,276.9z"/>
	<path class="st11" d="M286.7,276.9c0,1.5-1.2,2.8-2.7,2.8s-2.8-1.2-2.8-2.8s1.2-2.8,2.7-2.8l0,0
		C285.4,274.1,286.7,275.4,286.7,276.9z"/>
	<path class="st0" d="M294.8,276.9c0,1.5-1.2,2.8-2.7,2.8s-2.8-1.2-2.8-2.8s1.2-2.8,2.7-2.8l0,0
		C293.5,274.1,294.8,275.4,294.8,276.9z"/>
	<path class="st11" d="M294.8,276.9c0,1.5-1.2,2.8-2.7,2.8s-2.8-1.2-2.8-2.8s1.2-2.8,2.7-2.8l0,0
		C293.5,274.1,294.8,275.4,294.8,276.9z"/>
	<path class="st10" d="M218.3,255.4c-1.2-0.2-2.3-0.7-3.3-1.3l1.9-4.2c0.9,0.5,1.8,0.9,2.7,1.1c0.9,0.3,1.9,0.4,2.9,0.4
		c0.6,0,1.2,0,1.7-0.2c0.3-0.1,0.5-0.4,0.5-0.7c0-0.4-0.2-0.6-0.7-0.8c-0.7-0.3-1.5-0.4-2.2-0.6c-1.1-0.2-2.2-0.5-3.3-0.9
		c-0.9-0.3-1.7-0.9-2.3-1.6c-0.7-0.8-1.1-1.9-1-2.9c0-1,0.3-2.1,0.9-2.9c0.7-0.9,1.6-1.7,2.7-2.1c1.4-0.5,2.9-0.8,4.4-0.8
		c1.2,0,2.3,0.1,3.5,0.4c1.1,0.2,2.1,0.6,3,1.1l-1.7,4.2c-1.5-0.8-3.1-1.2-4.8-1.3c-1.5,0-2.2,0.4-2.2,1.1c0,0.3,0.2,0.6,0.7,0.8
		c0.7,0.2,1.4,0.4,2.2,0.6c1.1,0.2,2.2,0.5,3.3,0.8c0.9,0.3,1.7,0.9,2.3,1.6c0.7,0.8,1.1,1.9,1,2.9c0,1-0.3,2.1-0.9,2.9
		c-0.7,0.9-1.6,1.7-2.7,2.1c-1.4,0.5-2.9,0.8-4.4,0.8C221.1,255.9,219.7,255.7,218.3,255.4z"/>
	<path class="st10" d="M243.8,252.5h-6.5l-1.1,3h-5.9l7.5-17.1h5.7l7.5,17.1h-6L243.8,252.5z M242.2,248.3l-1.7-4.3l-1.7,4.3H242.2z
		"/>
	<path class="st10" d="M251.8,238.3h5.8V251h7.7v4.5h-13.5L251.8,238.3L251.8,238.3z"/>
	<path class="st10" d="M281.2,251.1v4.4H267v-17.1h13.9v4.4h-8.2v2h7.2v4.1h-7.2v2.3L281.2,251.1z"/>
	<rect x="114.2" y="177.6" class="st0" width="275.9" height="20.5"/>
	<g class="st13">
		<rect x="114.2" y="177.6" class="st1" width="275.9" height="20.5"/>
	</g>
	<path class="st2" d="M374.5,193.4H145.8c-3.1,0-5.6-2.5-5.6-5.6l0,0l0,0c0-3.1,2.5-5.6,5.6-5.6l0,0h228.8c3.1,0,5.6,2.5,5.6,5.6
		l0,0C380.2,190.9,377.6,193.4,374.5,193.4z"/>
	<path class="st6" d="M374,191.3H145.2c-3.1,0-5.6-2.5-5.6-5.6l0,0l0,0c0-3.1,2.5-5.6,5.6-5.6l0,0H374c3.1,0,5.6,2.5,5.6,5.6l0,0
		C379.6,188.7,377.1,191.3,374,191.3z"/>
	<path class="st5" d="M147.1,185.6h100.3c1,0,1.8,0.8,1.8,1.8v1.1c0,1-0.8,1.8-1.8,1.8H147.1c-1,0-1.8-0.8-1.8-1.8v-1.1
		C145.4,186.4,146.2,185.6,147.1,185.6z"/>
	<polygon class="st0" points="128.8,182 122.6,188.1 124.5,188.1 124.5,193.7 133.2,193.7 133.2,188.1 135,188.1 	"/>
	<g class="st9">
		<path class="st12" d="M159.3,227.5H120c-1,0-1.9-0.8-1.9-1.9l0,0l0,0c0-1,0.8-1.9,1.9-1.9h39.3c1,0,1.9,0.9,1.9,1.9l0,0
			C161.1,226.6,160.3,227.5,159.3,227.5L159.3,227.5z"/>
		<path class="st12" d="M159.3,235H120c-1,0-1.9-0.8-1.9-1.9l0,0l0,0c0-1,0.8-1.9,1.9-1.9l0,0h39.3c1,0,1.9,0.8,1.9,1.9l0,0l0,0
			C161.1,234.2,160.3,235,159.3,235L159.3,235z"/>
		<path class="st12" d="M159.3,242.5H120c-1,0-1.9-0.8-1.9-1.9l0,0l0,0c0-1,0.8-1.9,1.9-1.9l0,0h39.3c1,0,1.9,0.8,1.9,1.9l0,0l0,0
			C161.1,241.7,160.3,242.5,159.3,242.5L159.3,242.5z"/>
		<path class="st12" d="M159.3,250.1H120c-1,0-1.9-0.8-1.9-1.9l0,0c0-1,0.8-1.9,1.9-1.9l0,0h39.3c1,0,1.9,0.8,1.9,1.9l0,0l0,0
			C161.1,249.2,160.3,250.1,159.3,250.1z"/>
		<path class="st12" d="M159.3,257.6H120c-1,0-1.9-0.8-1.9-1.9l0,0l0,0c0-1,0.8-1.9,1.9-1.9l0,0h39.3c1,0,1.9,0.8,1.9,1.9l0,0l0,0
			C161.1,256.8,160.3,257.6,159.3,257.6z"/>
		<path class="st12" d="M159.3,265.2H120c-1,0-1.9-0.8-1.9-1.9l0,0l0,0c0-1,0.8-1.9,1.9-1.9l0,0h39.3c1,0,1.9,0.8,1.9,1.9l0,0l0,0
			C161.1,264.3,160.3,265.2,159.3,265.2z"/>
		<path class="st12" d="M159.3,272.7H120c-1,0-1.9-0.8-1.9-1.9l0,0l0,0c0-1,0.8-1.9,1.9-1.9l0,0h39.3c1,0,1.9,0.8,1.9,1.9l0,0l0,0
			C161.1,271.9,160.3,272.7,159.3,272.7z"/>
		<path class="st12" d="M159.3,280.2H120c-1,0-1.9-0.8-1.9-1.9l0,0l0,0c0-1,0.8-1.9,1.9-1.9l0,0h39.3c1,0,1.9,0.8,1.9,1.9l0,0l0,0
			C161.1,279.4,160.3,280.2,159.3,280.2z"/>
	</g>
	<rect x="120.2" y="290.8" class="st0" width="127.9" height="40.6"/>
	<g class="st14">
		<rect x="120.2" y="290.8" class="st1" width="127.9" height="40.6"/>
	</g>
	<rect x="127" y="294.6" class="st12" width="22.2" height="22.2"/>
	<rect x="128" y="318.6" class="st0" width="20" height="1.6"/>
	<rect x="128" y="318.6" class="st15" width="20" height="1.6"/>
	<rect x="128" y="320.7" class="st0" width="20" height="1.6"/>
	<rect x="128" y="320.7" class="st15" width="20" height="1.6"/>
	<rect x="128" y="326.2" class="st0" width="9.8" height="1.6"/>
	<rect x="128" y="326.2" class="st15" width="9.8" height="1.6"/>
	<rect x="128" y="323.4" class="st0" width="6.7" height="2.1"/>
	<rect x="128" y="323.4" class="st15" width="6.7" height="2.1"/>
	<rect x="218.4" y="294.6" class="st12" width="22.2" height="22.2"/>
	<rect x="219.4" y="318.6" class="st0" width="20" height="1.6"/>
	<rect x="219.4" y="318.6" class="st12" width="20" height="1.6"/>
	<rect x="219.4" y="320.7" class="st0" width="20" height="1.6"/>
	<rect x="219.4" y="320.7" class="st12" width="20" height="1.6"/>
	<rect x="219.4" y="326.2" class="st0" width="9.8" height="1.6"/>
	<rect x="219.4" y="326.2" class="st12" width="9.8" height="1.6"/>
	<rect x="219.4" y="323.4" class="st0" width="6.7" height="2.1"/>
	<rect x="219.4" y="323.4" class="st12" width="6.7" height="2.1"/>
	<rect x="158.5" y="294.6" class="st15" width="22.2" height="22.2"/>
	<rect x="159.5" y="318.6" class="st0" width="20" height="1.6"/>
	<rect x="159.5" y="318.6" class="st15" width="20" height="1.6"/>
	<rect x="159.5" y="320.7" class="st0" width="20" height="1.6"/>
	<rect x="159.5" y="320.7" class="st15" width="20" height="1.6"/>
	<rect x="159.5" y="326.2" class="st0" width="9.8" height="1.6"/>
	<rect x="159.5" y="326.2" class="st12" width="9.8" height="1.6"/>
	<rect x="159.5" y="323.4" class="st0" width="6.7" height="2.1"/>
	<rect x="159.5" y="323.4" class="st15" width="6.7" height="2.1"/>
	<rect x="188.4" y="294.6" class="st12" width="22.2" height="22.2"/>
	<rect x="189.4" y="318.6" class="st0" width="20" height="1.6"/>
	<rect x="189.4" y="318.6" class="st12" width="20" height="1.6"/>
	<rect x="189.4" y="320.7" class="st0" width="20" height="1.6"/>
	<rect x="189.4" y="320.7" class="st12" width="20" height="1.6"/>
	<rect x="189.4" y="326.2" class="st0" width="9.8" height="1.6"/>
	<rect x="189.4" y="326.2" class="st12" width="9.8" height="1.6"/>
	<rect x="189.4" y="323.4" class="st0" width="6.7" height="2.1"/>
	<rect x="189.4" y="323.4" class="st12" width="6.7" height="2.1"/>
	<rect x="253.7" y="290.8" class="st0" width="127.9" height="40.6"/>
	<g class="st16">
		<rect x="253.7" y="290.8" class="st1" width="127.9" height="40.6"/>
	</g>
	<rect x="260.8" y="294.6" class="st12" width="22.2" height="22.2"/>
	<rect x="261.8" y="318.6" class="st0" width="20" height="1.6"/>
	<rect x="261.8" y="318.6" class="st12" width="20" height="1.6"/>
	<rect x="261.8" y="320.7" class="st0" width="20" height="1.6"/>
	<rect x="261.8" y="320.7" class="st12" width="20" height="1.6"/>
	<rect x="261.8" y="326.2" class="st0" width="9.8" height="1.6"/>
	<rect x="261.8" y="326.2" class="st12" width="9.8" height="1.6"/>
	<rect x="261.8" y="323.4" class="st0" width="6.7" height="2.1"/>
	<rect x="261.8" y="323.4" class="st12" width="6.7" height="2.1"/>
	<rect x="352.2" y="294.6" class="st12" width="22.2" height="22.2"/>
	<rect x="353.2" y="318.6" class="st0" width="20" height="1.6"/>
	<rect x="353.2" y="318.6" class="st12" width="20" height="1.6"/>
	<rect x="353.2" y="320.7" class="st0" width="20" height="1.6"/>
	<rect x="353.2" y="320.7" class="st12" width="20" height="1.6"/>
	<rect x="353.2" y="326.2" class="st0" width="9.8" height="1.6"/>
	<rect x="353.2" y="326.2" class="st12" width="9.8" height="1.6"/>
	<rect x="353.2" y="323.4" class="st0" width="6.7" height="2.1"/>
	<rect x="353.2" y="323.4" class="st12" width="6.7" height="2.1"/>
	<rect x="292.3" y="294.6" class="st12" width="22.2" height="22.2"/>
	<rect x="293.3" y="318.6" class="st0" width="20" height="1.6"/>
	<rect x="293.3" y="318.6" class="st12" width="20" height="1.6"/>
	<rect x="293.3" y="320.7" class="st0" width="20" height="1.6"/>
	<rect x="293.3" y="320.7" class="st12" width="20" height="1.6"/>
	<rect x="293.3" y="326.2" class="st0" width="9.8" height="1.6"/>
	<rect x="293.3" y="326.2" class="st12" width="9.8" height="1.6"/>
	<rect x="293.3" y="323.4" class="st0" width="6.7" height="2.1"/>
	<rect x="293.3" y="323.4" class="st12" width="6.7" height="2.1"/>
	<rect x="322.2" y="294.6" class="st12" width="22.2" height="22.2"/>
	<rect x="323.2" y="318.6" class="st0" width="20" height="1.6"/>
	<rect x="323.2" y="318.6" class="st12" width="20" height="1.6"/>
	<rect x="323.2" y="320.7" class="st0" width="20" height="1.6"/>
	<rect x="323.2" y="320.7" class="st12" width="20" height="1.6"/>
	<rect x="323.2" y="326.2" class="st0" width="9.8" height="1.6"/>
	<rect x="323.2" y="326.2" class="st12" width="9.8" height="1.6"/>
	<rect x="323.2" y="323.4" class="st0" width="6.7" height="2.1"/>
	<rect x="323.2" y="323.4" class="st12" width="6.7" height="2.1"/>
	<ellipse class="st12" cx="340.4" cy="268.2" rx="40.5" ry="5.4"/>
	<path class="st11" d="M344.5,266l-4.3-9.6h-10.1l1.5,9c0.1,0.4-0.2,0.9-0.6,0.9c-0.1,0-0.1,0-0.2,0h-4.4c-0.2,0-0.4,0.2-0.4,0.4
		v0.5c0,0.2,0.2,0.4,0.4,0.4h17.8c0.3,0,0.5-0.2,0.5-0.5l0,0v-0.5C344.7,266.5,344.6,266.3,344.5,266z"/>
	<path class="st17" d="M331,266.3h-4.6c-0.2,0-0.4,0.2-0.4,0.4v0.5c0,0.2,0.2,0.4,0.4,0.4h17.8c0.3,0,0.5-0.2,0.5-0.5l0,0v-0.5
		c0-0.1,0-0.3,0-0.4L331,266.3z"/>
	<path class="st0" d="M345.1,266l-4.3-9.6h-0.6l4.3,9.6c0.1,0.2,0.2,0.5,0.1,0.7v0.5c0,0.3-0.2,0.5-0.4,0.5l0,0h0.6
		c0.3,0,0.5-0.2,0.5-0.5l0,0v-0.5C345.2,266.5,345.2,266.2,345.1,266z"/>
	<g class="st18">
		<path d="M345.1,266l-4.3-9.6h-0.6l4.3,9.6c0.1,0.2,0.2,0.5,0.1,0.7v0.5c0,0.3-0.2,0.5-0.4,0.5l0,0h0.6c0.3,0,0.5-0.2,0.5-0.5l0,0
			v-0.5C345.2,266.5,345.2,266.2,345.1,266z"/>
	</g>
	<polygon class="st3" points="340.2,256.4 330.1,256.4 330.5,258.7 341.2,258.7 	"/>
	<path class="st2" d="M355.7,257.4h-43.2c-0.8,0-1.4-0.6-1.4-1.4c0-0.1,0-0.1,0-0.2l2.7-31.2c0.1-0.9,0.8-1.6,1.7-1.6h43.1
		c0.8,0,1.4,0.6,1.4,1.4c0,0.1,0,0.1,0,0.2l-2.7,31.2C357.3,256.7,356.5,257.4,355.7,257.4z"/>
	<path class="st0" d="M311.4,252.5l-0.3,3.4c-0.1,0.8,0.5,1.5,1.3,1.6c0.1,0,0.1,0,0.2,0h43.1c0.9,0,1.6-0.7,1.7-1.6l0.3-3.4H311.4z
		"/>
	<path class="st0" d="M356.1,251.5H313c-0.4,0-0.8-0.3-0.8-0.8v-0.1l2.3-25.8c0.1-0.5,0.5-0.8,0.9-0.9h43.1c0.4,0,0.8,0.3,0.8,0.7
		v0.1l-2.3,25.8C357,251.2,356.6,251.5,356.1,251.5z"/>
	<path class="st19" d="M356.1,251.5H313c-0.4,0-0.8-0.3-0.8-0.8v-0.1l2.3-25.8c0.1-0.5,0.5-0.8,0.9-0.9h43.1c0.4,0,0.8,0.3,0.8,0.7
		v0.1l-2.3,25.8C357,251.2,356.6,251.5,356.1,251.5z"/>
	<path class="st5" d="M359.6,223.1h-1c0.8,0,1.4,0.6,1.4,1.4c0,0.1,0,0.1,0,0.2l-2.7,31.2c-0.1,0.9-0.8,1.6-1.7,1.6h1
		c0.9,0,1.6-0.7,1.7-1.6l2.7-31.2c0.1-0.8-0.5-1.5-1.3-1.6C359.8,223.1,359.7,223.1,359.6,223.1z"/>
	<g class="st20">
		<polygon class="st1" points="358,224.1 356.3,224.1 350.5,251.5 352.1,251.5 		"/>
		<polygon class="st1" points="348.8,251.5 354.6,224.1 348.4,224.1 342.6,251.5 		"/>
	</g>
	<path class="st21" d="M311.4,252.5l-0.3,3.4c-0.1,0.8,0.5,1.5,1.3,1.6c0.1,0,0.1,0,0.2,0h43.1c0.9,0,1.6-0.7,1.7-1.6l0.3-3.4H311.4
		z"/>
	<path class="st2" d="M337.8,266.2h26.4c0.7,0,1.2-0.5,1.2-1.2v-0.1l-1.6-18.9c-0.1-0.8-0.7-1.3-1.5-1.3h-26.4
		c-0.7,0-1.2,0.5-1.2,1.2v0.1l1.6,18.9C336.4,265.6,337,266.2,337.8,266.2z"/>
	<path class="st22" d="M337.8,266.2h26.4c0.7,0,1.2-0.5,1.2-1.2v-0.1l-1.6-18.9c-0.1-0.8-0.7-1.3-1.5-1.3h-26.4
		c-0.7,0-1.2,0.5-1.2,1.2v0.1l1.6,18.9C336.4,265.6,337,266.2,337.8,266.2z"/>
	<path class="st2" d="M338.3,266.2h26.4c0.7,0,1.2-0.5,1.2-1.2v-0.1l-1.6-18.9c-0.1-0.8-0.7-1.3-1.5-1.3h-26.4
		c-0.7,0-1.2,0.5-1.2,1.2v0.1l1.6,18.9C336.9,265.6,337.5,266.2,338.3,266.2z"/>
	<path class="st6" d="M338.3,266.2h26.4c0.7,0,1.2-0.5,1.2-1.2v-0.1l-1.6-18.9c-0.1-0.8-0.7-1.3-1.5-1.3h-26.4
		c-0.7,0-1.2,0.5-1.2,1.2v0.1l1.6,18.9C336.9,265.6,337.5,266.2,338.3,266.2z"/>
	<polygon class="st0" points="337.9,264.8 364.9,264.8 363.2,246 336.2,246 	"/>
	<polygon class="st23" points="337.9,264.8 364.9,264.8 363.2,246 336.2,246 	"/>
	<path class="st2" d="M338.5,268h27c1.2,0,2.2-1,2.2-2.1l0,0h-31.3C336.3,267,337.3,268,338.5,268L338.5,268z"/>
	<path class="st17" d="M338.5,268h27c1.2,0,2.2-1,2.2-2.1l0,0h-31.3C336.3,267,337.3,268,338.5,268L338.5,268z"/>
	<path class="st2" d="M340.6,268h27c1.2,0,2.2-1,2.2-2.2l0,0h-31.3C338.5,267,339.5,268,340.6,268L340.6,268z"/>
	<path class="st4" d="M340.6,268h27c1.2,0,2.2-1,2.2-2.2l0,0h-31.3C338.5,267,339.5,268,340.6,268L340.6,268z"/>
	<path class="st24" d="M356.9,265.8c-0.2,0.4-0.6,0.6-1.1,0.6h-3.4c-0.5,0-0.9-0.2-1.1-0.6H356.9z"/>
	<path class="st2" d="M328.4,244h-2.1l-2.2,24.7h2.1c1,0,1.9-0.8,2-1.8l1.8-21.1c0.1-0.9-0.5-1.7-1.4-1.8
		C328.6,244,328.5,244,328.4,244z"/>
	<path class="st5" d="M325.8,268.7H317c-0.9,0-1.6-0.7-1.6-1.6c0-0.1,0-0.1,0-0.2l1.8-21.1c0.1-1,0.9-1.8,2-1.8h8.8
		c0.9,0,1.6,0.7,1.6,1.6c0,0.1,0,0.1,0,0.2l-1.9,21.1C327.7,267.9,326.8,268.7,325.8,268.7z"/>
	<path class="st0" d="M327.9,244.4h-2.3c-0.2,0-0.3,0.1-0.3,0.3v0.1c-0.1,0.4-0.4,0.6-0.8,0.6h-2.2c-0.4,0-0.7-0.3-0.7-0.6v-0.1
		c0-0.1-0.1-0.3-0.3-0.3H319c-0.8,0-1.4,0.6-1.5,1.4l-1.8,21.1c-0.1,0.7,0.4,1.3,1.1,1.4c0.1,0,0.1,0,0.2,0h8.8
		c0.8,0,1.4-0.6,1.5-1.4l1.8-21.1c0.1-0.7-0.4-1.3-1.1-1.4C328.1,244.4,328,244.4,327.9,244.4z"/>
	<path class="st6" d="M327.9,244.4h-2.3c-0.2,0-0.3,0.1-0.3,0.3v0.1c-0.1,0.4-0.4,0.6-0.8,0.6h-2.2c-0.4,0-0.7-0.3-0.7-0.6v-0.1
		c0-0.1-0.1-0.3-0.3-0.3H319c-0.8,0-1.4,0.6-1.5,1.4l-1.8,21.1c-0.1,0.7,0.4,1.3,1.1,1.4c0.1,0,0.1,0,0.2,0h8.8
		c0.8,0,1.4-0.6,1.5-1.4l1.8-21.1c0.1-0.7-0.4-1.3-1.1-1.4C328.1,244.4,328,244.4,327.9,244.4z"/>
	<g class="st18">
		<path d="M323,244.7c0,0.1-0.1,0.2-0.2,0.2s-0.2-0.1-0.2-0.1l0,0c0-0.1,0.1-0.2,0.2-0.2C322.9,244.5,323,244.6,323,244.7L323,244.7
			z"/>
		<path d="M324.2,244.5h-0.6c-0.1,0-0.2,0.1-0.2,0.2c0,0.1,0,0.2,0.1,0.2l0,0h0.6c0.1,0,0.2-0.1,0.2-0.2
			C324.4,244.6,324.3,244.5,324.2,244.5C324.3,244.5,324.2,244.5,324.2,244.5z"/>
	</g>
	<polygon class="st0" points="318.6,245.4 318.8,245.4 318.8,245.2 318.6,245.2 	"/>
	<polygon class="st0" points="319,245.2 319,245.4 319.2,245.4 319.2,245.2 319.2,245 319,245 	"/>
	<polygon class="st0" points="319.4,244.8 319.4,245 319.4,245.2 319.4,245.4 319.5,245.4 319.6,245.2 319.6,245 319.6,244.8 	"/>
	<path class="st0" d="M327.4,244.9v0.1h-0.1v0.3h0.1v0.1h0.8v-0.6L327.4,244.9L327.4,244.9z M327.7,245.3h-0.3V245h0.3V245.3z"/>
	<g class="st25">
		<path class="st1" d="M322.4,245.4l-6.1,22.6c0.2,0.2,0.5,0.2,0.8,0.2h0.4l6.1-22.9L322.4,245.4z"/>
		<path class="st1" d="M327.9,244.4h-2.3c-0.2,0-0.3,0.1-0.3,0.3v0.1c-0.1,0.4-0.4,0.6-0.8,0.6l-6.1,22.9h4.7l6.1-22.7
			C329.2,244.9,328.6,244.4,327.9,244.4z"/>
	</g>
</g>
<g id="freepik--Tab--inject-10">
	<g class="st18">
		<rect x="197.6" y="122.8" width="145.3" height="87.1"/>
	</g>
	<rect x="193.5" y="118.2" class="st0" width="145.3" height="87.1"/>
	<g class="st26">
		<rect x="193.5" y="118.2" class="st1" width="145.3" height="87.1"/>
	</g>
	<rect x="193.5" y="118.2" class="st0" width="145.3" height="5.8"/>
	<path class="st1" d="M336.9,121.1c0,1-0.8,1.7-1.7,1.7c-1,0-1.7-0.8-1.7-1.7c0-1,0.8-1.7,1.7-1.7
		C336.2,119.4,336.9,120.1,336.9,121.1z"/>
	<polygon class="st10" points="241.9,141.8 249.8,132.9 253.9,144.9 265.5,141.6 263.2,153.5 275.5,156.6 267.3,165.2 277,173.9 
		265.2,176.9 269.6,188.9 257.4,185.5 255.4,197.6 246,188.7 238.1,197.6 234,185.5 222.4,188.9 224.7,176.9 212.4,173.9 
		220.5,165.2 210.9,156.6 222.6,153.5 218.2,141.6 230.5,144.9 232.4,132.9 	"/>
	<path class="st12" d="M222.2,166.3l15.2,16.7c7.8-12.3,23.9-4.9,27.9-19.4l-15.5-16.1C248.8,159.8,227.5,156.6,222.2,166.3z"/>
	<path d="M239.3,162.9c0.5,0.1,1,0.4,1.2,0.9c0.2,0.3,0.3,0.7,0.3,1.1c0,0.4-0.1,0.8-0.4,1.1c-0.3,0.4-0.6,0.7-1.1,1
		c-0.4,0.2-0.7,0.4-1.1,0.6c-0.4,0.1-0.7,0.2-1.1,0.1l-0.1-1.3c0.3,0,0.6,0,0.9-0.1c0.3-0.1,0.6-0.2,0.9-0.4
		c0.3-0.2,0.5-0.4,0.6-0.6c0.1-0.2,0.1-0.5,0-0.7s-0.3-0.4-0.6-0.4c-0.4,0.1-0.7,0.2-1,0.4l-1.3,0.9l-1.4-3.2l3.1-2.1l0.6,1
		l-2.1,1.4l0.5,1.1l0.4-0.3C238,163.1,238.6,162.9,239.3,162.9z"/>
	<path d="M242.8,164.2c-0.5,0-0.9-0.2-1.3-0.4c-0.5-0.4-0.8-0.8-1.1-1.3s-0.5-1.1-0.6-1.7c0-0.5,0-1,0.3-1.5c0.2-0.4,0.6-0.8,1-1.1
		s0.8-0.4,1.3-0.4s0.9,0.2,1.3,0.4c0.5,0.3,0.8,0.8,1.1,1.3s0.5,1.1,0.6,1.7c0.1,1-0.3,2-1.2,2.6
		C243.8,164.1,243.3,164.2,242.8,164.2z M244.1,161.8c0-0.5-0.2-1-0.5-1.5c-0.2-0.5-0.6-0.9-1-1.1c-0.3-0.2-0.7-0.1-1,0.1
		c-0.3,0.2-0.5,0.5-0.5,0.9c0,0.5,0.2,1,0.5,1.5c0.2,0.5,0.6,0.9,1,1.1c0.3,0.2,0.7,0.2,1-0.1C243.9,162.6,244.1,162.2,244.1,161.8z
		"/>
	<path d="M245.6,158.8c-0.4-0.1-0.8-0.4-1-0.9c-0.2-0.4-0.3-0.9-0.3-1.3c0.1-0.4,0.3-0.8,0.7-1c0.3-0.2,0.8-0.3,1.1-0.2
		c0.4,0.1,0.8,0.4,1,0.9c0.2,0.4,0.3,0.9,0.3,1.3c-0.1,0.4-0.3,0.8-0.7,1C246.4,158.9,246,158.9,245.6,158.8z M246.6,157.5
		c0-0.3-0.1-0.5-0.2-0.7c-0.1-0.2-0.3-0.4-0.5-0.5s-0.4-0.1-0.5,0c-0.2,0.1-0.3,0.3-0.3,0.5c0,0.3,0.1,0.5,0.2,0.7
		c0.1,0.2,0.3,0.4,0.5,0.5s0.4,0.1,0.5,0C246.5,157.9,246.6,157.7,246.6,157.5z M248.2,153.7l0.9-0.6l-0.5,7.7l-0.9,0.6L248.2,153.7
		z M250.9,159.1c-0.3,0-0.5-0.1-0.8-0.2c-0.2-0.2-0.5-0.4-0.6-0.7c-0.2-0.3-0.3-0.6-0.3-0.9c0-0.3,0-0.6,0.2-0.8
		c0.1-0.2,0.3-0.5,0.6-0.6c0.3-0.2,0.8-0.3,1.1-0.2c0.4,0.1,0.8,0.4,1,0.9c0.2,0.4,0.3,0.9,0.2,1.3c-0.1,0.4-0.3,0.8-0.7,1
		C251.4,159.1,251.1,159.1,250.9,159.1L250.9,159.1z M251.5,157.8c0-0.3-0.1-0.5-0.2-0.7c-0.1-0.2-0.3-0.4-0.5-0.5s-0.4-0.1-0.5,0
		c-0.2,0.1-0.3,0.3-0.3,0.5c0,0.3,0.1,0.5,0.2,0.7c0.1,0.2,0.3,0.4,0.5,0.5s0.4,0.1,0.5,0C251.4,158.2,251.5,158,251.5,157.8
		L251.5,157.8z"/>
	<path d="M243.3,174.7c-0.5,0-1.1-0.1-1.6-0.3c-0.5-0.3-0.9-0.7-1.2-1.2c-0.6-1-0.6-2.3,0-3.3c0.3-0.5,0.7-1,1.2-1.3
		s1.1-0.5,1.6-0.6c0.5,0,1.1,0.1,1.6,0.3c0.5,0.3,0.9,0.7,1.2,1.2s0.4,1.1,0.4,1.7c0,0.6-0.2,1.2-0.4,1.7c-0.3,0.5-0.7,1-1.2,1.3
		C244.4,174.5,243.9,174.7,243.3,174.7z M245,172.3c0.2-0.3,0.2-0.7,0.2-1c0-0.4-0.1-0.7-0.3-1s-0.4-0.6-0.7-0.8s-0.6-0.3-0.9-0.2
		c-0.3,0-0.7,0.1-0.9,0.3c-0.3,0.2-0.5,0.5-0.7,0.8s-0.2,0.7-0.2,1c0,0.4,0.1,0.7,0.3,1s0.4,0.6,0.7,0.8s0.6,0.2,0.9,0.2
		c0.3,0,0.7-0.1,0.9-0.3C244.6,172.9,244.8,172.6,245,172.3L245,172.3z"/>
	<path d="M247.3,166.5l0.8,1.4l2.4-1.6l0.6,1l-2.4,1.6l1.1,2l-1.2,0.8l-3-5.4l3.9-2.6l0.6,1L247.3,166.5z"/>
	<path d="M252,163.4l0.8,1.4l2.4-1.6l0.6,1l-2.4,1.6l1.1,2l-1.2,0.8l-3-5.4l3.9-2.5l0.6,1L252,163.4z"/>
	<path d="M291.3,158h-3.2l-0.6,1.5h-2.9l3.7-8.4h2.8l3.7,8.4h-2.9L291.3,158z M290.5,156l-0.8-2.1l-0.8,2.1H290.5z"/>
	<path d="M302.3,150.5v8.9h-2.6v-0.5c-0.5,0.5-1.1,0.7-1.8,0.7c-0.6,0-1.1-0.1-1.6-0.4c-0.5-0.3-0.9-0.7-1.1-1.2
		c-0.6-1.1-0.6-2.5,0-3.6c0.3-0.5,0.7-0.9,1.1-1.2c0.5-0.3,1-0.4,1.6-0.4s1.2,0.2,1.7,0.6v-2.8L302.3,150.5z M299.3,157.1
		c0.2-0.3,0.3-0.6,0.3-1c0-0.3-0.1-0.7-0.3-0.9c-0.4-0.4-1-0.5-1.4-0.1l-0.1,0.1c-0.2,0.3-0.3,0.6-0.3,0.9c0,0.4,0.1,0.7,0.3,1
		c0.4,0.4,1,0.5,1.4,0.1C299.2,157.2,299.3,157.1,299.3,157.1z"/>
	<path d="M310.8,150.5v8.9h-2.6v-0.5c-0.5,0.5-1.1,0.7-1.8,0.7c-0.6,0-1.1-0.1-1.6-0.4c-0.5-0.3-0.9-0.7-1.1-1.2
		c-0.6-1.1-0.6-2.5,0-3.6c0.3-0.5,0.7-0.9,1.1-1.2c0.5-0.3,1-0.4,1.6-0.4s1.2,0.2,1.7,0.6v-2.8L310.8,150.5z M307.8,157.1
		c0.2-0.3,0.3-0.6,0.3-1c0-0.3-0.1-0.7-0.3-0.9c-0.4-0.4-1-0.5-1.4-0.1l-0.1,0.1c-0.2,0.3-0.3,0.6-0.3,0.9c0,0.4,0.1,0.7,0.3,1
		c0.4,0.4,1,0.5,1.4,0.1C307.7,157.2,307.8,157.1,307.8,157.1z"/>
	<path d="M275.6,173.4c-0.7-0.4-1.3-0.9-1.7-1.6c-0.8-1.4-0.8-3.1,0-4.6c0.4-0.7,1-1.2,1.7-1.6c0.7-0.4,1.6-0.6,2.4-0.6
		s1.5,0.1,2.2,0.4c0.6,0.3,1.2,0.7,1.6,1.2l-1.8,1.6c-0.4-0.6-1.1-1-1.8-1c-0.5,0-1.1,0.2-1.4,0.6c-0.7,0.9-0.7,2.2,0,3.1
		c0.4,0.4,0.9,0.6,1.4,0.6c0.7,0,1.4-0.4,1.8-1l1.8,1.6c-0.4,0.5-1,1-1.6,1.3c-0.7,0.3-1.4,0.5-2.2,0.4
		C277.2,174,276.4,173.8,275.6,173.4z"/>
	<path d="M283.7,173.4c-0.6-0.3-1-0.7-1.4-1.2c-0.7-1.1-0.7-2.4,0-3.5c0.3-0.5,0.8-0.9,1.4-1.2c1.2-0.6,2.7-0.6,3.9,0
		c1.2,0.5,1.9,1.7,1.9,3s-0.7,2.5-1.9,3C286.4,174.1,284.9,174.1,283.7,173.4L283.7,173.4z M286.6,171.5c0.4-0.6,0.4-1.3,0-1.9
		c-0.4-0.4-1-0.5-1.4-0.1l-0.1,0.1c-0.4,0.6-0.4,1.3,0,1.9c0.4,0.4,1,0.5,1.4,0.1L286.6,171.5z"/>
	<path d="M297.7,167.2v6.6h-2.6v-0.6c-0.2,0.2-0.5,0.4-0.8,0.6c-0.3,0.1-0.7,0.2-1,0.2c-0.7,0-1.5-0.2-2-0.8s-0.8-1.5-0.8-2.3v-3.6
		h2.7v3.2c0,0.3,0,0.7,0.2,1c0.2,0.2,0.4,0.3,0.6,0.3c0.3,0,0.5-0.1,0.7-0.3c0.2-0.3,0.3-0.6,0.3-1v-3.1L297.7,167.2z"/>
	<path d="M304.8,167.5c0.5,0.3,0.9,0.7,1.2,1.2c0.3,0.6,0.4,1.2,0.4,1.8s-0.1,1.2-0.4,1.8c-0.3,0.5-0.7,0.9-1.2,1.2s-1,0.4-1.6,0.4
		s-1.2-0.2-1.7-0.6v2.8h-2.7v-8.9h2.6v0.5c0.5-0.5,1.1-0.7,1.8-0.7C303.8,167.1,304.4,167.3,304.8,167.5z M303.4,171.5
		c0.2-0.3,0.3-0.6,0.3-1c0-0.3-0.1-0.7-0.3-0.9c-0.4-0.4-1-0.5-1.4-0.1l-0.1,0.1c-0.2,0.3-0.3,0.6-0.3,0.9c0,0.4,0.1,0.7,0.3,1
		C302.2,171.9,302.9,171.9,303.4,171.5C303.3,171.5,303.4,171.5,303.4,171.5z"/>
	<path d="M308.8,173.5c-0.6-0.3-1-0.7-1.4-1.2c-0.7-1.1-0.7-2.4,0-3.5c0.3-0.5,0.8-0.9,1.4-1.2s1.3-0.4,2-0.4s1.4,0.1,2,0.4
		c0.6,0.3,1,0.7,1.4,1.2c0.7,1.1,0.7,2.4,0,3.5c-0.3,0.5-0.8,0.9-1.4,1.2s-1.3,0.5-2,0.4C310.1,174,309.4,173.8,308.8,173.5z
		 M311.5,171.5c0.4-0.6,0.4-1.3,0-1.9c-0.4-0.4-1-0.5-1.4-0.1l-0.1,0.1c-0.4,0.6-0.4,1.3,0,1.9c0.4,0.4,1,0.5,1.4,0.1L311.5,171.5z"
		/>
	<path d="M321.9,167.9c0.5,0.6,0.8,1.4,0.7,2.2v3.8H320v-3.3c0-0.8-0.3-1.1-0.8-1.1c-0.3,0-0.5,0.1-0.7,0.3c-0.2,0.3-0.3,0.6-0.3,1
		v3.1h-2.7v-6.6h2.5v0.6c0.3-0.3,0.6-0.5,0.9-0.6s0.7-0.2,1.1-0.2C320.7,167.1,321.4,167.4,321.9,167.9z"/>
</g>
<g id="freepik--Character--inject-10">
	<path class="st2" d="M178,223.3c0.6,1.7,13.8,3.8,7,14.7s-10.8,3.6-8.7,15.9c2.2,12.3-13.5,4.2-21.5,6.7
		c-14.4,4.6-20.1-16.2-8.9-17.5s13.7-1.8,12.4-10.6S174.1,211.4,178,223.3z"/>
	<path class="st27" d="M181.7,258.4c0,1,0,1.8,0.1,2.7s0.1,1.7,0.2,2.6c0.2,1.7,0.4,3.5,0.7,5.2c0.6,3.5,1.5,6.9,2.7,10.2l0.2,0.6
		c0.1,0.2,0.1,0.4,0.3,0.8c0.4,0.8,0.9,1.5,1.6,2c0.6,0.5,1.4,0.8,2.1,0.9c0.6,0.1,1.2,0.2,1.9,0.1c1-0.1,2-0.3,3-0.6
		c0.9-0.3,1.8-0.6,2.6-1c3.2-1.4,6.2-3.3,9-5.4l-1.6-2.5c-1.4,0.7-3,1.4-4.5,2s-3,1.2-4.5,1.6c-1.3,0.5-2.7,0.7-4.1,0.7
		c-0.6,0-0.9-0.2-0.8-0.2s0.1,0.1,0.1,0l-0.3-1c-0.9-3.1-1.6-6.2-2-9.4c-0.2-1.6-0.4-3.2-0.6-4.8s-0.2-3.3-0.3-4.7L181.7,258.4z"/>
	<path class="st0" d="M186.2,251.7c2.3,0.8,3.3,10.6,3.3,10.6l-6.8,4c0,0-5.5-10.3-3.5-12.7S182.8,250.6,186.2,251.7z"/>
	<path class="st0" d="M186.2,251.7c2.3,0.8,3.3,10.6,3.3,10.6l-6.8,4c0,0-5.5-10.3-3.5-12.7S182.8,250.6,186.2,251.7z"/>
	<path class="st3" d="M185.8,253.9l1.1,9.9l-0.5,0.2c-0.4,4.1-1,8.2-2,12.2c-1-3.1-1.7-6.3-2.3-9.5L185.8,253.9z"/>
	<path class="st27" d="M203.2,274.8l4.2-5.6l1.6,5.6c0,0-2.6,2.6-4.9,1.9L203.2,274.8z"/>
	<path class="st27" d="M205,268.5L205,268.5c0.5,0.2,0.9,0.6,1,1.2l0.3,2.7l-1.8,0.9L205,268.5z"/>
	<polygon class="st27" points="211.3,267.4 212.3,271.7 209,274.8 207.4,269.2 	"/>
	<path class="st0" d="M186.2,251.7c0,0,2.8,2.3-5.2,35.5c-9.5,0-19.6,0.1-24.5,0c1.1-9.4,2.6-18.1-0.5-37.9c3.3-0.4,6.7-0.6,10-0.6
		c3.5,0,7.1,0.3,10.6,0.8C181.1,250.3,186.2,251.7,186.2,251.7z"/>
	<path class="st0" d="M186.2,251.7c0,0,2.8,2.3-5.2,35.5c-10.9,0.1-18.3,0-24.5,0c1.1-9.4,2.6-18.1-0.5-37.9c3.3-0.4,6.7-0.6,10-0.6
		c3.5,0,7.1,0.3,10.6,0.8C181.1,250.3,186.2,251.7,186.2,251.7z"/>
	<path class="st3" d="M161.9,257.5c-0.5,3.6-2.2,7.5-4,12.1c0-2.9-0.1-5.7-0.4-8.3L161.9,257.5z"/>
	<path class="st27" d="M152.9,256.1c-0.1,0.6-0.3,1.4-0.5,2.1s-0.4,1.5-0.6,2.2c-0.4,1.5-0.9,2.9-1.4,4.3c-1,2.8-2.3,5.4-4,7.7
		c-0.2,0.3-0.5,0.6-0.6,0.7c-0.2,0.2-0.4,0.4-0.6,0.6c-0.6,0.4-1.1,0.9-1.7,1.2c-1.3,0.8-2.6,1.6-4,2.3s-2.8,1.5-4.2,2.2l-4.2,2.2
		l1,2.7c3.2-0.8,6.3-1.9,9.3-3.1c1.5-0.6,3-1.3,4.6-2.1c0.8-0.4,1.6-0.9,2.3-1.4c0.4-0.3,0.8-0.6,1.2-0.9c0.5-0.5,0.7-0.8,1.1-1.1
		c1.1-1.4,2.1-2.8,3-4.4c0.9-1.5,1.6-3.1,2.2-4.7c0.6-1.6,1.2-3.2,1.6-4.8c0.2-0.8,0.4-1.6,0.6-2.5s0.4-1.6,0.5-2.5L152.9,256.1z"/>
	<path class="st0" d="M156.1,249.4c-2.4,0.5-5.8,8.4-5.8,8.4l8.6,7.1c0,0,3.8-6.5,3-9.5C161.1,252.2,158.8,248.7,156.1,249.4z"/>
	<path class="st0" d="M156.1,249.4c-2.4,0.5-5.8,8.4-5.8,8.4l8.6,7.1c0,0,3.8-6.5,3-9.5C161.1,252.2,158.8,248.7,156.1,249.4z"/>
	<path class="st27" d="M132.6,281.6l-5.4-3l1.1,5.7c0,0,3.5,1.1,5.2-0.6L132.6,281.6z"/>
	<polygon class="st27" points="122.4,279.4 123.6,284.1 128.3,284.3 127.1,278.6 	"/>
	<path class="st27" d="M168,237c0.4,3.4,0.6,9.7-1.9,11.8c0,0,0.7,3.5,7,4c7,0.5,3.6-3.2,3.6-3.2c-3.7-1.2-3.4-4-2.6-6.6L168,237z"
		/>
	<path class="st3" d="M170.4,239.4l3.6,3.6c-0.2,0.6-0.4,1.2-0.5,1.9c-1.4-0.3-3.3-2.1-3.4-3.6C170.2,240.6,170.2,240,170.4,239.4z"
		/>
	<path class="st27" d="M164.1,231.2c1.3,5.5,1.7,7.9,5.1,10.3c5,3.6,11.5,0.8,11.9-5c0.4-5.2-1.8-13.4-7.7-14.7
		c-4.2-0.9-8.3,1.7-9.3,5.9C163.8,228.9,163.8,230.1,164.1,231.2z"/>
	<path class="st2" d="M177.4,222.8c1.9,2.6-16.3,12.3-14.6,6.1S172.6,216,177.4,222.8z"/>
	<path class="st2" d="M168.2,229c0.4,2.7-3.1,5.9-3.1,5.9s-4.6-3.4-1.7-5.2S168.2,229,168.2,229z"/>
	<path class="st2" d="M173.6,231.2c0.1,0.4,0.4,0.8,0.7,0.7s0.5-0.5,0.4-0.9s-0.4-0.8-0.7-0.7S173.6,230.7,173.6,231.2z"/>
	<path class="st2" d="M178.8,230.3c0.1,0.4,0.4,0.8,0.7,0.7s0.5-0.5,0.4-0.9s-0.4-0.8-0.7-0.7S178.7,229.9,178.8,230.3z"/>
	<path class="st2" d="M179.1,229.4l1.1-0.5C180.1,228.9,179.7,229.9,179.1,229.4z"/>
	<path class="st28" d="M177,231.4c0.6,1,1.3,1.9,2.1,2.6c-0.4,0.4-1,0.6-1.6,0.6L177,231.4z"/>
	<path class="st2" d="M175.4,236.8c0.2,0,0.5,0,0.7-0.1c0.1,0,0.1-0.1,0.1-0.2c0-0.1-0.1-0.1-0.2-0.1c-1.1,0.2-2.3-0.1-3.2-0.9
		c0-0.1-0.1-0.1-0.2,0l0,0c0,0.1,0,0.1,0,0.2C173.3,236.5,174.3,236.9,175.4,236.8z"/>
	<path class="st27" d="M163.4,236.6c0.6,0.9,1.5,1.6,2.5,1.9c1.4,0.4,2.1-0.9,1.7-2.2s-1.6-2.8-3-2.6c-1,0.2-1.7,1.2-1.5,2.2
		C163.2,236.2,163.3,236.4,163.4,236.6z"/>
	<path class="st2" d="M171.4,230.5c0.1,0,0.2-0.1,0.3-0.2c0.4-0.8,1.1-1.4,1.9-1.7c0.1-0.1,0.2-0.2,0.2-0.4c0-0.1-0.2-0.2-0.3-0.2
		l0,0c-1,0.3-1.9,1.1-2.3,2.1C171.1,230.3,171.2,230.4,171.4,230.5C171.3,230.5,171.3,230.5,171.4,230.5L171.4,230.5z"/>
	<path class="st2" d="M179.9,227.7c0.1,0,0.2-0.1,0.2-0.1c0.1-0.1,0-0.3-0.1-0.4c-0.7-0.5-1.7-0.5-2.5-0.2c-0.1,0.1-0.2,0.2-0.1,0.4
		c0.1,0.1,0.2,0.2,0.4,0.1l0,0l0,0C178.5,227.2,179.2,227.3,179.9,227.7C179.9,227.6,179.9,227.7,179.9,227.7z"/>
	<path class="st2" d="M173.9,230.3l1.1-0.5C175,229.8,174.5,230.8,173.9,230.3z"/>
	<path class="st2" d="M164.3,404.6c-2.6-2.5-4.9-5.3-6.8-8.3c-1.3-1.8-1.5-1.4-2.8-3.1c-0.6-1-0.4-2.3,0.6-2.9
		c0.2-0.1,0.4-0.2,0.6-0.3c1.2-0.2,2.3-0.6,3.4-1l4.6,3.4c-0.9,2.2,0.3,8.3,2.6,10.8C168.2,405,165.6,405.8,164.3,404.6z"/>
	<path class="st2" d="M179.8,287.2c0,0,14.8,43.2,15,57.2c0.1,4.3-31.2,48.9-31.2,48.9c-0.8,0.6-4.1-3.5-4.3-4.6
		c8.2-15.8,14.1-34.3,21.5-45c-18.4-30.8-22.7-56.6-22.7-56.6h21.7V287.2z"/>
	<g class="st18">
		<path class="st1" d="M179.8,287.2c0,0,14.8,43.2,15,57.2c0.1,4.3-31.2,48.9-31.2,48.9c-0.8,0.6-4.1-3.5-4.3-4.6
			c8.2-15.8,14.1-34.3,21.5-45c-18.4-30.8-22.7-56.6-22.7-56.6h21.7V287.2z"/>
	</g>
	<path class="st24" d="M167.8,308.4c0,0,8.3,17.7,8.6,27.2c-2.6-4.6-8.1-16.7-9.9-20.4L167.8,308.4z"/>
	<path class="st3" d="M164.3,378.3c-0.4,4.3-1.1,10.5-1,15.2c-0.6-0.2-1.1-0.4-1.5-0.9l-0.6-7.8L164.3,378.3z"/>
	<path class="st2" d="M168.4,420.1c-4.6,0-5.2-0.1-7.8-0.2c-2.2-0.1-2.8,0.2-4.6,0.2c-1.5,0-1.4-1.5-1-3.1c0.2-0.8,0.6-2.6,0.9-3.9
		l6.8-0.5c1,1.8,3.1,4.4,5.7,4.8S170.3,420.1,168.4,420.1z"/>
	<path class="st2" d="M173.2,287.2c0,0-4.9,44.6-7.7,63c-3,19.3-3.4,50.3-2.6,63c-1.1,0.6-5,0.2-7.1-0.5c0,0-6.8-38.7-3.4-60.6
		c-3.3-54,5.6-64.9,5.6-64.9H173.2z"/>
	<g class="st18">
		<path class="st1" d="M173.2,287.2c0,0-4.9,44.6-7.7,63c-3,19.3-3.4,50.3-2.6,63c-1.1,0.6-5,0.2-7.1-0.5c0,0-6.8-38.7-3.4-60.6
			c-3.3-54,5.6-64.9,5.6-64.9H173.2z"/>
	</g>
	<path class="st0" d="M106.9,339.9h37.3c0.8,0,1.5-0.6,1.7-1.4l6-26.3H99.7l5.5,26.3C105.3,339.3,106,339.9,106.9,339.9z"/>
	<path class="st29" d="M106.9,339.9h37.3c0.8,0,1.5-0.6,1.7-1.4l6-26.3H99.7l5.5,26.3C105.3,339.3,106,339.9,106.9,339.9z"/>
	<path class="st2" d="M143.5,323.3L143.5,323.3c0.4,0,0.7-0.3,0.7-0.8v-7c0-0.4-0.3-0.7-0.7-0.8l0,0c-0.4,0-0.8,0.3-0.8,0.8v7
		C142.8,322.9,143.1,323.3,143.5,323.3z"/>
	<path class="st2" d="M140.5,323.3L140.5,323.3c0.4,0,0.7-0.3,0.8-0.8v-7c0-0.4-0.3-0.7-0.8-0.8l0,0c-0.4,0-0.7,0.3-0.8,0.8v7
		C139.8,322.9,140.1,323.3,140.5,323.3z"/>
	<path class="st2" d="M137.6,323.3L137.6,323.3c0.4,0,0.7-0.3,0.8-0.8v-7c0-0.4-0.3-0.7-0.8-0.8l0,0c-0.4,0-0.7,0.3-0.8,0.8v7
		C136.8,322.9,137.2,323.3,137.6,323.3z"/>
	<path class="st2" d="M114.2,323.3L114.2,323.3c0.4,0,0.8-0.3,0.8-0.8v-7c0-0.4-0.3-0.8-0.8-0.8l0,0c-0.4,0-0.7,0.3-0.7,0.8v7
		C113.4,322.9,113.8,323.3,114.2,323.3z"/>
	<path class="st2" d="M111.2,323.3L111.2,323.3c0.4,0,0.8-0.3,0.8-0.8v-7c0-0.4-0.3-0.8-0.8-0.8l0,0c-0.4,0-0.7,0.3-0.7,0.8v7
		C110.4,322.9,110.7,323.3,111.2,323.3z"/>
	<path class="st2" d="M108.2,323.3L108.2,323.3c0.4,0,0.7-0.3,0.7-0.8v-7c0-0.4-0.3-0.7-0.7-0.8l0,0c-0.4,0-0.8,0.3-0.8,0.8v7
		C107.4,322.9,107.7,323.3,108.2,323.3z"/>
	<path class="st2" d="M130.6,323.3L130.6,323.3c0.4,0,0.7-0.3,0.8-0.8v-7c0-0.4-0.3-0.7-0.8-0.8l0,0c-0.4,0-0.7,0.3-0.8,0.8v7
		C129.8,322.9,130.2,323.3,130.6,323.3z"/>
	<path class="st2" d="M127.7,323.3L127.7,323.3c0.4,0,0.7-0.3,0.8-0.8v-7c0-0.4-0.3-0.7-0.8-0.8l0,0c-0.4,0-0.7,0.3-0.8,0.8v7
		C126.9,322.9,127.3,323.3,127.7,323.3z"/>
	<path class="st2" d="M124.7,323.3L124.7,323.3c0.4,0,0.8-0.3,0.8-0.8v-7c0-0.4-0.3-0.8-0.8-0.8l0,0c-0.4,0-0.7,0.3-0.7,0.8v7
		C123.9,322.9,124.3,323.3,124.7,323.3z"/>
	<path class="st2" d="M121.7,323.3L121.7,323.3c0.4,0,0.7-0.3,0.7-0.8v-7c0-0.4-0.3-0.7-0.7-0.8l0,0c-0.4,0-0.8,0.3-0.8,0.8v7
		C120.9,322.9,121.3,323.3,121.7,323.3z"/>
	<path class="st2" d="M143.5,335.6L143.5,335.6c0.4,0,0.7-0.3,0.7-0.7v-7c0-0.4-0.3-0.7-0.7-0.7l0,0c-0.4,0-0.7,0.3-0.7,0.7l0,0v7
		C142.8,335.3,143.1,335.6,143.5,335.6L143.5,335.6z"/>
	<path class="st2" d="M140.5,335.6L140.5,335.6c0.4,0,0.7-0.3,0.8-0.7v-7c0-0.4-0.3-0.7-0.8-0.7l0,0c-0.4,0-0.7,0.3-0.8,0.7v7
		C139.8,335.3,140.1,335.6,140.5,335.6z"/>
	<path class="st2" d="M137.6,335.6L137.6,335.6c0.4,0,0.7-0.3,0.8-0.7v-7c0-0.4-0.3-0.7-0.8-0.7l0,0c-0.4,0-0.7,0.3-0.8,0.7v7
		C136.8,335.3,137.2,335.6,137.6,335.6z"/>
	<path class="st2" d="M114.2,335.6L114.2,335.6c0.4,0,0.7-0.3,0.7-0.7l0,0v-7c0-0.4-0.3-0.7-0.7-0.7l0,0l0,0c-0.4,0-0.7,0.3-0.7,0.7
		v7C113.5,335.3,113.8,335.6,114.2,335.6z"/>
	<path class="st2" d="M111.2,335.6L111.2,335.6c0.4,0,0.7-0.3,0.7-0.7l0,0v-7c0-0.4-0.3-0.7-0.7-0.7l0,0l0,0c-0.4,0-0.7,0.3-0.7,0.7
		v7C110.4,335.3,110.8,335.6,111.2,335.6z"/>
	<path class="st2" d="M108.2,335.6L108.2,335.6c0.4,0,0.7-0.3,0.7-0.7v-7c0-0.4-0.3-0.7-0.7-0.7l0,0c-0.4,0-0.7,0.3-0.7,0.7l0,0v7
		C107.4,335.3,107.7,335.6,108.2,335.6C108.1,335.6,108.1,335.6,108.2,335.6z"/>
	<path class="st2" d="M130.6,335.6L130.6,335.6c0.4,0,0.7-0.3,0.8-0.7v-7c0-0.4-0.3-0.7-0.8-0.7l0,0c-0.4,0-0.7,0.3-0.8,0.7v7
		C129.8,335.3,130.2,335.6,130.6,335.6z"/>
	<path class="st2" d="M127.7,335.6L127.7,335.6c0.4,0,0.7-0.3,0.8-0.7v-7c0-0.4-0.3-0.7-0.8-0.7l0,0c-0.4,0-0.7,0.3-0.8,0.7v7
		C126.9,335.3,127.3,335.6,127.7,335.6z"/>
	<path class="st2" d="M124.7,335.6L124.7,335.6c0.4,0,0.7-0.3,0.7-0.7l0,0v-7c0-0.4-0.3-0.7-0.7-0.7l0,0l0,0c-0.4,0-0.7,0.3-0.7,0.7
		v7C123.9,335.3,124.3,335.6,124.7,335.6z"/>
	<path class="st2" d="M121.7,335.6L121.7,335.6c0.4,0,0.7-0.3,0.7-0.7v-7c0-0.4-0.3-0.7-0.7-0.7l0,0c-0.4,0-0.7,0.3-0.7,0.7l0,0v7
		C120.9,335.3,121.3,335.6,121.7,335.6L121.7,335.6z"/>
	<polygon class="st3" points="151.8,313.1 99.9,313.1 99.4,311.4 152.3,311.4 	"/>
	<path class="st0" d="M98.3,312.3h55.3c1.2,0,2.2-1,2.2-2.2l0,0c0-1.2-1-2.2-2.2-2.2H98.3c-1.2,0-2.2,1-2.2,2.2l0,0
		C96.1,311.2,97.1,312.2,98.3,312.3L98.3,312.3z"/>
	<path class="st29" d="M98.3,312.3h55.3c1.2,0,2.2-1,2.2-2.2l0,0c0-1.2-1-2.2-2.2-2.2H98.3c-1.2,0-2.2,1-2.2,2.2l0,0
		C96.1,311.2,97.1,312.2,98.3,312.3L98.3,312.3z"/>
	<path class="st2" d="M126,311.4L126,311.4c0.8,0,1.4-0.6,1.4-1.4l0,0v-28c0-0.8-0.6-1.4-1.4-1.4l0,0l0,0c-0.8,0-1.4,0.6-1.4,1.4v28
		C124.6,310.8,125.2,311.4,126,311.4L126,311.4z"/>
</g>
</svg>
