<?xml version="1.0" encoding="utf-8"?>
<!-- Generator: Adobe Illustrator 23.0.2, SVG Export Plug-In . SVG Version: 6.00 Build 0)  -->
<svg version="1.1" id="Layer_1" xmlns="http://www.w3.org/2000/svg" xmlns:xlink="http://www.w3.org/1999/xlink" x="0px" y="0px"
	 viewBox="0 0 500 500" style="enable-background:new 0 0 500 500;" xml:space="preserve">
<style type="text/css">
	.st0{fill:#0C6E65;}
	.st1{opacity:0.7;fill:#FFFFFF;enable-background:new    ;}
	.st2{fill:#FFFFFF;stroke:#263238;stroke-miterlimit:10;}
	.st3{fill:#263238;stroke:#263238;stroke-miterlimit:10;}
	.st4{fill:#0C6E65;stroke:#263238;stroke-linecap:round;stroke-miterlimit:10;}
	.st5{fill:#FFFFFF;stroke:#263238;stroke-linecap:round;stroke-miterlimit:10;}
	.st6{fill:none;stroke:#263238;stroke-miterlimit:10;}
	.st7{fill:#0C6E65;stroke:#263238;stroke-miterlimit:10;}
	.st8{fill:#263238;}
	.st9{fill:none;stroke:#CCCCCC;stroke-miterlimit:10;}
	.st10{fill:none;stroke:#263238;stroke-width:3;stroke-miterlimit:10;}
	.st11{fill:none;stroke:#FFFFFF;stroke-linecap:round;stroke-miterlimit:10;}
	.st12{fill:#5C5C5C;}
	.st13{fill:#263238;stroke:#263238;stroke-linecap:round;stroke-linejoin:round;}
	.st14{fill:#FFFFFF;stroke:#263238;stroke-linecap:round;stroke-linejoin:round;}
	.st15{fill:none;stroke:#263238;stroke-linecap:round;stroke-linejoin:round;}
	.st16{fill:#FFBE9D;stroke:#263238;stroke-linecap:round;stroke-linejoin:round;}
	.st17{fill:#FFFFFF;stroke:#263238;stroke-width:2;stroke-linecap:round;stroke-linejoin:round;}
	.st18{fill:#F9A580;stroke:#263238;stroke-linecap:round;stroke-linejoin:round;}
	.st19{fill:none;stroke:#FFFFFF;stroke-linecap:round;stroke-linejoin:round;}
	.st20{fill:#0C6E65;stroke:#263238;stroke-linecap:round;stroke-linejoin:round;}
</style>
<g id="freepik--background-simple--inject-17">
	<path class="st0" d="M461.4,243.1c-0.3-0.8-0.7-1.6-1-2.4c-11.7-30.5,0.3-62.1,3-93c8.8-99.4-106.5-150.3-190.6-135
		c-23.2,4.3-45,14.2-63.6,28.7c-17.6,13.8-32.1,31.6-52.6,41.4c-46.4,22.2-111.5,23.8-118.2,87.4C34.6,205,58.7,234.9,54.8,269
		c-4.5,39.5-32.7,73.9-28.6,115.2C30,422.4,63.7,456,97.6,470c25.2,10.4,53.5,13.3,80.3,9.2c27.8-4.2,50-18.7,73-34
		c24.8-16.5,47.8-26.9,77.5-29.5c21-1.8,42.2-1.4,63.3-3c27.6-2.1,58-9.6,75.4-32.9c20.9-27.9,23.1-72.3,12.5-104.6
		C475.8,263.2,466.4,254.2,461.4,243.1z"/>
	<path class="st1" d="M461.4,243.1c-0.3-0.8-0.7-1.6-1-2.4c-11.7-30.5,0.3-62.1,3-93c8.8-99.4-106.5-150.3-190.6-135
		c-23.2,4.3-45,14.2-63.6,28.7c-17.6,13.8-32.1,31.6-52.6,41.4c-46.4,22.2-111.5,23.8-118.2,87.4C34.6,205,58.7,234.9,54.8,269
		c-4.5,39.5-32.7,73.9-28.6,115.2C30,422.4,63.7,456,97.6,470c25.2,10.4,53.5,13.3,80.3,9.2c27.8-4.2,50-18.7,73-34
		c24.8-16.5,47.8-26.9,77.5-29.5c21-1.8,42.2-1.4,63.3-3c27.6-2.1,58-9.6,75.4-32.9c20.9-27.9,23.1-72.3,12.5-104.6
		C475.8,263.2,466.4,254.2,461.4,243.1z"/>
</g>
<g id="freepik--Window--inject-17">
	<path class="st2" d="M40.7,57.7h346.4c5.2,0,9.3,4.2,9.4,9.3v325.8l0,0H31.3l0,0V67C31.3,61.8,35.5,57.6,40.7,57.7L40.7,57.7z"/>
	<path class="st3" d="M388.6,57.7H39.2c-4.3,0-7.9,3.5-7.9,7.8c0,0,0,0,0,0v7h365.2v-7C396.5,61.2,393,57.7,388.6,57.7z"/>
	<path class="st4" d="M366.9,64.7c0,1.7-1.4,3.1-3.1,3.1c-1.7,0-3.1-1.4-3.1-3.1c0-1.7,1.4-3.1,3.1-3.1c0,0,0,0,0,0
		C365.5,61.6,366.9,63,366.9,64.7C366.9,64.7,366.9,64.7,366.9,64.7z"/>
	<path class="st5" d="M377.4,64.7c0,1.7-1.4,3.1-3.1,3.1c-1.7,0-3.1-1.4-3.1-3.1s1.4-3.1,3.1-3.1S377.4,63,377.4,64.7
		C377.4,64.7,377.4,64.7,377.4,64.7z"/>
	<path class="st5" d="M388,64.7c0,1.7-1.4,3.1-3.1,3.1c-1.7,0-3.1-1.4-3.1-3.1s1.4-3.1,3.1-3.1S388,63,388,64.7
		C388,64.7,388,64.7,388,64.7z"/>
</g>
<g id="freepik--dividing-lines--inject-17">
	<line class="st6" x1="101" y1="300.1" x2="383.8" y2="300.1"/>
	<line class="st6" x1="380.3" y1="193.4" x2="383.8" y2="193.4"/>
	<line class="st6" x1="101" y1="193.4" x2="376.2" y2="193.4"/>
	<line class="st6" x1="241.3" y1="294" x2="241.3" y2="199.5"/>
</g>
<g id="freepik--charts-4--inject-17">
	<path class="st2" d="M124.6,336.2h21.1c0,11.6-9.4,21.1-21.1,21.1s-21.1-9.4-21.1-21.1c0-11.6,9.4-21.1,21.1-21.1h0l0,0
		L124.6,336.2z"/>
	<path class="st7" d="M124.6,336.2v-21.1c11.6,0,21.1,9.4,21.1,21.1L124.6,336.2L124.6,336.2z"/>
	<circle class="st5" cx="124.6" cy="336.2" r="14.1"/>
	<path class="st8" d="M121.3,333.5c0,2.7-3,3.7-3,5.7v0.1h2.9v0.9h-3.9v-0.8c0-2.9,3-3.5,3-6c0-0.9-0.3-1.4-1-1.4s-1,0.5-1,1.3v0.8
		h-0.9v-0.7c0-1.4,0.6-2.3,2-2.3S121.3,332.1,121.3,333.5z"/>
	<path class="st8" d="M123.2,334.9c0.3-0.5,0.8-0.8,1.3-0.7c1.2,0,1.7,0.8,1.7,2.1v1.7c0,1.4-0.7,2.3-2,2.3s-2-0.9-2-2.3v-0.6h0.9
		v0.7c0,0.8,0.3,1.3,1,1.3s1.1-0.5,1.1-1.3v-1.7c0-0.8-0.3-1.3-1.1-1.3c-0.5,0-1,0.4-1,1v0.2h-0.9l0.3-5h3.6v0.9h-2.6L123.2,334.9z"
		/>
	<path class="st8" d="M129.6,332.7v2.8c0,0.9-0.4,1.5-1.3,1.5s-1.3-0.6-1.3-1.5v-2.8c0-0.9,0.4-1.5,1.3-1.5
		C129.2,331.2,129.6,331.8,129.6,332.7z M127.7,332.7v2.9c0,0.5,0.2,0.8,0.6,0.8s0.6-0.3,0.6-0.8v-2.9c0-0.5-0.2-0.8-0.6-0.8
		S127.7,332.2,127.7,332.7L127.7,332.7z M132.6,331.3l-3.5,8.9h-0.6l3.5-9L132.6,331.3z M134,336v2.8c0,0.9-0.4,1.4-1.3,1.4
		s-1.3-0.6-1.3-1.4V336c0-0.9,0.4-1.4,1.3-1.4S134,335.2,134,336z M132.1,336v2.9c0,0.5,0.2,0.8,0.6,0.8s0.6-0.3,0.6-0.8V336
		c0-0.5-0.2-0.8-0.6-0.8S132.1,335.5,132.1,336L132.1,336z"/>
	<line class="st6" x1="112.3" y1="363.1" x2="138.5" y2="363.1"/>
	<line class="st6" x1="128.5" y1="366.7" x2="138.5" y2="366.7"/>
	<line class="st6" x1="112.3" y1="366.7" x2="125.2" y2="366.7"/>
	<line class="st6" x1="112.3" y1="370.3" x2="138.5" y2="370.3"/>
	<line class="st6" x1="121" y1="373.8" x2="138.5" y2="373.8"/>
	<line class="st6" x1="112.3" y1="373.8" x2="118.1" y2="373.8"/>
	<path class="st2" d="M203,336.2l12.4,17.1c-9.4,6.8-22.6,4.8-29.5-4.7c-6.8-9.4-4.8-22.6,4.7-29.5c3.6-2.7,7.9-4.1,12.4-4V336.2z"
		/>
	<path class="st3" d="M203,336.2v-21.1c11.6,0,21.1,9.4,21.1,21.1c0.1,6.8-3.2,13.2-8.7,17.1L203,336.2z"/>
	<circle class="st5" cx="203" cy="336.2" r="14.1"/>
	<path class="st8" d="M198.9,338.4v1.8h-1v-1.8H195v-0.9l2.8-6.2h1.1v6.2h0.7v0.9H198.9z M196,337.5h2v-4.4L196,337.5z"/>
	<path class="st8" d="M200.3,333.5c0-1.4,0.7-2.2,2-2.2c1.1,0,2,0.8,2.1,1.9c0,0.1,0,0.2,0,0.3v4.6c0,1.4-0.7,2.3-2.1,2.3
		s-2-0.9-2-2.3V333.5z M201.3,338.1c0,0.8,0.4,1.3,1.1,1.3s1.1-0.5,1.1-1.3v-4.7c0-0.8-0.3-1.3-1.1-1.3s-1.1,0.5-1.1,1.3V338.1z"/>
	<path class="st8" d="M207.9,332.7v2.8c0,0.9-0.4,1.5-1.3,1.5s-1.3-0.6-1.3-1.5v-2.8c0-0.9,0.4-1.5,1.3-1.5S207.9,331.8,207.9,332.7
		z M206,332.7v2.9c0,0.5,0.2,0.8,0.6,0.8s0.6-0.3,0.6-0.8v-2.9c0-0.5-0.2-0.8-0.6-0.8S206,332.2,206,332.7L206,332.7z M210.8,331.3
		l-3.5,8.9h-0.6l3.5-8.9H210.8z M212.3,336v2.8c0,0.9-0.4,1.4-1.3,1.4s-1.3-0.6-1.3-1.4V336c0-0.9,0.4-1.4,1.3-1.4
		S212.3,335.2,212.3,336L212.3,336z M210.3,336v2.9c0,0.5,0.2,0.8,0.6,0.8s0.6-0.3,0.6-0.8V336c0-0.5-0.2-0.8-0.6-0.8
		S210.3,335.5,210.3,336L210.3,336z"/>
	<line class="st6" x1="190.1" y1="363.1" x2="216.3" y2="363.1"/>
	<line class="st6" x1="206.3" y1="366.7" x2="216.3" y2="366.7"/>
	<line class="st6" x1="190.1" y1="366.7" x2="203" y2="366.7"/>
	<line class="st6" x1="190.1" y1="370.3" x2="216.3" y2="370.3"/>
	<line class="st6" x1="198.8" y1="373.8" x2="216.3" y2="373.8"/>
	<line class="st6" x1="190.1" y1="373.8" x2="195.9" y2="373.8"/>
	<path class="st2" d="M281.4,336.2l-20.1,6.5c-3.6-11.1,2.5-23,13.5-26.6c0,0,0,0,0,0c2.1-0.7,4.3-1,6.5-1V336.2z"/>
	<path class="st7" d="M281.4,336.2v-21.1c11.6,0,21.1,9.4,21.1,21.1c0,11.6-9.4,21.1-21.1,21.1c0,0,0,0,0,0
		c-9.2,0.1-17.3-5.8-20.1-14.6L281.4,336.2z"/>
	<circle class="st5" cx="281.4" cy="336.2" r="14.1"/>
	<path class="st8" d="M276.3,332.2h-3v-0.9h4v0.9l-2.3,8.1h-1L276.3,332.2z"/>
	<path class="st8" d="M278.2,333.5c0-1.4,0.7-2.2,2-2.2s2,0.9,2,2.2v4.6c0,1.4-0.7,2.3-2,2.3s-2-0.9-2-2.3V333.5z M279.2,338.1
		c0,0.8,0.3,1.3,1.1,1.3s1.1-0.5,1.1-1.3v-4.7c0-0.8-0.3-1.3-1.1-1.3s-1.1,0.5-1.1,1.3V338.1z"/>
	<path class="st8" d="M285.8,332.7v2.8c0,0.9-0.4,1.5-1.3,1.5s-1.3-0.6-1.3-1.5v-2.8c0-0.9,0.4-1.5,1.3-1.5S285.8,331.8,285.8,332.7
		z M283.8,332.7v2.9c0,0.5,0.2,0.8,0.6,0.8s0.6-0.3,0.6-0.8v-2.9c0-0.5-0.2-0.8-0.6-0.8S283.8,332.2,283.8,332.7L283.8,332.7z
		 M288.7,331.3l-3.5,8.9h-0.6l3.5-8.9H288.7z M290.1,336v2.8c0,0.9-0.4,1.4-1.3,1.4s-1.3-0.6-1.3-1.4V336c0-0.9,0.4-1.4,1.3-1.4
		S290.1,335.2,290.1,336L290.1,336z M288.2,336v2.9c0,0.5,0.2,0.8,0.6,0.8s0.6-0.3,0.6-0.8V336c0-0.5-0.2-0.8-0.6-0.8
		S288.2,335.5,288.2,336L288.2,336z"/>
	<line class="st6" x1="267.9" y1="363.1" x2="294.1" y2="363.1"/>
	<line class="st6" x1="284.1" y1="366.7" x2="294.1" y2="366.7"/>
	<line class="st6" x1="267.9" y1="366.7" x2="280.9" y2="366.7"/>
	<line class="st6" x1="267.9" y1="370.3" x2="294.1" y2="370.3"/>
	<line class="st6" x1="276.7" y1="373.8" x2="294.1" y2="373.8"/>
	<line class="st6" x1="267.9" y1="373.8" x2="273.8" y2="373.8"/>
	<path class="st2" d="M359.8,336.2l-17.1-12.4c3.9-5.5,10.3-8.8,17.1-8.7V336.2z"/>
	<path class="st3" d="M359.8,336.2v-21.1c11.6,0,21.1,9.4,21.1,21.1s-9.4,21.1-21.1,21.1s-21.1-9.4-21.1-21.1l0,0
		c-0.1-4.5,1.3-8.8,4-12.4L359.8,336.2z"/>
	<circle class="st5" cx="359.8" cy="336.2" r="14.1"/>
	<path class="st8" d="M357.1,333.4v0.3c0.1,0.8-0.3,1.5-1,1.8c0.7,0.3,1.1,1.1,1,1.9v0.7c0.1,1.2-0.8,2.2-2,2.3
		c-1.2,0.1-2.2-0.8-2.3-2c0-0.1,0-0.2,0-0.3v-0.7c-0.1-0.8,0.3-1.5,1-1.9c-0.7-0.3-1.1-1.1-1-1.8v-0.3c-0.1-1.2,0.8-2.2,2-2.3
		c1.2-0.1,2.2,0.8,2.3,2C357.2,333.2,357.2,333.3,357.1,333.4z M353.9,333.4v0.4c0,0.9,0.4,1.3,1.1,1.3s1.1-0.4,1.1-1.3v-0.4
		c0-0.9-0.4-1.3-1.1-1.3S353.9,332.5,353.9,333.4L353.9,333.4z M353.9,337.3v0.8c0,0.9,0.4,1.4,1.1,1.4s1.1-0.4,1.1-1.4v-0.8
		c0-0.9-0.4-1.3-1.1-1.3S353.9,336.4,353.9,337.3L353.9,337.3z"/>
	<path class="st8" d="M359,334.9c0.3-0.5,0.8-0.8,1.3-0.7c1.1,0,1.7,0.8,1.7,2.1v1.7c0,1.4-0.6,2.3-2,2.3s-2-0.9-2-2.3v-0.6h1v0.7
		c0,0.8,0.3,1.3,1,1.3s1-0.5,1-1.3v-1.7c0-0.8-0.3-1.3-1-1.3c-0.5,0-1,0.4-1,1v0.2h-0.9l0.3-5h3.5v0.9h-2.6L359,334.9z"/>
	<path class="st8" d="M365.5,332.7v2.8c0,0.9-0.4,1.5-1.3,1.5s-1.3-0.6-1.3-1.5v-2.8c0-0.9,0.4-1.5,1.3-1.5S365.5,331.8,365.5,332.7
		z M363.6,332.7v2.9c0,0.5,0.2,0.8,0.6,0.8s0.6-0.3,0.6-0.8v-2.9c0-0.5-0.2-0.8-0.6-0.8S363.6,332.2,363.6,332.7L363.6,332.7z
		 M368.4,331.3l-3.5,8.9h-0.6l3.5-8.9H368.4z M369.9,336v2.8c0,0.9-0.4,1.4-1.3,1.4s-1.3-0.6-1.3-1.4V336c0-0.9,0.4-1.4,1.3-1.4
		S369.9,335.2,369.9,336L369.9,336z M368,336v2.9c0,0.5,0.2,0.8,0.6,0.8s0.6-0.3,0.6-0.8V336c0-0.5-0.2-0.8-0.6-0.8
		S368,335.5,368,336z"/>
	<line class="st6" x1="347.1" y1="363.1" x2="373.3" y2="363.1"/>
	<line class="st6" x1="363.3" y1="366.7" x2="373.3" y2="366.7"/>
	<line class="st6" x1="347.1" y1="366.7" x2="360" y2="366.7"/>
	<line class="st6" x1="347.1" y1="370.3" x2="373.3" y2="370.3"/>
	<line class="st6" x1="355.8" y1="373.8" x2="373.3" y2="373.8"/>
	<line class="st6" x1="347.1" y1="373.8" x2="352.9" y2="373.8"/>
</g>
<g id="freepik--charts-3--inject-17">
	<path class="st8" d="M255.6,212.1c1.1,0,2-0.9,2-2s-0.9-2-2-2c-1.1,0-2,0.9-2,2S254.5,212.1,255.6,212.1z"/>
	<path class="st8" d="M261.1,219.8l-3.1-6.1c-0.2-0.3-0.5-0.5-0.8-0.5H257h-2.8h-0.1c-0.4,0-0.7,0.1-0.9,0.5l-3.1,6.1
		c-0.2,0.4-0.1,0.9,0.3,1.2c0.4,0.2,0.9,0.1,1.2-0.3c0,0,0-0.1,0.1-0.1l1.8-3.5v13.4c0,0.4,0.4,0.8,0.8,0.8c0.4,0,0.8-0.4,0.8-0.8
		v-9.2h1v9.2c0,0.4,0.4,0.8,0.8,0.8c0.4,0,0.8-0.4,0.8-0.8V217l1.8,3.5c0.2,0.4,0.7,0.6,1.1,0.4c0,0,0,0,0,0
		C261.1,220.7,261.3,220.2,261.1,219.8z"/>
	<path class="st8" d="M267.1,212.1c1.1,0,2-0.9,2-2s-0.9-2-2-2s-2,0.9-2,2S266,212.1,267.1,212.1z"/>
	<path class="st8" d="M272.5,219.8l-3.1-6.1c-0.2-0.3-0.5-0.5-0.8-0.5h-0.1h-2.7h-0.1c-0.3,0-0.7,0.1-0.8,0.5l-3.1,6.1
		c-0.2,0.4-0.1,0.9,0.3,1.2s0.9,0.1,1.2-0.3c0,0,0-0.1,0.1-0.1l1.8-3.5v13.4c0,0.4,0.3,0.8,0.7,0.9c0.4,0,0.8-0.3,0.9-0.7
		c0-0.1,0-0.1,0-0.2v-9.2h1v9.2c0,0.4,0.4,0.8,0.8,0.8c0.4,0,0.8-0.4,0.8-0.8V217l1.8,3.5c0.2,0.4,0.8,0.5,1.2,0.3
		C272.6,220.6,272.7,220.1,272.5,219.8L272.5,219.8z"/>
	<circle class="st8" cx="278.6" cy="210.1" r="2"/>
	<path class="st8" d="M284,219.8l-3.1-6.1c-0.2-0.3-0.5-0.5-0.8-0.5H280h-2.8h-0.1c-0.3,0-0.7,0.2-0.8,0.5l-3.1,6.1
		c-0.2,0.4,0,0.9,0.4,1.1c0.4,0.2,0.9,0,1.1-0.4l1.8-3.5v13.4c0,0.4,0.4,0.8,0.8,0.8c0.4,0,0.8-0.4,0.8-0.8v-9.2h1v9.2
		c0,0.4,0.4,0.8,0.8,0.8c0.4,0,0.8-0.4,0.8-0.8V217l1.8,3.5c0.2,0.4,0.8,0.5,1.2,0.3C284,220.6,284.1,220.1,284,219.8L284,219.8z"/>
	<path class="st8" d="M255.6,238.1c1.1,0,2-0.9,2-2s-0.9-2-2-2c-1.1,0-2,0.9-2,2S254.5,238.1,255.6,238.1z"/>
	<path class="st8" d="M261.1,245.7l-3.1-6.1c-0.2-0.3-0.5-0.5-0.8-0.4H257h-2.8h-0.1c-0.3,0-0.7,0.1-0.9,0.4l-3.1,6.1
		c-0.2,0.4-0.1,0.9,0.3,1.2s0.9,0.1,1.2-0.3c0,0,0,0,0,0l1.8-3.5v13.4c0,0.4,0.4,0.8,0.8,0.8c0.4,0,0.8-0.4,0.8-0.8v-9.2h1v9.2
		c0,0.4,0.4,0.8,0.8,0.8c0.4,0,0.8-0.4,0.8-0.8V243l1.8,3.5c0.2,0.4,0.7,0.6,1.1,0.4C261.1,246.7,261.3,246.2,261.1,245.7
		C261.1,245.7,261.1,245.7,261.1,245.7z"/>
	<path class="st8" d="M267.1,238.1c1.1,0,2-0.9,2-2s-0.9-2-2-2s-2,0.9-2,2S266,238.1,267.1,238.1z"/>
	<path class="st8" d="M272.5,245.7l-3.1-6.1c-0.2-0.3-0.5-0.5-0.8-0.4h-0.1h-2.7h-0.1c-0.3,0-0.7,0.1-0.8,0.4l-3.1,6.1
		c-0.2,0.4,0,0.9,0.4,1.1c0.4,0.2,0.9,0,1.1-0.4l1.8-3.5v13.4c0,0.4,0.5,0.8,0.9,0.7c0.4,0,0.7-0.3,0.7-0.7v-9.2h1v9.2
		c0,0.4,0.4,0.8,0.8,0.8c0.4,0,0.8-0.4,0.8-0.8V243l1.8,3.5c0.2,0.4,0.7,0.6,1.1,0.4C272.6,246.7,272.8,246.2,272.5,245.7
		C272.5,245.7,272.5,245.7,272.5,245.7z"/>
	<circle class="st8" cx="278.6" cy="236.1" r="2"/>
	<path class="st8" d="M284,245.7l-3.1-6.1c-0.2-0.3-0.5-0.5-0.8-0.4H280h-2.8h-0.1c-0.3,0-0.7,0.1-0.8,0.4l-3.1,6.1
		c-0.2,0.4,0,0.9,0.4,1.1c0.4,0.2,0.9,0,1.1-0.4l1.8-3.5v13.4c0,0.4,0.4,0.8,0.8,0.8c0.4,0,0.8-0.4,0.8-0.8v-9.2h1v9.2
		c0,0.4,0.4,0.8,0.8,0.8c0.4,0,0.8-0.4,0.8-0.8V243l1.8,3.5c0.2,0.4,0.7,0.6,1.1,0.4C284,246.7,284.2,246.2,284,245.7
		C284,245.8,284,245.8,284,245.7L284,245.7z"/>
	<circle class="st8" cx="290" cy="236.1" r="2"/>
	<path class="st8" d="M295.5,245.7l-3.1-6.1c-0.2-0.3-0.5-0.5-0.8-0.4h-0.1h-2.7h-0.1c-0.3,0-0.7,0.1-0.8,0.4l-3.1,6.1
		c-0.2,0.4,0,0.9,0.4,1.1c0.4,0.2,0.9,0,1.1-0.4l1.9-3.5v13.4c0,0.4,0.5,0.8,0.9,0.7c0.4,0,0.7-0.3,0.7-0.7v-9.2h1v9.2
		c0,0.4,0.5,0.8,0.9,0.7c0.4,0,0.7-0.3,0.7-0.7V243l1.8,3.5c0.2,0.4,0.7,0.6,1.1,0.4S295.8,246.2,295.5,245.7L295.5,245.7
		L295.5,245.7z"/>
	<path class="st8" d="M301.5,238.1c1.1,0,2-0.9,2-2s-0.9-2-2-2s-2,0.9-2,2S300.4,238.1,301.5,238.1z"/>
	<path class="st8" d="M306.9,245.7l-3.1-6.1c-0.2-0.3-0.5-0.5-0.9-0.4h-0.1h-2.8H300c-0.3,0-0.7,0.1-0.8,0.4l-3.1,6.1
		c-0.2,0.4,0,0.9,0.4,1.1c0.4,0.2,0.9,0,1.1-0.4l1.8-3.5v13.4c0,0.4,0.4,0.8,0.8,0.8c0.4,0,0.8-0.4,0.8-0.8v-9.2h1v9.2
		c0,0.4,0.4,0.8,0.8,0.8c0.4,0,0.8-0.4,0.8-0.8V243l1.8,3.5c0.2,0.4,0.7,0.6,1.1,0.4C307,246.7,307.2,246.2,306.9,245.7
		C307,245.8,307,245.8,306.9,245.7L306.9,245.7z"/>
	<path class="st7" d="M255.6,263.8c1.1,0,2-0.9,2-2s-0.9-2-2-2c-1.1,0-2,0.9-2,2S254.5,263.8,255.6,263.8z"/>
	<path class="st7" d="M261.1,271.4l-3.1-6c-0.2-0.3-0.5-0.5-0.8-0.5H257h-2.8h-0.1c-0.4,0-0.7,0.1-0.9,0.5l-3.1,6
		c-0.2,0.4-0.1,0.9,0.3,1.2c0.4,0.2,0.9,0.1,1.2-0.3c0,0,0,0,0,0l1.8-3.5v13.4c0,0.4,0.4,0.8,0.8,0.8c0.4,0,0.8-0.4,0.8-0.8v-9.2h1
		v9.2c0,0.4,0.4,0.8,0.8,0.8c0.4,0,0.8-0.4,0.8-0.8v-13.4l1.8,3.5c0.2,0.4,0.7,0.6,1.1,0.4C261.1,272.4,261.3,271.8,261.1,271.4z"/>
	<path class="st7" d="M267.1,263.8c1.1,0,2-0.9,2-2s-0.9-2-2-2s-2,0.9-2,2S266,263.8,267.1,263.8z"/>
	<path class="st7" d="M272.5,271.4l-3.1-6c-0.2-0.3-0.5-0.5-0.8-0.5h-0.1h-2.7h-0.1c-0.3,0-0.7,0.1-0.8,0.5l-3.1,6
		c-0.2,0.4,0,0.9,0.4,1.1c0.4,0.2,0.9,0,1.1-0.4l1.8-3.5v13.4c0,0.4,0.3,0.8,0.7,0.9c0.4,0,0.8-0.3,0.9-0.7c0-0.1,0-0.1,0-0.2v-9.2
		h1v9.2c0,0.4,0.4,0.8,0.8,0.8s0.8-0.4,0.8-0.8c0,0,0,0,0,0v-13.4l1.8,3.5c0.2,0.4,0.7,0.6,1.1,0.4
		C272.6,272.4,272.7,271.8,272.5,271.4z"/>
	<path class="st7" d="M278.6,263.8c1.1,0,2-0.9,2-2s-0.9-2-2-2s-2,0.9-2,2S277.5,263.8,278.6,263.8z"/>
	<path class="st7" d="M284,271.4l-3.1-6c-0.2-0.3-0.5-0.5-0.8-0.5H280h-2.8h-0.1c-0.3,0-0.7,0.1-0.8,0.5l-3.1,6
		c-0.2,0.4,0,0.9,0.4,1.1c0.4,0.2,0.9,0,1.1-0.4l1.8-3.5v13.4c0,0.4,0.4,0.8,0.8,0.8c0.4,0,0.8-0.4,0.8-0.8v-9.2h1v9.2
		c0,0.4,0.4,0.8,0.8,0.8s0.8-0.4,0.8-0.8c0,0,0,0,0,0v-13.4l1.8,3.5c0.2,0.4,0.7,0.6,1.1,0.4C284,272.4,284.2,271.9,284,271.4
		C284,271.5,284,271.5,284,271.4L284,271.4z"/>
	<path class="st7" d="M290,263.8c1.1,0,2-0.9,2-2s-0.9-2-2-2s-2,0.9-2,2S288.9,263.8,290,263.8z"/>
	<path class="st7" d="M295.5,271.4l-3.1-6c-0.2-0.3-0.5-0.5-0.8-0.5h-0.1h-2.7h-0.1c-0.3,0-0.7,0.1-0.8,0.5l-3.1,6
		c-0.2,0.4,0,0.9,0.4,1.1c0.4,0.2,0.9,0,1.1-0.4l1.8-3.5v13.4c0,0.4,0.3,0.8,0.7,0.9c0.4,0,0.8-0.3,0.9-0.7c0-0.1,0-0.1,0-0.2v-9.2
		h1v9.2c0,0.4,0.3,0.8,0.7,0.9c0.4,0,0.8-0.3,0.9-0.7c0-0.1,0-0.1,0-0.2v-13.4l1.8,3.5c0.2,0.4,0.7,0.6,1.1,0.4
		S295.7,271.9,295.5,271.4L295.5,271.4L295.5,271.4z"/>
	<path class="st7" d="M301.5,263.8c1.1,0,2-0.9,2-2s-0.9-2-2-2s-2,0.9-2,2S300.4,263.8,301.5,263.8z"/>
	<path class="st7" d="M306.9,271.4l-3.1-6c-0.2-0.3-0.5-0.5-0.9-0.5h-0.1h-2.8H300c-0.3,0-0.7,0.1-0.8,0.5l-3.1,6
		c-0.2,0.4,0,0.9,0.4,1.1c0.4,0.2,0.9,0,1.1-0.4l1.8-3.5v13.4c0,0.4,0.4,0.8,0.8,0.8c0.4,0,0.8-0.4,0.8-0.8v-9.2h1v9.2
		c0,0.4,0.4,0.8,0.8,0.8c0.4,0,0.8-0.4,0.8-0.8v-13.4l1.8,3.5c0.2,0.4,0.7,0.6,1.1,0.4C307,272.4,307.2,271.9,306.9,271.4
		C307,271.5,307,271.5,306.9,271.4L306.9,271.4z"/>
	<path class="st7" d="M312.8,263.8c1.1,0,2-0.9,2-2s-0.9-2-2-2s-2,0.9-2,2S311.7,263.8,312.8,263.8z"/>
	<path class="st7" d="M318.3,271.4l-3.1-6c-0.2-0.3-0.5-0.5-0.9-0.5h-0.1h-2.8h-0.1c-0.3,0-0.7,0.1-0.8,0.5l-3.1,6
		c-0.2,0.4,0,0.9,0.4,1.1s0.9,0,1.1-0.4l1.8-3.5v13.4c0,0.4,0.3,0.8,0.7,0.9c0.4,0,0.8-0.3,0.9-0.7c0-0.1,0-0.1,0-0.2v-9.2h1v9.2
		c0,0.4,0.4,0.8,0.8,0.8s0.8-0.4,0.8-0.8c0,0,0,0,0,0v-13.4l1.8,3.5c0.2,0.4,0.7,0.6,1.1,0.4C318.3,272.4,318.5,271.9,318.3,271.4
		C318.3,271.5,318.3,271.5,318.3,271.4L318.3,271.4z"/>
	<path class="st7" d="M324.3,263.8c1.1,0,2-0.9,2-2s-0.9-2-2-2s-2,0.9-2,2S323.2,263.8,324.3,263.8z"/>
	<path class="st7" d="M329.7,271.4l-3.1-6c-0.2-0.3-0.5-0.5-0.8-0.5h-0.1h-2.7h-0.1c-0.4,0-0.7,0.1-0.9,0.5l-3.1,6
		c-0.2,0.4-0.1,0.9,0.3,1.2c0.4,0.2,0.9,0.1,1.2-0.3c0,0,0,0,0,0l1.8-3.5v13.4c0,0.4,0.4,0.8,0.8,0.8s0.8-0.4,0.8-0.8c0,0,0,0,0,0
		v-9.2h1v9.2c0,0.4,0.3,0.8,0.7,0.9c0.4,0,0.8-0.3,0.9-0.7c0-0.1,0-0.1,0-0.2v-13.4l1.8,3.5c0.2,0.4,0.7,0.6,1.1,0.4
		S330,271.9,329.7,271.4L329.7,271.4L329.7,271.4z"/>
	<path class="st7" d="M335.8,263.8c1.1,0,2-0.9,2-2s-0.9-2-2-2s-2,0.9-2,2S334.7,263.8,335.8,263.8z"/>
	<path class="st7" d="M341.2,271.4l-3.1-6c-0.2-0.3-0.5-0.5-0.9-0.5h-0.1h-2.8h-0.1c-0.3,0-0.7,0.1-0.8,0.5l-3.1,6
		c-0.2,0.4,0,0.9,0.4,1.1s0.9,0,1.1-0.4l1.8-3.5v13.4c0,0.4,0.3,0.8,0.7,0.9c0.4,0,0.8-0.3,0.9-0.7c0-0.1,0-0.1,0-0.2v-9.2h1v9.2
		c0,0.4,0.4,0.8,0.8,0.8c0.4,0,0.8-0.4,0.8-0.8v-13.4l1.8,3.5c0.2,0.4,0.7,0.6,1.1,0.4C341.3,272.4,341.4,271.9,341.2,271.4
		C341.2,271.5,341.2,271.5,341.2,271.4L341.2,271.4z"/>
	<path class="st8" d="M297.9,216.9v0.3c0.1,1.1-0.5,2.1-1.5,2.5c1,0.4,1.6,1.4,1.5,2.5v0.9c0,1.9-0.9,3.1-2.8,3.1s-2.7-1.2-2.7-3.1
		v-0.8h1.3v0.9c0,1.1,0.5,1.8,1.4,1.8s1.4-0.6,1.4-1.9v-0.9c0-1.2-0.5-1.8-1.5-1.8h-0.7v-1.2h0.8c0.8,0,1.5-0.6,1.5-1.4
		c0-0.1,0-0.2,0-0.2V217c0-1.3-0.4-1.9-1.4-1.9s-1.4,0.7-1.4,1.8v0.6h-1.3v-0.6c0-1.9,0.9-3.1,2.7-3.1S297.9,215.1,297.9,216.9z"/>
	<path class="st8" d="M299.1,216.9c0-1.9,0.9-3.1,2.8-3.1s2.8,1.2,2.8,3.1v6.3c0,1.9-0.9,3.1-2.8,3.1s-2.8-1.2-2.8-3.1V216.9z
		 M300.4,223.3c0,1.1,0.5,1.8,1.4,1.8s1.5-0.7,1.5-1.8v-6.4c0-1.1-0.5-1.8-1.5-1.8s-1.4,0.7-1.4,1.8V223.3z"/>
	<path class="st8" d="M309.4,215.9v3.8c0,1.2-0.5,2-1.7,2s-1.7-0.8-1.7-2v-3.8c0-1.2,0.6-2,1.7-2S309.4,214.7,309.4,215.9z
		 M306.8,215.8v4c0,0.7,0.3,1.1,0.9,1.1s0.9-0.4,0.9-1.1v-4c0-0.7-0.3-1.1-0.9-1.1S306.8,215.2,306.8,215.8z M313.4,214l-4.8,12.2
		h-0.8l4.8-12.2H313.4z M315.4,220.4v3.8c0,1.2-0.5,2-1.7,2s-1.7-0.8-1.7-2v-3.8c0-1.2,0.5-1.9,1.7-1.9S315.4,219.3,315.4,220.4
		L315.4,220.4z M312.8,220.4v4c0,0.7,0.3,1.1,0.9,1.1s0.9-0.4,0.9-1.1v-4c0-0.7-0.3-1.1-0.9-1.1S312.8,219.7,312.8,220.4
		L312.8,220.4z"/>
	<path class="st8" d="M317.8,245.4c0.4-0.6,1.1-1,1.8-1c1.6,0,2.3,1.1,2.3,2.9v2.4c0,1.9-0.9,3.1-2.8,3.1s-2.7-1.2-2.7-3.1v-0.8h1.3
		v0.9c0,1.1,0.5,1.8,1.4,1.8s1.4-0.7,1.4-1.8v-2.4c0-1.1-0.5-1.8-1.4-1.8c-0.7,0-1.3,0.5-1.4,1.2c0,0,0,0,0,0.1v0.3h-1.3l0.3-6.8
		h4.8v1.2H318L317.8,245.4z"/>
	<path class="st8" d="M323.1,243.4c0-1.9,0.9-3.1,2.8-3.1s2.8,1.2,2.8,3.1v6.3c0,1.9-0.9,3.1-2.8,3.1s-2.8-1.2-2.8-3.1V243.4z
		 M324.4,249.8c0,1.1,0.5,1.8,1.4,1.8s1.5-0.7,1.5-1.8v-6.4c0-1.1-0.5-1.8-1.5-1.8s-1.4,0.7-1.4,1.8V249.8z"/>
	<path class="st8" d="M333.4,242.4v3.8c0,1.2-0.5,2-1.7,2s-1.7-0.8-1.7-2v-3.8c0-1.2,0.6-2,1.7-2S333.4,241.2,333.4,242.4z
		 M330.8,242.3v4c0,0.7,0.3,1.1,0.9,1.1s0.9-0.4,0.9-1.1v-4c0-0.7-0.3-1.1-0.9-1.1S330.8,241.6,330.8,242.3L330.8,242.3z
		 M337.4,240.5l-4.8,12.2h-0.8l4.8-12.2H337.4z M339.4,246.9v3.8c0,1.2-0.5,2-1.7,2s-1.7-0.8-1.7-2v-3.8c0-1.2,0.6-2,1.7-2
		S339.4,245.7,339.4,246.9L339.4,246.9z M336.8,246.8v4c0,0.7,0.3,1.1,0.9,1.1s0.9-0.4,0.9-1.1v-4c0-0.7-0.3-1.1-0.9-1.1
		S336.8,246.2,336.8,246.8L336.8,246.8z"/>
	<path class="st8" d="M353.4,270.3v0.4c0.1,1.1-0.4,2.1-1.4,2.5c1,0.5,1.5,1.5,1.4,2.6v0.9c0,1.9-1,3-2.9,3s-2.9-1.2-2.9-3v-0.9
		c-0.2-1.1,0.4-2.1,1.4-2.6c-1-0.4-1.6-1.5-1.4-2.5v-0.4c0-1.9,1-3,2.9-3S353.4,268.4,353.4,270.3z M349,270.3v0.6
		c0,1.2,0.6,1.7,1.5,1.7s1.5-0.5,1.5-1.7v-0.6c0-1.3-0.6-1.8-1.5-1.8S349,269.1,349,270.3L349,270.3z M349,275.6v1
		c0,1.3,0.6,1.9,1.5,1.9s1.5-0.6,1.5-1.9v-1c0-1.2-0.5-1.8-1.5-1.8S349,274.4,349,275.6L349,275.6z"/>
	<path class="st8" d="M354.5,270.4c0-1.9,0.9-3.1,2.8-3.1s2.8,1.2,2.8,3.1v6.3c0,1.9-0.9,3.1-2.8,3.1s-2.8-1.2-2.8-3.1V270.4z
		 M355.9,276.7c0,1.1,0.5,1.8,1.5,1.8s1.4-0.7,1.4-1.8v-6.4c0-1.1-0.5-1.8-1.4-1.8s-1.5,0.7-1.5,1.8V276.7z"/>
	<path class="st8" d="M364.8,269.3v3.8c0,1.2-0.6,2-1.7,2s-1.7-0.8-1.7-2v-3.8c0-1.2,0.6-2,1.7-2S364.8,268.1,364.8,269.3z
		 M362.2,269.3v4c0,0.7,0.2,1.1,0.9,1.1s0.9-0.4,0.9-1.1v-4c0-0.7-0.3-1.1-0.9-1.1S362.2,268.6,362.2,269.3z M368.9,267.4l-4.8,12.2
		h-0.8l4.8-12.2H368.9z M370.9,273.9v3.8c0,1.2-0.5,2-1.7,2s-1.7-0.8-1.7-2v-3.8c0-1.2,0.5-2,1.7-2S370.8,272.7,370.9,273.9
		L370.9,273.9z M368.2,273.8v4c0,0.7,0.3,1.1,0.9,1.1s0.9-0.5,0.9-1.1v-4c0-0.7-0.3-1.1-0.9-1.1S368.2,273.1,368.2,273.8
		L368.2,273.8z"/>
	<path class="st9" d="M332.6,203h27.3c1.6,0,2.9,1.3,2.9,2.9v12.2c0,1.6-1.3,2.9-2.9,2.9h-27.3c-1.6,0-2.9-1.3-2.9-2.9v-12.2
		C329.6,204.3,330.9,203,332.6,203z"/>
	<path class="st8" d="M342.9,209.6c0-0.7,0.6-1.3,1.3-1.3c0.7,0,1.3,0.6,1.3,1.3v2.8c0,0.7-0.6,1.3-1.3,1.3c-0.7,0-1.3-0.6-1.3-1.3
		V209.6z M343.8,212.4c0,0.4,0.1,0.5,0.4,0.5s0.4-0.2,0.4-0.5v-2.9c0-0.4-0.2-0.5-0.4-0.5s-0.4,0.1-0.4,0.5V212.4z M347.5,208.3h0.8
		l-3.3,8.4h-0.8L347.5,208.3z M347.1,212.7c0-0.7,0.6-1.3,1.3-1.3c0.7,0,1.3,0.6,1.3,1.3v2.8c0,0.7-0.6,1.3-1.3,1.3
		c-0.7,0-1.3-0.6-1.3-1.3V212.7z M347.9,215.5c0,0.4,0.1,0.5,0.4,0.5s0.4-0.1,0.4-0.5v-2.9c0-0.4-0.2-0.5-0.4-0.5s-0.4,0.1-0.4,0.5
		V215.5z"/>
</g>
<g id="freepik--charts-2--inject-17">
	<line class="st9" x1="101.3" y1="282.6" x2="232" y2="282.6"/>
	<line class="st9" x1="101.3" y1="265.9" x2="232" y2="265.9"/>
	<line class="st9" x1="101.3" y1="249.3" x2="232" y2="249.3"/>
	<line class="st9" x1="101.3" y1="232.7" x2="232" y2="232.7"/>
	<path class="st9" d="M106.6,203h27.3c1.6,0,2.9,1.3,2.9,2.9v12.2c0,1.6-1.3,2.9-2.9,2.9h-27.3c-1.6,0-2.9-1.3-2.9-2.9v-12.2
		C103.7,204.3,105,203,106.6,203z"/>
	<path class="st9" d="M146.6,203h27.3c1.6,0,2.9,1.3,2.9,2.9v12.2c0,1.6-1.3,2.9-2.9,2.9h-27.3c-1.6,0-2.9-1.3-2.9-2.9v-12.2
		C143.6,204.3,144.9,203,146.6,203z"/>
	<path class="st8" d="M111.4,206.7v-0.9h1.5v0.9c1.3,0.3,2,1.3,2,2.9v0.4h-1.7v-0.5c0-0.8-0.3-1.1-0.9-1.1s-0.9,0.3-0.9,1.1
		c0,2.4,3.6,2.5,3.6,5.9c0,1.6-0.7,2.6-2,2.9v0.9h-1.5v-0.9c-1.3-0.3-2-1.3-2-2.9v-0.8h1.7v0.9c0,0.8,0.4,1.1,0.9,1.1s1-0.3,1-1.1
		c0-2.4-3.6-2.5-3.6-5.9C109.5,207.9,110.2,206.9,111.4,206.7z"/>
	<path class="st8" d="M116,209.3c0-1.9,1-2.9,2.8-2.9s2.8,1.1,2.8,2.9v6.1c0,1.9-1,2.9-2.8,2.9s-2.8-1.1-2.8-2.9V209.3z
		 M117.8,215.5c0,0.8,0.4,1.1,1,1.1s1-0.3,1-1.1v-6.3c0-0.8-0.4-1.1-1-1.1s-1,0.3-1,1.1V215.5z"/>
	<path class="st8" d="M124.5,216.4v1.8h-1.8v-1.8H124.5z"/>
	<path class="st8" d="M125.7,209.3c0-1.9,1-2.9,2.8-2.9c1.4-0.1,2.7,0.9,2.8,2.4c0,0.2,0,0.4,0,0.6v6.1c0.2,1.4-0.8,2.7-2.2,2.9
		c-0.2,0-0.4,0-0.6,0c-1.8,0-2.8-1.1-2.8-2.9V209.3z M127.5,215.5c0,0.8,0.4,1.1,1,1.1c0.6,0,0.9-0.3,0.9-1.1v-6.3
		c0-0.8-0.4-1.1-0.9-1.1s-1,0.3-1,1.1V215.5z"/>
	<path class="st8" d="M148.7,209.3c0-1.9,1-2.9,2.8-2.9s2.8,1.1,2.8,2.9v6.1c0,1.9-1,2.9-2.8,2.9s-2.8-1.1-2.8-2.9V209.3z
		 M150.6,215.5c0,0.8,0.4,1.1,0.9,1.1s0.9-0.3,0.9-1.1v-6.3c0-0.8-0.4-1.1-0.9-1.1s-0.9,0.3-0.9,1.1V215.5z"/>
	<path class="st8" d="M157.2,216.4v1.8h-1.8v-1.8H157.2z"/>
	<path class="st8" d="M158.4,209.3c-0.2-1.4,0.8-2.7,2.2-2.9c0.2,0,0.4,0,0.6,0c1.8,0,2.8,1.1,2.8,2.9v6.1c0,1.9-1,2.9-2.8,2.9
		c-1.4,0.1-2.7-0.9-2.8-2.4c0-0.2,0-0.4,0-0.6V209.3z M160.3,215.5c0,0.8,0.4,1.1,0.9,1.1s1-0.3,1-1.1v-6.3c0-0.8-0.4-1.1-1-1.1
		s-0.9,0.3-0.9,1.1V215.5z"/>
	<path class="st8" d="M165.1,208.3c-0.1-1,0.7-1.8,1.6-1.9c1-0.1,1.8,0.7,1.9,1.6c0,0.1,0,0.2,0,0.3v3.8c0.1,1-0.7,1.8-1.6,1.9
		c-1,0.1-1.8-0.7-1.9-1.6c0-0.1,0-0.2,0-0.3V208.3z M166.2,212.2c0,0.5,0.2,0.7,0.6,0.7s0.6-0.2,0.6-0.7v-4c0-0.5-0.2-0.7-0.6-0.7
		s-0.6,0.2-0.6,0.7V212.2z M171.4,206.5h1.1l-4.6,11.7h-1.1L171.4,206.5z M170.8,212.6c-0.1-1,0.7-1.8,1.6-1.9
		c1-0.1,1.8,0.7,1.9,1.6c0,0.1,0,0.2,0,0.3v3.8c0.1,1-0.7,1.8-1.6,1.9c-1,0.1-1.8-0.7-1.9-1.6c0-0.1,0-0.2,0-0.3V212.6z M172,216.5
		c0,0.5,0.2,0.7,0.6,0.7s0.6-0.2,0.6-0.7v-4c0-0.5-0.2-0.7-0.6-0.7s-0.6,0.2-0.6,0.7V216.5z"/>
	<rect x="204.4" y="211.9" class="st7" width="22" height="70.7"/>
	<rect x="179.9" y="224.4" class="st3" width="22" height="58.2"/>
	<rect x="155.5" y="249.3" class="st7" width="22" height="33.3"/>
	<rect x="106.8" y="249.3" class="st7" width="22" height="33.3"/>
	<rect x="131.1" y="261.8" class="st3" width="22" height="20.8"/>
	<line class="st9" x1="133.2" y1="290.6" x2="150.8" y2="290.6"/>
	<line class="st9" x1="109.2" y1="290.6" x2="126.8" y2="290.6"/>
	<line class="st9" x1="157.9" y1="290.6" x2="175.4" y2="290.6"/>
	<line class="st9" x1="182.6" y1="290.6" x2="200.1" y2="290.6"/>
	<line class="st9" x1="205.6" y1="290.6" x2="223.2" y2="290.6"/>
</g>
<g id="freepik--charts-1--inject-17">
	<polyline class="st10" points="135.9,145.5 187.8,141.9 239.3,155.4 291.2,132.4 343.7,110.4 	"/>
	<circle class="st4" cx="239.3" cy="155.4" r="15.5"/>
	<path class="st8" d="M234.3,154.7c0.2-0.4,0.6-0.6,1.1-0.6c0.9,0,1.3,0.7,1.3,1.7v1.4c0,1.1-0.5,1.8-1.6,1.8s-1.6-0.7-1.6-1.8v-0.5
		h0.7v0.5c0,0.6,0.3,1,0.8,1s0.8-0.4,0.8-1v-1.4c0-0.6-0.3-1-0.8-1c-0.4,0-0.8,0.3-0.8,0.7c0,0,0,0,0,0v0.2h-0.7l0.2-3.9h2.8v0.7
		h-2.1L234.3,154.7z"/>
	<path class="st8" d="M237.4,153.6c0-1.1,0.5-1.8,1.6-1.8c0.9-0.1,1.6,0.6,1.6,1.5c0,0.1,0,0.2,0,0.3v3.6c0,1.1-0.5,1.8-1.6,1.8
		s-1.6-0.7-1.6-1.8V153.6z M238.2,157.3c0,0.6,0.3,1,0.8,1s0.8-0.4,0.8-1v-3.7c0-0.6-0.3-1-0.8-1s-0.8,0.4-0.8,1V157.3z"/>
	<path class="st8" d="M243.3,153v2.2c0,0.7-0.3,1.1-1,1.1s-1-0.5-1-1.1V153c0-0.7,0.3-1.1,1-1.1S243.3,152.3,243.3,153z M241.8,153
		v2.3c0,0.4,0.1,0.6,0.5,0.6s0.5-0.3,0.5-0.6V153c0-0.4-0.1-0.6-0.5-0.6S241.8,152.6,241.8,153z M245.7,151.9l-2.8,7.1h-0.5l2.8-7.1
		H245.7z M246.8,155.7v2.2c0,0.7-0.3,1.1-1,1.1s-1-0.4-1-1.1v-2.2c0-0.7,0.3-1.1,1-1.1S246.8,154.9,246.8,155.7L246.8,155.7z
		 M245.3,155.7v2.3c0,0.4,0.1,0.6,0.5,0.6s0.5-0.3,0.5-0.6v-2.3c0-0.4-0.1-0.6-0.5-0.6S245.3,155.2,245.3,155.7L245.3,155.7z"/>
	<circle class="st4" cx="135.9" cy="145.5" r="17.2"/>
	<path class="st8" d="M132,142.4h-2.7v-0.8h3.6v0.8l-2,7.1H130L132,142.4z"/>
	<path class="st8" d="M133.7,143.5c0-1.2,0.6-2,1.8-2s1.8,0.8,1.8,2v4c0,1.2-0.6,2-1.8,2s-1.8-0.8-1.8-2V143.5z M134.6,147.6
		c0,0.7,0.3,1.1,0.9,1.1s0.9-0.4,0.9-1.1v-4.1c0-0.7-0.3-1.1-0.9-1.1s-0.9,0.4-0.9,1.1V147.6z"/>
	<path class="st8" d="M140.3,142.8v2.5c0,0.8-0.4,1.3-1.1,1.3s-1.1-0.5-1.1-1.3v-2.5c0-0.8,0.4-1.3,1.1-1.3S140.3,142.1,140.3,142.8
		z M138.6,142.8v2.6c0,0.4,0.2,0.7,0.6,0.7s0.6-0.3,0.6-0.7v-2.6c0-0.4-0.2-0.7-0.6-0.7S138.6,142.4,138.6,142.8L138.6,142.8z
		 M142.9,141.6l-3.1,7.9h-0.5l3.1-7.9H142.9z M144.2,145.8v2.5c0,0.8-0.4,1.3-1.1,1.3s-1.1-0.5-1.1-1.3v-2.5c0-0.8,0.4-1.3,1.1-1.3
		S144.2,145,144.2,145.8L144.2,145.8z M142.5,145.8v2.6c0,0.4,0.2,0.7,0.6,0.7s0.6-0.3,0.6-0.7v-2.6c0-0.4-0.2-0.7-0.6-0.7
		S142.5,145.3,142.5,145.8L142.5,145.8z"/>
	<circle class="st5" cx="291.2" cy="132.4" r="20.3"/>
	<path class="st8" d="M287.8,130v4.7c0,1.5-0.7,2.4-2.1,2.4s-2.1-0.9-2.1-2.3v-0.2h1v0.2c0,0.8,0.4,1.3,1.1,1.3s1.1-0.5,1.1-1.5
		v-2.1c-0.2,0.6-0.8,1-1.5,1c-1.2,0-1.7-0.8-1.7-2.2V130c0-1.4,0.7-2.3,2.1-2.3S287.8,128.6,287.8,130z M284.6,129.9v1.4
		c0,0.8,0.4,1.3,1.1,1.3s1.1-0.5,1.1-1.3V130c0-0.9-0.3-1.3-1.1-1.3S284.6,129.1,284.6,129.9L284.6,129.9z"/>
	<path class="st8" d="M288.7,130c0-1.4,0.7-2.3,2.1-2.3s2.1,0.9,2.1,2.3v4.8c0,1.4-0.7,2.3-2.1,2.3s-2.1-0.9-2.1-2.3V130z
		 M289.7,134.8c0,0.8,0.4,1.3,1.1,1.3s1.1-0.5,1.1-1.3V130c0-0.9-0.4-1.4-1.1-1.4s-1.1,0.5-1.1,1.4V134.8z"/>
	<path class="st8" d="M296.5,129.2v2.9c0,0.9-0.4,1.5-1.3,1.5s-1.3-0.6-1.3-1.5v-2.9c0-0.9,0.4-1.5,1.3-1.5S296.5,128.3,296.5,129.2
		z M294.5,129.2v3c0,0.5,0.2,0.8,0.7,0.8s0.7-0.3,0.7-0.8v-3c0-0.5-0.2-0.9-0.7-0.9S294.5,128.7,294.5,129.2L294.5,129.2z
		 M299.5,127.8l-3.6,9.3h-0.6l3.6-9.3L299.5,127.8z M301,132.7v2.9c0,0.9-0.4,1.5-1.3,1.5s-1.3-0.6-1.3-1.5v-2.9
		c0-0.9,0.4-1.5,1.3-1.5S301.1,131.8,301,132.7L301,132.7z M299,132.7v3c0,0.5,0.2,0.8,0.7,0.8s0.7-0.3,0.7-0.8v-3
		c0-0.5-0.2-0.8-0.7-0.8S299.1,132.1,299,132.7L299,132.7z"/>
	<circle class="st5" cx="187.8" cy="141.9" r="20.8"/>
	<path class="st8" d="M179.2,138.3c-0.4,0.2-0.9,0.4-1.3,0.4v-0.9c0.8,0,1.5-0.5,1.6-1.3h0.7v9.5h-1L179.2,138.3z"/>
	<path class="st8" d="M181.8,138.9c0-1.4,0.7-2.4,2.2-2.4s2.2,0.9,2.2,2.4v4.9c0,1.4-0.7,2.4-2.2,2.4s-2.2-1-2.2-2.4V138.9z
		 M182.8,143.9c0,0.9,0.4,1.4,1.1,1.4s1.1-0.5,1.1-1.4v-5c0-0.9-0.4-1.4-1.1-1.4s-1.1,0.5-1.1,1.4V143.9z"/>
	<path class="st8" d="M187,138.9c0-1.4,0.7-2.4,2.2-2.4s2.2,0.9,2.2,2.4v4.9c0,1.4-0.7,2.4-2.2,2.4s-2.2-1-2.2-2.4V138.9z
		 M188.1,143.9c0,0.9,0.4,1.4,1.1,1.4s1.1-0.5,1.1-1.4v-5c0-0.9-0.4-1.4-1.1-1.4s-1.1,0.5-1.1,1.4V143.9z"/>
	<path class="st8" d="M195.1,138.1v3c0,0.9-0.4,1.5-1.4,1.5s-1.4-0.6-1.4-1.5v-3c0-0.9,0.4-1.5,1.4-1.5S195.1,137.1,195.1,138.1z
		 M193.1,138v3.1c0,0.5,0.2,0.9,0.7,0.9s0.7-0.3,0.7-0.9V138c0-0.5-0.2-0.9-0.7-0.9S193,137.5,193.1,138L193.1,138z M198.3,136.6
		l-3.8,9.5h-0.6l3.8-9.5H198.3z M199.8,141.6v3c0,0.9-0.4,1.5-1.4,1.5s-1.4-0.6-1.4-1.5v-3c0-0.9,0.4-1.5,1.4-1.5
		S199.7,140.7,199.8,141.6L199.8,141.6z M197.8,141.6v3.1c0,0.5,0.2,0.9,0.7,0.9s0.7-0.4,0.7-0.9v-3.1c0-0.5-0.2-0.9-0.7-0.9
		S197.7,141,197.8,141.6L197.8,141.6z"/>
	
		<ellipse transform="matrix(0.7071 -0.7071 0.7071 0.7071 21.0654 275.1895)" class="st4" cx="342.7" cy="112.2" rx="25.6" ry="25.6"/>
	<path class="st8" d="M332.1,107.8c-0.5,0.3-1,0.5-1.6,0.5v-1.1c1,0,1.8-0.6,2-1.6h0.9v11.7h-1.3V107.8z"/>
	<path class="st8" d="M340.6,108.5c0,3.5-4,4.8-4,7.5v0.2h3.8v1.2h-5.1v-1c0-3.8,4-4.5,4-7.8c0-1.2-0.4-1.8-1.4-1.8
		s-1.4,0.7-1.4,1.7v1h-1.2v-0.9c0-1.8,0.8-3,2.6-3S340.6,106.7,340.6,108.5z"/>
	<path class="st8" d="M341.7,108.5c0-1.8,0.9-2.9,2.7-2.9s2.7,1.2,2.7,2.9v6c0,1.8-0.9,3-2.7,3s-2.7-1.2-2.7-3V108.5z M343,114.6
		c0,1.1,0.5,1.7,1.4,1.7s1.4-0.6,1.4-1.7v-6.2c0-1.1-0.4-1.7-1.4-1.7s-1.4,0.6-1.4,1.7V114.6z"/>
	<path class="st8" d="M351.6,107.5v3.7c0,1.1-0.5,1.9-1.7,1.9s-1.7-0.8-1.7-1.9v-3.7c0-1.1,0.5-1.9,1.7-1.9S351.6,106.4,351.6,107.5
		z M349.1,107.5v3.8c0,0.6,0.2,1,0.8,1s0.8-0.4,0.8-1v-3.8c0-0.6-0.3-1.1-0.8-1.1S349.1,106.8,349.1,107.5L349.1,107.5z
		 M355.4,105.7l-4.6,11.7H350l4.6-11.7H355.4z M357.3,111.9v3.7c0,1.1-0.5,1.9-1.7,1.9s-1.7-0.8-1.7-1.9v-3.7c0-1.1,0.5-1.9,1.7-1.9
		S357.3,110.7,357.3,111.9L357.3,111.9z M354.8,111.9v3.8c0,0.6,0.3,1.1,0.8,1.1s0.8-0.4,0.8-1.1v-3.8c0-0.6-0.3-1-0.8-1
		s-0.8,0.3-0.8,0.9V111.9z"/>
	<line class="st6" x1="122" y1="169" x2="148.2" y2="169"/>
	<line class="st6" x1="138.1" y1="172.5" x2="148.2" y2="172.5"/>
	<line class="st6" x1="122" y1="172.5" x2="134.9" y2="172.5"/>
	<line class="st6" x1="122" y1="176.1" x2="148.2" y2="176.1"/>
	<line class="st6" x1="130.7" y1="179.6" x2="148.2" y2="179.6"/>
	<line class="st6" x1="122" y1="179.6" x2="127.8" y2="179.6"/>
	<line class="st6" x1="175.7" y1="169" x2="201.9" y2="169"/>
	<line class="st6" x1="191.9" y1="172.5" x2="201.9" y2="172.5"/>
	<line class="st6" x1="175.7" y1="172.5" x2="188.6" y2="172.5"/>
	<line class="st6" x1="175.7" y1="176.1" x2="201.9" y2="176.1"/>
	<line class="st6" x1="184.4" y1="179.6" x2="201.9" y2="179.6"/>
	<line class="st6" x1="175.7" y1="179.6" x2="181.5" y2="179.6"/>
	<line class="st6" x1="225.2" y1="177.7" x2="251.4" y2="177.7"/>
	<line class="st6" x1="241.4" y1="181.3" x2="251.4" y2="181.3"/>
	<line class="st6" x1="225.2" y1="181.3" x2="238.2" y2="181.3"/>
	<line class="st6" x1="225.2" y1="184.8" x2="251.4" y2="184.8"/>
	<line class="st6" x1="233.9" y1="188.4" x2="251.4" y2="188.4"/>
	<line class="st6" x1="225.2" y1="188.4" x2="231" y2="188.4"/>
	<line class="st6" x1="279.3" y1="157.6" x2="305.5" y2="157.6"/>
	<line class="st6" x1="295.4" y1="161.2" x2="305.5" y2="161.2"/>
	<line class="st6" x1="279.3" y1="161.2" x2="292.2" y2="161.2"/>
	<line class="st6" x1="279.3" y1="164.8" x2="305.5" y2="164.8"/>
	<line class="st6" x1="288" y1="168.3" x2="305.5" y2="168.3"/>
	<line class="st6" x1="279.3" y1="168.3" x2="285.1" y2="168.3"/>
	<line class="st6" x1="329.8" y1="143.1" x2="356" y2="143.1"/>
	<line class="st6" x1="345.9" y1="146.6" x2="356" y2="146.6"/>
	<line class="st6" x1="329.8" y1="146.6" x2="342.7" y2="146.6"/>
	<line class="st6" x1="329.8" y1="150.2" x2="356" y2="150.2"/>
	<line class="st6" x1="338.5" y1="153.8" x2="356" y2="153.8"/>
	<line class="st6" x1="329.8" y1="153.8" x2="335.6" y2="153.8"/>
	<line class="st6" x1="108.6" y1="106.2" x2="183.1" y2="106.2"/>
	<line class="st6" x1="154.6" y1="109.8" x2="183.1" y2="109.8"/>
	<line class="st6" x1="108.6" y1="109.8" x2="145.4" y2="109.8"/>
	<line class="st6" x1="137.8" y1="113.3" x2="183.1" y2="113.3"/>
	<line class="st6" x1="108.6" y1="113.3" x2="131.6" y2="113.3"/>
</g>
<g id="freepik--information-tags--inject-17">
	<rect x="42.4" y="81.5" class="st8" width="47.1" height="297.2"/>
	<rect x="70.4" y="155.9" class="st0" width="7.3" height="20.2"/>
	<rect x="62.4" y="161.6" class="st0" width="7.3" height="14.4"/>
	<rect x="54.3" y="169.9" class="st0" width="7.3" height="6.2"/>
	<polygon class="st0" points="68.2,150.8 70.1,152.1 67.9,155.6 63.5,153.1 58.3,163.2 54.3,160.4 54.2,160.4 54.2,163.9 
		54.8,163.2 59,166.1 64.3,155.9 68.6,158.3 71.8,153.1 73.8,154.3 74,147.7 	"/>
	<circle class="st5" cx="65.7" cy="102.3" r="15.6"/>
	<path class="st7" d="M53,111.3c5,7,14.7,8.7,21.8,3.7c1.8-1.3,3.3-2.9,4.4-4.7c-3.9-7.1-12.8-9.6-19.9-5.7
		C56.5,106.1,54.3,108.5,53,111.3z"/>
	<circle class="st7" cx="65.7" cy="95.3" r="5.7"/>
	<line class="st11" x1="50.5" y1="135.8" x2="83.5" y2="135.8"/>
	<line class="st11" x1="50.5" y1="190.4" x2="83.5" y2="190.4"/>
	<line class="st11" x1="50.5" y1="245.1" x2="83.5" y2="245.1"/>
	<line class="st11" x1="50.5" y1="299.8" x2="83.5" y2="299.8"/>
	<polygon class="st12" points="69.5,206.2 55,206.2 55,232.6 76.2,232.6 76.2,212.8 	"/>
	<line class="st6" x1="58.9" y1="215.9" x2="72.1" y2="215.9"/>
	<line class="st6" x1="58.9" y1="221.8" x2="72.1" y2="221.8"/>
	<line class="st6" x1="58.9" y1="227.6" x2="72.1" y2="227.6"/>
	<polyline class="st6" points="69.3,207.1 69.3,213.1 75.1,213.1 	"/>
	<circle class="st12" cx="66" cy="274.3" r="11.4"/>
	<polyline class="st6" points="66,267.3 66,274.3 73.6,274.3 	"/>
	<rect x="54.6" y="316.4" class="st12" width="21.6" height="23.1"/>
	<path class="st8" d="M59,327.5h-3.1v-3.1H59V327.5z M64.2,324.4h-3.1v3.1h3.1L64.2,324.4z M69.4,324.4h-3.1v3.1h3.1L69.4,324.4z
		 M74.6,324.4h-3.1v3.1h3.1V324.4z M59,329.5h-3.1v3.1H59V329.5z M64.2,329.5h-3.1v3.1h3.1L64.2,329.5z M69.4,329.5h-3.1v3.1h3.1
		L69.4,329.5z M74.6,329.5h-3.1v3.1h3.1V329.5z M59,334.6h-3.1v3.1H59V334.6z M64.2,334.6h-3.1v3.1h3.1L64.2,334.6z M69.4,334.6
		h-3.1v3.1h3.1L69.4,334.6z M74.6,334.6h-3.1v3.1h3.1V334.6z"/>
</g>
<g id="freepik--Character--inject-17">
	<path class="st13" d="M478.2,467.2c-2.1-0.6-13-7.3-13-7.3c0.2-1.3,0.2-2.6,0-4c-0.3-0.9-3-3-3-3s-2.4-22.2-2.4-32.8
		c-0.2-8.9-1-17.7-2.4-26.4c-0.3-1.2-8.5-85.9-8.5-85.9l-2.7-21.6l-27,1.3l-27-1.3l-2.7,21.6c0,0-8.2,84.7-8.5,85.9
		c-1.4,8.7-2.2,17.6-2.4,26.4c0,10.6-2.4,32.8-2.4,32.8s-2.7,2.1-3,3c-0.2,1.3-0.2,2.6,0,4c0,0-10.9,6.7-13.1,7.3s-1.2,2.4,1.2,3.6
		s7.9,1.8,10.3,1.8s6.1-4.3,7-4.9s0.6,3,0.6,3c1.1,0,2.3-0.2,3.3-0.6c1.2-0.6,3.3,0.6,3.6-3s0.3-7.3,0.3-7.3c1.1-1.1,2.1-2.5,2.7-4
		c0.6-1.8,1.8-7,1.8-7l19.1-77.1l8.9-42.2l9.1,42.2l19.1,77.1c0,0,1.2,5.2,1.8,7c0.7,1.5,1.6,2.8,2.7,4c0,0,0,3.6,0.3,7.3
		s2.4,2.4,3.6,3c1.1,0.4,2.2,0.6,3.3,0.6c0,0-0.3-3.6,0.6-3s4.6,4.9,7,4.9s7.9-0.6,10.3-1.8S480.4,467.8,478.2,467.2z"/>
	<path class="st14" d="M378.9,217.9c0,0-16.7,58-17.4,59.4s3.6,0.7,7.7,1.5s9.9-2.4,10.6-3.6s6.8-20,6.8-20L378.9,217.9z"/>
	<line class="st15" x1="379.6" y1="236.7" x2="378.9" y2="235"/>
	<line class="st15" x1="385.1" y1="249.9" x2="380.4" y2="238.6"/>
	<path class="st14" d="M379.2,267.5l1.3,1"/>
	<path class="st14" d="M366.9,264.9c1.8-0.7,3.6-1.2,5.5-1.6c0.6,0,3.1,1.7,5.3,3.2"/>
	<path class="st14" d="M456.2,214.5c0,0,19.1,51,19.6,52.9s1,3.1,0.7,5.3s-3.6,3.6-4.4,3.6s-6-3.4-8.2-4.3s-8.7-4.1-8.7-4.1
		l-3.4-10.9L456.2,214.5z"/>
	<line class="st15" x1="457.2" y1="231.1" x2="457.5" y2="229.8"/>
	<line class="st15" x1="452.7" y1="249" x2="456.7" y2="233.1"/>
	<line class="st15" x1="464.4" y1="258.1" x2="456.6" y2="263"/>
	<path class="st14" d="M406.2,203.4l-27.3,14.5l11.8,62.8c0,0-1,5.8-0.2,7c0.5,0.8,1.2,1.4,1.9,1.9h53.4c0,0,3.6-3.4,3.6-4.1v-3.1
		l6.8-67.9l-27-10.8L406.2,203.4z"/>
	<polygon class="st13" points="412.3,206.3 415.9,216.4 411,277.9 418.6,289.9 425.1,276.8 418.4,216.4 422.6,207.3 416.5,200.6 	
		"/>
	<polygon class="st14" points="405.7,198.1 405.1,204.8 410.8,214.1 415,203.9 	"/>
	<polygon class="st14" points="418.8,204.2 422.2,214.9 429.1,203.7 426,197.2 	"/>
	<path class="st16" d="M399,175.3c0,0-3.4-2.9-3.8,1.9s5.1,7.4,5.1,7.4L399,175.3z"/>
	<path class="st16" d="M430,172.4c0,0,2.1-3.2,3.6-0.6s0.2,6.3-0.8,8.6s-2.5,2.5-2.5,2.5L430,172.4z"/>
	<path class="st16" d="M398.2,167.9c0,0,2.1,16,3,21.1c0.8,3.9,2.8,7.4,5.9,9.9c1.9,1.7,5.5,4.8,8.8,4.8s6.8-1.9,7.6-3
		s6.3-9.5,6.7-11.8s0-9.9,0-11.6s-0.4-9.7-0.4-9.7s0-5.9-2.1-9.7s-9.1-4-19-2.1s-11,3.8-11,5.7S398.2,167.9,398.2,167.9z"/>
	<path class="st14" d="M417.1,179.1c0,0,3.8,0.6,6.3-0.9"/>
	<path class="st14" d="M403,180.4c0,0,3.1,0.8,5.3-0.4"/>
	<path class="st17" d="M415.4,174.7c2.3-1.5,5.1-1.9,7.8-1.3"/>
	<path class="st17" d="M408.7,175.9c0,0-3.8-1.5-6.5-0.4"/>
	<path class="st13" d="M424.7,160.6c0,0-3.8,7.2-10.3,10.7s-16.2,3.2-20.4,0.4s-6.1-6.7-4.9-6.9s4-0.4,4-0.4s-0.8-4,0.2-5.9
		s2.5-1.5,2.5-1.5s5.5-8.2,13.7-9.3c5.5-0.6,11,0.3,16,2.7c2.1,0.8,3.6,4,3.6,4c1.3,1.2,2.2,2.9,2.5,4.6c0.2,2.5-1.7,10.5-1.7,10.5
		s0.2,16.2,0.2,19.4s-5.5,11.8-9.7,13.9c-2.7,1.6-6.1,1.6-8.9,0c-1.7-0.8-8.4-7.6-10.1-10.1s-1.7-12.4-1.7-12.4s2.5,9.3,3.2,10.3
		s1.3-1.5,2.3-2.3s4.9-0.4,6.5-0.2s3,0.4,3.8,0s5.1-2.7,7-2.7c1.7,0.1,3.3,0.5,4.8,1.1c0,0,0-7.6,0.4-11.2s0.2-7-0.4-7.8
		c-0.9-1-1.7-2.1-2.1-3.4C425,163,424.7,161.8,424.7,160.6z"/>
	<path class="st18" d="M410.4,178.7c0,0,0.8,8.2,1.5,9.5c0.4,0.7,1.1,1.2,1.9,1.3l2.7-2.7"/>
	<path class="st19" d="M412.3,193.4c2.1,0.6,4.4,0.4,6.3-0.6"/>
	<polygon class="st14" points="436.1,275.4 435.1,267.9 441.7,269.1 	"/>
	<path class="st16" d="M418.2,252.7c-2-0.3-4-0.7-6-1.2c-2.2-0.7-3.6,0.3-1.9,2.4c1.7,2.2,7.7,3.1,8.4,3.1c0,0,1.2,6.3,4.6,7.5
		c1.7,0.7,3.5,1.1,5.3,1.2c0,0,1.7,2.4,3.9,2.6s7.3,3.9,7.3,3.9l2.4-5.6l-5.3-4.4l-5.3-9.2l-5.1-1.7l-4.3-1.4L418.2,252.7z"/>
	<path class="st16" d="M431.8,259.2l-2.2,2.2c0.1,0.6,0.2,1.3,0.2,1.9c0,1-1.7,1-2.9,1c-1.3,0-2.5-0.3-3.6-1c-1-0.7-4.8-4.1-4.8-4.1
		l4.1-7.2l-3.6,2.4c-0.9,1.6-1.9,3.2-3.1,4.6c-1.5,1.5-1.9-0.2-1.9-0.2s1.4-4.6,2.4-5.8c1.4-1.4,2.8-2.8,4.4-4.1
		c1-0.1,1.9-0.1,2.9,0c1.7,0.2,5.1,2.2,6.5,3.1c1.3,1,2.3,2.3,2.9,3.9c0.1,0.6,0.2,1.1,0.2,1.7"/>
	<path class="st15" d="M425.5,264c-0.4-0.9-0.5-1.9-0.2-2.9c1.1-2,2.3-3.9,3.6-5.8"/>
	<path class="st15" d="M423.3,263.3c0,0-0.4-0.4-0.8-1s-0.1-1.7-0.1-2.5c0-1.5,3.5-7.3,3.5-7.3"/>
	<path class="st14" d="M470.9,262.1c0,0,6,9.2,5.8,11.6s-1.7,7.7-3.9,7.7c-6.2-0.5-12.4-1.3-18.6-2.4c-6.8-1.2-11.4-1.7-11.4-1.7
		l-6.8-1.9l4.6-11.1l4.4,0.9c2.1-0.5,4.2-0.9,6.4-1.1c3.1-0.2,13.6-2.8,13.6-2.8"/>
	<path class="st15" d="M445.1,266.3c0.1,2.7-0.6,5.4-1.9,7.7"/>
	<path class="st14" d="M364.6,269.6c0,0-4.1,9.9-4.4,10.6s0.7,5.3,4.6,4.4s24.4-3.1,27-3.6l6.8-1.2h5.4c2.4,0,9.2,0,10.6-0.5
		l5.8-1.9c1.5-0.5,4.6-2.4,4.8-3.1s-0.7-1.5-3.1-1.2s-9.9,0.5-9.9,0.5s6.8-2.6,8.9-3.6s1.5-1.9,1.5-1.9c-1.4,0-2.8,0.3-4.1,0.7
		c-1.7,0.7-18.4,2.9-18.4,2.9l-1.9-1.7c0.6-1.4,0.9-2.9,1-4.4c0-1.9-1-3.4-2.2-2.9s-1.7,3.4-1.9,4.3s-1.4,4.8-1.4,4.8l-0.5,2.2
		c0,0-9.9-1.9-12.8-3.1s-8.9-2.9-9.9-2.7s-2.9,2.9-3.4,4.1"/>
	<path class="st15" d="M386.2,273c0,0-1.6,3.5,0.3,5.8"/>
	<path class="st20" d="M389.6,260.3l7.4,14.9c0.3,0.5,0.8,0.9,1.4,0.9l26.8,0.3c0.9,0,1.6-0.7,1.6-1.6c0-0.2,0-0.4-0.1-0.6
		l-5.9-15.2c-0.3-0.6-0.8-1-1.5-1h-28.3c-0.9,0-1.6,0.7-1.6,1.6C389.5,259.9,389.5,260.1,389.6,260.3z"/>
	<path class="st16" d="M422.1,273c-2.4,0.2-9.9,0.5-9.9,0.5s6.8-2.6,8.9-3.6s1.5-1.9,1.5-1.9c-1.4,0-2.8,0.3-4.1,0.7
		c-1.7,0.7-18.4,2.9-18.4,2.9l-1.9-1.7c0.6-1.4,0.9-2.9,1-4.4c0-1.9-1-3.4-2.2-2.9s-1.7,3.4-1.9,4.3s-1.4,4.8-1.4,4.8l-0.5,2.2
		l-2.5-0.5c-0.5,1.7-0.4,3.5,0.1,5.1c0.3,0.8,0.6,1.7,0.9,2.5l0.3,0l6.8-1.2h5.3c2.4,0,9.2,0,10.6-0.5l5.8-1.9
		c1.5-0.5,4.6-2.4,4.8-3.1S424.5,272.7,422.1,273z"/>
	<path class="st15" d="M424.3,274.6c0,0-5,2.4-5.7,2.4s-9.3,1-9.3,1"/>
</g>
</svg>
