<svg xmlns="http://www.w3.org/2000/svg" width="24" height="24" viewBox="0 0 24 24" class="css-1eyev6g"><path d="M12,4c-4.879,0-9,4.121-9,9s4.121,9,9,9s9-4.121,9-9S16.879,4,12,4z M12,20c-3.794,0-7-3.206-7-7s3.206-7,7-7s7,3.206,7,7 S15.794,20,12,20z" fill="#f4d133"></path><path transform="rotate(-135.093 19.494 4.5)" d="M17.37 3.5H21.62V5.5H17.37z" fill="#f4d133"></path><path transform="rotate(134.918 4.495 4.5)" d="M2.378 3.5H6.613V5.5H2.378z" fill="#f4d133"></path><path d="M14.832,10.555c0.204-0.307,0.224-0.701,0.05-1.026S14.369,9,14,9H9v2h3.132l-2.964,4.445 c-0.204,0.307-0.224,0.701-0.05,1.026S9.631,17,10,17h5v-2h-3.132L14.832,10.555z" fill="#f4d133"></path></svg>