<?xml version="1.0" encoding="utf-8"?>
<!-- Generator: Adobe Illustrator 23.0.2, SVG Export Plug-In . SVG Version: 6.00 Build 0)  -->
<svg version="1.1" id="Layer_1" xmlns="http://www.w3.org/2000/svg" xmlns:xlink="http://www.w3.org/1999/xlink" x="0px" y="0px"
	 viewBox="0 0 800 550" style="enable-background:new 0 0 800 550;" xml:space="preserve">
<style type="text/css">
	.st0{fill:#F4F4EF;stroke:#FFFFFF;stroke-width:1.0176;stroke-linecap:round;stroke-linejoin:round;stroke-miterlimit:10;}
	.st1{fill:#365068;}
	.st2{fill:#FFFFFF;}
	.st3{fill:#365068;stroke:#FFFFFF;stroke-width:1.0176;stroke-linecap:round;stroke-linejoin:round;stroke-miterlimit:10;}
	.st4{fill:#0F997F;}
	.st5{fill:#1A2E44;}
	.st6{fill:#E5E5E5;}
	.st7{clip-path:url(#SVGID_2_);}
	.st8{clip-path:url(#SVGID_4_);}
	.st9{fill:#52B4A1;}
	.st10{fill:#0F987E;}
	.st11{fill:none;stroke:#365068;stroke-width:1.1079;stroke-linecap:round;stroke-linejoin:round;stroke-dasharray:3.3238,3.3238;}
	.st12{fill:#FEBD64;}
	.st13{fill:#F27575;}
	.st14{fill:#DADDDF;}
</style>
<g id="Слой_2">
</g>
<g id="Слой_1">
	<path class="st0" d="M382.3,15.1c150.6,0,337.4,130,337.4,275.1S575.4,540.8,425,540.8c-150.6,0-272.6-117.7-272.6-262.8
		S231.7,15.1,382.3,15.1z"/>
	<path class="st1" d="M614.1,413.5c0,4.8-119,8.8-265.3,8.8c-70,0-161.2,1.5-208.6,0c-52-1.5-56.7-6.3-56.7-8.8
		c0-4.8,227.2-8,373.8-8S614.1,408.5,614.1,413.5z"/>
	<g>
		<g>
			<path class="st2" d="M80.9,171.2c0.5-34.9-15.8-41.2,35.4-48.5c51.2-7.3,445.1,5.8,445.1,5.8s-8,204.1-3.3,258.3
				c1.5,18.1-16.8,29.4-68.5,22.6c-45.4-5.8-171.7,13.1-258.6,6.8c-86.9-6.3-110.7,4.3-127-10.5c-16.3-14.8-20.6-41.7-18.8-79.6
				C87.1,288,80.9,180.3,80.9,171.2z"/>
			<path class="st3" d="M80.9,171.2c0.5-34.9-15.8-41.2,35.4-48.5c51.2-7.3,64.3,5.8,64.3,5.8S181,360.8,186,415
				c-30.1-3-67.3,1.5-82.1-9.3c-17.8-13.1-20.6-41.7-18.8-79.6C87.1,288,80.9,180.3,80.9,171.2z"/>
			<path class="st4" d="M85.1,106.2c6.8-13.1,29.4-13.3,67-14.3c37.7-1,310.3-6,384.3,3.3c0,0,19.6,5,21.8,16.6
				c2.3,11.5,2.5,22.8,2.5,22.8s-75.8-5.3-128.5-6.8s-127.3,1-159.7,2.8c-32.4,1.8-185.5,3.5-190,3.8
				C78.1,134.6,85.1,106.2,85.1,106.2z"/>
			<path class="st1" d="M558.8,328.1c0.8-26.9,1-96.1,2-123c1-25.6,4.3-45.9,2.8-71.3c-0.8-15.1-1.5-34.1-20.6-39.9
				c-9.3-2.8-19.6-3-29.4-3.8c-14.6-1-53.7-2-68.5-2.8c-29.9-1.5-59.5-2.5-89.1-3c-58.2-1-140.8,0.3-199.1,1.8
				c-15.6,0.3-38.2-3-53.2,1.5c-13.1,3.8-22.1,12-26.1,23.3c-2,5.5-3.5,163.7,1.5,216.6c1,11.5,1.3,20.3,1,31.9
				c-0.3,10.5-0.3,21.8,4,31.9c5.8,13.8,19.3,21.6,34.9,24.6c16.6,3.5,39.7,5.3,56.5,4.3c22.6-1.5,69.3,1,91.9,0.5
				c29.6-1,59,0.5,88.1-1.3c29.6-1.8,59.2-2.3,88.6-3c13.1-0.3,25.9-0.8,38.9,0.3c10.3,0.8,45.4-0.5,55.7-2
				c17.6-2.8,21.6-21.8,21.8-35.4c0-7.8-0.8-15.6-1.5-23.6C558.1,346.7,558.6,337.4,558.8,328.1z M555.3,381.8
				c-0.3,6.3-0.8,14.1-5.3,19.6c-5.5,6.3-20.1,6.3-28.1,6.5c-27.6,0.3-101.9-0.8-135.6,1c-28.4,1.5-56.7,1-85.4,2.3
				c-26.9,1-78.1-1.5-104.9-0.5c-15.8,0.8-31.6-0.5-47.2-0.8c-15.1-0.3-32.6-2.3-44.4-11.8c-16.3-13.1-13.8-34.6-13.6-52.2
				c0.3-11-1-14.3-1.8-25.6c-1-12.8-2-67.8-2.8-80.6c-1.5-25.4-1.5-103.9-1.5-105.2c0.3-12.6,2-27.6,14.3-35.1
				c11.3-6.8,26.9-7,40.2-7.3c52.2-1.8,129.3-2.8,181.8-2.5c56.7,0.3,137.8,2,194.3,6.3c8.8,0.8,18.3,1,26.4,4
				c6.5,2.5,10.8,7,12.8,13.3c3.8,10.5,3.5,22.3,3.5,32.9c0,12.3-0.8,24.6-1.5,36.9c-1.8,25.1-2.3,44.9-2.8,70
				C553.8,266.1,553.3,353.5,555.3,381.8z"/>
			<path class="st1" d="M559.6,128.5c-12,2.3-23.8,0.5-35.9-1c-13.8-1.5-51.7-1.3-65.8-1.3c-28.9,0-57.7-0.5-86.6-0.3
				c-28.6,0-57.2,0-85.9,1.3c-28.4,1.3-81.3,2.3-109.7,3c-15.8,0.5-32.1,1-48.2,1.3c-7.5,0-14.8,0-22.6-0.3
				c-6.5-0.3-13.6-0.8-20.1,1.3c-2.8,0.8-4.3,6.5-0.8,5.5c6-1.8,12.6-1.5,18.8-1.3c6.5,0.3,13.6,0.3,20.1,0.3
				c14.1,0,28.1-0.5,42.2-1c28.6-1,81.6-1.8,110.2-3c57.2-2.5,114.7-1.8,171.7-1.3c15.6,0,56-0.8,71.5,1c13.3,1.5,26.1,3.5,39.7,1.3
				C561.8,133.8,563.3,128,559.6,128.5z"/>
			<path class="st1" d="M117.8,104.9c0-0.3-0.3-0.3-0.5-0.5c-0.3-0.3-0.8-0.8-1-0.8c-0.8-0.5-2.8-0.8-3.3-0.8
				c-1.8-0.3-3.3,0.5-4.8,1.3c-1.8,1-2.8,3-3.5,4.8c-0.3,0.8-0.5,1.5-0.8,2.3c0,0.8-0.3,1.3,0,2c0,0.8,0.3,1,0.5,1.8
				c0.3,0.5,0.5,1,0.8,1.3c0.8,0.8,1.8,1.3,2.8,1.5c0.8,0.3,2,0.3,2.8,0C117.5,117,121.3,110,117.8,104.9z"/>
			<path class="st1" d="M143.1,104.4c-0.3-0.3-0.3-0.3-0.5-0.5c-0.3-0.3-0.8-0.5-1-0.8c-0.8-0.3-3-0.3-3.3-0.3c-1.8,0-3.3,0.8-4.5,2
				c-1.5,1.3-2.5,3.3-2.8,5.3c-0.3,0.8-0.3,1.5-0.3,2.3s0,1.3,0.3,2s0.5,1,0.8,1.8c0.3,0.5,0.8,0.8,1,1.3c0.8,0.8,1.8,1,3,1
				c0.8,0,2-0.3,2.5-0.5C144.1,116.7,147.4,109.2,143.1,104.4z"/>
			<path class="st1" d="M168.5,104.2c-0.3-0.3-0.3-0.3-0.5-0.3c-0.5-0.3-0.8-0.5-1-0.5c-0.8-0.3-3,0.3-3.3,0.3
				c-1.8,0.3-3,1.3-4.3,2.5c-1.3,1.5-2,3.8-2.3,5.5c0,0.8,0,1.8,0,2.3c0,0.8,0.3,1.3,0.5,2c0.3,0.5,0.5,1,0.8,1.5
				c0.3,0.5,0.8,0.8,1.3,1c1,0.8,2,0.8,3.3,0.8c0.8,0,1.8-0.5,2.5-0.8C171,116,173,108.2,168.5,104.2z"/>
		</g>
		<g>
			<g>
				<path class="st5" d="M206.7,344.7c-1.3,7.5,2,15.1,7,19.1c5,4,11.5,5.3,18.1,5.3c3.8,0,7.5-0.5,11-2c3.5-1.8,6.8-4.8,8.5-8.8
					c2.8-6.5,0.5-14.3-3-19.8c-2-3.3-4.8-6.3-7.5-8.5c-4.8-3.8-26.4-11.5-33.4,9"/>
				<path class="st6" d="M204.5,344.2c-1.3,7.5,2,15.1,7,19.1c5,4,11.5,5.3,18.1,5.3c3.8,0,7.5-0.5,11-2c3.5-1.8,6.8-4.8,8.5-8.8
					c2.8-6.5,0.5-14.3-3-19.8c-2-3.3-4.8-6.3-7.5-8.5c-4.8-3.8-26.4-11.5-33.4,9"/>
				<path class="st1" d="M204,344.2c-1.8,11,5.3,21.1,16.6,23.8c10.5,2.5,24.4,1,29.4-9.5c4.8-10.3-1.8-23.1-10.5-29.6
					c-4.3-3-10.3-4.5-15.3-4.5c-9.5,0-16.1,5.8-18.8,14.1c-0.3,0.8,1,0.8,1.3,0.3c2.5-6.8,7.3-12.3,15.3-13.3c5-0.5,10.5,0.8,14.8,3
					c7.8,4,13.3,13.6,13.6,21.8c0.3,5.5-2,11-7,14.3c-4.8,3.5-11.3,3.8-17.3,3.3c-6.3-0.5-12.3-2.8-16.1-7.5
					c-3.8-4.5-5.3-10.5-4.5-16.3C205.2,343.4,204,343.4,204,344.2z"/>
				<g>
					<path class="st5" d="M204.5,345.4L204.5,345.4c-0.5,0-0.8-0.5-0.8-0.8c0.3-2,0.8-5.3,1.3-6.8c0.3-0.3,0.5-0.5,0.8-0.3
						c0.3,0,0.5,0.5,0.3,0.8c-0.8,1.8-1,5.5-1.3,6.5C205,345.2,204.7,345.4,204.5,345.4z"/>
				</g>
			</g>
			<g>
				<path class="st5" d="M296.6,344.7c-1.3,7.5,2,15.1,7,19.1c5,4,11.5,5.3,18.1,5.3c3.8,0,7.5-0.5,11-2c3.5-1.8,6.8-4.8,8.5-8.8
					c2.8-6.5,0.5-14.3-3-19.8c-2-3.3-4.8-6.3-7.5-8.5c-4.8-3.8-26.4-11.5-33.4,9"/>
				<path class="st6" d="M294.3,344.2c-1.3,7.5,2,15.1,7,19.1c5,4,11.5,5.3,18.1,5.3c3.8,0,7.5-0.5,11-2c3.5-1.8,6.8-4.8,8.5-8.8
					c2.8-6.5,0.5-14.3-3-19.8c-2-3.3-4.8-6.3-7.5-8.5c-4.8-3.8-26.4-11.5-33.4,9"/>
				<path class="st5" d="M293.6,344.2c-1.8,11,5.3,21.1,16.6,23.8c10.5,2.5,24.4,1,29.4-9.5c4.8-10.3-1.8-23.1-10.5-29.6
					c-4.3-3-10.3-4.5-15.3-4.5c-9.5,0-16.1,5.8-18.8,14.1c-0.3,0.8,1,0.8,1.3,0.3c2.5-6.8,7.3-12.3,15.3-13.3c5-0.5,10.5,0.8,14.8,3
					c7.8,4,13.3,13.6,13.6,21.8c0.3,5.5-2,11-7,14.3c-4.8,3.5-11.3,3.8-17.3,3.3c-6.3-0.5-12.3-2.8-16.1-7.5
					c-3.8-4.5-5.3-10.5-4.5-16.3C295.1,343.4,293.6,343.4,293.6,344.2z"/>
				<g>
					<path class="st5" d="M294.1,345.4L294.1,345.4c-0.5,0-0.8-0.5-0.8-0.8c0.3-2,0.8-5.3,1.3-6.8c0.3-0.3,0.5-0.5,0.8-0.3
						c0.3,0,0.5,0.5,0.3,0.8c-0.8,1.8-1,5.5-1.3,6.5C294.8,345.2,294.3,345.4,294.1,345.4z"/>
				</g>
			</g>
			<g>
				<path class="st5" d="M390.7,344.7c-1.3,7.5,2,15.1,7,19.1c5,4,11.5,5.3,18.1,5.3c3.8,0,7.5-0.5,11-2c3.5-1.8,6.8-4.8,8.5-8.8
					c2.8-6.5,0.5-14.3-3-19.8c-2-3.3-4.8-6.3-7.5-8.5c-4.8-3.8-26.4-11.5-33.4,9"/>
				<path class="st4" d="M388.5,344.2c-1.3,7.5,2,15.1,7,19.1c5,4,11.5,5.3,18.1,5.3c3.8,0,7.5-0.5,11-2c3.5-1.8,6.8-4.8,8.5-8.8
					c2.8-6.5,0.5-14.3-3-19.8c-2-3.3-4.8-6.3-7.5-8.5c-4.8-3.8-26.4-11.5-33.4,9"/>
				<path class="st1" d="M387.7,344.2c-1.8,11,5.3,21.1,16.6,23.8c10.5,2.5,24.4,1,29.4-9.5c4.8-10.3-1.8-23.1-10.5-29.6
					c-4.3-3-10.3-4.5-15.3-4.5c-9.5,0-16.1,5.8-18.8,14.1c-0.3,0.8,1,0.8,1.3,0.3c2.5-6.8,7.3-12.3,15.3-13.3c5-0.5,10.5,0.8,14.8,3
					c7.8,4,13.3,13.6,13.6,21.8c0.3,5.5-2,11-7,14.3c-4.8,3.5-11.3,3.8-17.3,3.3c-6.3-0.5-12.3-2.8-16.1-7.5
					c-3.8-4.5-5.3-10.5-4.5-16.3C389.2,343.4,388,343.4,387.7,344.2z"/>
				<g>
					<path class="st5" d="M388.5,345.4C388.2,345.4,388.2,345.4,388.5,345.4c-0.5,0-0.8-0.5-0.8-0.8c0.3-2,0.8-5.3,1.3-6.8
						c0.3-0.3,0.5-0.5,0.8-0.3c0.3,0,0.5,0.5,0.3,0.8c-0.8,1.8-1,5.5-1.3,6.5C389,345.2,388.7,345.4,388.5,345.4z"/>
				</g>
			</g>
			<g>
				<path class="st1" d="M251.7,348.9c3.5,0.5,7,0.3,10.5,0l10.5-0.5l10.5-0.5c3.5-0.3,7-0.5,10.5-0.8l0.3,1.8
					c-3.5,0.8-7,1-10.5,1.3c-3.5,0.3-7,0.5-10.5,0.5l-10.5,0.3c-3.5,0-7,0-10.5,0.5L251.7,348.9z"/>
			</g>
			<g>
				<path class="st1" d="M435.9,348.9c3.5,0.5,7,0.3,10.5,0l10.5-0.5l10.5-0.5c3.5-0.3,7-0.5,10.5-0.8l0.3,1.8
					c-3.5,0.8-7,1-10.5,1.3c-3.5,0.3-7,0.5-10.5,0.5l-10.5,0.3c-3.5,0-7,0-10.5,0.5L435.9,348.9z"/>
			</g>
			<g>
				<path class="st1" d="M341.3,348.2c4,0.5,7.8,0.3,11.8,0.3h11.8c7.8-0.3,15.8,0,23.3-1.3l0.5,1.8c-4,1-7.8,1.3-11.8,1.5
					c-4,0.3-7.8,0.3-11.8,0.3h-11.8c-4,0-7.8-0.3-11.8,0.3L341.3,348.2z"/>
			</g>
			<g>
				<g>
					<defs>
						<rect id="SVGID_1_" x="214.8" y="338.1" width="21.6" height="20.6"/>
					</defs>
					<clipPath id="SVGID_2_">
						<use xlink:href="#SVGID_1_"  style="overflow:visible;"/>
					</clipPath>
					<g class="st7">
						<path class="st1" d="M215,349.7c1,1.5,2.3,3,3.5,4.3c1,1.3,2.3,3.3,3.5,4.3c1.3,1,2,0.5,3-0.8c1.8-2.8,3.3-5.8,5-8.3
							c2-3,4-5.8,6.3-8.8c0.8-1.3-0.3-3.3-1.5-1.8c-3,4-6,8.3-8.5,12.6c-0.5,1-1.3,2.8-2,3.5c-0.3,0.3-0.3,0.5-0.5,1
							c-0.5-0.3-1-0.8-1.5-1.5c-2-2.3-3.5-4.8-5.5-7C215.5,346.2,214.2,348.4,215,349.7z"/>
					</g>
				</g>
			</g>
			<g>
				<g>
					<defs>
						<rect id="SVGID_3_" x="305.9" y="338.1" width="21.6" height="20.6"/>
					</defs>
					<clipPath id="SVGID_4_">
						<use xlink:href="#SVGID_3_"  style="overflow:visible;"/>
					</clipPath>
					<g class="st8">
						<path class="st1" d="M306.1,349.7c1,1.5,2.3,3,3.5,4.3c1,1.3,2.3,3.3,3.5,4.3c1.3,1,2,0.5,3-0.8c1.8-2.8,3.3-5.8,5-8.3
							c2-3,4-5.8,6.3-8.8c0.8-1.3-0.3-3.3-1.5-1.8c-3,4-6,8.3-8.5,12.6c-0.5,1-1.3,2.8-2,3.5c-0.3,0.3-0.3,0.5-0.5,1
							c-0.5-0.3-1-0.8-1.5-1.5c-2-2.3-3.5-4.8-5.5-7C306.6,346.2,305.4,348.4,306.1,349.7z"/>
					</g>
				</g>
			</g>
		</g>
		<g>
			<path class="st9" d="M99.8,197c0.1,0.1,0.1,0.3,0,0.4C99.8,197.3,99.8,197.1,99.8,197z"/>
			<path class="st10" d="M108.5,176.5c0-4.8,0-9.6,0-14.4c0-1.4,0.6-2.3,1.9-2.9c0.4-0.2,0.8-0.2,1.2-0.2c9.6,0,19.2,0,28.8,0
				c1.8,0,3,1.2,3,3.1c0,9.6,0,19.2,0,28.7c0,1.6-0.9,2.8-2.4,3c-0.2,0-0.4,0-0.6,0c-9.6,0-19.2,0-28.8,0c-1.5,0-2.7-0.9-3-2.4
				c0-0.3,0-0.5,0-0.8C108.5,186.1,108.5,181.3,108.5,176.5z"/>
			<path class="st2" d="M119.3,173c0,0.4,0,0.7,0.1,1.1c0.1,1.5,0.2,3.1,0.2,4.6c0,2.7,0,5.4,0,8c0,0.2-0.1,0.3-0.3,0.3
				c-1.4,0-2.7,0-4.1,0c-0.2,0-0.3,0-0.3-0.3c0-6.3,0-12.6,0-18.9c0-0.2,0-0.2,0.2-0.2c2.2,0,4.3,0,6.5,0c0.2,0,0.3,0.1,0.3,0.3
				c1.3,4.4,2.6,8.8,3.9,13.2c0,0.1,0,0.3,0.2,0.3c0.1,0,0.1-0.2,0.1-0.3c1.3-4.4,2.5-8.8,3.8-13.2c0.1-0.2,0.1-0.3,0.3-0.3
				c2.1,0,4.3,0,6.4,0c0.2,0,0.3,0.1,0.3,0.3c0,6.3,0,12.5,0,18.8c0,0.2,0,0.3-0.3,0.3c-1.4,0-2.9,0-4.3,0c-0.2,0-0.3,0-0.3-0.2
				c0-3.4,0-6.9,0.1-10.4c0-1,0.1-2,0.1-3c0-0.1,0.1-0.3,0-0.3c-0.1,0-0.1,0.2-0.1,0.2c-1.3,4.4-2.5,8.9-3.7,13.3
				c-0.1,0.2-0.1,0.3-0.4,0.3c-1.5,0-3,0-4.4,0c-0.2,0-0.3,0-0.3-0.2c-1.3-4.5-2.5-8.9-3.8-13.4C119.5,173.3,119.5,173.1,119.3,173z
				"/>
		</g>
	</g>
	<path class="st1" d="M677.6,479.5c0,3.5-48.5,6.5-107.9,6.5c-28.4,0-65.5,1-84.9,0c-21.1-1.3-23.1-4.5-23.1-6.5
		c0-3.5,92.4-6,151.9-6C673.3,473.5,677.6,476,677.6,479.5z"/>
	<path class="st1" d="M635.4,413c4-1.5,14.1-0.3,13.8,4.5c-0.3,3.8-2.3,36.7-1.5,52.2c0.3,4-3.5,7.3-8.3,7.3
		c-34.1,0.3-149.6,3.5-152.6,0c-1-1-15.8-8.3,1.3-16.6C531,439.3,635.4,413,635.4,413z"/>
	<path class="st1" d="M632.9,352.2c4-1.5,14.1-0.3,13.8,4.5c-0.3,3.8-2.3,36.7-1.5,52.2c0.3,4-3.5,7.3-8.3,7.3
		c-34.1,0.3-149.6,3.5-152.6,0c-1-1-15.8-8.3,1.3-16.6C528.7,378.6,632.9,352.2,632.9,352.2z"/>
	<path class="st2" d="M466.4,421.3c0.3-4,3.8-7.3,8.3-7.5c46.2-0.8,128.8-1,154.9-1.3c5,0,9,3,9.5,7c1.3,12.6,0.8,31.6,1.5,45.4
		c0.3,6-5.8,11.3-13.3,11c-43.4-0.5-125,1.8-151.9,2.5c-4.8,0-8.8-2.8-9-6.5C465.2,461.7,465.9,434.6,466.4,421.3z"/>
	<path class="st1" d="M468,422c1.5-8.3,18.1-6,23.8-6c7.3,0,14.3-0.3,21.6-0.3c15.8-0.3,31.6-0.3,47.4-0.5c14.1,0,27.9-0.3,41.9-0.3
		c7.5,0,28.9-3.5,33.4,3.3c4,6,2,19.3,2,26.4c0,8,3.3,23.3-5,27.9c-5.5,3-15.3,1.5-21.6,1.5c-7.3,0-14.8,0-22.1,0.3
		c-29.1,0.3-58.5,1-87.6,1.8c-6,0.3-12,0.3-18.1,0.5c-7.5,0.3-15.1,1.5-16.3-8.5c-1.8-15.1,0-31.1,0.5-46.2c0-2.5-3-2.5-3.3,0
		c-0.5,16.1-2.3,33.1-0.3,49.2c1.5,12.6,15.1,10,24.6,9.8c34.9-1,70-1.8,104.9-2c7.8,0,15.8,0,23.6,0c7,0,15.1,1.3,20.6-4.3
		c4.5-4.5,3.5-10.3,3.5-16.3c-0.3-10.8,0-21.6-0.8-32.4c-0.3-5.5-0.5-11-6.5-13.8c-4.8-2-11.5-1-16.8-1c-15.3,0-30.9,0.3-46.2,0.3
		c-20.8,0.3-41.9,0.3-62.8,0.5c-9.5,0-18.8,0.3-28.4,0.3c-7.3,0-14.1,0.5-15.6,9C464.4,423,467.5,424.5,468,422z"/>
	<path class="st2" d="M466.4,355.5c0.3-4,3.8-7.3,8.3-7.5c46.2-0.8,128.8-1,154.9-1.3c5,0,9,3,9.5,7c1.3,12.6,0.8,31.6,1.5,45.4
		c0.3,6-5.8,11.3-13.3,11c-43.4-0.5-125,1.8-151.9,2.5c-4.8,0-8.8-2.8-9-6.5C465.2,395.9,465.9,368.5,466.4,355.5z"/>
	<path class="st1" d="M468.2,355.5c1.3-7.8,18.8-5.8,24.4-5.8c7.5,0,15.3-0.3,22.8-0.3c15.3-0.3,30.9-0.3,46.2-0.5
		c13.8,0,27.9-0.3,41.7-0.3c8,0,31.1-3.8,33.9,5.8c2.3,7.3,0.8,17.1,1,24.6c0,9,3.5,25.4-7.5,28.6c-6.3,1.8-14.1,0.5-20.6,0.5
		c-7,0-14.1,0-21.3,0.3c-28.9,0.3-57.7,1-86.4,1.5c-6.3,0.3-12.6,0.3-18.8,0.5c-7.8,0.3-15.3,0.8-15.8-9.3
		c-0.8-15.3,0-30.9,0.5-46.2c0-2.5-3.5-1.3-3.5,0.8c-0.5,16.1-2.3,33.1-0.3,49.2c1.5,12.6,16.8,9.3,26.1,9c35.1-1,70.3-1.8,105.4-2
		c7.8,0,15.6,0,23.3,0c6.8,0,13.8,0.8,19.1-4.5c4.8-4.5,3.8-10.3,3.8-16.3c-0.3-10.8,0-21.6-0.8-32.4c-0.5-6.3-1-12-8.3-13.8
		c-5-1.3-11-0.3-16.3-0.3c-15.6,0-31.4,0.3-46.9,0.3c-20.8,0.3-41.9,0.3-62.8,0.5c-9.3,0-18.6,0.3-28.1,0.3
		c-6.8,0-12.8,1.8-14.3,9.3C464.2,358,467.7,357.7,468.2,355.5z"/>
	<path class="st1" d="M496.1,443.4c0,2.8-3.3,4.5-6,4.5c-2.8,0-5.3-2.3-5.3-5.3c0-2.8,2.3-5.3,5.3-5.3
		C492.8,437.6,496.1,440.6,496.1,443.4z"/>
	<path class="st1" d="M496.1,380.1c0,2.8-3.3,4.5-6,4.5c-2.8,0-5.3-2.3-5.3-5.3c0-2.8,2.3-5.3,5.3-5.3
		C492.8,374.6,496.1,377.3,496.1,380.1z"/>
	<path class="st1" d="M513.6,443.4c0,2.8-3.3,4.5-6,4.5c-2.8,0-5.3-2.3-5.3-5.3c0-2.8,2.3-5.3,5.3-5.3
		C510.6,437.6,513.6,440.6,513.6,443.4z"/>
	<path class="st1" d="M513.6,380.8c0,2.8-3.3,4.5-6,4.5c-2.8,0-5.3-2.3-5.3-5.3c0-2.8,2.3-5.3,5.3-5.3
		C510.6,375.1,513.6,377.8,513.6,380.8z"/>
	<path class="st1" d="M533.7,443.4c0,2.8-3.3,4.5-6,4.5c-2.8,0-5.3-2.3-5.3-5.3c0-2.8,2.3-5.3,5.3-5.3
		C530.5,437.6,533.7,440.6,533.7,443.4z"/>
	<path class="st1" d="M533.7,380.8c0,2.8-3.3,4.5-6,4.5c-2.8,0-5.3-2.3-5.3-5.3c0-2.8,2.3-5.3,5.3-5.3
		C530.5,375.1,533.7,377.8,533.7,380.8z"/>
	<path class="st1" d="M591.7,341.7c-2.3,12.8,3.3,25.6,11.3,32.6c8,7,18.6,9,28.6,9c5.8,0,12-0.8,17.6-3.5c5.5-2.8,10.8-8,13.6-15.1
		c4.3-11.3,0.8-24.1-4.5-33.6c-3.3-5.8-7.5-10.5-12-14.6c-7.5-6.3-41.7-19.6-52.7,15.6"/>
	<path class="st2" d="M588,336.7c-2,12.8,3.3,25.6,11.3,32.6c8,7,18.6,9,28.6,9c5.8,0,12-0.8,17.6-3.5c5.5-2.8,10.8-8,13.6-15.1
		c4.3-11.3,0.8-24.1-4.5-33.6c-3.3-5.8-7.5-10.5-12-14.6c-7.3-6.3-41.4-19.6-52.7,15.6"/>
	<path class="st1" d="M587.2,336.4c-2.8,18.6,7.8,35.9,25.6,40.9c17.1,4.8,39.4,1.8,46.7-16.8c7-17.3-3-38.9-16.6-50
		c-6.8-5.3-16.3-8-24.6-8c-14.8,0-24.9,10.3-29.4,24.1c-0.5,1.3,1,2,1.5,0.8c3.8-11.5,11.5-20.8,24.1-22.3c8-1,16.6,1.3,23.6,5
		c12,6.5,20.8,22.1,21.8,35.9c0.8,10-3,19.8-11.3,25.6c-7.5,5.5-17.3,6.3-26.4,5.5c-9.3-0.8-18.8-4-25.4-11
		c-7-7.8-9.8-18.8-8.3-29.1C589,335.4,587.4,335.2,587.2,336.4z"/>
	<path class="st11" d="M457.2,429.4c-64,2-9.5-22.6-28.9-38.2c-18.3-14.9-89.4-7.9-26.1-32.5"/>
	<g>
		<path class="st2" d="M600.3,19.1C574.9,6.5,545,14.6,530,38.2c-14.1,22.1-20.3,55,1.3,74.6c21.1,19.1,57.5,14.1,79.6-1
			c10.5-7.3,18.6-19.8,22.6-31.6c7.3-21.6-2.3-41.2-20.1-54.2C612.1,24.9,601.8,19.6,600.3,19.1z"/>
		<g>
			<path class="st1" d="M600.3,19.1C574.9,6.5,545,14.6,530,38.2c-14.1,22.1-20.3,55,1.3,74.6c21.1,19.1,57.5,14.1,79.6-1
				c10.5-7.3,18.6-19.8,22.6-31.6c7.3-21.6-2.3-41.2-20.1-54.2c-1.3-1-2.8,1.8-1.5,2.8c14.8,10.8,24.6,26.6,20.8,45.2
				c-2.5,12-9.5,23.3-18.3,31.6c-15.6,14.6-42.9,19.6-63,14.1c-13.8-3.8-25.1-13.6-29.6-27.1c-4.5-13.8-0.8-29.1,5-42.2
				c6-13.8,15.8-25.9,30.1-31.1c14.1-5.3,29.6-3.8,42.7,2.8C600.8,22.9,601.8,19.6,600.3,19.1z"/>
			<path class="st1" d="M600.3,19.3c-12.8-6.5-27.9-7.5-41.4-3c-6.8,2.3-13.1,5.8-18.3,10.5c-5.3,4.8-9.5,10.5-13.1,16.8
				c-6.8,12.6-10.8,26.9-9.5,40.9c0.8,7,3,14.1,6.8,19.8c4,5.8,9.3,10.8,15.6,14.1c12.6,6.5,27.6,7.3,41.7,4.5
				c7-1.5,13.8-3.8,20.1-6.8c3.3-1.5,6.3-3.5,9.3-5.5c3-2,5.5-4.5,8-7c4.8-5.3,8.5-11.5,11.5-18.1c1.5-3.3,2.5-6.8,3.5-10
				c0.8-3.5,1.3-7,1.3-10.5c0-7-2-14.3-5.5-20.3c-3.3-6.3-8.3-11.8-13.8-16.3l-2-1.8c-0.3-0.3-0.8-0.5-1-0.8c-0.3-0.3-0.8,0-1,0.3
				c-0.5,0.5-0.8,1.5-0.3,2.3c0.5,0.5,1.5,1,2,1.8c2.8,2.3,5.5,4.8,7.8,7.3c4.8,5.3,8.8,11.5,10.5,18.6c1,3.5,1.5,7,1.3,10.5
				c0,3.5-0.8,7.3-1.8,10.5c-2,7-5.3,13.3-9.5,19.3c-4.3,5.8-9.3,11-15.3,14.8s-12.8,6.5-19.8,8.3c-7,1.8-14.1,2.5-21.3,2.3
				c-7.3-0.3-14.3-1.5-21.1-4.3c-6.5-2.8-12.6-7.3-17.1-12.8c-4.5-5.5-7.3-12.6-8.3-19.6c-1-7,0-14.3,1.8-21.3c2-7,4.5-13.6,8-19.8
				c3.5-6.3,8-12,13.6-16.6c5.5-4.8,12-8,19.1-9.8c7-1.8,14.3-2,21.3-0.8c3.5,0.5,7,1.5,10.3,2.8c1.8,0.5,3.3,1.3,5,2
				c0.5,0.3,0.8,0.5,1.3,0.5c0.3,0,0.8-0.3,0.8-0.8C600.8,20.6,600.8,19.6,600.3,19.3z M600.5,18.6c0.5,0.3,0.8,1,0.8,1.5
				s0,1-0.3,1.5c-0.3,0.5-0.8,1-1.3,0.8c-0.5,0-1-0.3-1.3-0.5c-1.5-0.8-3.3-1.5-5-2c-3.3-1.3-6.8-2.3-10.3-2.8
				c-7-1.3-14.3-1-21.3,0.8c-7,1.8-13.6,5-18.8,9.5c-5.5,4.5-9.8,10.3-13.3,16.6c-3.5,6.3-6,13.1-8,19.8c-1.8,6.8-2.8,14.1-1.8,21.3
				c1,7,3.8,13.8,8.3,19.6c4.5,5.5,10.3,10,16.8,12.8c6.5,2.8,13.8,4,20.8,4.3c7,0.3,14.3-0.5,21.3-2.3c7-1.8,13.6-4.5,19.6-8.3
				c6-3.8,11-9,15.3-14.8s7.5-12.3,9.3-19.1c1-3.5,1.5-7,1.5-10.5c0-3.5-0.5-7-1.3-10.5c-1.8-7-5.8-13.1-10.5-18.6
				c-2.5-2.8-5-5-7.8-7.3c-0.8-0.5-1.5-1-2-1.8c-0.5-0.8-0.3-2,0.5-2.8c0.3-0.3,1-0.5,1.5-0.3c0.5,0.3,0.8,0.5,1,0.8l2,1.8
				c5.5,4.5,10.5,10,13.8,16.3c3.5,6.3,5.5,13.3,5.5,20.6c0,3.5-0.5,7.3-1.3,10.8c-0.8,3.5-2,7-3.5,10.3
				c-2.8,6.5-6.8,12.8-11.5,18.1c-2.5,2.8-5,5-8,7.3c-3,2-6,4-9.3,5.5c-6.5,3.3-13.3,5.5-20.3,7c-7,1.5-14.3,2-21.6,1.3
				c-7.3-0.8-14.3-2.5-20.8-5.8c-6.5-3.3-12-8.3-16.1-14.3c-4-6-6.3-13.1-7-20.3c-1.3-14.6,2.8-28.9,9.5-41.4
				c3.3-6.3,7.8-12.3,13.1-17.1c5.5-4.8,11.8-8.5,18.6-10.8C572.1,10.8,587.7,12.1,600.5,18.6z"/>
		</g>
	</g>
	<g>
		<path class="st2" d="M567.6,97.7c-1.3,0.5-2.8,1.3-4.3,1.8c-0.5,0.3-1,0.3-1.8,0.5c-1,0-1.5-0.3-2.3-1c-0.3-0.5-0.8-1-0.8-1.8
			c-0.5-1.8-1-3.3-1.3-5c0-0.3,0-0.3,0-0.5s-0.3-0.3-0.5-0.5c-0.3,0-0.3,0-0.5,0.3c-0.5,1.3-1.3,2.3-1.8,3.5c-0.5,1.3-1.3,2.3-2,3.3
			c-0.3,0.3-0.3,0.5-0.5,0.8c-0.3,0.3-0.5,0.3-0.8,0H551c-2.8-1.8-5.5-3.8-8-5.8c-0.8-0.5-1.3-1-1.8-1.5c-0.3-0.3-0.5-0.5-0.8-0.8
			c-0.5-0.8-0.5-1.3-0.3-2c0.3-0.8,0.8-1.3,1.3-1.8c0.8-1,1.8-1.8,2.5-2.5c0.5-0.5,1-0.8,1.5-1.3l0.3-0.3l0.3-0.3
			c0-0.3-0.3-0.3-0.5-0.3c-2,0.3-3.8,0.3-5.8,0.3c-0.8,0-1.5,0-2.5,0c-0.3,0-0.5,0-0.8-0.3c-0.3,0-0.5-0.3-0.5-0.5v-0.3
			c0.3-3.3,0.5-6.5,1-9.8c0-0.8,0.3-1.5,0.5-2.3c0-0.3,0.3-0.5,0.3-1c0.5-0.8,1-1.3,1.8-1.3c0.8,0,1.5,0,2,0.3
			c1.3,0.3,2.3,0.5,3.5,1c0.3,0,0.5,0.3,0.8,0.3h0.3c0.3-0.3,0.3-0.5,0.5-0.5c0.3-0.3,0.3-0.3,0-0.5c-0.5-1-1-1.8-1.8-2.5
			c-0.8-1-1.3-2-1.8-3c0-0.3-0.3-0.5-0.3-0.8c0,0,0,0,0-0.3c0-0.5,0-1,0.5-1.3c1-0.8,2.3-1.5,3.3-2c0.8-0.5,1.8-1,2.5-1.3h0.3
			c1.3-0.5,2.3-1,3.5-1.5c0.8-0.3,1.5-0.5,2.3-0.5c1,0,1.8,0.5,2.5,1.3c0.5,0.8,0.8,1.3,1,2c0,0.5,0.3,1,0.5,1.5
			c0.3,1,0.5,1.8,0.8,2.8c0,0.3,0,0.3,0.3,0.3c0.5,0,0.8,0.3,1.3,0.3c0.3,0,0.3,0,0.5-0.3c0.5-0.8,0.8-1.8,1.3-2.5
			c0.5-1,1-2,1.8-2.8c0.3-0.3,0.3-0.5,0.5-0.8c0.3-0.3,0.5-0.3,0.5,0c2.3,1,4.5,2.3,6.5,3.8c1,0.8,2,1.5,3,2.5c0.5,0.5,1,1,1.3,1.5
			c0.3,0.5,0.5,1,0.5,1.8v0.3c-0.3,1-0.8,1.8-1.5,2.5c-0.8,0.8-1.5,1.5-2.3,2.3c-0.3,0.3-0.8,0.8-1,1v0.3c0,0.3,0.3,0.5,0.3,0.8
			c0,0.3,0,0.3,0.3,0.3c0.5,0,0.8,0,1.3,0c1.3,0,2.5-0.3,3.8-0.3c0.8,0,1.3,0,2,0c0.3,0,0.5,0,0.8,0.3c0.3,0,0.5,0.3,0.5,0.5v0.3
			c-0.3,3.3-0.5,6.5-1,9.8c-0.3,0.8-0.3,1.8-0.5,2.5c0,0.3-0.3,0.5-0.3,1c-0.3,0.8-1,1-1.8,1.3c-0.8,0-1.5,0-2.3-0.3
			c-1-0.3-2.3-0.5-3.3-1c-0.3,0-0.8-0.3-1-0.5c-0.3,0-0.5,0-0.8,0c-0.3,0-0.3,0-0.3,0.3s0,0.5,0.3,0.5c0.8,1.3,1.5,2.3,2.3,3.5
			c0.5,0.8,1,1.8,1.3,2.5c0,0.3,0.3,0.5,0,0.8c0,0.5-0.3,0.8-0.5,1l-0.3,0.3c-1.5,0.8-3,1.5-4.8,2.3
			C568.4,97.4,567.9,97.7,567.6,97.7z"/>
		<path class="st1" d="M567.6,97.7c-1.3,0.5-2.8,1.3-4.3,1.8c-0.5,0.3-1,0.3-1.8,0.5c-1,0-1.5-0.3-2.3-1c-0.3-0.5-0.8-1-0.8-1.8
			c-0.5-1.8-1-3.3-1.3-5c0-0.3,0-0.3,0-0.5s-0.3-0.3-0.5-0.5c-0.3,0-0.3,0-0.5,0.3c-0.5,1.3-1.3,2.3-1.8,3.5c-0.5,1.3-1.3,2.3-2,3.3
			c-0.3,0.3-0.3,0.5-0.5,0.8c-0.3,0.3-0.5,0.3-0.8,0H551c-2.8-1.8-5.5-3.8-8-5.8c-0.8-0.5-1.3-1-1.8-1.5c-0.3-0.3-0.5-0.5-0.8-0.8
			c-0.5-0.8-0.5-1.3-0.3-2c0.3-0.8,0.8-1.3,1.3-1.8c0.8-1,1.8-1.8,2.5-2.5c0.5-0.5,1-0.8,1.5-1.3l0.3-0.3l0.3-0.3
			c0-0.3-0.3-0.3-0.5-0.3c-2,0.3-3.8,0.3-5.8,0.3c-0.8,0-1.5,0-2.5,0c-0.3,0-0.5,0-0.8-0.3c-0.3,0-0.5-0.3-0.5-0.5v-0.3
			c0.3-3.3,0.5-6.5,1-9.8c0-0.8,0.3-1.5,0.5-2.3c0-0.3,0.3-0.5,0.3-1c0.5-0.8,1-1.3,1.8-1.3c0.8,0,1.5,0,2,0.3
			c1.3,0.3,2.3,0.5,3.5,1c0.3,0,0.5,0.3,0.8,0.3h0.3c0.3-0.3,0.3-0.5,0.5-0.5c0.3-0.3,0.3-0.3,0-0.5c-0.5-1-1-1.8-1.8-2.5
			c-0.8-1-1.3-2-1.8-3c0-0.3-0.3-0.5-0.3-0.8c0,0,0,0,0-0.3c0-0.5,0-1,0.5-1.3c1-0.8,2.3-1.5,3.3-2c0.8-0.5,1.8-1,2.5-1.3h0.3
			c1.3-0.5,2.3-1,3.5-1.5c0.8-0.3,1.5-0.5,2.3-0.5c1,0,1.8,0.5,2.5,1.3c0.5,0.8,0.8,1.3,1,2c0,0.5,0.3,1,0.5,1.5
			c0.3,1,0.5,1.8,0.8,2.8c0,0.3,0,0.3,0.3,0.3c0.5,0,0.8,0.3,1.3,0.3c0.3,0,0.3,0,0.5-0.3c0.5-0.8,0.8-1.8,1.3-2.5
			c0.5-1,1-2,1.8-2.8c0.3-0.3,0.3-0.5,0.5-0.8c0.3-0.3,0.5-0.3,0.5,0c2.3,1,4.5,2.3,6.5,3.8c1,0.8,2,1.5,3,2.5c0.5,0.5,1,1,1.3,1.5
			c0.3,0.5,0.5,1,0.5,1.8v0.3c-0.3,1-0.8,1.8-1.5,2.5c-0.8,0.8-1.5,1.5-2.3,2.3c-0.3,0.3-0.8,0.8-1,1v0.3c0,0.3,0.3,0.5,0.3,0.8
			c0,0.3,0,0.3,0.3,0.3c0.5,0,0.8,0,1.3,0c1.3,0,2.5-0.3,3.8-0.3c0.8,0,1.3,0,2,0c0.3,0,0.5,0,0.8,0.3c0.3,0,0.5,0.3,0.5,0.5v0.3
			c-0.3,3.3-0.5,6.5-1,9.8c-0.3,0.8-0.3,1.8-0.5,2.5c0,0.3-0.3,0.5-0.3,1c-0.3,0.8-1,1-1.8,1.3c-0.8,0-1.5,0-2.3-0.3
			c-1-0.3-2.3-0.5-3.3-1c-0.3,0-0.8-0.3-1-0.5c-0.3,0-0.5,0-0.8,0c-0.3,0-0.3,0-0.3,0.3s0,0.5,0.3,0.5c0.8,1.3,1.5,2.3,2.3,3.5
			c0.5,0.8,1,1.8,1.3,2.5c0,0.3,0.3,0.5,0,0.8c0,0.5-0.3,0.8-0.5,1l-0.3,0.3c-1.5,0.8-3,1.5-4.8,2.3
			C568.4,97.4,567.9,97.7,567.6,97.7z M566.6,56.7c0,0.3-0.3,0.3-0.3,0.5c-0.5,1-1,1.8-1.3,2.8c-0.5,1-1,2-1.8,3
			c-0.3,0.3-0.5,0.3-0.8,0.3c-0.3,0-0.3,0-0.5,0c-0.8-0.3-1.5-0.3-2.3-0.5c-0.3,0-0.3-0.3-0.5-0.3c-0.3-0.5-0.5-0.8-0.5-1.3
			c0-0.3-0.3-0.5-0.3-0.8c-0.3-1-0.5-1.8-0.8-2.5c0-0.3-0.3-0.8-0.5-1c-0.3-0.5-0.5-0.5-1-0.5c-0.3,0-0.8,0-1,0.3
			c-1.3,0.5-2.5,0.8-4,1.3c-0.8,0.3-1.8,0.8-2.5,1c-0.8,0.5-1.5,0.8-2.3,1c-0.5,0.3-0.8,0.5-1.3,0.8C545,61,545,61,545,61.3
			c0.3,0.5,0.8,1,1,1.5c1,1.5,2,3,2.8,4.8c0.3,0.5,0,1,0.3,1.5c0,0,0,0,0,0.3c-0.3,0.5-0.5,0.8-1,1c-0.3,0.3-0.8,0.5-1.3,0.3
			c-0.8-0.3-1.3-0.5-2-0.5c-1.3-0.5-2.3-0.8-3.5-1c-0.5,0-0.8-0.3-1.3,0c-0.5,0-0.8,0.3-1,0.5c-0.3,0.5-0.3,0.8-0.3,1.3
			c0,0.3,0,0.5,0,0.8c0,0.8,0,1.3,0,2c-0.3,2.3,0,4.8,0,7c0,0.3,0,0.3,0.3,0.3c1.3,0.3,2.8,0.5,4,0.5c1,0,2,0.3,3,0.5
			c0.3,0,0.3,0,0.5,0.3c0.5,0.3,0.8,0.8,0.8,1.3c0,0.5,0,0.8-0.5,1.3c-1.3,1.3-2.8,2.5-4,3.8c-0.3,0.3-0.8,0.8-1,1.3
			c-0.3,0.3-0.3,0.5-0.3,0.8c0,0.3,0,0.3,0.3,0.5c1,0.8,1.8,1.5,2.8,2c1,0.8,1.8,1.5,2.8,2c1.3,0.8,2.3,1.3,3.5,2
			c0.3,0.3,0.3,0.3,0.5,0c0.8-1,1.5-2,2.3-3c0.8-0.8,1.3-1.8,2-2.5c0.3-0.3,0.5-0.5,0.8-0.8c0.8-0.5,1.3-0.3,1.8,0.3
			c0.3,0.3,0.5,0.5,0.5,0.8c0.3,0.3,0.3,0.5,0.5,1c0,0.8,0.3,1.3,0.5,2c0.3,1.3,0.5,2.3,0.8,3.5c0,0.3,0.3,0.8,0.3,1
			c0,0,0,0.3,0.3,0.3c0.5,0,1.3,0,1.8-0.3c1-0.3,2-0.8,3.3-1.3c1.5-0.5,3-1.3,4.5-2c0.5-0.3,1-0.5,1.5-1c0.3-0.3,0.5-0.5,0.3-1
			c-0.3-0.5-0.3-1.3-0.8-1.5c-0.3-0.3-0.3-0.5-0.5-0.8c-0.5-1-1-1.8-1.8-2.8c-0.3-0.5-0.5-1-0.5-1.5c0-0.8,0.5-1.5,1.5-1.8
			c0.3,0,0.8,0,1,0c0.3,0,0.5,0,0.8,0c1.5,0.3,3,0,4.5,0c0.5,0,1,0,1.5,0c0.3,0,0.3,0,0.3-0.3c0.5-0.5,0.8-1,1-1.5
			c0-0.3,0.3-0.5,0.3-0.8c0.3-0.5,0.3-1.3,0.5-1.8c0.3-1.5,0.5-3,0.8-4.5c0-0.8,0-1.3,0-2c0-0.3,0-0.3-0.3-0.3c-0.8,0-1.5,0-2.3,0
			c-1.8,0-3.3,0-5,0c-0.3,0-0.5,0-0.5-0.5c-0.3-0.5-0.5-1.3-0.5-1.8c-0.3-0.5,0-1,0.3-1.3c0.5-0.8,1.3-1.3,1.8-1.8
			c0.8-0.5,1.3-1.3,2-2l0.3-0.3v-0.3c0-0.8-0.3-1.3-0.8-1.8c-0.8-0.8-1.5-1.5-2.5-2.3c-1.8-1.3-3.3-2.5-4.8-3.8
			C567.6,57.8,567.1,57.3,566.6,56.7z"/>
		<path class="st1" d="M556.3,66.3c2.8-1,5.5-1,8.3,0.3c2.8,1.3,4.3,3.5,5,6.3c0.8,2.5,0.3,5-0.8,7.5c-1.3,2.8-3.3,4.8-6,6.3
			c-1.5,0.8-3.3,1.3-5,1.3c-3,0-7-1.8-8.5-5.5c-0.8-2-1.3-4-0.8-6.3c0.3-0.8,0.5-1.5,0.8-2.3c0.5-1.3,1-2.5,1.8-3.5
			C552.3,68.5,554.1,67,556.3,66.3z M556.3,69.1c-0.5,0.3-1.5,0.8-2,1.3c-1.5,1.3-3,2.8-3.3,5c0,0.5-0.3,0.8-0.3,1.3
			c-0.3,1-0.3,2,0,3c0.5,2.8,2.8,5,5.5,5.5c1.3,0.3,2.3,0,3.5-0.3c3.3-1,5.3-3,6.5-6.3c0.8-1.8,0.8-3.5,0.5-5.3
			c-0.8-2.5-2.8-4.5-5.3-4.8C559.6,68,558.1,68.3,556.3,69.1z"/>
		<path class="st2" d="M556.6,68.5c2-0.8,3.5-1,5.3-0.8c2.8,0.5,5,2.5,5.8,5.3c0.5,2,0.3,4-0.5,5.8c-1.3,3.5-3.8,5.8-7.3,6.8
			c-1.3,0.5-2.5,0.5-3.8,0.3c-3-0.5-5.5-2.8-6-6c-0.3-1-0.3-2.3,0-3.3c0-0.5,0.3-1,0.5-1.3c0.5-2.3,2-4,3.8-5.5
			C555.1,69.3,556.1,68.8,556.6,68.5z"/>
	</g>
	<g>
		<path class="st2" d="M602.3,75.6c-1,0.3-2.3,0.8-3.5,1c-0.5,0-1,0.3-1.5,0.3c-0.8,0-1.3-0.3-1.5-1c-0.3-0.5-0.5-1-0.5-1.5
			c-0.3-1.3-0.5-2.8-0.5-4v-0.3c0-0.3-0.3-0.3-0.3-0.3c-0.3,0-0.3,0-0.5,0.3c-0.5,0.8-1.3,1.8-1.8,2.5c-0.5,0.8-1.3,1.8-1.8,2.5
			c-0.3,0.3-0.3,0.3-0.5,0.5c-0.3,0.3-0.3,0.3-0.5,0c0,0,0,0-0.3,0c-2-1.8-4-3.5-5.8-5.3c-0.5-0.5-1-1-1.3-1.5
			c-0.3-0.3-0.3-0.5-0.5-0.8c-0.3-0.5-0.3-1,0-1.8c0.3-0.5,0.8-1,1-1.3c0.8-0.8,1.5-1.3,2.3-1.8c0.5-0.3,0.8-0.5,1.3-0.8
			c0,0,0.3,0,0.3-0.3l0.3-0.3c0-0.3-0.3-0.3-0.3-0.3c-1.5,0-3-0.3-4.5-0.3c-0.8,0-1.3-0.3-2-0.3c-0.3,0-0.5,0-0.5-0.3
			c-0.3,0-0.3-0.3-0.3-0.5v-0.3c0.5-2.5,1-5.3,1.8-7.8c0.3-0.5,0.3-1.3,0.5-1.8c0-0.3,0.3-0.5,0.3-0.8c0.3-0.5,1-0.8,1.5-0.8
			c0.5,0,1,0,1.8,0.3c1,0.3,1.8,0.8,2.8,1c0.3,0,0.5,0.3,0.5,0.3h0.3c0.3-0.3,0.3-0.3,0.5-0.5c0.3-0.3,0.3-0.3,0-0.5
			c-0.3-0.8-0.8-1.5-1-2.3c-0.5-0.8-0.8-1.8-1-2.5c0-0.3,0-0.5-0.3-0.8c0,0,0,0,0-0.3c0-0.5,0.3-0.8,0.5-1c1-0.5,1.8-1,2.8-1.3
			c0.8-0.3,1.5-0.5,2-0.8c0,0,0,0,0.3,0c1-0.3,2-0.8,3-0.8c0.5,0,1.3-0.3,1.8-0.3c0.8,0,1.5,0.5,1.8,1.3c0.3,0.5,0.5,1.3,0.5,1.8
			c0,0.5,0.3,0.8,0.3,1.3c0,0.8,0.3,1.5,0.3,2.3c0,0.3,0,0.3,0.3,0.3c0.3,0,0.8,0.3,1,0.3c0.3,0,0.3,0,0.3,0
			c0.5-0.5,0.8-1.3,1.3-1.8c0.5-0.8,1-1.5,1.5-2c0.3-0.3,0.3-0.3,0.5-0.5c0.3,0,0.3,0,0.5,0c1.8,1,3.3,2.3,4.8,3.5
			c0.8,0.8,1.5,1.5,2,2.3c0.3,0.5,0.8,1,1,1.5c0.3,0.5,0.3,1,0.3,1.5v0.3c-0.3,0.8-0.8,1.3-1.5,1.8c-0.5,0.5-1.3,1-2,1.5
			c-0.3,0.3-0.5,0.5-0.8,0.8c0,0,0,0,0,0.3c0,0.3,0,0.5,0,0.8c0,0.3,0,0.3,0.3,0.3c0.3,0,0.8,0,1,0c1,0,2,0,3,0.3
			c0.5,0,1,0.3,1.5,0.3c0.3,0,0.5,0,0.5,0.3c0.3,0,0.3,0.3,0.3,0.5v0.3c-0.5,2.5-1,5-1.8,7.5c-0.3,0.8-0.3,1.3-0.5,2
			c0,0.3-0.3,0.5-0.3,0.8c-0.3,0.5-0.8,0.8-1.5,0.8c-0.5,0-1.3-0.3-1.8-0.3c-0.8-0.3-1.8-0.8-2.5-1c-0.3-0.3-0.5-0.3-0.8-0.5
			c-0.3,0-0.5-0.3-0.8-0.3c-0.3,0-0.3,0-0.3,0.3c0,0.3,0,0.3,0,0.5c0.5,1,1,2,1.5,3c0.3,0.8,0.5,1.5,0.8,2c0,0.3,0,0.3,0,0.5
			s-0.3,0.5-0.5,0.8c0,0-0.3,0-0.3,0.3c-1.3,0.5-2.5,1-4,1.3C602.8,75.3,602.5,75.3,602.3,75.6z"/>
		<path class="st1" d="M602.3,75.6c-1,0.3-2.3,0.8-3.5,1c-0.5,0-1,0.3-1.5,0.3c-0.8,0-1.3-0.3-1.5-1c-0.3-0.5-0.5-1-0.5-1.5
			c-0.3-1.3-0.5-2.8-0.5-4v-0.3c0-0.3-0.3-0.3-0.3-0.3c-0.3,0-0.3,0-0.5,0.3c-0.5,0.8-1.3,1.8-1.8,2.5c-0.5,0.8-1.3,1.8-1.8,2.5
			c-0.3,0.3-0.3,0.3-0.5,0.5c-0.3,0.3-0.3,0.3-0.5,0c0,0,0,0-0.3,0c-2-1.8-4-3.5-5.8-5.3c-0.5-0.5-1-1-1.3-1.5
			c-0.3-0.3-0.3-0.5-0.5-0.8c-0.3-0.5-0.3-1,0-1.8c0.3-0.5,0.8-1,1-1.3c0.8-0.8,1.5-1.3,2.3-1.8c0.5-0.3,0.8-0.5,1.3-0.8
			c0,0,0.3,0,0.3-0.3l0.3-0.3c0-0.3-0.3-0.3-0.3-0.3c-1.5,0-3-0.3-4.5-0.3c-0.8,0-1.3-0.3-2-0.3c-0.3,0-0.5,0-0.5-0.3
			c-0.3,0-0.3-0.3-0.3-0.5v-0.3c0.5-2.5,1-5.3,1.8-7.8c0.3-0.5,0.3-1.3,0.5-1.8c0-0.3,0.3-0.5,0.3-0.8c0.3-0.5,1-0.8,1.5-0.8
			c0.5,0,1,0,1.8,0.3c1,0.3,1.8,0.8,2.8,1c0.3,0,0.5,0.3,0.5,0.3h0.3c0.3-0.3,0.3-0.3,0.5-0.5c0.3-0.3,0.3-0.3,0-0.5
			c-0.3-0.8-0.8-1.5-1-2.3c-0.5-0.8-0.8-1.8-1-2.5c0-0.3,0-0.5-0.3-0.8c0,0,0,0,0-0.3c0-0.5,0.3-0.8,0.5-1c1-0.5,1.8-1,2.8-1.3
			c0.8-0.3,1.5-0.5,2-0.8c0,0,0,0,0.3,0c1-0.3,2-0.8,3-0.8c0.5,0,1.3-0.3,1.8-0.3c0.8,0,1.5,0.5,1.8,1.3c0.3,0.5,0.5,1.3,0.5,1.8
			c0,0.5,0.3,0.8,0.3,1.3c0,0.8,0.3,1.5,0.3,2.3c0,0.3,0,0.3,0.3,0.3c0.3,0,0.8,0.3,1,0.3c0.3,0,0.3,0,0.3,0
			c0.5-0.5,0.8-1.3,1.3-1.8c0.5-0.8,1-1.5,1.5-2c0.3-0.3,0.3-0.3,0.5-0.5c0.3,0,0.3,0,0.5,0c1.8,1,3.3,2.3,4.8,3.5
			c0.8,0.8,1.5,1.5,2,2.3c0.3,0.5,0.8,1,1,1.5c0.3,0.5,0.3,1,0.3,1.5v0.3c-0.3,0.8-0.8,1.3-1.5,1.8c-0.5,0.5-1.3,1-2,1.5
			c-0.3,0.3-0.5,0.5-0.8,0.8c0,0,0,0,0,0.3c0,0.3,0,0.5,0,0.8c0,0.3,0,0.3,0.3,0.3c0.3,0,0.8,0,1,0c1,0,2,0,3,0.3
			c0.5,0,1,0.3,1.5,0.3c0.3,0,0.5,0,0.5,0.3c0.3,0,0.3,0.3,0.3,0.5v0.3c-0.5,2.5-1,5-1.8,7.5c-0.3,0.8-0.3,1.3-0.5,2
			c0,0.3-0.3,0.5-0.3,0.8c-0.3,0.5-0.8,0.8-1.5,0.8c-0.5,0-1.3-0.3-1.8-0.3c-0.8-0.3-1.8-0.8-2.5-1c-0.3-0.3-0.5-0.3-0.8-0.5
			c-0.3,0-0.5-0.3-0.8-0.3c-0.3,0-0.3,0-0.3,0.3c0,0.3,0,0.3,0,0.5c0.5,1,1,2,1.5,3c0.3,0.8,0.5,1.5,0.8,2c0,0.3,0,0.3,0,0.5
			s-0.3,0.5-0.5,0.8c0,0-0.3,0-0.3,0.3c-1.3,0.5-2.5,1-4,1.3C602.8,75.3,602.5,75.3,602.3,75.6z M605,42.9c0,0.3-0.3,0.3-0.3,0.3
			c-0.5,0.8-0.8,1.3-1.3,2c-0.5,0.8-1,1.5-1.8,2.3c-0.3,0.3-0.5,0.3-0.8,0.3c-0.3,0-0.3,0-0.5,0c-0.5-0.3-1.3-0.5-1.8-0.8l-0.3-0.3
			c-0.3-0.3-0.3-0.8-0.3-1c0-0.3,0-0.5,0-0.8c0-0.8-0.3-1.5-0.3-2.3c0-0.3,0-0.5-0.3-1c-0.3-0.3-0.3-0.5-0.8-0.5c-0.3,0-0.5,0-0.8,0
			c-1,0.3-2.3,0.5-3.3,0.8c-0.8,0.3-1.5,0.3-2,0.5c-0.5,0.3-1.3,0.5-1.8,0.8c-0.3,0.3-0.8,0.3-1,0.5c-0.3,0-0.3,0.3-0.3,0.5
			c0.3,0.5,0.5,1,0.8,1.3c0.8,1.3,1.3,2.5,1.8,4c0.3,0.5,0,0.8,0,1l0,0c-0.3,0.3-0.5,0.5-0.8,0.8c-0.3,0.3-0.5,0.3-1,0.3
			c-0.5-0.3-1-0.5-1.5-0.8c-0.8-0.5-1.8-0.8-2.8-1.3c-0.3,0-0.8-0.3-1-0.3c-0.3,0-0.5,0.3-0.8,0.5c-0.3,0.3-0.3,0.5-0.5,1
			c0,0.3,0,0.3,0,0.5c0,0.5,0,1-0.3,1.8c-0.5,1.8-0.5,3.8-0.5,5.5c0,0.3,0,0.3,0.3,0.3c1,0.3,2,0.5,3.3,0.8c0.8,0.3,1.5,0.3,2.3,0.5
			c0.3,0,0.3,0,0.3,0.3c0.3,0.3,0.5,0.8,0.5,1.3c0,0.3-0.3,0.8-0.5,1c-1.3,0.8-2.3,1.8-3.5,2.8c-0.3,0.3-0.5,0.5-0.8,0.8
			c-0.3,0.3-0.3,0.3-0.3,0.5s0,0.3,0,0.5c0.8,0.8,1.3,1.3,2,2c0.8,0.8,1.3,1.3,2,1.8c0.8,0.8,1.8,1.3,2.5,2c0.3,0,0.3,0,0.3,0
			c0.8-0.8,1.3-1.5,2-2.3c0.5-0.8,1.3-1.3,1.8-1.8c0.3-0.3,0.5-0.5,0.8-0.5c0.5-0.3,1-0.3,1.5,0.3c0.3,0.3,0.3,0.5,0.3,0.8
			c0,0.3,0.3,0.5,0.3,0.8c0,0.5,0,1,0.3,1.5c0,1,0.3,2,0.3,2.8c0,0.3,0,0.5,0.3,0.8c0,0,0,0.3,0.3,0c0.5,0,1,0,1.3,0
			c0.8-0.3,1.8-0.5,2.5-0.8c1.3-0.3,2.5-0.8,3.8-1.3c0.5-0.3,0.8-0.3,1.3-0.5c0.3-0.3,0.5-0.5,0.3-0.8c0-0.5-0.3-1-0.5-1.3
			c-0.3-0.3-0.3-0.5-0.3-0.8c-0.3-0.8-0.8-1.5-1-2.3c-0.3-0.5-0.3-0.8-0.3-1.3c0-0.5,0.5-1.3,1.3-1.3c0.3,0,0.5,0,0.8,0.3
			c0.3,0,0.3,0,0.5,0.3c1.3,0.3,2.3,0.3,3.5,0.5c0.5,0,0.8,0,1.3,0h0.3c0.3-0.3,0.8-0.8,0.8-1.3c0-0.3,0.3-0.5,0.3-0.8
			c0.3-0.5,0.3-1,0.5-1.3c0.3-1.3,0.8-2.3,1-3.5c0-0.5,0.3-1,0.3-1.5c0-0.3,0-0.3-0.3-0.3c-0.5,0-1.3,0-1.8-0.3
			c-1.3,0-2.5-0.3-4-0.3c-0.3,0-0.3,0-0.5-0.3c0-0.5-0.3-1-0.3-1.5s0-0.8,0.3-1c0.5-0.5,1-1,1.8-1.3c0.5-0.5,1.3-1,1.8-1.3l0.3-0.3
			c0,0,0,0,0-0.3c0-0.5-0.3-1-0.5-1.5c-0.5-0.8-1-1.5-1.8-2c-1.3-1-2.3-2.3-3.5-3.5C605.8,43.9,605.3,43.4,605,42.9z"/>
		<path class="st1" d="M596,49.5c2.3-0.8,4.5-0.5,6.5,1c2,1.3,3.3,3.3,3.5,5.5c0.3,2-0.3,4-1.3,5.8c-1.3,2-3,3.5-5.3,4.5
			c-1.3,0.5-2.8,0.8-4.3,0.5c-2.5-0.3-5.3-2-6.3-5c-0.5-1.8-0.5-3.3,0-5c0.3-0.8,0.5-1.3,0.8-1.8c0.5-1,1-1.8,1.8-2.5
			C592.7,51,594.2,50,596,49.5z M595.7,51.7c-0.5,0.3-1.3,0.5-1.8,0.8c-1.3,1-2.5,2-3,3.5c0,0.3-0.3,0.5-0.5,1
			c-0.3,0.8-0.3,1.5-0.3,2.3c0,2.3,1.8,4.3,3.8,4.8c1,0.3,1.8,0.3,2.8,0c2.5-0.5,4.5-2,5.8-4.3c0.8-1.3,1-2.8,0.8-4.3
			c-0.3-2-1.8-3.8-3.8-4.3C598.5,51.2,597.2,51.5,595.7,51.7z"/>
		<path class="st2" d="M596.2,51.5c1.5-0.5,3-0.5,4.3-0.3c2.3,0.5,3.8,2.3,4,4.8c0.3,1.8,0,3.3-0.8,4.5c-1.3,2.5-3.5,4.3-6.3,4.8
			c-1,0.3-2,0.3-3,0c-2.5-0.5-4-2.8-4.3-5.3c0-0.8,0-1.8,0.3-2.5c0-0.3,0.3-0.8,0.5-1c0.5-1.8,1.8-3,3.3-4
			C595,51.7,595.7,51.5,596.2,51.5z"/>
	</g>
</g>
<path class="st4" d="M306.4,223.1c-11.2,0-22.4,0-33.6,0c-3.7,0-6.3-2-6.5-4.9c-0.2-3.2,2-5.5,5.8-6c0.8-0.1,1.6-0.1,2.4-0.1
	c21.3,0,42.5,0,63.8,0c1.1,0,2.3,0.1,3.4,0.3c3.1,0.6,4.9,3,4.7,5.8c-0.3,2.7-2.7,4.8-5.8,4.9C329.2,223.1,317.8,223.1,306.4,223.1z
	"/>
<path class="st4" d="M248.6,204.4c-6.8,0-13.5,0-20.3,0c-3.7,0-6.3-2.2-6.4-5.3c-0.1-3.1,2.5-5.6,6.2-5.7c13.8-0.1,27.6-0.1,41.4,0
	c3.6,0,6.1,2.6,6,5.8c-0.1,3.1-2.6,5.2-6.2,5.2C262.3,204.4,255.4,204.4,248.6,204.4z"/>
<path class="st12" d="M319.7,204.4c-6.7,0-13.3,0-20,0c-4,0-6.5-2.1-6.5-5.5c0-3.1,2.5-5.5,6.3-5.5c13.5-0.1,27-0.1,40.5,0
	c3.9,0,6.5,2.4,6.4,5.7c-0.1,3.1-2.7,5.3-6.5,5.3C333.2,204.4,326.4,204.4,319.7,204.4z"/>
<path class="st4" d="M390.4,223.1c-6.7,0-13.3,0-20,0c-3.5,0-5.9-1.9-6.2-4.9c-0.3-2.8,2-5.3,5.3-5.9c0.7-0.1,1.4-0.2,2.1-0.2
	c12.6,0,25.3,0,37.9,0c2.8,0,5.3,0.6,6.8,3.1c2,3.6-0.6,7.8-5,7.8C404.2,223.2,397.3,223.1,390.4,223.1z"/>
<path class="st12" d="M249.9,250.7c-6.2,0-12.5,0-18.7,0c-4,0-6.6-2.2-6.6-5.4c0-3.2,2.6-5.5,6.6-5.5c7.7-0.1,15.3,0,23,0
	c4.9,0,9.8-0.1,14.7,0c4.6,0.1,7.4,3.3,6.3,7c-0.7,2.4-2.9,3.9-5.8,3.9C262.9,250.7,256.4,250.7,249.9,250.7z"/>
<path class="st13" d="M457.8,223.1c-5.6,0-11.2,0-16.8,0c-3.6,0-6.2-2.1-6.4-5.1c-0.2-3.2,2.2-5.7,5.9-5.8c11.7-0.1,23.3-0.1,35,0
	c3.8,0,6.2,2.5,6.1,5.7c-0.1,3.1-2.7,5.2-6.5,5.2C469.3,223.1,463.6,223.1,457.8,223.1z"/>
<path class="st12" d="M314.3,250.7c-5,0-10,0-15,0c-3.7,0-6.1-2.1-6.2-5.2c-0.1-3.1,2.3-5.6,5.8-5.7c10.4-0.1,20.8-0.1,31.3,0
	c3.6,0,5.9,2.6,5.8,5.7c-0.1,3.1-2.5,5.2-6.2,5.2C324.7,250.7,319.5,250.7,314.3,250.7z"/>
<path class="st13" d="M373.3,250.7c-4.4,0-8.7,0-13.1,0c-3.7,0-6.1-2-6.3-5.1c-0.2-3.3,2.1-5.6,5.9-5.8c2.8-0.2,5.7,0,8.5,0
	c6.2,0,12.5-0.1,18.7,0c3.2,0,5.5,1.9,5.9,4.5c0.5,2.8-0.8,5.1-3.4,6.1c-0.9,0.4-1.9,0.4-2.9,0.4
	C382.2,250.7,377.7,250.7,373.3,250.7z"/>
<path class="st4" d="M512.9,223.1c-2.6,0-5.2,0-7.7,0c-3.1-0.1-5.5-2.1-5.8-4.8c-0.3-2.8,1.7-5.5,4.7-5.8c6-0.7,12.1-0.7,18.1,0
	c2.9,0.4,4.7,2.9,4.5,5.7c-0.2,2.7-2.5,4.8-5.4,4.9c-0.2,0-0.4,0-0.5,0C518,223.1,515.4,223.1,512.9,223.1z"/>
<path class="st12" d="M235.3,223.1c-2.6,0-5.1,0.1-7.7,0c-3.1-0.1-5.4-2.1-5.7-4.9c-0.3-2.8,1.7-5.5,4.7-5.7
	c5.7-0.5,11.5-0.5,17.3,0c3,0.3,4.9,3,4.6,5.8c-0.3,2.7-2.5,4.8-5.5,4.8C240.4,223.2,237.9,223.1,235.3,223.1z"/>
<path class="st12" d="M377.3,204.4c-2.5,0-5,0.1-7.5,0c-3.1-0.1-5.4-2.1-5.7-5c-0.2-2.7,1.6-5.3,4.5-5.6c5.7-0.7,11.4-0.6,17,0
	c3.1,0.3,4.8,2.9,4.6,5.9c-0.3,2.8-2.6,4.8-5.8,4.8C382.1,204.5,379.7,204.4,377.3,204.4z"/>
<path class="st14" d="M408,234.6c1,0,1.4,0.5,1.8,1c2.3,2.8,4.5,5.6,6.8,8.3c1.2,1.4,1,2.5-0.4,3.6c-3.2,2.6-6.4,5.3-9.6,7.9
	c-0.8,0.7-1.7,1.3-2.6,0.6c-1-0.8,0-1.7,0.6-2.3c2-2.2,4-4.5,6.2-6.5c1.4-1.3,1.7-2.4,0.6-4.1c-1.4-2.1-2.5-4.4-3.8-6.6
	C407.2,235.6,407.2,234.9,408,234.6z"/>
<path class="st14" d="M213.5,187.2c0.5,0.1,1.1,0,1.2,0.5c0.1,0.6-0.2,1.1-0.7,1.5c-2.3,2.1-4.6,4.2-7,6.2c-1.2,0.9-1.3,1.8-0.7,3
	c1.1,2.7,2,5.5,3.1,8.3c0.3,0.7,0.5,1.5-0.4,2c-1.1,0.6-1.6-0.3-2-1c-1.8-3.4-3.7-6.9-5.5-10.3c-0.6-1.2-0.7-2.2,0.6-3.1
	c3.4-2.2,6.9-4.4,10.3-6.6C212.7,187.5,213.1,187.3,213.5,187.2z"/>
<g>
	<path class="st2" d="M605.2,332.3c0.1-1.5,11.2-3.6,20.1-4c8.9-0.4,15.5-0.7,16,0.2s-1.2,16.2-14.5,16.3
		C613.4,345.1,605.1,335.6,605.2,332.3z"/>
	<path class="st1" d="M645.1,350.6c0-2.4,0-4.8-0.1-7.2c0-0.5-0.1-1-0.1-1.5c0-0.3-0.1-0.5-0.1-0.7l0,0c0-0.3-0.1-0.5-0.1-0.7
		c-0.1-0.5,0-0.8-0.1-1.2c0-0.1,0-0.2,0-0.3c0-0.5-0.1-1.1-0.2-1.7c-0.1-0.6-0.2-1.3-0.2-1.8l0,0c-0.2-1.7-0.4-3.3-0.7-5
		c-0.5-2.8-0.7-3.2-3.2-3.1c-6.1,0-12.1-0.1-18.2,0.2c-0.5,0.1-1,0.1-1.4,0l0,0c-0.2,0-0.5,0.1-0.6,0.1l0,0l0,0
		c-0.3,0-0.5,0-0.7,0.1c0,0,0,0-0.1,0c-0.1,0-0.3,0-0.4,0.1c-0.5,0.1-0.9,0.1-1.4,0.2c-0.3,0-0.5,0-0.7,0.1c-0.3,0-0.6,0.1-0.9,0.1
		c-0.3,0.1-0.6,0.1-0.9,0.1c-0.1,0-0.1,0-0.2,0c-0.1,0-0.2,0-0.2,0c-0.1,0-0.2,0-0.3,0c-0.1,0-0.2,0-0.3,0c-0.2,0-0.3,0.1-0.5,0.1
		c-0.2,0-0.4,0.1-0.5,0.1l0,0c-0.2,0-0.3,0-0.4,0.1c-0.2,0-0.3,0.1-0.4,0.1l-0.1,0c-0.3,0.1-0.6,0.1-0.9,0.2c-0.1,0.1-0.3,0-0.4,0.1
		s-0.3,0-0.4,0.1l0,0c-0.1,0.1-0.3,0-0.4,0.1c-0.3,0-0.5,0.1-0.7,0.2c-0.1,0.1-0.3,0-0.4,0.1c-0.1,0-0.2,0-0.3,0.1
		c-0.1,0-0.1,0-0.2,0c-0.2,0-0.5,0.1-0.7,0.2c-0.3,0.1-0.6,0.2-0.9,0.3c-0.3,0.2-0.7,0.3-1,0.3c-0.6,0.3-1.1,0.4-1.4,0.7
		c-0.1,0.1-0.1,0.1-0.2,0.1c-0.1,0.1-0.1,0.1-0.1,0.1c0,0-0.1,0.1-0.1,0.1l0,0c0,0,0,0.1,0,0.2c0,0,0,0.1,0,0.2s0,0.1,0,0.2l0,0.1
		c0,0,0,0.1,0,0.2c0,0.3-0.1,0.7-0.1,1.1c0,0.1,0,0.3,0,0.4c0.1,0.6,0.1,1.4,0.1,2c0.1,1.4,0.1,2.6,0.1,4c0.1,0.6,0.1,1.4,0.1,2
		c0.1,0.6,0.1,1.4,0.2,2c0.1,1.5,0.3,2.9,0.4,4.5c0,0.5,0.1,1,0.1,1.5c0.1,0.5,0.1,0.8,0.2,1.2c0,0.1,0,0.2,0,0.3
		c0,0.2,0.1,0.5,0.1,0.6c0,0.3,0.1,0.6,0.1,0.8l0,0c0.1,0.6,0.2,1.2,0.2,1.8c0,0.5,0.1,1,0.2,1.5c0.2,1.7,0.5,1.9,2.1,1.9
		c0.2,0,0.5-0.1,0.7,0c0.8-0.1,1.5-0.2,2.2-0.3l0,0c0.8,0,1.7-0.2,2.5-0.2c0.6,0,1.2,0,1.7-0.1c4.6-0.2,9.3-0.6,14-1
		c0.6-0.1,1.4-0.2,2-0.2c1-0.1,2-0.2,3-0.2c0.9,0,1.7-0.1,2.6-0.2c1.9-0.1,3.7-0.3,5.6-0.9C644.1,354.2,645,352.9,645.1,350.6z
		 M606.6,332.2c1-0.5,1.9-0.9,3-1.1c3.6-0.9,7.1-1.4,10.7-1.8c0.2,0,0.4-0.1,0.6-0.1l0,0c1.9-0.2,3.8-0.3,5.7-0.3
		c4.4-0.1,8.7-0.3,13.1-0.3c0.2,0,0.4,0,0.5,0.3c-1.2,1.8-2.5,3.7-3.8,5.5l0,0c-0.4,0.6-0.9,1.2-1.4,1.7c-1.4,1.7-2.9,3.1-4.9,4.3
		c-0.3,0.2-0.6,0.4-0.8,0.5c-0.3,0.2-0.6,0.3-0.8,0.4c-1.7,0.7-3.6,0.9-5.5,0.4c-5.1-1.2-10-3.1-14.5-6.4c-0.7-0.6-1.5-1.1-2.1-1.9
		C606,332.9,606.1,332.5,606.6,332.2z"/>
	<path class="st2" d="M641.1,330.4c0.5,7.1,1.4,14.5,1.7,21.7l0,0c-11.3,1.1-23,2.2-34.3,4c2.5-4.8,5.4-8.7,8.9-12.4
		c-1.5,0.4-2.8,1.6-5.5,5.3c-1.5,2-2.8,4.2-4.4,6.7c-0.7-7.3-1.7-14.1-2.1-20.9c0.5-0.2,0.8,0.3,1.1,0.6c4.7,4.3,10.1,6.7,15.9,8
		c3.2,0.7,6.1-0.5,8.8-2.3c2.2-1.4,4.1-3.4,5.7-5.6c1.3-1.8,2.5-3.7,3.8-5.5C640.8,330.2,641,330.3,641.1,330.4z"/>
	<path class="st1" d="M642.1,352.9c-0.6-2.3-6.5-9.2-9.1-11.4c0,0,0.9-0.2,3.3,2.3c2.4,2.4,7.1,7.9,7.1,7.9S642.5,354.5,642.1,352.9
		z"/>
</g>
</svg>
