<?xml version="1.0" encoding="utf-8"?>
<!-- Generator: Adobe Illustrator 23.0.2, SVG Export Plug-In . SVG Version: 6.00 Build 0)  -->
<svg version="1.1" id="Layer_1" xmlns="http://www.w3.org/2000/svg" xmlns:xlink="http://www.w3.org/1999/xlink" x="0px" y="0px"
	 viewBox="0 0 800 550" style="enable-background:new 0 0 800 550;" xml:space="preserve">
<style type="text/css">
	.st0{fill:#F4F4EF;}
	.st1{fill:#FFFFFF;}
	.st2{fill:#365068;}
	.st3{fill:#0F997F;}
	.st4{fill:none;stroke:#365068;stroke-width:0.9965;stroke-linecap:round;stroke-linejoin:round;stroke-dasharray:2.9895,2.9895;}
	.st5{fill:none;stroke:#1A2E44;stroke-width:0.9965;stroke-linecap:round;stroke-linejoin:round;stroke-dasharray:2.9895,2.9895;}
	.st6{fill:none;stroke:#FFFFFF;stroke-width:1.0176;stroke-linecap:round;stroke-linejoin:round;stroke-miterlimit:10;}
	.st7{fill:none;stroke:#FFFFFF;stroke-linecap:round;stroke-linejoin:round;stroke-miterlimit:10;}
	.st8{fill:none;stroke:#0F997F;stroke-linecap:round;stroke-linejoin:round;stroke-miterlimit:10;}
	.st9{fill:#1A2E44;}
	.st10{fill:#52B4A1;}
	.st11{fill:#0F987E;}
</style>
<g id="Слой_2">
</g>
<g id="Слой_1">
	<path class="st0" d="M369.4,26.1c144.4,0,323.6,124.6,323.6,264c0,139.2-138.5,240.2-282.9,240.2S148.5,417.4,148.5,278.2
		S225,26.1,369.4,26.1z"/>
	<g>
		<g>
			<path class="st1" d="M69.9,172.7c0.5-34.5-15.6-40.7,35-47.9s439.9,5.7,439.9,5.7s-7.9,201.7-3.2,255.3
				c1.5,17.9-16.6,29-67.7,22.3c-44.9-5.7-169.7,12.9-255.6,6.7s-109.4,4.2-125.6-10.4c-16.1-14.6-20.3-41.2-18.6-78.7
				C76.1,288.1,69.9,181.7,69.9,172.7z"/>
			<path class="st2" d="M69.9,172.7c0.5-34.5-15.6-40.7,35-47.9s63.5,5.7,63.5,5.7s0.5,229.5,5.5,283.1c-29.8-3-66.5,1.5-81.1-9.2
				c-17.6-12.9-20.3-41.2-18.6-78.7C76.1,288.1,69.9,181.7,69.9,172.7z"/>
			<path class="st3" d="M74.1,108.5c6.7-12.9,29-13.2,66.2-14.1c37.2-1,306.7-6,379.9,3.2c0,0,19.4,5,21.6,16.4s2.5,22.6,2.5,22.6
				s-74.9-5.2-127-6.7c-52.1-1.5-125.8,1-157.8,2.7c-32,1.7-183.4,3.5-187.8,3.7C67.1,136.5,74.1,108.5,74.1,108.5z"/>
			<path class="st2" d="M542.3,327.8c0.7-26.5,1-95,2-121.6c1-25.3,4.2-45.4,2.7-70.5c-0.7-14.9-1.5-33.7-20.3-39.5
				c-9.2-2.7-19.4-3-29-3.7c-14.4-1-53.1-2-67.7-2.7c-29.5-1.5-58.8-2.5-88.1-3c-57.6-1-139.2,0.2-196.8,1.7
				c-15.4,0.2-37.7-3-52.6,1.5c-12.9,3.7-21.8,11.9-25.8,23.1c-2,5.5-3.5,161.8,1.5,214.1c1,11.4,1.2,20.1,1,31.5
				c-0.2,10.4-0.2,21.6,4,31.5c5.7,13.6,19.1,21.3,34.5,24.3c16.4,3.5,39.2,5.2,55.8,4.2c22.3-1.5,68.5,1,90.8,0.5
				c29.3-1,58.3,0.5,87.1-1.2c29.3-1.7,58.6-2.2,87.6-3c12.9-0.2,25.6-0.7,38.5,0.2c10.2,0.7,44.9-0.5,55.1-2
				c17.4-2.7,21.3-21.6,21.6-35c0-7.7-0.7-15.4-1.5-23.3C541.6,346.2,542.1,337,542.3,327.8z M538.8,380.9
				c-0.2,6.2-0.7,13.9-5.2,19.4c-5.5,6.2-19.9,6.2-27.8,6.5c-27.3,0.2-100.7-0.7-134,1c-28,1.5-56.1,1-84.4,2.2
				c-26.5,1-77.2-1.5-103.7-0.5c-15.6,0.7-31.3-0.5-46.6-0.7c-14.9-0.2-32.3-2.2-43.9-11.7c-16.1-12.9-13.6-34.2-13.4-51.6
				c0.2-10.9-1-14.1-1.7-25.3c-1-12.7-2-67-2.7-79.6c-1.5-25.1-1.5-102.7-1.5-104c0.2-12.4,2-27.3,14.1-34.7
				c11.2-6.7,26.5-6.9,39.7-7.2c51.6-1.7,127.8-2.7,179.6-2.5c56.1,0.2,136.2,2,192.1,6.2c8.7,0.7,18.1,1,26.1,4
				c6.5,2.5,10.7,6.9,12.7,13.2c3.7,10.4,3.5,22.1,3.5,32.5c0,12.2-0.7,24.3-1.5,36.5c-1.7,24.8-2.2,44.4-2.7,69.2
				C537.4,266.5,536.9,352.9,538.8,380.9z"/>
			<path class="st2" d="M543.1,130.6c-11.9,2.2-23.6,0.5-35.5-1c-13.6-1.5-51.1-1.2-65-1.2c-28.5,0-57.1-0.5-85.6-0.2
				c-28.3,0-56.6,0-84.9,1.2c-28,1.2-80.4,2.2-108.4,3c-15.6,0.5-31.8,1-47.6,1.2c-7.4,0-14.6,0-22.3-0.2
				c-6.5-0.2-13.4-0.7-19.9,1.2c-2.7,0.7-4.2,6.5-0.7,5.5c6-1.7,12.4-1.5,18.6-1.2c6.5,0.2,13.4,0.2,19.9,0.2
				c13.9,0,27.8-0.5,41.7-1c28.3-1,80.6-1.7,108.9-3c56.6-2.5,113.4-1.7,169.7-1.2c15.4,0,55.3-0.7,70.7,1
				c13.2,1.5,25.8,3.5,39.2,1.2C545.3,135.8,546.8,130.1,543.1,130.6z"/>
			<path class="st2" d="M106.4,107.2c0-0.2-0.2-0.2-0.5-0.5s-0.7-0.7-1-0.7c-0.7-0.5-2.7-0.7-3.2-0.7c-1.7-0.2-3.2,0.5-4.7,1.2
				c-1.7,1-2.7,3-3.5,4.7c-0.2,0.7-0.5,1.5-0.7,2.2c0,0.7-0.2,1.2,0,2c0,0.7,0.2,1,0.5,1.7c0.2,0.5,0.5,1,0.7,1.2
				c0.7,0.7,1.7,1.2,2.7,1.5c0.7,0.2,2,0.2,2.7,0C106.1,119.2,109.8,112.2,106.4,107.2z"/>
			<path class="st2" d="M131.4,106.7c-0.2-0.2-0.2-0.2-0.5-0.5s-0.7-0.5-1-0.7c-0.7-0.2-3-0.2-3.2-0.2c-1.7,0-3.2,0.7-4.5,2
				c-1.5,1.2-2.5,3.2-2.7,5.2c-0.2,0.7-0.2,1.5-0.2,2.2c0,0.7,0,1.2,0.2,2c0.2,0.7,0.5,1,0.7,1.7c0.2,0.5,0.7,0.7,1,1.2
				c0.7,0.7,1.7,1,3,1c0.7,0,2-0.2,2.5-0.5C132.4,118.9,135.6,111.5,131.4,106.7z"/>
			<path class="st2" d="M156.5,106.5c-0.2-0.2-0.2-0.2-0.5-0.2c-0.5-0.2-0.7-0.5-1-0.5c-0.7-0.2-3,0.2-3.2,0.2
				c-1.7,0.2-3,1.2-4.2,2.5c-1.2,1.5-2,3.7-2.2,5.5c0,0.7,0,1.7,0,2.2c0,0.7,0.2,1.2,0.5,2c0.2,0.5,0.5,1,0.7,1.5
				c0.2,0.5,0.7,0.7,1.2,1c1,0.7,2,0.7,3.2,0.7c0.7,0,1.7-0.5,2.5-0.7C159,118.2,160.9,110.5,156.5,106.5z"/>
		</g>
	</g>
	<g>
		<path class="st1" d="M40.6,451.4c18.1,21.3,48.4,25.3,71.5,9.4c21.3-14.6,39.7-42.2,27.5-68.2c-11.9-25.6-47.1-35-72.7-29.8
			c-12.4,2.5-24.6,10.9-32.8,20.1c-14.9,16.9-13.9,38.2-2.7,57.1C32.2,441.5,39.6,450.2,40.6,451.4z"/>
		<g>
			<path class="st2" d="M40.6,451.4c18.1,21.3,48.4,25.3,71.5,9.4c21.3-14.6,39.7-42.2,27.5-68.2c-11.9-25.6-47.1-35-72.7-29.8
				c-12.4,2.5-24.6,10.9-32.8,20.1c-14.9,16.9-13.9,38.2-2.7,57.1c0.7,1.5,3.2-0.7,2.5-2c-9.2-15.6-12.2-33.7-1.5-49.1
				c6.9-9.9,17.6-17.6,29-21.8c19.6-7.2,46.6-1.5,62.8,11.4c11.2,8.7,17.6,21.8,16.6,36.2c-1.2,14.4-10.4,26.8-20.6,36.5
				c-10.7,10.2-24.3,17.4-39.5,16.6c-14.6-0.7-28.3-7.9-38-18.9C41.6,447.7,39.6,450.2,40.6,451.4z"/>
			<path class="st2" d="M40.8,451.1c9.2,10.7,22.6,17.6,36.5,18.6c6.9,0.5,14.1-0.2,20.8-2.5c6.7-2.2,12.9-6,18.4-10.2
				c10.9-8.7,20.1-20.3,24.3-33.7c2-6.7,2.7-13.9,1.5-20.8c-1.2-6.9-4.5-13.4-8.9-18.9c-8.9-10.9-22.3-17.4-36.2-20.1
				c-6.9-1.5-13.9-2-21.1-1.5c-3.5,0.2-6.9,0.7-10.4,1.5c-3.5,0.7-6.7,2-9.9,3.5c-6.5,3-12.2,7.2-17.4,11.9c-2.5,2.5-5,5-6.9,7.9
				c-2,3-3.7,6-5.2,9.2c-2.7,6.5-3.7,13.6-3,20.6c0.7,6.9,3,13.9,6.2,20.1l1.2,2.2c0.2,0.5,0.5,0.7,0.7,1.2c0.2,0.2,0.7,0.5,1,0.2
				c0.7-0.2,1.5-1.2,1.2-2c-0.2-0.7-0.7-1.5-1.2-2.2c-1.7-3.2-3.2-6.5-4.5-9.7c-2.2-6.7-3.5-13.9-2.5-20.8c0.5-3.5,1.5-6.9,3-10.2
				c1.5-3.2,3.5-6.2,5.5-8.9c4.5-5.5,9.9-10.2,15.9-13.9c6-3.7,12.7-6.5,19.9-7.7c6.9-1.2,14.1-1.2,21.1,0c6.9,1,13.9,3,20.3,6
				c6.5,3,12.4,6.9,17.4,11.9c5,5.2,8.7,11.4,10.4,18.4c2,6.9,2,14.1,0,21.1c-2,6.9-5.5,13.2-9.9,18.9c-4.5,5.5-9.4,10.7-14.9,15.1
				c-5.5,4.5-11.9,7.9-18.6,9.9c-6.7,2.2-14.1,2.7-21.1,1.5c-6.9-1-13.9-3.7-19.9-7.4c-3-2-6-4-8.4-6.5c-1.2-1.2-2.5-2.5-3.7-3.7
				c-0.2-0.2-0.5-0.7-1-0.7c-0.2-0.2-0.7,0-1,0.2C40.6,449.7,40.6,450.6,40.8,451.1z M40.4,451.6c-0.5-0.5-0.5-1.2-0.2-1.7
				s0.5-1,1-1.2c0.5-0.2,1-0.5,1.5-0.2c0.5,0.2,0.7,0.7,1,1c1.2,1.2,2.5,2.5,3.7,3.7c2.5,2.5,5.5,4.5,8.4,6.5
				c6,3.7,12.7,6.5,19.6,7.4c6.9,1.2,14.1,0.7,20.8-1.5c6.7-2,12.9-5.7,18.6-9.9c5.5-4.5,10.4-9.4,14.9-15.1
				c4.2-5.5,7.9-11.9,9.7-18.6c2-6.7,2-14.1,0-20.8c-2-6.7-5.5-13.2-10.4-18.1c-5-5.2-10.9-8.9-17.4-11.9s-13.4-5-20.3-6
				c-6.9-1.2-14.1-1.2-21.1,0c-6.9,1.2-13.6,4-19.6,7.4c-6,3.7-11.4,8.2-15.9,13.9c-2.2,2.7-4,5.7-5.5,8.9c-1.5,3.2-2.5,6.7-3,10.2
				c-1,6.9,0.2,14.1,2.5,20.8c1.2,3.2,2.7,6.5,4.2,9.7c0.5,0.7,1,1.5,1.2,2.2c0.2,1-0.5,2-1.5,2.2c-0.5,0.2-1,0-1.2-0.2
				c-0.2-0.5-0.5-0.7-0.7-1.2l-1.2-2.2c-3.2-6.2-5.7-13.2-6.5-20.1c-0.7-6.9,0.2-14.4,2.7-20.8c1.2-3.2,3.2-6.5,5.2-9.4
				c2.2-2.7,4.5-5.5,6.9-7.9c5.2-5,10.9-9.2,17.4-12.2c3.2-1.5,6.7-2.7,10.2-3.5c3.5-0.7,6.9-1.2,10.7-1.5c7.2-0.5,14.1,0,21.3,1.5
				c6.9,1.5,13.9,3.7,20.1,6.9c6.2,3.2,12.2,7.7,16.6,13.4c4.5,5.5,7.7,12.2,9.2,19.1c1.2,6.9,0.7,14.4-1.5,21.1
				c-4.2,13.6-13.6,25.3-24.6,34.2c-5.5,4.5-11.7,8.2-18.6,10.4c-6.7,2.2-13.9,3.2-21.1,2.5C63.2,469.5,49.5,462.6,40.4,451.6z"/>
		</g>
	</g>
	<path class="st4" d="M388.7,86.9c49.1-41.2,206.9-66.2,225.1,5.5s-87.6,224.6,0,211.4c15.9-2.5,32.5-5,49.1-7.4"/>
	<g>
		<path class="st1" d="M650.2,261.8c-1-4.2,28.3-18.6,52.9-26.5s42.7-13.9,44.7-11.9c2,2,9.2,45.9-27.8,56.6
			C682.8,290.9,652.5,271,650.2,261.8z"/>
		<path class="st2" d="M775.1,281.7c-1.7-6.7-3.7-13.4-6-19.9c-0.5-1.5-1-2.7-1.5-4c-0.2-0.7-0.5-1.2-0.7-2l0,0
			c-0.2-0.7-0.5-1.2-0.7-2c-0.5-1.2-0.7-2.2-1.2-3.2c0-0.2-0.2-0.5-0.2-0.7c-0.5-1.5-1.2-3-1.7-4.5c-0.7-1.7-1.5-3.5-2-5l0,0
			c-2-4.5-3.7-8.9-6-13.4c-3.5-7.4-4.5-8.2-11.4-6.2c-16.9,4.7-33.7,9.2-50.4,14.6c-1.2,0.5-2.7,1-4,1.2l0,0
			c-0.5,0.2-1.2,0.5-1.7,0.7l0,0l0,0c-0.7,0.2-1.5,0.5-2,0.7c0,0,0,0-0.2,0c-0.2,0-0.7,0.2-1,0.5c-1.2,0.5-2.5,1-3.7,1.5
			c-0.7,0.2-1.5,0.5-2,0.7c-0.7,0.2-1.7,0.7-2.5,1c-0.7,0.5-1.5,0.7-2.5,1c-0.2,0-0.2,0-0.5,0.2c-0.2,0-0.5,0.2-0.5,0.2
			c-0.2,0-0.5,0.2-0.7,0.2c-0.2,0-0.5,0.2-0.7,0.2c-0.5,0.2-0.7,0.5-1.2,0.5c-0.5,0.2-1,0.5-1.2,0.5l0,0c-0.5,0.2-0.7,0.2-1,0.5
			c-0.5,0.2-0.7,0.5-1,0.5h-0.2c-0.7,0.5-1.7,0.7-2.5,1.2c-0.2,0.2-0.7,0.2-1,0.5c-0.2,0.2-0.7,0.2-1,0.5l0,0
			c-0.2,0.2-0.7,0.2-1,0.5c-0.7,0.2-1.2,0.7-1.7,1c-0.2,0.2-0.7,0.2-1,0.5c-0.2,0-0.5,0.2-0.7,0.5c-0.2,0-0.2,0-0.5,0.2
			c-0.5,0.2-1.2,0.7-1.7,1c-0.7,0.5-1.5,1-2.2,1.5c-0.7,0.7-1.7,1.2-2.5,1.7c-1.5,1.2-2.7,2-3.5,3c-0.2,0.2-0.2,0.2-0.5,0.5
			c-0.2,0.2-0.2,0.2-0.2,0.5c0,0-0.2,0.2-0.2,0.5l0,0c0,0,0,0.2,0,0.5c0,0,0,0.2,0,0.5c0,0.2,0,0.2,0,0.5v0.2c0,0,0,0.2,0,0.5
			c0.2,0.7,0.2,2,0.7,3.2c0,0.2,0.2,0.7,0.2,1.2c0.7,1.7,1.2,3.7,1.7,5.5c1.2,3.7,2.2,7.2,3.5,10.9c0.7,1.7,1.2,3.7,1.7,5.5
			c0.7,1.7,1.2,3.7,2,5.5c1.5,4,3,7.9,4.5,12.2c0.5,1.5,1,2.7,1.5,4c0.5,1.2,1,2.2,1.5,3.2c0,0.2,0.2,0.5,0.2,0.7
			c0.2,0.5,0.5,1.2,0.7,1.7c0.2,0.7,0.7,1.5,1,2.2l0,0c0.7,1.7,1.5,3.2,2,5c0.5,1.5,1,2.7,1.7,4c2,4.5,3,5,7.2,3.7
			c0.5-0.2,1.2-0.5,2-0.5c2-1,4-1.7,6-2.5l0,0c2.2-0.7,4.5-1.7,6.7-2.5c1.7-0.5,3.2-1,4.7-1.5c12.7-4.2,25.3-8.9,38-13.6
			c1.7-0.7,3.7-1.5,5.5-2c2.7-1,5.5-2,8.2-3c2.5-0.7,4.7-1.5,7.2-2.5c5.2-1.7,10.2-3.7,14.9-6.7
			C775.3,292.6,776.8,288.1,775.1,281.7z M654,260.3c2.2-2.2,4.7-4,7.4-5.5c9.2-5.2,18.6-9.4,28.3-13.2c0.5-0.2,1-0.5,1.7-0.7l0,0
			c5.2-2,10.4-3.7,15.6-5.2c12.2-3.7,24.1-7.4,36.2-10.9c0.5-0.2,1-0.2,1.7,0.5c-2,6-4,12.2-6.2,18.1l0,0c-0.7,2-1.5,4-2.5,5.7
			c-2.7,5.7-5.7,10.9-10.2,15.6c-0.7,0.7-1.2,1.5-2,2c-0.7,0.7-1.5,1.2-2,1.7c-4.2,3.2-9.2,5.2-14.9,5.5c-15.1,0.5-30.3-1-45.2-6.7
			c-2.5-1-5-2-7.4-3.7C653,262.8,652.7,261.6,654,260.3z"/>
		<path class="st1" d="M748.5,228.8c6.9,19.4,15.1,39.2,21.6,59.1l0,0c-30.5,11.7-62.3,23.8-92.1,37.7c3.2-15.1,8.2-28.3,15.1-41.4
			c-4,2.2-6.5,6.5-11.2,18.9c-2.7,6.7-4.5,13.9-6.9,22.1c-7.7-19.6-15.6-37.7-22.1-56.3c1.2-1,2.5,0.2,3.5,0.7
			c16.4,8.4,33.2,10.7,50.4,9.9c9.4-0.5,16.6-6.2,22.6-13.2c5-5.7,8.7-12.7,11.4-19.9c2.2-6,4.2-12.2,6.5-18.1
			C747.5,228.3,748,228.6,748.5,228.8z"/>
		<path class="st2" d="M768.6,290.4c-3.5-6-25.1-20.6-34-24.8c0,0,2.5-1.2,10.9,3.7c8.4,5,25.8,16.4,25.8,16.4
			S771.1,294.6,768.6,290.4z"/>
	</g>
	<path class="st5" d="M565.1,294.1c6.7,29,43.7,30.5,75.2,21.1"/>
	<line class="st5" x1="610.8" y1="285.6" x2="643.3" y2="282.2"/>
	<g>
		<g>
			<path class="st3" d="M405.1,159.6c6.5,0,7.9,2.2,8.2,4.7c0.5,5.5,1,25.6,1,30.5c0,4-5,6.2-8.4,6.2h-0.2c-0.2,0-0.5,0-0.7,0
				c-3.5,0-14.6,0.2-27.3,0.5c-17.1,0.5-38.2,0.5-47.1,0.5c-1.5,0-2.7,0-3.5,0c-2.7-0.2-12.9-0.2-18.6-0.2h-3.2h-5
				c-22.8,0-54.6,0.2-61.5,0.2c-3.2,0-7.4,0-12.7,0c-5.7,0-11.7,0-16.1,0c-2.7,0-5,0-6.2,0c-4,0-6.5-1.2-6.5-7.4v-27.8
				c0-3,2.7-5,6.9-5h97c1,0,2.5,0,4.2,0c0.5,0,1,0,1.5,0c0.5,0,1,0,1.7,0c19.6-0.2,66.7-1.7,86.8-2c5,0,8.4-0.2,9.4-0.2H405.1
				 M405.1,157.9c-0.2,0-0.2,0-0.5,0c-5.2,0-72,1.2-96.3,1.5c-1.2,0-2.2,0-3.2,0c-1.7,0-3.2,0-4.2,0h-97c-5.7,0-9.4,3.2-9.4,7.4
				v27.8c0,7.7,4,9.9,8.9,9.9c3.5,0,13.2,0,22.3,0c4.7,0,9.2,0,12.7,0c6.9,0,38-0.2,61.5-0.2c1.7,0,3.2,0,5,0h3.2
				c9.2,0,16.4,0,18.4,0.2c0.7,0,2,0,3.5,0c15.1,0,66.2-1.5,74.4-1.5c0.2,0,0.5,0,0.7,0s0.2,0,0.5,0c5.7,0,9.9-3,9.9-7.9
				c0-5.2-0.5-25.3-1-30.5C414.3,158.9,410.8,157.9,405.1,157.9L405.1,157.9z"/>
		</g>
		<g>
			<path class="st3" d="M308.3,159.1V204h-3.2c-23.8,0-59.1,0.2-66.2,0.2c-10.7,0.2-30,0-35.2,0c-5.2,0-8.9-2.2-8.9-9.9v-27.8
				c0-4.2,3.7-7.4,9.4-7.4h97c1,0,2.5,0,4.2,0C306.1,159.1,307.1,159.1,308.3,159.1z"/>
		</g>
		<path class="st6" d="M235.6,193.3c0-8.7,2-20.8,4.5-20.8c2.5,0.2,5,10.4,6.2,20.8"/>
		<path class="st7" d="M253,193.3c0-4,0-17.6,0-20.1c0-2.5,7.9,0,7.9,5.2c0,4.7-6.5,5.7-6.5,5.7"/>
		<path class="st8" d="M382.8,191.1c0-4-0.2-16.4-0.2-18.9c0-2.5,7.9,0,7.9,5.2c0,4.7-6.5,5.7-6.5,5.7"/>
		<path class="st7" d="M235.9,185.4c0,0,5.5-1,9.4-1"/>
		<path class="st7" d="M267.6,172.5c0,2.5-0.2,18.6,0,20.6"/>
		<path class="st8" d="M338.1,173.5c-3.5-4.2-11.2,0.5-5,6c5.2,4.5,6.7,6.9,5,9.9c-1.7,2.7-6.2,4-8.9-0.7"/>
		<path class="st8" d="M344.8,192.3c0-6.7,1.2-21.3,2.7-21.1c1.2,0,5,14.9,5,14.9s3.7-14.9,5-14.9s2.2,12.2,2.2,20.6"/>
		<path class="st8" d="M363.9,171.8c0,0,7.4-0.7,13.2,0"/>
		<path class="st8" d="M370.9,191.6c0.5-6.5-0.5-19.6-0.5-19.6"/>
		<g>
			<path class="st9" d="M206.1,221.9c55.1,0,110.2,0.5,165.3,0.2l82.6-1l41.2-0.5c1.7,0,3.5,0,5.2,0.5c1.7,0.2,3.7,1,5,2.7
				c0.7,0.7,1,1.7,1.2,2.7c0.2,1,0,2,0.2,2.7l0.2,5.2c0,1.7,0,3.5,0,5.2c0,1.7-0.2,3.7-1,5.5c-0.7,1.7-2.2,3.2-4,4
				c-1.7,0.7-3.5,1-5.5,1c-55.1,0.5-110.2,0.5-165.3,1.7h-82.6c-13.6,0-27.5,0-41.2,0c-1.7,0-3.7,0-5.5-0.5s-4-1.2-5.5-3.2
				c-0.7-1-1-2.2-1-3.5l-0.2-2.5l-0.2-5.2l-0.2-5.2l-0.2-2.5c0-0.7-0.2-2,0.2-3.2c0.2-1.2,1.2-2.2,2.2-3c1-0.5,2-1,3-1
				C202.4,221.9,204.4,221.9,206.1,221.9z M206.1,225.3c-1.7,0-3.2,0-4.7,0.5c-1.5,0.2-2.5,1-2.7,1.7c-0.2,0.7,0,3,0,4.5l0.2,5.2
				l0.2,5.2l0.2,2.5c0,0.5,0.2,1,0.5,1.5c0.5,0.7,1.7,1.5,3.2,1.7c1.5,0.2,3,0.5,4.7,0.5c13.9,0,27.5,0,41.4,0.2l82.6,0.5
				c55.1-1,110.2-0.5,165.3-0.7c3.2,0,6.7-1,7.7-4c0.5-1.5,0.7-3,0.7-4.7c0-1.7,0-3.5,0-5.2l-0.2-5.2c0-1,0-1.7-0.2-2.5
				c-0.2-0.7-0.5-1.5-0.7-2c-1-1-2.5-1.7-4-2s-3.2-0.2-5-0.2l-41.2,0.7l-82.6,1.2C316.3,225.1,261.2,225.1,206.1,225.3z"/>
		</g>
		<g>
			<path class="st9" d="M365.4,286.1h-41.2c-6.2,0-12.4,0.2-18.6,0.5c-6.2,0.2-12.4,0.5-18.4-0.7c-1.2-0.2-2.2,2.5-1,3
				c6,1.2,12.2,1,18.1,0.7c6.5-0.2,12.7-0.5,19.1-0.5h41.2C365.9,288.9,366.9,286.1,365.4,286.1z"/>
			<path class="st9" d="M397.4,286.4c-7.4,0-14.9,0.5-22.3,0.5c-1.2,0-2.2,3-1,3c7.4,0,14.9-0.5,22.3-0.5
				C397.9,289.1,398.9,286.4,397.4,286.4z"/>
			<path class="st9" d="M401.9,298.5c-6,0.5-11.7,0.2-17.6,0.2c-6.2,0-12.2,0.2-18.4,0.5c-12.4,0.5-24.8,1-37,1.2
				c-6.9,0.2-13.9,0.2-20.8,0.2c-1.2,0-2.2,3-1,3c25.1,0,49.9-1.7,74.9-2.2c6.5-0.2,13.2,0,19.6-0.5
				C402.9,301.5,403.6,298.5,401.9,298.5z"/>
			<path class="st9" d="M447,308.5c-6.5,0-12.7,1.5-19.1,2.5c-6.7,1-13.6,1.2-20.3,1.7c-13.9,1-27.8,1.2-41.7,1.5
				c-7.9,0-15.6,0-23.6,0c-1.2,0-2.2,3-1,3c27.3,0,54.8-0.2,81.9-3c7.7-0.7,15.1-2.7,22.8-2.7C447.5,311.2,448.5,308.5,447,308.5z"
				/>
			<path class="st9" d="M483.5,307.7c-8.7,1.2-17.4,0.5-26.3,0.5c-1.2,0-2.2,3-1,3c8.9,0,17.9,0.7,26.8-0.5
				C484.5,310.5,485,307.5,483.5,307.7z"/>
			<path class="st9" d="M442.1,325.3c-1.5,1.7-6,1.2-8.2,1.2c-3.5,0-7.2,0.2-10.7,0.2c-6.9,0.2-13.9,0.2-20.6,0.2
				c-14.1,0-28,0-42.2,0c-1.2,0-2.2,3-1,3c15.1,0,30,0.2,45.2,0c7.4,0,14.9-0.2,22.1-0.2c3.5,0,6.7-0.2,10.2-0.2
				c2.5,0,4.7-0.2,6.5-2.2C444.6,325.8,443.6,323.9,442.1,325.3z"/>
			<path class="st9" d="M424.7,338.7c-13.9,1-27.8,2-41.7,3c-6.7,0.5-13.4,1-19.9,1.2c-6.5,0.2-12.9,0.5-19.4-0.5
				c-1.2-0.2-2.2,2.7-1,3c6.5,1,13.2,1,19.6,0.5c6.5-0.2,12.9-0.7,19.4-1.2c7.2-0.5,14.1-1.2,21.3-1.7c6.9-0.5,14.1-0.7,21.1-1.5
				C425.7,341.5,426.4,338.5,424.7,338.7z"/>
			<path class="st9" d="M352.7,357.4c-21.1,2.2-42.4,1.2-63.8,1.2c-1.2,0-2.2,3-1,3c21.3,0,42.9,1,64.3-1.2
				C353.7,360.1,354.5,357.1,352.7,357.4z"/>
			<path class="st9" d="M390.5,357.4c-2.5,0.7-5,0.2-7.2,0.2c-2.5,0-5,0-7.4,0h-15.4c-1.2,0-2.2,3-1,3h16.1c2.5,0,5.2,0,7.7,0
				c2.5,0,4.7,0.2,6.9-0.2C391.5,359.8,392.2,356.9,390.5,357.4z"/>
			<path class="st9" d="M446.8,357.8c-0.5-2-2.2-3.2-3.7-4.5c-1.5-1.2-3.2-2.5-5-3.7c-1.2-0.7-2.5,2-1.5,2.7c1.5,1,3,2.2,4.5,3.2
				c0.7,0.7,2,1.5,2.7,2.5c-1.5,1-5.7,8.9-7.7,10.2c-0.5,0.5-1,1.2-1,2c0,0.7,0.7,1,1.2,0.7c2.2-1.5,7.4-10.2,9.7-10.7
				C447,360.1,447,358.6,446.8,357.8z"/>
			<path class="st9" d="M277.8,296.3c-0.7-1.2-2-1.7-3-2.5c-1.2-0.7-2.5-1.7-3.7-2.7c-2-1.5-4.2-2.5-6.5-3.5c1.2-2,2.7-4,4.2-6
				c2-2.2,4-4.7,6.7-6c1.2-0.5,1.5-3.5-0.2-2.7c-3,1.2-5.2,3.7-7.4,6.2c-2.2,2.5-4,5.5-5.7,8.2c-0.2,0.5-1,1.7,0,2.2
				c2.5,1,5,2.2,7.4,4c1.2,0.7,2.2,1.7,3.2,2.5c1,0.7,2.2,1.2,3,2.5C276.8,299.8,278.6,297.6,277.8,296.3z"/>
		</g>
	</g>
	<g>
		<path class="st3" d="M57,421.4c-1.5-13.9,8.2-25.3,23.1-26.8c12.2-1.2,24.1,8.4,25.8,21.3c1.7,13.2-8.2,25.8-21.8,27.3
			C70.6,444.7,58.5,435,57,421.4z"/>
		<path class="st2" d="M71.6,389.1c-1,0.2-2.2,0.5-3.2,0.7c-0.7,0.2-1.2,0.2-2,0.5c-1.5,0.2-2.7-0.7-3.2-2.2
			c-0.2-1.5,0.5-2.7,2.2-3.2c4.5-1,8.7-2,13.2-3c1-0.2,1.7-0.5,2.7-0.2c1,0.2,1.7,0.7,2.2,1.7c0.2,1,0,2-0.7,2.7
			c-0.5,0.7-1.2,0.7-2,1c-1.5,0.5-3,0.7-4.7,1c0,0-0.2,0-0.5,0c0,0.2,0,0.5,0,0.7c0.2,1.5,0.7,3,1,4.2c0,0.5,0.2,0.5,0.7,0.5
			c3.5-0.5,6.9-0.5,10.4,0.2c0.5,0,1,0.2,1.2,0.2c0.2-0.2,0.5-0.7,0.5-1.2c0.2-0.7,0.7-1.7,1-2.5c0.2-0.7,0.7-1,1.5-1
			c1.5,0.2,2.5,1,3.5,2c0.5,0.5,0.5,1,0.2,1.7c-0.5,1-1,2.2-1.5,3.2c1,0.5,1.7,1.2,2.5,1.7c5.7,4.5,8.7,10.4,9.7,17.6
			c0.7,6.5-2.7,16.1-8.2,21.3c-5.5,5.5-12.2,7.7-19.9,7.2c-7.2-0.5-13.2-3.2-18.1-8.7c-2.7-3-4.7-6.7-5.5-10.7
			c-0.7-3.7-0.7-7.4,0-10.9c1-4.5,3.2-8.4,6.5-11.9c3-3.5,6.7-6,10.9-7.4c0.2,0,0.5-0.2,0.2-0.5C72.6,392.6,72.4,390.8,71.6,389.1
			C71.9,389.1,71.9,389.1,71.6,389.1z M58.5,420.4c0.5,4.2,1.5,7.7,3.5,10.9c1.5,2.2,3,4.5,5.5,6c3,1.7,6,3,9.4,3.7
			c5.7,1,11.2,0,16.4-3c7.2-4.2,11.4-10.7,11.9-18.9c0.5-8.7-3-15.4-10.2-20.1c-5.5-3.7-11.7-4.7-18.4-3.2
			c-5.7,1.2-10.4,4.2-13.9,9.2C59,409.7,58,415.2,58.5,420.4z M70.9,387.6c3.5-0.5,6.9-1.5,10.4-2c0.5,0,0.7-0.5,0.7-1
			s-0.2-0.7-0.5-1c-0.5-0.2-1-0.5-1.5-0.2c-3.2,0.7-6.5,1.5-9.7,2.2c-0.7,0.2-1.7,0.5-2.5,0.5c-0.5,0-0.7,0.5-0.7,1
			c0,0.2,0.5,0.5,0.7,0.7c0.2,0,0.5,0,0.7,0C69.1,387.6,69.9,387.6,70.9,387.6z M92.5,395.3c0.5-1.2,1-2.5,0.5-3.7
			c-0.2-0.2-0.5-0.5-0.7-0.7c-0.2,0.2-0.5,0.5-0.5,0.7c-0.5,1-0.7,2-1.2,2.7C91.2,394.8,91.7,395.1,92.5,395.3z M75.3,394.1
			C75.3,393.8,75.6,393.8,75.3,394.1c-0.2-2-0.5-3.7-1-5.2l-0.2-0.2c0,0.2-0.2,0.2,0,0.5c0.2,1.5,0.7,3.2,1.2,4.7
			C75.1,393.6,75.3,393.8,75.3,394.1z"/>
		<path class="st1" d="M70.9,387.6c-0.7,0-1.7,0-2.5,0c-0.2,0-0.5,0-0.7,0c-0.2-0.2-0.7-0.5-0.7-0.7c0-0.5,0.2-0.7,0.7-1
			c0.7-0.2,1.7-0.5,2.5-0.5c3.2-0.7,6.5-1.5,9.7-2.2c0.5-0.2,1,0,1.5,0.2s0.7,0.5,0.5,1c0,0.5-0.2,1-0.7,1
			C77.8,386.1,74.3,387.1,70.9,387.6z"/>
		<path class="st1" d="M92.5,395.3c-0.7-0.2-1.2-0.5-2-0.7c0.5-1,0.7-2,1.2-2.7c0.2-0.2,0.5-0.5,0.5-0.7c0.2,0.2,0.5,0.5,0.7,0.7
			C93.7,393.1,93,394.3,92.5,395.3z"/>
		<path class="st1" d="M75.3,394.1c0-0.2-0.2-0.5-0.2-0.5c-0.5-1.5-0.7-3.2-1.2-4.7c0,0,0-0.2,0-0.5l0.2,0.2
			C74.8,390.4,75.1,392.1,75.3,394.1C75.6,393.8,75.3,393.8,75.3,394.1z"/>
	</g>
	<path class="st2" d="M109.8,385.4c-0.7-0.5-2,0.5-2.2,1.2c-4,8.9-4.5,9.7-9.9,17.6c-5,7.2-3.2,5.7-7.9,13.2c-1.7,2.7-3.7,6-4.7,9.2
		c-3-1.7-5.7-4.2-8.4-6.2c-3.2-2.2-6.7-4.5-8.7-7.7c-0.5-1-1.7,0-2.2,0.5c-0.7,0.7-1,2-0.2,2.7c2.2,3.5,5.7,5.7,9.2,7.9
		c1.7,1.2,3.2,2.2,4.7,3.5c2,1.5,3.7,3,6,4c1.2,0.5,2.5-1,2.7-2.2c0.2-3.5,2.5-6.7,4.2-9.7c2-3.2,2-3.5,4-6.7
		c5-8.2,1.5-2.2,6.5-10.4c3-4.5,5.7-9.2,7.7-14.1C110.6,387.4,110.8,386.1,109.8,385.4z"/>
</g>
<g>
	<path class="st10" d="M88.3,195.7c0.1,0.1,0.1,0.3,0,0.4C88.3,196,88.3,195.9,88.3,195.7z"/>
	<path class="st11" d="M97,175.3c0-4.8,0-9.6,0-14.4c0-1.4,0.6-2.3,1.9-2.9c0.4-0.2,0.8-0.2,1.2-0.2c9.6,0,19.2,0,28.8,0
		c1.8,0,3,1.2,3,3.1c0,9.6,0,19.2,0,28.7c0,1.6-0.9,2.8-2.4,3c-0.2,0-0.4,0-0.6,0c-9.6,0-19.2,0-28.8,0c-1.5,0-2.7-0.9-3-2.4
		c0-0.3,0-0.5,0-0.8C97,184.8,97,180,97,175.3z"/>
	<path class="st1" d="M107.8,171.8c0,0.4,0,0.7,0.1,1.1c0.1,1.5,0.2,3.1,0.2,4.6c0,2.7,0,5.4,0,8c0,0.2-0.1,0.3-0.3,0.3
		c-1.4,0-2.7,0-4.1,0c-0.2,0-0.3,0-0.3-0.3c0-6.3,0-12.6,0-18.9c0-0.2,0-0.2,0.2-0.2c2.2,0,4.3,0,6.5,0c0.2,0,0.3,0.1,0.3,0.3
		c1.3,4.4,2.6,8.8,3.9,13.2c0,0.1,0,0.3,0.2,0.3c0.1,0,0.1-0.2,0.1-0.3c1.3-4.4,2.5-8.8,3.8-13.2c0.1-0.2,0.1-0.3,0.3-0.3
		c2.1,0,4.3,0,6.4,0c0.2,0,0.3,0.1,0.3,0.3c0,6.3,0,12.5,0,18.8c0,0.2,0,0.3-0.3,0.3c-1.4,0-2.9,0-4.3,0c-0.2,0-0.3,0-0.3-0.2
		c0-3.4,0-6.9,0.1-10.4c0-1,0.1-2,0.1-3c0-0.1,0.1-0.3,0-0.3c-0.1,0-0.1,0.2-0.1,0.2c-1.3,4.4-2.5,8.9-3.7,13.3
		c-0.1,0.2-0.1,0.3-0.4,0.3c-1.5,0-3,0-4.4,0c-0.2,0-0.3,0-0.3-0.2c-1.3-4.5-2.5-8.9-3.8-13.4C108,172,108,171.9,107.8,171.8z"/>
</g>
</svg>
