<?xml version="1.0" encoding="utf-8"?>
<!-- Generator: Adobe Illustrator 23.0.2, SVG Export Plug-In . SVG Version: 6.00 Build 0)  -->
<svg version="1.1" id="Layer_1" xmlns="http://www.w3.org/2000/svg" xmlns:xlink="http://www.w3.org/1999/xlink" x="0px" y="0px"
	 viewBox="0 0 663.3 411.7" style="enable-background:new 0 0 663.3 411.7;" xml:space="preserve">
<style type="text/css">
	.st0{fill:#FFFFFF;stroke:#000000;stroke-width:0.5;stroke-miterlimit:10;}
	.st1{fill:#FFFFFF;stroke:#000000;stroke-miterlimit:10;}
	.st2{fill:#263238;}
	.st3{fill:#455A64;}
	.st4{fill:#EBEBEB;}
	.st5{fill:#FFFFFF;}
	.st6{fill:#FFFFFF;stroke:#263238;stroke-miterlimit:10;}
	.st7{fill:none;stroke:#263238;stroke-miterlimit:10;}
	.st8{fill:#A3AAAD;}
	.st9{fill:#00A4FF;}
	.st10{fill:none;stroke:#263238;stroke-linecap:round;stroke-linejoin:round;}
	.st11{opacity:0.5;}
	.st12{opacity:0.8;}
	.st13{clip-path:url(#SVGID_2_);}
	.st14{fill:#92E3A9;}
	.st15{fill:#90CAF9;}
	.st16{fill:#263238;stroke:#263238;stroke-linecap:round;stroke-linejoin:round;}
	.st17{fill:none;stroke:#FFFFFF;stroke-width:0.75;stroke-linecap:round;stroke-linejoin:round;}
	.st18{fill:#FFFFFF;stroke:#263238;stroke-linecap:round;stroke-linejoin:round;}
	.st19{fill:none;stroke:#FFFFFF;stroke-linecap:round;stroke-linejoin:round;}
	.st20{clip-path:url(#SVGID_4_);}
	.st21{fill:none;stroke:#263238;stroke-width:0.5;stroke-linecap:round;stroke-linejoin:round;}
	.st22{clip-path:url(#SVGID_6_);}
	.st23{opacity:0.5;fill:#FFFFFF;enable-background:new    ;}
	.st24{clip-path:url(#SVGID_8_);}
	.st25{clip-path:url(#SVGID_10_);}
	.st26{clip-path:url(#SVGID_12_);}
	.st27{clip-path:url(#SVGID_14_);}
	.st28{fill:none;stroke:#263238;stroke-width:0.75;stroke-linecap:round;stroke-linejoin:round;}
</style>
<g id="freepik--background-complete--inject-180">
	
		<rect x="541.7" y="204" transform="matrix(0.366 -0.9306 0.9306 0.366 120.4865 716.2701)" class="st0" width="88.6" height="131.4"/>
	<path d="M663.3,253.6c-0.5,0.3-1,0.5-1.6,0.6l-4.6,1.6l-16.9,5.8l-56.1,18.9l-0.5,0.1l-0.2-0.4l-0.6-1
		c-11.6-20.3-22.1-38.6-29.8-52.1c-3.7-6.6-6.7-12-8.9-15.9c-1-1.8-1.8-3.2-2.4-4.3c-0.3-0.5-0.6-1-0.8-1.6c0.4,0.4,0.7,0.9,1,1.4
		c0.6,1.1,1.5,2.5,2.6,4.2l9.2,15.7l30.1,51.9l0.6,1l-0.7-0.3l56.1-18.6l17-5.5l4.7-1.4C662.1,253.9,662.7,253.7,663.3,253.6z"/>
	<path d="M508.6,288c-0.2-0.3,13.5-8,30.5-17.1s30.9-16.4,31-16.1s-13.5,8-30.5,17.2S508.7,288.2,508.6,288z"/>
	<path d="M611.1,269.7c0.3-0.1,5,14.7,10.4,33s9.6,33.3,9.3,33.4s-5-14.7-10.4-33S610.8,269.8,611.1,269.7z"/>
	
		<rect x="52.2" y="243.2" transform="matrix(0.366 -0.9306 0.9306 0.366 -226.298 285.6401)" class="st0" width="88.6" height="131.4"/>
	<path d="M173.8,292.8c-0.5,0.3-1,0.5-1.6,0.6l-4.6,1.6l-16.9,5.8l-56.1,18.9l-0.5,0.1l-0.2-0.4l-0.6-1
		c-11.6-20.3-22.1-38.6-29.8-52.1c-3.7-6.6-6.7-12-8.9-15.8c-1-1.8-1.8-3.2-2.4-4.3c-0.3-0.5-0.6-1-0.8-1.6c0.4,0.4,0.7,0.9,1,1.4
		c0.6,1.1,1.5,2.5,2.6,4.2l9.2,15.7L94.5,318l0.6,1l-0.7-0.3l56.1-18.6l17-5.5l4.7-1.4C172.7,293.1,173.2,292.9,173.8,292.8z"/>
	<path d="M19.1,327.2c-0.2-0.3,13.5-8,30.5-17.1s30.9-16.4,31-16.1s-13.5,8-30.5,17.2S19.3,327.4,19.1,327.2z"/>
	<path d="M121.7,308.9c0.3-0.1,5,14.7,10.4,33c5.4,18.3,9.6,33.3,9.3,33.4s-5-14.7-10.4-33C125.5,323.9,121.3,309,121.7,308.9z"/>
	
		<rect x="567.2" y="111.3" transform="matrix(0.9169 -0.3992 0.3992 0.9169 -4.5956 253.5776)" class="st1" width="78.6" height="53"/>
	<path d="M632.4,98.2c-0.1,0.3-0.2,0.6-0.4,0.9l-1.2,2.6l-4.7,9.6l-15.7,31.8l-0.1,0.3l-0.3-0.1l-0.7-0.2l-34.6-9.4l-10.5-2.9
		l-2.8-0.8c-0.3-0.1-0.7-0.2-1-0.3c0.3,0,0.7,0.1,1,0.2l2.9,0.7l10.6,2.6l34.7,9.2l0.7,0.2l-0.4,0.2c6.2-12.4,11.8-23.5,15.9-31.6
		c2-4,3.7-7.2,4.9-9.5l1.4-2.6C632,98.8,632.2,98.5,632.4,98.2z"/>
	<path d="M581.5,178.2c-0.2,0,2.3-9.1,5.6-20.1s6.1-20,6.3-19.9s-2.3,9.1-5.6,20.1S581.7,178.2,581.5,178.2z"/>
	<path d="M617.1,127.1c0.1-0.2,8.3,4.1,18.4,9.6s18.1,10,18,10.2s-8.3-4.1-18.4-9.6S617,127.2,617.1,127.1z"/>
</g>
<g id="freepik--Floor--inject-180">
	<path class="st2" d="M650.8,408.7c0,0.1-144.6,0.3-322.9,0.3S5,408.8,5,408.7s144.5-0.3,322.9-0.3S650.8,408.5,650.8,408.7z"/>
</g>
<g id="freepik--Device--inject-180">
	<path class="st2" d="M121.2,112h413.4c8,0,14.6,6.5,14.6,14.6v263.5c0,8-6.5,14.6-14.6,14.6H121.2c-8,0-14.6-6.5-14.6-14.6V126.6
		C106.7,118.6,113.2,112,121.2,112z"/>
	<path class="st2" d="M88.2,383.1h479.5v7.8c0,9.8-8,17.8-17.8,17.8h-444c-9.8,0-17.8-8-17.8-17.8L88.2,383.1L88.2,383.1z"/>
	<rect x="118.5" y="123.6" class="st3" width="417.6" height="247.2"/>
	<polygon class="st3" points="284.3,383.1 290.3,392.5 374,392.5 379.5,383.1 	"/>
	<path class="st4" d="M130.4,132h394.7c1.8,0,3.3,1.5,3.3,3.3v231.5c0,1.8-1.5,3.3-3.3,3.3H130.4c-1.8,0-3.3-1.5-3.3-3.3V135.3
		C127.1,133.5,128.6,132,130.4,132z"/>
	<rect x="127.1" y="149.5" class="st5" width="401.3" height="220.6"/>
	<path class="st3" d="M160,141.2c0,1.8-1.4,3.2-3.2,3.2c-1.8,0-3.2-1.4-3.2-3.2c0-1.8,1.4-3.2,3.2-3.2l0,0
		C158.6,138,160,139.5,160,141.2C160,141.2,160,141.2,160,141.2z"/>
	<path class="st3" d="M140.6,141.2c0,1.8-1.4,3.2-3.2,3.2c-1.8,0-3.2-1.4-3.2-3.2c0-1.8,1.4-3.2,3.2-3.2l0,0
		C139.2,138,140.6,139.5,140.6,141.2C140.6,141.2,140.6,141.2,140.6,141.2z"/>
	<path class="st3" d="M149.9,141.2c0,1.8-1.4,3.2-3.2,3.2c-1.8,0-3.2-1.4-3.2-3.2c0-1.8,1.4-3.2,3.2-3.2l0,0
		C148.5,138,149.9,139.5,149.9,141.2C149.9,141.2,149.9,141.2,149.9,141.2z"/>
	<path class="st3" d="M545.4,383.1c0,0.2-98.2,0.3-219.4,0.3s-219.4-0.1-219.4-0.3s98.2-0.3,219.4-0.3S545.4,382.9,545.4,383.1z"/>
</g>
<g id="freepik--Mail--inject-140">
	<polygon class="st3" points="204.9,238.3 337.1,172.4 472.6,238.3 472.6,334 206.5,334 	"/>
	<rect x="239.8" y="190.1" class="st6" width="198" height="156.1"/>
	<line class="st7" x1="262.5" y1="217.5" x2="412.6" y2="217.5"/>
	<line class="st7" x1="262.5" y1="231.1" x2="412.6" y2="231.1"/>
	<line class="st7" x1="262.5" y1="244.8" x2="412.6" y2="244.8"/>
	<line class="st7" x1="262.5" y1="258.5" x2="412.6" y2="258.5"/>
	<line class="st7" x1="262.5" y1="272.1" x2="412.6" y2="272.1"/>
	<line class="st7" x1="262.5" y1="285.8" x2="412.6" y2="285.8"/>
	<polygon class="st8" points="472.6,369.9 204.9,369.9 204.9,238.3 338.7,318.9 472.6,238.3 	"/>
	<line class="st7" x1="204.9" y1="369.9" x2="302.2" y2="296.9"/>
	<line class="st7" x1="472.2" y1="369.9" x2="375.5" y2="296.7"/>
</g>
<g id="freepik--Gears--inject-130">
	<path class="st3" d="M505.2,175.8l2.3-1L507,172l-2.5-0.2c-0.3-0.8-0.7-1.6-1.3-2.4l1.3-2.2l-2-2l-2.2,1.3
		c-1.3-0.9-2.7-1.5-4.2-1.7l-0.6-2.5h-2.8l-0.6,2.5c-0.9,0.2-1.7,0.4-2.5,0.8l-2-1.7l-2.3,1.6l0.9,2.5c-0.6,0.6-1.2,1.3-1.6,2.1
		l-2.6-0.3l-1,2.6l2.2,1.5c-0.1,0.6-0.2,1.2-0.2,1.9c0,0.3,0,0.5,0,0.8l-2.3,1.3l0.7,2.7l2.6,0c0.4,0.8,0.9,1.6,1.4,2.3l-1.1,2.3
		l2.2,1.8l2.1-1.5c0.8,0.5,1.6,0.8,2.5,1l0.4,2.5l2.8,0.2l0.8-2.4c0.9-0.1,1.8-0.3,2.7-0.6l1.7,1.8l2.4-1.4l-0.7-2.4
		c0.7-0.6,1.3-1.3,1.9-2l2.5,0.5l1.2-2.5l-1.9-1.6C505.2,177.6,505.3,176.7,505.2,175.8z M501.1,175.7c0,3.8-3.1,6.9-6.9,6.9
		c-3.8,0-6.9-3.1-6.9-6.9s3.1-6.9,6.9-6.9C498,168.8,501.1,171.9,501.1,175.7L501.1,175.7L501.1,175.7z"/>
	<path class="st3" d="M186.2,191.4l5-2.3l-1-6l-5.5-0.4c-0.7-1.8-1.6-3.6-2.8-5.2l2.8-4.8l-4.3-4.3l-4.8,2.9
		c-2.8-1.9-5.9-3.1-9.2-3.7l-1.4-5.5h-6l-1.4,5.5c-1.9,0.4-3.7,0.9-5.4,1.7l-4.3-3.7l-5,3.4l2.1,5.3c-1.3,1.4-2.5,2.9-3.4,4.5
		l-5.7-0.6l-2.1,5.7l4.7,3.2c-0.2,1.3-0.3,2.7-0.3,4c0,0.6,0,1.1,0.1,1.7l-5,2.8l1.5,5.9l5.6-0.1c0.8,1.8,1.9,3.4,3.1,4.9l-2.4,5
		l4.6,3.9l4.5-3.2c1.7,1,3.5,1.7,5.4,2.3l0.9,5.4l6,0.5l1.8-5.1c2-0.2,3.9-0.6,5.8-1.3l3.8,3.9l5.2-3l-1.4-5.2
		c1.5-1.3,2.9-2.8,4-4.4l5.3,1l2.6-5.5l-4.2-3.4C185.9,195.4,186.2,193.4,186.2,191.4z M177.2,191.3c0,8.3-6.8,15.1-15.1,15.1
		c-8.3,0-15.1-6.8-15.1-15.1s6.8-15.1,15.1-15.1C170.5,176.2,177.2,183,177.2,191.3C177.3,191.3,177.3,191.3,177.2,191.3
		L177.2,191.3z"/>
</g>
<g id="freepik--Newletter--inject-180">
	<path class="st9" d="M291.3,93.2h86.5c5.1,0,9.3,8.5,9.3,18.9v196.8c0,10.4-4.2,18.9-9.3,18.9h-86.5c-5.1,0-9.3-8.5-9.3-18.9V112.1
		C282,101.7,286.2,93.2,291.3,93.2z"/>
</g>
<path class="st10" d="M292.6,214.8c-0.3-0.3-0.7-0.2-1.1-0.2c-0.8,0-6.9,1.1-6.9,0.3c2.4-0.8,3.5-0.9,5-1.3c0.6-0.2,3.7-0.6,2-1.8
	c-0.9-0.6-5.9,0.1-7.2,0.2h-4.5l2.5-4.6c0.1-0.5-0.1-1-0.6-1.1c-0.3-0.1-0.6,0-0.8,0.1l-8.7,10.4c0,0-22.7,0.3-28.9,1.1
	c-3.9,0.4-7.9,0.5-11.8,0.2l-11.5-17.7l-5.6,16.8c0,0,12.1,12.4,15.3,13c8.4,1.5,16.1-0.1,24.2-2.6c1.5-0.4,18.8-5.2,18.7-6.1v0.1
	l5.8-0.1c0,0,2.7,0.3,3,0.3c1.7,0,3.5-0.4,5.2-0.5c0.5,0,4.7-0.5,3.2-1.4c-0.6-0.2-1.3-0.2-1.9-0.1c-1.2,0-2-0.1-3.2-0.1
	c1.5-0.3,2.5-0.2,4-0.5c1-0.1,2.1-0.3,3.1-0.6c0.9-0.4,0.8-1.2,0-1.3c-0.6,0-1.3,0.1-1.9,0.2c-1.5,0.1-3.6,0.5-5.1,0.6
	c1.8-0.5,3.5-0.9,5.3-1.5C290.7,216.3,293.6,215.9,292.6,214.8z"/>
<path class="st10" d="M279.9,211.9c0,0,0.4,3.4,0.4,4.5c0,1.2-4.7,1.5-4.7,1.5"/>
<g id="freepik--paper-plane--inject-180">
	<polygon class="st9" points="394.2,34.6 412.5,54.4 410.9,77 425.9,66.1 441.9,80.9 501.4,31 	"/>
	<g class="st11">
		<polygon points="412.5,54.4 499.8,31 421.4,62 410.9,77 410.9,77 		"/>
	</g>
	<g class="st12">
		<polygon points="421.4,62 425.9,66.1 410.9,77 		"/>
	</g>
</g>
<g id="freepik--paper-plane--inject-180_1_">
	<polygon class="st9" points="49.8,203.5 76.3,231.1 84.9,224.7 91.7,230.9 92.1,219.7 102.1,211 	"/>
	<g class="st11">
		<polygon points="91.7,230.9 91.7,230.9 87.3,223 50.6,203.6 92.1,219.7 		"/>
	</g>
	<g class="st12">
		<polygon points="91.7,230.9 84.9,224.7 87.3,223 		"/>
	</g>
</g>
<path class="st5" d="M231.7,218l-11.5-17.7l-5.6,16.8c0,0,12.1,12.4,15.3,13c8.4,1.5,16.1-0.1,24.2-2.6c1-0.3,9.1-2.5,14.3-4.3
	l4.2-1.6c0.1-0.1,0.2-0.1,0.2-0.2l-0.4-4.7c0,0-22.7,0.3-28.9,1.1C239.6,218.2,235.6,218.3,231.7,218z"/>
<path class="st10" d="M231.7,218l-11.5-17.7l-5.6,16.8c0,0,12.1,12.4,15.3,13c8.4,1.5,16.1-0.1,24.2-2.6c1-0.3,9.1-2.5,14.3-4.3
	l4.2-1.6c0.1-0.1,0.2-0.1,0.2-0.2l-0.4-4.7c0,0-22.7,0.3-28.9,1.1C239.6,218.2,235.6,218.3,231.7,218z"/>
<path class="st5" d="M237.3,162l2.4,11.3l-3.5,1.1c0,0-1.3,13.2-2.2,14.2s-10.1-2.4-10.1-2.4l-4.2,7l-7.7-3.7l2.8-6.3
	c0,0-5.8-21.2-5.7-26.2s2.7-6.7,9.3-8.1c4-0.9,8.2-0.9,12.2,0c0,0-2.7-3.6,4.4-4.4s10.9,6.4,10.3,10.3
	C244.7,158.8,237.3,162,237.3,162z"/>
<g>
	<defs>
		<path id="SVGID_1_" d="M237.3,162l2.4,11.3l-3.5,1.1c0,0-1.3,13.2-2.2,14.2s-10.1-2.4-10.1-2.4l-4.2,7l-7.7-3.7l2.8-6.3
			c0,0-5.8-21.2-5.7-26.2s2.7-6.7,9.3-8.1c4-0.9,8.2-0.9,12.2,0c0,0-2.7-3.6,4.4-4.4s10.9,6.4,10.3,10.3
			C244.7,158.8,237.3,162,237.3,162z"/>
	</defs>
	<clipPath id="SVGID_2_">
		<use xlink:href="#SVGID_1_"  style="overflow:visible;"/>
	</clipPath>
	<g class="st13">
		<path class="st14" d="M214.9,183.2c0,0-5.8-21.2-5.7-26.2s2.7-6.7,9.3-8.1c4-0.9,8.2-0.9,12.2,0c-0.6-0.8-0.6-1.8-0.2-2.6
			c1.7,0,3.3,0.2,5,0.4c2.4,0.4,5.3,0.9,7.7,1.3c1.4,1.7,2.2,3.9,2.2,6.1l-1.9,3.7c-1.8,1.7-3.9,3.1-6.2,4.1l0.5,2.2
			c-1.3,0.5-2.7,0.9-4.1,1.2c-2.4,0.4-6.4-1-6.4-1s2.7,3.1,0.4,5.4c-1.3,1.4-3,2.3-4.8,2.8c0,0-0.8,6.1-0.5,8.1
			c0.2,1.5,8.1,6.1,11.6,8c-1.2,0.8-10-2.4-10-2.4l-4.2,7l-7.7-3.7L214.9,183.2z"/>
		<path class="st15" d="M214.9,183.2c0,0-5.8-21.2-5.7-26.2s2.7-6.7,9.3-8.1c4-0.9,8.2-0.9,12.2,0c-0.6-0.8-0.6-1.8-0.2-2.6
			c1.7,0,3.3,0.2,5,0.4c2.4,0.4,5.3,0.9,7.7,1.3c1.4,1.7,2.2,3.9,2.2,6.1l-1.9,3.7c-1.8,1.7-3.9,3.1-6.2,4.1l0.5,2.2
			c-1.3,0.5-2.7,0.9-4.1,1.2c-2.4,0.4-6.4-1-6.4-1s2.7,3.1,0.4,5.4c-1.3,1.4-3,2.3-4.8,2.8c0,0-0.8,6.1-0.5,8.1
			c0.2,1.5,8.1,6.1,11.6,8c-1.2,0.8-10-2.4-10-2.4l-4.2,7l-7.7-3.7L214.9,183.2z"/>
	</g>
</g>
<path class="st10" d="M237.3,162l2.4,11.3l-3.5,1.1c0,0-1.3,13.2-2.2,14.2s-10.1-2.4-10.1-2.4l-4.2,7l-7.7-3.7l2.8-6.3
	c0,0-5.8-21.2-5.7-26.2s2.7-6.7,9.3-8.1c4-0.9,8.2-0.9,12.2,0c0,0-2.7-3.6,4.4-4.4s10.9,6.4,10.3,10.3
	C244.7,158.8,237.3,162,237.3,162z"/>
<path class="st16" d="M209.2,157c0.1-5,2.7-6.7,9.3-8.1c4-0.9,8.2-0.9,12.2,0c0,0-2.7-3.6,4.4-4.4c7.1-0.8,10.9,6.4,10.3,10.3
	c-0.7,4-8,7.1-8,7.1s-9.3,1.2-14.3-1.1c0,0,3.9,3.7,3.7,6.4c0,1.5-1.3,2.6-2.7,2.5c-0.1,0-0.1,0-0.2,0l-0.3,3.9c0,0-1.9,1.6-2.5,0.6
	c-0.6-1-1.3-6.2-3.9-3.7c-2.5,2.5-2.1,6.1-0.4,6.9c1.7,0.8,2.6-0.2,2,2.2c-0.6,2.4-3.8,3.5-3.8,3.5S209.1,162,209.2,157z"/>
<path class="st17" d="M213.6,158.6c-0.8-0.2-1.6-0.3-2.4-0.3"/>
<path class="st17" d="M229.6,152.7c0,0,2.7-3.7,5.1,0.1c2.4,3.8-0.7,6.8-8.9,6.8c-2.9,0-5.8-0.1-8.6-0.5"/>
<path class="st17" d="M221.7,163.9c-3.7,0.6-7.4,0.7-11.2,0.3"/>
<path class="st18" d="M252.2,357.3l0.7,0.8l5.1,5.4c0,0,6.5,2.6,6.6,4.2s-7.3,2.2-11,1.9c-3.8-0.3-8.2-3.8-8.2-3.8s-4.8,0.8-5.5-2.9
	s2.6-6.4,2.6-6.4L252.2,357.3z"/>
<path class="st18" d="M245.3,365.9c0,0,4.5,3.5,8.2,3.8c3.8,0.3,11.1-0.3,11-1.9c-0.1-0.3-0.3-0.7-0.5-0.9
	c-5.9,2.2-13.8,0.2-17.7-2.4c-2-1.3-4.3-2.3-6.6-3c0,0.5,0,1,0.1,1.5C240.6,366.7,245.3,365.9,245.3,365.9z"/>
<path class="st18" d="M140.5,355.5c0,0-3.5,14.4-3.5,16.6s12.9,1.9,13.9,0c0.9-1.9-0.9-7.6-2.2-10.4c-1.3-2.8-1.8-4.1-1.8-4.1
	L140.5,355.5z"/>
<path class="st18" d="M150.9,372c0.3-1,0.4-2,0.1-3c-1.4,1.6-3.4,2.5-5.5,2.4c-2.9,0-5.7-0.8-8.1-2.4c-0.2,1-0.4,2-0.4,3
	C137.1,374.3,150,373.9,150.9,372z"/>
<path class="st16" d="M247.8,293.5c0.1-3.5-7.1-8.9-14.9-14.5c-7.7-5.7-23.9-13.5-23.9-13.5l0.8-4.5l-30.4-12.4
	c0,0-4.3,5.4-6.7,18.8c-2.9,15.9-1,36.8-0.5,41.6c-0.7,0.5-7.9,5.5-10.9,10.3c-3.1,5-20.7,36.4-20.7,36.4l6.4,2.1l0.3-0.4
	c0,0,40.8-42.6,42.9-44.8c2.1-2.2,6.1-28.2,6.1-28.2s30.6,14.3,32,15.2c1.5,1,14.1,57.2,14.1,57.2l9.8,0.7
	C252.2,357.3,247.7,296.9,247.8,293.5z"/>
<polyline class="st19" points="209.3,275.7 196.2,284.2 206,281.3 "/>
<path class="st19" d="M207,263c-10.4-0.1-20.3-4.5-27.3-12.2"/>
<line class="st19" x1="198.3" y1="259.1" x2="197.4" y2="262.6"/>
<line class="st19" x1="188.7" y1="254.6" x2="187.3" y2="257.8"/>
<path class="st10" d="M398.8,164.2c0,0-2.5,0.9-3,2.2s0.8,3.1,0.8,3.1"/>
<path class="st5" d="M221.4,194.6c0,0,2.4,7.3,1.8,20c-0.7,12.7-13.4,46.3-13.4,46.3l-2.9-0.1c-8.1-0.4-16-3.3-22.4-8.3l-5.1-4
	c0,0,11.2-32.3,15.4-44.5c4.3-12.2,14.2-14.4,17.1-15S221.4,192.8,221.4,194.6z"/>
<g>
	<defs>
		<path id="SVGID_3_" d="M221.4,194.6c0,0,2.4,7.3,1.8,20c-0.7,12.7-13.4,46.3-13.4,46.3l-2.9-0.1c-8.1-0.4-16-3.3-22.4-8.3l-5.1-4
			c0,0,11.2-32.3,15.4-44.5c4.3-12.2,14.2-14.4,17.1-15S221.4,192.8,221.4,194.6z"/>
	</defs>
	<clipPath id="SVGID_4_">
		<use xlink:href="#SVGID_3_"  style="overflow:visible;"/>
	</clipPath>
	<g class="st20">
		<path class="st14" d="M194.8,203.8c3.1-8.7,9-12.3,13.2-13.9c-1.8,1.2-7.1,5.4-8.9,11.5c-2.1,7.3,3.7,16.9,3.7,16.9
			s-0.1-0.6-0.2-1.5c3.4,7.5,8.8,18.7,12.6,25.9l-4.5-7.7l-2.3-5.2l-10.1,5.8l4.7-6.5c0,0-10.6,8.9-13.3,12.3
			c-2.7,3.4-3.1,7.2-0.7,11.1c1.2,1.8,2.7,3.3,4.4,4.7c-3.2-1.3-6.1-3.1-8.9-5.2l-5.1-4C179.4,248.4,190.5,216.1,194.8,203.8z"/>
		<g>
			<path class="st15" d="M194.8,203.8c3.1-8.7,9-12.3,13.2-13.9c-1.8,1.2-7.1,5.4-8.9,11.5c-2.1,7.3,3.7,16.9,3.7,16.9
				s-0.1-0.6-0.2-1.5c3.4,7.5,8.8,18.7,12.6,25.9l-4.5-7.7l-2.3-5.2l-10.1,5.8l4.7-6.5c0,0-10.6,8.9-13.3,12.3
				c-2.7,3.4-3.1,7.2-0.7,11.1c1.2,1.8,2.7,3.3,4.4,4.7c-3.2-1.3-6.1-3.1-8.9-5.2l-5.1-4C179.4,248.4,190.5,216.1,194.8,203.8z"/>
		</g>
	</g>
</g>
<path class="st10" d="M221.4,194.6c0,0,2.4,7.3,1.8,20c-0.7,12.7-13.4,46.3-13.4,46.3l-2.9-0.1c-8.1-0.4-16-3.3-22.4-8.3l-5.1-4
	c0,0,11.2-32.3,15.4-44.5c4.3-12.2,14.2-14.4,17.1-15S221.4,192.8,221.4,194.6z"/>
<path class="st21" d="M206.3,222.5c0,0-7.6-5.2-11.3-7.6"/>
<path class="st21" d="M196.1,223.4c-0.7-0.1-1.4-0.1-2-0.3"/>
<path class="st21" d="M208.3,222.4c-3.2,0.7-6.4,1-9.7,1.1"/>
<polygon class="st18" points="210.8,185.6 224.9,192.5 222,197.5 208.6,189.6 "/>
<g>
	<defs>
		<path id="SVGID_5_" d="M199.6,209.7c1.1,4.2,18,39.2,19.6,40.1c1.6,0.9,49.3,5.8,49.3,5.8l1.9-4.1L228,238.1l-14.5-36.9"/>
	</defs>
	<clipPath id="SVGID_6_">
		<use xlink:href="#SVGID_5_"  style="overflow:visible;"/>
	</clipPath>
	<g class="st22">
		<path class="st14" d="M202.6,216.9c-0.4-2.9-1-9-0.1-8c1.2,1.3,5,12.7,9.5,20.7c4.5,8,11.2,10.7,10,11.2s-1.5,4.5-1.5,4.5l46.9,10
			c-2.6-0.3-9.7-1-17.5-1.9l-30.7-3.8l-4-6.9C211.5,235.7,206,224.4,202.6,216.9z"/>
		<path class="st23" d="M202.6,216.9c-0.4-2.9-1-9-0.1-8c1.2,1.3,5,12.7,9.5,20.7c4.5,8,11.2,10.7,10,11.2s-1.5,4.5-1.5,4.5l46.9,10
			c-2.6-0.3-9.7-1-17.5-1.9l-30.7-3.8l-4-6.9C211.5,235.7,206,224.4,202.6,216.9z"/>
	</g>
</g>
<path class="st10" d="M199.6,209.7c1.1,4.2,18,39.2,19.6,40.1c1.6,0.9,49.3,5.8,49.3,5.8l1.9-4.1L228,238.1l-14.5-36.9"/>
<path class="st10" d="M417.7,200.7c-3.6-5.9-18.1-28.6-18.1-28.6l2.5-11.6c0.1-0.4-0.2-0.8-0.6-0.9c-0.4-0.1-0.7,0.1-0.8,0.5
	l-1.9,4.2l-2.5-3.1c-0.7-0.9-2.9-4.8-3.8-5.1c-1.7-0.6-0.3,1.7-0.1,2.3c0.4,1.2,1,2,1.8,4.2c-0.6,0.4-3.1-4.4-3.5-4.9
	c-0.2-0.2-0.4-0.6-0.7-0.6c-1.3-0.1,0,2.1,0.2,2.6c0.6,1.5,1.3,3,1.9,4.4c-0.8-1.1-1.6-2.8-2.3-3.8c-0.3-0.5-0.6-0.9-0.9-1.4
	c-0.5-0.5-1.1-0.1-0.9,0.7c0.3,0.8,0.7,1.6,1.2,2.4c0.6,1.2,1.2,1.9,1.8,3.1c-0.7-0.9-1.1-1.3-1.8-2.2c-0.3-0.3-0.7-1.1-1.1-1.3
	c-1.4-0.6,0.5,2.6,0.7,2.9c0.9,1.2,1.6,2.7,2.5,3.9c0.1,0.2,1.8,1.9,1.8,1.9l3,4.1l0.1-0.1c1.2,3.4,5.6,15.9,8.2,21.9
	c3.1,7,9.1,11.9,10.9,12.4c1.4,0.3,2.9,0.5,4.4,0.5l3.4-8.1C423,201.1,419.3,201.7,417.7,200.7z"/>
<path class="st2" d="M232.5,168.6c0,0.7,0.3,1.3,0.6,1.3s0.6-0.6,0.6-1.3s-0.3-1.3-0.6-1.3S232.5,167.9,232.5,168.6z"/>
<path class="st10" d="M234.5,178.4c0,0-3,0.5-4.5-1.6"/>
<path class="st5" d="M417.7,200.7c-3.6-5.9-18.1-28.6-18.1-28.6l2.5-11.6c0.1-0.4-0.2-0.8-0.6-0.9c-0.4-0.1-0.7,0.1-0.8,0.5
	l-1.9,4.2l-2.5-3.1c-0.7-0.9-2.9-4.8-3.8-5.1c-1.7-0.6-0.3,1.7-0.1,2.3c0.4,1.2,1,2,1.8,4.2c-0.6,0.4-3.1-4.4-3.5-4.9
	c-0.2-0.2-0.4-0.6-0.7-0.6c-1.3-0.1,0,2.1,0.2,2.6c0.6,1.5,1.3,3,1.9,4.4c-0.8-1.1-1.6-2.8-2.3-3.8c-0.3-0.5-0.6-0.9-0.9-1.4
	c-0.5-0.5-1.1-0.1-0.9,0.7c0.3,0.8,0.7,1.6,1.2,2.4c0.6,1.2,1.2,1.9,1.8,3.1c-0.7-0.9-1.1-1.3-1.8-2.2c-0.3-0.3-0.7-1.1-1.1-1.3
	c-1.4-0.6,0.5,2.6,0.7,2.9c0.9,1.2,1.6,2.7,2.5,3.9c0.1,0.2,1.8,1.9,1.8,1.9l3,4.1l0.1-0.1c1.2,3.4,5.6,15.9,8.2,21.9
	c3.1,7,9.1,11.9,10.9,12.4c1.4,0.3,2.9,0.5,4.4,0.5l3.4-8.1C423,201.1,419.3,201.7,417.7,200.7z"/>
<path class="st10" d="M234.2,163.7c-1.1-0.3-2.2,0-2.9,0.8"/>
<line class="st10" x1="391.2" y1="166.2" x2="395.1" y2="162.8"/>
<g>
	<path class="st15" d="M394.8,90.6H280.3c-2.6,0-4.8,2.1-4.8,4.8v223.5c0,6.8,5.5,12.3,12.3,12.3h99.5c6.8,0,12.3-5.5,12.3-12.3
		V95.4C399.6,92.7,397.4,90.6,394.8,90.6z M383.1,312.6c-5,0-9.1,4.3-9.1,9.6h-71.9c0-5.3-4.1-9.6-9.1-9.6V109.8
		c5,0,9.1-4.3,9.1-9.6H374c0,5.3,4.1,9.6,9.1,9.6V312.6z"/>
	<circle class="st3" cx="378.8" cy="204.7" r="3.2"/>
	<circle class="st3" cx="378.9" cy="217.3" r="3.2"/>
	<g>
		<path class="st3" d="M325.6,124.4h-17.1c-2.6,0-4.7,2.1-4.7,4.6v112.1c0,2.6,2.1,4.7,4.7,4.7h17.1c0.9,0,1.7-0.2,2.4-0.6
			c0.8-0.5,1.5-1.2,1.9-2.1c0.3-0.6,0.4-1.2,0.4-1.9V129.1C330.2,126.5,328.2,124.4,325.6,124.4z M329.2,241.2c0,1-0.4,1.8-1,2.5
			l0,0c-0.1,0.1-0.1,0.1-0.2,0.2c-0.6,0.6-1.5,0.9-2.4,0.9h-17.1c-2,0-3.6-1.6-3.6-3.6V129.1c0-2,1.6-3.6,3.6-3.6h17.1
			c2,0,3.6,1.6,3.6,3.6V241.2z"/>
		<path class="st3" d="M366.6,124.4h-17.1c-2.6,0-4.7,2.1-4.7,4.6v112.1c0,2.6,2.1,4.7,4.7,4.7h17.1c2.6,0,4.6-2.1,4.6-4.7V129.1
			C371.2,126.5,369.1,124.4,366.6,124.4z M370.2,241.2c0,2-1.6,3.6-3.6,3.6h-17.1c-2,0-3.6-1.6-3.6-3.6V129.1c0-2,1.6-3.6,3.6-3.6
			h17.1c2,0,3.6,1.6,3.6,3.6V241.2z"/>
	</g>
	<g>
		<path class="st3" d="M318.3,261.9l-4.8,0v0.6h14c0.2,0,0.3,0,0.5,0V262L318.3,261.9z M329.7,262c-0.5-0.3-1.1-0.5-1.7-0.5
			c-0.2,0-0.3,0-0.5,0h-17.1c-0.7,0-1.4,0.2-2,0.4c-1.6,0.7-2.7,2.4-2.7,4.2v37.1c0,2.6,2.1,4.7,4.6,4.7h17.1c0.2,0,0.3,0,0.5,0
			c2.3-0.2,4.2-2.2,4.2-4.6v-37.1C332.1,264.3,331.1,262.8,329.7,262z M331.1,303.2c0,1.8-1.4,3.3-3.1,3.5c-0.2,0-0.3,0-0.5,0h-17.1
			c-2,0-3.6-1.6-3.6-3.6v-37.1c0-2,1.6-3.6,3.6-3.6h17.1c0.2,0,0.3,0,0.5,0c1.8,0.2,3.1,1.7,3.1,3.5V303.2z M327.5,261.4h-9.2v1.1
			h9.2c0.2,0,0.3,0,0.5,0v-1.1C327.8,261.5,327.6,261.4,327.5,261.4z"/>
		<path class="st3" d="M351.6,262.1v0.4h7.3v-0.4L351.6,262.1z M371,262.2c-0.6-0.4-1.2-0.6-2-0.7c-0.2,0-0.4,0-0.5,0h-17.1
			c-0.9,0-1.6,0.2-2.3,0.6c-1.4,0.8-2.3,2.3-2.3,4v37.1c0,2.6,2.1,4.7,4.6,4.7h17.1c2.6,0,4.7-2.1,4.7-4.7v-37.1
			C373.1,264.5,372.3,263,371,262.2z M372,303.2c0,2-1.6,3.6-3.6,3.6h-17.1c-2,0-3.6-1.6-3.6-3.6v-37.1c0-2,1.6-3.6,3.6-3.6h17.1
			c2,0,3.6,1.6,3.6,3.6V303.2z"/>
	</g>
</g>
<path class="st5" d="M199.6,209.7c1.1,4.2,18,39.2,19.6,40.1c1.6,0.9,49.3,5.8,49.3,5.8l1.9-4.1L228,238.1l-14.5-36.9"/>
<path class="st18" d="M268.4,255.8l2.1-4.4l12.7-4.7c0.5,0,0.9,0.3,1,0.8c0,0.3-0.1,0.5-0.3,0.7l-4.5,2.8l3.9,2.3
	c1.1,0.6,5.8,2.5,6.3,3.4c0.9,1.8-1.9,0.6-2.6,0.5c-1.5-0.3-2.5-0.8-5-1.3c-0.4,0.7,5.4,2.8,6.1,3.2c0.3,0.2,0.7,0.4,0.8,0.7
	c0.3,1.5-2.4,0.3-3,0.2c-1.8-0.4-3.5-0.9-5.3-1.4c1.3,0.7,3.4,1.4,4.7,2c0.6,0.2,1.2,0.5,1.7,0.8c0.7,0.5,0.3,1.3-0.6,1.1
	c-1-0.2-2-0.6-3-1c-1.4-0.5-2.3-1.1-3.7-1.6c1.1,0.6,1.6,1.1,2.7,1.7c0.4,0.2,1.4,0.6,1.6,1c0.9,1.5-3-0.1-3.4-0.4
	c-1.5-0.8-3.3-1.3-4.7-2.2c-0.2-0.1-2.4-1.8-2.4-1.8L268.4,255.8z"/>
<path class="st5" d="M450,200.6c0,0-0.8-4-4.4-4s-25.1,3.2-25.1,3.2l-1.5,11c0,0,16.7,0.5,21.1-0.1c2.5-0.3,4.8-1.3,6.8-2.9"/>
<path class="st10" d="M450,200.6c0,0-0.8-4-4.4-4s-25.1,3.2-25.1,3.2l-1.5,11c0,0,16.7,0.5,21.1-0.1c2.5-0.3,4.8-1.3,6.8-2.9"/>
<path class="st5" d="M435.8,286.9c0,0-1.5,8.5-0.6,15.8c0.9,7.3,17.6,28.4,24.6,37.4c7,9.1,8.2,14.4,8.2,14.4s1.3,4.8-2.7,6.6
	c-3.9,1.8-6.7,3.6-4.5,4.5c2.1,0.9,6.6,0.4,8.4,0.1c1.8-0.3,6.6-4.1,9.3-5c2.7-0.9,1.9-3.5,0.4-5.3c-1.5-1.8-4.2-3.7-6.3-7.3
	c-4.1-7.5-7.6-15.4-10.3-23.5c-3.9-11.2-12.9-21.1-12.9-21.1l4.7-16.2L435.8,286.9z"/>
<g>
	<defs>
		<path id="SVGID_7_" d="M435.8,286.9c0,0-1.5,8.5-0.6,15.8c0.9,7.3,17.6,28.4,24.6,37.4c7,9.1,8.2,14.4,8.2,14.4s1.3,4.8-2.7,6.6
			c-3.9,1.8-6.7,3.6-4.5,4.5c2.1,0.9,6.6,0.4,8.4,0.1c1.8-0.3,6.6-4.1,9.3-5c2.7-0.9,1.9-3.5,0.4-5.3c-1.5-1.8-4.2-3.7-6.3-7.3
			c-4.1-7.5-7.6-15.4-10.3-23.5c-3.9-11.2-12.9-21.1-12.9-21.1l4.7-16.2L435.8,286.9z"/>
	</defs>
	<clipPath id="SVGID_8_">
		<use xlink:href="#SVGID_7_"  style="overflow:visible;"/>
	</clipPath>
	<g class="st24">
		<path class="st14" d="M472.5,348.2c-4.1-7.5-7.6-15.4-10.3-23.5c-3.9-11.2-12.9-21.1-12.9-21.1l4.7-16.2l-13.6-0.4l-2,5.3
			c0,0-2.5,6.7-0.5,12.2c1.9,5.5,24.4,34.4,28.1,42.7c0.9,1.9,1.4,3.9,1.6,5.9c0.2,0.4,0.3,0.9,0.4,1.3c0,0,1.3,4.8-2.7,6.6
			c-3.9,1.8-6.7,3.6-4.5,4.5c2.1,0.9,6.6,0.4,8.4,0.1c1.8-0.3,6.6-4.1,9.3-5c2.7-0.9,1.9-3.5,0.4-5.3
			C477.2,353.7,474.6,351.9,472.5,348.2z"/>
		<path class="st15" d="M472.5,348.2c-4.1-7.5-7.6-15.4-10.3-23.5c-3.9-11.2-12.9-21.1-12.9-21.1l4.7-16.2l-13.6-0.4l-2,5.3
			c0,0-2.5,6.7-0.5,12.2c1.9,5.5,24.4,34.4,28.1,42.7c0.9,1.9,1.4,3.9,1.6,5.9c0.2,0.4,0.3,0.9,0.4,1.3c0,0,1.3,4.8-2.7,6.6
			c-3.9,1.8-6.7,3.6-4.5,4.5c2.1,0.9,6.6,0.4,8.4,0.1c1.8-0.3,6.6-4.1,9.3-5c2.7-0.9,1.9-3.5,0.4-5.3
			C477.2,353.7,474.6,351.9,472.5,348.2z"/>
	</g>
</g>
<path class="st10" d="M435.8,286.9c0,0-1.5,8.5-0.6,15.8c0.9,7.3,17.6,28.4,24.6,37.4c7,9.1,8.2,14.4,8.2,14.4s1.3,4.8-2.7,6.6
	c-3.9,1.8-6.7,3.6-4.5,4.5c2.1,0.9,6.6,0.4,8.4,0.1c1.8-0.3,6.6-4.1,9.3-5c2.7-0.9,1.9-3.5,0.4-5.3c-1.5-1.8-4.2-3.7-6.3-7.3
	c-4.1-7.5-7.6-15.4-10.3-23.5c-3.9-11.2-12.9-21.1-12.9-21.1l4.7-16.2L435.8,286.9z"/>
<path class="st16" d="M478.7,355.6c-0.1-0.1-0.2-0.2-0.3-0.4c-2.3,1.6-4.7,2.9-7.2,4l-2.9-2.4h-0.3c-0.1,1.8-1.2,3.5-2.8,4.2
	c-3.9,1.8-6.7,3.6-4.5,4.5s6.6,0.4,8.4,0.1c1.8-0.3,6.6-4.1,9.3-5C481.1,359.9,480.3,357.4,478.7,355.6z"/>
<path class="st5" d="M431.5,277.5c0,0-0.4,21.4,2.3,28.1c2.7,6.7,7.7,20.4,9.4,29.2c1.6,8.6,2.6,17.4,2.9,26.2c0,0-8.8,6.1-11.9,7.3
	c-3.1,1.1-0.8,2.7,2.4,2.7c4.2,0,8.4-0.3,12.5-0.8c0.8-0.1,1.6-0.2,2.2-0.3c0.9-0.1,1.6-0.9,1.5-1.8c0,0,0,0,0-0.1
	c-0.2-1.9-1.8-4.5-1.8-6.5c0-3.1,2.4-16,4-28.1c1.5-12.1-6.9-21-8.5-31.2c-1.6-10.2,1-24.8,1-24.8L431.5,277.5z"/>
<g>
	<defs>
		<path id="SVGID_9_" d="M431.5,277.5c0,0-0.4,21.4,2.3,28.1c2.7,6.7,7.7,20.4,9.4,29.2c1.6,8.6,2.6,17.4,2.9,26.2
			c0,0-8.8,6.1-11.9,7.3c-3.1,1.1-0.8,2.7,2.4,2.7c4.2,0,8.4-0.3,12.5-0.8c0.8-0.1,1.6-0.2,2.2-0.3c0.9-0.1,1.6-0.9,1.5-1.8
			c0,0,0,0,0-0.1c-0.2-1.9-1.8-4.5-1.8-6.5c0-3.1,2.4-16,4-28.1c1.5-12.1-6.9-21-8.5-31.2c-1.6-10.2,1-24.8,1-24.8L431.5,277.5z"/>
	</defs>
	<clipPath id="SVGID_10_">
		<use xlink:href="#SVGID_9_"  style="overflow:visible;"/>
	</clipPath>
	<g class="st25">
		<path class="st14" d="M446.4,302.2c-1.6-10.2,1-24.8,1-24.8l-15.9,0.1c0,0-0.3,18.5,1.8,26.5c2.1,0.6,4.3,1,6.5,1.1h3.4
			c0,0,6.2,16.1,7.3,26.3c1.1,10.2-3,29.1-2.3,32c0.5,2,1.8,4.8,2,6.7c0.4-0.1,0.8-0.1,1.1-0.1c0.9-0.1,1.6-0.9,1.5-1.8
			c0,0,0,0,0-0.1c-0.2-1.9-1.8-4.5-1.8-6.5c0-3.1,2.4-16,4-28.1C456.5,321.3,448,312.4,446.4,302.2z"/>
		<path class="st15" d="M446.4,302.2c-1.6-10.2,1-24.8,1-24.8l-15.9,0.1c0,0-0.3,18.5,1.8,26.5c2.1,0.6,4.3,1,6.5,1.1h3.4
			c0,0,6.2,16.1,7.3,26.3c1.1,10.2-3,29.1-2.3,32c0.5,2,1.8,4.8,2,6.7c0.4-0.1,0.8-0.1,1.1-0.1c0.9-0.1,1.6-0.9,1.5-1.8
			c0,0,0,0,0-0.1c-0.2-1.9-1.8-4.5-1.8-6.5c0-3.1,2.4-16,4-28.1C456.5,321.3,448,312.4,446.4,302.2z"/>
	</g>
</g>
<path class="st10" d="M431.5,277.5c0,0-0.4,21.4,2.3,28.1c2.7,6.7,7.7,20.4,9.4,29.2c1.6,8.6,2.6,17.4,2.9,26.2
	c0,0-8.8,6.1-11.9,7.3c-3.1,1.1-0.8,2.7,2.4,2.7c4.2,0,8.4-0.3,12.5-0.8c0.8-0.1,1.6-0.2,2.2-0.3c0.9-0.1,1.6-0.9,1.5-1.8
	c0,0,0,0,0-0.1c-0.2-1.9-1.8-4.5-1.8-6.5c0-3.1,2.4-16,4-28.1c1.5-12.1-6.9-21-8.5-31.2c-1.6-10.2,1-24.8,1-24.8L431.5,277.5z"/>
<path class="st16" d="M451.2,369.9c0.9-0.1,1.6-0.9,1.5-1.8c0,0,0,0,0-0.1c-0.2-1.3-0.9-3-1.4-4.5l-5.9,1.2l-2.5-1.6
	c-2.8,1.9-6.8,4.4-8.7,5.1c-3.1,1.2-0.8,2.7,2.4,2.7c4.2,0,8.4-0.3,12.5-0.8C449.9,370.1,450.6,370,451.2,369.9z"/>
<path class="st16" d="M429.7,237.6c0,0-6.5,6.3-12.9,20.8c-6.4,14.4-7.6,34.6-7.6,34.6s12.6,6.6,31.9,5.7
	c19.3-0.9,29.2-10.5,29.2-10.5s-5.9-28-15-42c-5.3-8.1-7.2-10.7-7.2-10.7S434.3,234.5,429.7,237.6z"/>
<path class="st17" d="M432.1,238.9c-1.9,4-3.3,8.3-4.1,12.6"/>
<path class="st17" d="M437.8,236.9c2.3,7.6,3.4,15.5,3.2,23.4"/>
<path class="st17" d="M441.8,233.9c3.7,3.7,6.7,8,8.7,12.9"/>
<path class="st5" d="M452.5,193.3c0,0-5.7,4-11.9,8.2c-6.2,4.2-8,6.2-8.2,10c-0.2,3.8,1,9.8,0.2,11.7c-0.8,1.8-2.9,10.3-3.7,14.7
	c-0.4,2.5,12.6,2.6,17.9,1.8c1.4-0.2,2.5-1.3,2.8-2.7c0.9-4.4,3.4-15.5,7.3-21.2c5.2-7.6,3.8-15.2,2.2-18.2
	C457.5,194.6,455.9,191.3,452.5,193.3z"/>
<g>
	<defs>
		<path id="SVGID_11_" d="M452.5,193.3c0,0-5.7,4-11.9,8.2c-6.2,4.2-8,6.2-8.2,10c-0.2,3.8,1,9.8,0.2,11.7
			c-0.8,1.8-2.9,10.3-3.7,14.7c-0.4,2.5,12.6,2.6,17.9,1.8c1.4-0.2,2.5-1.3,2.8-2.7c0.9-4.4,3.4-15.5,7.3-21.2
			c5.2-7.6,3.8-15.2,2.2-18.2C457.5,194.6,455.9,191.3,452.5,193.3z"/>
	</defs>
	<clipPath id="SVGID_12_">
		<use xlink:href="#SVGID_11_"  style="overflow:visible;"/>
	</clipPath>
	<g class="st26">
		<path class="st14" d="M460.3,196.9c-1.6-3-4.4-5.7-7.8-3.6l-1.3,1c-0.5,0.6-0.9,1.3-1.2,2l-1.3,8.1c0,0-7.3,6.7-8.9,11.3
			s0.3,12.9-0.5,16.2c-0.5,1.9-5.6,4.7-9.6,7.2c2.7,1.5,12.7,1.4,17.2,0.8c1.4-0.2,2.5-1.3,2.8-2.7c0.9-4.4,3.4-15.5,7.3-21.2
			C462.1,208.2,461.9,200,460.3,196.9z"/>
		<path class="st23" d="M460.3,196.9c-1.6-3-4.4-5.7-7.8-3.6l-1.3,1c-0.5,0.6-0.9,1.3-1.2,2l-1.3,8.1c0,0-7.3,6.7-8.9,11.3
			s0.3,12.9-0.5,16.2c-0.5,1.9-5.6,4.7-9.6,7.2c2.7,1.5,12.7,1.4,17.2,0.8c1.4-0.2,2.5-1.3,2.8-2.7c0.9-4.4,3.4-15.5,7.3-21.2
			C462.1,208.2,461.9,200,460.3,196.9z"/>
	</g>
</g>
<path class="st15" d="M452.5,193.3c0,0-5.7,4-11.9,8.2c-6.2,4.2-8,6.2-8.2,10c-0.2,3.8,1,9.8,0.2,11.7c-0.8,1.8-2.9,10.3-3.7,14.7
	c-0.4,2.5,12.6,2.6,17.9,1.8c1.4-0.2,2.5-1.3,2.8-2.7c0.9-4.4,3.4-15.5,7.3-21.2c5.2-7.6,3.8-15.2,2.2-18.2
	C457.5,194.6,455.9,191.3,452.5,193.3z"/>
<path class="st16" d="M440.9,154.2c0,0-7.4,1-7.7,4.2c-0.3,3.2,3.8,3.8,3.2,5.1c-0.6,1.3-6.7,0.3-7,4.5s12.1,15.9,15.3,16.2
	c3.2,0.3,7.7,3,12.9,0.4c5.1-2.6,9.9-11.2,3.8-21.1S440.9,154.2,440.9,154.2z"/>
<path class="st17" d="M443,158.3c-0.9,0.3-1.6,1.1-1.6,2c-0.5,3.9,9.4,10.7,16.7,13.3s2.9,7,1,8.1"/>
<path class="st17" d="M447.6,159c-0.7-0.3-1.3-0.5-2.1-0.7"/>
<path class="st5" d="M444.6,188.3c0.7,2.1,1,4.3,1,6.5c-0.1,1.8-0.6,3.6-1.4,5.2l8.2-6.6c0,0-0.2-2.2-0.6-5.8
	c-0.4-3.6-1.4-8.5-1.4-8.5L444.6,188.3z"/>
<g>
	<defs>
		<path id="SVGID_13_" d="M444.6,188.3c0.7,2.1,1,4.3,1,6.5c-0.1,1.8-0.6,3.6-1.4,5.2l8.2-6.6c0,0-0.2-2.2-0.6-5.8
			c-0.4-3.6-1.4-8.5-1.4-8.5L444.6,188.3z"/>
	</defs>
	<clipPath id="SVGID_14_">
		<use xlink:href="#SVGID_13_"  style="overflow:visible;"/>
	</clipPath>
	<g class="st27">
		<path class="st14" d="M444.6,188.3c0.7,2.1,1,4.3,1,6.5c-0.1,1.8-0.6,3.6-1.4,5.2l8.2-6.6c0,0-0.2-2.2-0.6-5.8
			c-0.4-3.6-1.4-8.5-1.4-8.5L444.6,188.3z"/>
		<path class="st15" d="M444.6,188.3c0.7,2.1,1,4.3,1,6.5c-0.1,1.8-0.6,3.6-1.4,5.2l8.2-6.6c0,0-0.2-2.2-0.6-5.8
			c-0.4-3.6-1.4-8.5-1.4-8.5L444.6,188.3z"/>
	</g>
</g>
<path class="st10" d="M444.6,188.3c0.7,2.1,1,4.3,1,6.5c-0.1,1.8-0.6,3.6-1.4,5.2l8.2-6.6c0,0-0.2-2.2-0.6-5.8
	c-0.4-3.6-1.4-8.5-1.4-8.5L444.6,188.3z"/>
<path class="st5" d="M442,164.8c0,0-4.2,2.2-5.4,5.4c-1.2,3.2-0.6,5.4-1.6,7.3c-1,1.8-2.8,2-1.6,2.8s2.8,1.8,2.8,1.8
	s0.8,6.5,1.4,7.6s2.6,0.8,5.2,0s6.5-3.7,7.1-4.7c0.6-1,0.7-5,0.7-5S440.6,173.6,442,164.8z"/>
<path class="st10" d="M442,164.8c0,0-4.2,2.2-5.4,5.4c-1.2,3.2-0.6,5.4-1.6,7.3c-1,1.8-2.8,2-1.6,2.8s2.8,1.8,2.8,1.8
	s0.8,6.5,1.4,7.6s2.6,0.8,5.2,0s6.5-3.7,7.1-4.7c0.6-1,0.7-5,0.7-5S440.6,173.6,442,164.8z"/>
<polygon class="st18" points="453.3,190.5 444,198.8 442,204 456.5,193.3 "/>
<path class="st18" d="M447.2,177.5c0,0,1.6-5.1,4.2-3.5s0,6.7-1,7c-1,0.3-2.6-0.6-2.6-0.6"/>
<path class="st18" d="M442.2,224.8l-1.5,1.5c0,0-6.1-0.3-10,0.6s-21.1,2.1-21.1,2.1l-5,0.5l-8.5-8.4c-0.3-0.3-0.8-0.3-1,0
	c-0.2,0.3-0.3,0.7-0.1,0.9l2.6,3.8l-4,0.4c-1.1,0.1-5.6-0.1-6.3,0.5c-1.4,1.1,1.3,1.2,1.9,1.3c1.3,0.3,2.3,0.3,4.5,0.8
	c0,0.7-5.4,0.3-6.1,0.3c-0.3,0-0.7,0-0.9,0.3c-0.8,1.1,1.8,1.1,2.3,1.2c1.6,0.3,3.2,0.5,4.7,0.8c-1.3,0.1-3.2-0.2-4.5-0.1
	c-0.6,0-1.1,0-1.7,0c-0.7,0.2-0.7,0.9,0.1,1.1c0.9,0.2,1.8,0.3,2.7,0.3c1.3,0.1,2.2,0,3.6,0.1c-1.1,0.1-1.7,0.3-2.8,0.3
	c-0.6,0-1.1,0-1.7,0.2c-1.2,0.9,2.4,1,2.9,0.9c1.5-0.1,3.1,0.1,4.6,0c0.2,0,2.6-0.5,2.6-0.5l5.1-0.4v-0.1c3.7,0.4,21.6,2.1,27.5,2.1
	c6.7,0,14.5-2.1,14.5-2.1l2.4-6.1L442.2,224.8z"/>
<path class="st15" d="M442.2,224.8l-1,1l2.6,4.7c0,0-3.2,0.8-14.3,2.2c-7.3,0.9-16.3,1.2-21.7,1.3c6.5,0.6,19.5,1.8,24.4,1.8
	c6.7,0,14.5-2.1,14.5-2.1l2.4-6.1L442.2,224.8z"/>
<path class="st10" d="M442.2,224.8l-1.5,1.5c0,0-6.1-0.3-10,0.6s-21.1,2.1-21.1,2.1l-5,0.5l-8.5-8.4c-0.3-0.3-0.8-0.3-1,0
	c-0.2,0.3-0.3,0.7-0.1,0.9l2.6,3.8l-4,0.4c-1.1,0.1-5.6-0.1-6.3,0.5c-1.4,1.1,1.3,1.2,1.9,1.3c1.3,0.3,2.3,0.3,4.5,0.8
	c0,0.7-5.4,0.3-6.1,0.3c-0.3,0-0.7,0-0.9,0.3c-0.8,1.1,1.8,1.1,2.3,1.2c1.6,0.3,3.2,0.5,4.7,0.8c-1.3,0.1-3.2-0.2-4.5-0.1
	c-0.6,0-1.1,0-1.7,0c-0.7,0.2-0.7,0.9,0.1,1.1c0.9,0.2,1.8,0.3,2.7,0.3c1.3,0.1,2.2,0,3.6,0.1c-1.1,0.1-1.7,0.3-2.8,0.3
	c-0.6,0-1.1,0-1.7,0.2c-1.2,0.9,2.4,1,2.9,0.9c1.5-0.1,3.1,0.1,4.6,0c0.2,0,2.6-0.5,2.6-0.5l5.1-0.4v-0.1c3.7,0.4,21.6,2.1,27.5,2.1
	c6.7,0,14.5-2.1,14.5-2.1l2.4-6.1L442.2,224.8z"/>
<path class="st5" d="M455,197.6c0,0-4.1-1.1-5.8,2.1c-1.7,3.3-8.9,24.6-8.9,24.6l8.2,6.6c0,0,9.5-15.1,11-19.5
	c0.9-2.4,1.1-5.1,0.5-7.6"/>
<path class="st15" d="M460.2,208.3c-0.6-1.7-2.5-6.4-4.9-6.6c-3-0.3-4.6,10-7.5,15.9c-3,5.9-0.8,8.3-0.8,8.3l-5.7-3l7.2,7.9
	c0.7-1.1,9.5-15.2,11-19.4C459.9,210.4,460.1,209.4,460.2,208.3z"/>
<path class="st10" d="M455,197.6c0,0-4.1-1.1-5.8,2.1c-1.7,3.3-8.9,24.6-8.9,24.6l8.2,6.6c0,0,9.5-15.1,11-19.5
	c0.9-2.4,1.1-5.1,0.5-7.6"/>
<path class="st14" d="M449.6,158.3c-1-0.3-12.9-0.7-12.9-0.7"/>
<path class="st2" d="M439,176.8c0,0.6-0.2,1.1-0.5,1.1s-0.5-0.5-0.5-1.1s0.2-1.1,0.5-1.1S439,176.2,439,176.8z"/>
<path class="st28" d="M437.7,183c0,0,2.6-0.4,3.5-1.8"/>
<path class="st28" d="M437,173.4c0,0,1.5-1.8,2.7-0.5"/>
</svg>
