<?xml version="1.0" encoding="utf-8"?>
<!-- Generator: Adobe Illustrator 23.0.2, SVG Export Plug-In . SVG Version: 6.00 Build 0)  -->
<svg version="1.1" id="Layer_1" xmlns="http://www.w3.org/2000/svg" xmlns:xlink="http://www.w3.org/1999/xlink" x="0px" y="0px"
	 viewBox="0 0 500 500" style="enable-background:new 0 0 500 500;" xml:space="preserve">
<style type="text/css">
	.st0{fill:#37474F;}
	.st1{fill:#455A64;}
	.st2{fill:#263238;}
	.st3{fill:#FFFFFF;}
	.st4{fill:#90CAF9;}
	.st5{opacity:0.5;fill:#FFFFFF;enable-background:new    ;}
	.st6{opacity:0.4;enable-background:new    ;}
	.st7{opacity:0.3;enable-background:new    ;}
	.st8{opacity:0.2;enable-background:new    ;}
	.st9{opacity:0.1;enable-background:new    ;}
	.st10{fill:#F5F5F5;}
	.st11{fill:#E0E0E0;}
	.st12{fill:#EBEBEB;}
	.st13{opacity:0.5;}
	.st14{opacity:0.6;fill:#FFFFFF;enable-background:new    ;}
	.st15{opacity:0.4;fill:#90CAF9;enable-background:new    ;}
	.st16{opacity:5.000000e-02;enable-background:new    ;}
	.st17{opacity:0.25;enable-background:new    ;}
</style>
<g id="freepik--Device--inject-33">
	<g id="freepik--Laptop--inject-33">
		<path class="st0" d="M118,365.6c0.3,3.8,2.4,7.3,5.6,9.4l122.9,71c3.6,1.8,7.7,1.8,11.3,0l216.5-125c5.2-2.7,7.2-9.1,4.4-14.3
			c-1-1.9-2.5-3.4-4.4-4.4l-122.9-71c-3.5-1.8-7.7-1.8-11.3,0l-216.4,125C120.4,358.2,118.3,361.7,118,365.6z"/>
		<path class="st1" d="M123.6,362.7l122.9,71c3.5,1.8,7.7,1.8,11.3,0l216.4-125c3.1-1.8,3.1-4.7,0-6.5l-122.9-71
			c-3.5-1.8-7.7-1.8-11.3,0l-216.4,125C120.5,358,120.5,360.9,123.6,362.7z"/>
		<path class="st2" d="M252.2,435.1v12.2c-2,0.1-4-0.4-5.7-1.3l-122.9-71c-5.2-2.7-7.2-9.1-4.4-14.3c0.9-1.7,2.2-3.1,3.9-4.1
			c-2.5,1.8-2.3,4.5,0.6,6.2l122.9,71C248.3,434.6,250.2,435.1,252.2,435.1z"/>
		<path class="st0" d="M112.7,356.4c-2.9-1.7-2.8-4.6-2.8-8.1V178.5c0.2-4,2.4-7.6,5.7-9.8L332,43.7c3.4-1.8,7.5-1.9,10.9-0.2
			c2.9,1.7,2.8,4.6,2.8,8.1v169.8c-0.2,4-2.3,7.6-5.6,9.8l-216.4,125C120.2,358,116.2,358.1,112.7,356.4z"/>
		<path class="st1" d="M345.7,51.7c0-3.6-2.5-5-5.6-3.3l-216.4,125c-1.7,1-3,2.5-4,4.2l-8-4.7l0,0c0.9-1.7,2.3-3.2,4-4.2L332,43.7
			c3.4-1.8,7.5-1.9,10.9-0.2C345.9,45.3,345.7,48.1,345.7,51.7z"/>
		<path class="st2" d="M123,356.5c-3.3,1.5-7,1.4-10.3-0.1c-2.9-1.7-2.8-4.6-2.8-8.1V178.5c0.1-2,0.6-3.9,1.7-5.6l8.1,4.7l0,0
			c-1,1.7-1.6,3.6-1.7,5.6V353C118,356.3,120.2,357.8,123,356.5z"/>
		<path class="st3" d="M126.7,179.9L335.4,59.5c1.9-1.1,3.4-0.2,3.4,2v148.2c-0.1,2.4-1.4,4.6-3.4,5.9L126.7,335.9
			c-1.9,1.1-3.4,0.2-3.4-2V185.8C123.4,183.4,124.7,181.2,126.7,179.9z"/>
		<path class="st2" d="M139.3,356.5l200.9-116c1.8-0.9,3.9-0.9,5.6,0l3.3,1.8c1.6,0.9,1.6,2.4,0,3.3l-200.9,116
			c-1.8,0.9-3.9,0.9-5.7,0l-3.3-1.8C137.7,358.9,137.7,357.4,139.3,356.5z"/>
		<path class="st2" d="M155,365.9l200.9-116c1.6-0.9,3.5-1,5.2-0.3l52.3,30.2c1.3,0.7,1.1,2.1-0.5,3L212.2,398.6
			c-1.6,0.9-3.5,1-5.2,0.3l-52.5-30.1C153.2,368.1,153.5,366.8,155,365.9z"/>
		<path class="st1" d="M329.1,298.7l6.3-3.6c0.3-0.1,0.3-0.4,0-0.5l-6-3.4c-0.3-0.1-0.6-0.1-0.9,0l-6.3,3.6c-0.3,0.1-0.3,0.4,0,0.5
			l6,3.4C328.5,298.8,328.8,298.8,329.1,298.7z M320,286.1l-6.3,3.6c-0.3,0.1-0.3,0.4-0.1,0.5l6,3.4c0.3,0.1,0.6,0.1,0.9,0l6.3-3.6
			c0.3-0.1,0.3-0.4,0.1-0.5l-6-3.4C320.6,285.9,320.2,285.9,320,286.1L320,286.1z M299.6,297.8L289,304c-0.3,0.1-0.3,0.4-0.1,0.5
			l6,3.5c0.3,0.1,0.6,0.1,0.9,0l10.6-6.2c0.3-0.1,0.3-0.4,0-0.5l-6-3.4C300.2,297.7,299.9,297.7,299.6,297.8L299.6,297.8z
			 M310.8,291.4l-6.3,3.6c-0.3,0.1-0.3,0.4-0.1,0.5l6,3.4c0.3,0.1,0.6,0.1,0.9,0l6.3-3.6c0.3-0.1,0.3-0.4,0-0.5l-6-3.4
			C311.3,291.3,311,291.2,310.8,291.4L310.8,291.4z M286.1,305.7l-6.3,3.6c-0.3,0.2-0.3,0.4-0.1,0.5l6,3.4c0.3,0.1,0.6,0.1,0.9,0
			l6.3-3.6c0.3-0.2,0.3-0.4,0.1-0.5l-6-3.4C286.7,305.5,286.3,305.5,286.1,305.7L286.1,305.7z M276.9,311l-6.4,3.6
			c-0.3,0.2-0.3,0.4,0,0.5l6,3.5c0.3,0.1,0.6,0.1,0.9,0l6.3-3.6c0.3-0.2,0.3-0.4,0.1-0.5l-6-3.4C277.5,310.8,277.2,310.8,276.9,311
			L276.9,311z M300.5,325.2l6.3-3.6c0.3-0.2,0.3-0.4,0-0.5l-6-3.4c-0.3-0.1-0.6-0.1-0.9,0l-6.3,3.6c-0.3,0.2-0.3,0.4-0.1,0.5l6,3.5
			C299.8,325.3,300.2,325.3,300.5,325.2L300.5,325.2z M291.3,330.5l6.3-3.6c0.3-0.2,0.3-0.4,0.1-0.5l-6-3.5c-0.3-0.1-0.6-0.1-0.9,0
			l-6.3,3.6c-0.3,0.2-0.3,0.4,0,0.5l6,3.4C290.7,330.5,291,330.5,291.3,330.5L291.3,330.5z M282.1,335.8l6.3-3.6
			c0.3-0.2,0.3-0.4,0-0.5l-6-3.5c-0.3-0.1-0.6-0.1-0.9,0l-6.3,3.6c-0.3,0.2-0.3,0.4-0.1,0.5l6,3.5
			C281.4,335.9,281.8,335.9,282.1,335.8L282.1,335.8z M272.8,341l6.3-3.6c0.3-0.2,0.3-0.4,0-0.5l-6-3.5c-0.3-0.1-0.6-0.1-0.9,0
			l-6.2,3.7c-0.3,0.2-0.3,0.4,0,0.5l6,3.5C272.3,341.2,272.6,341.2,272.8,341z M319.9,303.9l6.3-3.6c0.3-0.1,0.3-0.4,0.1-0.5l-6-3.4
			c-0.3-0.1-0.6-0.1-0.9,0L313,300c-0.3,0.1-0.3,0.4,0,0.5l6,3.4C319.3,304.1,319.6,304.1,319.9,303.9L319.9,303.9z M309.6,319.8
			l14-8.1c0.3-0.1,0.3-0.4,0-0.5l-14.6-8.4c-0.3-0.1-0.6-0.1-0.9,0l-7.2,4.2c-0.3,0.2-0.3,0.4-0.1,0.5l7.7,4.5
			c0.2,0.1,0.2,0.4-0.1,0.5l-5.7,3.3c-0.3,0.2-0.3,0.4,0,0.5l6,3.5C309,319.9,309.4,319.9,309.6,319.8L309.6,319.8z M267.6,316.2
			l-6.2,3.6c-0.3,0.2-0.3,0.4,0,0.5l6,3.5c0.3,0.1,0.6,0.1,0.9,0l6.3-3.6c0.3-0.2,0.3-0.4,0.1-0.5l-6-3.5
			C268.4,316.1,268,316.1,267.6,316.2L267.6,316.2z M258.5,321.5l-6.3,3.6c-0.3,0.2-0.3,0.4,0,0.5l6,3.5c0.3,0.1,0.6,0.1,0.9,0
			l6.3-3.6c0.3-0.2,0.3-0.4,0.1-0.5l-6.1-3.5C259.1,321.4,258.8,321.4,258.5,321.5z M207.6,378.2c0.3,0.1,0.6,0.1,0.9,0l6.3-3.6
			c0.3-0.1,0.3-0.4,0.1-0.5l-6-3.4c-0.3-0.1-0.6-0.1-0.9,0l-6.3,3.6c-0.3,0.2-0.3,0.4-0.1,0.5L207.6,378.2z M184.9,364l-6.3,3.6
			c-0.3,0.2-0.3,0.4-0.1,0.5l6,3.4c0.3,0.1,0.6,0.1,0.9,0l6.3-3.6c0.3-0.1,0.3-0.4,0-0.5l-6-3.4C185.5,363.9,185.2,363.9,184.9,364z
			 M196.6,374.7c0.3,0.1,0.6,0.1,0.9,0l6.3-3.6c0.3-0.2,0.3-0.4,0-0.5l-6-3.4c-0.3-0.1-0.6-0.1-0.9,0l-6.2,3.6
			c-0.3,0.1-0.3,0.4-0.1,0.5L196.6,374.7z M222,380.4l6.3-3.6c0.3-0.1,0.3-0.4,0-0.5l-6-3.4c-0.3-0.1-0.6-0.1-0.9,0l-6.3,3.6
			c-0.3,0.1-0.3,0.4,0,0.5l6,3.4C221.3,380.5,221.7,380.5,222,380.4L222,380.4z M211.9,385.7c0.3,0.1,0.6,0.1,0.9,0l6.3-3.6
			c0.3-0.1,0.3-0.4,0-0.5l-6-3.4c-0.3-0.1-0.6-0.1-0.9,0l-6.3,3.6c-0.3,0.1-0.3,0.4-0.1,0.5L211.9,385.7z M194.1,358.7l-6.3,3.6
			c-0.3,0.2-0.3,0.4,0,0.5l6,3.4c0.3,0.1,0.6,0.1,0.9,0l6.3-3.6c0.3-0.1,0.3-0.4,0.1-0.5l-6-3.5
			C194.7,358.5,194.4,358.5,194.1,358.7z M240,332.2l-6.3,3.6c-0.3,0.2-0.3,0.4-0.1,0.5l6,3.4c0.3,0.1,0.6,0.1,0.9,0l6.3-3.6
			c0.3-0.2,0.3-0.4,0-0.5l-6-3.5C240.6,332,240.3,332,240,332.2L240,332.2z M203.3,353.4L197,357c-0.3,0.2-0.3,0.4-0.1,0.5l6,3.4
			c0.3,0.1,0.6,0.1,0.9,0l6.3-3.6c0.3-0.2,0.3-0.4,0-0.5l-6-3.4C203.9,353.3,203.6,353.3,203.3,353.4L203.3,353.4z M249.2,326.9
			l-6.3,3.6c-0.3,0.2-0.3,0.4,0,0.5l6,3.5c0.3,0.1,0.6,0.1,0.9,0l6.3-3.6c0.3-0.2,0.3-0.4,0.1-0.5l-6-3.4
			C249.9,326.7,249.6,326.7,249.2,326.9L249.2,326.9z M230.9,337.5l-6.3,3.6c-0.3,0.2-0.3,0.4,0,0.5l6,3.5c0.3,0.1,0.6,0.1,0.9,0
			l6.3-3.6c0.3-0.2,0.3-0.4,0.1-0.5l-6.1-3.5C231.5,337.3,231.2,337.3,230.9,337.5z M221.7,342.8l-6.3,3.6c-0.3,0.2-0.3,0.4-0.1,0.5
			l6,3.5c0.3,0.1,0.6,0.1,0.9,0l6.3-3.6c0.3-0.2,0.3-0.4,0-0.5l-6-3.5C222.3,342.6,222,342.6,221.7,342.8L221.7,342.8z M212.6,348.1
			l-6.3,3.6c-0.3,0.2-0.3,0.4,0,0.5l6,3.4c0.3,0.1,0.6,0.1,0.9,0l6.3-3.6c0.3-0.2,0.3-0.4,0.1-0.5l-6.1-3.5
			C213.2,347.9,212.8,347.9,212.6,348.1L212.6,348.1z M254.5,351.7l6.3-3.6c0.3-0.2,0.3-0.4,0-0.5l-6-3.4c-0.3-0.1-0.6-0.1-0.9,0
			l-6.3,3.6c-0.3,0.2-0.3,0.4,0,0.5l6,3.5C253.9,351.8,254.2,351.8,254.5,351.7L254.5,351.7z M340.3,274.3L334,278
			c-0.3,0.1-0.3,0.4-0.1,0.5l6,3.4c0.3,0.1,0.6,0.1,0.9,0l6.3-3.6c0.3-0.1,0.3-0.4,0.1-0.5l-6-3.4
			C340.9,274.2,340.5,274.2,340.3,274.3L340.3,274.3z M329.2,280.8l-6.3,3.6c-0.3,0.1-0.3,0.4-0.1,0.5l6,3.4c0.3,0.1,0.6,0.1,0.9,0
			l6.3-3.6c0.3-0.1,0.3-0.4,0.1-0.5l-6-3.4C329.8,280.6,329.4,280.6,329.2,280.8L329.2,280.8z M349.4,269l-6.3,3.6
			c-0.3,0.1-0.3,0.4-0.1,0.5l6,3.4c0.3,0.1,0.6,0.1,0.9,0l6.3-3.6c0.3-0.1,0.3-0.4,0.1-0.5l-6-3.4
			C350.1,268.8,349.7,268.8,349.4,269z M298.6,316.2l6.3-3.6c0.3-0.1,0.3-0.4,0.1-0.5l-6-3.4c-0.3-0.1-0.6-0.1-0.9,0l-6.3,3.6
			c-0.3,0.1-0.3,0.4-0.1,0.5l6,3.4C298,316.4,298.3,316.4,298.6,316.2z M359.5,263.7c-0.3-0.1-0.6-0.1-0.9,0l-6.3,3.6
			c-0.3,0.1-0.3,0.4-0.1,0.5l6,3.4c0.3,0.1,0.6,0.1,0.9,0l6.3-3.6c0.3-0.1,0.3-0.4,0.1-0.5L359.5,263.7z M263.7,346.4l6.3-3.6
			c0.3-0.2,0.3-0.4,0-0.5l-6-3.5c-0.3-0.1-0.6-0.1-0.9,0l-6.2,3.6c-0.3,0.2-0.3,0.4,0,0.5l6,3.5
			C263.1,346.5,263.4,346.5,263.7,346.4L263.7,346.4z M376.4,281.3l6.3-3.6c0.3-0.1,0.3-0.4,0.1-0.5l-6-3.6c-0.3-0.1-0.6-0.1-0.9,0
			l-6.3,3.6c-0.3,0.2-0.3,0.4-0.1,0.5l6,3.4C375.7,281.3,376.1,281.4,376.4,281.3L376.4,281.3z M358.6,281.7l6.3-3.6
			c0.3-0.1,0.3-0.4,0-0.5l-6-3.4c-0.3-0.1-0.6-0.1-0.9,0l-6.3,3.6c-0.3,0.1-0.3,0.4-0.1,0.5l6,3.4c0.3,0.1,0.7,0.1,1-0.1V281.7z
			 M368.1,268.7c-0.3-0.1-0.6-0.1-0.9,0l-6.3,3.6c-0.3,0.1-0.3,0.4,0,0.5l6,3.4c0.3,0.1,0.6,0.1,0.9,0l6.3-3.6
			c0.3-0.1,0.3-0.4,0-0.5L368.1,268.7z M370.1,267.6l14.6,8.4c0.3,0.1,0.6,0.1,0.9,0l6.3-3.6c0.3-0.1,0.3-0.4,0-0.5l-14.6-8.4
			c-0.3-0.1-0.6-0.1-0.9,0l-6.3,3.6C369.8,267.2,369.8,267.4,370.1,267.6L370.1,267.6z M348.8,279.3l-6.3,3.6
			c-0.3,0.1-0.3,0.4,0,0.5l6,3.4c0.3,0.1,0.6,0.1,0.9,0l6.3-3.6c0.3-0.1,0.3-0.4,0.1-0.5l-6-3.4
			C349.5,279.1,349.1,279.1,348.8,279.3z M279.7,319.2l-6.3,3.6c-0.3,0.1-0.3,0.4,0,0.5l6,3.4c0.3,0.1,0.6,0.1,0.9,0l6.2-3.6
			c0.3-0.1,0.3-0.4,0.1-0.5l-6-3.4C280.3,319.1,280,319.1,279.7,319.2z M366.3,286.6c0.3,0.1,0.6,0.1,0.9,0l6.3-3.6
			c0.3-0.1,0.3-0.4,0-0.5l-6-3.5c-0.3-0.1-0.6-0.1-0.9,0l-6.3,3.6c-0.3,0.2-0.3,0.4-0.1,0.5L366.3,286.6z M288.9,314l-6.3,3.6
			c-0.3,0.1-0.3,0.4,0,0.5l6,3.4c0.3,0.1,0.6,0.1,0.9,0l6.3-3.6c0.3-0.1,0.3-0.4,0.1-0.5l-6-3.4C289.5,313.8,289.1,313.8,288.9,314
			L288.9,314z M216.8,372.9c0.3,0.1,0.6,0.1,0.9,0l6.3-3.6c0.3-0.1,0.3-0.4,0-0.5l-5.9-3.5c-0.3-0.1-0.6-0.1-0.9,0l-6.3,3.6
			c-0.3,0.2-0.3,0.4-0.1,0.5L216.8,372.9z M206.1,361.7l-6.3,3.7c-0.3,0.1-0.3,0.4,0,0.5l6,3.4c0.3,0.1,0.6,0.1,0.9,0l6.3-3.6
			c0.3-0.2,0.3-0.4,0.1-0.5l-6-3.4C206.7,361.5,206.4,361.5,206.1,361.7L206.1,361.7z M226.9,367.5l6.3-3.6c0.3-0.1,0.3-0.4,0-0.5
			l-6-3.4c-0.3-0.1-0.6-0.1-0.9,0l-6.3,3.6c-0.3,0.2-0.3,0.4,0,0.5l6,3.4C226.3,367.7,226.6,367.7,226.9,367.5L226.9,367.5z
			 M236.1,362.2l6.3-3.6c0.3-0.2,0.3-0.4,0.1-0.5l-6-3.5c-0.3-0.1-0.6-0.1-0.9,0l-6.3,3.6c-0.3,0.2-0.3,0.4,0,0.5l6,3.4
			C235.5,362.3,235.8,362.4,236.1,362.2L236.1,362.2z M245.3,356.9l6.3-3.6c0.3-0.2,0.3-0.4,0-0.5l-6-3.5c-0.3-0.1-0.6-0.1-0.9,0
			l-6.3,3.6c-0.3,0.2-0.3,0.4-0.1,0.5l6,3.4C244.6,357,245,357.1,245.3,356.9L245.3,356.9z M215.3,356.4L209,360
			c-0.3,0.1-0.3,0.4-0.1,0.5l6,3.4c0.3,0.1,0.6,0.1,0.9,0l6.3-3.6c0.3-0.2,0.3-0.4,0-0.5l-6-3.4
			C215.9,356.2,215.6,356.3,215.3,356.4L215.3,356.4z M224.5,351l-6.3,3.6c-0.3,0.1-0.3,0.4,0,0.5l6,3.4c0.3,0.1,0.6,0.1,0.9,0
			l6.3-3.6c0.3-0.1,0.3-0.4,0.1-0.5l-6-3.4C225.1,350.9,224.8,350.9,224.5,351L224.5,351z M261.3,329.8l-6.3,3.6
			c-0.3,0.1-0.3,0.4,0,0.5l6,3.4c0.3,0.1,0.6,0.1,0.9,0l6.3-3.6c0.3-0.1,0.3-0.4,0.1-0.5l-6-3.4
			C261.9,329.7,261.5,329.7,261.3,329.8L261.3,329.8z M252.1,335.2l-6.3,3.6c-0.3,0.1-0.3,0.4-0.1,0.5l6,3.4c0.3,0.1,0.6,0.1,0.9,0
			l6.3-3.6c0.3-0.1,0.3-0.4,0-0.5l-6-3.4C252.7,335.1,252.3,335.1,252.1,335.2z M270.5,324.6l-6.3,3.6c-0.3,0.1-0.3,0.4,0,0.5l6,3.4
			c0.3,0.1,0.6,0.1,0.9,0l6.3-3.6c0.3-0.1,0.3-0.4,0.1-0.5l-6-3.4C271.1,324.4,270.8,324.4,270.5,324.6L270.5,324.6z M233.7,345.8
			l-6.3,3.6c-0.3,0.1-0.3,0.4-0.1,0.5l6,3.4c0.3,0.1,0.6,0.1,0.9,0l6.3-3.6c0.3-0.1,0.3-0.4,0-0.5l-6-3.4
			C234.3,345.6,234,345.7,233.7,345.8z M242.9,340.5l-6.3,3.6c-0.3,0.1-0.3,0.4,0,0.5l6,3.4c0.3,0.1,0.6,0.1,0.9,0l6.3-3.6
			c0.3-0.1,0.3-0.4,0.1-0.5l-6-3.4C243.5,340.3,243.2,340.3,242.9,340.5z M231.1,375l6.3-3.6c0.3-0.1,0.3-0.4,0.1-0.5l-6-3.4
			c-0.3-0.1-0.6-0.1-0.9,0l-6.3,3.6c-0.3,0.2-0.3,0.4,0,0.5l6,3.4C230.6,375.2,230.9,375.2,231.1,375z M182.7,372.8l-6-3.4
			c-0.3-0.1-0.6-0.1-0.9,0l-6.3,3.6c-0.3,0.2-0.3,0.4,0,0.5l6,3.4c0.3,0.1,0.6,0.1,0.9,0l6.3-3.6
			C182.9,373.1,182.9,372.9,182.7,372.8z M194.6,375.8l-6-3.4c-0.3-0.1-0.6-0.1-0.9,0l-9.6,5.6c-0.3,0.2-0.3,0.4,0,0.5l6,3.4
			c0.3,0.1,0.6,0.1,0.9,0l9.7-5.6C194.9,376.1,194.9,375.9,194.6,375.8z M173.7,365.9l-6-3.4c-0.3-0.1-0.6-0.1-0.9,0l-7.7,4.5
			c-0.3,0.1-0.3,0.4,0,0.5l6,3.4c0.3,0.1,0.6,0.1,0.9,0l7.7-4.5C173.9,366.3,173.9,366,173.7,365.9z M179.6,362.5
			c0.3,0.1,0.6,0.1,0.9,0l6.3-3.6c0.3-0.2,0.3-0.4,0.1-0.5l-6-3.4c-0.3-0.1-0.6-0.1-0.9,0l-6.3,3.6c-0.3,0.1-0.3,0.4-0.1,0.5
			L179.6,362.5z M205.7,379.3l-6-3.4c-0.3-0.1-0.6-0.1-0.9,0l-12.1,7c-0.3,0.2-0.3,0.4,0,0.5l6,3.4c0.3,0.1,0.6,0.1,0.9,0l12.1-7
			C205.9,379.7,205.9,379.5,205.7,379.3L205.7,379.3z M209.9,386.8l-6-3.4c-0.3-0.1-0.6-0.1-0.9,0l-7.7,4.4c-0.3,0.2-0.3,0.4,0,0.5
			l6,3.5c0.3,0.1,0.6,0.1,0.9,0l7.7-4.5C210.1,387.2,210.1,386.9,209.9,386.8L209.9,386.8z M248,323c0.3,0.1,0.6,0.1,0.9,0l6.3-3.6
			c0.3-0.2,0.3-0.4,0.1-0.5l-6-3.4c-0.3-0.1-0.6-0.1-0.9,0L242,319c-0.3,0.2-0.3,0.4-0.1,0.5L248,323z M229.6,333.6
			c0.3,0.1,0.6,0.1,0.9,0l6.3-3.6c0.3-0.1,0.3-0.4,0.1-0.5l-6-3.5c-0.3-0.1-0.6-0.1-0.9,0l-6.3,3.6c-0.3,0.2-0.3,0.4,0,0.5
			L229.6,333.6z M188.8,357.2c0.3,0.1,0.6,0.1,0.9,0l6.3-3.7c0.3-0.2,0.3-0.4,0-0.5l-6-3.4c-0.3-0.1-0.6-0.1-0.9,0l-6.3,3.6
			c-0.3,0.1-0.3,0.4,0,0.5L188.8,357.2z M238.8,328.3c0.3,0.1,0.6,0.1,0.9,0l6.3-3.6c0.3-0.1,0.3-0.4,0.1-0.5l-6-3.5
			c-0.3-0.1-0.6-0.1-0.9,0l-6.3,3.6c-0.3,0.2-0.3,0.4-0.1,0.5L238.8,328.3z M220.4,339c0.3,0.1,0.6,0.1,0.9,0l6.3-3.6
			c0.3-0.1,0.3-0.4,0-0.5l-6-3.5c-0.3-0.1-0.6-0.1-0.9,0l-6.3,3.6c-0.3,0.2-0.3,0.4-0.1,0.5L220.4,339z M214.4,387.2
			c-0.3-0.1-0.6-0.1-0.9,0l-9.7,5.6c-0.3,0.1-0.3,0.4,0,0.5l6,3.4c0.3,0.1,0.6,0.1,0.9,0l9.7-5.6c0.3-0.1,0.3-0.4,0-0.5L214.4,387.2
			z M207.2,346.6c0.3,0.1,0.6,0.1,0.9,0l6.3-3.6c0.3-0.1,0.3-0.4,0-0.5l-6-3.4c-0.3-0.1-0.6-0.1-0.9,0l-6.3,3.6
			c-0.3,0.1-0.3,0.4-0.1,0.5L207.2,346.6z M198,351.9c0.3,0.1,0.6,0.1,0.9,0l6.3-3.6c0.3-0.1,0.3-0.4,0.1-0.5l-6-3.4
			c-0.3-0.1-0.6-0.1-0.9,0l-6.3,3.6c-0.3,0.1-0.3,0.4,0,0.5L198,351.9z M384.7,288.9c-0.3-0.1-0.6-0.1-0.9,0l-15.5,8.9
			c-0.3,0.2-0.3,0.4-0.1,0.5l6,3.5c0.3,0.1,0.6,0.1,0.9,0l15.5-8.9c0.3-0.2,0.3-0.4,0.1-0.5L384.7,288.9z M364.4,300.6
			c-0.3-0.1-0.6-0.1-0.9,0l-6.3,3.6c-0.3,0.2-0.3,0.4-0.1,0.5l6,3.5c0.3,0.1,0.6,0.1,0.9,0l6.3-3.6c0.3-0.2,0.3-0.4,0-0.5
			L364.4,300.6z M240.3,369.7l6.3-3.6c0.3-0.1,0.3-0.4,0.1-0.5l-6-3.4c-0.3-0.1-0.6-0.1-0.9,0l-6.3,3.6c-0.3,0.2-0.3,0.4,0,0.5
			l6,3.4C239.7,369.9,240.1,369.9,240.3,369.7z M346,311.2c-0.3-0.1-0.6-0.1-0.9,0l-6.3,3.6c-0.3,0.2-0.3,0.4-0.1,0.5l6,3.5
			c0.3,0.1,0.6,0.1,0.9,0l6.3-3.6c0.3-0.2,0.3-0.4,0-0.5L346,311.2z M394,283.6c-0.3-0.1-0.6-0.1-0.9,0l-6.3,3.7
			c-0.3,0.2-0.3,0.4-0.1,0.5l6,3.4c0.3,0.1,0.6,0.1,0.9,0l6.3-3.6c0.3-0.2,0.3-0.4,0-0.5L394,283.6z M409.2,281.7l-14.6-8.4
			c-0.3-0.1-0.6-0.1-0.9,0l-6.3,3.7c-0.3,0.2-0.3,0.4-0.1,0.5l14.6,8.4c0.3,0.1,0.6,0.1,0.9,0l6.3-3.6
			C409.3,282.1,409.4,281.8,409.2,281.7L409.2,281.7z M311.6,331c-0.3-0.1-0.6-0.1-0.9,0l-7.7,4.5c-0.3,0.2-0.3,0.4-0.1,0.5l6,3.4
			c0.3,0.1,0.6,0.1,0.9,0l7.7-4.5c0.3-0.2,0.3-0.4,0.1-0.5L311.6,331z M334.9,317.6c-0.3-0.1-0.6-0.1-0.9,0l-9.7,5.6
			c-0.3,0.2-0.3,0.4-0.1,0.5l6,3.4c0.3,0.1,0.6,0.1,0.9,0l9.7-5.6c0.3-0.2,0.3-0.4,0-0.5L334.9,317.6z M290.3,343.3
			c-0.3-0.1-0.6-0.1-0.9,0l-51.8,29.9c-0.3,0.1-0.3,0.4-0.1,0.5l6,3.4c0.3,0.1,0.6,0.1,0.9,0l51.8-29.9c0.3-0.2,0.3-0.4,0-0.5
			L290.3,343.3z M235.7,374.9c-0.3-0.1-0.6-0.1-0.9,0l-7.7,4.5c-0.3,0.2-0.3,0.4,0,0.5l6,3.5c0.3,0.1,0.6,0.1,0.9,0l7.7-4.5
			c0.3-0.1,0.3-0.4,0.1-0.5L235.7,374.9z M301,337.2c-0.3-0.1-0.6-0.1-0.9,0l-7.7,4.5c-0.3,0.1-0.3,0.4,0,0.5l6,3.4
			c0.3,0.1,0.6,0.1,0.9,0l7.7-4.5c0.3-0.1,0.3-0.4,0.1-0.5L301,337.2z M225,381.1c-0.3-0.1-0.6-0.1-0.9,0l-7.7,4.5
			c-0.3,0.2-0.3,0.4,0,0.5l6,3.4c0.3,0.1,0.6,0.1,0.9,0l7.7-4.5c0.3-0.2,0.3-0.4,0-0.5L225,381.1z M322.3,324.9
			c-0.3-0.1-0.6-0.1-0.9,0l-7.7,4.5c-0.3,0.1-0.3,0.4,0,0.5l6,3.5c0.3,0.1,0.6,0.1,0.9,0l7.7-4.5c0.3-0.1,0.3-0.4,0.1-0.5
			L322.3,324.9z M355.2,305.9c-0.3-0.1-0.6-0.1-0.9,0l-6.3,3.6c-0.3,0.2-0.3,0.4,0,0.5l6,3.4c0.3,0.1,0.6,0.1,0.9,0l6.3-3.6
			c0.3-0.2,0.3-0.4,0-0.5L355.2,305.9z M375.8,291.5l6.3-3.6c0.3-0.2,0.3-0.4,0.1-0.5l-6-3.4c-0.3-0.1-0.6-0.1-0.9,0l-6.3,3.6
			c-0.3,0.2-0.3,0.4,0,0.5l6,3.4C375.2,291.7,375.5,291.7,375.8,291.5L375.8,291.5z M338.3,293.4l6.3-3.6c0.3-0.1,0.3-0.4,0.1-0.5
			l-6-3.4c-0.3-0.1-0.6-0.1-0.9,0l-6.3,3.6c-0.3,0.1-0.3,0.4,0,0.5l6,3.4C337.7,293.5,338,293.5,338.3,293.4L338.3,293.4z
			 M313.9,327.3l18.4-10.6c0.3-0.2,0.3-0.4,0.1-0.5l-6-3.5c-0.3-0.1-0.6-0.1-0.9,0L307,323.3c-0.3,0.2-0.3,0.4-0.1,0.5l6,3.4
			C313.3,327.4,313.6,327.4,313.9,327.3z M365.7,296.9c0.3,0.1,0.6,0.1,0.9,0l6.3-3.6c0.3-0.2,0.3-0.4,0.1-0.5l-6-3.5
			c-0.3-0.1-0.6-0.1-0.9,0l-6.3,3.6c-0.3,0.2-0.3,0.4,0,0.5L365.7,296.9z M358,291.8l6.3-3.6c0.3-0.1,0.3-0.4,0.1-0.5l-6-3.4
			c-0.3-0.1-0.6-0.1-0.9,0l-6.3,3.6c-0.3,0.2-0.3,0.4-0.1,0.5l6,3.4C357.4,292,357.7,292,358,291.8z M304.7,332.5l6.3-3.6
			c0.3-0.2,0.3-0.4,0.1-0.5l-6-3.5c-0.3-0.1-0.6-0.1-0.9,0l-6.3,3.6c-0.3,0.2-0.3,0.4,0,0.5l6,3.5
			C304.1,332.7,304.4,332.7,304.7,332.5L304.7,332.5z M345.4,308.6c0.3,0.1,0.6,0.1,0.9,0l6.3-3.6c0.3-0.2,0.3-0.4,0.1-0.5l-6-3.4
			c-0.3-0.1-0.6-0.1-0.9,0l-6.3,3.6c-0.3,0.2-0.3,0.4,0,0.5L345.4,308.6z M258.7,359.2l6.3-3.6c0.3-0.1,0.3-0.4,0-0.5l-6-3.5
			c-0.3-0.1-0.6-0.1-0.9,0l-6.3,3.6c-0.3,0.2-0.3,0.4-0.1,0.5l6,3.4C258,359.3,258.4,359.3,258.7,359.2z M267.9,353.9l6.3-3.6
			c0.3-0.1,0.3-0.4,0.1-0.5l-6-3.5c-0.3-0.1-0.6-0.1-0.9,0l-6.3,3.6c-0.3,0.2-0.3,0.4,0,0.5l6,3.4
			C267.3,353.9,267.6,353.9,267.9,353.9L267.9,353.9z M249.5,364.5l6.3-3.6c0.3-0.1,0.3-0.4,0-0.5l-6-3.4c-0.3-0.1-0.6-0.1-0.9,0
			l-6.3,3.6c-0.3,0.2-0.3,0.4-0.1,0.5l6,3.4C248.9,364.6,249.2,364.6,249.5,364.5L249.5,364.5z M286.3,343.2l6.3-3.6
			c0.3-0.2,0.3-0.4,0.1-0.5l-6-3.5c-0.3-0.1-0.6-0.1-0.9,0l-6.3,3.6c-0.3,0.2-0.3,0.4,0,0.5l6,3.5
			C285.7,343.3,286,343.3,286.3,343.2z M277.1,348.5l6.3-3.6c0.3-0.1,0.3-0.4,0.1-0.5l-6.1-3.4c-0.3-0.1-0.6-0.1-0.9,0l-6.3,3.6
			c-0.3,0.2-0.3,0.4-0.1,0.5l6,3.4C276.5,348.7,276.8,348.7,277.1,348.5L277.1,348.5z M295.5,337.9l6.3-3.6c0.3-0.2,0.3-0.4,0-0.5
			l-6-3.5c-0.3-0.1-0.6-0.1-0.9,0l-6.3,3.6c-0.3,0.2-0.3,0.4-0.1,0.5l6,3.5C294.8,338,295.2,338,295.5,337.9L295.5,337.9z
			 M345.7,264c0.3,0.1,0.6,0.1,0.9,0l6.3-3.6c0.3-0.2,0.3-0.4,0.1-0.5l-1.6-0.9c-0.3-0.1-0.6-0.1-0.9,0l-6.3,3.6
			c-0.3,0.1-0.3,0.4,0,0.5L345.7,264z M300,293c0.3,0.1,0.6,0.1,0.9,0l6.3-3.6c0.3-0.2,0.3-0.4,0-0.5l-6-3.4c-0.3-0.1-0.6-0.1-0.9,0
			L294,289c-0.3,0.1-0.3,0.4-0.1,0.5L300,293z M318.4,282.4c0.3,0.1,0.6,0.1,0.9,0l6.3-3.6c0.3-0.2,0.3-0.4,0-0.5l-6-3.5
			c-0.3-0.1-0.6-0.1-0.9,0l-6.3,3.6c-0.3,0.1-0.3,0.4-0.1,0.5L318.4,282.4z M288.8,299.5c0.3,0.1,0.6,0.1,0.9,0l6.3-3.6
			c0.3-0.1,0.3-0.4,0.1-0.5l-6.1-3.5c-0.3-0.1-0.6-0.1-0.9,0l-6.3,3.6c-0.3,0.1-0.3,0.4-0.1,0.5L288.8,299.5z M309.2,287.7
			c0.3,0.1,0.6,0.1,0.9,0l6.3-3.6c0.3-0.2,0.3-0.4,0.1-0.5l-6-3.4c-0.3-0.1-0.6-0.1-0.9,0l-6.3,3.6c-0.3,0.1-0.3,0.4-0.1,0.5
			L309.2,287.7z M270.4,310.1c0.3,0.1,0.6,0.1,0.9,0l6.3-3.6c0.3-0.2,0.3-0.4,0.1-0.5l-6-3.4c-0.3-0.1-0.6-0.1-0.9,0l-6.3,3.6
			c-0.3,0.1-0.3,0.4-0.1,0.5L270.4,310.1z M279.6,304.8c0.3,0.1,0.6,0.1,0.9,0l6.3-3.6c0.3-0.2,0.3-0.4,0-0.5l-6-3.4
			c-0.3-0.1-0.6-0.1-0.9,0l-6.3,3.6c-0.3,0.1-0.3,0.4-0.1,0.5L279.6,304.8z M327.3,274.7c0.3,0.1,0.6,0.1,0.9,0l6.3-3.6
			c0.3-0.2,0.3-0.4,0.1-0.5l-1.6-0.9c-0.3-0.1-0.6-0.1-0.9,0l-6.3,3.6c-0.3,0.1-0.3,0.4-0.1,0.5L327.3,274.7z M354.9,258.7
			c0.3,0.1,0.6,0.1,0.9,0l6.3-3.6c0.3-0.2,0.3-0.4,0-0.5l-1.6-0.9c-0.3-0.1-0.6-0.1-0.9,0l-6.3,3.6c-0.3,0.1-0.3,0.4-0.1,0.5
			L354.9,258.7z M367.5,266c0.3,0.1,0.6,0.1,0.9,0l6.3-3.6c0.3-0.1,0.3-0.4,0.1-0.5l-6-3.4c-0.3-0.1-0.6-0.1-0.9,0l-6.3,3.6
			c-0.3,0.1-0.3,0.4-0.1,0.5L367.5,266z M385,286.2l6.3-3.6c0.3-0.2,0.3-0.4,0-0.5l-6-3.5c-0.3-0.1-0.6-0.1-0.9,0l-6.3,3.6
			c-0.3,0.2-0.3,0.4-0.1,0.5l6,3.5C384.3,286.4,384.7,286.4,385,286.2L385,286.2z M336.5,269.3c0.3,0.1,0.6,0.1,0.9,0l6.3-3.6
			c0.3-0.2,0.3-0.4,0-0.5l-1.6-0.9c-0.3-0.1-0.6-0.1-0.9,0l-6.3,3.6c-0.3,0.1-0.3,0.4,0,0.5L336.5,269.3z M261.1,315.4
			c0.3,0.1,0.6,0.1,0.9,0l6.3-3.6c0.3-0.2,0.3-0.4,0.1-0.5l-6-3.4c-0.3-0.1-0.6-0.1-0.9,0l-6.3,3.6c-0.3,0.1-0.3,0.4-0.1,0.5
			L261.1,315.4z"/>
		<polygon class="st0" points="288.4,362.8 289.7,363.5 323.9,383.3 384.8,348.1 386.1,347.4 350.6,326.9 		"/>
		<polygon class="st2" points="289.7,363.5 323.9,383.3 384.8,348.1 350.6,328.4 		"/>
	</g>
</g>
<g id="freepik--mail-box--inject-33">
	<g id="freepik--MailBox--inject-33">
		<path class="st4" d="M96,208.7l-14-8c-0.6-0.4-1.1-0.5-1.3-0.3l-1.7,1c-0.3,0.2-0.3,0.7,0.1,1.4l3.4,7l-2.5,2.3
			c-0.9,0.7-1,1.9-0.4,2.8c0.2,0.3,0.4,0.5,0.7,0.6l14,8.1l1.7-1L96,208.7z"/>
		<path class="st5" d="M96,208.7l-14-8c-0.6-0.4-1.1-0.5-1.3-0.3l-1.7,1c-0.3,0.2-0.3,0.7,0.1,1.4l3.4,7l-2.5,2.3
			c-0.9,0.7-1,1.9-0.4,2.8c0.2,0.3,0.4,0.5,0.7,0.6l14,8.1l1.7-1L96,208.7z"/>
		<path class="st4" d="M80.3,201.7c-1.4-0.8-1.9-0.3-1.2,1.1l3.4,7l-2.5,2.3c-0.9,0.7-1,1.9-0.4,2.8c0.2,0.3,0.4,0.5,0.7,0.6l14,8.1
			v-13.8L80.3,201.7z"/>
		<path class="st1" d="M95.9,253.1c-0.9,0-1.6-0.7-1.6-1.6l0,0v-46.4c0.1-0.9,0.9-1.6,1.8-1.5c0.8,0.1,1.4,0.7,1.5,1.5v46.4
			C97.6,252.4,96.8,253.1,95.9,253.1L95.9,253.1z"/>
		<path class="st2" d="M35.9,376.6v-2.9h0.7c1.1-1.9,2.7-3.5,4.7-4.6c7.2-4.2,18.9-4.2,26.1,0c2,1,3.6,2.6,4.7,4.6h0.7v2.8
			c0,2.8-1.7,5.6-5.4,7.7c-7.2,4.2-18.9,4.2-26.1,0C37.7,382.1,35.8,379.3,35.9,376.6z"/>
		<ellipse class="st1" cx="54.3" cy="373.7" rx="18.5" ry="10.7"/>
		<path class="st0" d="M59.1,273.3v99.1c-0.1,0.9-0.6,1.6-1.4,1.9c-2.1,1.1-4.6,1.1-6.7,0c-0.8-0.3-1.3-1.1-1.4-1.9v-99.1H59.1z"/>
		<polygon class="st2" points="49.6,285.3 49.6,294.6 59.1,300.1 59.1,290.8 		"/>
		<path class="st4" d="M84,264.4l17.6,10.2c-0.1,0.1-0.2,0.3-0.3,0.4l-30.7,17.7c-0.3,0.1-0.5,0-0.5-0.3v-22.2
			c0.1-4.3,1-8.5,2.6-12.4L84,264.4z"/>
		<path class="st6" d="M84,264.4l17.6,10.2c-0.1,0.1-0.2,0.3-0.3,0.4l-30.7,17.7c-0.3,0.1-0.5,0-0.5-0.3v-22.2
			c0.1-4.3,1-8.5,2.6-12.4L84,264.4z"/>
		<path class="st4" d="M101.8,249.9v24.8l-29.1-16.8l0.1-0.2c3.1-7.8,8.3-14.4,14.1-17.7c2-1.2,4.2-2,6.6-2
			C98.6,237.9,101.8,242.5,101.8,249.9z"/>
		<path class="st7" d="M101.8,249.9v24.8l-29.1-16.8l0.1-0.2c3.1-7.8,8.3-14.4,14.1-17.7c2-1.2,4.2-2,6.6-2
			C98.6,237.9,101.8,242.5,101.8,249.9z"/>
		<path class="st4" d="M133.4,302.3v-2.2h-0.2v0.3c-0.1-0.6-0.3-1.2-0.6-1.8c-1.1-2.7-3.6-5.3-7.4-7.5l-20.8-12
			c-1-0.5-2.2-0.5-3.1,0l-31.8,18.4c-0.4-0.3-0.7-0.7-1-1.1v2.3l0,0c0,0.4,0.3,0.7,0.6,0.9l20.8,12c6.1,3.3,13,4.9,19.9,4.7
			c5.8,0.1,11.5-1.3,16.6-4C131.1,309.6,133.4,306,133.4,302.3L133.4,302.3z"/>
		<path class="st6" d="M133.4,302.3v-2.2h-0.2v0.3c-0.1-0.6-0.3-1.2-0.6-1.8c-1.1-2.7-3.6-5.3-7.4-7.5l-20.8-12
			c-1-0.5-2.2-0.5-3.1,0l-31.8,18.4c-0.4-0.3-0.7-0.7-1-1.1v2.3l0,0c0,0.4,0.3,0.7,0.6,0.9l20.8,12c6.1,3.3,13,4.9,19.9,4.7
			c5.8,0.1,11.5-1.3,16.6-4C131.1,309.6,133.4,306,133.4,302.3L133.4,302.3z"/>
		<path class="st4" d="M132.6,298.7c-1.1-2.7-3.6-5.3-7.4-7.5l-20.8-12c-1-0.5-2.2-0.5-3.1,0l-31.8,18.4L90,309.4
			c6.1,3.3,13,4.9,19.9,4.7c5.8,0.1,11.5-1.3,16.6-4c4.2-2.4,6.5-5.5,6.9-8.8C133.2,300.3,133,299.5,132.6,298.7z"/>
		<path class="st8" d="M132.6,298.7c-1.1-2.7-3.6-5.3-7.4-7.5l-20.8-12c-1-0.5-2.2-0.5-3.1,0l-31.8,18.4L90,309.4
			c6.1,3.3,13,4.9,19.9,4.7c5.8,0.1,11.5-1.3,16.6-4c4.2-2.4,6.5-5.5,6.9-8.8C133.2,300.3,133,299.5,132.6,298.7z"/>
		<path class="st4" d="M133.3,301.2c-0.1-0.9-0.3-1.8-0.7-2.6c-1.1-2.7-3.6-5.3-7.4-7.5l-20.8-12c-1-0.5-2.2-0.5-3.1,0l-31.8,18.4
			l-0.4-0.2c-0.5-0.2-0.8-0.7-0.6-1.2c0.1-0.3,0.3-0.5,0.6-0.6l32.2-18.5c1-0.5,2.2-0.5,3.1,0l20.8,12c3.7,2.2,6.2,4.8,7.4,7.5
			c0.4,0.9,0.6,1.8,0.7,2.7C133.4,299.9,133.4,300.6,133.3,301.2z"/>
		<path class="st7" d="M133.3,301.2c-0.1-0.9-0.3-1.8-0.7-2.6c-1.1-2.7-3.6-5.3-7.4-7.5l-20.8-12c-1-0.5-2.2-0.5-3.1,0l-31.8,18.4
			l-0.4-0.2c-0.5-0.2-0.8-0.7-0.6-1.2c0.1-0.3,0.3-0.5,0.6-0.6l32.2-18.5c1-0.5,2.2-0.5,3.1,0l20.8,12c3.7,2.2,6.2,4.8,7.4,7.5
			c0.4,0.9,0.6,1.8,0.7,2.7C133.4,299.9,133.4,300.6,133.3,301.2z"/>
		<polygon class="st4" points="69.8,295.2 102,276.6 101.3,274.9 70.5,292.7 		"/>
		<polygon class="st9" points="69.8,295.2 102,276.6 101.3,274.9 70.5,292.7 		"/>
		<g id="freepik--Letter--inject-33">
			<path class="st10" d="M98.9,248.5c0-0.5-0.3-1-0.8-1.3L59,224.5c-0.5-0.3-1.1-0.3-1.5,0l-0.9,0.5c-0.5,0.3-0.7,0.8-0.8,1.3v30
				c0,0.5,0.3,1,0.8,1.3l39.2,22.6c0.5,0.2,1.1,0.2,1.5,0l0.9-0.5c0.5-0.3,0.7-0.8,0.8-1.3v-29.9H98.9z"/>
			<path class="st11" d="M98.7,247.7l-2.2,1.3L56,225.5c0.1-0.2,0.3-0.4,0.5-0.6l0.9-0.5c0.5-0.3,1.1-0.3,1.5,0L98.1,247
				C98.4,247.2,98.6,247.4,98.7,247.7z"/>
			<path class="st4" d="M96.4,280.4L96.4,280.4z"/>
			<path class="st12" d="M96.5,248.9l-0.4,0.2c0.3,0.1,0.4,0.4,0.4,0.7v30c0,0.2-0.1,0.4-0.2,0.5c-0.1,0-0.2,0-0.4,0l-0.2-0.1
				l-39.2-22.6c-0.4-0.3-0.7-0.8-0.8-1.3v-30c0-0.3,0.1-0.5,0.2-0.8L96.5,248.9z"/>
			<path class="st8" d="M96.5,248.9l-18.1,6.8c-1.3,0.5-2.8,0-3.5-1.1l-2.9-4.5l-16-24.6l15.5,24.8l-15.6,6.1c0,0.3,0.1,0.5,0.2,0.8
				l15.4-6.8l3.4,5.4c0.8,1.2,2.4,1.7,3.7,1.1l2.4-1.1l15.4,24.5c0.2-0.1,0.2-0.3,0.2-0.5v-0.6L81,255.8L96.5,248.9z"/>
		</g>
		<g id="freepik--letter--inject-33">
			<path class="st10" d="M89.7,253.7c0-0.5-0.3-1-0.8-1.3l-39.2-22.6c-0.5-0.3-1.1-0.3-1.5,0l-0.9,0.5c-0.4,0.3-0.7,0.8-0.8,1.3v30
				c0,0.5,0.3,1,0.8,1.3l39.2,22.6c0.5,0.3,1.1,0.3,1.5,0l0.9-0.5c0.4-0.3,0.7-0.8,0.8-1.3V253.7z"/>
			<path class="st11" d="M89.4,253l-2.2,1.3l-40.5-23.4c0.1-0.2,0.3-0.4,0.5-0.6l0.9-0.5c0.5-0.3,1.1-0.3,1.5,0l39.2,22.6
				C89.1,252.5,89.3,252.8,89.4,253z"/>
			<path class="st4" d="M87.1,285.7L87.1,285.7z"/>
			<path class="st12" d="M87.3,254.2l-0.4,0.2c0.3,0.1,0.4,0.4,0.4,0.7v30c0,0.2-0.1,0.4-0.2,0.5c-0.1,0-0.2,0-0.4,0l-0.2-0.1
				L47.3,263c-0.4-0.3-0.7-0.8-0.8-1.3v-30c0-0.3,0.1-0.5,0.2-0.8L87.3,254.2z"/>
			<path class="st8" d="M87.3,254.2L69.1,261c-1.3,0.5-2.7,0-3.5-1.1l-2.9-4.5l-16.1-24.6l15.5,24.8l-15.6,6.1
				c0,0.3,0.1,0.5,0.2,0.8l15.4-6.8l3.4,5.4c0.8,1.2,2.3,1.7,3.7,1.1l2.4-1.1L87,285.6c0.2-0.1,0.3-0.3,0.2-0.5v-0.5L71.7,261
				L87.3,254.2z"/>
		</g>
		<g>
			<path class="st10" d="M80.4,259c0-0.5-0.3-1-0.8-1.3l-39.2-22.6c-0.5-0.2-1-0.2-1.5,0l-0.9,0.5c-0.5,0.3-0.7,0.8-0.8,1.3v30
				c0,0.5,0.3,1,0.8,1.3l39.2,22.6c0.5,0.2,1.1,0.2,1.5,0l0.9-0.5c0.5-0.3,0.7-0.8,0.8-1.3V259z"/>
			<path class="st11" d="M80.2,258.3l-2.2,1.3l-40.5-23.4c0.1-0.2,0.3-0.4,0.5-0.6l0.9-0.5c0.5-0.2,1-0.2,1.5,0l39.2,22.6
				C79.8,257.8,80,258,80.2,258.3z"/>
			<path class="st4" d="M77.8,291L77.8,291L77.8,291C77.9,291.1,77.8,291.1,77.8,291z"/>
			<path class="st12" d="M78,259.5l-0.4,0.2c0.3,0.1,0.4,0.4,0.4,0.7v30c0,0.2-0.1,0.4-0.2,0.5c-0.1,0-0.2,0-0.4,0l-0.2-0.1
				L38,268.3c-0.5-0.3-0.7-0.8-0.8-1.3v-30c0-0.3,0.1-0.5,0.2-0.8L78,259.5z"/>
			<path class="st8" d="M78,259.5l-18.1,6.8c-1.3,0.5-2.7,0-3.5-1.1l-2.9-4.5l-16.1-24.6l15.5,24.8L37.3,267c0,0.3,0.1,0.5,0.2,0.8
				l15.4-6.8l3.4,5.4c0.8,1.2,2.4,1.7,3.7,1.1l2.4-1.1l15.4,24.5c0.2-0.1,0.3-0.3,0.2-0.5v-0.5l-15.5-23.6L78,259.5z"/>
		</g>
		<path class="st4" d="M97.7,237c-3.1-1.6-7.2-1.3-11.8,1.3c-5.1,2.9-9.7,8.2-12.9,14.3c-0.7,1.4-1.4,2.8-2,4.3
			c-1.8,4.2-2.7,8.7-2.8,13.3v25.4c-0.5,0-1.1-0.1-1.6-0.4l-45.1-26c-0.9-0.6-1.5-1.6-1.6-2.7v-24c0-12,7.9-26.3,17.7-32
			c4.6-2.7,8.8-2.9,12-1.1l0,0L97.7,237z"/>
		<path class="st8" d="M97.7,237c-3.1-1.6-7.2-1.3-11.8,1.3c-5.1,2.9-9.7,8.2-12.9,14.3c-0.7,1.4-1.4,2.8-2,4.3
			c-1.8,4.2-2.7,8.7-2.8,13.3v25.4c-0.5,0-1.1-0.1-1.6-0.4l-45.1-26c-0.9-0.6-1.5-1.6-1.6-2.7v-24c0-12,7.9-26.3,17.7-32
			c4.6-2.7,8.8-2.9,12-1.1l0,0L97.7,237z"/>
		<path class="st9" d="M21.6,269.2l45.1,26.1c0.5,0.3,1,0.4,1.6,0.4v-25.4c0-2.4,0.3-4.8,0.8-7.1l-48.2-27.8
			c-0.5,2.3-0.8,4.7-0.8,7.1v24C20.1,267.6,20.7,268.6,21.6,269.2z"/>
		<path class="st4" d="M71,256.9c-1.8,4.2-2.7,8.7-2.8,13.3v25.3c-0.2,0-0.4,0-0.6-0.1c0-1.4,0-9.6,0-25.3c0-18.6,14.3-30.5,18.3-32
			c-5.1,2.9-9.7,8.2-12.9,14.3C72.3,254,71.6,255.5,71,256.9z"/>
		<path class="st6" d="M71,256.9c-1.8,4.2-2.7,8.7-2.8,13.3v25.3c-0.2,0-0.4,0-0.6-0.1c0-1.4,0-9.6,0-25.3c0-18.6,14.3-30.5,18.3-32
			c-5.1,2.9-9.7,8.2-12.9,14.3C72.3,254,71.6,255.5,71,256.9z"/>
		<path class="st4" d="M70.5,292.7c-0.3,0.1-0.5,0-0.5-0.3v-22.2c0.1-4.3,1-8.5,2.6-12.4l0.1-0.2c0.6-1.6,1.3-3.1,2.1-4.6
			c3.1-5.7,7.3-10.5,11.9-13.1c2-1.2,4.2-2,6.6-2c1.2,0,2.4,0.3,3.4,0.8c3.1,1.6,4.9,5.6,4.9,11.2v24.3c0,0.3-0.2,0.6-0.5,0.8
			l0.7,1.7l0.2-0.1c0.2-0.2,0.5-0.4,0.7-0.6l0,0c0.5-0.6,0.7-1.3,0.8-2v-24c0-6.4-2.3-10.9-5.9-12.8c-3.1-1.6-7.2-1.4-11.8,1.3
			c-5.1,2.9-9.7,8.2-12.9,14.3c-0.7,1.4-1.4,2.8-2,4.3c-1.8,4.2-2.7,8.8-2.8,13.3v25.3h0.4c0.5,0,0.9-0.2,1.3-0.4L70.5,292.7z"/>
		<path class="st9" d="M70.5,292.7c-0.3,0.1-0.5,0-0.5-0.3v-22.2c0.1-4.3,1-8.5,2.6-12.4l0.1-0.2c0.6-1.6,1.3-3.1,2.1-4.6
			c3.1-5.7,7.3-10.5,11.9-13.1c2-1.2,4.2-2,6.6-2c1.2,0,2.4,0.3,3.4,0.8c3.1,1.6,4.9,5.6,4.9,11.2v24.3c0,0.3-0.2,0.6-0.5,0.8
			l0.7,1.7l0.2-0.1c0.2-0.2,0.5-0.4,0.7-0.6l0,0c0.5-0.6,0.7-1.3,0.8-2v-24c0-6.4-2.3-10.9-5.9-12.8c-3.1-1.6-7.2-1.4-11.8,1.3
			c-5.1,2.9-9.7,8.2-12.9,14.3c-0.7,1.4-1.4,2.8-2,4.3c-1.8,4.2-2.7,8.8-2.8,13.3v25.3h0.4c0.5,0,0.9-0.2,1.3-0.4L70.5,292.7z"/>
	</g>
</g>
<g id="freepik--Envelopes--inject-33">
	<g id="freepik--envelope--inject-33">
		<g>
			<path class="st4" d="M175.1,219.2c0.1-2.1,1.2-4,3-5.1l146.3-84.5c1.9-0.9,4.1-0.9,5.9,0l3.3,1.9c1.8,1.1,2.9,3,3,5.1V253
				c-0.1,2.1-1.2,4-3,5.1l-146.3,84.5c-1.9,0.9-4.1,0.9-5.9,0l-3.4-2c-1.7-1.1-2.8-3.1-3-5.1L175.1,219.2z"/>
			<g class="st13">
				<path class="st3" d="M175.1,219.2c0.1-2.1,1.2-4,3-5.1l146.3-84.5c1.9-0.9,4.1-0.9,5.9,0l3.3,1.9c1.8,1.1,2.9,3,3,5.1V253
					c-0.1,2.1-1.2,4-3,5.1l-146.3,84.5c-1.9,0.9-4.1,0.9-5.9,0l-3.4-2c-1.7-1.1-2.8-3.1-3-5.1L175.1,219.2z"/>
			</g>
			<path class="st4" d="M176,216.3l8.4,4.9l151.3-87.4c-0.5-0.9-1.2-1.7-2.1-2.2l-3.4-1.9c-1.9-1-4.1-1-5.9,0L178,214.1
				C177.2,214.6,176.5,215.4,176,216.3z"/>
			<path class="st14" d="M176,216.3l8.4,4.9l151.3-87.4c-0.5-0.9-1.2-1.7-2.1-2.2l-3.4-1.9c-1.9-1-4.1-1-5.9,0L178,214.1
				C177.2,214.6,176.5,215.4,176,216.3z"/>
			<path class="st9" d="M175.1,219.2v116.3c0.1,2.1,1.2,4,2.9,5.1l3.3,1.9c0.3,0.1,0.5,0.3,0.8,0.4c0.4,0.1,0.8,0.2,1.2,0.3
				c0.8,0.1,1.6,0.1,2.3-0.1l0.6-0.2c0.1,0,0.2-0.1,0.4-0.1c-0.5,0.2-1,0.2-1.4,0c-0.6-0.4-1-1.2-0.9-2V224.6
				c-0.1-1.1,0.6-2.1,1.5-2.5l-1.5-0.9l-8.4-4.9C175.4,217.2,175.1,218.2,175.1,219.2z"/>
			<path class="st15" d="M184.4,221.1l70.3,26.3c5,1.9,10.6,0,13.6-4.5l11.3-17.3l56.3-91.9l-54,92.5l54.9,26.7
				c-0.1,1.1-0.4,2.1-0.9,3l-54.1-29.4l-13.1,21c-3,4.8-9.1,6.7-14.3,4.4l-9.3-4.1l-59.5,95c-0.6-0.4-1-1.2-0.9-2v-1.9l60.1-91.2
				L184.4,221.1z"/>
			<path class="st16" d="M184.4,221.1l70.3,26.3c5,1.9,10.6,0,13.6-4.5l11.3-17.3l56.3-91.9l-54,92.5l54.9,26.7
				c-0.1,1.1-0.4,2.1-0.9,3l-54.1-29.4l-13.1,21c-3,4.8-9.1,6.7-14.3,4.4l-9.3-4.1l-59.5,95c-0.6-0.4-1-1.2-0.9-2v-1.9l60.1-91.2
				L184.4,221.1z"/>
		</g>
	</g>
</g>
<g>
	<g id="freepik--paper-plane--inject-33">
		<polygon class="st4" points="402.9,164.8 443.3,139 461.1,144.7 		"/>
		<polygon class="st4" points="402.9,164.8 437.8,135.7 430,126.8 		"/>
		<polygon class="st4" points="437.8,135.7 437.8,142.5 402.9,164.8 		"/>
		<polygon class="st17" points="437.8,135.7 437.8,142.5 402.9,164.8 		"/>
		<path class="st11" d="M443.6,135.1c-0.5,0-0.9-0.4-0.9-0.9c0-0.2,0.1-0.5,0.3-0.6c1.2-1.1,2.3-2.3,3.3-3.6
			c0.3-0.4,0.8-0.5,1.2-0.2c0.4,0.3,0.5,0.8,0.2,1.2c0,0,0,0-0.1,0.1c-1.1,1.4-2.2,2.6-3.5,3.8C444,135.1,443.8,135.1,443.6,135.1z
			 M450,126.6c-0.1,0-0.3,0-0.4-0.1c-0.4-0.2-0.6-0.7-0.4-1.1l0,0c1-2,1.8-4.1,2.3-6.2c0.1-0.5,0.6-0.7,1-0.6c0.5,0.1,0.7,0.6,0.6,1
			c-0.5,2.3-1.3,4.5-2.4,6.6C450.7,126.4,450.4,126.6,450,126.6z M453.2,114.6L453.2,114.6c-0.5,0-0.8-0.4-0.8-0.9l0,0
			c0-0.5,0-0.9,0-1.4c0-1.8-0.1-3.5-0.4-5.3c-0.1-0.5,0.2-0.9,0.7-1l0,0c0.5-0.1,0.9,0.2,1,0.7c0.3,1.8,0.5,3.7,0.5,5.5
			c0,0.5,0,1,0,1.4C454,114.2,453.6,114.6,453.2,114.6L453.2,114.6z M451.3,102.2c-0.4,0-0.7-0.2-0.8-0.6c-0.7-2.1-1.7-4.1-2.8-6.1
			c-0.2-0.4-0.1-0.9,0.3-1.1s0.9-0.1,1.1,0.3c1.2,2,2.1,4.2,2.9,6.4c0.2,0.4,0,0.9-0.5,1.1c0,0,0,0-0.1,0
			C451.5,102.3,451.4,102.2,451.3,102.2L451.3,102.2z M445.3,91.3c-0.3,0-0.5-0.1-0.7-0.3c-1.4-1.8-2.9-3.4-4.5-5
			c-0.4-0.3-0.5-0.8-0.3-1.2c0.3-0.4,0.8-0.5,1.2-0.3c0.1,0.1,0.2,0.1,0.2,0.2c1.7,1.6,3.3,3.3,4.7,5.2c0.2,0.4,0.2,0.9-0.2,1.1
			C445.7,91.1,445.5,91.2,445.3,91.3L445.3,91.3z M436.4,82.5c-0.2,0-0.4-0.1-0.5-0.2c-1.8-1.4-3.7-2.6-5.6-3.7
			c-0.4-0.2-0.5-0.7-0.3-1.1s0.7-0.5,1.1-0.3c2,1.2,3.9,2.4,5.8,3.8c0.4,0.3,0.5,0.8,0.2,1.2C436.9,82.4,436.6,82.5,436.4,82.5
			L436.4,82.5z M346.7,79.2c-0.5,0-0.9-0.4-0.9-0.8c0-0.3,0.2-0.6,0.4-0.7c2-1.1,4-2.2,6.1-3.2c0.4-0.2,0.9,0,1.1,0.4l0,0
			c0.2,0.4,0,0.9-0.4,1.1l0,0c-2,1-4.1,2-6,3.1C347,79.1,346.8,79.2,346.7,79.2L346.7,79.2z M425.6,76.1c-0.1,0-0.3,0-0.4-0.1
			c-2-1-4.1-1.9-6.2-2.7c-0.4-0.2-0.7-0.7-0.5-1.1l0,0c0.2-0.4,0.7-0.7,1.1-0.5l0,0c2.1,0.8,4.3,1.7,6.3,2.8
			c0.4,0.2,0.6,0.7,0.4,1.1C426.3,75.9,426,76.1,425.6,76.1L425.6,76.1z M358,73.8c-0.4,0-0.7-0.2-0.8-0.5c-0.2-0.4,0-0.9,0.4-1.1
			l0,0c2.1-0.8,4.3-1.6,6.5-2.3c0.5-0.1,0.9,0.1,1.1,0.6s-0.1,0.9-0.6,1.1c-2.2,0.6-4.3,1.4-6.4,2.2C358.2,73.7,358.1,73.8,358,73.8
			L358,73.8z M413.9,71.5c-0.1,0-0.2,0-0.3,0c-2.1-0.7-4.3-1.2-6.6-1.7c-0.5-0.1-0.8-0.6-0.7-1.1c0.1-0.5,0.6-0.8,1.1-0.7
			c2.3,0.5,4.5,1.1,6.7,1.7c0.5,0.1,0.7,0.6,0.6,1.1l0,0C414.7,71.3,414.3,71.5,413.9,71.5L413.9,71.5z M370,70
			c-0.4,0-0.7-0.3-0.8-0.7c-0.1-0.5,0.2-0.9,0.7-1c2.2-0.5,4.5-0.9,6.8-1.3c0.5-0.1,0.9,0.2,1,0.7s-0.2,0.9-0.7,1h-0.1
			c-2.3,0.3-4.5,0.8-6.7,1.3H370z M401.7,68.7h-0.1c-2.2-0.3-4.5-0.6-6.7-0.7c-0.5,0-0.9-0.4-0.9-0.8c0-0.5,0.4-0.9,0.8-0.9
			c0.1,0,0.1,0,0.2,0c2.3,0.1,4.6,0.4,6.8,0.7c0.5,0.1,0.8,0.5,0.7,1C402.4,68.4,402.1,68.7,401.7,68.7L401.7,68.7z M382.4,68.1
			c-0.5,0-0.9-0.3-0.9-0.8s0.3-0.9,0.8-0.9l0,0c2.3-0.2,4.6-0.3,6.9-0.3l0,0c0.5,0,0.9,0.4,0.9,0.9s-0.4,0.9-0.9,0.9
			C387,67.8,384.7,67.9,382.4,68.1L382.4,68.1z"/>
	</g>
</g>
</svg>
